<?xml version="1.0" encoding="UTF-8" standalone="no"?>
<!-- Created with Inkscape (http://www.inkscape.org/) -->

<svg
   xmlns:dc="http://purl.org/dc/elements/1.1/"
   xmlns:cc="http://creativecommons.org/ns#"
   xmlns:rdf="http://www.w3.org/1999/02/22-rdf-syntax-ns#"
   xmlns:svg="http://www.w3.org/2000/svg"
   xmlns="http://www.w3.org/2000/svg"
   xmlns:xlink="http://www.w3.org/1999/xlink"
   xmlns:sodipodi="http://sodipodi.sourceforge.net/DTD/sodipodi-0.dtd"
   xmlns:inkscape="http://www.inkscape.org/namespaces/inkscape"
   sodipodi:docname="add-files-to-archive.svg"
   inkscape:version="0.91 r13725"
   version="1.1"
   id="svg2"
   height="128"
   width="128">
  <sodipodi:namedview
     id="base"
     pagecolor="#ffffff"
     bordercolor="#666666"
     borderopacity="1.0"
     inkscape:pageopacity="0.0"
     inkscape:pageshadow="2"
     inkscape:zoom="2.3548316"
     inkscape:cx="42.307805"
     inkscape:cy="36.728485"
     inkscape:document-units="px"
     inkscape:current-layer="layer1"
     showgrid="true"
     showguides="true"
     inkscape:guide-bbox="true"
     inkscape:window-width="1920"
     inkscape:window-height="1028"
     inkscape:window-x="-8"
     inkscape:window-y="-8"
     inkscape:window-maximized="1">
    <inkscape:grid
       snapvisiblegridlinesonly="true"
       enabled="true"
       visible="true"
       empspacing="4"
       id="grid2985"
       type="xygrid" />
  </sodipodi:namedview>
  <defs
     id="defs4">
    <linearGradient
       id="linearGradient6961">
      <stop
         style="stop-color:#000000;stop-opacity:1;"
         offset="0"
         id="stop6963" />
      <stop
         style="stop-color:#000000;stop-opacity:0.38797814;"
         offset="1"
         id="stop6965" />
    </linearGradient>
    <linearGradient
       inkscape:collect="always"
       id="linearGradient7006">
      <stop
         style="stop-color:#ffffff;stop-opacity:1;"
         offset="0"
         id="stop7008" />
      <stop
         style="stop-color:#ffffff;stop-opacity:0;"
         offset="1"
         id="stop7010" />
    </linearGradient>
    <linearGradient
       inkscape:collect="always"
       id="linearGradient6978">
      <stop
         style="stop-color:#000000;stop-opacity:0.25"
         offset="0"
         id="stop6980" />
      <stop
         style="stop-color:#000000;stop-opacity:0;"
         offset="1"
         id="stop6982" />
    </linearGradient>
    <linearGradient
       id="linearGradient4216-4-8-2">
      <stop
         id="stop4218-8-0-7"
         offset="0"
         style="stop-color:#ffffff;stop-opacity:1;" />
      <stop
         id="stop4220-1-6-4"
         offset="1"
         style="stop-color:#c6c6c6;stop-opacity:1;" />
    </linearGradient>
    <filter
       inkscape:collect="always"
       id="filter6960">
      <feGaussianBlur
         inkscape:collect="always"
         stdDeviation="4.16"
         id="feGaussianBlur6962" />
    </filter>
    <linearGradient
       inkscape:collect="always"
       xlink:href="#linearGradient6978"
       id="linearGradient7148"
       gradientUnits="userSpaceOnUse"
       gradientTransform="matrix(0.13725491,0,0,0.13725491,143.21568,1036.127)"
       x1="64"
       y1="188"
       x2="64"
       y2="8" />
    <radialGradient
       inkscape:collect="always"
       xlink:href="#linearGradient7006"
       id="radialGradient5892"
       gradientUnits="userSpaceOnUse"
       gradientTransform="translate(0,926.36218)"
       cx="88"
       cy="36"
       fx="88"
       fy="36"
       r="51" />
    <linearGradient
       inkscape:collect="always"
       xlink:href="#linearGradient6978"
       id="linearGradient5895"
       gradientUnits="userSpaceOnUse"
       gradientTransform="translate(0,926.36218)"
       x1="64"
       y1="188"
       x2="64"
       y2="8" />
    <radialGradient
       inkscape:collect="always"
       xlink:href="#linearGradient4216-4-8-2"
       id="radialGradient5899"
       gradientUnits="userSpaceOnUse"
       gradientTransform="translate(0,2)"
       cx="64"
       cy="1020.3622"
       fx="64"
       fy="1020.3622"
       r="52" />
    <radialGradient
       inkscape:collect="always"
       xlink:href="#linearGradient7006"
       id="radialGradient6007"
       gradientUnits="userSpaceOnUse"
       gradientTransform="matrix(0.07039912,0,0,0.07039912,155.49446,999.10632)"
       cx="88"
       cy="36"
       fx="88"
       fy="36"
       r="51" />
    <linearGradient
       inkscape:collect="always"
       xlink:href="#linearGradient6978"
       id="linearGradient6010"
       gradientUnits="userSpaceOnUse"
       gradientTransform="matrix(0.25813113,0,0,0.25813113,143.47961,987.8424)"
       x1="64"
       y1="188"
       x2="64"
       y2="8" />
    <radialGradient
       inkscape:collect="always"
       xlink:href="#linearGradient4216-4-8-2"
       id="radialGradient6014"
       gradientUnits="userSpaceOnUse"
       gradientTransform="matrix(0.25813113,0,0,0.25813113,143.47961,749.23576)"
       cx="64"
       cy="1020.3622"
       fx="64"
       fy="1020.3622"
       r="52" />
    <radialGradient
       inkscape:collect="always"
       xlink:href="#linearGradient5497"
       id="radialGradient5503"
       cx="-40"
       cy="12"
       fx="-40"
       fy="12"
       r="20"
       gradientUnits="userSpaceOnUse"
       gradientTransform="matrix(1.2,0,0,1.2,96,945.96218)" />
    <linearGradient
       id="linearGradient5497">
      <stop
         style="stop-color:#959892;stop-opacity:1;"
         offset="0"
         id="stop5499" />
      <stop
         style="stop-color:#000000;stop-opacity:1;"
         offset="1"
         id="stop5501" />
    </linearGradient>
    <radialGradient
       inkscape:collect="always"
       xlink:href="#linearGradient7006"
       id="radialGradient6949"
       gradientUnits="userSpaceOnUse"
       gradientTransform="matrix(0.3871967,0,0,0.3871967,143.21941,923.58159)"
       cx="88"
       cy="36"
       fx="88"
       fy="36"
       r="51" />
    <linearGradient
       inkscape:collect="always"
       xlink:href="#linearGradient6978"
       id="linearGradient6952"
       gradientUnits="userSpaceOnUse"
       gradientTransform="matrix(0.3871967,0,0,0.3871967,143.21941,923.58159)"
       x1="64"
       y1="188"
       x2="64"
       y2="8" />
    <radialGradient
       inkscape:collect="always"
       xlink:href="#linearGradient4216-4-8-2"
       id="radialGradient6956"
       gradientUnits="userSpaceOnUse"
       gradientTransform="matrix(0.3871967,0,0,0.3871967,143.21941,565.6716)"
       cx="64"
       cy="1020.3622"
       fx="64"
       fy="1020.3622"
       r="52" />
    <radialGradient
       inkscape:collect="always"
       xlink:href="#linearGradient6961"
       id="radialGradient6967"
       cx="104"
       cy="62.348625"
       fx="104"
       fy="62.348625"
       r="4.5"
       gradientTransform="matrix(15.111111,-2.2866635e-6,1.8326935e-6,12.111111,-1467.5557,-711.11087)"
       gradientUnits="userSpaceOnUse" />
    <radialGradient
       inkscape:collect="always"
       xlink:href="#linearGradient5497"
       id="radialGradient6975"
       gradientUnits="userSpaceOnUse"
       gradientTransform="matrix(0.47999883,0,0,0.47999883,179.3802,929.58243)"
       cx="-40"
       cy="12"
       fx="-40"
       fy="12"
       r="20" />
    <radialGradient
       inkscape:collect="always"
       xlink:href="#linearGradient6961"
       id="radialGradient6989"
       cx="183.13637"
       cy="22.418604"
       fx="183.13637"
       fy="22.418604"
       r="2.5"
       gradientTransform="matrix(4.4,0,0,8.6,-618.8,-174.8)"
       gradientUnits="userSpaceOnUse" />
    <radialGradient
       inkscape:collect="always"
       xlink:href="#linearGradient5497"
       id="radialGradient7000"
       gradientUnits="userSpaceOnUse"
       gradientTransform="matrix(0.33155953,0,0,0.32898437,169.26238,994.22112)"
       cx="-40"
       cy="12"
       fx="-40"
       fy="12"
       r="20" />
    <radialGradient
       inkscape:collect="always"
       xlink:href="#linearGradient6961"
       id="radialGradient7011"
       cx="175.70834"
       cy="78.966103"
       fx="175.70834"
       fy="78.966103"
       r="1.75"
       gradientTransform="matrix(6.8571429,3.9701181e-6,-4.8799368e-6,8.4285714,-1030.8568,-590.57213)"
       gradientUnits="userSpaceOnUse" />
  </defs>
  <metadata
     id="metadata7">
    <rdf:RDF>
      <cc:Work
         rdf:about="">
        <dc:format>image/svg+xml</dc:format>
        <dc:type
           rdf:resource="http://purl.org/dc/dcmitype/StillImage" />
        <dc:title />
      </cc:Work>
    </rdf:RDF>
  </metadata>
  <g
     transform="translate(0,-924.36218)"
     id="layer1"
     inkscape:groupmode="layer"
     inkscape:label="Layer 1">
    <path
       style="fill:#000000;fill-opacity:1;stroke:#000000;opacity:0.25000000000000000;stroke-width:3;stroke-miterlimit:4;stroke-dasharray:none"
       d="M 148.65625 65.53125 C 147.51221 65.53125 146.5625 66.480963 146.5625 67.625 L 146.5625 68.65625 L 146.5625 90.3125 L 146.5625 91.34375 C 146.5625 92.487787 147.51221 93.4375 148.65625 93.4375 L 171.34375 93.4375 C 172.48779 93.4375 173.4375 92.487787 173.4375 91.34375 L 173.4375 90.3125 L 173.4375 68.65625 L 173.4375 67.625 C 173.4375 66.480963 172.48779 65.53125 171.34375 65.53125 L 148.65625 65.53125 z "
       transform="translate(0,924.36218)"
       id="path7219" />
    <path
       id="path7217"
       transform="translate(0,924.36218)"
       d="M 148.65625 65.53125 C 147.51221 65.53125 146.5625 66.480963 146.5625 67.625 L 146.5625 68.65625 L 146.5625 90.3125 L 146.5625 91.34375 C 146.5625 92.487787 147.51221 93.4375 148.65625 93.4375 L 171.34375 93.4375 C 172.48779 93.4375 173.4375 92.487787 173.4375 91.34375 L 173.4375 90.3125 L 173.4375 68.65625 L 173.4375 67.625 C 173.4375 66.480963 172.48779 65.53125 171.34375 65.53125 L 148.65625 65.53125 z "
       style="fill:#000000;fill-opacity:1;stroke:#000000;opacity:0.25;stroke-width:2;stroke-miterlimit:4;stroke-dasharray:none" />
    <path
       style="fill:#000000;fill-opacity:1;stroke:#000000;opacity:0.5"
       d="M 148.65625 65.53125 C 147.51221 65.53125 146.5625 66.480963 146.5625 67.625 L 146.5625 68.65625 L 146.5625 90.3125 L 146.5625 91.34375 C 146.5625 92.487787 147.51221 93.4375 148.65625 93.4375 L 171.34375 93.4375 C 172.48779 93.4375 173.4375 92.487787 173.4375 91.34375 L 173.4375 90.3125 L 173.4375 68.65625 L 173.4375 67.625 C 173.4375 66.480963 172.48779 65.53125 171.34375 65.53125 L 148.65625 65.53125 z "
       transform="translate(0,924.36218)"
       id="rect7185" />
    <rect
       style="fill:#333333;fill-opacity:1;stroke:none"
       id="rect7150"
       width="16"
       height="16"
       x="144"
       y="112"
       transform="translate(0,924.36218)"
       rx="1"
       ry="1" />
    <rect
       ry="0"
       rx="4.6539506e-07"
       y="924.36218"
       x="136"
       height="32.000004"
       width="32"
       id="rect6882"
       style="fill:none;stroke:none;stroke-width:1.01388812000000006" />
    <text
       xml:space="preserve"
       style="font-size:24px;font-style:normal;font-weight:normal;line-height:125%;letter-spacing:0px;word-spacing:0px;fill:#000000;fill-opacity:1;stroke:none;font-family:Sans"
       x="-56"
       y="948.36218"
       id="text5893"
       sodipodi:linespacing="125%"><tspan
         sodipodi:role="line"
         id="tspan5895"
         x="-56"
         y="948.36218">128</tspan></text>
    <text
       xml:space="preserve"
       style="font-size:16px;font-style:normal;font-weight:normal;line-height:125%;letter-spacing:0px;word-spacing:0px;fill:#000000;fill-opacity:1;stroke:none;font-family:Sans"
       x="200"
       y="940.36218"
       id="text5897"
       sodipodi:linespacing="125%"><tspan
         sodipodi:role="line"
         id="tspan5899"
         x="200"
         y="940.36218">48 - 32</tspan></text>
    <text
       sodipodi:linespacing="125%"
       id="text5901"
       y="1000.3622"
       x="184"
       style="font-size:16px;font-style:normal;font-weight:normal;line-height:125%;letter-spacing:0px;word-spacing:0px;fill:#000000;fill-opacity:1;stroke:none;font-family:Sans"
       xml:space="preserve"><tspan
         y="1000.3622"
         x="184"
         id="tspan5903"
         sodipodi:role="line">31 - 17</tspan></text>
    <text
       xml:space="preserve"
       style="font-size:16px;font-style:normal;font-weight:normal;line-height:125%;letter-spacing:0px;word-spacing:0px;fill:#000000;fill-opacity:1;stroke:none;font-family:Sans"
       x="172"
       y="1048.3622"
       id="text5905"
       sodipodi:linespacing="125%"><tspan
         sodipodi:role="line"
         id="tspan5907"
         x="172"
         y="1048.3622">16</tspan></text>
    <rect
       style="fill:none;fill-opacity:1;stroke:#000000"
       id="rect5917"
       width="56"
       height="56"
       x="140"
       y="-4"
       rx="4.5902016e-07"
       transform="translate(0,924.36218)" />
    <rect
       style="fill:none;stroke:#000000;stroke-width:1;stroke-linecap:round;stroke-linejoin:round;stroke-miterlimit:4;stroke-opacity:1;stroke-dasharray:none;stroke-dashoffset:0"
       id="rect5919"
       width="40"
       height="40"
       x="140"
       y="60"
       transform="translate(0,924.36218)"
       rx="4.5902016e-07" />
    <rect
       style="fill:none;stroke:#000000;stroke-width:1;stroke-linecap:round;stroke-linejoin:round;stroke-miterlimit:4;stroke-opacity:1;stroke-dasharray:none;stroke-dashoffset:0"
       id="rect5921"
       width="24"
       height="24"
       x="140"
       y="1032.3622"
       rx="4.5902016e-07" />
    <rect
       style="fill:#b3b3b3;stroke:none"
       id="rect6931"
       width="48"
       height="4"
       x="144"
       y="916.36218"
       rx="4.5902016e-07" />
    <rect
       style="fill:#b3b3b3;fill-opacity:1;stroke:none"
       id="rect6933"
       width="4"
       height="48"
       x="136"
       y="924.36218"
       rx="4.5902016e-07" />
    <rect
       style="fill:#b3b3b3;fill-opacity:1;stroke:none"
       id="rect6935"
       width="32"
       height="4"
       x="144"
       y="56"
       transform="translate(0,924.36218)"
       rx="4.5902016e-07" />
    <rect
       style="fill:#b3b3b3;fill-opacity:1;stroke:none"
       id="rect6937"
       width="4"
       height="32"
       x="136"
       y="64"
       transform="translate(0,924.36218)"
       rx="4.5902016e-07" />
    <rect
       style="fill:#b3b3b3;fill-opacity:1;stroke:none"
       id="rect6939"
       width="16"
       height="4"
       x="144"
       y="104"
       rx="4.5902016e-07"
       transform="translate(0,924.36218)" />
    <rect
       style="fill:#b3b3b3;fill-opacity:1;stroke:none"
       id="rect6941"
       width="4"
       height="16"
       x="136"
       y="112"
       transform="translate(0,924.36218)"
       rx="4.5902016e-07" />
    <rect
       ry="8"
       rx="8"
       y="938.36218"
       x="12"
       height="104"
       width="104"
       id="rect6938"
       style="fill:#000000;fill-opacity:1;stroke:none;filter:url(#filter6960)" />
    <rect
       style="fill:url(#radialGradient5899);fill-opacity:1;stroke:none"
       id="rect6936"
       width="104"
       height="104"
       x="12"
       y="938.36218"
       rx="8"
       ry="8" />
    <rect
       ry="8"
       rx="8"
       y="934.36218"
       x="12"
       height="104"
       width="104"
       id="rect6964"
       style="fill:#ffffff;fill-opacity:1;stroke:none" />
    <rect
       style="opacity:0.5;fill:url(#linearGradient5895);fill-opacity:1;stroke:none"
       id="rect6975"
       width="102"
       height="102"
       x="13"
       y="935.36218"
       rx="8"
       ry="8" />
    <rect
       ry="8"
       rx="8"
       y="935.36218"
       x="13"
       height="102"
       width="102"
       id="rect7002"
       style="opacity:0.5;fill:url(#radialGradient5892);fill-opacity:1;stroke:none" />
    <rect
       style="fill:#ffffff;fill-opacity:1;stroke:none"
       id="rect7118"
       width="14"
       height="14"
       x="145"
       y="1037.3622"
       rx="1.0769231"
       ry="1.0769231" />
    <rect
       ry="1.0980393"
       rx="1.0980393"
       y="1037.3622"
       x="145"
       height="14"
       width="14"
       id="rect7120"
       style="opacity:0.5;fill:url(#linearGradient7148);fill-opacity:1;stroke:none" />
    <rect
       ry="2.0650492"
       rx="2.0650492"
       y="990.94"
       x="146.57718"
       height="26.845638"
       width="26.845638"
       id="rect5952"
       style="fill:url(#radialGradient6014);fill-opacity:1;stroke:none" />
    <rect
       style="fill:#ffffff;fill-opacity:1;stroke:none"
       id="rect5954"
       width="26.845638"
       height="26.845638"
       x="146.57718"
       y="989.90741"
       rx="2.0650492"
       ry="2.0650492" />
    <rect
       ry="2.0650492"
       rx="2.0650492"
       y="990.16559"
       x="146.83531"
       height="26.329376"
       width="26.329376"
       id="rect5956"
       style="opacity:0.5;fill:url(#linearGradient6010);fill-opacity:1;stroke:none" />
    <rect
       style="opacity:0.5;fill:url(#radialGradient6007);fill-opacity:1;stroke:none"
       id="rect5958"
       width="7.1807098"
       height="7.1807098"
       x="156.40965"
       y="999.73993"
       rx="0.56319296"
       ry="0.56319296" />
    <rect
       style="fill:#000000;fill-opacity:1;stroke:none;filter:url(#filter6960)"
       id="rect7048"
       width="104"
       height="104"
       x="12"
       y="938.36218"
       rx="8"
       ry="8"
       transform="matrix(0.3871967,0,0,0.3871967,143.21941,564.89721)" />
    <rect
       ry="3.0975735"
       rx="3.0975735"
       y="928.22797"
       x="147.86577"
       height="40.268456"
       width="40.268456"
       id="rect7050"
       style="fill:url(#radialGradient6956);fill-opacity:1;stroke:none" />
    <rect
       style="fill:#ffffff;fill-opacity:1;stroke:none"
       id="rect7052"
       width="40.268456"
       height="40.268456"
       x="147.86577"
       y="926.67914"
       rx="3.0975735"
       ry="3.0975735" />
    <rect
       ry="3.0975735"
       rx="3.0975735"
       y="927.06635"
       x="148.25296"
       height="39.494064"
       width="39.494064"
       id="rect7054"
       style="opacity:0.5;fill:url(#linearGradient6952);fill-opacity:1;stroke:none" />
    <rect
       style="opacity:0.5;fill:url(#radialGradient6949);fill-opacity:1;stroke:none"
       id="rect7056"
       width="39.494064"
       height="39.494064"
       x="148.25296"
       y="927.06635"
       rx="3.0975735"
       ry="3.0975735" />
    <path
       style="fill:none;fill-opacity:1;stroke:#555753;stroke-width:2;stroke-miterlimit:4;stroke-dasharray:none"
       d="m 44,964.36218 0,60.00002 44,0 0,-52.00002 -8,-8 -36,0 z"
       id="rect5505"
       inkscape:connector-curvature="0" />
    <path
       style="fill:url(#radialGradient5503);fill-opacity:1;stroke:none"
       d="m 40,944.36218 0,16 -16,0 0,8 16,0 0,16 8,0 0,-16 16,0 0,-8 -16,0 0,-16 -8,0 z"
       id="rect4700"
       inkscape:connector-curvature="0" />
    <path
       style="fill:none;stroke:url(#radialGradient6967);stroke-width:1px;stroke-linecap:butt;stroke-linejoin:miter;stroke-opacity:1"
       d="m 96,10 0,2 8,0 0,8 -8,0 0,8 8,0 0,8 -8,0 0,8 8,0 0,8 -8,0 0,8 8,0 0,8 -8,0 0,8 8,0 0,8 -8,0 0,8 8,0 0,8 -8,0 0,8 8,0 0,4 -8,0 0,4 8,0 0,2"
       id="path6959"
       inkscape:connector-curvature="0"
       transform="translate(0,924.36218)" />
    <path
       inkscape:connector-curvature="0"
       id="path6969"
       d="m 158.58025,936.94238 0,23.7037 17.38271,0 0,-20.5432 -3.16049,-3.1605 -14.22222,0 z"
       style="fill:none;stroke:#555753;stroke-width:0.79012311;stroke-miterlimit:4;stroke-dasharray:none" />
    <path
       inkscape:connector-curvature="0"
       id="path6971"
       d="m 156.98025,928.94243 0,6.4 -6.39998,0 0,3.2 6.39998,0 0,6.4 3.2,0 0,-6.4 6.39998,0 0,-3.2 -6.39998,0 0,-6.4 -3.2,0 z"
       style="fill:url(#radialGradient6975);fill-opacity:1;stroke:none" />
    <path
       style="fill:none;stroke:url(#radialGradient6989);stroke-width:1px;stroke-linecap:butt;stroke-linejoin:miter;stroke-opacity:1"
       d="m 180,2 0,2 4,0 0,4 -4,0 0,4 4,0 0,4 -4,0 0,4 4,0 0,4 -4,0 0,4 4,0 0,4 -4,0 0,4 4,0 0,4 -4,0 0,2 4,0 0,2"
       id="path6981"
       inkscape:connector-curvature="0"
       transform="translate(0,924.36218)" />
    <g
       id="g6996"
       transform="translate(-0.2712786,-3.4527271)">
      <path
         inkscape:connector-curvature="0"
         id="path2946"
         d="m 154.8948,999.26553 0,16.24617 12.00712,0 0,-14.08 -2.18311,-2.16617 -9.82401,0 z"
         style="fill:none;stroke:#555753;stroke-width:0.5436545;stroke-miterlimit:4;stroke-dasharray:none" />
      <path
         inkscape:connector-curvature="0"
         id="path6992"
         d="m 153.7896,993.78248 0,4.38646 -4.42079,0 0,2.19326 4.42079,0 0,4.3865 2.2104,0 0,-4.3865 4.42079,0 0,-2.19326 -4.42079,0 0,-4.38646 -2.2104,0 z"
         style="fill:url(#radialGradient7000);fill-opacity:1;stroke:none" />
    </g>
    <path
       style="fill:none;stroke:url(#radialGradient7011);stroke-width:0.50000000000000000;stroke-linecap:butt;stroke-linejoin:miter;stroke-opacity:1;stroke-miterlimit:4;stroke-dasharray:none"
       d="m 168,65 0,2 3,0 0,3 -3,0 0,3 3,0 0,3 -3,0 0,3 3,0 0,3 -3,0 0,3 3,0 0,3 -3,0 0,3 3,0 0,1 -3,0 0,2"
       id="path7002"
       inkscape:connector-curvature="0"
       transform="translate(0,924.36218)" />
    <path
       style="fill:#555753;stroke:none"
       d="m 150,1041.3622 1,0 0,2 2,0 0,1 -2,0 0,2 -1,0 0,-2 -2,0 0,-1 2,0 z"
       id="path7013"
       inkscape:connector-curvature="0" />
    <path
       style="fill:#555753;fill-opacity:1;stroke:none"
       d="m 146,1038.3622 0,11 9,0 0,-9 -2,-2 z m 1,1 6,0 1,1 0,8 -7,0 z"
       id="rect7015"
       inkscape:connector-curvature="0"
       sodipodi:nodetypes="cccccccccccc" />
    <path
       style="fill:#555753;stroke:none;stroke-width:1px;stroke-linecap:butt;stroke-linejoin:miter;stroke-opacity:1"
       d="m 156,113 0,2 1,0 0,1 -1,0 0,3 1,0 0,1 -1,0 0,3 1,0 0,1 -1,0 0,3 2,0 0,-1 -1,0 0,-1 1,0 0,-3 -1,0 0,-1 1,0 0,-3 -1,0 0,-1 1,0 0,-3 -1,0 0,-1 -1,0"
       id="path7023"
       inkscape:connector-curvature="0"
       transform="translate(0,924.36218)" />
  </g>
</svg>
