<?xml version="1.0" encoding="UTF-8" standalone="no"?>
<!-- Created with Inkscape (http://www.inkscape.org/) -->

<svg
   xmlns:dc="http://purl.org/dc/elements/1.1/"
   xmlns:cc="http://creativecommons.org/ns#"
   xmlns:rdf="http://www.w3.org/1999/02/22-rdf-syntax-ns#"
   xmlns:svg="http://www.w3.org/2000/svg"
   xmlns="http://www.w3.org/2000/svg"
   xmlns:sodipodi="http://sodipodi.sourceforge.net/DTD/sodipodi-0.dtd"
   xmlns:inkscape="http://www.inkscape.org/namespaces/inkscape"
   sodipodi:docname="document-save-symbolic.svg"
   inkscape:version="0.91 r13725"
   version="1.1"
   id="svg2"
   height="128"
   width="128">
  <sodipodi:namedview
     id="base"
     pagecolor="#ffffff"
     bordercolor="#666666"
     borderopacity="1.0"
     inkscape:pageopacity="0.0"
     inkscape:pageshadow="2"
     inkscape:zoom="1.0234375"
     inkscape:cx="68.490597"
     inkscape:cy="-6.5259284"
     inkscape:document-units="px"
     inkscape:current-layer="layer1"
     showgrid="true"
     showguides="true"
     inkscape:guide-bbox="true"
     inkscape:window-width="1141"
     inkscape:window-height="855"
     inkscape:window-x="106"
     inkscape:window-y="100"
     inkscape:window-maximized="0">
    <inkscape:grid
       snapvisiblegridlinesonly="true"
       enabled="true"
       visible="true"
       empspacing="4"
       id="grid2985"
       type="xygrid" />
  </sodipodi:namedview>
  <defs
     id="defs4" />
  <metadata
     id="metadata7">
    <rdf:RDF>
      <cc:Work
         rdf:about="">
        <dc:format>image/svg+xml</dc:format>
        <dc:type
           rdf:resource="http://purl.org/dc/dcmitype/StillImage" />
        <dc:title></dc:title>
      </cc:Work>
    </rdf:RDF>
  </metadata>
  <g
     transform="translate(0,-924.36218)"
     id="layer1"
     inkscape:groupmode="layer"
     inkscape:label="Layer 1">
    <rect
       ry="0"
       rx="4.6539506e-07"
       y="924.36218"
       x="136"
       height="32.000004"
       width="32"
       id="rect6882"
       style="fill:none;stroke:none;stroke-width:1.01388812000000006" />
    <text
       xml:space="preserve"
       style="font-size:24px;font-style:normal;font-weight:normal;line-height:125%;letter-spacing:0px;word-spacing:0px;fill:#000000;fill-opacity:1;stroke:none;font-family:Sans"
       x="-56"
       y="948.36218"
       id="text5893"
       sodipodi:linespacing="125%"><tspan
         sodipodi:role="line"
         id="tspan5895"
         x="-56"
         y="948.36218">128</tspan></text>
    <text
       xml:space="preserve"
       style="font-size:16px;font-style:normal;font-weight:normal;line-height:125%;letter-spacing:0px;word-spacing:0px;fill:#000000;fill-opacity:1;stroke:none;font-family:Sans"
       x="200"
       y="940.36218"
       id="text5897"
       sodipodi:linespacing="125%"><tspan
         sodipodi:role="line"
         id="tspan5899"
         x="200"
         y="940.36218">48 - 32</tspan></text>
    <text
       sodipodi:linespacing="125%"
       id="text5901"
       y="1000.3622"
       x="184"
       style="font-size:16px;font-style:normal;font-weight:normal;line-height:125%;letter-spacing:0px;word-spacing:0px;fill:#000000;fill-opacity:1;stroke:none;font-family:Sans"
       xml:space="preserve"><tspan
         y="1000.3622"
         x="184"
         id="tspan5903"
         sodipodi:role="line">31 - 17</tspan></text>
    <text
       xml:space="preserve"
       style="font-size:16px;font-style:normal;font-weight:normal;line-height:125%;letter-spacing:0px;word-spacing:0px;fill:#000000;fill-opacity:1;stroke:none;font-family:Sans"
       x="172"
       y="1048.3622"
       id="text5905"
       sodipodi:linespacing="125%"><tspan
         sodipodi:role="line"
         id="tspan5907"
         x="172"
         y="1048.3622">16</tspan></text>
    <rect
       style="fill:none;fill-opacity:1;stroke:#000000"
       id="rect5917"
       width="56"
       height="56"
       x="140"
       y="-4"
       rx="4.5902016e-07"
       transform="translate(0,924.36218)" />
    <rect
       style="fill:none;stroke:#000000;stroke-width:1;stroke-linecap:round;stroke-linejoin:round;stroke-miterlimit:4;stroke-opacity:1;stroke-dasharray:none;stroke-dashoffset:0"
       id="rect5919"
       width="40"
       height="40"
       x="140"
       y="60"
       transform="translate(0,924.36218)"
       rx="4.5902016e-07" />
    <rect
       style="fill:none;stroke:#000000;stroke-width:1;stroke-linecap:round;stroke-linejoin:round;stroke-miterlimit:4;stroke-opacity:1;stroke-dasharray:none;stroke-dashoffset:0"
       id="rect5921"
       width="24"
       height="24"
       x="140"
       y="108"
       transform="translate(0,924.36218)"
       rx="4.5902016e-07" />
    <rect
       style="fill:#b3b3b3;stroke:none"
       id="rect6931"
       width="48"
       height="4"
       x="144"
       y="916.36218"
       rx="4.5902016e-07" />
    <rect
       style="fill:#b3b3b3;fill-opacity:1;stroke:none"
       id="rect6933"
       width="4"
       height="48"
       x="136"
       y="924.36218"
       rx="4.5902016e-07" />
    <rect
       style="fill:#b3b3b3;fill-opacity:1;stroke:none"
       id="rect6935"
       width="32"
       height="4"
       x="144"
       y="56"
       transform="translate(0,924.36218)"
       rx="4.5902016e-07" />
    <rect
       style="fill:#b3b3b3;fill-opacity:1;stroke:none"
       id="rect6937"
       width="4"
       height="32"
       x="136"
       y="64"
       transform="translate(0,924.36218)"
       rx="4.5902016e-07" />
    <rect
       style="fill:#b3b3b3;fill-opacity:1;stroke:none"
       id="rect6939"
       width="16"
       height="4"
       x="144"
       y="104"
       transform="translate(0,924.36218)"
       rx="4.5902016e-07" />
    <rect
       style="fill:#b3b3b3;fill-opacity:1;stroke:none"
       id="rect6941"
       width="4"
       height="16"
       x="136"
       y="112"
       transform="translate(0,924.36218)"
       rx="4.5902016e-07" />
    <g
       id="g7193">
      <rect
         rx="4.5902016e-07"
         transform="translate(0,924.36218)"
         y="113"
         x="146"
         height="14"
         width="12"
         id="rect6179"
         style="fill:none;stroke:#b3b3b3;stroke-width:2;stroke-linejoin:round;stroke-miterlimit:4;stroke-dasharray:none" />
      <path
         transform="translate(0,924.36218)"
         inkscape:connector-curvature="0"
         id="path7189"
         d="m 148,120 4,4 4,-4 -2,0 0,-2 -4,0 0,2 z"
         style="fill:#b3b3b3;stroke:none;stroke-width:1px;stroke-linecap:butt;stroke-linejoin:miter;stroke-opacity:1" />
      <rect
         rx="4.5902016e-07"
         transform="translate(0,924.36218)"
         y="116"
         x="150"
         height="1"
         width="4"
         id="rect7191"
         style="fill:#b3b3b3;fill-opacity:1;stroke:none" />
    </g>
    <g
       id="g7198"
       transform="matrix(2,0,0,2,-144,-1084.3622)">
      <rect
         style="fill:none;stroke:#b3b3b3;stroke-width:2;stroke-linejoin:round;stroke-miterlimit:4;stroke-dasharray:none"
         id="rect7200"
         width="12"
         height="14"
         x="146"
         y="113"
         transform="translate(0,924.36218)"
         rx="4.5902016e-07" />
      <path
         style="fill:#b3b3b3;stroke:none"
         d="m 148,120 4,4 4,-4 -2,0 0,-2 -4,0 0,2 z"
         id="path7202"
         inkscape:connector-curvature="0"
         transform="translate(0,924.36218)" />
      <rect
         style="fill:#b3b3b3;fill-opacity:1;stroke:none"
         id="rect7204"
         width="4"
         height="1"
         x="150"
         y="116"
         transform="translate(0,924.36218)"
         rx="4.5902016e-07" />
    </g>
    <g
       transform="matrix(3,0,0,3,-288,-2184.7244)"
       id="g7206">
      <rect
         rx="4.5902016e-07"
         transform="translate(0,924.36218)"
         y="113"
         x="146"
         height="14"
         width="12"
         id="rect7208"
         style="fill:none;stroke:#b3b3b3;stroke-width:2;stroke-linejoin:round;stroke-miterlimit:4;stroke-dasharray:none" />
      <path
         transform="translate(0,924.36218)"
         inkscape:connector-curvature="0"
         id="path7210"
         d="m 148,120 4,4 4,-4 -2,0 0,-2 -4,0 0,2 z"
         style="fill:#b3b3b3;stroke:none" />
      <rect
         rx="4.5902016e-07"
         transform="translate(0,924.36218)"
         y="116"
         x="150"
         height="1"
         width="4"
         id="rect7212"
         style="fill:#b3b3b3;fill-opacity:1;stroke:none" />
    </g>
    <g
       id="g7214"
       transform="matrix(8,0,0,8,-1152,-7366.5353)">
      <rect
         style="fill:none;stroke:#b3b3b3;stroke-width:2;stroke-linejoin:round;stroke-miterlimit:4;stroke-dasharray:none"
         id="rect7216"
         width="12"
         height="14"
         x="146"
         y="113"
         transform="translate(0,924.36218)"
         rx="4.5902016e-07" />
      <path
         style="fill:#b3b3b3;stroke:none"
         d="m 148,120 4,4 4,-4 -2,0 0,-2 -4,0 0,2 z"
         id="path7218"
         inkscape:connector-curvature="0"
         transform="translate(0,924.36218)" />
      <rect
         style="fill:#b3b3b3;fill-opacity:1;stroke:none"
         id="rect7220"
         width="4"
         height="1"
         x="150"
         y="116"
         transform="translate(0,924.36218)"
         rx="4.5902016e-07" />
    </g>
  </g>
</svg>
