<?xml version="1.0" encoding="UTF-8" standalone="no"?>
<!-- Created with Inkscape (http://www.inkscape.org/) -->

<svg
   xmlns:dc="http://purl.org/dc/elements/1.1/"
   xmlns:cc="http://creativecommons.org/ns#"
   xmlns:rdf="http://www.w3.org/1999/02/22-rdf-syntax-ns#"
   xmlns:svg="http://www.w3.org/2000/svg"
   xmlns="http://www.w3.org/2000/svg"
   xmlns:xlink="http://www.w3.org/1999/xlink"
   xmlns:sodipodi="http://sodipodi.sourceforge.net/DTD/sodipodi-0.dtd"
   xmlns:inkscape="http://www.inkscape.org/namespaces/inkscape"
   width="128"
   height="128"
   id="svg2"
   version="1.1"
   inkscape:version="0.91 r13725"
   sodipodi:docname="document-open-recent.svg">
  <defs
     id="defs4">
    <linearGradient
       id="linearGradient4965">
      <stop
         style="stop-color:#ffffff;stop-opacity:1;"
         offset="0"
         id="stop4967" />
      <stop
         style="stop-color:#ffffff;stop-opacity:0.45851529;"
         offset="1"
         id="stop4969" />
    </linearGradient>
    <linearGradient
       id="linearGradient4216-42-6">
      <stop
         style="stop-color:#b3b3b3;stop-opacity:1;"
         offset="0"
         id="stop4218-69-8" />
      <stop
         style="stop-color:#474747;stop-opacity:1;"
         offset="1"
         id="stop4220-10-1" />
    </linearGradient>
    <radialGradient
       inkscape:collect="always"
       xlink:href="#linearGradient4216-42-6"
       id="radialGradient4963"
       cx="88"
       cy="968.36237"
       fx="88"
       fy="968.36237"
       r="61"
       gradientTransform="matrix(0.93333333,0,0,0.93333333,4.2666667,65.890651)"
       gradientUnits="userSpaceOnUse" />
    <radialGradient
       inkscape:collect="always"
       xlink:href="#linearGradient4965"
       id="radialGradient4971"
       cx="84"
       cy="40.786888"
       fx="84"
       fy="40.786888"
       r="59"
       gradientTransform="matrix(1.0563955,1.5784786,-1.5816073,1.0584892,58.43829,790.19749)"
       gradientUnits="userSpaceOnUse" />
    <filter
       color-interpolation-filters="sRGB"
       inkscape:collect="always"
       id="filter4223">
      <feGaussianBlur
         inkscape:collect="always"
         stdDeviation="2.24"
         id="feGaussianBlur4225" />
    </filter>
  </defs>
  <sodipodi:namedview
     id="base"
     pagecolor="#ffffff"
     bordercolor="#666666"
     borderopacity="1.0"
     inkscape:pageopacity="0.0"
     inkscape:pageshadow="2"
     inkscape:zoom="2.2519531"
     inkscape:cx="96.905569"
     inkscape:cy="52.740851"
     inkscape:document-units="px"
     inkscape:current-layer="layer1"
     showgrid="true"
     inkscape:window-width="881"
     inkscape:window-height="729"
     inkscape:window-x="150"
     inkscape:window-y="150"
     inkscape:window-maximized="0"
     showguides="true"
     inkscape:guide-bbox="true">
    <inkscape:grid
       type="xygrid"
       id="grid2985"
       empspacing="2"
       visible="true"
       enabled="true"
       snapvisiblegridlinesonly="true" />
  </sodipodi:namedview>
  <metadata
     id="metadata7">
    <rdf:RDF>
      <cc:Work
         rdf:about="">
        <dc:format>image/svg+xml</dc:format>
        <dc:type
           rdf:resource="http://purl.org/dc/dcmitype/StillImage" />
        <dc:title />
      </cc:Work>
    </rdf:RDF>
  </metadata>
  <g
     inkscape:label="Layer 1"
     inkscape:groupmode="layer"
     id="layer1"
     transform="translate(0,-924.36218)">
    <path
       style="fill:#000000;fill-opacity:1;stroke:none;filter:url(#filter4223)"
       d="M 15.46875,934.36218 C 11.332216,934.36218 8,937.69439 8,941.83093 l 0,1.875 0,93.31247 0,1.875 c 0,4.1365 3.332216,7.4688 7.46875,7.4688 l 85.875,0 c 1.97434,0 3.76123,-0.7571 5.09375,-2 3.47306,-0.6436 6.09375,-3.6788 6.09375,-7.3438 l 0,-35.4687 3.75,0 c 2.06826,0 3.71875,-1.65049 3.71875,-3.71877 l 0,-18.65625 c 0,-2.06827 -1.86884,-2.82504 -3.71875,-3.75 l -3.75,0 0,-3.71875 c 2.06827,0 3.75,-1.68173 3.75,-3.75 l 0,-18.65625 c 0,-2.06826 -1.68173,-3.75 -3.75,-3.75 l 0,-1.84375 c 0,-3.665 -2.62069,-6.70014 -6.09375,-7.34375 -1.33252,-1.24286 -3.11941,-2 -5.09375,-2 l -85.875,0 z"
       id="rect4915-3-3"
       inkscape:connector-curvature="0" />
    <path
       inkscape:connector-curvature="0"
       style="opacity:0.8;fill:url(#radialGradient4963);fill-opacity:1;stroke:none"
       d="M 15.466667,934.22884 C 11.330133,934.22884 8,937.55897 8,941.6955 l 0,93.3334 c 0,4.1365 3.330133,7.4666 7.466667,7.4666 l 89.600003,0 c 4.13653,0 7.46666,-3.3301 7.46666,-7.4666 l 0,-35.46671 3.73334,0 c 2.06826,0 3.73333,-1.66507 3.73333,-3.73335 l 0,-18.66667 c 0,-2.06827 -1.88342,-2.80837 -3.73333,-3.73333 l -3.73334,0 0,-31.73334 c 0,-4.13653 -3.33013,-7.46666 -7.46666,-7.46666 z"
       id="rect4915-3"
       sodipodi:nodetypes="sssssscsssscsss" />
    <path
       style="fill:url(#radialGradient4971);fill-opacity:1;stroke:none"
       d="M 15.466667,932.36217 C 11.330133,932.36217 8,935.6923 8,939.82884 l 0,97.06666 c 0,4.1365 3.330133,7.4667 7.466667,7.4667 l 85.866663,0 c 4.13654,0 7.46667,-3.3302 7.46667,-7.4667 l 0,-67.2 3.73333,0 c 2.06827,0 3.73334,-1.66506 3.73334,-3.73333 l 0,-18.66667 c 0,-2.06826 -1.66507,-3.73333 -3.73334,-3.73333 l -3.73333,0 0,-3.73333 c 0,-4.13654 -3.33013,-7.46667 -7.46667,-7.46667 l -85.866663,0 z"
       id="rect4915"
       inkscape:connector-curvature="0" />
    <rect
       style="opacity:0.25;fill:none;stroke:#000000;stroke-width:3.73333335;stroke-miterlimit:4;stroke-opacity:1;stroke-dasharray:none"
       id="rect5043"
       width="89.599998"
       height="100.8"
       x="13.6"
       y="937.96216"
       rx="3.7333333"
       ry="3.7333333" />
    <path
       id="path3151"
       d="m 171.13029,1009.9273 c 1.54154,0 2.78257,-1.241 2.78257,-2.7826 l 0,-2.7825 c 0,-1.5416 -1.24103,-2.7826 -2.78257,-2.7826 -8.34772,-4.17386 -5.56515,15.3041 0,8.3477 z"
       style="fill:#666666;fill-rule:evenodd;stroke:#4d4d4d;stroke-width:1.39128578;stroke-linecap:butt;stroke-linejoin:miter;stroke-miterlimit:4;stroke-opacity:1;stroke-dasharray:none"
       inkscape:connector-curvature="0"
       sodipodi:nodetypes="csscc"
       inkscape:export-filename="/home/georg/.icons/Kawaiki-Only/places/scalable/rect3146.png"
       inkscape:export-xdpi="32.142857"
       inkscape:export-ydpi="32.142857" />
    <path
       style="fill:#e6e6e6;fill-rule:evenodd;stroke:#4d4d4d;stroke-width:1.39128578;stroke-linecap:butt;stroke-linejoin:miter;stroke-miterlimit:4;stroke-opacity:1;stroke-dasharray:none"
       d="m 148.86971,989.05805 c -1.54154,0 -2.78257,1.24102 -2.78257,2.78257 l 0,25.04308 c 0,1.5416 1.24103,2.7826 2.78257,2.7826 l 19.478,0 c 1.54155,0 2.78258,-1.241 2.78258,-2.7826 l 0,-16.6954 c 1.54154,0 2.78257,-1.24102 2.78257,-2.78256 l 0,-2.78255 c 0,-1.54155 -1.24103,-2.78257 -2.78257,-2.78257 0,-1.54155 -1.24103,-2.78257 -2.78258,-2.78257 l -19.478,0 z"
       id="rect3144"
       inkscape:export-filename="/home/georg/.icons/Kawaiki-Only/places/scalable/rect3146.png"
       inkscape:export-xdpi="32.142857"
       inkscape:export-ydpi="32.142857"
       inkscape:connector-curvature="0" />
    <rect
       style="fill:#e6e6e6;stroke:#b3b3b3;stroke-width:1.391;stroke-miterlimit:4;stroke-dasharray:none"
       id="rect3146"
       width="19.478001"
       height="25.043142"
       x="148.86972"
       y="991.84064"
       rx="1.3912858"
       ry="1.3912858"
       inkscape:export-xdpi="32.142857"
       inkscape:export-ydpi="32.142857" />
    <text
       sodipodi:linespacing="125%"
       style="font-size:24px;font-style:normal;font-weight:normal;line-height:125%;letter-spacing:0px;word-spacing:0px;fill:#000000;fill-opacity:1;stroke:none;font-family:Sans"
       xml:space="preserve"
       id="text5893"
       y="948.36218"
       x="-56"><tspan
         id="tspan5895"
         y="948.36218"
         x="-56">128</tspan></text>
    <text
       sodipodi:linespacing="125%"
       style="font-size:16px;font-style:normal;font-weight:normal;line-height:125%;letter-spacing:0px;word-spacing:0px;fill:#000000;fill-opacity:1;stroke:none;font-family:Sans"
       xml:space="preserve"
       id="text5901"
       y="1000.3622"
       x="184"><tspan
         id="tspan5903"
         y="1000.3622"
         x="184">31 - 17</tspan></text>
    <text
       sodipodi:linespacing="125%"
       style="font-size:16px;font-style:normal;font-weight:normal;line-height:125%;letter-spacing:0px;word-spacing:0px;fill:#000000;fill-opacity:1;stroke:none;font-family:Sans"
       xml:space="preserve"
       id="text5905"
       y="1048.3622"
       x="172"><tspan
         id="tspan5907"
         y="1048.3622"
         x="172">16</tspan></text>
    <rect
       style="fill:none;stroke:#000000;stroke-width:1;stroke-linecap:round;stroke-linejoin:round;stroke-miterlimit:4;stroke-opacity:1;stroke-dasharray:none;stroke-dashoffset:0"
       id="rect5919"
       y="984.36218"
       x="140"
       rx="4.5902016e-07"
       height="40"
       width="40" />
    <rect
       style="fill:none;stroke:#000000;stroke-width:1;stroke-linecap:round;stroke-linejoin:round;stroke-miterlimit:4;stroke-opacity:1;stroke-dasharray:none;stroke-dashoffset:0"
       id="rect5921"
       y="1032.3622"
       x="140"
       rx="4.5902016e-07"
       height="24"
       width="24" />
    <rect
       style="fill:#b3b3b3;fill-opacity:1;stroke:none"
       id="rect6935"
       y="980.36218"
       x="144"
       rx="4.5902016e-07"
       height="4"
       width="32" />
    <rect
       style="fill:#b3b3b3;fill-opacity:1;stroke:none"
       id="rect6937"
       y="988.36218"
       x="136"
       rx="4.5902016e-07"
       height="32"
       width="4" />
    <rect
       style="fill:#b3b3b3;fill-opacity:1;stroke:none"
       id="rect6939"
       y="1028.3622"
       x="144"
       rx="4.5902016e-07"
       height="4"
       width="16" />
    <rect
       style="fill:#b3b3b3;fill-opacity:1;stroke:none"
       id="rect6941"
       y="1036.3622"
       x="136"
       rx="4.5902016e-07"
       height="16"
       width="4" />
    <rect
       style="fill:#cccccc;fill-opacity:1;stroke:none"
       id="rect3128"
       width="4"
       height="4"
       x="155.5"
       y="1042.3622"
       rx="1"
       ry="1" />
    <path
       inkscape:connector-curvature="0"
       style="font-size:medium;font-style:normal;font-variant:normal;font-weight:normal;font-stretch:normal;text-indent:0;text-align:start;text-decoration:none;line-height:normal;letter-spacing:normal;word-spacing:normal;text-transform:none;direction:ltr;block-progression:tb;writing-mode:lr-tb;text-anchor:start;baseline-shift:baseline;color:#000000;fill:#666666;fill-opacity:1;fill-rule:nonzero;stroke:none;stroke-width:1;marker:none;visibility:visible;display:inline;overflow:visible;enable-background:accumulate;font-family:Sans;-inkscape-font-specification:Sans"
       d="m 146.5,1035.8622 c -1.37635,0 -2.5,1.1236 -2.5,2.5 l 0,12 c 0,1.3763 1.12365,2.5 2.5,2.5 l 10,0 c 1.37635,0 2.5,-1.1237 2.5,-2.5 l 0,-3.5938 c 0.58498,-0.2052 1,-0.7552 1,-1.4062 l 0,-2 c 0,-0.4112 -0.16529,-0.7903 -0.4375,-1.0625 0.26514,-0.2358 0.4375,-0.5464 0.4375,-0.9375 l 0,-2 c 0,-0.6873 -0.52066,-1.1698 -1.15625,-1.3438 -0.19144,-1.1888 -1.10256,-2.1562 -2.34375,-2.1562 l -10,0 z m 0,1 10,0 c 0.83965,0 1.5,0.6603 1.5,1.5 l 0,0.5 0.5,0 c 0.28565,0 0.5,0.2143 0.5,0.5 l 0,2 c 0,0.2856 -0.21435,0.5 -0.5,0.5 l -0.5,0 -1.5,0 c -0.82235,0 -1.5,0.6776 -1.5,1.5 l 0,2 c 0,0.8223 0.67765,1.5 1.5,1.5 l 1.5,0 0,3.5 c 0,0.8396 -0.66035,1.5 -1.5,1.5 l -10,0 c -0.83965,0 -1.5,-0.6604 -1.5,-1.5 l 0,-12 c 0,-0.8397 0.66035,-1.5 1.5,-1.5 z m 10,6 1.5,0 0,3 -1.5,0 c -0.28565,0 -0.5,-0.2144 -0.5,-0.5 l 0,-2 c 0,-0.2857 0.21435,-0.5 0.5,-0.5 z"
       id="path3904" />
    <path
       inkscape:connector-curvature="0"
       style="fill:#e6e6e6;fill-opacity:1;stroke:#4d4d4d;stroke-opacity:1"
       d="m 146.5,1036.3622 c -1.108,0 -2,0.892 -2,2 l 0,12 c 0,1.108 0.892,2 2,2 l 10,0 c 1.108,0 2,-0.892 2,-2 l 0,-8 c 0.554,0 1,-0.446 1,-1 l 0,-2 c 0,-0.554 -0.446,-1 -1,-1 0,-1.108 -0.892,-2 -2,-2 l -10,0 z"
       id="rect3118" />
    <path
       inkscape:connector-curvature="0"
       style="fill:#b3b3b3;fill-opacity:1;stroke:none"
       d="m 146.5,1037.3622 c -0.554,0 -1,0.446 -1,1 l 0,12 c 0,0.554 0.446,1 1,1 l 10,0 c 0.554,0 1,-0.446 1,-1 l 0,-12 c 0,-0.554 -0.446,-1 -1,-1 l -10,0 z m 1,1 8,0 c 0.554,0 1,0.446 1,1 l 0,10 c 0,0.554 -0.446,1 -1,1 l -8,0 c -0.554,0 -1,-0.446 -1,-1 l 0,-10 c 0,-0.554 0.446,-1 1,-1 z"
       id="rect3899" />
    <path
       inkscape:connector-curvature="0"
       style="opacity:0.5;fill:#000000;stroke:none"
       d="m 58.4,958.26034 c -15.306453,0 -27.95853,11.43452 -29.866667,26.22153 l 7.290289,-3.64515 7.995801,3.9979 c 1.583006,-6.61699 7.47847,-11.52335 14.580577,-11.52335 6.879335,0 12.549565,4.63225 14.345407,10.93542 l 8.230971,4.11549 7.290289,-3.64514 C 86.459032,969.82031 73.784534,958.26034 58.4,958.26034 z m -22.576378,30.10184 -7.290289,3.64514 C 30.340968,1006.9041 43.015466,1018.464 58.4,1018.464 c 15.306453,0 27.95853,-11.4345 29.866667,-26.22151 l -7.290289,3.64515 -7.995801,-3.9979 c -1.583006,6.61699 -7.47847,11.52336 -14.580577,11.52336 -6.879335,0 -12.549565,-4.63226 -14.345407,-10.93543 l -8.230971,-4.11549 z"
       id="path6366" />
    <path
       inkscape:connector-curvature="0"
       style="opacity:0.25;fill:#000000;stroke:#000000;stroke-width:3.73333335;stroke-miterlimit:4;stroke-opacity:1;stroke-dasharray:none"
       d="m 58.4,958.26034 c -15.306453,0 -27.95853,11.43452 -29.866667,26.22153 l 7.290289,-3.64515 7.995801,3.9979 c 1.583006,-6.61699 7.47847,-11.52335 14.580577,-11.52335 6.879335,0 12.549565,4.63225 14.345407,10.93542 l 8.230971,4.11549 7.290289,-3.64514 C 86.459032,969.82031 73.784534,958.26034 58.4,958.26034 z m -22.576378,30.10184 -7.290289,3.64514 C 30.340968,1006.9041 43.015466,1018.464 58.4,1018.464 c 15.306453,0 27.95853,-11.4345 29.866667,-26.22151 l -7.290289,3.64515 -7.995801,-3.9979 c -1.583006,6.61699 -7.47847,11.52336 -14.580577,11.52336 -6.879335,0 -12.549565,-4.63226 -14.345407,-10.93543 l -8.230971,-4.11549 z"
       id="path6366-5" />
    <path
       id="path3980"
       d="m 158.60872,997.36195 c -3.55952,0 -6.50176,2.65905 -6.9455,6.09785 l 1.69536,-0.8477 1.85942,0.9297 c 0.36813,-1.5388 1.73912,-2.6798 3.39072,-2.6798 1.59979,0 2.9184,1.0773 3.33603,2.5431 l 1.91411,0.957 1.69536,-0.8476 c -0.42037,-3.4643 -3.36782,-6.15255 -6.9455,-6.15255 z m -5.25014,7.00015 -1.69536,0.8476 c 0.42037,3.4643 3.36782,6.1526 6.9455,6.1526 3.55952,0 6.50176,-2.6591 6.9455,-6.0978 l -1.69536,0.8477 -1.85942,-0.9298 c -0.36813,1.5388 -1.73912,2.6798 -3.39072,2.6798 -1.59979,0 -2.9184,-1.0773 -3.33603,-2.543 l -1.91411,-0.9571 z"
       style="fill:#555753;stroke:none"
       inkscape:connector-curvature="0" />
    <path
       id="path5832"
       d="m 147.5,1040.3622 0,7 1,1 3,0 2.75,0 -1,-1 -1.75,0 -2.5,0 -0.5,-0.5 0,-3.75 1.75,0 -2.75,-2.75 z m 1.25,0 1,1 1.75,0 2.5,0 0.5,0.5 0,3.75 -1.75,0 2.75,2.75 0,-7 -1,-1 -3,0 -2.75,0 z"
       style="fill:#555753;stroke:none"
       inkscape:connector-curvature="0" />
  </g>
</svg>
