<?xml version="1.0" encoding="UTF-8" standalone="no"?>
<!-- Created with Inkscape (http://www.inkscape.org/) -->

<svg
   xmlns:dc="http://purl.org/dc/elements/1.1/"
   xmlns:cc="http://creativecommons.org/ns#"
   xmlns:rdf="http://www.w3.org/1999/02/22-rdf-syntax-ns#"
   xmlns:svg="http://www.w3.org/2000/svg"
   xmlns="http://www.w3.org/2000/svg"
   xmlns:sodipodi="http://sodipodi.sourceforge.net/DTD/sodipodi-0.dtd"
   xmlns:inkscape="http://www.inkscape.org/namespaces/inkscape"
   sodipodi:docname="edit-cut-symbolic.svg"
   inkscape:version="0.91 r13725"
   version="1.1"
   id="svg2"
   height="128"
   width="128">
  <sodipodi:namedview
     id="base"
     pagecolor="#ffffff"
     bordercolor="#666666"
     borderopacity="1.0"
     inkscape:pageopacity="0.0"
     inkscape:pageshadow="2"
     inkscape:zoom="1.4473592"
     inkscape:cx="79.505294"
     inkscape:cy="105.61292"
     inkscape:document-units="px"
     inkscape:current-layer="layer1"
     showgrid="true"
     showguides="true"
     inkscape:guide-bbox="true"
     inkscape:window-width="1920"
     inkscape:window-height="1028"
     inkscape:window-x="-8"
     inkscape:window-y="-8"
     inkscape:window-maximized="1">
    <inkscape:grid
       snapvisiblegridlinesonly="true"
       enabled="true"
       visible="true"
       empspacing="4"
       id="grid2985"
       type="xygrid" />
  </sodipodi:namedview>
  <defs
     id="defs4" />
  <metadata
     id="metadata7">
    <rdf:RDF>
      <cc:Work
         rdf:about="">
        <dc:format>image/svg+xml</dc:format>
        <dc:type
           rdf:resource="http://purl.org/dc/dcmitype/StillImage" />
        <dc:title />
      </cc:Work>
    </rdf:RDF>
  </metadata>
  <g
     transform="translate(0,-924.36218)"
     id="layer1"
     inkscape:groupmode="layer"
     inkscape:label="Layer 1">
    <rect
       ry="0"
       rx="4.6539506e-07"
       y="924.36218"
       x="136"
       height="32.000004"
       width="32"
       id="rect6882"
       style="fill:none;stroke:none;stroke-width:1.01388812000000006" />
    <text
       xml:space="preserve"
       style="font-size:24px;font-style:normal;font-weight:normal;line-height:125%;letter-spacing:0px;word-spacing:0px;fill:#000000;fill-opacity:1;stroke:none;font-family:Sans"
       x="-56"
       y="948.36218"
       id="text5893"
       sodipodi:linespacing="125%"><tspan
         sodipodi:role="line"
         id="tspan5895"
         x="-56"
         y="948.36218">128</tspan></text>
    <text
       xml:space="preserve"
       style="font-size:16px;font-style:normal;font-weight:normal;line-height:125%;letter-spacing:0px;word-spacing:0px;fill:#000000;fill-opacity:1;stroke:none;font-family:Sans"
       x="200"
       y="940.36218"
       id="text5897"
       sodipodi:linespacing="125%"><tspan
         sodipodi:role="line"
         id="tspan5899"
         x="200"
         y="940.36218">48 - 32</tspan></text>
    <text
       sodipodi:linespacing="125%"
       id="text5901"
       y="1000.3622"
       x="184"
       style="font-size:16px;font-style:normal;font-weight:normal;line-height:125%;letter-spacing:0px;word-spacing:0px;fill:#000000;fill-opacity:1;stroke:none;font-family:Sans"
       xml:space="preserve"><tspan
         y="1000.3622"
         x="184"
         id="tspan5903"
         sodipodi:role="line">31 - 17</tspan></text>
    <text
       xml:space="preserve"
       style="font-size:16px;font-style:normal;font-weight:normal;line-height:125%;letter-spacing:0px;word-spacing:0px;fill:#000000;fill-opacity:1;stroke:none;font-family:Sans"
       x="172"
       y="1048.3622"
       id="text5905"
       sodipodi:linespacing="125%"><tspan
         sodipodi:role="line"
         id="tspan5907"
         x="172"
         y="1048.3622">16</tspan></text>
    <rect
       style="fill:none;fill-opacity:1;stroke:#000000"
       id="rect5917"
       width="56"
       height="56"
       x="140"
       y="-4"
       rx="4.5902016e-07"
       transform="translate(0,924.36218)" />
    <rect
       style="fill:none;stroke:#000000;stroke-width:1;stroke-linecap:round;stroke-linejoin:round;stroke-miterlimit:4;stroke-opacity:1;stroke-dasharray:none;stroke-dashoffset:0"
       id="rect5919"
       width="40"
       height="40"
       x="140"
       y="60"
       transform="translate(0,924.36218)"
       rx="4.5902016e-07" />
    <rect
       style="fill:none;stroke:#000000;stroke-width:1;stroke-linecap:round;stroke-linejoin:round;stroke-miterlimit:4;stroke-opacity:1;stroke-dasharray:none;stroke-dashoffset:0"
       id="rect5921"
       width="24"
       height="24"
       x="140"
       y="108"
       transform="translate(0,924.36218)"
       rx="4.5902016e-07" />
    <rect
       style="fill:#b3b3b3;stroke:none"
       id="rect6931"
       width="48"
       height="4"
       x="144"
       y="916.36218"
       rx="4.5902016e-07" />
    <rect
       style="fill:#b3b3b3;fill-opacity:1;stroke:none"
       id="rect6933"
       width="4"
       height="48"
       x="136"
       y="924.36218"
       rx="4.5902016e-07" />
    <rect
       style="fill:#b3b3b3;fill-opacity:1;stroke:none"
       id="rect6935"
       width="32"
       height="4"
       x="144"
       y="56"
       transform="translate(0,924.36218)"
       rx="4.5902016e-07" />
    <rect
       style="fill:#b3b3b3;fill-opacity:1;stroke:none"
       id="rect6937"
       width="4"
       height="32"
       x="136"
       y="64"
       transform="translate(0,924.36218)"
       rx="4.5902016e-07" />
    <rect
       style="fill:#b3b3b3;fill-opacity:1;stroke:none"
       id="rect6939"
       width="16"
       height="4"
       x="144"
       y="104"
       transform="translate(0,924.36218)"
       rx="4.5902016e-07" />
    <rect
       style="fill:#b3b3b3;fill-opacity:1;stroke:none"
       id="rect6941"
       width="4"
       height="16"
       x="136"
       y="112"
       transform="translate(0,924.36218)"
       rx="4.5902016e-07" />
    <path
       style="fill:#b3b3b3;fill-opacity:1;stroke:none"
       d="m 0.0021693,1044.2038 c 7.41296,7.4129 35.7048497,-8.7177 65.2812497,-36.5 l 0.15625,0.125 4.9375,-4.9375 5.28125,5.2812 c -0.56512,8.113 3.52865,18.0912 11.59375,26.1563 12.0458,12.0458 28.313251,15.2805 36.343751,7.25 8.0306,-8.0306 4.76445,-24.298 -7.28125,-36.3438 -8.0651,-8.06509 -18.011901,-12.15887 -26.125001,-11.59374 l -5.28125,-5.28125 5.28125,-5.28125 c 8.1131,0.56513 18.059901,-3.52865 26.125001,-11.59375 12.0457,-12.0458 15.31185,-28.31323 7.28125,-36.34375 -8.0305,-8.03054 -24.297951,-4.79579 -36.343751,7.25 -8.0651,8.06511 -12.15887,18.04323 -11.59375,26.15625 l -5.28125,5.28125 -4.9375,-4.9375 -0.15625,0.125 c -29.5764,-27.78231 -57.8682897,-43.91296 -65.2812497,-36.5 l 50.9062497,50.90625 4.9375,4.9375 -4.9375,4.9375 -50.9062497,50.90629 z M 64.002169,988.36001 c 0,-4.41828 3.581722,-8 8,-8 4.418278,0 8,3.58172 8,8 0,4.41828 -3.581722,8 -8,8 -0.552285,0 -1.104219,-0.0497 -1.625,-0.15625 -0.26039,-0.0533 -0.499496,-0.14083 -0.75,-0.21875 -3.256549,-1.01289 -5.625,-4.03515 -5.625,-7.625 z m 21.53125,22.09379 c -0.08908,-2.1494 0.463969,-3.964 1.71875,-5.2188 4.0153,-4.0152 13.781901,-0.7493 21.812501,7.2813 8.0305,8.0305 11.2653,17.7972 7.25,21.8125 -4.0153,4.0152 -13.7819,0.7492 -21.812501,-7.2813 -5.520969,-5.521 -8.77278,-11.8651 -8.96875,-16.5937 z m 0,-43.40629 c -0.009,-0.25777 -0.01113,-0.51258 0,-0.78125 0.19597,-4.72862 3.447781,-11.07275 8.96875,-16.59375 8.030601,-8.03053 17.797201,-11.29651 21.812501,-7.28125 4.0153,4.01527 0.7805,13.78197 -7.25,21.8125 -8.0306,8.03054 -17.797201,11.29651 -21.812501,7.28125 -1.097933,-1.09793 -1.655413,-2.6331 -1.71875,-4.4375 z"
       id="path7046"
       inkscape:connector-curvature="0" />
    <path
       inkscape:connector-curvature="0"
       id="path7073"
       d="m 144.00013,969.30418 c 2.77994,2.7799 13.3897,-3.2692 24.48116,-13.68786 l 0.0586,0.0469 1.85162,-1.85162 1.98052,1.98051 c -0.21192,3.04246 1.32328,6.78437 4.34778,9.80887 4.5173,4.5173 10.61777,5.7303 13.62929,2.7188 3.01156,-3.0115 1.78672,-9.11196 -2.73054,-13.62926 -3.0245,-3.0245 -6.75466,-4.55971 -9.79716,-4.34778 l -1.98052,-1.98052 1.98052,-1.98053 c 3.0425,0.21193 6.77266,-1.32328 9.79716,-4.34778 4.51726,-4.5173 5.7421,-10.61776 2.73054,-13.62929 -3.01152,-3.01154 -9.11199,-1.79847 -13.62929,2.71883 -3.0245,3.0245 -4.5597,6.7664 -4.34778,9.80887 l -1.98052,1.98052 -1.85162,-1.85161 -0.0586,0.0469 C 157.38983,930.68942 146.78007,924.64026 144.00013,927.4202 l 19.09039,19.09038 1.85161,1.85162 -1.85161,1.85161 -19.09039,19.09037 z m 24.00068,-20.94198 c 0,-1.65691 1.34318,-3.00009 3.00009,-3.00009 1.6569,0 3.00008,1.34318 3.00008,3.00009 0,1.6569 -1.34318,3.00008 -3.00008,3.00008 -0.20712,0 -0.4141,-0.0186 -0.6094,-0.0586 -0.0977,-0.02 -0.18731,-0.0528 -0.28125,-0.082 -1.22124,-0.37984 -2.10944,-1.51322 -2.10944,-2.85945 z m 8.07445,8.2854 c -0.0334,-0.80605 0.17399,-1.48654 0.64455,-1.9571 1.50578,-1.50575 5.16836,-0.281 8.17992,2.73056 3.01152,3.01152 4.2246,6.67412 2.71882,8.17992 -1.50578,1.5057 -5.16836,0.281 -8.17992,-2.7306 -2.07042,-2.0704 -3.28988,-4.4495 -3.36337,-6.22278 z m 0,-16.27782 c -0.003,-0.0967 -0.004,-0.19222 0,-0.29297 0.0735,-1.77329 1.29295,-4.1524 3.36337,-6.22284 3.01156,-3.01153 6.67414,-4.23631 8.17992,-2.73054 1.50578,1.50577 0.2927,5.16838 -2.71882,8.17992 -3.01156,3.01153 -6.67414,4.23631 -8.17992,2.73054 -0.41174,-0.41173 -0.6208,-0.98744 -0.64455,-1.66411 z"
       style="fill:#b3b3b3;fill-opacity:1;stroke:none" />
    <path
       inkscape:connector-curvature="0"
       id="path7075"
       d="m 144,1018.3236 c 1.85331,1.8533 8.92652,-2.1795 16.32087,-9.1253 l 0.0391,0.031 1.23441,-1.2344 1.32036,1.3203 c -0.14128,2.0284 0.88219,4.523 2.89854,6.5393 3.01155,3.0117 7.07855,3.8204 9.08624,1.8127 2.00772,-2.0078 1.19116,-6.0748 -1.82037,-9.0864 -2.01634,-2.0163 -4.50313,-3.0398 -6.53147,-2.8985 l -1.32036,-1.3204 1.32036,-1.3203 c 2.02834,0.1413 4.51513,-0.8822 6.53147,-2.8986 3.01153,-3.0115 3.82809,-7.07849 1.82037,-9.08619 -2.00769,-2.0077 -6.07469,-1.19899 -9.08624,1.81256 -2.01635,2.01635 -3.03982,4.51096 -2.89854,6.53928 l -1.32036,1.32035 -1.23441,-1.23441 -0.0391,0.0313 C 152.92652,992.58028 145.85331,988.54748 144,990.40079 l 12.727,12.72701 1.23441,1.2344 -1.23441,1.2344 -12.727,12.727 z m 16.00054,-13.9614 c 0,-1.1046 0.89547,-2.0001 2.00007,-2.0001 1.10461,0 2.00007,0.8955 2.00007,2.0001 0,1.1046 -0.89546,2.0001 -2.00007,2.0001 -0.13807,0 -0.27606,-0.012 -0.40626,-0.039 -0.0651,-0.013 -0.12488,-0.035 -0.18751,-0.055 -0.81416,-0.2533 -1.4063,-1.0089 -1.4063,-1.9064 z m 5.383,5.5236 c -0.0223,-0.5373 0.116,-0.991 0.4297,-1.3047 1.00386,-1.0039 3.44559,-0.1873 5.45331,1.8204 2.00769,2.0077 2.81642,4.4494 1.81256,5.4533 -1.00386,1.0038 -3.44559,0.1873 -5.45331,-1.8204 -1.38029,-1.3803 -2.19327,-2.9664 -2.24226,-4.1486 z m 0,-10.85191 c -0.002,-0.0644 -0.003,-0.12815 0,-0.19532 0.049,-1.18219 0.86197,-2.76828 2.24226,-4.14858 2.00772,-2.0077 4.44945,-2.82422 5.45331,-1.82037 1.00386,1.00385 0.19513,3.44561 -1.81256,5.45331 -2.00772,2.00767 -4.44945,2.82417 -5.45331,1.82037 -0.27449,-0.27449 -0.41387,-0.65829 -0.4297,-1.10941 z"
       style="fill:#b3b3b3;fill-opacity:1;stroke:none" />
    <path
       inkscape:connector-curvature="0"
       id="path7077"
       d="m 144.00023,1051.3427 c 0.92663,0.9266 4.46313,-1.0897 8.1602,-4.5625 l 0.0195,0.016 0.61719,-0.6172 0.66016,0.6602 c -0.0706,1.0141 0.44108,2.2614 1.44923,3.2695 1.50573,1.5057 3.53917,1.9101 4.54299,0.9063 1.00383,-1.0039 0.59556,-3.0373 -0.91016,-4.543 -1.00815,-1.0082 -2.2515,-1.5199 -3.26565,-1.4493 l -0.66016,-0.6601 0.66016,-0.6602 c 1.01415,0.071 2.2575,-0.4411 3.26565,-1.4492 1.50572,-1.5057 1.91399,-3.5392 0.91016,-4.543 -1.00382,-1.0038 -3.03726,-0.5995 -4.54299,0.9063 -1.00815,1.0081 -1.51987,2.2554 -1.44923,3.2695 l -0.66016,0.6602 -0.61719,-0.6172 -0.0195,0.016 c -3.69707,-3.4728 -7.23357,-5.4892 -8.1602,-4.5626 l 6.36331,6.3634 0.61719,0.6172 -0.61719,0.6171 -6.36331,6.3634 z m 8.00004,-6.9805 c 0,-0.5523 0.44772,-1 1.00001,-1 0.55228,0 1,0.4477 1,1 0,0.5523 -0.44772,1 -1,1 -0.069,0 -0.13803,-0.01 -0.20313,-0.02 -0.0325,-0.01 -0.0624,-0.018 -0.0937,-0.027 -0.40707,-0.1266 -0.70313,-0.5044 -0.70313,-0.9531 z m 2.69142,2.7618 c -0.0111,-0.2687 0.058,-0.4956 0.21485,-0.6524 0.50191,-0.5019 1.72274,-0.094 2.72657,0.9102 1.00382,1.0038 1.40817,2.2246 0.90626,2.7265 -0.50192,0.5019 -1.72275,0.094 -2.72658,-0.9101 -0.69012,-0.6902 -1.0966,-1.4832 -1.1211,-2.0742 z m 0,-5.4259 c -0.001,-0.032 -0.001,-0.064 0,-0.098 0.0245,-0.5911 0.43098,-1.3841 1.1211,-2.0742 1.00383,-1.0038 2.22466,-1.4121 2.72658,-0.9102 0.50191,0.502 0.0976,1.7228 -0.90626,2.7266 -1.00383,1.0038 -2.22466,1.4121 -2.72657,0.9102 -0.13725,-0.1373 -0.20693,-0.3292 -0.21485,-0.5547 z"
       style="fill:#b3b3b3;fill-opacity:1;stroke:none" />
  </g>
</svg>
