<?xml version="1.0" encoding="UTF-8" standalone="no"?>
<!-- Created with Inkscape (http://www.inkscape.org/) -->

<svg
   xmlns:dc="http://purl.org/dc/elements/1.1/"
   xmlns:cc="http://creativecommons.org/ns#"
   xmlns:rdf="http://www.w3.org/1999/02/22-rdf-syntax-ns#"
   xmlns:svg="http://www.w3.org/2000/svg"
   xmlns="http://www.w3.org/2000/svg"
   xmlns:sodipodi="http://sodipodi.sourceforge.net/DTD/sodipodi-0.dtd"
   xmlns:inkscape="http://www.inkscape.org/namespaces/inkscape"
   sodipodi:docname="edit-copy-symbolic.svg"
   inkscape:version="0.91 r13725"
   version="1.1"
   id="svg2"
   height="128"
   width="128">
  <sodipodi:namedview
     id="base"
     pagecolor="#ffffff"
     bordercolor="#666666"
     borderopacity="1.0"
     inkscape:pageopacity="0.0"
     inkscape:pageshadow="2"
     inkscape:zoom="1.0234375"
     inkscape:cx="68.490597"
     inkscape:cy="110.72598"
     inkscape:document-units="px"
     inkscape:current-layer="layer1"
     showgrid="true"
     showguides="true"
     inkscape:guide-bbox="true"
     inkscape:window-width="1920"
     inkscape:window-height="1028"
     inkscape:window-x="-8"
     inkscape:window-y="-8"
     inkscape:window-maximized="1">
    <inkscape:grid
       snapvisiblegridlinesonly="true"
       enabled="true"
       visible="true"
       empspacing="4"
       id="grid2985"
       type="xygrid" />
  </sodipodi:namedview>
  <defs
     id="defs4" />
  <metadata
     id="metadata7">
    <rdf:RDF>
      <cc:Work
         rdf:about="">
        <dc:format>image/svg+xml</dc:format>
        <dc:type
           rdf:resource="http://purl.org/dc/dcmitype/StillImage" />
        <dc:title />
      </cc:Work>
    </rdf:RDF>
  </metadata>
  <g
     transform="translate(0,-924.36218)"
     id="layer1"
     inkscape:groupmode="layer"
     inkscape:label="Layer 1">
    <rect
       ry="0"
       rx="4.6539506e-07"
       y="924.36218"
       x="136"
       height="32.000004"
       width="32"
       id="rect6882"
       style="fill:none;stroke:none;stroke-width:1.01388812000000006" />
    <text
       xml:space="preserve"
       style="font-size:24px;font-style:normal;font-weight:normal;line-height:125%;letter-spacing:0px;word-spacing:0px;fill:#000000;fill-opacity:1;stroke:none;font-family:Sans"
       x="-56"
       y="948.36218"
       id="text5893"
       sodipodi:linespacing="125%"><tspan
         sodipodi:role="line"
         id="tspan5895"
         x="-56"
         y="948.36218">128</tspan></text>
    <text
       xml:space="preserve"
       style="font-size:16px;font-style:normal;font-weight:normal;line-height:125%;letter-spacing:0px;word-spacing:0px;fill:#000000;fill-opacity:1;stroke:none;font-family:Sans"
       x="200"
       y="940.36218"
       id="text5897"
       sodipodi:linespacing="125%"><tspan
         sodipodi:role="line"
         id="tspan5899"
         x="200"
         y="940.36218">48 - 32</tspan></text>
    <text
       sodipodi:linespacing="125%"
       id="text5901"
       y="1000.3622"
       x="184"
       style="font-size:16px;font-style:normal;font-weight:normal;line-height:125%;letter-spacing:0px;word-spacing:0px;fill:#000000;fill-opacity:1;stroke:none;font-family:Sans"
       xml:space="preserve"><tspan
         y="1000.3622"
         x="184"
         id="tspan5903"
         sodipodi:role="line">31 - 17</tspan></text>
    <text
       xml:space="preserve"
       style="font-size:16px;font-style:normal;font-weight:normal;line-height:125%;letter-spacing:0px;word-spacing:0px;fill:#000000;fill-opacity:1;stroke:none;font-family:Sans"
       x="172"
       y="1048.3622"
       id="text5905"
       sodipodi:linespacing="125%"><tspan
         sodipodi:role="line"
         id="tspan5907"
         x="172"
         y="1048.3622">16</tspan></text>
    <rect
       style="fill:none;fill-opacity:1;stroke:#000000"
       id="rect5917"
       width="56"
       height="56"
       x="140"
       y="-4"
       rx="4.5902016e-07"
       transform="translate(0,924.36218)" />
    <rect
       style="fill:none;stroke:#000000;stroke-width:1;stroke-linecap:round;stroke-linejoin:round;stroke-miterlimit:4;stroke-opacity:1;stroke-dasharray:none;stroke-dashoffset:0"
       id="rect5919"
       width="40"
       height="40"
       x="140"
       y="60"
       transform="translate(0,924.36218)"
       rx="4.5902016e-07" />
    <rect
       style="fill:none;stroke:#000000;stroke-width:1;stroke-linecap:round;stroke-linejoin:round;stroke-miterlimit:4;stroke-opacity:1;stroke-dasharray:none;stroke-dashoffset:0"
       id="rect5921"
       width="24"
       height="24"
       x="140"
       y="108"
       transform="translate(0,924.36218)"
       rx="4.5902016e-07" />
    <rect
       style="fill:#b3b3b3;stroke:none"
       id="rect6931"
       width="48"
       height="4"
       x="144"
       y="916.36218"
       rx="4.5902016e-07" />
    <rect
       style="fill:#b3b3b3;fill-opacity:1;stroke:none"
       id="rect6933"
       width="4"
       height="48"
       x="136"
       y="924.36218"
       rx="4.5902016e-07" />
    <rect
       style="fill:#b3b3b3;fill-opacity:1;stroke:none"
       id="rect6935"
       width="32"
       height="4"
       x="144"
       y="56"
       transform="translate(0,924.36218)"
       rx="4.5902016e-07" />
    <rect
       style="fill:#b3b3b3;fill-opacity:1;stroke:none"
       id="rect6937"
       width="4"
       height="32"
       x="136"
       y="64"
       transform="translate(0,924.36218)"
       rx="4.5902016e-07" />
    <rect
       style="fill:#b3b3b3;fill-opacity:1;stroke:none"
       id="rect6939"
       width="16"
       height="4"
       x="144"
       y="104"
       transform="translate(0,924.36218)"
       rx="4.5902016e-07" />
    <rect
       style="fill:#b3b3b3;fill-opacity:1;stroke:none"
       id="rect6941"
       width="4"
       height="16"
       x="136"
       y="112"
       transform="translate(0,924.36218)"
       rx="4.5902016e-07" />
    <g
       id="g7263">
      <path
         sodipodi:nodetypes="sssssssssccccc"
         inkscape:connector-curvature="0"
         id="rect7256"
         transform="translate(0,924.36218)"
         d="M 8,8 C 3.568,8 0,11.568 0,16 l 0,96 c 0,4.432 3.568,8 8,8 l 72,0 c 4.432,0 8,-3.568 8,-8 L 88,16 C 88,11.568 84.432,8 80,8 z m 8,16 56,0 0,80 -56,0 z"
         style="fill:#b3b3b3;fill-opacity:1;stroke:none" />
      <path
         sodipodi:nodetypes="cccccccc"
         transform="translate(0,924.36218)"
         inkscape:connector-curvature="0"
         id="path7261"
         d="m 48,40 0,48 48,0 0,16 32,-40 -32,-40 0,16 z"
         style="fill:#b3b3b3;stroke:none;stroke-width:1px;stroke-linecap:butt;stroke-linejoin:miter;stroke-opacity:1" />
    </g>
    <g
       id="g7267"
       transform="matrix(0.375,0,0,0.375,144,577.72636)">
      <path
         style="fill:#b3b3b3;fill-opacity:1;stroke:none"
         d="M 8,8 C 3.568,8 0,11.568 0,16 l 0,96 c 0,4.432 3.568,8 8,8 l 72,0 c 4.432,0 8,-3.568 8,-8 L 88,16 C 88,11.568 84.432,8 80,8 z m 8,16 56,0 0,80 -56,0 z"
         transform="translate(0,924.36218)"
         id="path7269"
         inkscape:connector-curvature="0"
         sodipodi:nodetypes="sssssssssccccc" />
      <path
         style="fill:#b3b3b3;stroke:none"
         d="m 48,40 0,48 48,0 0,16 32,-40 -32,-40 0,16 z"
         id="path7271"
         inkscape:connector-curvature="0"
         transform="translate(0,924.36218)"
         sodipodi:nodetypes="cccccccc" />
    </g>
    <g
       transform="matrix(0.25,0,0,0.25,144,757.27164)"
       id="g7273">
      <path
         sodipodi:nodetypes="sssssssssccccc"
         inkscape:connector-curvature="0"
         id="path7275"
         transform="translate(0,924.36218)"
         d="M 8,8 C 3.568,8 0,11.568 0,16 l 0,96 c 0,4.432 3.568,8 8,8 l 72,0 c 4.432,0 8,-3.568 8,-8 L 88,16 C 88,11.568 84.432,8 80,8 z m 8,16 56,0 0,80 -56,0 z"
         style="fill:#b3b3b3;fill-opacity:1;stroke:none" />
      <path
         sodipodi:nodetypes="cccccccc"
         transform="translate(0,924.36218)"
         inkscape:connector-curvature="0"
         id="path7277"
         d="m 48,40 0,48 48,0 0,16 32,-40 -32,-40 0,16 z"
         style="fill:#b3b3b3;stroke:none" />
    </g>
    <g
       id="g7279"
       transform="matrix(0.125,0,0,0.125,144,920.81691)">
      <path
         style="fill:#b3b3b3;fill-opacity:1;stroke:none"
         d="M 8,8 C 3.568,8 0,11.568 0,16 l 0,96 c 0,4.432 3.568,8 8,8 l 72,0 c 4.432,0 8,-3.568 8,-8 L 88,16 C 88,11.568 84.432,8 80,8 z m 8,16 56,0 0,80 -56,0 z"
         transform="translate(0,924.36218)"
         id="path7281"
         inkscape:connector-curvature="0"
         sodipodi:nodetypes="sssssssssccccc" />
      <path
         style="fill:#b3b3b3;stroke:none"
         d="m 48,40 0,48 48,0 0,16 32,-40 -32,-40 0,16 z"
         id="path7283"
         inkscape:connector-curvature="0"
         transform="translate(0,924.36218)"
         sodipodi:nodetypes="cccccccc" />
    </g>
  </g>
</svg>
