<?xml version="1.0" encoding="UTF-8" standalone="no"?>
<!-- Created with Inkscape (http://www.inkscape.org/) -->

<svg
   xmlns:dc="http://purl.org/dc/elements/1.1/"
   xmlns:cc="http://creativecommons.org/ns#"
   xmlns:rdf="http://www.w3.org/1999/02/22-rdf-syntax-ns#"
   xmlns:svg="http://www.w3.org/2000/svg"
   xmlns="http://www.w3.org/2000/svg"
   xmlns:sodipodi="http://sodipodi.sourceforge.net/DTD/sodipodi-0.dtd"
   xmlns:inkscape="http://www.inkscape.org/namespaces/inkscape"
   sodipodi:docname="format-text-bold-symbolic.svg"
   inkscape:version="0.91 r13725"
   version="1.1"
   id="svg2"
   height="128"
   width="128">
  <sodipodi:namedview
     id="base"
     pagecolor="#ffffff"
     bordercolor="#666666"
     borderopacity="1.0"
     inkscape:pageopacity="0.0"
     inkscape:pageshadow="2"
     inkscape:zoom="1.4473592"
     inkscape:cx="50.768008"
     inkscape:cy="55.813212"
     inkscape:document-units="px"
     inkscape:current-layer="layer1"
     showgrid="true"
     showguides="true"
     inkscape:guide-bbox="true"
     inkscape:window-width="905"
     inkscape:window-height="705"
     inkscape:window-x="75"
     inkscape:window-y="75"
     inkscape:window-maximized="0">
    <inkscape:grid
       snapvisiblegridlinesonly="true"
       enabled="true"
       visible="true"
       empspacing="4"
       id="grid2985"
       type="xygrid" />
  </sodipodi:namedview>
  <defs
     id="defs4" />
  <metadata
     id="metadata7">
    <rdf:RDF>
      <cc:Work
         rdf:about="">
        <dc:format>image/svg+xml</dc:format>
        <dc:type
           rdf:resource="http://purl.org/dc/dcmitype/StillImage" />
        <dc:title />
      </cc:Work>
    </rdf:RDF>
  </metadata>
  <g
     transform="translate(0,-924.36218)"
     id="layer1"
     inkscape:groupmode="layer"
     inkscape:label="Layer 1">
    <rect
       ry="0"
       rx="4.6539506e-07"
       y="924.36218"
       x="136"
       height="32.000004"
       width="32"
       id="rect6882"
       style="fill:none;stroke:none;stroke-width:1.01388812000000006" />
    <text
       xml:space="preserve"
       style="font-size:24px;font-style:normal;font-weight:normal;line-height:125%;letter-spacing:0px;word-spacing:0px;fill:#000000;fill-opacity:1;stroke:none;font-family:Sans"
       x="-56"
       y="948.36218"
       id="text5893"
       sodipodi:linespacing="125%"><tspan
         sodipodi:role="line"
         id="tspan5895"
         x="-56"
         y="948.36218">128</tspan></text>
    <text
       xml:space="preserve"
       style="font-size:16px;font-style:normal;font-weight:normal;line-height:125%;letter-spacing:0px;word-spacing:0px;fill:#000000;fill-opacity:1;stroke:none;font-family:Sans"
       x="200"
       y="940.36218"
       id="text5897"
       sodipodi:linespacing="125%"><tspan
         sodipodi:role="line"
         id="tspan5899"
         x="200"
         y="940.36218">48 - 32</tspan></text>
    <text
       sodipodi:linespacing="125%"
       id="text5901"
       y="1000.3622"
       x="184"
       style="font-size:16px;font-style:normal;font-weight:normal;line-height:125%;letter-spacing:0px;word-spacing:0px;fill:#000000;fill-opacity:1;stroke:none;font-family:Sans"
       xml:space="preserve"><tspan
         y="1000.3622"
         x="184"
         id="tspan5903"
         sodipodi:role="line">31 - 17</tspan></text>
    <text
       xml:space="preserve"
       style="font-size:16px;font-style:normal;font-weight:normal;line-height:125%;letter-spacing:0px;word-spacing:0px;fill:#000000;fill-opacity:1;stroke:none;font-family:Sans"
       x="172"
       y="1048.3622"
       id="text5905"
       sodipodi:linespacing="125%"><tspan
         sodipodi:role="line"
         id="tspan5907"
         x="172"
         y="1048.3622">16</tspan></text>
    <rect
       style="fill:none;fill-opacity:1;stroke:#000000"
       id="rect5917"
       width="56"
       height="56"
       x="140"
       y="-4"
       rx="4.5902016e-07"
       transform="translate(0,924.36218)" />
    <rect
       style="fill:none;stroke:#000000;stroke-width:1;stroke-linecap:round;stroke-linejoin:round;stroke-miterlimit:4;stroke-opacity:1;stroke-dasharray:none;stroke-dashoffset:0"
       id="rect5919"
       width="40"
       height="40"
       x="140"
       y="60"
       transform="translate(0,924.36218)"
       rx="4.5902016e-07" />
    <rect
       style="fill:none;stroke:#000000;stroke-width:1;stroke-linecap:round;stroke-linejoin:round;stroke-miterlimit:4;stroke-opacity:1;stroke-dasharray:none;stroke-dashoffset:0"
       id="rect5921"
       width="24"
       height="24"
       x="140"
       y="108"
       transform="translate(0,924.36218)"
       rx="4.5902016e-07" />
    <rect
       style="fill:#b3b3b3;stroke:none"
       id="rect6931"
       width="48"
       height="4"
       x="144"
       y="916.36218"
       rx="4.5902016e-07" />
    <rect
       style="fill:#b3b3b3;fill-opacity:1;stroke:none"
       id="rect6933"
       width="4"
       height="48"
       x="136"
       y="924.36218"
       rx="4.5902016e-07" />
    <rect
       style="fill:#b3b3b3;fill-opacity:1;stroke:none"
       id="rect6935"
       width="32"
       height="4"
       x="144"
       y="56"
       transform="translate(0,924.36218)"
       rx="4.5902016e-07" />
    <rect
       style="fill:#b3b3b3;fill-opacity:1;stroke:none"
       id="rect6937"
       width="4"
       height="32"
       x="136"
       y="64"
       transform="translate(0,924.36218)"
       rx="4.5902016e-07" />
    <rect
       style="fill:#b3b3b3;fill-opacity:1;stroke:none"
       id="rect6939"
       width="16"
       height="4"
       x="144"
       y="104"
       transform="translate(0,924.36218)"
       rx="4.5902016e-07" />
    <rect
       style="fill:#b3b3b3;fill-opacity:1;stroke:none"
       id="rect6941"
       width="4"
       height="16"
       x="136"
       y="112"
       transform="translate(0,924.36218)"
       rx="4.5902016e-07" />
    <g
       style="font-size:131.68690491px;font-style:normal;font-weight:bold;line-height:125%;letter-spacing:0px;word-spacing:0px;fill:#b3b3b3;fill-opacity:1;stroke:none;font-family:Sans;-inkscape-font-specification:Sans Bold"
       id="text10357">
      <path
         d="m 62.939046,977.52758 c 3.900828,6e-5 6.858636,-0.85728 8.873434,-2.57201 2.01468,-1.71461 3.02205,-4.24375 3.022112,-7.58743 -6.2e-5,-3.30067 -1.007432,-5.80838 -3.022112,-7.52313 -2.014798,-1.75746 -4.972606,-2.63623 -8.873434,-2.63631 l -13.695952,0 0,20.31888 13.695952,0 m 0.835904,41.98802 c 4.972496,1e-4 8.701906,-1.0502 11.188243,-3.1507 2.529077,-2.1004 3.793648,-5.2726 3.793714,-9.5164 -6.6e-5,-4.1581 -1.243203,-7.2659 -3.729414,-9.32354 -2.486337,-2.10044 -6.237181,-3.15067 -11.252543,-3.15072 l -14.531856,0 0,25.14136 14.531856,0 m 23.019488,-34.52919 c 5.315407,1.54325 9.430619,4.39389 12.345647,8.55193 2.914855,4.15812 4.372325,9.25926 4.372415,15.30346 -9e-5,9.2593 -3.12936,16.1608 -9.387834,20.7047 -6.258633,4.5439 -15.77506,6.8158 -28.549309,6.8158 l -41.087858,0 0,-96.00026 37.165542,0 c 13.331522,9e-5 22.97655,2.01483 28.935111,6.04422 6.001273,4.02957 9.001948,10.48102 9.002035,19.35437 -8.7e-5,4.67255 -1.09319,8.65917 -3.279313,11.95985 -2.18629,3.25793 -5.358432,5.67991 -9.516436,7.26593"
         style=""
         id="path10362" />
    </g>
    <g
       id="g10364"
       style="font-size:131.68690491px;font-style:normal;font-weight:bold;line-height:125%;letter-spacing:0px;word-spacing:0px;fill:#b3b3b3;fill-opacity:1;stroke:none;font-family:Sans;-inkscape-font-specification:Sans Bold"
       transform="matrix(0.37499525,0,0,0.37499525,144.0003,577.73106)">
      <path
         id="path10366"
         d="m 62.939046,977.52758 c 3.900828,6e-5 6.858636,-0.85728 8.873434,-2.57201 2.01468,-1.71461 3.02205,-4.24375 3.022112,-7.58743 -6.2e-5,-3.30067 -1.007432,-5.80838 -3.022112,-7.52313 -2.014798,-1.75746 -4.972606,-2.63623 -8.873434,-2.63631 l -13.695952,0 0,20.31888 13.695952,0 m 0.835904,41.98802 c 4.972496,1e-4 8.701906,-1.0502 11.188243,-3.1507 2.529077,-2.1004 3.793648,-5.2726 3.793714,-9.5164 -6.6e-5,-4.1581 -1.243203,-7.2659 -3.729414,-9.32354 -2.486337,-2.10044 -6.237181,-3.15067 -11.252543,-3.15072 l -14.531856,0 0,25.14136 14.531856,0 m 23.019488,-34.52919 c 5.315407,1.54325 9.430619,4.39389 12.345647,8.55193 2.914855,4.15812 4.372325,9.25926 4.372415,15.30346 -9e-5,9.2593 -3.12936,16.1608 -9.387834,20.7047 -6.258633,4.5439 -15.77506,6.8158 -28.549309,6.8158 l -41.087858,0 0,-96.00026 37.165542,0 c 13.331522,9e-5 22.97655,2.01483 28.935111,6.04422 6.001273,4.02957 9.001948,10.48102 9.002035,19.35437 -8.7e-5,4.67255 -1.09319,8.65917 -3.279313,11.95985 -2.18629,3.25793 -5.358432,5.67991 -9.516436,7.26593"
         inkscape:connector-curvature="0" />
    </g>
    <g
       id="g10368"
       style="font-size:131.68690491px;font-style:normal;font-weight:bold;line-height:125%;letter-spacing:0px;word-spacing:0px;fill:#b3b3b3;fill-opacity:1;stroke:none;font-family:Sans;-inkscape-font-specification:Sans Bold"
       transform="matrix(0.24999683,0,0,0.24999683,144.0002,757.27476)">
      <path
         id="path10370"
         d="m 62.939046,977.52758 c 3.900828,6e-5 6.858636,-0.85728 8.873434,-2.57201 2.01468,-1.71461 3.02205,-4.24375 3.022112,-7.58743 -6.2e-5,-3.30067 -1.007432,-5.80838 -3.022112,-7.52313 -2.014798,-1.75746 -4.972606,-2.63623 -8.873434,-2.63631 l -13.695952,0 0,20.31888 13.695952,0 m 0.835904,41.98802 c 4.972496,1e-4 8.701906,-1.0502 11.188243,-3.1507 2.529077,-2.1004 3.793648,-5.2726 3.793714,-9.5164 -6.6e-5,-4.1581 -1.243203,-7.2659 -3.729414,-9.32354 -2.486337,-2.10044 -6.237181,-3.15067 -11.252543,-3.15072 l -14.531856,0 0,25.14136 14.531856,0 m 23.019488,-34.52919 c 5.315407,1.54325 9.430619,4.39389 12.345647,8.55193 2.914855,4.15812 4.372325,9.25926 4.372415,15.30346 -9e-5,9.2593 -3.12936,16.1608 -9.387834,20.7047 -6.258633,4.5439 -15.77506,6.8158 -28.549309,6.8158 l -41.087858,0 0,-96.00026 37.165542,0 c 13.331522,9e-5 22.97655,2.01483 28.935111,6.04422 6.001273,4.02957 9.001948,10.48102 9.002035,19.35437 -8.7e-5,4.67255 -1.09319,8.65917 -3.279313,11.95985 -2.18629,3.25793 -5.358432,5.67991 -9.516436,7.26593"
         inkscape:connector-curvature="0" />
    </g>
    <g
       id="g10372"
       style="font-size:131.68690491px;font-style:normal;font-weight:bold;line-height:125%;letter-spacing:0px;word-spacing:0px;fill:#b3b3b3;fill-opacity:1;stroke:none;font-family:Sans;-inkscape-font-specification:Sans Bold"
       transform="matrix(0.12499842,0,0,0.12499842,144.0001,920.81847)">
      <path
         id="path10374"
         d="m 62.939046,977.52758 c 3.900828,6e-5 6.858636,-0.85728 8.873434,-2.57201 2.01468,-1.71461 3.02205,-4.24375 3.022112,-7.58743 -6.2e-5,-3.30067 -1.007432,-5.80838 -3.022112,-7.52313 -2.014798,-1.75746 -4.972606,-2.63623 -8.873434,-2.63631 l -13.695952,0 0,20.31888 13.695952,0 m 0.835904,41.98802 c 4.972496,1e-4 8.701906,-1.0502 11.188243,-3.1507 2.529077,-2.1004 3.793648,-5.2726 3.793714,-9.5164 -6.6e-5,-4.1581 -1.243203,-7.2659 -3.729414,-9.32354 -2.486337,-2.10044 -6.237181,-3.15067 -11.252543,-3.15072 l -14.531856,0 0,25.14136 14.531856,0 m 23.019488,-34.52919 c 5.315407,1.54325 9.430619,4.39389 12.345647,8.55193 2.914855,4.15812 4.372325,9.25926 4.372415,15.30346 -9e-5,9.2593 -3.12936,16.1608 -9.387834,20.7047 -6.258633,4.5439 -15.77506,6.8158 -28.549309,6.8158 l -41.087858,0 0,-96.00026 37.165542,0 c 13.331522,9e-5 22.97655,2.01483 28.935111,6.04422 6.001273,4.02957 9.001948,10.48102 9.002035,19.35437 -8.7e-5,4.67255 -1.09319,8.65917 -3.279313,11.95985 -2.18629,3.25793 -5.358432,5.67991 -9.516436,7.26593"
         inkscape:connector-curvature="0" />
    </g>
  </g>
</svg>
