<?xml version="1.0" encoding="UTF-8" standalone="no"?>
<!-- Created with Inkscape (http://www.inkscape.org/) -->

<svg
   xmlns:dc="http://purl.org/dc/elements/1.1/"
   xmlns:cc="http://creativecommons.org/ns#"
   xmlns:rdf="http://www.w3.org/1999/02/22-rdf-syntax-ns#"
   xmlns:svg="http://www.w3.org/2000/svg"
   xmlns="http://www.w3.org/2000/svg"
   xmlns:sodipodi="http://sodipodi.sourceforge.net/DTD/sodipodi-0.dtd"
   xmlns:inkscape="http://www.inkscape.org/namespaces/inkscape"
   sodipodi:docname="format-text-underline-symbolic.svg"
   inkscape:version="0.91 r13725"
   version="1.1"
   id="svg2"
   height="128"
   width="128">
  <sodipodi:namedview
     id="base"
     pagecolor="#ffffff"
     bordercolor="#666666"
     borderopacity="1.0"
     inkscape:pageopacity="0.0"
     inkscape:pageshadow="2"
     inkscape:zoom="1.4473592"
     inkscape:cx="93.192606"
     inkscape:cy="78.11043"
     inkscape:document-units="px"
     inkscape:current-layer="layer1"
     showgrid="true"
     showguides="true"
     inkscape:guide-bbox="true"
     inkscape:window-width="535"
     inkscape:window-height="403"
     inkscape:window-x="150"
     inkscape:window-y="150"
     inkscape:window-maximized="0">
    <inkscape:grid
       snapvisiblegridlinesonly="true"
       enabled="true"
       visible="true"
       empspacing="4"
       id="grid2985"
       type="xygrid" />
  </sodipodi:namedview>
  <defs
     id="defs4" />
  <metadata
     id="metadata7">
    <rdf:RDF>
      <cc:Work
         rdf:about="">
        <dc:format>image/svg+xml</dc:format>
        <dc:type
           rdf:resource="http://purl.org/dc/dcmitype/StillImage" />
        <dc:title />
      </cc:Work>
    </rdf:RDF>
  </metadata>
  <g
     transform="translate(0,-924.36218)"
     id="layer1"
     inkscape:groupmode="layer"
     inkscape:label="Layer 1">
    <rect
       ry="0"
       rx="4.6539506e-07"
       y="924.36218"
       x="136"
       height="32.000004"
       width="32"
       id="rect6882"
       style="fill:none;stroke:none;stroke-width:1.01388812000000006" />
    <text
       xml:space="preserve"
       style="font-size:24px;font-style:normal;font-weight:normal;line-height:125%;letter-spacing:0px;word-spacing:0px;fill:#000000;fill-opacity:1;stroke:none;font-family:Sans"
       x="-56"
       y="948.36218"
       id="text5893"
       sodipodi:linespacing="125%"><tspan
         sodipodi:role="line"
         id="tspan5895"
         x="-56"
         y="948.36218">128</tspan></text>
    <text
       xml:space="preserve"
       style="font-size:16px;font-style:normal;font-weight:normal;line-height:125%;letter-spacing:0px;word-spacing:0px;fill:#000000;fill-opacity:1;stroke:none;font-family:Sans"
       x="200"
       y="940.36218"
       id="text5897"
       sodipodi:linespacing="125%"><tspan
         sodipodi:role="line"
         id="tspan5899"
         x="200"
         y="940.36218">48 - 32</tspan></text>
    <text
       sodipodi:linespacing="125%"
       id="text5901"
       y="1000.3622"
       x="184"
       style="font-size:16px;font-style:normal;font-weight:normal;line-height:125%;letter-spacing:0px;word-spacing:0px;fill:#000000;fill-opacity:1;stroke:none;font-family:Sans"
       xml:space="preserve"><tspan
         y="1000.3622"
         x="184"
         id="tspan5903"
         sodipodi:role="line">31 - 17</tspan></text>
    <text
       xml:space="preserve"
       style="font-size:16px;font-style:normal;font-weight:normal;line-height:125%;letter-spacing:0px;word-spacing:0px;fill:#000000;fill-opacity:1;stroke:none;font-family:Sans"
       x="172"
       y="1048.3622"
       id="text5905"
       sodipodi:linespacing="125%"><tspan
         sodipodi:role="line"
         id="tspan5907"
         x="172"
         y="1048.3622">16</tspan></text>
    <rect
       style="fill:none;fill-opacity:1;stroke:#000000"
       id="rect5917"
       width="56"
       height="56"
       x="140"
       y="-4"
       rx="4.5902016e-07"
       transform="translate(0,924.36218)" />
    <rect
       style="fill:none;stroke:#000000;stroke-width:1;stroke-linecap:round;stroke-linejoin:round;stroke-miterlimit:4;stroke-opacity:1;stroke-dasharray:none;stroke-dashoffset:0"
       id="rect5919"
       width="40"
       height="40"
       x="140"
       y="60"
       transform="translate(0,924.36218)"
       rx="4.5902016e-07" />
    <rect
       style="fill:none;stroke:#000000;stroke-width:1;stroke-linecap:round;stroke-linejoin:round;stroke-miterlimit:4;stroke-opacity:1;stroke-dasharray:none;stroke-dashoffset:0"
       id="rect5921"
       width="24"
       height="24"
       x="140"
       y="108"
       transform="translate(0,924.36218)"
       rx="4.5902016e-07" />
    <rect
       style="fill:#b3b3b3;stroke:none"
       id="rect6931"
       width="48"
       height="4"
       x="144"
       y="916.36218"
       rx="4.5902016e-07" />
    <rect
       style="fill:#b3b3b3;fill-opacity:1;stroke:none"
       id="rect6933"
       width="4"
       height="48"
       x="136"
       y="924.36218"
       rx="4.5902016e-07" />
    <rect
       style="fill:#b3b3b3;fill-opacity:1;stroke:none"
       id="rect6935"
       width="32"
       height="4"
       x="144"
       y="56"
       transform="translate(0,924.36218)"
       rx="4.5902016e-07" />
    <rect
       style="fill:#b3b3b3;fill-opacity:1;stroke:none"
       id="rect6937"
       width="4"
       height="32"
       x="136"
       y="64"
       transform="translate(0,924.36218)"
       rx="4.5902016e-07" />
    <rect
       style="fill:#b3b3b3;fill-opacity:1;stroke:none"
       id="rect6939"
       width="16"
       height="4"
       x="144"
       y="104"
       transform="translate(0,924.36218)"
       rx="4.5902016e-07" />
    <rect
       style="fill:#b3b3b3;fill-opacity:1;stroke:none"
       id="rect6941"
       width="4"
       height="16"
       x="136"
       y="112"
       transform="translate(0,924.36218)"
       rx="4.5902016e-07" />
    <g
       id="g10430">
      <g
         transform="translate(115.08802,63.738445)"
         id="text10421"
         style="font-size:16.14748573px;font-style:normal;font-weight:normal;line-height:125%;letter-spacing:0px;word-spacing:0px;fill:#b3b3b3;fill-opacity:1;stroke:none;font-family:Sans">
        <path
           inkscape:connector-curvature="0"
           id="path10426"
           d="m 32.405984,974.62362 1.600557,0 0,7.15126 c -3e-6,1.26152 0.228647,2.17087 0.685952,2.72804 0.457298,0.55192 1.198442,0.82787 2.223433,0.82787 1.019724,0 1.75824,-0.27595 2.215549,-0.82787 0.457293,-0.55717 0.685944,-1.46652 0.685953,-2.72804 l 0,-7.15126 1.600556,0 0,7.34837 c -10e-6,1.53486 -0.381095,2.69388 -1.143254,3.47707 -0.756922,0.7832 -1.876522,1.17479 -3.358804,1.17479 -1.487549,0 -2.612405,-0.39159 -3.374572,-1.17479 -0.756915,-0.78319 -1.135371,-1.94221 -1.13537,-3.47707 l 0,-7.34837" />
      </g>
      <rect
         rx="4.5902016e-07"
         transform="translate(0,924.36218)"
         y="127"
         x="146"
         height="1"
         width="12"
         id="rect10428"
         style="fill:#b3b3b3;fill-opacity:1;stroke:none" />
    </g>
    <g
       id="g10435"
       transform="matrix(2,0,0,2,-144,-1084.3622)">
      <g
         style="font-size:16.14748573px;font-style:normal;font-weight:normal;line-height:125%;letter-spacing:0px;word-spacing:0px;fill:#b3b3b3;fill-opacity:1;stroke:none;font-family:Sans"
         id="g10437"
         transform="translate(115.08802,63.738445)">
        <path
           d="m 32.405984,974.62362 1.600557,0 0,7.15126 c -3e-6,1.26152 0.228647,2.17087 0.685952,2.72804 0.457298,0.55192 1.198442,0.82787 2.223433,0.82787 1.019724,0 1.75824,-0.27595 2.215549,-0.82787 0.457293,-0.55717 0.685944,-1.46652 0.685953,-2.72804 l 0,-7.15126 1.600556,0 0,7.34837 c -10e-6,1.53486 -0.381095,2.69388 -1.143254,3.47707 -0.756922,0.7832 -1.876522,1.17479 -3.358804,1.17479 -1.487549,0 -2.612405,-0.39159 -3.374572,-1.17479 -0.756915,-0.78319 -1.135371,-1.94221 -1.13537,-3.47707 l 0,-7.34837"
           id="path10439"
           inkscape:connector-curvature="0" />
      </g>
      <rect
         style="fill:#b3b3b3;fill-opacity:1;stroke:none"
         id="rect10441"
         width="12"
         height="1"
         x="146"
         y="127"
         transform="translate(0,924.36218)"
         rx="4.5902016e-07" />
    </g>
    <g
       transform="matrix(3,0,0,3,-288,-2184.7244)"
       id="g10443">
      <g
         transform="translate(115.08802,63.738445)"
         id="g10445"
         style="font-size:16.14748573px;font-style:normal;font-weight:normal;line-height:125%;letter-spacing:0px;word-spacing:0px;fill:#b3b3b3;fill-opacity:1;stroke:none;font-family:Sans">
        <path
           inkscape:connector-curvature="0"
           id="path10447"
           d="m 32.405984,974.62362 1.600557,0 0,7.15126 c -3e-6,1.26152 0.228647,2.17087 0.685952,2.72804 0.457298,0.55192 1.198442,0.82787 2.223433,0.82787 1.019724,0 1.75824,-0.27595 2.215549,-0.82787 0.457293,-0.55717 0.685944,-1.46652 0.685953,-2.72804 l 0,-7.15126 1.600556,0 0,7.34837 c -10e-6,1.53486 -0.381095,2.69388 -1.143254,3.47707 -0.756922,0.7832 -1.876522,1.17479 -3.358804,1.17479 -1.487549,0 -2.612405,-0.39159 -3.374572,-1.17479 -0.756915,-0.78319 -1.135371,-1.94221 -1.13537,-3.47707 l 0,-7.34837" />
      </g>
      <rect
         rx="4.5902016e-07"
         transform="translate(0,924.36218)"
         y="127"
         x="146"
         height="1"
         width="12"
         id="rect10449"
         style="fill:#b3b3b3;fill-opacity:1;stroke:none" />
    </g>
    <g
       id="g10451"
       transform="matrix(7.9999167,0,0,7.9999204,-1151.9874,-7366.4515)">
      <g
         style="font-size:16.14748573px;font-style:normal;font-weight:normal;line-height:125%;letter-spacing:0px;word-spacing:0px;fill:#b3b3b3;fill-opacity:1;stroke:none;font-family:Sans"
         id="g10453"
         transform="translate(115.08802,63.738445)">
        <path
           d="m 32.405984,974.62362 1.600557,0 0,7.15126 c -3e-6,1.26152 0.228647,2.17087 0.685952,2.72804 0.457298,0.55192 1.198442,0.82787 2.223433,0.82787 1.019724,0 1.75824,-0.27595 2.215549,-0.82787 0.457293,-0.55717 0.685944,-1.46652 0.685953,-2.72804 l 0,-7.15126 1.600556,0 0,7.34837 c -10e-6,1.53486 -0.381095,2.69388 -1.143254,3.47707 -0.756922,0.7832 -1.876522,1.17479 -3.358804,1.17479 -1.487549,0 -2.612405,-0.39159 -3.374572,-1.17479 -0.756915,-0.78319 -1.135371,-1.94221 -1.13537,-3.47707 l 0,-7.34837"
           id="path10455"
           inkscape:connector-curvature="0" />
      </g>
      <rect
         style="fill:#b3b3b3;fill-opacity:1;stroke:none"
         id="rect10457"
         width="12"
         height="1"
         x="146"
         y="127"
         transform="translate(0,924.36218)"
         rx="4.5902016e-07" />
    </g>
  </g>
</svg>
