<?xml version="1.0" encoding="UTF-8" standalone="no"?>
<!-- Created with Inkscape (http://www.inkscape.org/) -->

<svg
   xmlns:dc="http://purl.org/dc/elements/1.1/"
   xmlns:cc="http://creativecommons.org/ns#"
   xmlns:rdf="http://www.w3.org/1999/02/22-rdf-syntax-ns#"
   xmlns:svg="http://www.w3.org/2000/svg"
   xmlns="http://www.w3.org/2000/svg"
   xmlns:xlink="http://www.w3.org/1999/xlink"
   xmlns:sodipodi="http://sodipodi.sourceforge.net/DTD/sodipodi-0.dtd"
   xmlns:inkscape="http://www.inkscape.org/namespaces/inkscape"
   width="128"
   height="128"
   id="svg2"
   version="1.1"
   inkscape:version="0.91 r13725"
   sodipodi:docname="mail-mark-junk.svg">
  <defs
     id="defs4">
    <linearGradient
       id="linearGradient4835">
      <stop
         style="stop-color:#000000;stop-opacity:1;"
         offset="0"
         id="stop4837" />
      <stop
         style="stop-color:#000000;stop-opacity:1;"
         offset="1"
         id="stop4839" />
    </linearGradient>
    <linearGradient
       id="linearGradient4817">
      <stop
         style="stop-color:#ff9797;stop-opacity:1;"
         offset="0"
         id="stop4819" />
      <stop
         style="stop-color:#b30000;stop-opacity:1;"
         offset="1"
         id="stop4821" />
    </linearGradient>
    <linearGradient
       id="linearGradient4216-1">
      <stop
         style="stop-color:#ff0000;stop-opacity:1;"
         offset="0"
         id="stop4218-0" />
      <stop
         style="stop-color:#650000;stop-opacity:1;"
         offset="1"
         id="stop4220-9" />
    </linearGradient>
    <linearGradient
       id="linearGradient4965-8">
      <stop
         style="stop-color:#ffffff;stop-opacity:0.73362446;"
         offset="0"
         id="stop4967-0" />
      <stop
         style="stop-color:#ffffff;stop-opacity:0;"
         offset="1"
         id="stop4969-7" />
    </linearGradient>
    <radialGradient
       inkscape:collect="always"
       xlink:href="#linearGradient4216-1"
       id="radialGradient4740"
       cx="88"
       cy="41.600002"
       fx="88"
       fy="41.600002"
       r="56"
       gradientTransform="matrix(2.8571428,-2.9043769e-7,1.9365072e-7,2.5714286,-163.42856,-58.971408)"
       gradientUnits="userSpaceOnUse" />
    <filter
       inkscape:collect="always"
       id="filter4764">
      <feGaussianBlur
         inkscape:collect="always"
         stdDeviation="2.4"
         id="feGaussianBlur4766" />
    </filter>
    <radialGradient
       inkscape:collect="always"
       xlink:href="#linearGradient4817"
       id="radialGradient4833"
       cx="100"
       cy="30.400002"
       fx="100"
       fy="30.400002"
       r="56"
       gradientTransform="matrix(1.9285714,4.5704096e-8,-4.9089587e-8,2.0714286,-92.857141,-22.971435)"
       gradientUnits="userSpaceOnUse" />
    <radialGradient
       inkscape:collect="always"
       xlink:href="#linearGradient4835"
       id="radialGradient4841"
       cx="96"
       cy="41.600002"
       fx="96"
       fy="41.600002"
       r="56"
       gradientTransform="matrix(2.2012869,0.00495237,-0.00429073,1.9071934,-115.14505,-31.814677)"
       gradientUnits="userSpaceOnUse" />
    <radialGradient
       inkscape:collect="always"
       xlink:href="#linearGradient4965-8"
       id="radialGradient4851"
       cx="64"
       cy="64"
       fx="64"
       fy="64"
       r="56.25"
       gradientTransform="matrix(3.4133334,5.5466666e-8,-5.2629379e-8,2.8444444,-154.45333,-118.04445)"
       gradientUnits="userSpaceOnUse" />
    <radialGradient
       inkscape:collect="always"
       xlink:href="#linearGradient4965-8"
       id="radialGradient4859"
       cx="64"
       cy="64"
       fx="64"
       fy="64"
       r="56"
       gradientTransform="matrix(1.857143,-1.5736465e-8,3.3571429e-8,1.6428572,-54.85715,-41.142856)"
       gradientUnits="userSpaceOnUse" />
    <radialGradient
       inkscape:collect="always"
       xlink:href="#linearGradient4216-1"
       id="radialGradient4863"
       gradientUnits="userSpaceOnUse"
       gradientTransform="matrix(2.6530612,-2.6139392e-7,1.7981853e-7,2.3142857,-147.18366,-46.67427)"
       cx="88"
       cy="41.600002"
       fx="88"
       fy="41.600002"
       r="56" />
    <filter
       inkscape:collect="always"
       id="filter4890"
       x="-0.051230769"
       width="1.1024615"
       y="-0.12109091"
       height="1.2421818">
      <feGaussianBlur
         inkscape:collect="always"
         stdDeviation="2.22"
         id="feGaussianBlur4892" />
    </filter>
    <radialGradient
       inkscape:collect="always"
       xlink:href="#linearGradient4216-1"
       id="radialGradient4905"
       gradientUnits="userSpaceOnUse"
       gradientTransform="matrix(2.6530612,2.6139392e-7,1.7981853e-7,-2.3142857,-147.18367,1099.0365)"
       cx="88"
       cy="41.600002"
       fx="88"
       fy="41.600002"
       r="56" />
    <radialGradient
       inkscape:collect="always"
       xlink:href="#linearGradient4835"
       id="radialGradient4744"
       cx="156"
       cy="117.2"
       fx="156"
       fy="117.2"
       r="7"
       gradientTransform="matrix(1.7142857,1.0794005e-6,-1.0794002e-6,1.7142853,-111.42845,-82.914405)"
       gradientUnits="userSpaceOnUse" />
    <radialGradient
       inkscape:collect="always"
       xlink:href="#linearGradient4817"
       id="radialGradient4752"
       cx="153.75"
       cy="119"
       fx="153.75"
       fy="119"
       r="7"
       gradientTransform="matrix(1.7142864,8.0103721e-7,-9.3454321e-7,2.0000003,-108.57143,-120.00016)"
       gradientUnits="userSpaceOnUse" />
    <radialGradient
       inkscape:collect="always"
       xlink:href="#linearGradient4216-1"
       id="radialGradient4762"
       cx="152.81818"
       cy="119.36842"
       fx="152.81818"
       fy="119.36842"
       r="6"
       gradientTransform="matrix(3.6666667,8.0701793e-8,-6.9697015e-8,3.166667,-405.33333,-260.00006)"
       gradientUnits="userSpaceOnUse" />
    <radialGradient
       inkscape:collect="always"
       xlink:href="#linearGradient4216-1"
       id="radialGradient5390"
       gradientUnits="userSpaceOnUse"
       gradientTransform="matrix(2.8571428,-2.9043769e-7,1.9365072e-7,2.5714286,-163.42856,-58.971408)"
       cx="88"
       cy="41.600002"
       fx="88"
       fy="41.600002"
       r="56" />
    <radialGradient
       inkscape:collect="always"
       xlink:href="#linearGradient4216-1"
       id="radialGradient5392"
       gradientUnits="userSpaceOnUse"
       gradientTransform="matrix(2.6530612,2.6139392e-7,1.7981853e-7,-2.3142857,-147.18367,1099.0365)"
       cx="88"
       cy="41.600002"
       fx="88"
       fy="41.600002"
       r="56" />
    <radialGradient
       inkscape:collect="always"
       xlink:href="#linearGradient4817"
       id="radialGradient5394"
       gradientUnits="userSpaceOnUse"
       gradientTransform="matrix(1.9285714,4.5704096e-8,-4.9089587e-8,2.0714286,-92.857141,-22.971435)"
       cx="100"
       cy="30.400002"
       fx="100"
       fy="30.400002"
       r="56" />
    <radialGradient
       inkscape:collect="always"
       xlink:href="#linearGradient4965-8"
       id="radialGradient5396"
       gradientUnits="userSpaceOnUse"
       gradientTransform="matrix(3.4133334,5.5466666e-8,-5.2629379e-8,2.8444444,-154.45333,-118.04445)"
       cx="64"
       cy="64"
       fx="64"
       fy="64"
       r="56.25" />
    <radialGradient
       inkscape:collect="always"
       xlink:href="#linearGradient4835"
       id="radialGradient5398"
       gradientUnits="userSpaceOnUse"
       gradientTransform="matrix(2.2012869,0.00495237,-0.00429073,1.9071934,-115.14505,-31.814677)"
       cx="96"
       cy="41.600002"
       fx="96"
       fy="41.600002"
       r="56" />
    <radialGradient
       inkscape:collect="always"
       xlink:href="#linearGradient4965-8"
       id="radialGradient5400"
       gradientUnits="userSpaceOnUse"
       gradientTransform="matrix(1.857143,-1.5736465e-8,3.3571429e-8,1.6428572,-54.85715,-41.142856)"
       cx="64"
       cy="64"
       fx="64"
       fy="64"
       r="56" />
    <radialGradient
       inkscape:collect="always"
       xlink:href="#linearGradient4216-1"
       id="radialGradient5402"
       gradientUnits="userSpaceOnUse"
       gradientTransform="matrix(2.6530612,-2.6139392e-7,1.7981853e-7,2.3142857,-147.18366,-46.67427)"
       cx="88"
       cy="41.600002"
       fx="88"
       fy="41.600002"
       r="56" />
    <radialGradient
       inkscape:collect="always"
       xlink:href="#linearGradient4216-1"
       id="radialGradient5463"
       gradientUnits="userSpaceOnUse"
       gradientTransform="matrix(0.74019727,-7.5243416e-8,5.0168908e-8,0.66617756,101.0803,971.98595)"
       cx="88"
       cy="41.600002"
       fx="88"
       fy="41.600002"
       r="56" />
    <radialGradient
       inkscape:collect="always"
       xlink:href="#linearGradient4216-1"
       id="radialGradient5465"
       gradientUnits="userSpaceOnUse"
       gradientTransform="matrix(0.68732604,6.7719075e-8,4.6585416e-8,-0.5995598,105.28885,1032.5163)"
       cx="88"
       cy="41.600002"
       fx="88"
       fy="41.600002"
       r="56" />
    <radialGradient
       inkscape:collect="always"
       xlink:href="#linearGradient4817"
       id="radialGradient5467"
       gradientUnits="userSpaceOnUse"
       gradientTransform="matrix(0.49963316,1.1840517e-8,-1.2717593e-8,0.53664304,119.36317,981.31243)"
       cx="100"
       cy="30.400002"
       fx="100"
       fy="30.400002"
       r="56" />
    <radialGradient
       inkscape:collect="always"
       xlink:href="#linearGradient4965-8"
       id="radialGradient5469"
       gradientUnits="userSpaceOnUse"
       gradientTransform="matrix(0.88428904,1.4369696e-8,-1.3634643e-8,0.73690751,103.4055,956.68196)"
       cx="64"
       cy="64"
       fx="64"
       fy="64"
       r="56.25" />
    <radialGradient
       inkscape:collect="always"
       xlink:href="#linearGradient4835"
       id="radialGradient5471"
       gradientUnits="userSpaceOnUse"
       gradientTransform="matrix(0.57028531,0.00128301,-0.0011116,0.49409478,113.58906,979.02142)"
       cx="96"
       cy="41.600002"
       fx="96"
       fy="41.600002"
       r="56" />
    <radialGradient
       inkscape:collect="always"
       xlink:href="#linearGradient4965-8"
       id="radialGradient5473"
       gradientUnits="userSpaceOnUse"
       gradientTransform="matrix(0.48112827,0,0,0.42561345,129.20779,976.60478)"
       cx="64"
       cy="64"
       fx="64"
       fy="64"
       r="56" />
    <radialGradient
       inkscape:collect="always"
       xlink:href="#linearGradient4216-1"
       id="radialGradient5475"
       gradientUnits="userSpaceOnUse"
       gradientTransform="matrix(0.68732604,-6.7719075e-8,4.6585416e-8,0.5995598,105.28885,975.17176)"
       cx="88"
       cy="41.600002"
       fx="88"
       fy="41.600002"
       r="56" />
  </defs>
  <sodipodi:namedview
     id="base"
     pagecolor="#ffffff"
     bordercolor="#666666"
     borderopacity="1.0"
     inkscape:pageopacity="0.0"
     inkscape:pageshadow="2"
     inkscape:zoom="1.4609375"
     inkscape:cx="64.357522"
     inkscape:cy="59.726028"
     inkscape:document-units="px"
     inkscape:current-layer="layer1"
     showgrid="true"
     inkscape:window-width="1920"
     inkscape:window-height="1028"
     inkscape:window-x="-8"
     inkscape:window-y="-8"
     inkscape:window-maximized="1"
     showguides="true"
     inkscape:guide-bbox="true">
    <inkscape:grid
       type="xygrid"
       id="grid2985"
       empspacing="2"
       visible="true"
       enabled="true"
       snapvisiblegridlinesonly="true" />
  </sodipodi:namedview>
  <metadata
     id="metadata7">
    <rdf:RDF>
      <cc:Work
         rdf:about="">
        <dc:format>image/svg+xml</dc:format>
        <dc:type
           rdf:resource="http://purl.org/dc/dcmitype/StillImage" />
        <dc:title />
      </cc:Work>
    </rdf:RDF>
  </metadata>
  <g
     inkscape:label="Layer 1"
     inkscape:groupmode="layer"
     id="layer1"
     transform="translate(0,-924.36218)">
    <path
       style="fill:#000000;fill-opacity:1;stroke:#000000;opacity:0.25"
       d="M 148.03125 70.78125 C 147.52138 70.78125 147.125 71.20889 147.125 71.71875 L 147.125 72.625 L 147.125 76.3125 L 147.125 80 L 147.125 83.6875 L 147.125 87.375 L 147.125 88.28125 C 147.125 88.79105 147.52138 89.21875 148.03125 89.21875 L 148.96875 89.21875 L 171.96875 89.21875 C 172.47862 89.21875 172.875 88.79105 172.875 88.28125 L 172.875 87.375 L 172.875 83.6875 L 172.875 80 L 172.875 76.3125 L 172.875 72.625 L 172.875 71.71875 C 172.875 71.20889 172.47862 70.78125 171.96875 70.78125 L 148.96875 70.78125 L 148.03125 70.78125 z "
       transform="translate(0,924.36218)"
       id="rect5479" />
    <path
       id="path5526"
       transform="translate(0,924.36218)"
       d="M 148.03125 70.78125 C 147.52138 70.78125 147.125 71.20889 147.125 71.71875 L 147.125 72.625 L 147.125 76.3125 L 147.125 80 L 147.125 83.6875 L 147.125 87.375 L 147.125 88.28125 C 147.125 88.79105 147.52138 89.21875 148.03125 89.21875 L 148.96875 89.21875 L 171.96875 89.21875 C 172.47862 89.21875 172.875 88.79105 172.875 88.28125 L 172.875 87.375 L 172.875 83.6875 L 172.875 80 L 172.875 76.3125 L 172.875 72.625 L 172.875 71.71875 C 172.875 71.20889 172.47862 70.78125 171.96875 70.78125 L 148.96875 70.78125 L 148.03125 70.78125 z "
       style="fill:#000000;fill-opacity:1;stroke:#000000;opacity:0.12;stroke-width:2;stroke-miterlimit:4;stroke-dasharray:none" />
    <path
       style="fill:#000000;fill-opacity:1;stroke:#000000;opacity:0.12000000000000000;stroke-width:3;stroke-miterlimit:4;stroke-dasharray:none"
       d="M 148.03125 70.78125 C 147.52138 70.78125 147.125 71.20889 147.125 71.71875 L 147.125 72.625 L 147.125 76.3125 L 147.125 80 L 147.125 83.6875 L 147.125 87.375 L 147.125 88.28125 C 147.125 88.79105 147.52138 89.21875 148.03125 89.21875 L 148.96875 89.21875 L 171.96875 89.21875 C 172.47862 89.21875 172.875 88.79105 172.875 88.28125 L 172.875 87.375 L 172.875 83.6875 L 172.875 80 L 172.875 76.3125 L 172.875 72.625 L 172.875 71.71875 C 172.875 71.20889 172.47862 70.78125 171.96875 70.78125 L 148.96875 70.78125 L 148.03125 70.78125 z "
       transform="translate(0,924.36218)"
       id="path5528" />
    <g
       id="g5455"
       transform="matrix(0.88812795,0,0,0.88812795,17.899528,112.82023)">
      <rect
         rx="1.0362762"
         ry="1.0362762"
         y="993.48126"
         x="145.49213"
         height="20.725525"
         width="29.015734"
         id="rect5408"
         style="fill:url(#radialGradient5463);fill-opacity:1;stroke:none" />
      <path
         inkscape:transform-center-y="14.000005"
         style="fill:url(#radialGradient5465);fill-opacity:1;stroke:none"
         d="m 147.49182,1013.1705 c -0.53309,0 -0.96341,-0.4143 -0.96341,-0.931 l 0,-1.0768 13.47159,-7.3187 13.47159,7.0435 0,1.352 c 0,0.5167 -0.43034,0.931 -0.96342,0.931 z"
         id="path5410"
         inkscape:connector-curvature="0"
         sodipodi:nodetypes="sscccsss" />
      <path
         inkscape:connector-curvature="0"
         id="path5412"
         d="m 147.56468,993.48128 -2.07255,2.07255 0,4.1451 1.03628,-1.03627 0,-3.10883 c 0,-0.5741 0.46218,-1.03628 1.03627,-1.03628 l 3.10883,0 1.03628,-1.03627 -4.14511,0 z m 8.29021,0 -1.03627,1.03627 4.1451,0 1.03628,-1.03627 -4.14511,0 z m 8.29021,0 -1.03627,1.03627 4.1451,0 1.03628,-1.03627 -4.14511,0 z m 8.29021,0 -1.03627,1.03627 1.03627,0 c 0.5741,0 1.03628,0.46218 1.03628,1.03628 l 0,1.03628 1.03628,-1.03628 0,-1.03628 c 0,-0.57409 -0.46218,-1.03627 -1.03628,-1.03627 l -1.03628,0 z m 2.07256,6.21765 -1.03628,1.03627 0,4.1451 1.03628,-1.0363 0,-4.14507 z m -27.97946,3.10887 -1.03628,1.0362 0,4.1451 1.03628,-1.0362 0,-4.1451 z m 27.97946,5.1813 -1.03628,1.0363 0,3.1088 c 0,0.5741 -0.46218,1.0363 -1.03628,1.0363 l -3.10883,0 -1.03627,1.0363 4.1451,0 2.07256,-2.0726 0,-4.1451 z m -27.97946,3.1089 -1.03628,1.0362 0,1.0363 c 0,0.5741 0.46218,1.0363 1.03628,1.0363 l 1.03627,0 1.03628,-1.0363 -1.03628,0 c -0.57409,0 -1.03627,-0.4622 -1.03627,-1.0363 l 0,-1.0362 z m 6.21766,2.0725 -1.03628,1.0363 4.1451,0 1.03628,-1.0363 -4.1451,0 z m 8.29021,0 -1.03628,1.0363 4.1451,0 1.03628,-1.0363 -4.1451,0 z"
         style="fill:url(#radialGradient5467);fill-opacity:1;stroke:url(#radialGradient5469);stroke-width:0.12953453;stroke-miterlimit:4;stroke-dasharray:none" />
      <path
         inkscape:connector-curvature="0"
         id="path5414"
         d="m 146.52841,993.48128 c -0.5741,0 -1.03628,0.46218 -1.03628,1.03627 l 0,1.03628 2.07255,-2.07255 -1.03627,0 z m 5.18138,0 -1.03628,1.03627 4.14511,0 1.03627,-1.03627 -4.1451,0 z m 8.29021,0 -1.03628,1.03627 4.14511,0 1.03627,-1.03627 -4.1451,0 z m 8.29021,0 -1.03628,1.03627 4.14511,0 1.03627,-1.03627 -4.1451,0 z m 6.21766,2.07255 -1.03628,1.03628 0,4.14509 1.03628,-1.03627 0,-4.1451 z m -27.97946,3.10883 -1.03628,1.03627 0,4.14507 1.03628,-1.0362 0,-4.14514 z m 27.97946,5.18134 -1.03628,1.0363 0,4.1451 1.03628,-1.0363 0,-4.1451 z m -27.97946,3.1089 -1.03628,1.0362 0,4.1451 1.03628,-1.0362 0,-4.1451 z m 27.97946,5.1813 -2.07256,2.0726 1.03628,0 c 0.5741,0 1.03628,-0.4622 1.03628,-1.0363 l 0,-1.0363 z m -25.90691,1.0363 -1.03628,1.0363 4.14511,0 1.03628,-1.0363 -4.14511,0 z m 8.29021,0 -1.03628,1.0363 4.14511,0 1.03628,-1.0363 -4.14511,0 z m 8.29021,0 -1.03628,1.0363 4.14511,0 1.03627,-1.0363 -4.1451,0 z"
         style="fill:url(#radialGradient5471);fill-opacity:1;stroke:url(#radialGradient5473);stroke-width:0.25906906px;stroke-linecap:butt;stroke-linejoin:miter;stroke-opacity:1" />
      <path
         sodipodi:nodetypes="cccccc"
         inkscape:connector-curvature="0"
         id="path5416"
         transform="matrix(0.25906905,0,0,0.25906905,143.41958,987.26362)"
         d="M 20,32 15.21875,38 64,80 113.3125,38.625 108,32 z"
         style="fill:#000000;fill-opacity:1;stroke:none;filter:url(#filter4890)" />
      <path
         sodipodi:nodetypes="sscccsss"
         inkscape:connector-curvature="0"
         id="path5418"
         d="m 147.49182,994.51755 c -0.53309,0 -0.96341,0.41435 -0.96341,0.93103 l 0,1.07676 13.47159,11.46376 13.47159,-11.1885 0,-1.35202 c 0,-0.51668 -0.43032,-0.93103 -0.96341,-0.93103 z"
         style="fill:url(#radialGradient5475);fill-opacity:1;stroke:none" />
    </g>
    <rect
       rx="8"
       ry="8"
       y="950.36218"
       x="8"
       height="80"
       width="112"
       id="rect4742"
       style="fill:#000000;fill-opacity:1;stroke:none;filter:url(#filter4764)" />
    <rect
       style="fill:url(#radialGradient4740);fill-opacity:1;stroke:none"
       id="rect4732"
       width="112"
       height="80"
       x="8"
       y="24"
       transform="translate(0,924.36218)"
       ry="4"
       rx="4" />
    <path
       sodipodi:nodetypes="sscccsss"
       inkscape:connector-curvature="0"
       id="path4903"
       d="m 15.71874,1024.3622 c -2.05771,0 -3.71875,-1.5994 -3.71875,-3.5938 l 0,-4.1562 L 64,988.36218 l 52.00001,27.18752 0,5.2187 c 0,1.9944 -1.6611,3.5938 -3.7188,3.5938 z"
       style="fill:url(#radialGradient4905);fill-opacity:1;stroke:none"
       inkscape:transform-center-y="14.000005" />
    <path
       style="fill:url(#radialGradient4833);fill-opacity:1;stroke:url(#radialGradient4851);stroke-width:0.50000000000000000;stroke-miterlimit:4;stroke-dasharray:none"
       d="M 16 24 L 8 32 L 8 48 L 12 44 L 12 32 C 12 29.784 13.784 28 16 28 L 28 28 L 32 24 L 16 24 z M 48 24 L 44 28 L 60 28 L 64 24 L 48 24 z M 80 24 L 76 28 L 92 28 L 96 24 L 80 24 z M 112 24 L 108 28 L 112 28 C 114.216 28 116 29.784 116 32 L 116 36 L 120 32 L 120 28 C 120 25.784 118.216 24 116 24 L 112 24 z M 120 48 L 116 52 L 116 68 L 120 64 L 120 48 z M 12 60 L 8 64 L 8 80 L 12 76 L 12 60 z M 120 80 L 116 84 L 116 96 C 116 98.216 114.216 100 112 100 L 100 100 L 96 104 L 112 104 L 120 96 L 120 80 z M 12 92 L 8 96 L 8 100 C 8 102.216 9.784 104 12 104 L 16 104 L 20 100 L 16 100 C 13.784 100 12 98.216 12 96 L 12 92 z M 36 100 L 32 104 L 48 104 L 52 100 L 36 100 z M 68 100 L 64 104 L 80 104 L 84 100 L 68 100 z "
       transform="translate(0,924.36218)"
       id="rect4768" />
    <path
       style="fill:url(#radialGradient4841);stroke:url(#radialGradient4859);stroke-width:1px;stroke-linecap:butt;stroke-linejoin:miter;stroke-opacity:1;fill-opacity:1"
       d="M 12 24 C 9.784 24 8 25.784 8 28 L 8 32 L 16 24 L 12 24 z M 32 24 L 28 28 L 44 28 L 48 24 L 32 24 z M 64 24 L 60 28 L 76 28 L 80 24 L 64 24 z M 96 24 L 92 28 L 108 28 L 112 24 L 96 24 z M 120 32 L 116 36 L 116 52 L 120 48 L 120 32 z M 12 44 L 8 48 L 8 64 L 12 60 L 12 44 z M 120 64 L 116 68 L 116 84 L 120 80 L 120 64 z M 12 76 L 8 80 L 8 96 L 12 92 L 12 76 z M 120 96 L 112 104 L 116 104 C 118.216 104 120 102.216 120 100 L 120 96 z M 20 100 L 16 104 L 32 104 L 36 100 L 20 100 z M 52 100 L 48 104 L 64 104 L 68 100 L 52 100 z M 84 100 L 80 104 L 96 104 L 100 100 L 84 100 z "
       transform="translate(0,924.36218)"
       id="path4811" />
    <path
       style="fill:#000000;fill-opacity:1;stroke:none;filter:url(#filter4890)"
       d="M 20,32 15.21875,38 64,80 113.3125,38.625 108,32 z"
       transform="translate(0,924.36218)"
       id="path4868"
       inkscape:connector-curvature="0"
       sodipodi:nodetypes="cccccc" />
    <path
       style="fill:url(#radialGradient4863);fill-opacity:1;stroke:none"
       d="M 15.71875,28 C 13.661036,28 12,29.59935 12,31.59375 L 12,35.75 64,80 116,36.8125 116,31.59375 C 116,29.59935 114.33896,28 112.28125,28 z"
       transform="translate(0,924.36218)"
       id="rect4861"
       inkscape:connector-curvature="0"
       sodipodi:nodetypes="sscccsss" />
    <rect
       ry="0"
       rx="4.6539506e-07"
       y="924.36218"
       x="136"
       height="32.000004"
       width="32"
       id="rect6882"
       style="fill:none;stroke:none" />
    <text
       xml:space="preserve"
       style="font-size:24px;font-style:normal;font-weight:normal;line-height:125%;letter-spacing:0px;word-spacing:0px;fill:#000000;fill-opacity:1;stroke:none;font-family:Sans"
       x="-56"
       y="948.36218"
       id="text5893"
       sodipodi:linespacing="125%"><tspan
         sodipodi:role="line"
         id="tspan5895"
         x="-56"
         y="948.36218">128</tspan></text>
    <text
       xml:space="preserve"
       style="font-size:16px;font-style:normal;font-weight:normal;line-height:125%;letter-spacing:0px;word-spacing:0px;fill:#000000;fill-opacity:1;stroke:none;font-family:Sans"
       x="200"
       y="940.36218"
       id="text5897"
       sodipodi:linespacing="125%"><tspan
         sodipodi:role="line"
         id="tspan5899"
         x="200"
         y="940.36218">48 - 32</tspan></text>
    <text
       sodipodi:linespacing="125%"
       id="text5901"
       y="1000.3622"
       x="184"
       style="font-size:16px;font-style:normal;font-weight:normal;line-height:125%;letter-spacing:0px;word-spacing:0px;fill:#000000;fill-opacity:1;stroke:none;font-family:Sans"
       xml:space="preserve"><tspan
         y="1000.3622"
         x="184"
         id="tspan5903"
         sodipodi:role="line">31 - 17</tspan></text>
    <text
       xml:space="preserve"
       style="font-size:16px;font-style:normal;font-weight:normal;line-height:125%;letter-spacing:0px;word-spacing:0px;fill:#000000;fill-opacity:1;stroke:none;font-family:Sans"
       x="172"
       y="1048.3622"
       id="text5905"
       sodipodi:linespacing="125%"><tspan
         sodipodi:role="line"
         id="tspan5907"
         x="172"
         y="1048.3622">16</tspan></text>
    <rect
       style="fill:none;stroke:#000000"
       id="rect5917"
       width="56"
       height="56"
       x="140"
       y="920.36218"
       rx="4.5902016e-07" />
    <rect
       style="fill:none;stroke:#000000;stroke-width:1;stroke-linecap:round;stroke-linejoin:round;stroke-miterlimit:4;stroke-opacity:1;stroke-dasharray:none;stroke-dashoffset:0"
       id="rect5919"
       width="40"
       height="40"
       x="140"
       y="984.36218"
       rx="4.5902016e-07" />
    <rect
       style="fill:none;stroke:#000000;stroke-width:1;stroke-linecap:round;stroke-linejoin:round;stroke-miterlimit:4;stroke-opacity:1;stroke-dasharray:none;stroke-dashoffset:0"
       id="rect5921"
       width="24"
       height="24"
       x="140"
       y="1032.3622"
       rx="4.5902016e-07" />
    <rect
       style="fill:#b3b3b3;stroke:none"
       id="rect6931"
       width="48"
       height="4"
       x="144"
       y="916.36218"
       rx="4.5902016e-07" />
    <rect
       style="fill:#b3b3b3;fill-opacity:1;stroke:none"
       id="rect6933"
       width="4"
       height="48"
       x="136"
       y="924.36218"
       rx="4.5902016e-07" />
    <rect
       style="fill:#b3b3b3;fill-opacity:1;stroke:none"
       id="rect6935"
       width="32"
       height="4"
       x="144"
       y="980.36218"
       rx="4.5902016e-07" />
    <rect
       style="fill:#b3b3b3;fill-opacity:1;stroke:none"
       id="rect6937"
       width="4"
       height="32"
       x="136"
       y="988.36218"
       rx="4.5902016e-07" />
    <rect
       style="fill:#b3b3b3;fill-opacity:1;stroke:none"
       id="rect6939"
       width="16"
       height="4"
       x="144"
       y="1028.3622"
       rx="4.5902016e-07" />
    <rect
       style="fill:#b3b3b3;fill-opacity:1;stroke:none"
       id="rect6941"
       width="4"
       height="16"
       x="136"
       y="1036.3622"
       rx="4.5902016e-07" />
    <rect
       style="fill:#333333;fill-opacity:1;stroke:none"
       id="rect4719"
       width="16"
       height="12"
       x="144"
       y="114"
       transform="translate(0,924.36218)"
       rx="1"
       ry="1" />
    <rect
       style="fill:url(#radialGradient4752);fill-opacity:1;stroke:none"
       id="rect4733"
       width="14"
       height="10"
       x="145"
       y="115"
       transform="translate(0,924.36218)"
       rx="0"
       ry="0" />
    <path
       style="fill:url(#radialGradient4744);stroke:none;stroke-width:1px;stroke-linecap:butt;stroke-linejoin:miter;stroke-opacity:1;fill-opacity:1"
       d="M 145 115 L 145 117 L 153 125 L 155 125 L 145 115 z M 147 115 L 157 125 L 159 125 L 149 115 L 147 115 z M 151 115 L 159 123 L 159 121 L 153 115 L 151 115 z M 155 115 L 159 119 L 159 117 L 157 115 L 155 115 z M 145 119 L 145 121 L 149 125 L 151 125 L 145 119 z M 145 123 L 145 125 L 147 125 L 145 123 z "
       transform="translate(0,924.36218)"
       id="path4721" />
    <rect
       style="fill:url(#radialGradient4762);fill-opacity:1;stroke:none"
       id="rect4754"
       width="12"
       height="8"
       x="146"
       y="116"
       transform="translate(0,924.36218)" />
    <path
       style="fill:#333333;stroke:none;stroke-width:1px;stroke-linecap:butt;stroke-linejoin:miter;stroke-opacity:1"
       d="m 146,117 6,5 6,-5 0,-1 -6,5 -6,-5 z"
       id="path4764"
       inkscape:connector-curvature="0"
       transform="translate(0,924.36218)" />
    <path
       style="font-size:medium;font-style:normal;font-variant:normal;font-weight:normal;font-stretch:normal;text-indent:0;text-align:start;text-decoration:none;line-height:normal;letter-spacing:normal;word-spacing:normal;text-transform:none;direction:ltr;block-progression:tb;writing-mode:lr-tb;text-anchor:start;baseline-shift:baseline;opacity:0.25;color:#000000;fill:none;stroke:none;stroke-width:4;marker:none;visibility:visible;display:inline;overflow:visible;enable-background:accumulate;font-family:Sans;-inkscape-font-specification:Sans"
       d="m 159.53551,1037.6975 c -0.11193,0 -0.22221,0.05 -0.30178,0.1283 l -4.44,4.44 c -0.12461,0.1233 -0.16498,0.3241 -0.0977,0.486 0.0673,0.1619 0.23806,0.275 0.41337,0.2737 l 9.76799,0 c 0.23247,0 0.44397,-0.2116 0.444,-0.444 l 0,-1.776 c -3e-5,-0.2325 -0.21153,-0.444 -0.444,-0.444 l -4.884,0 0,-2.22 c 9e-5,-0.2372 -0.22082,-0.4514 -0.45787,-0.444 z"
       id="path5138"
       inkscape:connector-curvature="0"
       sodipodi:nodetypes="cccscccccccc" />
    <g
       id="g5381"
       transform="matrix(0.38860358,0,0,0.38860358,143.12937,563.50389)">
      <rect
         rx="8"
         ry="8"
         y="950.36218"
         x="8"
         height="80"
         width="112"
         id="rect5367"
         style="fill:#000000;fill-opacity:1;stroke:none;filter:url(#filter4764)" />
      <rect
         style="fill:url(#radialGradient5390);fill-opacity:1;stroke:none"
         id="rect5369"
         width="112"
         height="80"
         x="8"
         y="24"
         transform="translate(0,924.36218)"
         ry="4"
         rx="4" />
      <path
         sodipodi:nodetypes="sscccsss"
         inkscape:connector-curvature="0"
         id="path5371"
         d="m 15.71874,1024.3622 c -2.05771,0 -3.71875,-1.5994 -3.71875,-3.5938 l 0,-4.1562 L 64,988.36218 l 52.00001,27.18752 0,5.2187 c 0,1.9944 -1.6611,3.5938 -3.7188,3.5938 z"
         style="fill:url(#radialGradient5392);fill-opacity:1;stroke:none"
         inkscape:transform-center-y="14.000005" />
      <path
         style="fill:url(#radialGradient5394);fill-opacity:1;stroke:url(#radialGradient5396);stroke-width:0.5;stroke-miterlimit:4;stroke-dasharray:none"
         d="m 16,24 -8,8 0,16 4,-4 0,-12 c 0,-2.216 1.784,-4 4,-4 l 12,0 4,-4 -16,0 z m 32,0 -4,4 16,0 4,-4 -16,0 z m 32,0 -4,4 16,0 4,-4 -16,0 z m 32,0 -4,4 4,0 c 2.216,0 4,1.784 4,4 l 0,4 4,-4 0,-4 c 0,-2.216 -1.784,-4 -4,-4 l -4,0 z m 8,24 -4,4 0,16 4,-4 0,-16 z M 12,60 8,64 8,80 12,76 12,60 z m 108,20 -4,4 0,12 c 0,2.216 -1.784,4 -4,4 l -12,0 -4,4 16,0 8,-8 0,-16 z m -108,12 -4,4 0,4 c 0,2.216 1.784,4 4,4 l 4,0 4,-4 -4,0 c -2.216,0 -4,-1.784 -4,-4 l 0,-4 z m 24,8 -4,4 16,0 4,-4 -16,0 z m 32,0 -4,4 16,0 4,-4 -16,0 z"
         transform="translate(0,924.36218)"
         id="path5373"
         inkscape:connector-curvature="0" />
      <path
         style="fill:url(#radialGradient5398);fill-opacity:1;stroke:url(#radialGradient5400);stroke-width:1px;stroke-linecap:butt;stroke-linejoin:miter;stroke-opacity:1"
         d="m 12,24 c -2.216,0 -4,1.784 -4,4 l 0,4 8,-8 -4,0 z m 20,0 -4,4 16,0 4,-4 -16,0 z m 32,0 -4,4 16,0 4,-4 -16,0 z m 32,0 -4,4 16,0 4,-4 -16,0 z m 24,8 -4,4 0,16 4,-4 0,-16 z M 12,44 8,48 8,64 12,60 12,44 z m 108,20 -4,4 0,16 4,-4 0,-16 z M 12,76 8,80 8,96 12,92 12,76 z m 108,20 -8,8 4,0 c 2.216,0 4,-1.784 4,-4 l 0,-4 z m -100,4 -4,4 16,0 4,-4 -16,0 z m 32,0 -4,4 16,0 4,-4 -16,0 z m 32,0 -4,4 16,0 4,-4 -16,0 z"
         transform="translate(0,924.36218)"
         id="path5375"
         inkscape:connector-curvature="0" />
      <path
         style="fill:#000000;fill-opacity:1;stroke:none;filter:url(#filter4890)"
         d="M 20,32 15.21875,38 64,80 113.3125,38.625 108,32 z"
         transform="translate(0,924.36218)"
         id="path5377"
         inkscape:connector-curvature="0"
         sodipodi:nodetypes="cccccc" />
      <path
         style="fill:url(#radialGradient5402);fill-opacity:1;stroke:none"
         d="M 15.71875,28 C 13.661036,28 12,29.59935 12,31.59375 L 12,35.75 64,80 116,36.8125 116,31.59375 C 116,29.59935 114.33896,28 112.28125,28 z"
         transform="translate(0,924.36218)"
         id="path5379"
         inkscape:connector-curvature="0"
         sodipodi:nodetypes="sscccsss" />
    </g>
  </g>
</svg>
