<?xml version="1.0" encoding="UTF-8" standalone="no"?>
<!-- Created with Inkscape (http://www.inkscape.org/) -->

<svg
   xmlns:dc="http://purl.org/dc/elements/1.1/"
   xmlns:cc="http://creativecommons.org/ns#"
   xmlns:rdf="http://www.w3.org/1999/02/22-rdf-syntax-ns#"
   xmlns:svg="http://www.w3.org/2000/svg"
   xmlns="http://www.w3.org/2000/svg"
   xmlns:xlink="http://www.w3.org/1999/xlink"
   xmlns:sodipodi="http://sodipodi.sourceforge.net/DTD/sodipodi-0.dtd"
   xmlns:inkscape="http://www.inkscape.org/namespaces/inkscape"
   width="128"
   height="128"
   id="svg2"
   version="1.1"
   inkscape:version="0.91 r13725"
   sodipodi:docname="mail-reply-sender.svg">
  <defs
     id="defs4">
    <linearGradient
       id="linearGradient4807">
      <stop
         style="stop-color:#9fff7e;stop-opacity:1;"
         offset="0"
         id="stop4809" />
      <stop
         style="stop-color:#006f00;stop-opacity:1;"
         offset="1"
         id="stop4811" />
    </linearGradient>
    <linearGradient
       id="linearGradient4835">
      <stop
         style="stop-color:#cbcbff;stop-opacity:1;"
         offset="0"
         id="stop4837" />
      <stop
         style="stop-color:#6169a9;stop-opacity:1;"
         offset="1"
         id="stop4839" />
    </linearGradient>
    <linearGradient
       id="linearGradient4817">
      <stop
         style="stop-color:#ff9797;stop-opacity:1;"
         offset="0"
         id="stop4819" />
      <stop
         style="stop-color:#b30000;stop-opacity:1;"
         offset="1"
         id="stop4821" />
    </linearGradient>
    <linearGradient
       id="linearGradient4216-1">
      <stop
         style="stop-color:#ffffff;stop-opacity:1;"
         offset="0"
         id="stop4218-0" />
      <stop
         style="stop-color:#c6c6c6;stop-opacity:1;"
         offset="1"
         id="stop4220-9" />
    </linearGradient>
    <linearGradient
       id="linearGradient4965-8">
      <stop
         style="stop-color:#ffffff;stop-opacity:0.73362446;"
         offset="0"
         id="stop4967-0" />
      <stop
         style="stop-color:#ffffff;stop-opacity:0;"
         offset="1"
         id="stop4969-7" />
    </linearGradient>
    <radialGradient
       inkscape:collect="always"
       xlink:href="#linearGradient4216-1"
       id="radialGradient4740"
       cx="88"
       cy="41.600002"
       fx="88"
       fy="41.600002"
       r="56"
       gradientTransform="matrix(2.8571428,-2.9043769e-7,1.9365072e-7,2.5714286,-163.42856,-58.971408)"
       gradientUnits="userSpaceOnUse" />
    <filter
       inkscape:collect="always"
       id="filter4764">
      <feGaussianBlur
         inkscape:collect="always"
         stdDeviation="2.4"
         id="feGaussianBlur4766" />
    </filter>
    <radialGradient
       inkscape:collect="always"
       xlink:href="#linearGradient4817"
       id="radialGradient4833"
       cx="100"
       cy="30.400002"
       fx="100"
       fy="30.400002"
       r="56"
       gradientTransform="matrix(1.9285714,4.5704096e-8,-4.9089587e-8,2.0714286,-92.857141,-22.971435)"
       gradientUnits="userSpaceOnUse" />
    <radialGradient
       inkscape:collect="always"
       xlink:href="#linearGradient4835"
       id="radialGradient4841"
       cx="96"
       cy="41.600002"
       fx="96"
       fy="41.600002"
       r="56"
       gradientTransform="matrix(2.2012869,0.00495237,-0.00429073,1.9071934,-115.14505,-31.814677)"
       gradientUnits="userSpaceOnUse" />
    <radialGradient
       inkscape:collect="always"
       xlink:href="#linearGradient4965-8"
       id="radialGradient4851"
       cx="64"
       cy="64"
       fx="64"
       fy="64"
       r="56.25"
       gradientTransform="matrix(3.4133334,5.5466666e-8,-5.2629379e-8,2.8444444,-154.45333,-118.04445)"
       gradientUnits="userSpaceOnUse" />
    <radialGradient
       inkscape:collect="always"
       xlink:href="#linearGradient4965-8"
       id="radialGradient4859"
       cx="64"
       cy="64"
       fx="64"
       fy="64"
       r="56"
       gradientTransform="matrix(1.857143,-1.5736465e-8,3.3571429e-8,1.6428572,-54.85715,-41.142856)"
       gradientUnits="userSpaceOnUse" />
    <radialGradient
       inkscape:collect="always"
       xlink:href="#linearGradient4216-1"
       id="radialGradient4863"
       gradientUnits="userSpaceOnUse"
       gradientTransform="matrix(2.6530612,-2.6139392e-7,1.7981853e-7,2.3142857,-147.18366,-46.67427)"
       cx="88"
       cy="41.600002"
       fx="88"
       fy="41.600002"
       r="56" />
    <filter
       inkscape:collect="always"
       id="filter4890"
       x="-0.051230769"
       width="1.1024615"
       y="-0.12109091"
       height="1.2421818">
      <feGaussianBlur
         inkscape:collect="always"
         stdDeviation="2.22"
         id="feGaussianBlur4892" />
    </filter>
    <radialGradient
       inkscape:collect="always"
       xlink:href="#linearGradient4216-1"
       id="radialGradient4905"
       gradientUnits="userSpaceOnUse"
       gradientTransform="matrix(2.6530612,2.6139392e-7,1.7981853e-7,-2.3142857,-147.18367,1099.0365)"
       cx="88"
       cy="41.600002"
       fx="88"
       fy="41.600002"
       r="56" />
    <filter
       inkscape:collect="always"
       id="filter4909">
      <feGaussianBlur
         inkscape:collect="always"
         stdDeviation="1.3809375"
         id="feGaussianBlur4911" />
    </filter>
    <radialGradient
       inkscape:collect="always"
       xlink:href="#linearGradient4835"
       id="radialGradient4744"
       cx="156"
       cy="117.2"
       fx="156"
       fy="117.2"
       r="7"
       gradientTransform="matrix(1.7142857,1.0794005e-6,-1.0794002e-6,1.7142853,-111.42845,-82.914405)"
       gradientUnits="userSpaceOnUse" />
    <radialGradient
       inkscape:collect="always"
       xlink:href="#linearGradient4817"
       id="radialGradient4752"
       cx="153.75"
       cy="119"
       fx="153.75"
       fy="119"
       r="7"
       gradientTransform="matrix(1.7142864,8.0103721e-7,-9.3454321e-7,2.0000003,-108.57143,-120.00016)"
       gradientUnits="userSpaceOnUse" />
    <radialGradient
       inkscape:collect="always"
       xlink:href="#linearGradient4216-1"
       id="radialGradient4762"
       cx="152.81818"
       cy="119.36842"
       fx="152.81818"
       fy="119.36842"
       r="6"
       gradientTransform="matrix(3.6666667,8.0701793e-8,-6.9697015e-8,3.166667,-405.33333,-260.00006)"
       gradientUnits="userSpaceOnUse" />
    <filter
       inkscape:collect="always"
       id="filter4868"
       x="-0.06299752"
       width="1.125995"
       y="-0.12600992"
       height="1.2520198">
      <feGaussianBlur
         inkscape:collect="always"
         stdDeviation="2.5202917"
         id="feGaussianBlur4870" />
    </filter>
    <radialGradient
       inkscape:collect="always"
       xlink:href="#linearGradient4807"
       id="radialGradient4877"
       gradientUnits="userSpaceOnUse"
       gradientTransform="matrix(1,0,0,0.99984512,-8,84.150437)"
       cx="72"
       cy="976.36298"
       fx="72"
       fy="976.36298"
       r="48.007445" />
    <radialGradient
       inkscape:collect="always"
       xlink:href="#linearGradient4216-1"
       id="radialGradient4917"
       gradientUnits="userSpaceOnUse"
       gradientTransform="matrix(2.8571428,-2.9043769e-7,1.9365072e-7,2.5714286,-163.42856,-58.971408)"
       cx="88"
       cy="41.600002"
       fx="88"
       fy="41.600002"
       r="56" />
    <radialGradient
       inkscape:collect="always"
       xlink:href="#linearGradient4216-1"
       id="radialGradient4919"
       gradientUnits="userSpaceOnUse"
       gradientTransform="matrix(2.6530612,2.6139392e-7,1.7981853e-7,-2.3142857,-147.18367,1099.0365)"
       cx="88"
       cy="41.600002"
       fx="88"
       fy="41.600002"
       r="56" />
    <radialGradient
       inkscape:collect="always"
       xlink:href="#linearGradient4817"
       id="radialGradient4921"
       gradientUnits="userSpaceOnUse"
       gradientTransform="matrix(1.9285714,4.5704096e-8,-4.9089587e-8,2.0714286,-92.857141,-22.971435)"
       cx="100"
       cy="30.400002"
       fx="100"
       fy="30.400002"
       r="56" />
    <radialGradient
       inkscape:collect="always"
       xlink:href="#linearGradient4965-8"
       id="radialGradient4923"
       gradientUnits="userSpaceOnUse"
       gradientTransform="matrix(3.4133334,5.5466666e-8,-5.2629379e-8,2.8444444,-154.45333,-118.04445)"
       cx="64"
       cy="64"
       fx="64"
       fy="64"
       r="56.25" />
    <radialGradient
       inkscape:collect="always"
       xlink:href="#linearGradient4835"
       id="radialGradient4925"
       gradientUnits="userSpaceOnUse"
       gradientTransform="matrix(2.2012869,0.00495237,-0.00429073,1.9071934,-115.14505,-31.814677)"
       cx="96"
       cy="41.600002"
       fx="96"
       fy="41.600002"
       r="56" />
    <radialGradient
       inkscape:collect="always"
       xlink:href="#linearGradient4965-8"
       id="radialGradient4927"
       gradientUnits="userSpaceOnUse"
       gradientTransform="matrix(1.857143,-1.5736465e-8,3.3571429e-8,1.6428572,-54.85715,-41.142856)"
       cx="64"
       cy="64"
       fx="64"
       fy="64"
       r="56" />
    <radialGradient
       inkscape:collect="always"
       xlink:href="#linearGradient4216-1"
       id="radialGradient4929"
       gradientUnits="userSpaceOnUse"
       gradientTransform="matrix(2.6530612,-2.6139392e-7,1.7981853e-7,2.3142857,-147.18366,-46.67427)"
       cx="88"
       cy="41.600002"
       fx="88"
       fy="41.600002"
       r="56" />
    <radialGradient
       inkscape:collect="always"
       xlink:href="#linearGradient4807"
       id="radialGradient4931"
       gradientUnits="userSpaceOnUse"
       gradientTransform="matrix(1,0,0,0.99984512,-8,84.150437)"
       cx="72"
       cy="976.36298"
       fx="72"
       fy="976.36298"
       r="48.007445" />
    <radialGradient
       inkscape:collect="always"
       xlink:href="#linearGradient4216-1"
       id="radialGradient5031"
       gradientUnits="userSpaceOnUse"
       gradientTransform="matrix(0.72701241,-7.3903134e-8,4.9275268e-8,0.65431119,101.84482,970.4965)"
       cx="88"
       cy="41.600002"
       fx="88"
       fy="41.600002"
       r="56" />
    <radialGradient
       inkscape:collect="always"
       xlink:href="#linearGradient4216-1"
       id="radialGradient5033"
       gradientUnits="userSpaceOnUse"
       gradientTransform="matrix(0.67508296,6.651282e-8,4.5755607e-8,-0.58888006,105.9784,1029.9487)"
       cx="88"
       cy="41.600002"
       fx="88"
       fy="41.600002"
       r="56" />
    <radialGradient
       inkscape:collect="always"
       xlink:href="#linearGradient4817"
       id="radialGradient5035"
       gradientUnits="userSpaceOnUse"
       gradientTransform="matrix(0.49073338,1.1629606e-8,-1.2491059e-8,0.52708402,119.80203,979.65685)"
       cx="100"
       cy="30.400002"
       fx="100"
       fy="30.400002"
       r="56" />
    <radialGradient
       inkscape:collect="always"
       xlink:href="#linearGradient4965-8"
       id="radialGradient5037"
       gradientUnits="userSpaceOnUse"
       gradientTransform="matrix(0.86853753,1.4113734e-8,-1.3391774e-8,0.72378125,104.12861,955.46511)"
       cx="64"
       cy="64"
       fx="64"
       fy="64"
       r="56.25" />
    <radialGradient
       inkscape:collect="always"
       xlink:href="#linearGradient4835"
       id="radialGradient5039"
       gradientUnits="userSpaceOnUse"
       gradientTransform="matrix(0.56012703,0.00126015,-0.00109179,0.48529366,114.13077,977.40665)"
       cx="96"
       cy="41.600002"
       fx="96"
       fy="41.600002"
       r="56" />
    <radialGradient
       inkscape:collect="always"
       xlink:href="#linearGradient4965-8"
       id="radialGradient5041"
       gradientUnits="userSpaceOnUse"
       gradientTransform="matrix(0.47255811,0,0,0.41803216,129.47129,975.03305)"
       cx="64"
       cy="64"
       fx="64"
       fy="64"
       r="56" />
    <radialGradient
       inkscape:collect="always"
       xlink:href="#linearGradient4216-1"
       id="radialGradient5043"
       gradientUnits="userSpaceOnUse"
       gradientTransform="matrix(0.67508296,-6.651282e-8,4.5755607e-8,0.58888006,105.97841,973.62556)"
       cx="88"
       cy="41.600002"
       fx="88"
       fy="41.600002"
       r="56" />
    <radialGradient
       inkscape:collect="always"
       xlink:href="#linearGradient4807"
       id="radialGradient5045"
       gradientUnits="userSpaceOnUse"
       gradientTransform="matrix(0.25445435,0,0,0.25441494,146.9799,762.0248)"
       cx="72"
       cy="976.36298"
       fx="72"
       fy="976.36298"
       r="48.007445" />
    <radialGradient
       inkscape:collect="always"
       xlink:href="#linearGradient4807"
       id="radialGradient5161"
       cx="157.18182"
       cy="119"
       fx="157.18182"
       fy="119"
       r="2.5"
       gradientTransform="matrix(2.2,0,0,2,-187.8,-120)"
       gradientUnits="userSpaceOnUse" />
  </defs>
  <sodipodi:namedview
     id="base"
     pagecolor="#ffffff"
     bordercolor="#666666"
     borderopacity="1.0"
     inkscape:pageopacity="0.0"
     inkscape:pageshadow="2"
     inkscape:zoom="2.0660776"
     inkscape:cx="82.891346"
     inkscape:cy="74.889926"
     inkscape:document-units="px"
     inkscape:current-layer="layer1"
     showgrid="true"
     inkscape:window-width="1920"
     inkscape:window-height="1028"
     inkscape:window-x="-8"
     inkscape:window-y="-8"
     inkscape:window-maximized="1"
     showguides="true"
     inkscape:guide-bbox="true">
    <inkscape:grid
       type="xygrid"
       id="grid2985"
       empspacing="2"
       visible="true"
       enabled="true"
       snapvisiblegridlinesonly="true" />
  </sodipodi:namedview>
  <metadata
     id="metadata7">
    <rdf:RDF>
      <cc:Work
         rdf:about="">
        <dc:format>image/svg+xml</dc:format>
        <dc:type
           rdf:resource="http://purl.org/dc/dcmitype/StillImage" />
        <dc:title />
      </cc:Work>
    </rdf:RDF>
  </metadata>
  <g
     inkscape:label="Layer 1"
     inkscape:groupmode="layer"
     id="layer1"
     transform="translate(0,-924.36218)">
    <path
       style="fill:#000000;fill-opacity:1;stroke:#000000;opacity:0.5"
       d="M 148 68.90625 C 147.50523 68.90625 147.125 69.286478 147.125 69.78125 L 147.125 70.6875 L 147.125 74.25 L 147.125 77.84375 L 147.125 81.40625 L 147.125 85.875 C 147.125 86.369772 147.50523 86.75 148 86.75 L 153.875 86.75 L 151.375 89.25 C 151.12435 89.4981 151.05218 89.89315 151.1875 90.21875 C 151.32281 90.54445 151.64737 90.78385 152 90.78125 L 171.65625 90.78125 C 171.77315 90.78125 171.89436 90.734697 172 90.6875 C 172.21129 90.593106 172.37435 90.430044 172.46875 90.21875 C 172.51595 90.113103 172.56248 89.9919 172.5625 89.875 L 172.5625 86.3125 C 172.56246 86.013056 172.37329 85.726724 172.125 85.5625 L 172.125 77.84375 L 172.125 74.25 L 172.125 69.78125 C 172.125 69.286478 171.71352 68.90625 171.21875 68.90625 L 148 68.90625 z "
       transform="translate(0,924.36218)"
       id="rect5049" />
    <path
       id="path5109"
       transform="translate(0,924.36218)"
       d="M 148 68.90625 C 147.50523 68.90625 147.125 69.286478 147.125 69.78125 L 147.125 70.6875 L 147.125 74.25 L 147.125 77.84375 L 147.125 81.40625 L 147.125 85.875 C 147.125 86.369772 147.50523 86.75 148 86.75 L 153.875 86.75 L 151.375 89.25 C 151.12435 89.4981 151.05218 89.89315 151.1875 90.21875 C 151.32281 90.54445 151.64737 90.78385 152 90.78125 L 171.65625 90.78125 C 171.77315 90.78125 171.89436 90.734697 172 90.6875 C 172.21129 90.593106 172.37435 90.430044 172.46875 90.21875 C 172.51595 90.113103 172.56248 89.9919 172.5625 89.875 L 172.5625 86.3125 C 172.56246 86.013056 172.37329 85.726724 172.125 85.5625 L 172.125 77.84375 L 172.125 74.25 L 172.125 69.78125 C 172.125 69.286478 171.71352 68.90625 171.21875 68.90625 L 148 68.90625 z "
       style="fill:#000000;fill-opacity:1;stroke:#000000;opacity:0.25000000000000000;stroke-width:2;stroke-miterlimit:4;stroke-dasharray:none" />
    <path
       style="fill:#000000;fill-opacity:1;stroke:#000000;opacity:0.25000000000000000;stroke-width:3;stroke-miterlimit:4;stroke-dasharray:none"
       d="M 148 68.90625 C 147.50523 68.90625 147.125 69.286478 147.125 69.78125 L 147.125 70.6875 L 147.125 74.25 L 147.125 77.84375 L 147.125 81.40625 L 147.125 85.875 C 147.125 86.369772 147.50523 86.75 148 86.75 L 153.875 86.75 L 151.375 89.25 C 151.12435 89.4981 151.05218 89.89315 151.1875 90.21875 C 151.32281 90.54445 151.64737 90.78385 152 90.78125 L 171.65625 90.78125 C 171.77315 90.78125 171.89436 90.734697 172 90.6875 C 172.21129 90.593106 172.37435 90.430044 172.46875 90.21875 C 172.51595 90.113103 172.56248 89.9919 172.5625 89.875 L 172.5625 86.3125 C 172.56246 86.013056 172.37329 85.726724 172.125 85.5625 L 172.125 77.84375 L 172.125 74.25 L 172.125 69.78125 C 172.125 69.286478 171.71352 68.90625 171.21875 68.90625 L 148 68.90625 z "
       transform="translate(0,924.36218)"
       id="path5111" />
    <rect
       rx="8"
       ry="8"
       y="950.36218"
       x="8"
       height="80"
       width="112"
       id="rect4742"
       style="fill:#000000;fill-opacity:1;stroke:none;filter:url(#filter4764)" />
    <rect
       style="fill:url(#radialGradient4740);fill-opacity:1;stroke:none"
       id="rect4732"
       width="112"
       height="80"
       x="8"
       y="24"
       transform="translate(0,924.36218)"
       ry="4"
       rx="4" />
    <path
       id="path4907"
       transform="matrix(-1,0,0,-1,128.53125,1052.3622)"
       d="m 20,32 0.53125,4.00002 44,28 44,-28 L 108,32 z"
       style="fill:#000000;fill-opacity:1;stroke:none;filter:url(#filter4909)"
       inkscape:connector-curvature="0"
       inkscape:transform-center-y="12.000015"
       sodipodi:nodetypes="cccccc" />
    <path
       sodipodi:nodetypes="sscccsss"
       inkscape:connector-curvature="0"
       id="path4903"
       d="m 15.71874,1024.3622 c -2.05771,0 -3.71875,-1.5994 -3.71875,-3.5938 l 0,-4.1562 L 64,988.36218 l 52.00001,27.18752 0,5.2187 c 0,1.9944 -1.6611,3.5938 -3.7188,3.5938 z"
       style="fill:url(#radialGradient4905);fill-opacity:1;stroke:none"
       inkscape:transform-center-y="14.000005" />
    <path
       style="fill:url(#radialGradient4833);fill-opacity:1;stroke:url(#radialGradient4851);stroke-width:0.50000000000000000;stroke-miterlimit:4;stroke-dasharray:none"
       d="M 16 24 L 8 32 L 8 48 L 12 44 L 12 32 C 12 29.784 13.784 28 16 28 L 28 28 L 32 24 L 16 24 z M 48 24 L 44 28 L 60 28 L 64 24 L 48 24 z M 80 24 L 76 28 L 92 28 L 96 24 L 80 24 z M 112 24 L 108 28 L 112 28 C 114.216 28 116 29.784 116 32 L 116 36 L 120 32 L 120 28 C 120 25.784 118.216 24 116 24 L 112 24 z M 120 48 L 116 52 L 116 68 L 120 64 L 120 48 z M 12 60 L 8 64 L 8 80 L 12 76 L 12 60 z M 120 80 L 116 84 L 116 96 C 116 98.216 114.216 100 112 100 L 100 100 L 96 104 L 112 104 L 120 96 L 120 80 z M 12 92 L 8 96 L 8 100 C 8 102.216 9.784 104 12 104 L 16 104 L 20 100 L 16 100 C 13.784 100 12 98.216 12 96 L 12 92 z M 36 100 L 32 104 L 48 104 L 52 100 L 36 100 z M 68 100 L 64 104 L 80 104 L 84 100 L 68 100 z "
       transform="translate(0,924.36218)"
       id="rect4768" />
    <path
       style="fill:url(#radialGradient4841);stroke:url(#radialGradient4859);stroke-width:1px;stroke-linecap:butt;stroke-linejoin:miter;stroke-opacity:1;fill-opacity:1"
       d="M 12 24 C 9.784 24 8 25.784 8 28 L 8 32 L 16 24 L 12 24 z M 32 24 L 28 28 L 44 28 L 48 24 L 32 24 z M 64 24 L 60 28 L 76 28 L 80 24 L 64 24 z M 96 24 L 92 28 L 108 28 L 112 24 L 96 24 z M 120 32 L 116 36 L 116 52 L 120 48 L 120 32 z M 12 44 L 8 48 L 8 64 L 12 60 L 12 44 z M 120 64 L 116 68 L 116 84 L 120 80 L 120 64 z M 12 76 L 8 80 L 8 96 L 12 92 L 12 76 z M 120 96 L 112 104 L 116 104 C 118.216 104 120 102.216 120 100 L 120 96 z M 20 100 L 16 104 L 32 104 L 36 100 L 20 100 z M 52 100 L 48 104 L 64 104 L 68 100 L 52 100 z M 84 100 L 80 104 L 96 104 L 100 100 L 84 100 z "
       transform="translate(0,924.36218)"
       id="path4811" />
    <path
       style="fill:#000000;fill-opacity:1;stroke:none;filter:url(#filter4890)"
       d="M 20,32 15.21875,38 64,80 113.3125,38.625 108,32 z"
       transform="translate(0,924.36218)"
       id="path4868"
       inkscape:connector-curvature="0"
       sodipodi:nodetypes="cccccc" />
    <path
       style="fill:url(#radialGradient4863);fill-opacity:1;stroke:none"
       d="M 15.71875,28 C 13.661036,28 12,29.59935 12,31.59375 L 12,35.75 64,80 116,36.8125 116,31.59375 C 116,29.59935 114.33896,28 112.28125,28 z"
       transform="translate(0,924.36218)"
       id="rect4861"
       inkscape:connector-curvature="0"
       sodipodi:nodetypes="sscccsss" />
    <rect
       ry="0"
       rx="4.6539506e-07"
       y="924.36218"
       x="136"
       height="32.000004"
       width="32"
       id="rect6882"
       style="fill:none;stroke:none" />
    <text
       xml:space="preserve"
       style="font-size:24px;font-style:normal;font-weight:normal;line-height:125%;letter-spacing:0px;word-spacing:0px;fill:#000000;fill-opacity:1;stroke:none;font-family:Sans"
       x="-56"
       y="948.36218"
       id="text5893"
       sodipodi:linespacing="125%"><tspan
         sodipodi:role="line"
         id="tspan5895"
         x="-56"
         y="948.36218">128</tspan></text>
    <text
       xml:space="preserve"
       style="font-size:16px;font-style:normal;font-weight:normal;line-height:125%;letter-spacing:0px;word-spacing:0px;fill:#000000;fill-opacity:1;stroke:none;font-family:Sans"
       x="200"
       y="940.36218"
       id="text5897"
       sodipodi:linespacing="125%"><tspan
         sodipodi:role="line"
         id="tspan5899"
         x="200"
         y="940.36218">48 - 32</tspan></text>
    <text
       sodipodi:linespacing="125%"
       id="text5901"
       y="1000.3622"
       x="184"
       style="font-size:16px;font-style:normal;font-weight:normal;line-height:125%;letter-spacing:0px;word-spacing:0px;fill:#000000;fill-opacity:1;stroke:none;font-family:Sans"
       xml:space="preserve"><tspan
         y="1000.3622"
         x="184"
         id="tspan5903"
         sodipodi:role="line">31 - 17</tspan></text>
    <text
       xml:space="preserve"
       style="font-size:16px;font-style:normal;font-weight:normal;line-height:125%;letter-spacing:0px;word-spacing:0px;fill:#000000;fill-opacity:1;stroke:none;font-family:Sans"
       x="172"
       y="1048.3622"
       id="text5905"
       sodipodi:linespacing="125%"><tspan
         sodipodi:role="line"
         id="tspan5907"
         x="172"
         y="1048.3622">16</tspan></text>
    <rect
       style="fill:none;stroke:#000000"
       id="rect5917"
       width="56"
       height="56"
       x="140"
       y="920.36218"
       rx="4.5902016e-07" />
    <rect
       style="fill:none;stroke:#000000;stroke-width:1;stroke-linecap:round;stroke-linejoin:round;stroke-miterlimit:4;stroke-opacity:1;stroke-dasharray:none;stroke-dashoffset:0"
       id="rect5919"
       width="40"
       height="40"
       x="140"
       y="984.36218"
       rx="4.5902016e-07" />
    <rect
       style="fill:none;stroke:#000000;stroke-width:1;stroke-linecap:round;stroke-linejoin:round;stroke-miterlimit:4;stroke-opacity:1;stroke-dasharray:none;stroke-dashoffset:0"
       id="rect5921"
       width="24"
       height="24"
       x="140"
       y="1032.3622"
       rx="4.5902016e-07" />
    <rect
       style="fill:#b3b3b3;stroke:none"
       id="rect6931"
       width="48"
       height="4"
       x="144"
       y="916.36218"
       rx="4.5902016e-07" />
    <rect
       style="fill:#b3b3b3;fill-opacity:1;stroke:none"
       id="rect6933"
       width="4"
       height="48"
       x="136"
       y="924.36218"
       rx="4.5902016e-07" />
    <rect
       style="fill:#b3b3b3;fill-opacity:1;stroke:none"
       id="rect6935"
       width="32"
       height="4"
       x="144"
       y="980.36218"
       rx="4.5902016e-07" />
    <rect
       style="fill:#b3b3b3;fill-opacity:1;stroke:none"
       id="rect6937"
       width="4"
       height="32"
       x="136"
       y="988.36218"
       rx="4.5902016e-07" />
    <rect
       style="fill:#b3b3b3;fill-opacity:1;stroke:none"
       id="rect6939"
       width="16"
       height="4"
       x="144"
       y="1028.3622"
       rx="4.5902016e-07" />
    <rect
       style="fill:#b3b3b3;fill-opacity:1;stroke:none"
       id="rect6941"
       width="4"
       height="16"
       x="136"
       y="1036.3622"
       rx="4.5902016e-07" />
    <rect
       style="fill:#333333;fill-opacity:1;stroke:none"
       id="rect4719"
       width="16"
       height="12"
       x="144"
       y="114"
       transform="translate(0,924.36218)"
       rx="1"
       ry="1" />
    <rect
       style="fill:url(#radialGradient4752);fill-opacity:1;stroke:none"
       id="rect4733"
       width="14"
       height="10"
       x="145"
       y="115"
       transform="translate(0,924.36218)"
       rx="0"
       ry="0" />
    <path
       style="fill:url(#radialGradient4744);stroke:none;stroke-width:1px;stroke-linecap:butt;stroke-linejoin:miter;stroke-opacity:1;fill-opacity:1"
       d="M 145 115 L 145 117 L 153 125 L 155 125 L 145 115 z M 147 115 L 157 125 L 159 125 L 149 115 L 147 115 z M 151 115 L 159 123 L 159 121 L 153 115 L 151 115 z M 155 115 L 159 119 L 159 117 L 157 115 L 155 115 z M 145 119 L 145 121 L 149 125 L 151 125 L 145 119 z M 145 123 L 145 125 L 147 125 L 145 123 z "
       transform="translate(0,924.36218)"
       id="path4721" />
    <rect
       style="fill:url(#radialGradient4762);fill-opacity:1;stroke:none"
       id="rect4754"
       width="12"
       height="8"
       x="146"
       y="116"
       transform="translate(0,924.36218)" />
    <path
       style="fill:#808080;stroke:none;stroke-width:1px;stroke-linecap:butt;stroke-linejoin:miter;stroke-opacity:1"
       d="m 146,117 6,5 6,-5 0,-1 -6,5 -6,-5 z"
       id="path4764"
       inkscape:connector-curvature="0"
       transform="translate(0,924.36218)" />
    <g
       id="g4872"
       transform="translate(21.9513,-38.048822)">
      <path
         style="font-size:medium;font-style:normal;font-variant:normal;font-weight:normal;font-stretch:normal;text-indent:0;text-align:start;text-decoration:none;line-height:normal;letter-spacing:normal;word-spacing:normal;text-transform:none;direction:ltr;block-progression:tb;writing-mode:lr-tb;text-anchor:start;baseline-shift:baseline;color:#000000;fill:#000000;fill-opacity:1;stroke:none;stroke-width:2;marker:none;visibility:visible;display:inline;overflow:visible;filter:url(#filter4868);enable-background:accumulate;font-family:Sans;-inkscape-font-specification:Sans"
         d="m 47.875,1036.3622 c -1.008391,0.024 -2.001901,0.4466 -2.71875,1.1562 l -40,40 c -1.122641,1.111 -1.486341,2.92 -0.880291,4.3785 0.606049,1.4585 2.144667,2.4771 3.724041,2.4653 l 88,0 c 2.09434,-2e-4 3.99979,-1.9057 4,-4 l 0,-16 c -2.1e-4,-2.0944 -1.90566,-3.9998 -4,-4 l -44,0 0,-20 c 8.23e-4,-2.1367 -1.989378,-4.0666 -4.125,-4 z"
         id="path4826"
         inkscape:connector-curvature="0"
         sodipodi:nodetypes="cccscccccccc" />
      <path
         sodipodi:nodetypes="cccscccccccc"
         inkscape:connector-curvature="0"
         id="path4785"
         d="m 47.875,1036.3622 c -1.008391,0.024 -2.001901,0.4466 -2.71875,1.1562 l -40,40 c -1.122641,1.111 -1.486341,2.92 -0.880291,4.3785 0.606049,1.4585 2.144667,2.4771 3.724041,2.4653 l 88,0 c 2.09434,-2e-4 3.99979,-1.9057 4,-4 l 0,-16 c -2.1e-4,-2.0944 -1.90566,-3.9998 -4,-4 l -44,0 0,-20 c 8.23e-4,-2.1367 -1.989378,-4.0666 -4.125,-4 z"
         style="font-size:medium;font-style:normal;font-variant:normal;font-weight:normal;font-stretch:normal;text-indent:0;text-align:start;text-decoration:none;line-height:normal;letter-spacing:normal;word-spacing:normal;text-transform:none;direction:ltr;block-progression:tb;writing-mode:lr-tb;text-anchor:start;baseline-shift:baseline;color:#000000;fill:url(#radialGradient4877);fill-opacity:1;stroke:none;stroke-width:2;marker:none;visibility:visible;display:inline;overflow:visible;enable-background:accumulate;font-family:Sans;-inkscape-font-specification:Sans" />
      <path
         style="font-size:medium;font-style:normal;font-variant:normal;font-weight:normal;font-stretch:normal;text-indent:0;text-align:start;text-decoration:none;line-height:normal;letter-spacing:normal;word-spacing:normal;text-transform:none;direction:ltr;block-progression:tb;writing-mode:lr-tb;text-anchor:start;baseline-shift:baseline;opacity:0.25;color:#000000;fill:none;stroke:#000000;stroke-width:4;stroke-miterlimit:4;stroke-opacity:1;stroke-dasharray:none;marker:none;visibility:visible;display:inline;overflow:visible;enable-background:accumulate;font-family:Sans;-inkscape-font-specification:Sans"
         d="m 47.875,1036.3622 c -1.008391,0.024 -2.001901,0.4466 -2.71875,1.1562 l -40,40 c -1.122641,1.111 -1.486341,2.92 -0.880291,4.3785 0.606049,1.4585 2.144667,2.4771 3.724041,2.4653 l 88,0 c 2.09434,-2e-4 3.99979,-1.9057 4,-4 l 0,-16 c -2.1e-4,-2.0944 -1.90566,-3.9998 -4,-4 l -44,0 0,-20 c 8.23e-4,-2.1367 -1.989378,-4.0666 -4.125,-4 z"
         id="path4824"
         inkscape:connector-curvature="0"
         sodipodi:nodetypes="cccscccccccc" />
    </g>
    <g
       id="g4903"
       transform="matrix(0.38168152,0,0,0.38168152,143.1449,567.25999)">
      <rect
         rx="8"
         ry="8"
         y="950.36218"
         x="8"
         height="80"
         width="112"
         id="rect4879"
         style="fill:#000000;fill-opacity:1;stroke:none;filter:url(#filter4764)" />
      <rect
         style="fill:url(#radialGradient4917);fill-opacity:1;stroke:none"
         id="rect4881"
         width="112"
         height="80"
         x="8"
         y="24"
         transform="translate(0,924.36218)"
         ry="4"
         rx="4" />
      <path
         id="path4883"
         transform="matrix(-1,0,0,-1,128.53125,1052.3622)"
         d="m 20,32 0.53125,4.00002 44,28 44,-28 L 108,32 z"
         style="fill:#000000;fill-opacity:1;stroke:none;filter:url(#filter4909)"
         inkscape:connector-curvature="0"
         inkscape:transform-center-y="12.000015"
         sodipodi:nodetypes="cccccc" />
      <path
         sodipodi:nodetypes="sscccsss"
         inkscape:connector-curvature="0"
         id="path4885"
         d="m 15.71874,1024.3622 c -2.05771,0 -3.71875,-1.5994 -3.71875,-3.5938 l 0,-4.1562 L 64,988.36218 l 52.00001,27.18752 0,5.2187 c 0,1.9944 -1.6611,3.5938 -3.7188,3.5938 z"
         style="fill:url(#radialGradient4919);fill-opacity:1;stroke:none"
         inkscape:transform-center-y="14.000005" />
      <path
         style="fill:url(#radialGradient4921);fill-opacity:1;stroke:url(#radialGradient4923);stroke-width:0.5;stroke-miterlimit:4;stroke-dasharray:none"
         d="m 16,24 -8,8 0,16 4,-4 0,-12 c 0,-2.216 1.784,-4 4,-4 l 12,0 4,-4 -16,0 z m 32,0 -4,4 16,0 4,-4 -16,0 z m 32,0 -4,4 16,0 4,-4 -16,0 z m 32,0 -4,4 4,0 c 2.216,0 4,1.784 4,4 l 0,4 4,-4 0,-4 c 0,-2.216 -1.784,-4 -4,-4 l -4,0 z m 8,24 -4,4 0,16 4,-4 0,-16 z M 12,60 8,64 8,80 12,76 12,60 z m 108,20 -4,4 0,12 c 0,2.216 -1.784,4 -4,4 l -12,0 -4,4 16,0 8,-8 0,-16 z m -108,12 -4,4 0,4 c 0,2.216 1.784,4 4,4 l 4,0 4,-4 -4,0 c -2.216,0 -4,-1.784 -4,-4 l 0,-4 z m 24,8 -4,4 16,0 4,-4 -16,0 z m 32,0 -4,4 16,0 4,-4 -16,0 z"
         transform="translate(0,924.36218)"
         id="path4887"
         inkscape:connector-curvature="0" />
      <path
         style="fill:url(#radialGradient4925);fill-opacity:1;stroke:url(#radialGradient4927);stroke-width:1px;stroke-linecap:butt;stroke-linejoin:miter;stroke-opacity:1"
         d="m 12,24 c -2.216,0 -4,1.784 -4,4 l 0,4 8,-8 -4,0 z m 20,0 -4,4 16,0 4,-4 -16,0 z m 32,0 -4,4 16,0 4,-4 -16,0 z m 32,0 -4,4 16,0 4,-4 -16,0 z m 24,8 -4,4 0,16 4,-4 0,-16 z M 12,44 8,48 8,64 12,60 12,44 z m 108,20 -4,4 0,16 4,-4 0,-16 z M 12,76 8,80 8,96 12,92 12,76 z m 108,20 -8,8 4,0 c 2.216,0 4,-1.784 4,-4 l 0,-4 z m -100,4 -4,4 16,0 4,-4 -16,0 z m 32,0 -4,4 16,0 4,-4 -16,0 z m 32,0 -4,4 16,0 4,-4 -16,0 z"
         transform="translate(0,924.36218)"
         id="path4889"
         inkscape:connector-curvature="0" />
      <path
         style="fill:#000000;fill-opacity:1;stroke:none;filter:url(#filter4890)"
         d="M 20,32 15.21875,38 64,80 113.3125,38.625 108,32 z"
         transform="translate(0,924.36218)"
         id="path4891"
         inkscape:connector-curvature="0"
         sodipodi:nodetypes="cccccc" />
      <path
         style="fill:url(#radialGradient4929);fill-opacity:1;stroke:none"
         d="M 15.71875,28 C 13.661036,28 12,29.59935 12,31.59375 L 12,35.75 64,80 116,36.8125 116,31.59375 C 116,29.59935 114.33896,28 112.28125,28 z"
         transform="translate(0,924.36218)"
         id="path4893"
         inkscape:connector-curvature="0"
         sodipodi:nodetypes="sscccsss" />
      <g
         id="g4895"
         transform="translate(21.9513,-38.048822)">
        <path
           style="font-size:medium;font-style:normal;font-variant:normal;font-weight:normal;font-stretch:normal;text-indent:0;text-align:start;text-decoration:none;line-height:normal;letter-spacing:normal;word-spacing:normal;text-transform:none;direction:ltr;block-progression:tb;writing-mode:lr-tb;text-anchor:start;baseline-shift:baseline;color:#000000;fill:#000000;fill-opacity:1;stroke:none;stroke-width:2;marker:none;visibility:visible;display:inline;overflow:visible;filter:url(#filter4868);enable-background:accumulate;font-family:Sans;-inkscape-font-specification:Sans"
           d="m 47.875,1036.3622 c -1.008391,0.024 -2.001901,0.4466 -2.71875,1.1562 l -40,40 c -1.122641,1.111 -1.486341,2.92 -0.880291,4.3785 0.606049,1.4585 2.144667,2.4771 3.724041,2.4653 l 88,0 c 2.09434,-2e-4 3.99979,-1.9057 4,-4 l 0,-16 c -2.1e-4,-2.0944 -1.90566,-3.9998 -4,-4 l -44,0 0,-20 c 8.23e-4,-2.1367 -1.989378,-4.0666 -4.125,-4 z"
           id="path4897"
           inkscape:connector-curvature="0"
           sodipodi:nodetypes="cccscccccccc" />
        <path
           sodipodi:nodetypes="cccscccccccc"
           inkscape:connector-curvature="0"
           id="path4899"
           d="m 47.875,1036.3622 c -1.008391,0.024 -2.001901,0.4466 -2.71875,1.1562 l -40,40 c -1.122641,1.111 -1.486341,2.92 -0.880291,4.3785 0.606049,1.4585 2.144667,2.4771 3.724041,2.4653 l 88,0 c 2.09434,-2e-4 3.99979,-1.9057 4,-4 l 0,-16 c -2.1e-4,-2.0944 -1.90566,-3.9998 -4,-4 l -44,0 0,-20 c 8.23e-4,-2.1367 -1.989378,-4.0666 -4.125,-4 z"
           style="font-size:medium;font-style:normal;font-variant:normal;font-weight:normal;font-stretch:normal;text-indent:0;text-align:start;text-decoration:none;line-height:normal;letter-spacing:normal;word-spacing:normal;text-transform:none;direction:ltr;block-progression:tb;writing-mode:lr-tb;text-anchor:start;baseline-shift:baseline;color:#000000;fill:url(#radialGradient4931);fill-opacity:1;stroke:none;stroke-width:2;marker:none;visibility:visible;display:inline;overflow:visible;enable-background:accumulate;font-family:Sans;-inkscape-font-specification:Sans" />
        <path
           style="font-size:medium;font-style:normal;font-variant:normal;font-weight:normal;font-stretch:normal;text-indent:0;text-align:start;text-decoration:none;line-height:normal;letter-spacing:normal;word-spacing:normal;text-transform:none;direction:ltr;block-progression:tb;writing-mode:lr-tb;text-anchor:start;baseline-shift:baseline;opacity:0.25;color:#000000;fill:none;stroke:#000000;stroke-width:4;stroke-miterlimit:4;stroke-opacity:1;stroke-dasharray:none;marker:none;visibility:visible;display:inline;overflow:visible;enable-background:accumulate;font-family:Sans;-inkscape-font-specification:Sans"
           d="m 47.875,1036.3622 c -1.008391,0.024 -2.001901,0.4466 -2.71875,1.1562 l -40,40 c -1.122641,1.111 -1.486341,2.92 -0.880291,4.3785 0.606049,1.4585 2.144667,2.4771 3.724041,2.4653 l 88,0 c 2.09434,-2e-4 3.99979,-1.9057 4,-4 l 0,-16 c -2.1e-4,-2.0944 -1.90566,-3.9998 -4,-4 l -44,0 0,-20 c 8.23e-4,-2.1367 -1.989378,-4.0666 -4.125,-4 z"
           id="path4901"
           inkscape:connector-curvature="0"
           sodipodi:nodetypes="cccscccccccc" />
      </g>
    </g>
    <g
       id="g5020"
       transform="matrix(0.87745684,0,0,0.87745684,19.471684,123.16578)">
      <rect
         style="fill:url(#radialGradient5031);fill-opacity:1;stroke:none"
         id="rect4935"
         width="28.498888"
         height="20.356348"
         x="145.46556"
         y="991.60895"
         ry="1.0178174"
         rx="1.0178174" />
      <path
         id="path4937"
         transform="matrix(-0.25445435,0,0,-0.25445435,176.13527,1018.0722)"
         d="m 20,32 0.53125,4.00002 44,28 44,-28 L 108,32 z"
         style="fill:#000000;fill-opacity:1;stroke:none;filter:url(#filter4909)"
         inkscape:connector-curvature="0"
         inkscape:transform-center-y="12.000015"
         sodipodi:nodetypes="cccccc" />
      <path
         sodipodi:nodetypes="sscccsss"
         inkscape:connector-curvature="0"
         id="path4939"
         d="m 147.42963,1010.9475 c -0.52359,0 -0.94625,-0.407 -0.94625,-0.9145 l 0,-1.0576 13.23163,-7.1883 13.23163,6.918 0,1.3279 c 0,0.5075 -0.42268,0.9145 -0.94627,0.9145 z"
         style="fill:url(#radialGradient5033);fill-opacity:1;stroke:none"
         inkscape:transform-center-y="14.000005" />
      <path
         style="fill:url(#radialGradient5035);fill-opacity:1;stroke:url(#radialGradient5037);stroke-width:0.12722717;stroke-miterlimit:4;stroke-dasharray:none"
         d="m 147.5012,991.60893 -2.03564,2.03564 0,4.07127 1.01782,-1.01782 0,-3.05345 c 0,-0.56387 0.45395,-1.01782 1.01782,-1.01782 l 3.05345,0 1.01782,-1.01782 -4.07127,0 z m 8.14254,0 -1.01782,1.01782 4.07127,0 1.01782,-1.01782 -4.07127,0 z m 8.14254,0 -1.01782,1.01782 4.07127,0 1.01782,-1.01782 -4.07127,0 z m 8.14254,0 -1.01782,1.01782 1.01782,0 c 0.56387,0 1.01781,0.45395 1.01781,1.01782 l 0,1.01782 1.01782,-1.01782 0,-1.01782 c 0,-0.56387 -0.45394,-1.01782 -1.01782,-1.01782 l -1.01781,0 z m 2.03563,6.10691 -1.01782,1.01782 0,4.07124 1.01782,-1.0178 0,-4.07126 z m -27.48107,3.05346 -1.01782,1.0178 0,4.0713 1.01782,-1.0178 0,-4.0713 z m 27.48107,5.0891 -1.01782,1.0178 0,3.0534 c 0,0.5639 -0.45394,1.0179 -1.01781,1.0179 l -3.05345,0 -1.01782,1.0178 4.07127,0 2.03563,-2.0357 0,-4.0712 z m -27.48107,3.0534 -1.01782,1.0178 0,1.0179 c 0,0.5638 0.45395,1.0178 1.01782,1.0178 l 1.01782,0 1.01782,-1.0178 -1.01782,0 c -0.56387,0 -1.01782,-0.454 -1.01782,-1.0179 l 0,-1.0178 z m 6.10691,2.0357 -1.01782,1.0178 4.07127,0 1.01782,-1.0178 -4.07127,0 z m 8.14254,0 -1.01782,1.0178 4.07127,0 1.01782,-1.0178 -4.07127,0 z"
         id="path4941"
         inkscape:connector-curvature="0" />
      <path
         style="fill:url(#radialGradient5039);fill-opacity:1;stroke:url(#radialGradient5041);stroke-width:0.25445434px;stroke-linecap:butt;stroke-linejoin:miter;stroke-opacity:1"
         d="m 146.48338,991.60893 c -0.56387,0 -1.01782,0.45395 -1.01782,1.01782 l 0,1.01782 2.03564,-2.03564 -1.01782,0 z m 5.08909,0 -1.01782,1.01782 4.07127,0 1.01782,-1.01782 -4.07127,0 z m 8.14254,0 -1.01782,1.01782 4.07127,0 1.01782,-1.01782 -4.07127,0 z m 8.14254,0 -1.01782,1.01782 4.07127,0 1.01782,-1.01782 -4.07127,0 z m 6.1069,2.03564 -1.01782,1.01782 0,4.07127 1.01782,-1.01782 0,-4.07127 z m -27.48107,3.05345 -1.01782,1.01782 0,4.07126 1.01782,-1.0178 0,-4.07128 z m 27.48107,5.08908 -1.01782,1.0178 0,4.0713 1.01782,-1.0178 0,-4.0713 z m -27.48107,3.0535 -1.01782,1.0178 0,4.0712 1.01782,-1.0178 0,-4.0712 z m 27.48107,5.089 -2.03563,2.0357 1.01781,0 c 0.56388,0 1.01782,-0.454 1.01782,-1.0178 l 0,-1.0179 z m -25.44543,1.0179 -1.01782,1.0178 4.07127,0 1.01782,-1.0178 -4.07127,0 z m 8.14254,0 -1.01782,1.0178 4.07127,0 1.01782,-1.0178 -4.07127,0 z m 8.14254,0 -1.01782,1.0178 4.07127,0 1.01782,-1.0178 -4.07127,0 z"
         id="path4943"
         inkscape:connector-curvature="0" />
      <path
         style="fill:#000000;fill-opacity:1;stroke:none;filter:url(#filter4890)"
         d="M 20,32 15.21875,38 64,80 113.3125,38.625 108,32 z"
         transform="matrix(0.25445435,0,0,0.25445435,143.42993,985.50203)"
         id="path4945"
         inkscape:connector-curvature="0"
         sodipodi:nodetypes="cccccc" />
      <path
         style="fill:url(#radialGradient5043);fill-opacity:1;stroke:none"
         d="m 147.42963,992.62675 c -0.52359,0 -0.94625,0.40696 -0.94625,0.91445 l 0,1.05757 13.23163,11.25963 13.23162,-10.98927 0,-1.32793 c 0,-0.50749 -0.42265,-0.91445 -0.94625,-0.91445 z"
         id="path4947"
         inkscape:connector-curvature="0"
         sodipodi:nodetypes="sscccsss" />
      <path
         style="font-size:medium;font-style:normal;font-variant:normal;font-weight:normal;font-stretch:normal;text-indent:0;text-align:start;text-decoration:none;line-height:normal;letter-spacing:normal;word-spacing:normal;text-transform:none;direction:ltr;block-progression:tb;writing-mode:lr-tb;text-anchor:start;baseline-shift:baseline;color:#000000;fill:url(#radialGradient5045);fill-opacity:1;stroke:none;stroke-width:2;marker:none;visibility:visible;display:inline;overflow:visible;enable-background:accumulate;font-family:Sans;-inkscape-font-specification:Sans"
         d="m 161.19753,1004.3192 c -0.25659,0.01 -0.50939,0.1137 -0.6918,0.2942 l -10.17817,10.1782 c -0.28566,0.2827 -0.37821,0.743 -0.22399,1.1141 0.15421,0.3712 0.54572,0.6303 0.94759,0.6273 l 22.39199,0 c 0.53291,0 1.01776,-0.4849 1.01782,-1.0178 l 0,-4.0712 c -6e-5,-0.533 -0.48491,-1.0178 -1.01782,-1.0179 l -11.19599,0 0,-5.0891 c 2.1e-4,-0.5436 -0.50621,-1.0347 -1.04963,-1.0178 z"
         id="path4953"
         inkscape:connector-curvature="0"
         sodipodi:nodetypes="cccscccccccc" />
      <path
         sodipodi:nodetypes="cccscccccccc"
         inkscape:connector-curvature="0"
         id="path4955"
         d="m 161.19753,1004.3192 c -0.25659,0.01 -0.50939,0.1137 -0.6918,0.2942 l -10.17817,10.1782 c -0.28566,0.2827 -0.37821,0.743 -0.22399,1.1141 0.15421,0.3712 0.54572,0.6303 0.94759,0.6273 l 22.39199,0 c 0.53291,0 1.01776,-0.4849 1.01782,-1.0178 l 0,-4.0712 c -6e-5,-0.533 -0.48491,-1.0178 -1.01782,-1.0179 l -11.19599,0 0,-5.0891 c 2.1e-4,-0.5436 -0.50621,-1.0347 -1.04963,-1.0178 z"
         style="font-size:medium;font-style:normal;font-variant:normal;font-weight:normal;font-stretch:normal;text-indent:0;text-align:start;text-decoration:none;line-height:normal;letter-spacing:normal;word-spacing:normal;text-transform:none;direction:ltr;block-progression:tb;writing-mode:lr-tb;text-anchor:start;baseline-shift:baseline;opacity:0.25;color:#000000;fill:none;stroke:#000000;stroke-width:1.01781738;stroke-miterlimit:4;stroke-opacity:1;stroke-dasharray:none;marker:none;visibility:visible;display:inline;overflow:visible;enable-background:accumulate;font-family:Sans;-inkscape-font-specification:Sans" />
    </g>
    <path
       style="font-size:medium;font-style:normal;font-variant:normal;font-weight:normal;font-stretch:normal;text-indent:0;text-align:start;text-decoration:none;line-height:normal;letter-spacing:normal;word-spacing:normal;text-transform:none;direction:ltr;block-progression:tb;writing-mode:lr-tb;text-anchor:start;baseline-shift:baseline;opacity:0.25;color:#000000;fill:none;stroke:none;stroke-width:4;marker:none;visibility:visible;display:inline;overflow:visible;enable-background:accumulate;font-family:Sans;-inkscape-font-specification:Sans"
       d="m 159.53551,1037.6975 c -0.11193,0 -0.22221,0.05 -0.30178,0.1283 l -4.44,4.44 c -0.12461,0.1233 -0.16498,0.3241 -0.0977,0.486 0.0673,0.1619 0.23806,0.275 0.41337,0.2737 l 9.76799,0 c 0.23247,0 0.44397,-0.2116 0.444,-0.444 l 0,-1.776 c -3e-5,-0.2325 -0.21153,-0.444 -0.444,-0.444 l -4.884,0 0,-2.22 c 9e-5,-0.2372 -0.22082,-0.4514 -0.45787,-0.444 z"
       id="path5138"
       inkscape:connector-curvature="0"
       sodipodi:nodetypes="cccscccccccc" />
    <path
       style="fill:none;stroke:#333333;stroke-width:2;stroke-linecap:butt;stroke-linejoin:round;stroke-opacity:1;stroke-miterlimit:4;stroke-dasharray:none"
       d="m 159,115 -5,5 5,5 z"
       id="path5151"
       inkscape:connector-curvature="0"
       transform="translate(0,924.36218)" />
    <path
       style="fill:url(#radialGradient5161);stroke:none;stroke-width:1px;stroke-linecap:butt;stroke-linejoin:miter;stroke-opacity:1;fill-opacity:1"
       d="m 154,120 5,-5 0,10 z"
       id="path5153"
       inkscape:connector-curvature="0"
       transform="translate(0,924.36218)" />
  </g>
</svg>
