<?xml version="1.0" encoding="UTF-8" standalone="no"?>
<!-- Created with Inkscape (http://www.inkscape.org/) -->

<svg
   xmlns:dc="http://purl.org/dc/elements/1.1/"
   xmlns:cc="http://creativecommons.org/ns#"
   xmlns:rdf="http://www.w3.org/1999/02/22-rdf-syntax-ns#"
   xmlns:svg="http://www.w3.org/2000/svg"
   xmlns="http://www.w3.org/2000/svg"
   xmlns:xlink="http://www.w3.org/1999/xlink"
   xmlns:sodipodi="http://sodipodi.sourceforge.net/DTD/sodipodi-0.dtd"
   xmlns:inkscape="http://www.inkscape.org/namespaces/inkscape"
   width="128"
   height="128"
   id="svg2"
   version="1.1"
   inkscape:version="0.91 r13725"
   sodipodi:docname="mail-forward.svg">
  <defs
     id="defs4">
    <linearGradient
       id="linearGradient4807">
      <stop
         style="stop-color:#ffaa00;stop-opacity:1;"
         offset="0"
         id="stop4809" />
      <stop
         style="stop-color:#e67100;stop-opacity:1;"
         offset="1"
         id="stop4811" />
    </linearGradient>
    <linearGradient
       id="linearGradient4835">
      <stop
         style="stop-color:#cbcbff;stop-opacity:1;"
         offset="0"
         id="stop4837" />
      <stop
         style="stop-color:#6169a9;stop-opacity:1;"
         offset="1"
         id="stop4839" />
    </linearGradient>
    <linearGradient
       id="linearGradient4817">
      <stop
         style="stop-color:#ff9797;stop-opacity:1;"
         offset="0"
         id="stop4819" />
      <stop
         style="stop-color:#b30000;stop-opacity:1;"
         offset="1"
         id="stop4821" />
    </linearGradient>
    <linearGradient
       id="linearGradient4216-1">
      <stop
         style="stop-color:#ffffff;stop-opacity:1;"
         offset="0"
         id="stop4218-0" />
      <stop
         style="stop-color:#c6c6c6;stop-opacity:1;"
         offset="1"
         id="stop4220-9" />
    </linearGradient>
    <linearGradient
       id="linearGradient4965-8">
      <stop
         style="stop-color:#ffffff;stop-opacity:0.73362446;"
         offset="0"
         id="stop4967-0" />
      <stop
         style="stop-color:#ffffff;stop-opacity:0;"
         offset="1"
         id="stop4969-7" />
    </linearGradient>
    <radialGradient
       inkscape:collect="always"
       xlink:href="#linearGradient4216-1"
       id="radialGradient4740"
       cx="88"
       cy="41.600002"
       fx="88"
       fy="41.600002"
       r="56"
       gradientTransform="matrix(2.8571428,-2.9043769e-7,1.9365072e-7,2.5714286,-163.42856,-58.971408)"
       gradientUnits="userSpaceOnUse" />
    <filter
       inkscape:collect="always"
       id="filter4764">
      <feGaussianBlur
         inkscape:collect="always"
         stdDeviation="2.4"
         id="feGaussianBlur4766" />
    </filter>
    <radialGradient
       inkscape:collect="always"
       xlink:href="#linearGradient4817"
       id="radialGradient4833"
       cx="100"
       cy="30.400002"
       fx="100"
       fy="30.400002"
       r="56"
       gradientTransform="matrix(1.9285714,4.5704096e-8,-4.9089587e-8,2.0714286,-92.857141,-22.971435)"
       gradientUnits="userSpaceOnUse" />
    <radialGradient
       inkscape:collect="always"
       xlink:href="#linearGradient4835"
       id="radialGradient4841"
       cx="96"
       cy="41.600002"
       fx="96"
       fy="41.600002"
       r="56"
       gradientTransform="matrix(2.2012869,0.00495237,-0.00429073,1.9071934,-115.14505,-31.814677)"
       gradientUnits="userSpaceOnUse" />
    <radialGradient
       inkscape:collect="always"
       xlink:href="#linearGradient4965-8"
       id="radialGradient4851"
       cx="64"
       cy="64"
       fx="64"
       fy="64"
       r="56.25"
       gradientTransform="matrix(3.4133334,5.5466666e-8,-5.2629379e-8,2.8444444,-154.45333,-118.04445)"
       gradientUnits="userSpaceOnUse" />
    <radialGradient
       inkscape:collect="always"
       xlink:href="#linearGradient4965-8"
       id="radialGradient4859"
       cx="64"
       cy="64"
       fx="64"
       fy="64"
       r="56"
       gradientTransform="matrix(1.857143,-1.5736465e-8,3.3571429e-8,1.6428572,-54.85715,-41.142856)"
       gradientUnits="userSpaceOnUse" />
    <radialGradient
       inkscape:collect="always"
       xlink:href="#linearGradient4216-1"
       id="radialGradient4863"
       gradientUnits="userSpaceOnUse"
       gradientTransform="matrix(2.6530612,-2.6139392e-7,1.7981853e-7,2.3142857,-147.18366,-46.67427)"
       cx="88"
       cy="41.600002"
       fx="88"
       fy="41.600002"
       r="56" />
    <filter
       inkscape:collect="always"
       id="filter4890"
       x="-0.051230769"
       width="1.1024615"
       y="-0.12109091"
       height="1.2421818">
      <feGaussianBlur
         inkscape:collect="always"
         stdDeviation="2.22"
         id="feGaussianBlur4892" />
    </filter>
    <radialGradient
       inkscape:collect="always"
       xlink:href="#linearGradient4216-1"
       id="radialGradient4905"
       gradientUnits="userSpaceOnUse"
       gradientTransform="matrix(2.6530612,2.6139392e-7,1.7981853e-7,-2.3142857,-147.18367,1099.0365)"
       cx="88"
       cy="41.600002"
       fx="88"
       fy="41.600002"
       r="56" />
    <filter
       inkscape:collect="always"
       id="filter4909">
      <feGaussianBlur
         inkscape:collect="always"
         stdDeviation="1.3809375"
         id="feGaussianBlur4911" />
    </filter>
    <radialGradient
       inkscape:collect="always"
       xlink:href="#linearGradient4835"
       id="radialGradient4744"
       cx="156"
       cy="117.2"
       fx="156"
       fy="117.2"
       r="7"
       gradientTransform="matrix(1.7142857,1.0794005e-6,-1.0794002e-6,1.7142853,-111.42845,-82.914405)"
       gradientUnits="userSpaceOnUse" />
    <radialGradient
       inkscape:collect="always"
       xlink:href="#linearGradient4817"
       id="radialGradient4752"
       cx="153.75"
       cy="119"
       fx="153.75"
       fy="119"
       r="7"
       gradientTransform="matrix(1.7142864,8.0103721e-7,-9.3454321e-7,2.0000003,-108.57143,-120.00016)"
       gradientUnits="userSpaceOnUse" />
    <radialGradient
       inkscape:collect="always"
       xlink:href="#linearGradient4216-1"
       id="radialGradient4762"
       cx="152.81818"
       cy="119.36842"
       fx="152.81818"
       fy="119.36842"
       r="6"
       gradientTransform="matrix(3.6666667,8.0701793e-8,-6.9697015e-8,3.166667,-405.33333,-260.00006)"
       gradientUnits="userSpaceOnUse" />
    <filter
       inkscape:collect="always"
       id="filter4868"
       x="-0.06299752"
       width="1.125995"
       y="-0.12600992"
       height="1.2520198">
      <feGaussianBlur
         inkscape:collect="always"
         stdDeviation="2.5202917"
         id="feGaussianBlur4870" />
    </filter>
    <radialGradient
       inkscape:collect="always"
       xlink:href="#linearGradient4807"
       id="radialGradient5165"
       gradientUnits="userSpaceOnUse"
       gradientTransform="matrix(-1,0,0,0.99984512,114.0487,46.101615)"
       cx="72"
       cy="976.36298"
       fx="72"
       fy="976.36298"
       r="48.007445" />
    <radialGradient
       inkscape:collect="always"
       xlink:href="#linearGradient4216-1"
       id="radialGradient5173"
       gradientUnits="userSpaceOnUse"
       gradientTransform="matrix(1.0126244,-9.9769229e-8,6.863341e-8,0.88332008,86.967617,902.25724)"
       cx="88"
       cy="41.600002"
       fx="88"
       fy="41.600002"
       r="56" />
    <radialGradient
       inkscape:collect="always"
       xlink:href="#linearGradient4835"
       id="radialGradient5177"
       gradientUnits="userSpaceOnUse"
       gradientTransform="matrix(0.84019053,0.00189023,-0.00163769,0.72794048,99.196162,907.92888)"
       cx="96"
       cy="41.600002"
       fx="96"
       fy="41.600002"
       r="56" />
    <radialGradient
       inkscape:collect="always"
       xlink:href="#linearGradient4965-8"
       id="radialGradient5179"
       gradientUnits="userSpaceOnUse"
       gradientTransform="matrix(0.70883716,0,1.2813594e-8,0.62704823,122.20694,904.36848)"
       cx="64"
       cy="64"
       fx="64"
       fy="64"
       r="56" />
    <radialGradient
       inkscape:collect="always"
       xlink:href="#linearGradient4817"
       id="radialGradient5182"
       gradientUnits="userSpaceOnUse"
       gradientTransform="matrix(0.73610006,1.7444409e-8,-1.8736588e-8,0.79062602,107.70305,911.30418)"
       cx="100"
       cy="30.400002"
       fx="100"
       fy="30.400002"
       r="56" />
    <radialGradient
       inkscape:collect="always"
       xlink:href="#linearGradient4965-8"
       id="radialGradient5184"
       gradientUnits="userSpaceOnUse"
       gradientTransform="matrix(1.3028063,2.1170601e-8,-2.0087661e-8,1.0856719,84.192918,875.01656)"
       cx="64"
       cy="64"
       fx="64"
       fy="64"
       r="56.25" />
    <radialGradient
       inkscape:collect="always"
       xlink:href="#linearGradient4216-1"
       id="radialGradient5187"
       gradientUnits="userSpaceOnUse"
       gradientTransform="matrix(1.0126244,9.9769229e-8,6.863341e-8,-0.88332008,86.967613,986.74191)"
       cx="88"
       cy="41.600002"
       fx="88"
       fy="41.600002"
       r="56" />
    <radialGradient
       inkscape:collect="always"
       xlink:href="#linearGradient4216-1"
       id="radialGradient5191"
       gradientUnits="userSpaceOnUse"
       gradientTransform="matrix(1.0905186,-1.108547e-7,7.3912901e-8,0.98146678,80.767239,897.56365)"
       cx="88"
       cy="41.600002"
       fx="88"
       fy="41.600002"
       r="56" />
    <radialGradient
       inkscape:collect="always"
       xlink:href="#linearGradient4807"
       id="radialGradient5194"
       gradientUnits="userSpaceOnUse"
       gradientTransform="matrix(1,0,0,0.99984512,-8,84.150437)"
       cx="72"
       cy="976.36298"
       fx="72"
       fy="976.36298"
       r="48.007445" />
    <radialGradient
       inkscape:collect="always"
       xlink:href="#linearGradient4807"
       id="radialGradient5198"
       gradientUnits="userSpaceOnUse"
       gradientTransform="matrix(-0.22327271,0,0,0.22323813,171.5598,791.80965)"
       cx="72"
       cy="976.36298"
       fx="72"
       fy="976.36298"
       r="48.007445" />
    <radialGradient
       inkscape:collect="always"
       xlink:href="#linearGradient4216-1"
       id="radialGradient5301"
       gradientUnits="userSpaceOnUse"
       gradientTransform="matrix(0.59235616,-5.8362129e-8,4.014857e-8,0.51671684,112.84845,977.48019)"
       cx="88"
       cy="41.600002"
       fx="88"
       fy="41.600002"
       r="56" />
    <radialGradient
       inkscape:collect="always"
       xlink:href="#linearGradient4835"
       id="radialGradient5303"
       gradientUnits="userSpaceOnUse"
       gradientTransform="matrix(0.49148729,0.00110573,-9.579986e-4,0.42582424,120.0018,980.79793)"
       cx="96"
       cy="41.600002"
       fx="96"
       fy="41.600002"
       r="56" />
    <radialGradient
       inkscape:collect="always"
       xlink:href="#linearGradient4965-8"
       id="radialGradient5305"
       gradientUnits="userSpaceOnUse"
       gradientTransform="matrix(0.41464935,0,0,0.36680518,133.46244,978.7152)"
       cx="64"
       cy="64"
       fx="64"
       fy="64"
       r="56" />
    <radialGradient
       inkscape:collect="always"
       xlink:href="#linearGradient4817"
       id="radialGradient5307"
       gradientUnits="userSpaceOnUse"
       gradientTransform="matrix(0.43059736,1.0204477e-8,-1.0960365e-8,0.46249348,124.97808,982.77238)"
       cx="100"
       cy="30.400002"
       fx="100"
       fy="30.400002"
       r="56" />
    <radialGradient
       inkscape:collect="always"
       xlink:href="#linearGradient4965-8"
       id="radialGradient5309"
       gradientUnits="userSpaceOnUse"
       gradientTransform="matrix(0.7621042,1.2384192e-8,-1.1750704e-8,0.63508681,111.22534,961.54518)"
       cx="64"
       cy="64"
       fx="64"
       fy="64"
       r="56.25" />
    <radialGradient
       inkscape:collect="always"
       xlink:href="#linearGradient4216-1"
       id="radialGradient5311"
       gradientUnits="userSpaceOnUse"
       gradientTransform="matrix(0.59235616,5.8362129e-8,4.014857e-8,-0.51671684,112.84845,1026.9013)"
       cx="88"
       cy="41.600002"
       fx="88"
       fy="41.600002"
       r="56" />
    <radialGradient
       inkscape:collect="always"
       xlink:href="#linearGradient4216-1"
       id="radialGradient5313"
       gradientUnits="userSpaceOnUse"
       gradientTransform="matrix(0.63792201,-6.484681e-8,4.3236921e-8,0.57412983,109.22141,974.73457)"
       cx="88"
       cy="41.600002"
       fx="88"
       fy="41.600002"
       r="56" />
    <radialGradient
       inkscape:collect="always"
       xlink:href="#linearGradient4807"
       id="radialGradient5344"
       gradientUnits="userSpaceOnUse"
       gradientTransform="matrix(2.2,0,0,2,-187.8,-120)"
       cx="157.18182"
       cy="119"
       fx="157.18182"
       fy="119"
       r="2.5" />
  </defs>
  <sodipodi:namedview
     id="base"
     pagecolor="#ffffff"
     bordercolor="#666666"
     borderopacity="1.0"
     inkscape:pageopacity="0.0"
     inkscape:pageshadow="2"
     inkscape:zoom="1.0330388"
     inkscape:cx="74.377423"
     inkscape:cy="121.7681"
     inkscape:document-units="px"
     inkscape:current-layer="layer1"
     showgrid="true"
     inkscape:window-width="1920"
     inkscape:window-height="1028"
     inkscape:window-x="-8"
     inkscape:window-y="-8"
     inkscape:window-maximized="1"
     showguides="true"
     inkscape:guide-bbox="true">
    <inkscape:grid
       type="xygrid"
       id="grid2985"
       empspacing="2"
       visible="true"
       enabled="true"
       snapvisiblegridlinesonly="true" />
  </sodipodi:namedview>
  <metadata
     id="metadata7">
    <rdf:RDF>
      <cc:Work
         rdf:about="">
        <dc:format>image/svg+xml</dc:format>
        <dc:type
           rdf:resource="http://purl.org/dc/dcmitype/StillImage" />
        <dc:title />
      </cc:Work>
    </rdf:RDF>
  </metadata>
  <g
     inkscape:label="Layer 1"
     inkscape:groupmode="layer"
     id="layer1"
     transform="translate(0,-924.36218)">
    <path
       style="fill:#000000;fill-opacity:1;stroke:#000000;opacity:0.25"
       d="M 148.375 68.90625 C 147.88023 68.90625 147.5 69.286478 147.5 69.78125 L 147.5 70.6875 L 147.5 74.25 L 147.5 77.84375 L 147.5 81.40625 L 147.5 85.875 C 147.5 85.909634 147.52745 85.935165 147.53125 85.96875 C 147.53244 85.979305 147.52969 85.989562 147.53125 86 C 147.49127 86.097997 147.43751 86.205492 147.4375 86.3125 L 147.4375 89.875 C 147.43756 90.3426 147.87614 90.78125 148.34375 90.78125 L 168 90.78125 C 168.08816 90.7819 168.16609 90.744783 168.25 90.71875 C 168.50173 90.640652 168.71102 90.463025 168.8125 90.21875 C 168.84633 90.13735 168.8675 90.05628 168.875 89.96875 C 168.8975 89.706161 168.81299 89.436075 168.625 89.25 L 166.125 86.75 L 171.625 86.75 C 172.11977 86.75 172.5 86.369772 172.5 85.875 L 172.5 77.84375 L 172.5 74.25 L 172.5 69.78125 C 172.5 69.286478 172.11977 68.90625 171.625 68.90625 L 148.375 68.90625 z "
       transform="translate(0,924.36218)"
       id="rect5315" />
    <path
       id="path5336"
       transform="translate(0,924.36218)"
       d="M 148.375 68.90625 C 147.88023 68.90625 147.5 69.286478 147.5 69.78125 L 147.5 70.6875 L 147.5 74.25 L 147.5 77.84375 L 147.5 81.40625 L 147.5 85.875 C 147.5 85.909634 147.52745 85.935165 147.53125 85.96875 C 147.53244 85.979305 147.52969 85.989562 147.53125 86 C 147.49127 86.097997 147.43751 86.205492 147.4375 86.3125 L 147.4375 89.875 C 147.43756 90.3426 147.87614 90.78125 148.34375 90.78125 L 168 90.78125 C 168.08816 90.7819 168.16609 90.744783 168.25 90.71875 C 168.50173 90.640652 168.71102 90.463025 168.8125 90.21875 C 168.84633 90.13735 168.8675 90.05628 168.875 89.96875 C 168.8975 89.706161 168.81299 89.436075 168.625 89.25 L 166.125 86.75 L 171.625 86.75 C 172.11977 86.75 172.5 86.369772 172.5 85.875 L 172.5 77.84375 L 172.5 74.25 L 172.5 69.78125 C 172.5 69.286478 172.11977 68.90625 171.625 68.90625 L 148.375 68.90625 z "
       style="fill:#000000;fill-opacity:1;stroke:#000000;opacity:0.12;stroke-width:2;stroke-miterlimit:4;stroke-dasharray:none" />
    <path
       style="fill:#000000;fill-opacity:1;stroke:#000000;opacity:0.12;stroke-width:3;stroke-miterlimit:4;stroke-dasharray:none"
       d="M 148.375 68.90625 C 147.88023 68.90625 147.5 69.286478 147.5 69.78125 L 147.5 70.6875 L 147.5 74.25 L 147.5 77.84375 L 147.5 81.40625 L 147.5 85.875 C 147.5 85.909634 147.52745 85.935165 147.53125 85.96875 C 147.53244 85.979305 147.52969 85.989562 147.53125 86 C 147.49127 86.097997 147.43751 86.205492 147.4375 86.3125 L 147.4375 89.875 C 147.43756 90.3426 147.87614 90.78125 148.34375 90.78125 L 168 90.78125 C 168.08816 90.7819 168.16609 90.744783 168.25 90.71875 C 168.50173 90.640652 168.71102 90.463025 168.8125 90.21875 C 168.84633 90.13735 168.8675 90.05628 168.875 89.96875 C 168.8975 89.706161 168.81299 89.436075 168.625 89.25 L 166.125 86.75 L 171.625 86.75 C 172.11977 86.75 172.5 86.369772 172.5 85.875 L 172.5 77.84375 L 172.5 74.25 L 172.5 69.78125 C 172.5 69.286478 172.11977 68.90625 171.625 68.90625 L 148.375 68.90625 z "
       transform="translate(0,924.36218)"
       id="path5338" />
    <rect
       rx="8"
       ry="8"
       y="950.36218"
       x="8"
       height="80"
       width="112"
       id="rect4742"
       style="fill:#000000;fill-opacity:1;stroke:none;filter:url(#filter4764)" />
    <rect
       style="fill:url(#radialGradient4740);fill-opacity:1;stroke:none"
       id="rect4732"
       width="112"
       height="80"
       x="8"
       y="24"
       transform="translate(0,924.36218)"
       ry="4"
       rx="4" />
    <path
       id="path4907"
       transform="matrix(-1,0,0,-1,128.53125,1052.3622)"
       d="m 20,32 0.53125,4.00002 44,28 44,-28 L 108,32 z"
       style="fill:#000000;fill-opacity:1;stroke:none;filter:url(#filter4909)"
       inkscape:connector-curvature="0"
       inkscape:transform-center-y="12.000015"
       sodipodi:nodetypes="cccccc" />
    <path
       sodipodi:nodetypes="sscccsss"
       inkscape:connector-curvature="0"
       id="path4903"
       d="m 15.71874,1024.3622 c -2.05771,0 -3.71875,-1.5994 -3.71875,-3.5938 l 0,-4.1562 L 64,988.36218 l 52.00001,27.18752 0,5.2187 c 0,1.9944 -1.6611,3.5938 -3.7188,3.5938 z"
       style="fill:url(#radialGradient4905);fill-opacity:1;stroke:none"
       inkscape:transform-center-y="14.000005" />
    <path
       style="fill:url(#radialGradient4833);fill-opacity:1;stroke:url(#radialGradient4851);stroke-width:0.50000000000000000;stroke-miterlimit:4;stroke-dasharray:none"
       d="M 16 24 L 8 32 L 8 48 L 12 44 L 12 32 C 12 29.784 13.784 28 16 28 L 28 28 L 32 24 L 16 24 z M 48 24 L 44 28 L 60 28 L 64 24 L 48 24 z M 80 24 L 76 28 L 92 28 L 96 24 L 80 24 z M 112 24 L 108 28 L 112 28 C 114.216 28 116 29.784 116 32 L 116 36 L 120 32 L 120 28 C 120 25.784 118.216 24 116 24 L 112 24 z M 120 48 L 116 52 L 116 68 L 120 64 L 120 48 z M 12 60 L 8 64 L 8 80 L 12 76 L 12 60 z M 120 80 L 116 84 L 116 96 C 116 98.216 114.216 100 112 100 L 100 100 L 96 104 L 112 104 L 120 96 L 120 80 z M 12 92 L 8 96 L 8 100 C 8 102.216 9.784 104 12 104 L 16 104 L 20 100 L 16 100 C 13.784 100 12 98.216 12 96 L 12 92 z M 36 100 L 32 104 L 48 104 L 52 100 L 36 100 z M 68 100 L 64 104 L 80 104 L 84 100 L 68 100 z "
       transform="translate(0,924.36218)"
       id="rect4768" />
    <path
       style="fill:url(#radialGradient4841);stroke:url(#radialGradient4859);stroke-width:1px;stroke-linecap:butt;stroke-linejoin:miter;stroke-opacity:1;fill-opacity:1"
       d="M 12 24 C 9.784 24 8 25.784 8 28 L 8 32 L 16 24 L 12 24 z M 32 24 L 28 28 L 44 28 L 48 24 L 32 24 z M 64 24 L 60 28 L 76 28 L 80 24 L 64 24 z M 96 24 L 92 28 L 108 28 L 112 24 L 96 24 z M 120 32 L 116 36 L 116 52 L 120 48 L 120 32 z M 12 44 L 8 48 L 8 64 L 12 60 L 12 44 z M 120 64 L 116 68 L 116 84 L 120 80 L 120 64 z M 12 76 L 8 80 L 8 96 L 12 92 L 12 76 z M 120 96 L 112 104 L 116 104 C 118.216 104 120 102.216 120 100 L 120 96 z M 20 100 L 16 104 L 32 104 L 36 100 L 20 100 z M 52 100 L 48 104 L 64 104 L 68 100 L 52 100 z M 84 100 L 80 104 L 96 104 L 100 100 L 84 100 z "
       transform="translate(0,924.36218)"
       id="path4811" />
    <path
       style="fill:#000000;fill-opacity:1;stroke:none;filter:url(#filter4890)"
       d="M 20,32 15.21875,38 64,80 113.3125,38.625 108,32 z"
       transform="translate(0,924.36218)"
       id="path4868"
       inkscape:connector-curvature="0"
       sodipodi:nodetypes="cccccc" />
    <path
       style="fill:url(#radialGradient4863);fill-opacity:1;stroke:none"
       d="M 15.71875,28 C 13.661036,28 12,29.59935 12,31.59375 L 12,35.75 64,80 116,36.8125 116,31.59375 C 116,29.59935 114.33896,28 112.28125,28 z"
       transform="translate(0,924.36218)"
       id="rect4861"
       inkscape:connector-curvature="0"
       sodipodi:nodetypes="sscccsss" />
    <rect
       ry="0"
       rx="4.6539506e-07"
       y="924.36218"
       x="136"
       height="32.000004"
       width="32"
       id="rect6882"
       style="fill:none;stroke:none" />
    <text
       xml:space="preserve"
       style="font-size:24px;font-style:normal;font-weight:normal;line-height:125%;letter-spacing:0px;word-spacing:0px;fill:#000000;fill-opacity:1;stroke:none;font-family:Sans"
       x="-56"
       y="948.36218"
       id="text5893"
       sodipodi:linespacing="125%"><tspan
         sodipodi:role="line"
         id="tspan5895"
         x="-56"
         y="948.36218">128</tspan></text>
    <text
       xml:space="preserve"
       style="font-size:16px;font-style:normal;font-weight:normal;line-height:125%;letter-spacing:0px;word-spacing:0px;fill:#000000;fill-opacity:1;stroke:none;font-family:Sans"
       x="200"
       y="940.36218"
       id="text5897"
       sodipodi:linespacing="125%"><tspan
         sodipodi:role="line"
         id="tspan5899"
         x="200"
         y="940.36218">48 - 32</tspan></text>
    <text
       sodipodi:linespacing="125%"
       id="text5901"
       y="1000.3622"
       x="184"
       style="font-size:16px;font-style:normal;font-weight:normal;line-height:125%;letter-spacing:0px;word-spacing:0px;fill:#000000;fill-opacity:1;stroke:none;font-family:Sans"
       xml:space="preserve"><tspan
         y="1000.3622"
         x="184"
         id="tspan5903"
         sodipodi:role="line">31 - 17</tspan></text>
    <text
       xml:space="preserve"
       style="font-size:16px;font-style:normal;font-weight:normal;line-height:125%;letter-spacing:0px;word-spacing:0px;fill:#000000;fill-opacity:1;stroke:none;font-family:Sans"
       x="172"
       y="1048.3622"
       id="text5905"
       sodipodi:linespacing="125%"><tspan
         sodipodi:role="line"
         id="tspan5907"
         x="172"
         y="1048.3622">16</tspan></text>
    <rect
       style="fill:none;stroke:#000000"
       id="rect5917"
       width="56"
       height="56"
       x="140"
       y="920.36218"
       rx="4.5902016e-07" />
    <rect
       style="fill:none;stroke:#000000;stroke-width:1;stroke-linecap:round;stroke-linejoin:round;stroke-miterlimit:4;stroke-opacity:1;stroke-dasharray:none;stroke-dashoffset:0"
       id="rect5919"
       width="40"
       height="40"
       x="140"
       y="984.36218"
       rx="4.5902016e-07" />
    <rect
       style="fill:none;stroke:#000000;stroke-width:1;stroke-linecap:round;stroke-linejoin:round;stroke-miterlimit:4;stroke-opacity:1;stroke-dasharray:none;stroke-dashoffset:0"
       id="rect5921"
       width="24"
       height="24"
       x="140"
       y="1032.3622"
       rx="4.5902016e-07" />
    <rect
       style="fill:#b3b3b3;stroke:none"
       id="rect6931"
       width="48"
       height="4"
       x="144"
       y="916.36218"
       rx="4.5902016e-07" />
    <rect
       style="fill:#b3b3b3;fill-opacity:1;stroke:none"
       id="rect6933"
       width="4"
       height="48"
       x="136"
       y="924.36218"
       rx="4.5902016e-07" />
    <rect
       style="fill:#b3b3b3;fill-opacity:1;stroke:none"
       id="rect6935"
       width="32"
       height="4"
       x="144"
       y="980.36218"
       rx="4.5902016e-07" />
    <rect
       style="fill:#b3b3b3;fill-opacity:1;stroke:none"
       id="rect6937"
       width="4"
       height="32"
       x="136"
       y="988.36218"
       rx="4.5902016e-07" />
    <rect
       style="fill:#b3b3b3;fill-opacity:1;stroke:none"
       id="rect6939"
       width="16"
       height="4"
       x="144"
       y="1028.3622"
       rx="4.5902016e-07" />
    <rect
       style="fill:#b3b3b3;fill-opacity:1;stroke:none"
       id="rect6941"
       width="4"
       height="16"
       x="136"
       y="1036.3622"
       rx="4.5902016e-07" />
    <rect
       style="fill:#333333;fill-opacity:1;stroke:none"
       id="rect4719"
       width="16"
       height="12"
       x="144"
       y="114"
       transform="translate(0,924.36218)"
       rx="1"
       ry="1" />
    <rect
       style="fill:url(#radialGradient4752);fill-opacity:1;stroke:none"
       id="rect4733"
       width="14"
       height="10"
       x="145"
       y="115"
       transform="translate(0,924.36218)"
       rx="0"
       ry="0" />
    <path
       style="fill:url(#radialGradient4744);stroke:none;stroke-width:1px;stroke-linecap:butt;stroke-linejoin:miter;stroke-opacity:1;fill-opacity:1"
       d="M 145 115 L 145 117 L 153 125 L 155 125 L 145 115 z M 147 115 L 157 125 L 159 125 L 149 115 L 147 115 z M 151 115 L 159 123 L 159 121 L 153 115 L 151 115 z M 155 115 L 159 119 L 159 117 L 157 115 L 155 115 z M 145 119 L 145 121 L 149 125 L 151 125 L 145 119 z M 145 123 L 145 125 L 147 125 L 145 123 z "
       transform="translate(0,924.36218)"
       id="path4721" />
    <rect
       style="fill:url(#radialGradient4762);fill-opacity:1;stroke:none"
       id="rect4754"
       width="12"
       height="8"
       x="146"
       y="116"
       transform="translate(0,924.36218)" />
    <path
       style="fill:#808080;stroke:none;stroke-width:1px;stroke-linecap:butt;stroke-linejoin:miter;stroke-opacity:1"
       d="m 146,117 6,5 6,-5 0,-1 -6,5 -6,-5 z"
       id="path4764"
       inkscape:connector-curvature="0"
       transform="translate(0,924.36218)" />
    <path
       sodipodi:nodetypes="cccscccccccc"
       inkscape:connector-curvature="0"
       id="path4826"
       d="m 47.875,1036.3622 c -1.008391,0.024 -2.001901,0.4466 -2.71875,1.1562 l -40,40 c -1.122641,1.111 -1.486341,2.92 -0.880291,4.3785 0.606049,1.4585 2.144667,2.4771 3.724041,2.4653 l 88,0 c 2.09434,-2e-4 3.99979,-1.9057 4,-4 l 0,-16 c -2.1e-4,-2.0944 -1.90566,-3.9998 -4,-4 l -44,0 0,-20 c 8.23e-4,-2.1367 -1.989378,-4.0666 -4.125,-4 z"
       style="font-size:medium;font-style:normal;font-variant:normal;font-weight:normal;font-stretch:normal;text-indent:0;text-align:start;text-decoration:none;line-height:normal;letter-spacing:normal;word-spacing:normal;text-transform:none;direction:ltr;block-progression:tb;writing-mode:lr-tb;text-anchor:start;baseline-shift:baseline;color:#000000;fill:#000000;fill-opacity:1;stroke:none;stroke-width:2;marker:none;visibility:visible;display:inline;overflow:visible;filter:url(#filter4868);enable-background:accumulate;font-family:Sans;-inkscape-font-specification:Sans"
       transform="matrix(-1,0,0,1,106.0487,-38.048822)" />
    <path
       style="font-size:medium;font-style:normal;font-variant:normal;font-weight:normal;font-stretch:normal;text-indent:0;text-align:start;text-decoration:none;line-height:normal;letter-spacing:normal;word-spacing:normal;text-transform:none;direction:ltr;block-progression:tb;writing-mode:lr-tb;text-anchor:start;baseline-shift:baseline;color:#000000;fill:url(#radialGradient5165);fill-opacity:1;stroke:none;stroke-width:2;marker:none;visibility:visible;display:inline;overflow:visible;enable-background:accumulate;font-family:Sans;-inkscape-font-specification:Sans"
       d="m 58.1737,998.31338 c 1.008391,0.024 2.001901,0.4466 2.71875,1.1562 l 40,40.00002 c 1.12264,1.111 1.48634,2.92 0.88029,4.3785 -0.60605,1.4585 -2.144666,2.4771 -3.72404,2.4653 l -88,0 c -2.09434,-2e-4 -3.99979,-1.9057 -4,-4 l 0,-16 c 2.1e-4,-2.0944 1.90566,-3.9998 4,-4 l 44,0 0,-20 c -8.23e-4,-2.1367 1.989378,-4.06662 4.125,-4.00002 z"
       id="path4785"
       inkscape:connector-curvature="0"
       sodipodi:nodetypes="cccscccccccc" />
    <path
       sodipodi:nodetypes="cccscccccccc"
       inkscape:connector-curvature="0"
       id="path4824"
       d="m 58.1737,998.31338 c 1.008391,0.024 2.001901,0.4466 2.71875,1.1562 l 40,40.00002 c 1.12264,1.111 1.48634,2.92 0.88029,4.3785 -0.60605,1.4585 -2.144666,2.4771 -3.72404,2.4653 l -88,0 c -2.09434,-2e-4 -3.99979,-1.9057 -4,-4 l 0,-16 c 2.1e-4,-2.0944 1.90566,-3.9998 4,-4 l 44,0 0,-20 c -8.23e-4,-2.1367 1.989378,-4.06662 4.125,-4.00002 z"
       style="font-size:medium;font-style:normal;font-variant:normal;font-weight:normal;font-stretch:normal;text-indent:0;text-align:start;text-decoration:none;line-height:normal;letter-spacing:normal;word-spacing:normal;text-transform:none;direction:ltr;block-progression:tb;writing-mode:lr-tb;text-anchor:start;baseline-shift:baseline;opacity:0.25;color:#000000;fill:none;stroke:#000000;stroke-width:4;stroke-miterlimit:4;stroke-opacity:1;stroke-dasharray:none;marker:none;visibility:visible;display:inline;overflow:visible;enable-background:accumulate;font-family:Sans;-inkscape-font-specification:Sans" />
    <rect
       style="fill:#000000;fill-opacity:1;stroke:none;filter:url(#filter4764)"
       id="rect4879"
       width="112"
       height="80"
       x="8"
       y="950.36218"
       ry="8"
       rx="8"
       transform="matrix(0.38168152,0,0,0.38168152,143.1449,567.25999)" />
    <rect
       rx="1.5267261"
       ry="1.5267261"
       y="929.2323"
       x="146.19835"
       height="30.534521"
       width="42.748329"
       id="rect4881"
       style="fill:url(#radialGradient5191);fill-opacity:1;stroke:none" />
    <path
       sodipodi:nodetypes="cccccc"
       inkscape:transform-center-y="12.000015"
       inkscape:connector-curvature="0"
       style="fill:#000000;fill-opacity:1;stroke:none;filter:url(#filter4909)"
       d="m 20,32 0.53125,4.00002 44,28 44,-28 L 108,32 z"
       transform="matrix(-0.38168152,0,0,-0.38168152,192.2029,968.92719)"
       id="path4883" />
    <path
       inkscape:transform-center-y="14.000005"
       style="fill:url(#radialGradient5187);fill-opacity:1;stroke:none"
       d="m 149.14445,958.24011 c -0.78539,0 -1.41938,-0.61046 -1.41938,-1.37169 l 0,-1.58634 19.84745,-10.78251 19.84744,10.37697 0,1.99188 c 0,0.76123 -0.63401,1.37169 -1.4194,1.37169 z"
       id="path4885"
       inkscape:connector-curvature="0"
       sodipodi:nodetypes="sscccsss" />
    <path
       inkscape:connector-curvature="0"
       id="path4887"
       d="m 149.2518,929.23231 -3.05345,3.05345 0,6.1069 1.52673,-1.52672 0,-4.58018 c 0,-0.84581 0.68092,-1.52673 1.52672,-1.52673 l 4.58018,0 1.52673,-1.52672 -6.10691,0 z m 12.21381,0 -1.52672,1.52672 6.1069,0 1.52673,-1.52672 -6.10691,0 z m 12.21381,0 -1.52672,1.52672 6.1069,0 1.52673,-1.52672 -6.10691,0 z m 12.21381,0 -1.52673,1.52672 1.52673,0 c 0.84581,0 1.52673,0.68092 1.52673,1.52673 l 0,1.52672 1.52672,-1.52672 0,-1.52673 c 0,-0.8458 -0.68092,-1.52672 -1.52672,-1.52672 l -1.52673,0 z m 3.05345,9.16035 -1.52672,1.52673 0,6.1069 1.52672,-1.52672 0,-6.10691 z m -41.2216,4.58018 -1.52673,1.52673 0,6.1069 1.52673,-1.52672 0,-6.10691 z m 41.2216,7.63363 -1.52672,1.52673 0,4.58018 c 0,0.8458 -0.68092,1.52672 -1.52673,1.52672 l -4.58018,0 -1.52672,1.52673 6.1069,0 3.05345,-3.05345 0,-6.10691 z m -41.2216,4.58018 -1.52673,1.52673 0,1.52672 c 0,0.84581 0.68092,1.52673 1.52673,1.52673 l 1.52672,0 1.52673,-1.52673 -1.52673,0 c -0.8458,0 -1.52672,-0.68092 -1.52672,-1.52672 l 0,-1.52673 z m 9.16035,3.05345 -1.52672,1.52673 6.1069,0 1.52673,-1.52673 -6.10691,0 z m 12.21381,0 -1.52672,1.52673 6.1069,0 1.52673,-1.52673 -6.10691,0 z"
       style="fill:url(#radialGradient5182);fill-opacity:1;stroke:url(#radialGradient5184);stroke-width:0.19084077;stroke-miterlimit:4;stroke-dasharray:none" />
    <path
       inkscape:connector-curvature="0"
       id="path4889"
       d="m 147.72508,929.23231 c -0.84581,0 -1.52673,0.68092 -1.52673,1.52672 l 0,1.52673 3.05345,-3.05345 -1.52672,0 z m 7.63363,0 -1.52673,1.52672 6.10691,0 1.52672,-1.52672 -6.1069,0 z m 12.21381,0 -1.52673,1.52672 6.10691,0 1.52672,-1.52672 -6.1069,0 z m 12.21381,0 -1.52673,1.52672 6.1069,0 1.52673,-1.52672 -6.1069,0 z m 9.16035,3.05345 -1.52672,1.52672 0,6.10691 1.52672,-1.52673 0,-6.1069 z m -41.2216,4.58018 -1.52673,1.52672 0,6.10691 1.52673,-1.52673 0,-6.1069 z m 41.2216,7.63363 -1.52672,1.52672 0,6.10691 1.52672,-1.52673 0,-6.1069 z m -41.2216,4.58018 -1.52673,1.52672 0,6.10691 1.52673,-1.52673 0,-6.1069 z m 41.2216,7.63363 -3.05345,3.05345 1.52673,0 c 0.8458,0 1.52672,-0.68092 1.52672,-1.52673 l 0,-1.52672 z m -38.16815,1.52672 -1.52673,1.52673 6.10691,0 1.52672,-1.52673 -6.1069,0 z m 12.21381,0 -1.52673,1.52673 6.10691,0 1.52672,-1.52673 -6.1069,0 z m 12.21381,0 -1.52673,1.52673 6.10691,0 1.52672,-1.52673 -6.1069,0 z"
       style="fill:url(#radialGradient5177);fill-opacity:1;stroke:url(#radialGradient5179);stroke-width:0.38168153px;stroke-linecap:butt;stroke-linejoin:miter;stroke-opacity:1" />
    <path
       sodipodi:nodetypes="cccccc"
       inkscape:connector-curvature="0"
       id="path4891"
       transform="matrix(0.38168152,0,0,0.38168152,143.1449,920.07195)"
       d="M 20,32 15.21875,38 64,80 113.3125,38.625 108,32 z"
       style="fill:#000000;fill-opacity:1;stroke:none;filter:url(#filter4890)" />
    <path
       sodipodi:nodetypes="sscccsss"
       inkscape:connector-curvature="0"
       id="path4893"
       d="m 149.14446,930.75903 c -0.7854,0 -1.41938,0.61044 -1.41938,1.37167 l 0,1.58636 19.84744,16.88941 19.84744,-16.48387 0,-1.9919 c 0,-0.76123 -0.63399,-1.37167 -1.41938,-1.37167 z"
       style="fill:url(#radialGradient5173);fill-opacity:1;stroke:none" />
    <g
       transform="matrix(-0.38168152,0,0,0.38168152,184.47669,552.73746)"
       id="g4895"
       inkscape:transform-center-x="3.3679073"
       inkscape:transform-center-y="17.095636">
      <path
         sodipodi:nodetypes="cccscccccccc"
         inkscape:connector-curvature="0"
         id="path4897"
         d="m 47.875,1036.3622 c -1.008391,0.024 -2.001901,0.4466 -2.71875,1.1562 l -40,40 c -1.122641,1.111 -1.486341,2.92 -0.880291,4.3785 0.606049,1.4585 2.144667,2.4771 3.724041,2.4653 l 88,0 c 2.09434,-2e-4 3.99979,-1.9057 4,-4 l 0,-16 c -2.1e-4,-2.0944 -1.90566,-3.9998 -4,-4 l -44,0 0,-20 c 8.23e-4,-2.1367 -1.989378,-4.0666 -4.125,-4 z"
         style="font-size:medium;font-style:normal;font-variant:normal;font-weight:normal;font-stretch:normal;text-indent:0;text-align:start;text-decoration:none;line-height:normal;letter-spacing:normal;word-spacing:normal;text-transform:none;direction:ltr;block-progression:tb;writing-mode:lr-tb;text-anchor:start;baseline-shift:baseline;color:#000000;fill:#000000;fill-opacity:1;stroke:none;stroke-width:2;marker:none;visibility:visible;display:inline;overflow:visible;filter:url(#filter4868);enable-background:accumulate;font-family:Sans;-inkscape-font-specification:Sans" />
      <path
         style="font-size:medium;font-style:normal;font-variant:normal;font-weight:normal;font-stretch:normal;text-indent:0;text-align:start;text-decoration:none;line-height:normal;letter-spacing:normal;word-spacing:normal;text-transform:none;direction:ltr;block-progression:tb;writing-mode:lr-tb;text-anchor:start;baseline-shift:baseline;color:#000000;fill:url(#radialGradient5194);fill-opacity:1;stroke:none;stroke-width:2;marker:none;visibility:visible;display:inline;overflow:visible;enable-background:accumulate;font-family:Sans;-inkscape-font-specification:Sans"
         d="m 47.875,1036.3622 c -1.008391,0.024 -2.001901,0.4466 -2.71875,1.1562 l -40,40 c -1.122641,1.111 -1.486341,2.92 -0.880291,4.3785 0.606049,1.4585 2.144667,2.4771 3.724041,2.4653 l 88,0 c 2.09434,-2e-4 3.99979,-1.9057 4,-4 l 0,-16 c -2.1e-4,-2.0944 -1.90566,-3.9998 -4,-4 l -44,0 0,-20 c 8.23e-4,-2.1367 -1.989378,-4.0666 -4.125,-4 z"
         id="path4899"
         inkscape:connector-curvature="0"
         sodipodi:nodetypes="cccscccccccc" />
      <path
         sodipodi:nodetypes="cccscccccccc"
         inkscape:connector-curvature="0"
         id="path4901"
         d="m 47.875,1036.3622 c -1.008391,0.024 -2.001901,0.4466 -2.71875,1.1562 l -40,40 c -1.122641,1.111 -1.486341,2.92 -0.880291,4.3785 0.606049,1.4585 2.144667,2.4771 3.724041,2.4653 l 88,0 c 2.09434,-2e-4 3.99979,-1.9057 4,-4 l 0,-16 c -2.1e-4,-2.0944 -1.90566,-3.9998 -4,-4 l -44,0 0,-20 c 8.23e-4,-2.1367 -1.989378,-4.0666 -4.125,-4 z"
         style="font-size:medium;font-style:normal;font-variant:normal;font-weight:normal;font-stretch:normal;text-indent:0;text-align:start;text-decoration:none;line-height:normal;letter-spacing:normal;word-spacing:normal;text-transform:none;direction:ltr;block-progression:tb;writing-mode:lr-tb;text-anchor:start;baseline-shift:baseline;opacity:0.25;color:#000000;fill:none;stroke:#000000;stroke-width:4;stroke-miterlimit:4;stroke-opacity:1;stroke-dasharray:none;marker:none;visibility:visible;display:inline;overflow:visible;enable-background:accumulate;font-family:Sans;-inkscape-font-specification:Sans" />
    </g>
    <rect
       rx="0.89309084"
       ry="0.89309084"
       y="993.25983"
       x="147.49673"
       height="17.861816"
       width="25.006544"
       id="rect4935"
       style="fill:url(#radialGradient5313);fill-opacity:1;stroke:none" />
    <path
       sodipodi:nodetypes="cccccc"
       inkscape:transform-center-y="12.000015"
       inkscape:connector-curvature="0"
       style="fill:#000000;fill-opacity:1;stroke:none;filter:url(#filter4909)"
       d="m 20,32 0.53125,4.00002 44,28 44,-28 L 108,32 z"
       transform="matrix(-0.22327271,0,0,-0.22327271,174.34876,1016.4802)"
       id="path4937" />
    <path
       inkscape:transform-center-y="14.000005"
       style="fill:url(#radialGradient5311);fill-opacity:1;stroke:none"
       d="m 149.22011,1010.2286 c -0.45943,0 -0.83029,-0.3571 -0.83029,-0.8025 l 0,-0.928 11.61018,-6.3074 11.61018,6.0703 0,1.1651 c 0,0.4454 -0.37089,0.8025 -0.83031,0.8025 z"
       id="path4939"
       inkscape:connector-curvature="0"
       sodipodi:nodetypes="sscccsss" />
    <path
       inkscape:connector-curvature="0"
       id="path4941"
       d="m 149.28291,993.25982 -1.78619,1.78618 0,3.57237 0.8931,-0.89309 0,-2.67928 c 0,-0.49477 0.39832,-0.89309 0.89309,-0.89309 l 2.67927,0 0.89309,-0.89309 -3.57236,0 z m 7.14473,0 -0.89309,0.89309 3.57236,0 0.89309,-0.89309 -3.57236,0 z m 7.14473,0 -0.8931,0.89309 3.57237,0 0.89309,-0.89309 -3.57236,0 z m 7.14472,0 -0.89309,0.89309 0.89309,0 c 0.49477,0 0.89309,0.39832 0.89309,0.89309 l 0,0.8931 0.89309,-0.8931 0,-0.89309 c 0,-0.49477 -0.39831,-0.89309 -0.89309,-0.89309 l -0.89309,0 z m 1.78618,5.35855 -0.89309,0.89309 0,3.57234 0.89309,-0.8931 0,-3.57233 z m -24.11345,2.67923 -0.8931,0.8931 0,3.5724 0.8931,-0.8931 0,-3.5724 z m 24.11345,4.4655 -0.89309,0.8931 0,2.6792 c 0,0.4948 -0.39832,0.8932 -0.89309,0.8932 l -2.67927,0 -0.89309,0.8931 3.57236,0 1.78618,-1.7863 0,-3.5723 z m -24.11345,2.6792 -0.8931,0.8931 0,0.8932 c 0,0.4947 0.39833,0.8931 0.8931,0.8931 l 0.89309,0 0.89309,-0.8931 -0.89309,0 c -0.49476,0 -0.89309,-0.3984 -0.89309,-0.8932 l 0,-0.8931 z m 5.35855,1.7863 -0.8931,0.8931 3.57237,0 0.8931,-0.8931 -3.57237,0 z m 7.14474,0 -0.8931,0.8931 3.57237,0 0.89309,-0.8931 -3.57236,0 z"
       style="fill:url(#radialGradient5307);fill-opacity:1;stroke:url(#radialGradient5309);stroke-width:0.11163636;stroke-miterlimit:4;stroke-dasharray:none" />
    <path
       inkscape:connector-curvature="0"
       id="path4943"
       d="m 148.38982,993.25982 c -0.49477,0 -0.8931,0.39832 -0.8931,0.89309 l 0,0.89309 1.78619,-1.78618 -0.89309,0 z m 4.46545,0 -0.89309,0.89309 3.57237,0 0.89309,-0.89309 -3.57237,0 z m 7.14473,0 -0.89309,0.89309 3.57236,0 0.8931,-0.89309 -3.57237,0 z m 7.14473,0 -0.89309,0.89309 3.57236,0 0.89309,-0.89309 -3.57236,0 z m 5.35854,1.78618 -0.89309,0.8931 0,3.57236 0.89309,-0.89309 0,-3.57237 z m -24.11345,2.67928 -0.8931,0.89309 0,3.57233 0.8931,-0.8931 0,-3.57232 z m 24.11345,4.46542 -0.89309,0.8931 0,3.5724 0.89309,-0.8931 0,-3.5724 z m -24.11345,2.6793 -0.8931,0.8931 0,3.5723 0.8931,-0.8931 0,-3.5723 z m 24.11345,4.4654 -1.78618,1.7863 0.89309,0 c 0.49478,0 0.89309,-0.3984 0.89309,-0.8931 l 0,-0.8932 z m -22.32727,0.8932 -0.89309,0.8931 3.57236,0 0.8931,-0.8931 -3.57237,0 z m 7.14474,0 -0.8931,0.8931 3.57237,0 0.8931,-0.8931 -3.57237,0 z m 7.14473,0 -0.89309,0.8931 3.57236,0 0.89309,-0.8931 -3.57236,0 z"
       style="fill:url(#radialGradient5303);fill-opacity:1;stroke:url(#radialGradient5305);stroke-width:0.22327271px;stroke-linecap:butt;stroke-linejoin:miter;stroke-opacity:1" />
    <path
       sodipodi:nodetypes="cccccc"
       inkscape:connector-curvature="0"
       id="path4945"
       transform="matrix(0.22327271,0,0,0.22327271,145.65124,987.90128)"
       d="M 20,32 15.21875,38 64,80 113.3125,38.625 108,32 z"
       style="fill:#000000;fill-opacity:1;stroke:none;filter:url(#filter4890)" />
    <path
       sodipodi:nodetypes="sscccsss"
       inkscape:connector-curvature="0"
       id="path4947"
       d="m 149.22011,994.15291 c -0.45943,0 -0.83029,0.35709 -0.83029,0.80239 l 0,0.92797 11.61018,9.87983 11.61018,-9.6426 0,-1.1652 c 0,-0.4453 -0.37086,-0.80239 -0.8303,-0.80239 z"
       style="fill:url(#radialGradient5301);fill-opacity:1;stroke:none" />
    <path
       sodipodi:nodetypes="cccscccccccc"
       inkscape:connector-curvature="0"
       id="path4953"
       d="m 159.08444,1004.4125 c 0.22515,0.01 0.44697,0.1 0.60703,0.2582 l 8.9309,8.9309 c 0.25065,0.2481 0.33186,0.652 0.19654,0.9776 -0.13531,0.3257 -0.47884,0.553 -0.83147,0.5504 l -19.648,0 c -0.46761,0 -0.89304,-0.4255 -0.8931,-0.8931 l 0,-3.5723 c 6e-5,-0.4676 0.42549,-0.893 0.8931,-0.8931 l 9.824,0 0,-4.4655 c -1.9e-4,-0.477 0.44417,-0.9079 0.921,-0.8931 z"
       style="font-size:medium;font-style:normal;font-variant:normal;font-weight:normal;font-stretch:normal;text-indent:0;text-align:start;text-decoration:none;line-height:normal;letter-spacing:normal;word-spacing:normal;text-transform:none;direction:ltr;block-progression:tb;writing-mode:lr-tb;text-anchor:start;baseline-shift:baseline;color:#000000;fill:url(#radialGradient5198);fill-opacity:1;stroke:none;stroke-width:2;marker:none;visibility:visible;display:inline;overflow:visible;enable-background:accumulate;font-family:Sans;-inkscape-font-specification:Sans"
       inkscape:transform-center-x="1.8349044"
       inkscape:transform-center-y="9.4086958" />
    <path
       style="font-size:medium;font-style:normal;font-variant:normal;font-weight:normal;font-stretch:normal;text-indent:0;text-align:start;text-decoration:none;line-height:normal;letter-spacing:normal;word-spacing:normal;text-transform:none;direction:ltr;block-progression:tb;writing-mode:lr-tb;text-anchor:start;baseline-shift:baseline;opacity:0.25;color:#000000;fill:none;stroke:#000000;stroke-width:0.89309084;stroke-miterlimit:4;stroke-opacity:1;stroke-dasharray:none;marker:none;visibility:visible;display:inline;overflow:visible;enable-background:accumulate;font-family:Sans;-inkscape-font-specification:Sans"
       d="m 159.08444,1004.4125 c 0.22515,0.01 0.44697,0.1 0.60703,0.2582 l 8.9309,8.9309 c 0.25065,0.2481 0.33186,0.652 0.19654,0.9776 -0.13531,0.3257 -0.47884,0.553 -0.83147,0.5504 l -19.648,0 c -0.46761,0 -0.89304,-0.4255 -0.8931,-0.8931 l 0,-3.5723 c 6e-5,-0.4676 0.42549,-0.893 0.8931,-0.8931 l 9.824,0 0,-4.4655 c -1.9e-4,-0.477 0.44417,-0.9079 0.921,-0.8931 z"
       id="path4955"
       inkscape:connector-curvature="0"
       sodipodi:nodetypes="cccscccccccc"
       inkscape:transform-center-x="1.8349044"
       inkscape:transform-center-y="9.4086958" />
    <path
       style="font-size:medium;font-style:normal;font-variant:normal;font-weight:normal;font-stretch:normal;text-indent:0;text-align:start;text-decoration:none;line-height:normal;letter-spacing:normal;word-spacing:normal;text-transform:none;direction:ltr;block-progression:tb;writing-mode:lr-tb;text-anchor:start;baseline-shift:baseline;opacity:0.25;color:#000000;fill:none;stroke:none;stroke-width:4;marker:none;visibility:visible;display:inline;overflow:visible;enable-background:accumulate;font-family:Sans;-inkscape-font-specification:Sans"
       d="m 159.53551,1037.6975 c -0.11193,0 -0.22221,0.05 -0.30178,0.1283 l -4.44,4.44 c -0.12461,0.1233 -0.16498,0.3241 -0.0977,0.486 0.0673,0.1619 0.23806,0.275 0.41337,0.2737 l 9.76799,0 c 0.23247,0 0.44397,-0.2116 0.444,-0.444 l 0,-1.776 c -3e-5,-0.2325 -0.21153,-0.444 -0.444,-0.444 l -4.884,0 0,-2.22 c 9e-5,-0.2372 -0.22082,-0.4514 -0.45787,-0.444 z"
       id="path5138"
       inkscape:connector-curvature="0"
       sodipodi:nodetypes="cccscccccccc" />
    <g
       id="g5340"
       inkscape:transform-center-x="4.5"
       transform="matrix(-1,0,0,1,304,0)">
      <path
         transform="translate(0,924.36218)"
         inkscape:connector-curvature="0"
         id="path5151"
         d="m 159,115 -5,5 5,5 z"
         style="fill:none;stroke:#333333;stroke-width:2;stroke-linecap:butt;stroke-linejoin:round;stroke-miterlimit:4;stroke-opacity:1;stroke-dasharray:none" />
      <path
         transform="translate(0,924.36218)"
         inkscape:connector-curvature="0"
         id="path5153"
         d="m 154,120 5,-5 0,10 z"
         style="fill:url(#radialGradient5344);fill-opacity:1;stroke:none" />
    </g>
  </g>
</svg>
