<?xml version="1.0" encoding="UTF-8" standalone="no"?>
<!-- Created with Inkscape (http://www.inkscape.org/) -->

<svg
   xmlns:dc="http://purl.org/dc/elements/1.1/"
   xmlns:cc="http://creativecommons.org/ns#"
   xmlns:rdf="http://www.w3.org/1999/02/22-rdf-syntax-ns#"
   xmlns:svg="http://www.w3.org/2000/svg"
   xmlns="http://www.w3.org/2000/svg"
   xmlns:sodipodi="http://sodipodi.sourceforge.net/DTD/sodipodi-0.dtd"
   xmlns:inkscape="http://www.inkscape.org/namespaces/inkscape"
   sodipodi:docname="media-record-symbolic.svg"
   inkscape:version="0.91 r13725"
   version="1.1"
   id="svg2"
   height="128"
   width="128">
  <sodipodi:namedview
     id="base"
     pagecolor="#ffffff"
     bordercolor="#666666"
     borderopacity="1.0"
     inkscape:pageopacity="0.0"
     inkscape:pageshadow="2"
     inkscape:zoom="1.4142136"
     inkscape:cx="78.796135"
     inkscape:cy="74.923737"
     inkscape:document-units="px"
     inkscape:current-layer="layer1"
     showgrid="true"
     showguides="true"
     inkscape:guide-bbox="true"
     inkscape:window-width="1920"
     inkscape:window-height="1028"
     inkscape:window-x="-8"
     inkscape:window-y="-8"
     inkscape:window-maximized="1">
    <inkscape:grid
       snapvisiblegridlinesonly="true"
       enabled="true"
       visible="true"
       empspacing="4"
       id="grid2985"
       type="xygrid" />
  </sodipodi:namedview>
  <defs
     id="defs4" />
  <metadata
     id="metadata7">
    <rdf:RDF>
      <cc:Work
         rdf:about="">
        <dc:format>image/svg+xml</dc:format>
        <dc:type
           rdf:resource="http://purl.org/dc/dcmitype/StillImage" />
        <dc:title />
      </cc:Work>
    </rdf:RDF>
  </metadata>
  <g
     transform="translate(0,-924.36218)"
     id="layer1"
     inkscape:groupmode="layer"
     inkscape:label="Layer 1">
    <rect
       ry="0"
       rx="4.6539506e-07"
       y="924.36218"
       x="136"
       height="32.000004"
       width="32"
       id="rect6882"
       style="fill:none;stroke:none;stroke-width:1.01388812000000006" />
    <text
       xml:space="preserve"
       style="font-size:24px;font-style:normal;font-weight:normal;line-height:125%;letter-spacing:0px;word-spacing:0px;fill:#000000;fill-opacity:1;stroke:none;font-family:Sans"
       x="-56"
       y="948.36218"
       id="text5893"
       sodipodi:linespacing="125%"><tspan
         sodipodi:role="line"
         id="tspan5895"
         x="-56"
         y="948.36218">128</tspan></text>
    <text
       xml:space="preserve"
       style="font-size:16px;font-style:normal;font-weight:normal;line-height:125%;letter-spacing:0px;word-spacing:0px;fill:#000000;fill-opacity:1;stroke:none;font-family:Sans"
       x="200"
       y="940.36218"
       id="text5897"
       sodipodi:linespacing="125%"><tspan
         sodipodi:role="line"
         id="tspan5899"
         x="200"
         y="940.36218">48 - 32</tspan></text>
    <text
       sodipodi:linespacing="125%"
       id="text5901"
       y="1000.3622"
       x="184"
       style="font-size:16px;font-style:normal;font-weight:normal;line-height:125%;letter-spacing:0px;word-spacing:0px;fill:#000000;fill-opacity:1;stroke:none;font-family:Sans"
       xml:space="preserve"><tspan
         y="1000.3622"
         x="184"
         id="tspan5903"
         sodipodi:role="line">31 - 17</tspan></text>
    <text
       xml:space="preserve"
       style="font-size:16px;font-style:normal;font-weight:normal;line-height:125%;letter-spacing:0px;word-spacing:0px;fill:#000000;fill-opacity:1;stroke:none;font-family:Sans"
       x="172"
       y="1048.3622"
       id="text5905"
       sodipodi:linespacing="125%"><tspan
         sodipodi:role="line"
         id="tspan5907"
         x="172"
         y="1048.3622">16</tspan></text>
    <rect
       style="fill:none;fill-opacity:1;stroke:#000000"
       id="rect5917"
       width="56"
       height="56"
       x="140"
       y="-4"
       rx="4.5902016e-07"
       transform="translate(0,924.36218)" />
    <rect
       style="fill:none;stroke:#000000;stroke-width:1;stroke-linecap:round;stroke-linejoin:round;stroke-miterlimit:4;stroke-opacity:1;stroke-dasharray:none;stroke-dashoffset:0"
       id="rect5919"
       width="40"
       height="40"
       x="140"
       y="60"
       transform="translate(0,924.36218)"
       rx="4.5902016e-07" />
    <rect
       style="fill:none;stroke:#000000;stroke-width:1;stroke-linecap:round;stroke-linejoin:round;stroke-miterlimit:4;stroke-opacity:1;stroke-dasharray:none;stroke-dashoffset:0"
       id="rect5921"
       width="24"
       height="24"
       x="140"
       y="108"
       transform="translate(0,924.36218)"
       rx="4.5902016e-07" />
    <rect
       style="fill:#b3b3b3;stroke:none"
       id="rect6931"
       width="48"
       height="4"
       x="144"
       y="916.36218"
       rx="4.5902016e-07" />
    <rect
       style="fill:#b3b3b3;fill-opacity:1;stroke:none"
       id="rect6933"
       width="4"
       height="48"
       x="136"
       y="924.36218"
       rx="4.5902016e-07" />
    <rect
       style="fill:#b3b3b3;fill-opacity:1;stroke:none"
       id="rect6935"
       width="32"
       height="4"
       x="144"
       y="56"
       transform="translate(0,924.36218)"
       rx="4.5902016e-07" />
    <rect
       style="fill:#b3b3b3;fill-opacity:1;stroke:none"
       id="rect6937"
       width="4"
       height="32"
       x="136"
       y="64"
       transform="translate(0,924.36218)"
       rx="4.5902016e-07" />
    <rect
       style="fill:#b3b3b3;fill-opacity:1;stroke:none"
       id="rect6939"
       width="16"
       height="4"
       x="144"
       y="104"
       transform="translate(0,924.36218)"
       rx="4.5902016e-07" />
    <rect
       style="fill:#b3b3b3;fill-opacity:1;stroke:none"
       id="rect6941"
       width="4"
       height="16"
       x="136"
       y="112"
       transform="translate(0,924.36218)"
       rx="4.5902016e-07" />
    <g
       id="g5880">
      <path
         id="path5873"
         transform="translate(0,924.36218)"
         d="M 64 0 C 28.653776 1.8947806e-14 0 28.653776 0 64 C 0 99.346224 28.653776 128 64 128 C 99.346224 128 128 99.346224 128 64 C 128 28.653776 99.346224 -1.4210855e-14 64 0 z M 64 8 C 94.927946 8 120 33.072054 120 64 C 120 94.927946 94.927946 120 64 120 C 33.072054 120 8 94.927946 8 64 C 8 33.072054 33.072054 8 64 8 z "
         style="fill:#d40000;fill-opacity:1;stroke:none" />
      <path
         transform="translate(0,924.36218)"
         d="M 112,64 A 48,48 0 0 1 64,112 48,48 0 0 1 16,64 48,48 0 0 1 64,16 48,48 0 0 1 112,64 Z"
         sodipodi:ry="48"
         sodipodi:rx="48"
         sodipodi:cy="64"
         sodipodi:cx="64"
         id="path5878"
         style="fill:#d40000;fill-opacity:1;stroke:none"
         sodipodi:type="arc" />
    </g>
    <g
       id="g5884"
       transform="matrix(0.37500006,0,0,0.37500006,144,577.7263)">
      <path
         style="fill:#d40000;fill-opacity:1;stroke:none"
         d="M 64,0 C 28.653776,0 0,28.653776 0,64 0,99.346224 28.653776,128 64,128 99.346224,128 128,99.346224 128,64 128,28.653776 99.346224,0 64,0 z m 0,8 c 30.927946,0 56,25.072054 56,56 0,30.927946 -25.072054,56 -56,56 C 33.072054,120 8,94.927946 8,64 8,33.072054 33.072054,8 64,8 z"
         transform="translate(0,924.36218)"
         id="path5886"
         inkscape:connector-curvature="0" />
      <path
         sodipodi:type="arc"
         style="fill:#d40000;fill-opacity:1;stroke:none"
         id="path5888"
         sodipodi:cx="64"
         sodipodi:cy="64"
         sodipodi:rx="48"
         sodipodi:ry="48"
         d="M 112,64 A 48,48 0 0 1 64,112 48,48 0 0 1 16,64 48,48 0 0 1 64,16 48,48 0 0 1 112,64 Z"
         transform="translate(0,924.36218)" />
    </g>
    <g
       id="g5890"
       transform="matrix(0.25,0,0,0.25,144,757.27164)">
      <path
         style="fill:#d40000;fill-opacity:1;stroke:none"
         d="M 64,0 C 28.653776,0 0,28.653776 0,64 0,99.346224 28.653776,128 64,128 99.346224,128 128,99.346224 128,64 128,28.653776 99.346224,0 64,0 z m 0,8 c 30.927946,0 56,25.072054 56,56 0,30.927946 -25.072054,56 -56,56 C 33.072054,120 8,94.927946 8,64 8,33.072054 33.072054,8 64,8 z"
         transform="translate(0,924.36218)"
         id="path5892"
         inkscape:connector-curvature="0" />
      <path
         sodipodi:type="arc"
         style="fill:#d40000;fill-opacity:1;stroke:none"
         id="path5894"
         sodipodi:cx="64"
         sodipodi:cy="64"
         sodipodi:rx="48"
         sodipodi:ry="48"
         d="M 112,64 A 48,48 0 0 1 64,112 48,48 0 0 1 16,64 48,48 0 0 1 64,16 48,48 0 0 1 112,64 Z"
         transform="translate(0,924.36218)" />
    </g>
    <g
       id="g5896"
       transform="matrix(0.125,0,0,0.125,144,920.81691)">
      <path
         style="fill:#d40000;fill-opacity:1;stroke:none"
         d="M 64,0 C 28.653776,0 0,28.653776 0,64 0,99.346224 28.653776,128 64,128 99.346224,128 128,99.346224 128,64 128,28.653776 99.346224,0 64,0 z m 0,8 c 30.927946,0 56,25.072054 56,56 0,30.927946 -25.072054,56 -56,56 C 33.072054,120 8,94.927946 8,64 8,33.072054 33.072054,8 64,8 z"
         transform="translate(0,924.36218)"
         id="path5898"
         inkscape:connector-curvature="0" />
      <path
         sodipodi:type="arc"
         style="fill:#d40000;fill-opacity:1;stroke:none"
         id="path5900"
         sodipodi:cx="64"
         sodipodi:cy="64"
         sodipodi:rx="48"
         sodipodi:ry="48"
         d="M 112,64 A 48,48 0 0 1 64,112 48,48 0 0 1 16,64 48,48 0 0 1 64,16 48,48 0 0 1 112,64 Z"
         transform="translate(0,924.36218)" />
    </g>
  </g>
</svg>
