<?xml version="1.0" encoding="UTF-8" standalone="no"?>
<!-- Created with Inkscape (http://www.inkscape.org/) -->

<svg
   xmlns:dc="http://purl.org/dc/elements/1.1/"
   xmlns:cc="http://creativecommons.org/ns#"
   xmlns:rdf="http://www.w3.org/1999/02/22-rdf-syntax-ns#"
   xmlns:svg="http://www.w3.org/2000/svg"
   xmlns="http://www.w3.org/2000/svg"
   xmlns:sodipodi="http://sodipodi.sourceforge.net/DTD/sodipodi-0.dtd"
   xmlns:inkscape="http://www.inkscape.org/namespaces/inkscape"
   sodipodi:docname="zoom-in-symbolic.svg"
   inkscape:version="0.91 r13725"
   version="1.1"
   id="svg2"
   height="128"
   width="128">
  <sodipodi:namedview
     id="base"
     pagecolor="#ffffff"
     bordercolor="#666666"
     borderopacity="1.0"
     inkscape:pageopacity="0.0"
     inkscape:pageshadow="2"
     inkscape:zoom="1.4473592"
     inkscape:cx="46.589593"
     inkscape:cy="55.813212"
     inkscape:document-units="px"
     inkscape:current-layer="layer1"
     showgrid="true"
     showguides="true"
     inkscape:guide-bbox="true"
     inkscape:window-width="1920"
     inkscape:window-height="1028"
     inkscape:window-x="-8"
     inkscape:window-y="-8"
     inkscape:window-maximized="1">
    <inkscape:grid
       snapvisiblegridlinesonly="true"
       enabled="true"
       visible="true"
       empspacing="4"
       id="grid2985"
       type="xygrid" />
  </sodipodi:namedview>
  <defs
     id="defs4" />
  <metadata
     id="metadata7">
    <rdf:RDF>
      <cc:Work
         rdf:about="">
        <dc:format>image/svg+xml</dc:format>
        <dc:type
           rdf:resource="http://purl.org/dc/dcmitype/StillImage" />
        <dc:title />
      </cc:Work>
    </rdf:RDF>
  </metadata>
  <g
     transform="translate(0,-924.36218)"
     id="layer1"
     inkscape:groupmode="layer"
     inkscape:label="Layer 1">
    <rect
       ry="0"
       rx="4.6539506e-07"
       y="924.36218"
       x="136"
       height="32.000004"
       width="32"
       id="rect6882"
       style="fill:none;stroke:none;stroke-width:1.01388812000000006" />
    <text
       xml:space="preserve"
       style="font-size:24px;font-style:normal;font-weight:normal;line-height:125%;letter-spacing:0px;word-spacing:0px;fill:#000000;fill-opacity:1;stroke:none;font-family:Sans"
       x="-56"
       y="948.36218"
       id="text5893"
       sodipodi:linespacing="125%"><tspan
         sodipodi:role="line"
         id="tspan5895"
         x="-56"
         y="948.36218">128</tspan></text>
    <text
       xml:space="preserve"
       style="font-size:16px;font-style:normal;font-weight:normal;line-height:125%;letter-spacing:0px;word-spacing:0px;fill:#000000;fill-opacity:1;stroke:none;font-family:Sans"
       x="200"
       y="940.36218"
       id="text5897"
       sodipodi:linespacing="125%"><tspan
         sodipodi:role="line"
         id="tspan5899"
         x="200"
         y="940.36218">48 - 32</tspan></text>
    <text
       sodipodi:linespacing="125%"
       id="text5901"
       y="1000.3622"
       x="184"
       style="font-size:16px;font-style:normal;font-weight:normal;line-height:125%;letter-spacing:0px;word-spacing:0px;fill:#000000;fill-opacity:1;stroke:none;font-family:Sans"
       xml:space="preserve"><tspan
         y="1000.3622"
         x="184"
         id="tspan5903"
         sodipodi:role="line">31 - 17</tspan></text>
    <text
       xml:space="preserve"
       style="font-size:16px;font-style:normal;font-weight:normal;line-height:125%;letter-spacing:0px;word-spacing:0px;fill:#000000;fill-opacity:1;stroke:none;font-family:Sans"
       x="172"
       y="1048.3622"
       id="text5905"
       sodipodi:linespacing="125%"><tspan
         sodipodi:role="line"
         id="tspan5907"
         x="172"
         y="1048.3622">16</tspan></text>
    <rect
       style="fill:none;fill-opacity:1;stroke:#000000"
       id="rect5917"
       width="56"
       height="56"
       x="140"
       y="-4"
       rx="4.5902016e-07"
       transform="translate(0,924.36218)" />
    <rect
       style="fill:none;stroke:#000000;stroke-width:1;stroke-linecap:round;stroke-linejoin:round;stroke-miterlimit:4;stroke-opacity:1;stroke-dasharray:none;stroke-dashoffset:0"
       id="rect5919"
       width="40"
       height="40"
       x="140"
       y="60"
       transform="translate(0,924.36218)"
       rx="4.5902016e-07" />
    <rect
       style="fill:none;stroke:#000000;stroke-width:1;stroke-linecap:round;stroke-linejoin:round;stroke-miterlimit:4;stroke-opacity:1;stroke-dasharray:none;stroke-dashoffset:0"
       id="rect5921"
       width="24"
       height="24"
       x="140"
       y="108"
       transform="translate(0,924.36218)"
       rx="4.5902016e-07" />
    <rect
       style="fill:#b3b3b3;stroke:none"
       id="rect6931"
       width="48"
       height="4"
       x="144"
       y="916.36218"
       rx="4.5902016e-07" />
    <rect
       style="fill:#b3b3b3;fill-opacity:1;stroke:none"
       id="rect6933"
       width="4"
       height="48"
       x="136"
       y="924.36218"
       rx="4.5902016e-07" />
    <rect
       style="fill:#b3b3b3;fill-opacity:1;stroke:none"
       id="rect6935"
       width="32"
       height="4"
       x="144"
       y="56"
       transform="translate(0,924.36218)"
       rx="4.5902016e-07" />
    <rect
       style="fill:#b3b3b3;fill-opacity:1;stroke:none"
       id="rect6937"
       width="4"
       height="32"
       x="136"
       y="64"
       transform="translate(0,924.36218)"
       rx="4.5902016e-07" />
    <rect
       style="fill:#b3b3b3;fill-opacity:1;stroke:none"
       id="rect6939"
       width="16"
       height="4"
       x="144"
       y="104"
       transform="translate(0,924.36218)"
       rx="4.5902016e-07" />
    <rect
       style="fill:#b3b3b3;fill-opacity:1;stroke:none"
       id="rect6941"
       width="4"
       height="16"
       x="136"
       y="112"
       transform="translate(0,924.36218)"
       rx="4.5902016e-07" />
    <g
       id="g5820">
      <path
         id="path10275"
         transform="translate(0,924.36218)"
         d="M 44 0 C 19.699471 0 0 19.699471 0 44 C 0 68.300529 19.699471 88 44 88 C 53.345031 88 61.999513 85.092922 69.125 80.125 A 8.0008 8.0008 0 0 0 70.34375 81.65625 L 114.34375 125.65625 A 8.0008 8.0008 0 1 0 125.65625 114.34375 L 81.65625 70.34375 A 8.0008 8.0008 0 0 0 80.125 69.125 C 85.092922 61.999513 88 53.345031 88 44 C 88 19.699471 68.300529 -9.4739031e-15 44 0 z M 44 8 C 63.882251 8 80 24.117749 80 44 C 80 63.882251 63.882251 80 44 80 C 24.117749 80 8 63.882251 8 44 C 8 24.117749 24.117749 8 44 8 z "
         style="fill:#b3b3b3;fill-opacity:1;stroke:none" />
      <rect
         rx="1.1085772e-07"
         transform="translate(0,924.36218)"
         y="16"
         x="40"
         height="56"
         width="8"
         id="rect5816"
         style="fill:#b3b3b3;fill-opacity:1;stroke:none" />
      <rect
         rx="1.1085772e-07"
         transform="translate(0,924.36218)"
         y="40"
         x="16"
         height="8"
         width="56"
         id="rect5818"
         style="fill:#b3b3b3;fill-opacity:1;stroke:none" />
    </g>
    <g
       id="g5825"
       transform="matrix(0.37466091,0,0,0.37466091,144,578.0398)">
      <path
         style="fill:#b3b3b3;fill-opacity:1;stroke:none"
         d="M 44,0 C 19.699471,0 0,19.699471 0,44 c 0,24.300529 19.699471,44 44,44 9.345031,0 17.999513,-2.907078 25.125,-7.875 a 8.0008,8.0008 0 0 0 1.21875,1.53125 l 44,44 a 8.0008,8.0008 0 1 0 11.3125,-11.3125 l -44,-44 A 8.0008,8.0008 0 0 0 80.125,69.125 C 85.092922,61.999513 88,53.345031 88,44 88,19.699471 68.300529,0 44,0 z m 0,8 C 63.882251,8 80,24.117749 80,44 80,63.882251 63.882251,80 44,80 24.117749,80 8,63.882251 8,44 8,24.117749 24.117749,8 44,8 z"
         transform="translate(0,924.36218)"
         id="path5827"
         inkscape:connector-curvature="0" />
      <rect
         style="fill:#b3b3b3;fill-opacity:1;stroke:none"
         id="rect5829"
         width="8"
         height="56"
         x="40"
         y="16"
         transform="translate(0,924.36218)"
         rx="1.1085772e-07" />
      <rect
         style="fill:#b3b3b3;fill-opacity:1;stroke:none"
         id="rect5831"
         width="56"
         height="8"
         x="16"
         y="40"
         transform="translate(0,924.36218)"
         rx="1.1085772e-07" />
    </g>
    <g
       id="g5833"
       transform="matrix(0.24977394,0,0,0.24977394,144,757.4806)">
      <path
         style="fill:#b3b3b3;fill-opacity:1;stroke:none"
         d="M 44,0 C 19.699471,0 0,19.699471 0,44 c 0,24.300529 19.699471,44 44,44 9.345031,0 17.999513,-2.907078 25.125,-7.875 a 8.0008,8.0008 0 0 0 1.21875,1.53125 l 44,44 a 8.0008,8.0008 0 1 0 11.3125,-11.3125 l -44,-44 A 8.0008,8.0008 0 0 0 80.125,69.125 C 85.092922,61.999513 88,53.345031 88,44 88,19.699471 68.300529,0 44,0 z m 0,8 C 63.882251,8 80,24.117749 80,44 80,63.882251 63.882251,80 44,80 24.117749,80 8,63.882251 8,44 8,24.117749 24.117749,8 44,8 z"
         transform="translate(0,924.36218)"
         id="path5835"
         inkscape:connector-curvature="0" />
      <rect
         style="fill:#b3b3b3;fill-opacity:1;stroke:none"
         id="rect5837"
         width="8"
         height="56"
         x="40"
         y="16"
         transform="translate(0,924.36218)"
         rx="1.1085772e-07" />
      <rect
         style="fill:#b3b3b3;fill-opacity:1;stroke:none"
         id="rect5839"
         width="56"
         height="8"
         x="16"
         y="40"
         transform="translate(0,924.36218)"
         rx="1.1085772e-07" />
    </g>
    <g
       id="g5841"
       transform="matrix(0.12488697,0,0,0.12488697,144,920.92139)">
      <path
         style="fill:#b3b3b3;fill-opacity:1;stroke:none"
         d="M 44,0 C 19.699471,0 0,19.699471 0,44 c 0,24.300529 19.699471,44 44,44 9.345031,0 17.999513,-2.907078 25.125,-7.875 a 8.0008,8.0008 0 0 0 1.21875,1.53125 l 44,44 a 8.0008,8.0008 0 1 0 11.3125,-11.3125 l -44,-44 A 8.0008,8.0008 0 0 0 80.125,69.125 C 85.092922,61.999513 88,53.345031 88,44 88,19.699471 68.300529,0 44,0 z m 0,8 C 63.882251,8 80,24.117749 80,44 80,63.882251 63.882251,80 44,80 24.117749,80 8,63.882251 8,44 8,24.117749 24.117749,8 44,8 z"
         transform="translate(0,924.36218)"
         id="path5843"
         inkscape:connector-curvature="0" />
      <rect
         style="fill:#b3b3b3;fill-opacity:1;stroke:none"
         id="rect5845"
         width="8"
         height="56"
         x="40"
         y="16"
         transform="translate(0,924.36218)"
         rx="1.1085772e-07" />
      <rect
         style="fill:#b3b3b3;fill-opacity:1;stroke:none"
         id="rect5847"
         width="56"
         height="8"
         x="16"
         y="40"
         transform="translate(0,924.36218)"
         rx="1.1085772e-07" />
    </g>
  </g>
</svg>
