<?xml version="1.0" encoding="UTF-8" standalone="no"?>
<!-- Created with Inkscape (http://www.inkscape.org/) -->

<svg
   xmlns:dc="http://purl.org/dc/elements/1.1/"
   xmlns:cc="http://creativecommons.org/ns#"
   xmlns:rdf="http://www.w3.org/1999/02/22-rdf-syntax-ns#"
   xmlns:svg="http://www.w3.org/2000/svg"
   xmlns="http://www.w3.org/2000/svg"
   xmlns:sodipodi="http://sodipodi.sourceforge.net/DTD/sodipodi-0.dtd"
   xmlns:inkscape="http://www.inkscape.org/namespaces/inkscape"
   sodipodi:docname="zoom-fit-symbolic.svg"
   inkscape:version="0.91 r13725"
   version="1.1"
   id="svg2"
   height="128"
   width="128">
  <sodipodi:namedview
     id="base"
     pagecolor="#ffffff"
     bordercolor="#666666"
     borderopacity="1.0"
     inkscape:pageopacity="0.0"
     inkscape:pageshadow="2"
     inkscape:zoom="16.375"
     inkscape:cx="158.64284"
     inkscape:cy="49.388761"
     inkscape:document-units="px"
     inkscape:current-layer="layer1"
     showgrid="true"
     showguides="true"
     inkscape:guide-bbox="true"
     inkscape:window-width="789"
     inkscape:window-height="733"
     inkscape:window-x="50"
     inkscape:window-y="50"
     inkscape:window-maximized="0">
    <inkscape:grid
       snapvisiblegridlinesonly="true"
       enabled="true"
       visible="true"
       empspacing="4"
       id="grid2985"
       type="xygrid" />
  </sodipodi:namedview>
  <defs
     id="defs4" />
  <metadata
     id="metadata7">
    <rdf:RDF>
      <cc:Work
         rdf:about="">
        <dc:format>image/svg+xml</dc:format>
        <dc:type
           rdf:resource="http://purl.org/dc/dcmitype/StillImage" />
        <dc:title />
      </cc:Work>
    </rdf:RDF>
  </metadata>
  <g
     transform="translate(0,-924.36218)"
     id="layer1"
     inkscape:groupmode="layer"
     inkscape:label="Layer 1">
    <text
       xml:space="preserve"
       style="font-size:24px;font-style:normal;font-weight:normal;line-height:125%;letter-spacing:0px;word-spacing:0px;fill:#000000;fill-opacity:1;stroke:none;font-family:Sans"
       x="-56"
       y="948.36218"
       id="text5893"
       sodipodi:linespacing="125%"><tspan
         sodipodi:role="line"
         id="tspan5895"
         x="-56"
         y="948.36218">128</tspan></text>
    <text
       xml:space="preserve"
       style="font-size:16px;font-style:normal;font-weight:normal;line-height:125%;letter-spacing:0px;word-spacing:0px;fill:#000000;fill-opacity:1;stroke:none;font-family:Sans"
       x="200"
       y="940.36218"
       id="text5897"
       sodipodi:linespacing="125%"><tspan
         sodipodi:role="line"
         id="tspan5899"
         x="200"
         y="940.36218">48 - 32</tspan></text>
    <text
       sodipodi:linespacing="125%"
       id="text5901"
       y="1000.3622"
       x="184"
       style="font-size:16px;font-style:normal;font-weight:normal;line-height:125%;letter-spacing:0px;word-spacing:0px;fill:#000000;fill-opacity:1;stroke:none;font-family:Sans"
       xml:space="preserve"><tspan
         y="1000.3622"
         x="184"
         id="tspan5903"
         sodipodi:role="line">31 - 17</tspan></text>
    <text
       xml:space="preserve"
       style="font-size:16px;font-style:normal;font-weight:normal;line-height:125%;letter-spacing:0px;word-spacing:0px;fill:#000000;fill-opacity:1;stroke:none;font-family:Sans"
       x="172"
       y="1048.3622"
       id="text5905"
       sodipodi:linespacing="125%"><tspan
         sodipodi:role="line"
         id="tspan5907"
         x="172"
         y="1048.3622">16</tspan></text>
    <rect
       style="fill:none;fill-opacity:1;stroke:#000000"
       id="rect5917"
       width="56"
       height="56"
       x="140"
       y="-4"
       rx="4.5902016e-07"
       transform="translate(0,924.36218)" />
    <rect
       style="fill:none;stroke:#000000;stroke-width:1;stroke-linecap:round;stroke-linejoin:round;stroke-miterlimit:4;stroke-opacity:1;stroke-dasharray:none;stroke-dashoffset:0"
       id="rect5919"
       width="40"
       height="40"
       x="140"
       y="60"
       transform="translate(0,924.36218)"
       rx="4.5902016e-07" />
    <rect
       style="fill:none;stroke:#000000;stroke-width:1;stroke-linecap:round;stroke-linejoin:round;stroke-miterlimit:4;stroke-opacity:1;stroke-dasharray:none;stroke-dashoffset:0"
       id="rect5921"
       width="24"
       height="24"
       x="140"
       y="108"
       transform="translate(0,924.36218)"
       rx="4.5902016e-07" />
    <rect
       style="fill:#b3b3b3;stroke:none"
       id="rect6931"
       width="48"
       height="4"
       x="144"
       y="916.36218"
       rx="4.5902016e-07" />
    <rect
       style="fill:#b3b3b3;fill-opacity:1;stroke:none"
       id="rect6933"
       width="4"
       height="48"
       x="136"
       y="924.36218"
       rx="4.5902016e-07" />
    <rect
       style="fill:#b3b3b3;fill-opacity:1;stroke:none"
       id="rect6935"
       width="32"
       height="4"
       x="144"
       y="56"
       transform="translate(0,924.36218)"
       rx="4.5902016e-07" />
    <rect
       style="fill:#b3b3b3;fill-opacity:1;stroke:none"
       id="rect6937"
       width="4"
       height="32"
       x="136"
       y="64"
       transform="translate(0,924.36218)"
       rx="4.5902016e-07" />
    <rect
       style="fill:#b3b3b3;fill-opacity:1;stroke:none"
       id="rect6939"
       width="16"
       height="4"
       x="144"
       y="104"
       transform="translate(0,924.36218)"
       rx="4.5902016e-07" />
    <rect
       style="fill:#b3b3b3;fill-opacity:1;stroke:none"
       id="rect6941"
       width="4"
       height="16"
       x="136"
       y="112"
       transform="translate(0,924.36218)"
       rx="4.5902016e-07" />
    <path
       style="fill:#b3b3b3;fill-opacity:1;stroke:none"
       d="M 44 0 C 19.699471 0 0 19.69947 0 44 C 0 68.30053 19.699471 88 44 88 C 44.754048 88 45.505385 87.974911 46.25 87.9375 C 46.8477 87.907471 47.440139 87.866117 48.03125 87.8125 C 48.419135 87.777227 48.802589 87.732775 49.1875 87.6875 C 49.73292 87.623638 50.273413 87.552363 50.8125 87.46875 C 50.832596 87.46562 50.854913 87.471908 50.875 87.46875 C 51.55143 87.362859 52.209222 87.230088 52.875 87.09375 C 53.316694 87.003366 53.750735 86.916012 54.1875 86.8125 C 54.616064 86.711067 55.045153 86.613874 55.46875 86.5 C 55.583329 86.469159 55.698292 86.437991 55.8125 86.40625 C 56.243451 86.286626 56.668239 86.163565 57.09375 86.03125 C 57.198495 85.998671 57.301843 85.970839 57.40625 85.9375 C 57.988134 85.751768 58.553928 85.552792 59.125 85.34375 C 59.80299 85.095571 60.463095 84.81143 61.125 84.53125 C 61.733914 84.273501 62.342945 84.002829 62.9375 83.71875 C 63.064102 83.65826 63.186569 83.592914 63.3125 83.53125 C 63.375137 83.500575 63.437531 83.468463 63.5 83.4375 C 64.772647 82.806728 66.019268 82.121978 67.21875 81.375 C 67.406609 81.258027 67.595298 81.150963 67.78125 81.03125 C 68.162549 80.785839 68.533097 80.538033 68.90625 80.28125 C 68.979813 80.230622 69.051761 80.176063 69.125 80.125 A 8.0008 8.0008 0 0 0 70.34375 81.65625 L 114.34375 125.65625 A 8.0008 8.0008 0 1 0 125.65625 114.34375 L 81.65625 70.34375 A 8.0008 8.0008 0 0 0 80.125 69.125 C 80.249544 68.946366 80.378059 68.774293 80.5 68.59375 C 80.682151 68.324131 80.854964 68.055078 81.03125 67.78125 C 81.235067 67.464578 81.429178 67.134641 81.625 66.8125 C 81.712015 66.669292 81.78958 66.519274 81.875 66.375 C 82.512933 65.298057 83.110302 64.19577 83.65625 63.0625 C 83.676545 63.020382 83.698586 62.979692 83.71875 62.9375 C 84.002829 62.342945 84.273501 61.733914 84.53125 61.125 C 84.81143 60.463095 85.095571 59.80299 85.34375 59.125 C 85.363086 59.072192 85.387111 59.021652 85.40625 58.96875 C 85.630776 58.347907 85.834263 57.727238 86.03125 57.09375 C 86.162681 56.671186 86.287322 56.240419 86.40625 55.8125 C 86.481015 55.543152 86.55526 55.271406 86.625 55 C 86.6943 54.730653 86.748199 54.458817 86.8125 54.1875 C 86.914326 53.757274 87.004665 53.310029 87.09375 52.875 C 87.230088 52.209223 87.362859 51.55143 87.46875 50.875 C 87.478523 50.812572 87.49049 50.750015 87.5 50.6875 C 87.576272 50.18833 87.628153 49.692042 87.6875 49.1875 C 87.732775 48.802589 87.777227 48.419135 87.8125 48.03125 C 87.866117 47.44014 87.907471 46.8477 87.9375 46.25 C 87.97491 45.505385 88 44.754048 88 44 C 88 19.69947 68.300529 0 44 0 z M 16 16 L 72 16 L 72 72 L 16 72 L 16 16 z "
       id="path10275"
       transform="translate(0,924.36218)" />
    <path
       id="path5839"
       d="m 160.48538,924.36237 c -9.10446,0 -16.48508,7.38063 -16.48508,16.48508 0,9.10446 7.38062,16.48508 16.48508,16.48508 0.28251,0 0.56401,-0.009 0.84299,-0.0234 0.22393,-0.0113 0.4459,-0.0267 0.66736,-0.0468 0.14533,-0.0132 0.28899,-0.0299 0.4332,-0.0468 0.20435,-0.0239 0.40685,-0.0506 0.60883,-0.082 0.007,-10e-4 0.0159,0.001 0.0234,0 0.25343,-0.0397 0.49988,-0.0894 0.74932,-0.1405 0.16548,-0.0339 0.3281,-0.0666 0.49174,-0.10538 0.16057,-0.038 0.32133,-0.0744 0.48004,-0.11708 0.0429,-0.0115 0.086,-0.0232 0.12879,-0.0351 0.16146,-0.0448 0.32061,-0.0909 0.48003,-0.1405 0.0392,-0.0122 0.078,-0.0226 0.11708,-0.0351 0.21801,-0.0696 0.42999,-0.14414 0.64395,-0.22246 0.25402,-0.093 0.50133,-0.19944 0.74932,-0.30441 0.22814,-0.0966 0.45632,-0.19798 0.67907,-0.30441 0.0474,-0.0227 0.0933,-0.0471 0.1405,-0.0702 0.0235,-0.0115 0.0468,-0.0235 0.0702,-0.0351 0.47681,-0.23632 0.94387,-0.49287 1.39327,-0.77273 0.0704,-0.0438 0.14108,-0.0839 0.21075,-0.12879 0.14286,-0.0919 0.28169,-0.18479 0.42149,-0.281 0.0276,-0.019 0.0545,-0.0394 0.082,-0.0585 a 2.997587,2.997587 0 0 0 0.45662,0.5737 l 16.48508,16.4851 a 2.997587,2.997587 0 1 0 4.23835,-4.2384 l -16.48508,-16.48505 a 2.997587,2.997587 0 0 0 -0.5737,-0.45662 c 0.0467,-0.0669 0.0948,-0.1314 0.1405,-0.19904 0.0683,-0.10101 0.13299,-0.20182 0.19904,-0.30441 0.0764,-0.11865 0.14909,-0.24226 0.22245,-0.36295 0.0326,-0.0537 0.0617,-0.10986 0.0937,-0.16392 0.23901,-0.40349 0.46282,-0.81647 0.66737,-1.24106 0.008,-0.0158 0.0159,-0.031 0.0234,-0.0468 0.10643,-0.22276 0.20784,-0.45094 0.30441,-0.67908 0.10497,-0.24799 0.21143,-0.4953 0.30441,-0.74932 0.007,-0.0198 0.0163,-0.0387 0.0234,-0.0585 0.0841,-0.23261 0.16036,-0.46515 0.23417,-0.70249 0.0492,-0.15832 0.0959,-0.31971 0.14049,-0.48003 0.028,-0.10092 0.0558,-0.20273 0.082,-0.30442 0.026,-0.10091 0.0462,-0.20276 0.0703,-0.30441 0.0382,-0.16119 0.072,-0.32875 0.10538,-0.49174 0.0511,-0.24944 0.10082,-0.49589 0.1405,-0.74932 0.004,-0.0234 0.008,-0.0468 0.0117,-0.0703 0.0286,-0.18702 0.048,-0.37296 0.0702,-0.56199 0.017,-0.14421 0.0336,-0.28788 0.0468,-0.4332 0.0201,-0.22147 0.0356,-0.44343 0.0468,-0.66737 0.014,-0.27898 0.0234,-0.56047 0.0234,-0.84299 0,-9.10445 -7.38062,-16.48508 -16.48508,-16.48508 z m -10.49051,5.99458 20.98102,0 0,20.98101 -20.98102,0 0,-20.98101 z"
       style="fill:#b3b3b3;fill-opacity:1;stroke:none"
       inkscape:connector-curvature="0" />
    <path
       id="path5841"
       d="m 154.99026,988.36233 c -6.06964,0 -10.99006,4.92042 -10.99006,10.99006 0,6.06961 4.92042,10.99001 10.99006,10.99001 0.18834,0 0.376,-0.01 0.56199,-0.016 0.14929,-0.01 0.29726,-0.018 0.44491,-0.031 0.0969,-0.01 0.19266,-0.02 0.2888,-0.031 0.13623,-0.016 0.27123,-0.034 0.40588,-0.055 0.005,-7e-4 0.0106,8e-4 0.0156,0 0.16896,-0.026 0.33325,-0.06 0.49955,-0.094 0.11032,-0.023 0.21873,-0.044 0.32783,-0.07 0.10704,-0.025 0.21422,-0.05 0.32002,-0.078 0.0286,-0.01 0.0573,-0.015 0.0859,-0.023 0.10764,-0.03 0.21374,-0.061 0.32002,-0.094 0.0262,-0.01 0.052,-0.015 0.0781,-0.023 0.14534,-0.046 0.28666,-0.096 0.4293,-0.1483 0.16935,-0.062 0.33422,-0.1329 0.49955,-0.2029 0.15209,-0.064 0.30421,-0.132 0.45272,-0.2029 0.0316,-0.015 0.0622,-0.031 0.0937,-0.047 0.0156,-0.01 0.0312,-0.016 0.0468,-0.023 0.31787,-0.1576 0.62924,-0.3286 0.92884,-0.5152 0.0469,-0.029 0.094,-0.056 0.1405,-0.086 0.0952,-0.061 0.18779,-0.1232 0.281,-0.1873 0.0184,-0.013 0.0363,-0.026 0.0546,-0.039 a 1.9983913,1.9983913 0 0 0 0.30441,0.3824 l 10.99005,10.9901 a 1.9983913,1.9983913 0 1 0 2.82557,-2.8256 l -10.99005,-10.9901 a 1.9983913,1.9983913 0 0 0 -0.38247,-0.3044 c 0.0311,-0.045 0.0632,-0.088 0.0937,-0.1327 0.0455,-0.067 0.0887,-0.1346 0.13269,-0.203 0.0509,-0.079 0.0994,-0.1615 0.14831,-0.2419 0.0217,-0.036 0.0411,-0.073 0.0624,-0.1093 0.15933,-0.269 0.30854,-0.5443 0.4449,-0.8274 0.005,-0.01 0.0106,-0.021 0.0156,-0.031 0.071,-0.1485 0.13857,-0.3006 0.20295,-0.4527 0.07,-0.1653 0.14095,-0.3302 0.20294,-0.4996 0.005,-0.013 0.0108,-0.026 0.0156,-0.039 0.0561,-0.155 0.1069,-0.3101 0.15611,-0.4683 0.0328,-0.1055 0.064,-0.2131 0.0937,-0.32 0.0187,-0.067 0.0372,-0.1352 0.0546,-0.2029 0.0173,-0.067 0.0308,-0.1352 0.0468,-0.203 0.0254,-0.1074 0.048,-0.2192 0.0703,-0.3278 0.0341,-0.1663 0.0672,-0.3306 0.0937,-0.4996 0.002,-0.016 0.005,-0.031 0.008,-0.047 0.019,-0.1246 0.032,-0.2486 0.0468,-0.3746 0.0113,-0.096 0.0224,-0.1919 0.0312,-0.2888 0.0134,-0.1477 0.0237,-0.2956 0.0312,-0.44494 0.009,-0.18599 0.0156,-0.37365 0.0156,-0.56199 0,-6.06964 -4.92042,-10.99006 -10.99006,-10.99006 z m -6.99367,3.99639 13.98734,0 0,13.98738 -13.98734,0 0,-13.98738 z"
       style="fill:#b3b3b3;fill-opacity:1;stroke:none"
       inkscape:connector-curvature="0" />
    <path
       id="path5843"
       d="m 149.495,1036.3622 c -3.03482,0 -5.49502,2.4602 -5.49502,5.495 0,3.0348 2.4602,5.495 5.49502,5.495 0.0942,0 0.18801,-0 0.281,-0.01 0.0746,-0 0.14863,-0.01 0.22245,-0.016 0.0484,-0 0.0963,-0.01 0.1444,-0.016 0.0681,-0.01 0.13562,-0.017 0.20295,-0.027 0.002,-4e-4 0.005,4e-4 0.008,0 0.0845,-0.013 0.16662,-0.03 0.24977,-0.047 0.0552,-0.011 0.10937,-0.022 0.16391,-0.035 0.0535,-0.013 0.10711,-0.025 0.16002,-0.039 0.0143,-0 0.0287,-0.01 0.0429,-0.012 0.0538,-0.015 0.10687,-0.03 0.16001,-0.047 0.0131,-0 0.026,-0.01 0.039,-0.012 0.0727,-0.023 0.14333,-0.048 0.21465,-0.074 0.0847,-0.031 0.16711,-0.067 0.24977,-0.1015 0.0761,-0.032 0.15211,-0.066 0.22636,-0.1014 0.0158,-0.01 0.0311,-0.016 0.0468,-0.023 0.008,-0 0.0156,-0.01 0.0234,-0.012 0.15894,-0.079 0.31462,-0.1643 0.46442,-0.2576 0.0235,-0.015 0.047,-0.028 0.0702,-0.043 0.0476,-0.031 0.0939,-0.062 0.1405,-0.094 0.009,-0.01 0.0182,-0.013 0.0273,-0.02 a 0.99919566,0.99919566 0 0 0 0.15221,0.1912 l 5.49502,5.4951 a 0.99919566,0.99919566 0 1 0 1.41279,-1.4128 l -5.49503,-5.4951 a 0.99919566,0.99919566 0 0 0 -0.19123,-0.1522 c 0.0155,-0.022 0.0316,-0.044 0.0468,-0.066 0.0228,-0.034 0.0443,-0.067 0.0663,-0.1014 0.0255,-0.039 0.0497,-0.081 0.0742,-0.121 0.0109,-0.018 0.0205,-0.037 0.0312,-0.055 0.0797,-0.1345 0.15427,-0.2722 0.22245,-0.4137 0.002,-0.01 0.005,-0.01 0.008,-0.016 0.0355,-0.074 0.0693,-0.1503 0.10147,-0.2264 0.035,-0.083 0.0705,-0.1651 0.10147,-0.2497 0.002,-0.01 0.005,-0.013 0.008,-0.02 0.028,-0.077 0.0534,-0.1551 0.078,-0.2342 0.0164,-0.053 0.032,-0.1066 0.0468,-0.16 0.009,-0.034 0.0186,-0.068 0.0273,-0.1015 0.009,-0.034 0.0154,-0.068 0.0234,-0.1014 0.0127,-0.054 0.024,-0.1096 0.0351,-0.164 0.017,-0.083 0.0336,-0.1652 0.0468,-0.2497 0.001,-0.01 0.003,-0.016 0.004,-0.023 0.01,-0.062 0.016,-0.1243 0.0234,-0.1874 0.006,-0.048 0.0112,-0.096 0.0156,-0.1444 0.007,-0.074 0.0119,-0.1478 0.0156,-0.2224 0.005,-0.093 0.008,-0.1868 0.008,-0.281 0,-3.0348 -2.4602,-5.495 -5.49502,-5.495 z m -3.49683,1.9982 6.99367,0 0,6.9936 -6.99367,0 0,-6.9936 z"
       style="fill:#b3b3b3;fill-opacity:1;stroke:none"
       inkscape:connector-curvature="0" />
  </g>
</svg>
