<?xml version="1.0" encoding="UTF-8" standalone="no"?>
<!-- Created with Inkscape (http://www.inkscape.org/) -->

<svg
   xmlns:dc="http://purl.org/dc/elements/1.1/"
   xmlns:cc="http://creativecommons.org/ns#"
   xmlns:rdf="http://www.w3.org/1999/02/22-rdf-syntax-ns#"
   xmlns:svg="http://www.w3.org/2000/svg"
   xmlns="http://www.w3.org/2000/svg"
   xmlns:sodipodi="http://sodipodi.sourceforge.net/DTD/sodipodi-0.dtd"
   xmlns:inkscape="http://www.inkscape.org/namespaces/inkscape"
   sodipodi:docname="zoom-original-symbolic.svg"
   inkscape:version="0.91 r13725"
   version="1.1"
   id="svg2"
   height="128"
   width="128">
  <sodipodi:namedview
     id="base"
     pagecolor="#ffffff"
     bordercolor="#666666"
     borderopacity="1.0"
     inkscape:pageopacity="0.0"
     inkscape:pageshadow="2"
     inkscape:zoom="1.4473592"
     inkscape:cx="102.99635"
     inkscape:cy="105.61292"
     inkscape:document-units="px"
     inkscape:current-layer="layer1"
     showgrid="true"
     showguides="true"
     inkscape:guide-bbox="true"
     inkscape:window-width="1920"
     inkscape:window-height="1028"
     inkscape:window-x="-8"
     inkscape:window-y="-8"
     inkscape:window-maximized="1">
    <inkscape:grid
       snapvisiblegridlinesonly="true"
       enabled="true"
       visible="true"
       empspacing="4"
       id="grid2985"
       type="xygrid" />
  </sodipodi:namedview>
  <defs
     id="defs4" />
  <metadata
     id="metadata7">
    <rdf:RDF>
      <cc:Work
         rdf:about="">
        <dc:format>image/svg+xml</dc:format>
        <dc:type
           rdf:resource="http://purl.org/dc/dcmitype/StillImage" />
        <dc:title />
      </cc:Work>
    </rdf:RDF>
  </metadata>
  <g
     transform="translate(0,-924.36218)"
     id="layer1"
     inkscape:groupmode="layer"
     inkscape:label="Layer 1">
    <rect
       ry="0"
       rx="4.6539506e-07"
       y="924.36218"
       x="136"
       height="32.000004"
       width="32"
       id="rect6882"
       style="fill:none;stroke:none;stroke-width:1.01388812000000006" />
    <text
       xml:space="preserve"
       style="font-size:24px;font-style:normal;font-weight:normal;line-height:125%;letter-spacing:0px;word-spacing:0px;fill:#000000;fill-opacity:1;stroke:none;font-family:Sans"
       x="-56"
       y="948.36218"
       id="text5893"
       sodipodi:linespacing="125%"><tspan
         sodipodi:role="line"
         id="tspan5895"
         x="-56"
         y="948.36218">128</tspan></text>
    <text
       xml:space="preserve"
       style="font-size:16px;font-style:normal;font-weight:normal;line-height:125%;letter-spacing:0px;word-spacing:0px;fill:#000000;fill-opacity:1;stroke:none;font-family:Sans"
       x="200"
       y="940.36218"
       id="text5897"
       sodipodi:linespacing="125%"><tspan
         sodipodi:role="line"
         id="tspan5899"
         x="200"
         y="940.36218">48 - 32</tspan></text>
    <text
       sodipodi:linespacing="125%"
       id="text5901"
       y="1000.3622"
       x="184"
       style="font-size:16px;font-style:normal;font-weight:normal;line-height:125%;letter-spacing:0px;word-spacing:0px;fill:#000000;fill-opacity:1;stroke:none;font-family:Sans"
       xml:space="preserve"><tspan
         y="1000.3622"
         x="184"
         id="tspan5903"
         sodipodi:role="line">31 - 17</tspan></text>
    <text
       xml:space="preserve"
       style="font-size:16px;font-style:normal;font-weight:normal;line-height:125%;letter-spacing:0px;word-spacing:0px;fill:#000000;fill-opacity:1;stroke:none;font-family:Sans"
       x="172"
       y="1048.3622"
       id="text5905"
       sodipodi:linespacing="125%"><tspan
         sodipodi:role="line"
         id="tspan5907"
         x="172"
         y="1048.3622">16</tspan></text>
    <rect
       style="fill:none;fill-opacity:1;stroke:#000000"
       id="rect5917"
       width="56"
       height="56"
       x="140"
       y="-4"
       rx="4.5902016e-07"
       transform="translate(0,924.36218)" />
    <rect
       style="fill:none;stroke:#000000;stroke-width:1;stroke-linecap:round;stroke-linejoin:round;stroke-miterlimit:4;stroke-opacity:1;stroke-dasharray:none;stroke-dashoffset:0"
       id="rect5919"
       width="40"
       height="40"
       x="140"
       y="60"
       transform="translate(0,924.36218)"
       rx="4.5902016e-07" />
    <rect
       style="fill:none;stroke:#000000;stroke-width:1;stroke-linecap:round;stroke-linejoin:round;stroke-miterlimit:4;stroke-opacity:1;stroke-dasharray:none;stroke-dashoffset:0"
       id="rect5921"
       width="24"
       height="24"
       x="140"
       y="108"
       transform="translate(0,924.36218)"
       rx="4.5902016e-07" />
    <rect
       style="fill:#b3b3b3;stroke:none"
       id="rect6931"
       width="48"
       height="4"
       x="144"
       y="916.36218"
       rx="4.5902016e-07" />
    <rect
       style="fill:#b3b3b3;fill-opacity:1;stroke:none"
       id="rect6933"
       width="4"
       height="48"
       x="136"
       y="924.36218"
       rx="4.5902016e-07" />
    <rect
       style="fill:#b3b3b3;fill-opacity:1;stroke:none"
       id="rect6935"
       width="32"
       height="4"
       x="144"
       y="56"
       transform="translate(0,924.36218)"
       rx="4.5902016e-07" />
    <rect
       style="fill:#b3b3b3;fill-opacity:1;stroke:none"
       id="rect6937"
       width="4"
       height="32"
       x="136"
       y="64"
       transform="translate(0,924.36218)"
       rx="4.5902016e-07" />
    <rect
       style="fill:#b3b3b3;fill-opacity:1;stroke:none"
       id="rect6939"
       width="16"
       height="4"
       x="144"
       y="104"
       transform="translate(0,924.36218)"
       rx="4.5902016e-07" />
    <rect
       style="fill:#b3b3b3;fill-opacity:1;stroke:none"
       id="rect6941"
       width="4"
       height="16"
       x="136"
       y="112"
       transform="translate(0,924.36218)"
       rx="4.5902016e-07" />
    <g
       id="g5975">
      <path
         style="fill:#b3b3b3;fill-opacity:1;stroke:none"
         d="m 149.49503,1036.3622 c -3.03482,0 -5.49503,2.4602 -5.49503,5.495 0,3.0348 2.46021,5.4951 5.49503,5.4951 1.16707,0 2.2479,-0.3631 3.13778,-0.9835 a 0.99919567,0.99919567 0 0 0 0.15221,0.1912 l 5.49502,5.495 a 0.99919567,0.99919567 0 1 0 1.41279,-1.4128 l -5.49503,-5.495 a 0.99919567,0.99919567 0 0 0 -0.19123,-0.1522 c 0.62043,-0.8899 0.98348,-1.9707 0.98348,-3.1378 0,-3.0348 -2.4602,-5.495 -5.49502,-5.495 z m 0,0.9991 c 2.48303,0 4.49593,2.0129 4.49593,4.4959 0,2.4831 -2.0129,4.496 -4.49593,4.496 -2.48304,0 -4.49593,-2.0129 -4.49593,-4.496 0,-2.483 2.01289,-4.4959 4.49593,-4.4959 z"
         id="path5843"
         inkscape:connector-curvature="0" />
      <rect
         rx="4.5902016e-07"
         transform="translate(0,924.36218)"
         y="114"
         x="149"
         height="7"
         width="1"
         id="rect5973"
         style="fill:#b3b3b3;fill-opacity:1;stroke:none" />
    </g>
    <g
       id="g5979"
       transform="matrix(2.0000391,0,0,2.0000391,-144.00567,-1084.4027)">
      <path
         inkscape:connector-curvature="0"
         id="path5981"
         d="m 149.49503,1036.3622 c -3.03482,0 -5.49503,2.4602 -5.49503,5.495 0,3.0348 2.46021,5.4951 5.49503,5.4951 1.16707,0 2.2479,-0.3631 3.13778,-0.9835 a 0.99919567,0.99919567 0 0 0 0.15221,0.1912 l 5.49502,5.495 a 0.99919567,0.99919567 0 1 0 1.41279,-1.4128 l -5.49503,-5.495 a 0.99919567,0.99919567 0 0 0 -0.19123,-0.1522 c 0.62043,-0.8899 0.98348,-1.9707 0.98348,-3.1378 0,-3.0348 -2.4602,-5.495 -5.49502,-5.495 z m 0,0.9991 c 2.48303,0 4.49593,2.0129 4.49593,4.4959 0,2.4831 -2.0129,4.496 -4.49593,4.496 -2.48304,0 -4.49593,-2.0129 -4.49593,-4.496 0,-2.483 2.01289,-4.4959 4.49593,-4.4959 z"
         style="fill:#b3b3b3;fill-opacity:1;stroke:none" />
      <rect
         style="fill:#b3b3b3;fill-opacity:1;stroke:none"
         id="rect5983"
         width="1"
         height="7"
         x="149"
         y="114"
         transform="translate(0,924.36218)"
         rx="4.5902016e-07" />
    </g>
    <g
       transform="matrix(3.0000587,0,0,3.0000587,-288.00851,-2184.7853)"
       id="g5985">
      <path
         style="fill:#b3b3b3;fill-opacity:1;stroke:none"
         d="m 149.49503,1036.3622 c -3.03482,0 -5.49503,2.4602 -5.49503,5.495 0,3.0348 2.46021,5.4951 5.49503,5.4951 1.16707,0 2.2479,-0.3631 3.13778,-0.9835 a 0.99919567,0.99919567 0 0 0 0.15221,0.1912 l 5.49502,5.495 a 0.99919567,0.99919567 0 1 0 1.41279,-1.4128 l -5.49503,-5.495 a 0.99919567,0.99919567 0 0 0 -0.19123,-0.1522 c 0.62043,-0.8899 0.98348,-1.9707 0.98348,-3.1378 0,-3.0348 -2.4602,-5.495 -5.49502,-5.495 z m 0,0.9991 c 2.48303,0 4.49593,2.0129 4.49593,4.4959 0,2.4831 -2.0129,4.496 -4.49593,4.496 -2.48304,0 -4.49593,-2.0129 -4.49593,-4.496 0,-2.483 2.01289,-4.4959 4.49593,-4.4959 z"
         id="path5987"
         inkscape:connector-curvature="0" />
      <rect
         rx="4.5902016e-07"
         transform="translate(0,924.36218)"
         y="114"
         x="149"
         height="7"
         width="1"
         id="rect5989"
         style="fill:#b3b3b3;fill-opacity:1;stroke:none" />
    </g>
    <g
       id="g5991"
       transform="matrix(8.0001565,0,0,8.0001565,-1152.0227,-7366.6976)">
      <path
         inkscape:connector-curvature="0"
         id="path5993"
         d="m 149.49503,1036.3622 c -3.03482,0 -5.49503,2.4602 -5.49503,5.495 0,3.0348 2.46021,5.4951 5.49503,5.4951 1.16707,0 2.2479,-0.3631 3.13778,-0.9835 a 0.99919567,0.99919567 0 0 0 0.15221,0.1912 l 5.49502,5.495 a 0.99919567,0.99919567 0 1 0 1.41279,-1.4128 l -5.49503,-5.495 a 0.99919567,0.99919567 0 0 0 -0.19123,-0.1522 c 0.62043,-0.8899 0.98348,-1.9707 0.98348,-3.1378 0,-3.0348 -2.4602,-5.495 -5.49502,-5.495 z m 0,0.9991 c 2.48303,0 4.49593,2.0129 4.49593,4.4959 0,2.4831 -2.0129,4.496 -4.49593,4.496 -2.48304,0 -4.49593,-2.0129 -4.49593,-4.496 0,-2.483 2.01289,-4.4959 4.49593,-4.4959 z"
         style="fill:#b3b3b3;fill-opacity:1;stroke:none" />
      <rect
         style="fill:#b3b3b3;fill-opacity:1;stroke:none"
         id="rect5995"
         width="1"
         height="7"
         x="149"
         y="114"
         transform="translate(0,924.36218)"
         rx="4.5902016e-07" />
    </g>
  </g>
</svg>
