<?xml version="1.0" encoding="UTF-8" standalone="no"?>
<!-- Created with Inkscape (http://www.inkscape.org/) -->

<svg
   xmlns:dc="http://purl.org/dc/elements/1.1/"
   xmlns:cc="http://creativecommons.org/ns#"
   xmlns:rdf="http://www.w3.org/1999/02/22-rdf-syntax-ns#"
   xmlns:svg="http://www.w3.org/2000/svg"
   xmlns="http://www.w3.org/2000/svg"
   xmlns:sodipodi="http://sodipodi.sourceforge.net/DTD/sodipodi-0.dtd"
   xmlns:inkscape="http://www.inkscape.org/namespaces/inkscape"
   sodipodi:docname="zoom-out-symbolic.svg"
   inkscape:version="0.91 r13725"
   version="1.1"
   id="svg2"
   height="128"
   width="128">
  <sodipodi:namedview
     id="base"
     pagecolor="#ffffff"
     bordercolor="#666666"
     borderopacity="1.0"
     inkscape:pageopacity="0.0"
     inkscape:pageshadow="2"
     inkscape:zoom="1.0234375"
     inkscape:cx="161.02598"
     inkscape:cy="-32.264243"
     inkscape:document-units="px"
     inkscape:current-layer="layer1"
     showgrid="true"
     showguides="true"
     inkscape:guide-bbox="true"
     inkscape:window-width="1920"
     inkscape:window-height="1028"
     inkscape:window-x="-8"
     inkscape:window-y="-8"
     inkscape:window-maximized="1">
    <inkscape:grid
       snapvisiblegridlinesonly="true"
       enabled="true"
       visible="true"
       empspacing="4"
       id="grid2985"
       type="xygrid" />
  </sodipodi:namedview>
  <defs
     id="defs4" />
  <metadata
     id="metadata7">
    <rdf:RDF>
      <cc:Work
         rdf:about="">
        <dc:format>image/svg+xml</dc:format>
        <dc:type
           rdf:resource="http://purl.org/dc/dcmitype/StillImage" />
        <dc:title />
      </cc:Work>
    </rdf:RDF>
  </metadata>
  <g
     transform="translate(0,-924.36218)"
     id="layer1"
     inkscape:groupmode="layer"
     inkscape:label="Layer 1">
    <rect
       ry="0"
       rx="4.6539506e-07"
       y="924.36218"
       x="136"
       height="32.000004"
       width="32"
       id="rect6882"
       style="fill:none;stroke:none;stroke-width:1.01388812000000006" />
    <text
       xml:space="preserve"
       style="font-size:24px;font-style:normal;font-weight:normal;line-height:125%;letter-spacing:0px;word-spacing:0px;fill:#000000;fill-opacity:1;stroke:none;font-family:Sans"
       x="-56"
       y="948.36218"
       id="text5893"
       sodipodi:linespacing="125%"><tspan
         sodipodi:role="line"
         id="tspan5895"
         x="-56"
         y="948.36218">128</tspan></text>
    <text
       xml:space="preserve"
       style="font-size:16px;font-style:normal;font-weight:normal;line-height:125%;letter-spacing:0px;word-spacing:0px;fill:#000000;fill-opacity:1;stroke:none;font-family:Sans"
       x="200"
       y="940.36218"
       id="text5897"
       sodipodi:linespacing="125%"><tspan
         sodipodi:role="line"
         id="tspan5899"
         x="200"
         y="940.36218">48 - 32</tspan></text>
    <text
       sodipodi:linespacing="125%"
       id="text5901"
       y="1000.3622"
       x="184"
       style="font-size:16px;font-style:normal;font-weight:normal;line-height:125%;letter-spacing:0px;word-spacing:0px;fill:#000000;fill-opacity:1;stroke:none;font-family:Sans"
       xml:space="preserve"><tspan
         y="1000.3622"
         x="184"
         id="tspan5903"
         sodipodi:role="line">31 - 17</tspan></text>
    <text
       xml:space="preserve"
       style="font-size:16px;font-style:normal;font-weight:normal;line-height:125%;letter-spacing:0px;word-spacing:0px;fill:#000000;fill-opacity:1;stroke:none;font-family:Sans"
       x="172"
       y="1048.3622"
       id="text5905"
       sodipodi:linespacing="125%"><tspan
         sodipodi:role="line"
         id="tspan5907"
         x="172"
         y="1048.3622">16</tspan></text>
    <rect
       style="fill:none;fill-opacity:1;stroke:#000000"
       id="rect5917"
       width="56"
       height="56"
       x="140"
       y="-4"
       rx="4.5902016e-07"
       transform="translate(0,924.36218)" />
    <rect
       style="fill:none;stroke:#000000;stroke-width:1;stroke-linecap:round;stroke-linejoin:round;stroke-miterlimit:4;stroke-opacity:1;stroke-dasharray:none;stroke-dashoffset:0"
       id="rect5919"
       width="40"
       height="40"
       x="140"
       y="60"
       transform="translate(0,924.36218)"
       rx="4.5902016e-07" />
    <rect
       style="fill:none;stroke:#000000;stroke-width:1;stroke-linecap:round;stroke-linejoin:round;stroke-miterlimit:4;stroke-opacity:1;stroke-dasharray:none;stroke-dashoffset:0"
       id="rect5921"
       width="24"
       height="24"
       x="140"
       y="108"
       transform="translate(0,924.36218)"
       rx="4.5902016e-07" />
    <rect
       style="fill:#b3b3b3;stroke:none"
       id="rect6931"
       width="48"
       height="4"
       x="144"
       y="916.36218"
       rx="4.5902016e-07" />
    <rect
       style="fill:#b3b3b3;fill-opacity:1;stroke:none"
       id="rect6933"
       width="4"
       height="48"
       x="136"
       y="924.36218"
       rx="4.5902016e-07" />
    <rect
       style="fill:#b3b3b3;fill-opacity:1;stroke:none"
       id="rect6935"
       width="32"
       height="4"
       x="144"
       y="56"
       transform="translate(0,924.36218)"
       rx="4.5902016e-07" />
    <rect
       style="fill:#b3b3b3;fill-opacity:1;stroke:none"
       id="rect6937"
       width="4"
       height="32"
       x="136"
       y="64"
       transform="translate(0,924.36218)"
       rx="4.5902016e-07" />
    <rect
       style="fill:#b3b3b3;fill-opacity:1;stroke:none"
       id="rect6939"
       width="16"
       height="4"
       x="144"
       y="104"
       transform="translate(0,924.36218)"
       rx="4.5902016e-07" />
    <rect
       style="fill:#b3b3b3;fill-opacity:1;stroke:none"
       id="rect6941"
       width="4"
       height="16"
       x="136"
       y="112"
       transform="translate(0,924.36218)"
       rx="4.5902016e-07" />
    <path
       inkscape:connector-curvature="0"
       style="fill:#b3b3b3;fill-opacity:1;stroke:none"
       d="m 44,924.36218 c -24.300529,0 -44,19.69947 -44,44 0,24.30053 19.699471,44.00002 44,44.00002 9.345031,0 17.999513,-2.9071 25.125,-7.875 a 8.0008,8.0008 0 0 0 1.21875,1.5312 l 44,44 a 8.0008,8.0008 0 1 0 11.3125,-11.3125 l -44,-43.99997 A 8.0008,8.0008 0 0 0 80.125,993.48718 c 4.967922,-7.12549 7.875,-15.77997 7.875,-25.125 0,-24.30053 -19.699471,-44 -44,-44 z m 0,8 c 19.882251,0 36,16.11775 36,36 0,19.88225 -16.117749,36.00002 -36,36.00002 -19.882251,0 -36,-16.11777 -36,-36.00002 0,-19.88225 16.117749,-36 36,-36 z"
       id="path10275" />
    <rect
       style="fill:#b3b3b3;fill-opacity:1;stroke:none"
       id="rect5818"
       width="56"
       height="8"
       x="16"
       y="964.36218"
       rx="1.1085772e-07" />
    <path
       inkscape:connector-curvature="0"
       id="path5827"
       d="m 160.48508,924.36218 c -9.10446,0 -16.48508,7.38062 -16.48508,16.48508 0,9.10446 7.38062,16.48508 16.48508,16.48508 3.50122,0 6.74371,-1.08917 9.41336,-2.95045 a 2.997587,2.997587 0 0 0 0.45661,0.57369 l 16.48508,16.48508 a 2.997587,2.997587 0 1 0 4.23835,-4.23835 L 174.5934,950.71723 a 2.997587,2.997587 0 0 0 -0.57369,-0.45661 c 1.86128,-2.66965 2.95045,-5.91214 2.95045,-9.41336 0,-9.10446 -7.38062,-16.48508 -16.48508,-16.48508 z m 0,2.99729 c 7.4491,0 13.48779,6.03869 13.48779,13.48779 0,7.4491 -6.03869,13.48779 -13.48779,13.48779 -7.4491,0 -13.48779,-6.03869 -13.48779,-13.48779 0,-7.4491 6.03869,-13.48779 13.48779,-13.48779 z"
       style="fill:#b3b3b3;fill-opacity:1;stroke:none" />
    <rect
       rx="4.1534054e-08"
       y="939.34863"
       x="149.99457"
       height="2.9972873"
       width="20.98101"
       id="rect5831"
       style="fill:#b3b3b3;fill-opacity:1;stroke:none" />
    <path
       inkscape:connector-curvature="0"
       id="path5835"
       d="m 154.99005,988.36218 c -6.06964,0 -10.99005,4.92041 -10.99005,10.99005 0,6.06967 4.92041,10.99007 10.99005,10.99007 2.33415,0 4.49581,-0.7261 6.27557,-1.967 a 1.9983913,1.9983913 0 0 0 0.30442,0.3825 l 10.99005,10.99 a 1.9983913,1.9983913 0 1 0 2.82557,-2.8255 l -10.99006,-10.9901 a 1.9983913,1.9983913 0 0 0 -0.38246,-0.3044 c 1.24085,-1.7798 1.96697,-3.9414 1.96697,-6.27557 0,-6.06964 -4.92042,-10.99005 -10.99006,-10.99005 z m 0,1.99819 c 4.96607,0 8.99187,4.0258 8.99187,8.99186 0,4.96607 -4.0258,8.99187 -8.99187,8.99187 -4.96606,0 -8.99186,-4.0258 -8.99186,-8.99187 0,-4.96606 4.0258,-8.99186 8.99186,-8.99186 z"
       style="fill:#b3b3b3;fill-opacity:1;stroke:none" />
    <rect
       rx="2.7689369e-08"
       y="998.35315"
       x="147.99638"
       height="1.9981915"
       width="13.987341"
       id="rect5839"
       style="fill:#b3b3b3;fill-opacity:1;stroke:none" />
    <path
       inkscape:connector-curvature="0"
       id="path5843"
       d="m 149.49503,1036.3622 c -3.03482,0 -5.49503,2.4602 -5.49503,5.495 0,3.0348 2.46021,5.4951 5.49503,5.4951 1.16707,0 2.2479,-0.3631 3.13778,-0.9835 a 0.99919567,0.99919567 0 0 0 0.15221,0.1912 l 5.49502,5.495 a 0.99919567,0.99919567 0 1 0 1.41279,-1.4128 l -5.49503,-5.495 a 0.99919567,0.99919567 0 0 0 -0.19123,-0.1522 c 0.62043,-0.8899 0.98348,-1.9707 0.98348,-3.1378 0,-3.0348 -2.4602,-5.495 -5.49502,-5.495 z m 0,0.9991 c 2.48303,0 4.49593,2.0129 4.49593,4.4959 0,2.4831 -2.0129,4.496 -4.49593,4.496 -2.48304,0 -4.49593,-2.0129 -4.49593,-4.496 0,-2.483 2.01289,-4.4959 4.49593,-4.4959 z"
       style="fill:#b3b3b3;fill-opacity:1;stroke:none" />
    <rect
       rx="1.3844685e-08"
       y="1041.3577"
       x="145.99818"
       height="0.99909574"
       width="6.9936705"
       id="rect5847"
       style="fill:#b3b3b3;fill-opacity:1;stroke:none" />
  </g>
</svg>
