<?xml version="1.0" encoding="UTF-8" standalone="no"?>
<!-- Created with Inkscape (http://www.inkscape.org/) -->

<svg
   xmlns:dc="http://purl.org/dc/elements/1.1/"
   xmlns:cc="http://creativecommons.org/ns#"
   xmlns:rdf="http://www.w3.org/1999/02/22-rdf-syntax-ns#"
   xmlns:svg="http://www.w3.org/2000/svg"
   xmlns="http://www.w3.org/2000/svg"
   xmlns:xlink="http://www.w3.org/1999/xlink"
   xmlns:sodipodi="http://sodipodi.sourceforge.net/DTD/sodipodi-0.dtd"
   xmlns:inkscape="http://www.inkscape.org/namespaces/inkscape"
   width="128"
   height="128"
   id="svg3829"
   version="1.1"
   inkscape:version="0.91 r"
   sodipodi:docname="start-here-linux-mint.svg">
  <defs
     id="defs3831">
    <linearGradient
       id="linearGradient8794">
      <stop
         style="stop-color:#ffffff;stop-opacity:1;"
         offset="0"
         id="stop8796" />
      <stop
         style="stop-color:#cacaca;stop-opacity:1;"
         offset="1"
         id="stop8798" />
    </linearGradient>
    <linearGradient
       id="linearGradient4270-9">
      <stop
         style="stop-color:#f9f9f9;stop-opacity:0.50196081;"
         offset="0"
         id="stop4272-5" />
      <stop
         id="stop5033"
         offset="0.25"
         style="stop-color:#7d7d7d;stop-opacity:0.50196081;" />
      <stop
         id="stop4278-7"
         offset="0.5"
         style="stop-color:#808080;stop-opacity:0.50196081;" />
      <stop
         style="stop-color:#ffffff;stop-opacity:0.50196081;"
         offset="0.75"
         id="stop5035" />
      <stop
         style="stop-color:#000000;stop-opacity:0.50196081;"
         offset="1"
         id="stop4274-4" />
    </linearGradient>
    <linearGradient
       id="linearGradient4270-1">
      <stop
         id="stop4278-99"
         offset="0"
         style="stop-color:#54ff7f;stop-opacity:1;" />
      <stop
         style="stop-color:#003208;stop-opacity:1;"
         offset="1"
         id="stop4274-0" />
    </linearGradient>
    <linearGradient
       id="linearGradient4270-9-2">
      <stop
         style="stop-color:#f9f9f9;stop-opacity:0.50196081;"
         offset="0"
         id="stop4272-5-3" />
      <stop
         id="stop5033-1"
         offset="0.25"
         style="stop-color:#7d7d7d;stop-opacity:0.50196081;" />
      <stop
         id="stop4278-7-5"
         offset="0.5"
         style="stop-color:#808080;stop-opacity:0.50196081;" />
      <stop
         style="stop-color:#ffffff;stop-opacity:0.50196081;"
         offset="0.75"
         id="stop5035-7" />
      <stop
         style="stop-color:#000000;stop-opacity:0.50196081;"
         offset="1"
         id="stop4274-4-7" />
    </linearGradient>
    <filter
       inkscape:collect="always"
       id="filter8877">
      <feGaussianBlur
         inkscape:collect="always"
         stdDeviation="1.9999998"
         id="feGaussianBlur8879" />
    </filter>
    <radialGradient
       inkscape:collect="always"
       xlink:href="#linearGradient4270-1"
       id="radialGradient4638"
       gradientUnits="userSpaceOnUse"
       gradientTransform="matrix(2.2683686,1.5379689e-7,-1.2814371e-7,2.2683687,-121.48441,77.6038)"
       cx="95.877007"
       cy="-50.081726"
       fx="95.877007"
       fy="-50.081726"
       r="56.428219" />
    <radialGradient
       inkscape:collect="always"
       xlink:href="#linearGradient4270-9-2"
       id="radialGradient4640"
       gradientUnits="userSpaceOnUse"
       gradientTransform="matrix(1.5734565,1.758569,-0.70723,0.63278475,-62.509085,-74.974406)"
       cx="36"
       cy="-64.879013"
       fx="36"
       fy="-64.879013"
       r="37.012661" />
    <radialGradient
       inkscape:collect="always"
       xlink:href="#linearGradient4270-9"
       id="radialGradient4645"
       gradientUnits="userSpaceOnUse"
       gradientTransform="matrix(0.65025714,0.55736331,-1.1106752,1.2957877,35.293259,-59.234562)"
       cx="92"
       cy="6.4254985"
       fx="92"
       fy="6.4254985"
       r="37.012661" />
    <radialGradient
       inkscape:collect="always"
       xlink:href="#linearGradient4270-1"
       id="radialGradient8839"
       cx="64"
       cy="19.999992"
       fx="64"
       fy="19.999992"
       r="56.428219"
       gradientTransform="matrix(1,0,0,0.3620212,0,12.759571)"
       gradientUnits="userSpaceOnUse" />
    <radialGradient
       inkscape:collect="always"
       xlink:href="#linearGradient8794"
       id="radialGradient8865"
       gradientUnits="userSpaceOnUse"
       gradientTransform="matrix(2.5529794,4.5205938e-8,-5.0808282e-8,2.2976814,-111.81452,-47.83368)"
       cx="72"
       cy="38.227093"
       fx="72"
       fy="38.227093"
       r="62.671875" />
  </defs>
  <sodipodi:namedview
     id="base"
     pagecolor="#ffffff"
     bordercolor="#666666"
     borderopacity="1.0"
     inkscape:pageopacity="0.0"
     inkscape:pageshadow="2"
     inkscape:zoom="2.0000001"
     inkscape:cx="72.2051"
     inkscape:cy="75.104314"
     inkscape:current-layer="layer1"
     showgrid="true"
     inkscape:grid-bbox="true"
     inkscape:document-units="px"
     inkscape:window-width="1280"
     inkscape:window-height="969"
     inkscape:window-x="0"
     inkscape:window-y="28"
     inkscape:window-maximized="1"
     showguides="true"
     inkscape:guide-bbox="true">
    <inkscape:grid
       type="xygrid"
       id="grid3837"
       empspacing="4"
       visible="true"
       enabled="true"
       snapvisiblegridlinesonly="true" />
  </sodipodi:namedview>
  <metadata
     id="metadata3834">
    <rdf:RDF>
      <cc:Work
         rdf:about="">
        <dc:format>image/svg+xml</dc:format>
        <dc:type
           rdf:resource="http://purl.org/dc/dcmitype/StillImage" />
        <dc:title />
      </cc:Work>
    </rdf:RDF>
  </metadata>
  <g
     id="layer1"
     inkscape:label="Layer 1"
     inkscape:groupmode="layer"
     transform="translate(0,80)">
    <rect
       style="color:#000000;fill:#000000;fill-opacity:1;fill-rule:nonzero;stroke:none;stroke-width:0.85643840000000004;marker:none;visibility:visible;display:inline;overflow:visible;enable-background:accumulate;filter:url(#filter8877)"
       id="rect3482-4"
       width="112"
       height="87.999985"
       x="8"
       y="-46"
       rx="3.4691236"
       ry="3.4691236" />
    <rect
       style="color:#000000;fill:url(#radialGradient8839);fill-opacity:1;fill-rule:nonzero;stroke:url(#radialGradient4645);stroke-width:0.85643840000000004;stroke-miterlimit:4;stroke-dasharray:none;marker:none;visibility:visible;display:inline;overflow:visible;enable-background:accumulate"
       id="rect3482"
       width="112"
       height="39.999985"
       x="8"
       y="0"
       rx="3.4691236"
       ry="3.4691236" />
    <rect
       style="color:#000000;fill:url(#radialGradient4638);fill-opacity:1.0;fill-rule:nonzero;stroke:url(#radialGradient4640);stroke-width:0.85643840000000004;stroke-miterlimit:4;stroke-dasharray:none;marker:none;visibility:visible;display:inline;overflow:visible;enable-background:accumulate"
       id="rect3482-2-1"
       width="112"
       height="104.00001"
       x="8"
       y="-72"
       rx="3.4691236"
       ry="3.4691236" />
    <path
       style="font-size:medium;font-style:normal;font-variant:normal;font-weight:normal;font-stretch:normal;text-indent:0;text-align:start;text-decoration:none;line-height:normal;letter-spacing:normal;word-spacing:normal;text-transform:none;direction:ltr;block-progression:tb;writing-mode:lr-tb;text-anchor:start;baseline-shift:baseline;color:#000000;fill:url(#radialGradient8865);fill-opacity:1;stroke:none;stroke-width:7.99999952000000025;marker:none;visibility:visible;display:inline;overflow:visible;enable-background:accumulate;font-family:Sans;-inkscape-font-specification:Sans"
       d="M 87.3125 8 C 94.919857 12.349972 100 20.523972 100 30 L 100 92 L 30.65625 92 C 20.669338 92 12.131958 86.360117 8 78.0625 L 8 91.09375 C 13.944503 96.618642 21.906446 100 30.65625 100 L 104 100 L 108 100 L 108 96 L 108 30 C 108 21.567823 104.86024 13.875426 99.6875 8 L 87.3125 8 z M 12 15.34375 L 12 59.34375 C 12 67.34375 14.046774 74.046774 18.65625 78.65625 C 23.265726 83.265726 29.999999 85.34375 38 85.34375 L 67.34375 85.34375 C 75.34375 85.34375 82.046774 83.265726 86.65625 78.65625 C 91.265726 74.046774 93.34375 67.34375 93.34375 59.34375 C 93.34375 52.107326 93.447912 44.497368 91.28125 37.96875 C 90.197919 34.704441 88.461528 31.633263 85.625 29.40625 C 82.788472 27.179237 78.998393 26 74.65625 26 C 70.331726 26 66.592848 27.122267 63.75 29.3125 C 62.165886 30.532958 60.986971 32.075845 60 33.71875 C 59.02156 32.093273 57.84387 30.590371 56.28125 29.375 C 53.441542 27.166338 49.677083 26 45.34375 26 C 41.010417 26 37.245958 27.166338 34.40625 29.375 C 31.566542 31.583662 29.804071 34.650285 28.71875 37.90625 C 26.548107 44.418179 26.65625 52.010416 26.65625 59.34375 L 34.65625 59.34375 C 34.65625 52.010416 34.785226 44.925571 36.28125 40.4375 C 37.029262 38.193464 38.027208 36.687171 39.3125 35.6875 C 40.597792 34.687829 42.34375 34 45.34375 34 C 48.34375 34 50.058458 34.687829 51.34375 35.6875 C 52.629042 36.687171 53.626988 38.193464 54.375 40.4375 C 55.871024 44.925571 56 52.010416 56 59.34375 L 60 59.34375 L 64 59.34375 C 64 51.913506 64.133019 44.831226 65.625 40.375 C 66.37099 38.146887 67.342848 36.644066 68.625 35.65625 C 69.907152 34.668434 71.64744 34 74.65625 34 C 77.64744 34 79.399028 34.675896 80.6875 35.6875 C 81.975972 36.699104 82.968748 38.240081 83.71875 40.5 C 85.218755 45.019837 85.34375 52.107326 85.34375 59.34375 C 85.34375 66.010417 83.723858 70.276142 81 73 C 78.276142 75.723858 74.010417 77.34375 67.34375 77.34375 L 38 77.34375 C 31.333333 77.34375 27.067608 75.723858 24.34375 73 C 21.619892 70.276142 20 66.010417 20 59.34375 L 20 15.34375 L 12 15.34375 z "
       transform="translate(0,-80)"
       id="path4759" />
    <text
       sodipodi:linespacing="125%"
       id="text5141"
       y="16.000004"
       x="34.335938"
       style="font-size:32px;font-style:normal;font-variant:normal;font-weight:bold;font-stretch:normal;line-height:125%;letter-spacing:0px;word-spacing:0px;opacity:0.5;fill:none;stroke:#ffffff;stroke-width:4;stroke-linejoin:round;stroke-miterlimit:4;stroke-dasharray:none;font-family:Sawasdee;-inkscape-font-specification:Sawasdee Bold"
       xml:space="preserve"><tspan
         y="16.000004"
         x="34.335938"
         id="tspan5143"
         sodipodi:role="line">mint</tspan></text>
    <text
       xml:space="preserve"
       style="font-size:32px;font-style:normal;font-variant:normal;font-weight:bold;font-stretch:normal;line-height:125%;letter-spacing:0px;word-spacing:0px;fill:#000000;fill-opacity:1;stroke:none;font-family:Sawasdee;-inkscape-font-specification:Sawasdee Bold"
       x="34.335938"
       y="16.000004"
       id="text5137"
       sodipodi:linespacing="125%"><tspan
         sodipodi:role="line"
         id="tspan5139"
         x="34.335938"
         y="16.000004">mint</tspan></text>
  </g>
</svg>
