<?xml version="1.0" encoding="UTF-8" standalone="no"?>
<!-- Created with Inkscape (http://www.inkscape.org/) -->

<svg
   xmlns:dc="http://purl.org/dc/elements/1.1/"
   xmlns:cc="http://creativecommons.org/ns#"
   xmlns:rdf="http://www.w3.org/1999/02/22-rdf-syntax-ns#"
   xmlns:svg="http://www.w3.org/2000/svg"
   xmlns="http://www.w3.org/2000/svg"
   xmlns:xlink="http://www.w3.org/1999/xlink"
   xmlns:sodipodi="http://sodipodi.sourceforge.net/DTD/sodipodi-0.dtd"
   xmlns:inkscape="http://www.inkscape.org/namespaces/inkscape"
   width="128"
   height="128"
   id="svg2"
   version="1.1"
   inkscape:version="0.91 r13725"
   sodipodi:docname="folder-system.svg">
  <defs
     id="defs4">
    <linearGradient
       inkscape:collect="always"
       id="linearGradient4161">
      <stop
         style="stop-color:#ffffff;stop-opacity:1;"
         offset="0"
         id="stop4163" />
      <stop
         style="stop-color:#ffffff;stop-opacity:0;"
         offset="1"
         id="stop4165" />
    </linearGradient>
    <linearGradient
       inkscape:collect="always"
       id="linearGradient3786">
      <stop
         style="stop-color:#ffffff;stop-opacity:1;"
         offset="0"
         id="stop3788" />
      <stop
         style="stop-color:#ffffff;stop-opacity:0;"
         offset="1"
         id="stop3790" />
    </linearGradient>
    <linearGradient
       id="linearGradient3802">
      <stop
         style="stop-color:#ffba24;stop-opacity:1;"
         offset="0"
         id="stop3804" />
      <stop
         style="stop-color:#ff3500;stop-opacity:1;"
         offset="1"
         id="stop3806" />
    </linearGradient>
    <linearGradient
       id="linearGradient3785">
      <stop
         style="stop-color:#ffffff;stop-opacity:1;"
         offset="0"
         id="stop3787" />
      <stop
         style="stop-color:#d6d6d6;stop-opacity:1;"
         offset="1"
         id="stop3789" />
    </linearGradient>
    <radialGradient
       inkscape:collect="always"
       xlink:href="#linearGradient3785"
       id="radialGradient3791"
       cx="120"
       cy="217.06807"
       fx="120"
       fy="217.06807"
       r="366"
       gradientTransform="matrix(0.3723091,0,0,0.327632,-19.527241,892.69492)"
       gradientUnits="userSpaceOnUse" />
    <radialGradient
       inkscape:collect="always"
       xlink:href="#linearGradient3802"
       id="radialGradient3808"
       cx="548"
       cy="726.62531"
       fx="548"
       fy="726.62531"
       r="364"
       gradientTransform="matrix(0.19466446,0,0,0.19466446,-23.569618,882.32189)"
       gradientUnits="userSpaceOnUse" />
    <radialGradient
       inkscape:collect="always"
       xlink:href="#linearGradient3786"
       id="radialGradient3792"
       cx="69.103531"
       cy="1007.5928"
       fx="69.103531"
       fy="1007.5928"
       r="49.080518"
       gradientTransform="matrix(1.222481,2.9627286e-6,-3.21361e-6,1.3243539,-10.902227,-318.9127)"
       gradientUnits="userSpaceOnUse" />
    <radialGradient
       inkscape:collect="always"
       xlink:href="#linearGradient4161"
       id="radialGradient4167"
       cx="160"
       cy="88.781929"
       fx="160"
       fy="88.781929"
       r="13.90625"
       gradientTransform="matrix(1.4382022,6.1779722e-7,-4.6334786e-7,1.0786515,-70.112319,-12.764858)"
       gradientUnits="userSpaceOnUse" />
  </defs>
  <sodipodi:namedview
     id="base"
     pagecolor="#ffffff"
     bordercolor="#666666"
     borderopacity="1.0"
     inkscape:pageopacity="0.0"
     inkscape:pageshadow="2"
     inkscape:zoom="2.4377909"
     inkscape:cx="75.995067"
     inkscape:cy="-5.2328516"
     inkscape:document-units="px"
     inkscape:current-layer="layer1"
     showgrid="true"
     inkscape:window-width="1920"
     inkscape:window-height="1028"
     inkscape:window-x="-8"
     inkscape:window-y="-8"
     inkscape:window-maximized="1">
    <inkscape:grid
       type="xygrid"
       id="grid3000"
       empspacing="4"
       visible="true"
       enabled="true"
       snapvisiblegridlinesonly="true" />
  </sodipodi:namedview>
  <metadata
     id="metadata7">
    <rdf:RDF>
      <cc:Work
         rdf:about="">
        <dc:format>image/svg+xml</dc:format>
        <dc:type
           rdf:resource="http://purl.org/dc/dcmitype/StillImage" />
        <dc:title />
      </cc:Work>
    </rdf:RDF>
  </metadata>
  <g
     inkscape:label="Ebene 1"
     inkscape:groupmode="layer"
     id="layer1"
     transform="translate(0,-924.36218)">
    <rect
       style="opacity:0.1;fill:#000000;fill-opacity:1;stroke:none"
       id="rect3806"
       width="115.00002"
       height="11.999998"
       x="5"
       y="101"
       transform="translate(0,924.36218)"
       rx="2.7253025"
       ry="2.3894534" />
    <rect
       style="opacity:0.12;fill:#000000;stroke:none"
       id="rect3804"
       width="111"
       height="8.0000296"
       x="7"
       y="102"
       transform="translate(0,924.36218)"
       rx="2.7253025"
       ry="2.3894534" />
    <rect
       style="opacity:0.25;fill:#000000;stroke:none"
       id="rect3802"
       width="105"
       height="4.999999"
       x="10"
       y="103"
       transform="translate(0,924.36218)"
       rx="2.7253025"
       ry="2.3894534" />
    <path
       style="fill:url(#radialGradient3791);fill-opacity:1;stroke:#505050;stroke-width:1.09012103;stroke-miterlimit:4;stroke-opacity:1;stroke-dasharray:none"
       d="m 22.424554,950.18686 0,5.45061 c 0,1.36265 -1.362653,2.72531 -2.725305,2.72531 -0.69976,0 -1.398545,0 -2.725294,0 -1.362653,0 -2.725306,1.36264 -2.725306,2.72529 l 0,62.68193 c 0,2.7253 2.725306,5.4506 5.4506,5.4506 l 87.209691,0 c 2.72531,0 5.45061,-2.7253 5.45061,-5.398 l 0,-62.73453 c 0,-1.36265 -1.36265,-2.72529 -2.7253,-2.72529 l -43.604849,0 c -1.362652,0 -2.725305,-1.36266 -2.725305,-2.72531 l 0,-5.45061 c 0,-2.7253 -1.362652,-2.7253 -2.725305,-2.7253 l -35.428932,1e-5 c -1.362653,0 -2.725305,1.36265 -2.725305,2.72529 z"
       id="rect3002"
       inkscape:connector-curvature="0"
       sodipodi:nodetypes="cscscccccccccccccc" />
    <g
       id="g3867"
       transform="matrix(0.13626513,0,0,0.13626513,6.7980396,929.42521)">
      <rect
         ry="20"
         rx="20"
         y="252.36218"
         x="80"
         height="420"
         width="40"
         id="rect3847"
         style="opacity:0.2;fill:#000000;fill-opacity:1;stroke:none" />
      <rect
         style="opacity:0.2;fill:#000000;fill-opacity:1;stroke:none"
         id="rect3849"
         width="40"
         height="420"
         x="160"
         y="252.36218"
         rx="20"
         ry="20" />
      <rect
         ry="20"
         rx="20"
         y="252.36218"
         x="240"
         height="420"
         width="40"
         id="rect3851"
         style="opacity:0.2;fill:#000000;fill-opacity:1;stroke:none" />
      <rect
         style="opacity:0.2;fill:#000000;fill-opacity:1;stroke:none"
         id="rect3853"
         width="40"
         height="420"
         x="320"
         y="252.36218"
         rx="20"
         ry="20" />
      <rect
         ry="20"
         rx="20"
         y="252.36218"
         x="400"
         height="420"
         width="40"
         id="rect3855"
         style="opacity:0.2;fill:#000000;fill-opacity:1;stroke:none" />
      <rect
         style="opacity:0.2;fill:#000000;fill-opacity:1;stroke:none"
         id="rect3857"
         width="40"
         height="420"
         x="460"
         y="252.36218"
         rx="20"
         ry="20" />
      <rect
         ry="20"
         rx="20"
         y="252.36218"
         x="540"
         height="420"
         width="40"
         id="rect3859"
         style="opacity:0.2;fill:#000000;fill-opacity:1;stroke:none" />
      <rect
         style="opacity:0.2;fill:#000000;fill-opacity:1;stroke:none"
         id="rect3861"
         width="40"
         height="420"
         x="620"
         y="252.36218"
         rx="20"
         ry="20" />
      <rect
         ry="20"
         rx="20"
         y="252.36218"
         x="700"
         height="420"
         width="40"
         id="rect3863"
         style="opacity:0.2;fill:#000000;fill-opacity:1;stroke:none" />
    </g>
    <path
       style="opacity:0.25;fill:#000000;fill-opacity:1;stroke:none"
       d="m 98.08201,961.30027 c -56.630838,0.21628 -35.932141,6.92853 -82.653534,8.12047 -1.237475,0 -2.459726,1.25596 -2.459726,2.49342 l 0,0.60651 c 49.801725,-1.86733 26.411612,-9.68562 99.93901,-9.40087 -0.22042,-1.77415 -1.31853,-1.78583 -2.42603,-1.78583 -4.50572,-0.047 -8.62432,-0.0481 -12.39972,-0.0336 z"
       id="path3797"
       inkscape:connector-curvature="0" />
    <path
       sodipodi:nodetypes="ccccccccc"
       inkscape:connector-curvature="0"
       id="path3798"
       d="m 11.694916,971.897 c -1.362653,0 -2.7252954,1.36265 -2.7252954,2.72529 l 0,49.14771 c -0.397333,4.727 1.6026674,5.727 4.7296284,5.4506 l 99.930661,0 c 2.72531,0 5.45061,-2.7253 5.45061,-5.398 l 0,-58.10151 c 0,-2.7253 -1.36265,-2.7253 -2.7253,-2.7253 C 36.971094,962.16807 66.572288,970.497 11.694916,971.897 z"
       style="opacity:0.85;fill:url(#radialGradient3808);fill-opacity:1;stroke:#505050;stroke-width:1.09012103;stroke-miterlimit:4;stroke-opacity:1;stroke-dasharray:none" />
    <path
       style="opacity:0.75;fill:url(#radialGradient3792);fill-opacity:1;stroke:none"
       d="m 102.82229,962.9345 c -61.041028,0.23815 -39.677466,7.65625 -91.125002,8.96875 -1.362653,0 -2.7187504,1.35611 -2.7187504,2.71875 l 0,23.65625 c 25.7810454,-4.31192 70.3149154,-6.875 105.7187524,-6.875 1.46301,0 2.92197,0.0225 4.375,0.0313 l 0,-25.71875 c 0,-2.7253 -1.3561,-2.71875 -2.71875,-2.71875 -4.96151,-0.0517 -9.46185,-0.0784 -13.53125,-0.0625 z"
       id="path3015"
       inkscape:connector-curvature="0"
       sodipodi:nodetypes="scscscscs" />
    <rect
       style="opacity:0.84999999999999998;fill:#ff6600;fill-opacity:1;stroke:none"
       id="rect3828"
       width="25.890375"
       height="6.1319308"
       x="25.149862"
       y="950.18689"
       rx="2.7253025"
       ry="2.7253025" />
    <text
       sodipodi:linespacing="125%"
       style="font-size:24px;font-style:normal;font-weight:normal;line-height:125%;letter-spacing:0px;word-spacing:0px;fill:#000000;fill-opacity:1;stroke:none;font-family:Sans"
       xml:space="preserve"
       id="text5893"
       y="948.36218"
       x="-56"><tspan
         id="tspan5895"
         y="948.36218"
         x="-56">128</tspan></text>
    <path
       id="path3151"
       d="m 171.13029,1009.9273 c 1.54154,0 2.78257,-1.241 2.78257,-2.7825 l 0,-2.7826 c 0,-1.5415 -1.24103,-2.7826 -2.78257,-2.7826 -8.34772,-4.17381 -5.56515,15.3042 0,8.3477 z"
       style="fill:#666666;fill-rule:evenodd;stroke:#999999;stroke-width:1.39128566000000009;stroke-linecap:butt;stroke-linejoin:miter;stroke-miterlimit:4;stroke-opacity:1;stroke-dasharray:none"
       inkscape:connector-curvature="0"
       sodipodi:nodetypes="csscc"
       inkscape:export-filename="/home/georg/.icons/Kawaiki-Only/places/scalable/rect3146.png"
       inkscape:export-xdpi="32.142857"
       inkscape:export-ydpi="32.142857" />
    <path
       inkscape:connector-curvature="0"
       style="fill:#ee5e00;fill-rule:evenodd;stroke:#b3b3b3;stroke-width:1.39128566000000009;stroke-linecap:butt;stroke-linejoin:miter;stroke-miterlimit:4;stroke-opacity:1;stroke-dasharray:none;fill-opacity:1"
       d="m 148.86971,989.05809 c -1.54154,0 -2.78257,1.241 -2.78257,2.7825 l 0,25.04321 c 0,1.5415 1.24103,2.7825 2.78257,2.7825 l 19.478,0 c 1.54155,0 2.78258,-1.241 2.78258,-2.7825 l 0,-16.6955 c 1.54154,0 2.78257,-1.24101 2.78257,-2.78251 l 0,-2.7826 c 0,-1.5415 -1.24103,-2.7826 -2.78257,-2.7826 0,-1.5415 -1.24103,-2.7825 -2.78258,-2.7825 l -19.478,0 z"
       id="rect3144"
       inkscape:export-filename="/home/georg/.icons/Kawaiki-Only/places/scalable/rect3146.png"
       inkscape:export-xdpi="32.142857"
       inkscape:export-ydpi="32.142857" />
    <rect
       style="fill:none;stroke:#e6e6e6;stroke-width:1.39128566000000009;stroke-miterlimit:4;stroke-dasharray:none"
       id="rect3146"
       width="19.478001"
       height="25.043142"
       x="148.86972"
       y="991.84058"
       rx="1.3912857"
       ry="1.3912857"
       inkscape:export-xdpi="32.142857"
       inkscape:export-ydpi="32.142857" />
    <text
       sodipodi:linespacing="125%"
       style="font-size:24px;font-style:normal;font-weight:normal;line-height:125%;letter-spacing:0px;word-spacing:0px;fill:#000000;fill-opacity:1;stroke:none;font-family:Sans"
       xml:space="preserve"
       id="text5893-3"
       y="948.36218"
       x="-56"><tspan
         id="tspan5895-8"
         y="948.36218"
         x="-56">128</tspan></text>
    <text
       sodipodi:linespacing="125%"
       style="font-size:16px;font-style:normal;font-weight:normal;line-height:125%;letter-spacing:0px;word-spacing:0px;fill:#000000;fill-opacity:1;stroke:none;font-family:Sans"
       xml:space="preserve"
       id="text5901"
       y="1000.3622"
       x="184"><tspan
         id="tspan5903"
         y="1000.3622"
         x="184">31 - 17</tspan></text>
    <text
       sodipodi:linespacing="125%"
       style="font-size:16px;font-style:normal;font-weight:normal;line-height:125%;letter-spacing:0px;word-spacing:0px;fill:#000000;fill-opacity:1;stroke:none;font-family:Sans"
       xml:space="preserve"
       id="text5905"
       y="1048.3622"
       x="172"><tspan
         id="tspan5907"
         y="1048.3622"
         x="172">16</tspan></text>
    <rect
       style="fill:none;stroke:#000000;stroke-width:1;stroke-linecap:round;stroke-linejoin:round;stroke-miterlimit:4;stroke-opacity:1;stroke-dasharray:none;stroke-dashoffset:0"
       id="rect5919"
       y="984.36218"
       x="140"
       rx="4.5902016e-07"
       height="40"
       width="40" />
    <rect
       style="fill:none;stroke:#000000;stroke-width:1;stroke-linecap:round;stroke-linejoin:round;stroke-miterlimit:4;stroke-opacity:1;stroke-dasharray:none;stroke-dashoffset:0"
       id="rect5921"
       y="1032.3622"
       x="140"
       rx="4.5902016e-07"
       height="24"
       width="24" />
    <rect
       style="fill:#b3b3b3;fill-opacity:1;stroke:none"
       id="rect6935"
       y="980.36218"
       x="144"
       rx="4.5902016e-07"
       height="4"
       width="32" />
    <rect
       style="fill:#b3b3b3;fill-opacity:1;stroke:none"
       id="rect6937"
       y="988.36218"
       x="136"
       rx="4.5902016e-07"
       height="32"
       width="4" />
    <rect
       style="fill:#b3b3b3;fill-opacity:1;stroke:none"
       id="rect6939"
       y="1028.3622"
       x="144"
       rx="4.5902016e-07"
       height="4"
       width="16" />
    <rect
       style="fill:#b3b3b3;fill-opacity:1;stroke:none"
       id="rect6941"
       y="1036.3622"
       x="136"
       rx="4.5902016e-07"
       height="16"
       width="4" />
    <path
       style="fill:url(#radialGradient4167);fill-rule:evenodd;stroke:none;stroke-width:1.39128566000000009;stroke-linecap:butt;stroke-linejoin:miter;stroke-miterlimit:4;stroke-opacity:1;stroke-dasharray:none;fill-opacity:1;opacity:0.5"
       d="M 148.875 64.6875 C 147.33346 64.6875 146.09375 65.92725 146.09375 67.46875 L 146.09375 82.0625 C 152.97066 79.081089 161.64447 77.2493 171.125 77.03125 L 171.125 75.8125 C 172.66654 75.8125 173.90625 74.57275 173.90625 73.03125 L 173.90625 70.25 C 173.90625 68.7085 172.66654 67.46875 171.125 67.46875 C 171.125 65.92725 169.8853 64.6875 168.34375 64.6875 L 148.875 64.6875 z "
       transform="translate(0,924.36218)"
       id="path4154" />
    <path
       style="fill:#b3b3b3;fill-opacity:1;stroke:#b3b3b3"
       d="M 146 112 C 144.892 112 144 112.892 144 114 L 144 126 C 144 127.108 144.892 128 146 128 L 156 128 C 157.108 128 158 127.108 158 126 L 158 122 C 158.554 122 159 121.554 159 121 L 159 119 C 159 118.446 158.554 118 158 118 C 158.554 118 159 117.554 159 117 L 159 115 C 159 114.446 158.554 114 158 114 C 158 112.892 157.108 112 156 112 L 146 112 z "
       transform="translate(0,924.36218)"
       id="path3883" />
    <path
       style="fill:#ee5e00;fill-opacity:1;stroke:none"
       d="M 146 112 C 144.892 112 144 112.892 144 114 L 144 126 C 144 127.108 144.892 128 146 128 L 156 128 C 157.108 128 158 127.108 158 126 L 158 118 C 158.554 118 159 117.554 159 117 L 159 115 C 159 114.446 158.554 114 158 114 C 158 112.892 157.108 112 156 112 L 146 112 z "
       id="rect3874"
       transform="translate(0,924.36218)" />
    <path
       style="fill:#e6e6e6;fill-opacity:1;stroke:none"
       d="M 147 113 C 145.892 113 145 113.892 145 115 L 145 125 C 145 126.108 145.892 127 147 127 L 155 127 C 156.108 127 157 126.108 157 125 L 157 115 C 157 113.892 156.108 113 155 113 L 147 113 z M 147 114 L 155 114 C 155.554 114 156 114.446 156 115 L 156 125 C 156 125.554 155.554 126 155 126 L 147 126 C 146.446 126 146 125.554 146 125 L 146 115 C 146 114.446 146.446 114 147 114 z "
       transform="translate(0,924.36218)"
       id="rect3893" />
    <path
       inkscape:connector-curvature="0"
       id="path4036"
       d="m 60.625001,974.36218 0,3.6875 c -3.061555,0.5207 -5.87807,1.7299 -8.3125,3.46875 l -2.625,-2.625 -4.75,4.75 2.625,2.625 c -1.739111,2.43479 -2.979428,5.25042 -3.5,8.3125 l -3.65625,0 0,6.74997 3.65625,0 c 0.516032,3.0553 1.739217,5.8801 3.46875,8.3125 l -2.59375,2.625 4.75,4.75 2.625,-2.5937 c 2.433912,1.7376 5.252065,2.9484 8.3125,3.4687 l 0,3.6563 6.75,0 0,-3.6563 c 3.060435,-0.5203 5.878588,-1.7311 8.3125,-3.4687 l 2.625,2.5937 4.75,-4.75 -2.59375,-2.625 c 1.729533,-2.4324 2.952718,-5.2572 3.46875,-8.3125 l 3.65625,0 0,-6.74997 -3.65625,0 c -0.520572,-3.06208 -1.760889,-5.87771 -3.5,-8.3125 l 2.625,-2.625 -4.75,-4.75 -2.625,2.625 c -2.434429,-1.73885 -5.250945,-2.94805 -8.3125,-3.46875 l 0,-3.6875 -6.75,0 z m 3.375,10.125 c 7.487642,0 13.5,5.98111 13.5,13.46875 0,7.48767 -6.012358,13.49997 -13.5,13.49997 -7.487642,0 -13.5,-6.0123 -13.5,-13.49997 0,-7.48764 6.012358,-13.46875 13.5,-13.46875 z m 0,3.375 c -5.54585,0 -10.125,4.5479 -10.125,10.09375 0,5.54587 4.57915,10.12497 10.125,10.12497 5.54585,0 10.125,-4.5791 10.125,-10.12497 0,-5.54585 -4.57915,-10.09375 -10.125,-10.09375 z m 0,6.71875 c 1.901859,0 3.375,1.47314 3.375,3.375 0,1.90186 -1.473141,3.37497 -3.375,3.37497 -1.90186,0 -3.375,-1.47311 -3.375,-3.37497 0,-1.90186 1.47314,-3.375 3.375,-3.375 z"
       style="font-size:medium;font-style:normal;font-variant:normal;font-weight:normal;font-stretch:normal;text-indent:0;text-align:start;text-decoration:none;line-height:normal;letter-spacing:normal;word-spacing:normal;text-transform:none;direction:ltr;block-progression:tb;writing-mode:lr-tb;text-anchor:start;baseline-shift:baseline;opacity:0.25;color:#000000;fill:#000000;fill-opacity:1;stroke:#000000;stroke-width:4;stroke-linejoin:round;stroke-miterlimit:4;stroke-dasharray:none;marker:none;visibility:visible;display:inline;overflow:visible;enable-background:accumulate;font-family:Sans;-inkscape-font-specification:Sans" />
    <path
       style="font-size:medium;font-style:normal;font-variant:normal;font-weight:normal;font-stretch:normal;text-indent:0;text-align:start;text-decoration:none;line-height:normal;letter-spacing:normal;word-spacing:normal;text-transform:none;direction:ltr;block-progression:tb;writing-mode:lr-tb;text-anchor:start;baseline-shift:baseline;color:#000000;fill:#ffffff;fill-opacity:1;stroke:none;stroke-width:2;marker:none;visibility:visible;display:inline;overflow:visible;enable-background:accumulate;font-family:Sans;-inkscape-font-specification:Sans"
       d="m 60.625001,974.36218 0,3.6875 c -3.061555,0.5207 -5.87807,1.7299 -8.3125,3.46875 l -2.625,-2.625 -4.75,4.75 2.625,2.625 c -1.739111,2.43479 -2.979428,5.25042 -3.5,8.3125 l -3.65625,0 0,6.74997 3.65625,0 c 0.516032,3.0553 1.739217,5.8801 3.46875,8.3125 l -2.59375,2.625 4.75,4.75 2.625,-2.5937 c 2.433912,1.7376 5.252065,2.9484 8.3125,3.4687 l 0,3.6563 6.75,0 0,-3.6563 c 3.060435,-0.5203 5.878588,-1.7311 8.3125,-3.4687 l 2.625,2.5937 4.75,-4.75 -2.59375,-2.625 c 1.729533,-2.4324 2.952718,-5.2572 3.46875,-8.3125 l 3.65625,0 0,-6.74997 -3.65625,0 c -0.520572,-3.06208 -1.760889,-5.87771 -3.5,-8.3125 l 2.625,-2.625 -4.75,-4.75 -2.625,2.625 c -2.434429,-1.73885 -5.250945,-2.94805 -8.3125,-3.46875 l 0,-3.6875 -6.75,0 z m 3.375,10.125 c 7.487642,0 13.5,5.98111 13.5,13.46875 0,7.48767 -6.012358,13.49997 -13.5,13.49997 -7.487642,0 -13.5,-6.0123 -13.5,-13.49997 0,-7.48764 6.012358,-13.46875 13.5,-13.46875 z m 0,3.375 c -5.54585,0 -10.125,4.5479 -10.125,10.09375 0,5.54587 4.57915,10.12497 10.125,10.12497 5.54585,0 10.125,-4.5791 10.125,-10.12497 0,-5.54585 -4.57915,-10.09375 -10.125,-10.09375 z m 0,6.71875 c 1.901859,0 3.375,1.47314 3.375,3.375 0,1.90186 -1.473141,3.37497 -3.375,3.37497 -1.90186,0 -3.375,-1.47311 -3.375,-3.37497 0,-1.90186 1.47314,-3.375 3.375,-3.375 z"
       id="path6453"
       inkscape:connector-curvature="0" />
    <path
       inkscape:connector-curvature="0"
       id="path10024"
       d="m 157.6074,997.36217 0,1.09404 c -0.90833,0.15448 -1.74396,0.51324 -2.46623,1.02914 l -0.77881,-0.77881 -1.40927,1.40926 0.77881,0.7788 c -0.51598,0.7224 -0.88396,1.5578 -1.03841,2.4662 l -1.08477,0 0,2.0027 1.08477,0 c 0.1531,0.9065 0.516,1.7445 1.02914,2.4662 l -0.76954,0.7788 1.40927,1.4093 0.77881,-0.7696 c 0.72212,0.5156 1.55823,0.8748 2.46623,1.0292 l 0,1.0847 2.00265,0 0,-1.0847 c 0.90799,-0.1544 1.74411,-0.5136 2.46622,-1.0292 l 0.77881,0.7696 1.40927,-1.4093 -0.76954,-0.7788 c 0.51314,-0.7217 0.87604,-1.5597 1.02914,-2.4662 l 1.08477,0 0,-2.0027 -1.08477,0 c -0.15445,-0.9084 -0.52243,-1.7438 -1.03841,-2.4662 l 0.77881,-0.7788 -1.40927,-1.40926 -0.77881,0.77881 c -0.72227,-0.5159 -1.5579,-0.87466 -2.46622,-1.02914 l 0,-1.09404 -2.00265,0 z m 1.00132,3.00393 c 2.2215,0 4.0053,1.7746 4.0053,3.9961 0,2.2214 -1.7838,4.0052 -4.0053,4.0052 -2.2215,0 -4.0053,-1.7838 -4.0053,-4.0052 0,-2.2215 1.7838,-3.9961 4.0053,-3.9961 z m 0,1.0014 c -1.64539,0 -3.00397,1.3493 -3.00397,2.9947 0,1.6454 1.35858,3.0039 3.00397,3.0039 1.64539,0 3.00397,-1.3585 3.00397,-3.0039 0,-1.6454 -1.35858,-2.9947 -3.00397,-2.9947 z m 0,1.9933 c 0.56426,0 1.00133,0.4371 1.00133,1.0014 0,0.5642 -0.43707,1.0013 -1.00133,1.0013 -0.56426,0 -1.00132,-0.4371 -1.00132,-1.0013 0,-0.5643 0.43706,-1.0014 1.00132,-1.0014 z"
       style="font-size:medium;font-style:normal;font-variant:normal;font-weight:normal;font-stretch:normal;text-indent:0;text-align:start;text-decoration:none;line-height:normal;letter-spacing:normal;word-spacing:normal;text-transform:none;direction:ltr;block-progression:tb;writing-mode:lr-tb;text-anchor:start;baseline-shift:baseline;color:#000000;fill:#ffffff;fill-opacity:1;stroke:none;stroke-width:2;marker:none;visibility:visible;display:inline;overflow:visible;enable-background:accumulate;font-family:Sans;-inkscape-font-specification:Sans" />
    <path
       style="fill:#ffffff;fill-opacity:1;stroke:none"
       d="M 150 116 L 150 117.1875 C 149.9039 117.22197 149.81003 117.26878 149.71875 117.3125 L 148.875 116.46875 L 147.46875 117.875 L 148.3125 118.71875 C 148.26878 118.81003 148.22197 118.9039 148.1875 119 L 147 119 L 147 121 L 148.1875 121 C 148.22197 121.0961 148.26878 121.18997 148.3125 121.28125 L 147.46875 122.125 L 148.875 123.53125 L 149.71875 122.6875 C 149.81003 122.73122 149.9039 122.77803 150 122.8125 L 150 124 L 152 124 L 152 122.8125 C 152.0961 122.77803 152.18997 122.73122 152.28125 122.6875 L 153.125 123.53125 L 154.53125 122.125 L 153.6875 121.28125 C 153.73122 121.18997 153.77803 121.0961 153.8125 121 L 155 121 L 155 119 L 153.8125 119 C 153.77803 118.9039 153.73122 118.81003 153.6875 118.71875 L 154.53125 117.875 L 153.125 116.46875 L 152.28125 117.3125 C 152.18997 117.26878 152.0961 117.22197 152 117.1875 L 152 116 L 150 116 z M 151 119 C 151.55228 119 152 119.44772 152 120 C 152 120.55228 151.55228 121 151 121 C 150.44772 121 150 120.55228 150 120 C 150 119.44772 150.44772 119 151 119 z "
       transform="translate(0,924.36218)"
       id="path10028" />
  </g>
</svg>
