<?xml version="1.0" encoding="UTF-8" standalone="no"?>
<!-- Created with Inkscape (http://www.inkscape.org/) -->

<svg
   xmlns:dc="http://purl.org/dc/elements/1.1/"
   xmlns:cc="http://creativecommons.org/ns#"
   xmlns:rdf="http://www.w3.org/1999/02/22-rdf-syntax-ns#"
   xmlns:svg="http://www.w3.org/2000/svg"
   xmlns="http://www.w3.org/2000/svg"
   xmlns:sodipodi="http://sodipodi.sourceforge.net/DTD/sodipodi-0.dtd"
   xmlns:inkscape="http://www.inkscape.org/namespaces/inkscape"
   width="16"
   height="16"
   id="svg3829"
   version="1.1"
   inkscape:version="0.91 r"
   sodipodi:docname="audio-input-microphone-symbolic.svg">
  <defs
     id="defs3831" />
  <sodipodi:namedview
     id="base"
     pagecolor="#ffffff"
     bordercolor="#666666"
     borderopacity="1.0"
     inkscape:pageopacity="0.0"
     inkscape:pageshadow="2"
     inkscape:zoom="8.0000004"
     inkscape:cx="-23.562017"
     inkscape:cy="3.731435"
     inkscape:current-layer="layer1"
     showgrid="true"
     inkscape:grid-bbox="true"
     inkscape:document-units="px"
     inkscape:window-width="1280"
     inkscape:window-height="969"
     inkscape:window-x="0"
     inkscape:window-y="28"
     inkscape:window-maximized="1"
     showguides="true"
     inkscape:guide-bbox="true">
    <inkscape:grid
       type="xygrid"
       id="grid3837"
       empspacing="4"
       visible="true"
       enabled="true"
       snapvisiblegridlinesonly="true"
       spacingx="0.5px"
       spacingy="0.5px" />
  </sodipodi:namedview>
  <metadata
     id="metadata3834">
    <rdf:RDF>
      <cc:Work
         rdf:about="">
        <dc:format>image/svg+xml</dc:format>
        <dc:type
           rdf:resource="http://purl.org/dc/dcmitype/StillImage" />
        <dc:title />
      </cc:Work>
    </rdf:RDF>
  </metadata>
  <g
     id="layer1"
     inkscape:label="Layer 1"
     inkscape:groupmode="layer"
     transform="translate(0,-32)">
    <path
       style="fill:#b3b3b3;fill-opacity:1;stroke:none"
       d="m 14.691917,33.037027 c -1.333913,-1.362283 -3.519613,-1.385282 -4.8818958,-0.05137 -0.292324,0.286236 -0.5024456,0.611127 -0.6712573,0.959253 l -0.5534979,-0.56527 -1.2590009,3.648579 0.4025439,0.411106 -5.352932,6.046719 -0.00856,0.81365 -1.2333162,1.207631 0.2264309,0.231247 c -0.2533669,0.271939 -0.48907243,0.516877 -0.64342243,0.730681 -0.2316251,0.320846 -0.36295529,0.575245 -0.3902272,0.835063 -0.0136362,0.12991 0.003936,0.266118 0.0722663,0.3822 0.0683308,0.116085 0.16610778,0.185596 0.27728398,0.231783 0.2222946,0.09243 0.44278765,0.09787 0.71140795,0.05834 1.074482,-0.158085 2.7139451,-0.946234 3.6046732,-1.818412 a 0.28771316,0.28771316 0 0 0 0.051389,-0.05032 0.28771316,0.28771316 0 0 0 0.026764,-0.126864 0.28771316,0.28771316 0 0 0 5.35e-4,-0.05085 0.28771316,0.28771316 0 0 0 5.351e-4,-0.05085 0.28771316,0.28771316 0 0 0 -0.049783,-0.102243 0.28771316,0.28771316 0 0 0 -0.050318,-0.05139 0.28771316,0.28771316 0 0 0 -0.025158,-0.0257 0.28771316,0.28771316 0 0 0 -0.1268652,-0.02677 0.28771316,0.28771316 0 0 0 -0.050853,-5.35e-4 0.28771316,0.28771316 0 0 0 -0.050853,-5.35e-4 0.28771316,0.28771316 0 0 0 -0.1022407,0.04978 0.28771316,0.28771316 0 0 0 -0.025694,0.02515 c -0.7536935,0.737998 -2.3859506,1.542901 -3.2470963,1.6696 -0.2152866,0.03168 -0.40938025,0.01527 -0.45767765,-0.0048 0.00376,0.0063 -0.00351,-0.01246 5.351e-4,-0.05085 0.00806,-0.07674 0.083081,-0.250888 0.28531035,-0.531014 0.1347614,-0.186671 0.347358,-0.414284 0.5920342,-0.680364 l 0.176113,0.17986 1.2333163,-1.207633 0.8136492,0.0085 6.1580201,-5.224509 0.402544,0.411106 3.674264,-1.181947 -0.553498,-0.56527 c 0.351601,-0.16145 0.680842,-0.364688 0.973165,-0.650924 1.362283,-1.333913 1.385282,-3.519611 0.05137,-4.881896 z"
       id="path3778"
       inkscape:connector-curvature="0" />
  </g>
</svg>
