<?xml version="1.0" encoding="UTF-8" standalone="no"?>
<!-- Created with Inkscape (http://www.inkscape.org/) -->

<svg
   xmlns:dc="http://purl.org/dc/elements/1.1/"
   xmlns:cc="http://creativecommons.org/ns#"
   xmlns:rdf="http://www.w3.org/1999/02/22-rdf-syntax-ns#"
   xmlns:svg="http://www.w3.org/2000/svg"
   xmlns="http://www.w3.org/2000/svg"
   xmlns:sodipodi="http://sodipodi.sourceforge.net/DTD/sodipodi-0.dtd"
   xmlns:inkscape="http://www.inkscape.org/namespaces/inkscape"
   width="16"
   height="16"
   id="svg3829"
   version="1.1"
   inkscape:version="0.91 r"
   sodipodi:docname="camera-photo-symbolic.svg">
  <defs
     id="defs3831" />
  <sodipodi:namedview
     id="base"
     pagecolor="#ffffff"
     bordercolor="#666666"
     borderopacity="1.0"
     inkscape:pageopacity="0.0"
     inkscape:pageshadow="2"
     inkscape:zoom="11.313709"
     inkscape:cx="-2.4143078"
     inkscape:cy="12.840495"
     inkscape:current-layer="layer1"
     showgrid="true"
     inkscape:grid-bbox="true"
     inkscape:document-units="px"
     inkscape:window-width="1280"
     inkscape:window-height="969"
     inkscape:window-x="0"
     inkscape:window-y="28"
     inkscape:window-maximized="1"
     showguides="true"
     inkscape:guide-bbox="true">
    <inkscape:grid
       type="xygrid"
       id="grid3837"
       empspacing="4"
       visible="true"
       enabled="true"
       snapvisiblegridlinesonly="true"
       spacingx="0.5px"
       spacingy="0.5px" />
  </sodipodi:namedview>
  <metadata
     id="metadata3834">
    <rdf:RDF>
      <cc:Work
         rdf:about="">
        <dc:format>image/svg+xml</dc:format>
        <dc:type
           rdf:resource="http://purl.org/dc/dcmitype/StillImage" />
        <dc:title />
      </cc:Work>
    </rdf:RDF>
  </metadata>
  <g
     id="layer1"
     inkscape:label="Layer 1"
     inkscape:groupmode="layer"
     transform="translate(0,-32)">
    <path
       style="color:#000000;fill:#b3b3b3;fill-opacity:1;fill-rule:nonzero;stroke:none;stroke-width:0.8564384;marker:none;visibility:visible;display:inline;overflow:visible;enable-background:accumulate"
       d="M 0.75 0.21875 L 0.75 2 C 0.75 2.140386 0.85961429 2.25 1 2.25 L 15 2.25 C 15.140386 2.25 15.25 2.140386 15.25 2 L 15.25 0.21875 L 0.75 0.21875 z M 0.25 0.3125 C 0.11145292 0.40174107 1.1846892e-16 0.54296335 0 0.71875 L 0 10.03125 L 0 12.3125 C 0 12.587061 0.225438 12.8125 0.5 12.8125 L 4.65625 12.8125 C 5.655002 14.58175 7.542186 15.78125 9.71875 15.78125 C 11.895314 15.78125 13.782499 14.58175 14.78125 12.8125 L 15.5 12.8125 C 15.774561 12.8125 16 12.587061 16 12.3125 L 16 3 L 16 0.71875 C 16 0.54296335 15.888547 0.40174107 15.75 0.3125 L 15.75 2 C 15.75 2.408737 15.408737 2.75 15 2.75 L 1 2.75 C 0.59126291 2.75 0.25 2.408737 0.25 2 L 0.25 0.3125 z M 2.5 0.5 C 3.3284271 0.5 4 0.83578644 4 1.25 C 4 1.6642136 3.3284271 2 2.5 2 C 1.6715729 2 1 1.6642136 1 1.25 C 1 0.83578644 1.6715729 0.5 2.5 0.5 z M 1.625 3.21875 L 3.5 3.21875 C 3.7745614 3.21875 4 3.4441886 4 3.71875 L 4 4.4375 C 4 4.7120614 3.7745614 4.9375 3.5 4.9375 L 1.625 4.9375 C 1.3504386 4.9375 1.15625 4.7120614 1.15625 4.4375 L 1.15625 3.71875 C 1.15625 3.4441886 1.3504386 3.21875 1.625 3.21875 z M 0.5 5.75 L 3.5 5.75 L 3.75 5.75 L 3.75 6 L 3.75 12.5 L 3.25 12.5 L 3.25 6.25 L 0.5 6.25 L 0.5 5.75 z M 9.71875 5.9375 C 12.243527 5.9375 14.28125 8.006474 14.28125 10.53125 C 14.28125 13.056027 12.243527 15.09375 9.71875 15.09375 C 7.193974 15.09375 5.15625 13.056027 5.15625 10.53125 C 5.15625 8.006474 7.193974 5.9375 9.71875 5.9375 z M 9.71875 8.21875 C 8.4563616 8.21875 7.4375 9.2688616 7.4375 10.53125 C 7.4375 11.793638 8.4563616 12.8125 9.71875 12.8125 C 10.981138 12.8125 12 11.793638 12 10.53125 C 12 9.2688616 10.981138 8.21875 9.71875 8.21875 z "
       transform="translate(0,32)"
       id="rect3739" />
  </g>
</svg>
