<?xml version="1.0" encoding="UTF-8" standalone="no"?>
<!-- Created with Inkscape (http://www.inkscape.org/) -->

<svg
   xmlns:dc="http://purl.org/dc/elements/1.1/"
   xmlns:cc="http://creativecommons.org/ns#"
   xmlns:rdf="http://www.w3.org/1999/02/22-rdf-syntax-ns#"
   xmlns:svg="http://www.w3.org/2000/svg"
   xmlns="http://www.w3.org/2000/svg"
   xmlns:sodipodi="http://sodipodi.sourceforge.net/DTD/sodipodi-0.dtd"
   xmlns:inkscape="http://www.inkscape.org/namespaces/inkscape"
   width="16"
   height="16"
   id="svg3829"
   version="1.1"
   inkscape:version="0.91 r"
   sodipodi:docname="drive-harddisk-system-symbolic.svg">
  <defs
     id="defs3831" />
  <sodipodi:namedview
     id="base"
     pagecolor="#ffffff"
     bordercolor="#666666"
     borderopacity="1.0"
     inkscape:pageopacity="0.0"
     inkscape:pageshadow="2"
     inkscape:zoom="32.000001"
     inkscape:cx="7.8539471"
     inkscape:cy="6.5999849"
     inkscape:current-layer="layer1"
     showgrid="true"
     inkscape:grid-bbox="true"
     inkscape:document-units="px"
     inkscape:window-width="1280"
     inkscape:window-height="969"
     inkscape:window-x="0"
     inkscape:window-y="28"
     inkscape:window-maximized="1"
     showguides="true"
     inkscape:guide-bbox="true">
    <inkscape:grid
       type="xygrid"
       id="grid3837"
       empspacing="2"
       visible="true"
       enabled="true"
       snapvisiblegridlinesonly="true"
       spacingx="0.5px"
       spacingy="0.5px" />
  </sodipodi:namedview>
  <metadata
     id="metadata3834">
    <rdf:RDF>
      <cc:Work
         rdf:about="">
        <dc:format>image/svg+xml</dc:format>
        <dc:type
           rdf:resource="http://purl.org/dc/dcmitype/StillImage" />
        <dc:title />
      </cc:Work>
    </rdf:RDF>
  </metadata>
  <g
     id="layer1"
     inkscape:label="Layer 1"
     inkscape:groupmode="layer"
     transform="translate(0,-32)">
    <path
       style="fill:#b3b3b3;fill-opacity:1;stroke:none"
       d="M 4 0 C 3.446 0 3 0.446 3 1 L 3 15 C 3 15.554 3.446 16 4 16 L 12 16 C 12.554 16 13 15.554 13 15 L 13 1 C 13 0.446 12.554 0 12 0 L 4 0 z M 8 1 C 10.209139 1 12 2.790861 12 5 C 12 7.209139 10.209139 9 8 9 C 5.790861 9 4 7.209139 4 5 C 4 2.790861 5.790861 1 8 1 z M 8 2 C 6.6986791 2 5.6030105 2.8416522 5.1875 4 L 8 4 C 8.554 4 9 4.446 9 5 C 9 5.554 8.554 6 8 6 L 5.1875 6 C 5.6030105 7.1583478 6.6986791 8 8 8 C 9.6568542 8 11 6.6568542 11 5 C 11 3.3431458 9.6568542 2 8 2 z M 5 10 L 11 10 C 11.554 10 12 10.446 12 11 L 12 14 C 12 14.554 11.554 15 11 15 L 5 15 C 4.446 15 4 14.554 4 14 L 4 11 C 4 10.446 4.446 10 5 10 z "
       transform="translate(0,32)"
       id="rect4854" />
  </g>
</svg>
