<?xml version="1.0" encoding="UTF-8" standalone="no"?>
<!-- Created with Inkscape (http://www.inkscape.org/) -->

<svg
   xmlns:dc="http://purl.org/dc/elements/1.1/"
   xmlns:cc="http://creativecommons.org/ns#"
   xmlns:rdf="http://www.w3.org/1999/02/22-rdf-syntax-ns#"
   xmlns:svg="http://www.w3.org/2000/svg"
   xmlns="http://www.w3.org/2000/svg"
   xmlns:xlink="http://www.w3.org/1999/xlink"
   xmlns:sodipodi="http://sodipodi.sourceforge.net/DTD/sodipodi-0.dtd"
   xmlns:inkscape="http://www.inkscape.org/namespaces/inkscape"
   width="128"
   height="128"
   id="svg3829"
   version="1.1"
   inkscape:version="0.91 r"
   sodipodi:docname="drive-harddisk-usb.svg">
  <defs
     id="defs3831">
    <linearGradient
       id="linearGradient9125">
      <stop
         style="stop-color:#000000;stop-opacity:0;"
         offset="0"
         id="stop9127" />
      <stop
         style="stop-color:#000000;stop-opacity:1;"
         offset="1"
         id="stop9129" />
    </linearGradient>
    <linearGradient
       id="linearGradient8794">
      <stop
         style="stop-color:#ffffff;stop-opacity:1;"
         offset="0"
         id="stop8796" />
      <stop
         style="stop-color:#cacaca;stop-opacity:1;"
         offset="1"
         id="stop8798" />
    </linearGradient>
    <linearGradient
       id="linearGradient5113">
      <stop
         style="stop-color:#ffffff;stop-opacity:1;"
         offset="0"
         id="stop5115" />
      <stop
         id="stop5121"
         offset="0.5"
         style="stop-color:#ffffff;stop-opacity:0;" />
      <stop
         style="stop-color:#ffffff;stop-opacity:1;"
         offset="1"
         id="stop5117" />
    </linearGradient>
    <linearGradient
       id="linearGradient4270-9">
      <stop
         style="stop-color:#f9f9f9;stop-opacity:0.50196081;"
         offset="0"
         id="stop4272-5" />
      <stop
         id="stop5033"
         offset="0.25"
         style="stop-color:#7d7d7d;stop-opacity:0.50196081;" />
      <stop
         id="stop4278-7"
         offset="0.5"
         style="stop-color:#808080;stop-opacity:0.50196081;" />
      <stop
         style="stop-color:#ffffff;stop-opacity:0.50196081;"
         offset="0.75"
         id="stop5035" />
      <stop
         style="stop-color:#000000;stop-opacity:0.50196081;"
         offset="1"
         id="stop4274-4" />
    </linearGradient>
    <linearGradient
       id="linearGradient4317-9">
      <stop
         style="stop-color:#ffffff;stop-opacity:0.80349344;"
         offset="0"
         id="stop4319-9" />
      <stop
         style="stop-color:#ffffff;stop-opacity:0.74496645;"
         offset="1"
         id="stop4321-9" />
    </linearGradient>
    <linearGradient
       id="linearGradient4270-9-2">
      <stop
         style="stop-color:#f9f9f9;stop-opacity:0.50196081;"
         offset="0"
         id="stop4272-5-3" />
      <stop
         id="stop5033-1"
         offset="0.25"
         style="stop-color:#7d7d7d;stop-opacity:0.50196081;" />
      <stop
         id="stop4278-7-5"
         offset="0.5"
         style="stop-color:#808080;stop-opacity:0.50196081;" />
      <stop
         style="stop-color:#ffffff;stop-opacity:0.50196081;"
         offset="0.75"
         id="stop5035-7" />
      <stop
         style="stop-color:#000000;stop-opacity:0.50196081;"
         offset="1"
         id="stop4274-4-7" />
    </linearGradient>
    <radialGradient
       inkscape:collect="always"
       xlink:href="#linearGradient4270-9-2"
       id="radialGradient7996"
       gradientUnits="userSpaceOnUse"
       gradientTransform="matrix(1.5734565,1.758569,-0.70723,0.63278475,-62.509085,-86.974406)"
       cx="36"
       cy="-64.879013"
       fx="36"
       fy="-64.879013"
       r="37.012661" />
    <radialGradient
       inkscape:collect="always"
       xlink:href="#linearGradient4317-9"
       id="radialGradient8026"
       gradientUnits="userSpaceOnUse"
       gradientTransform="matrix(0.65025714,0.55736331,-1.1106752,1.2957877,35.293259,-59.234562)"
       cx="92"
       cy="6.4254985"
       fx="92"
       fy="6.4254985"
       r="37.012661" />
    <radialGradient
       inkscape:collect="always"
       xlink:href="#linearGradient4270-9"
       id="radialGradient8028"
       gradientUnits="userSpaceOnUse"
       gradientTransform="matrix(0.65025714,0.55736331,-1.1106752,1.2957877,35.293259,-59.234562)"
       cx="92"
       cy="6.4254985"
       fx="92"
       fy="6.4254985"
       r="37.012661" />
    <linearGradient
       inkscape:collect="always"
       xlink:href="#linearGradient5113"
       id="linearGradient8031"
       gradientUnits="userSpaceOnUse"
       gradientTransform="matrix(0.85643839,0,0,0.85643839,9.1879449,-74.997635)"
       x1="28"
       y1="18.03125"
       x2="100"
       y2="18.03125" />
    <radialGradient
       inkscape:collect="always"
       xlink:href="#linearGradient8794"
       id="radialGradient8800"
       cx="95.877007"
       cy="-50.081726"
       fx="95.877007"
       fy="-50.081726"
       r="56.428219"
       gradientTransform="matrix(2.2683686,1.5379689e-7,-1.2814371e-7,2.2683687,-121.48441,65.6038)"
       gradientUnits="userSpaceOnUse" />
    <linearGradient
       id="linearGradient4270-9-28">
      <stop
         style="stop-color:#f9f9f9;stop-opacity:0.50196081;"
         offset="0"
         id="stop4272-5-33" />
      <stop
         id="stop5033-81"
         offset="0.25"
         style="stop-color:#7d7d7d;stop-opacity:0.50196081;" />
      <stop
         id="stop4278-7-4"
         offset="0.5"
         style="stop-color:#808080;stop-opacity:0.50196081;" />
      <stop
         style="stop-color:#ffffff;stop-opacity:0.50196081;"
         offset="0.75"
         id="stop5035-3" />
      <stop
         style="stop-color:#000000;stop-opacity:0.50196081;"
         offset="1"
         id="stop4274-4-83" />
    </linearGradient>
    <filter
       inkscape:collect="always"
       id="filter8877">
      <feGaussianBlur
         inkscape:collect="always"
         stdDeviation="1.9999998"
         id="feGaussianBlur8879" />
    </filter>
    <radialGradient
       inkscape:collect="always"
       xlink:href="#linearGradient4270-9-28"
       id="radialGradient9119"
       cx="64"
       cy="108"
       fx="64"
       fy="108"
       r="53"
       gradientTransform="matrix(1,0,0,0.16981132,0,89.660377)"
       gradientUnits="userSpaceOnUse" />
    <radialGradient
       inkscape:collect="always"
       xlink:href="#linearGradient9125"
       id="radialGradient9131"
       cx="64"
       cy="108"
       fx="64"
       fy="108"
       r="48.5"
       gradientTransform="matrix(1,0,0,0.09278351,0,97.979381)"
       gradientUnits="userSpaceOnUse" />
    <filter
       inkscape:collect="always"
       id="filter9199"
       x="-0.03125"
       width="1.0625"
       y="-0.75"
       height="2.5">
      <feGaussianBlur
         inkscape:collect="always"
         stdDeviation="1.5625"
         id="feGaussianBlur9201" />
    </filter>
    <radialGradient
       inkscape:collect="always"
       xlink:href="#linearGradient9125"
       id="radialGradient9219"
       cx="64"
       cy="108"
       fx="64"
       fy="108"
       r="52"
       gradientTransform="matrix(1.2307694,0,0,0.3076923,-14.769245,74.769232)"
       gradientUnits="userSpaceOnUse" />
  </defs>
  <sodipodi:namedview
     id="base"
     pagecolor="#ffffff"
     bordercolor="#666666"
     borderopacity="1.0"
     inkscape:pageopacity="0.0"
     inkscape:pageshadow="2"
     inkscape:zoom="1.4142136"
     inkscape:cx="-93.570015"
     inkscape:cy="67.856772"
     inkscape:current-layer="layer1"
     showgrid="true"
     inkscape:grid-bbox="true"
     inkscape:document-units="px"
     inkscape:window-width="1280"
     inkscape:window-height="969"
     inkscape:window-x="0"
     inkscape:window-y="28"
     inkscape:window-maximized="1"
     showguides="true"
     inkscape:guide-bbox="true">
    <inkscape:grid
       type="xygrid"
       id="grid3837"
       empspacing="4"
       visible="true"
       enabled="true"
       snapvisiblegridlinesonly="true" />
  </sodipodi:namedview>
  <metadata
     id="metadata3834">
    <rdf:RDF>
      <cc:Work
         rdf:about="">
        <dc:format>image/svg+xml</dc:format>
        <dc:type
           rdf:resource="http://purl.org/dc/dcmitype/StillImage" />
        <dc:title />
      </cc:Work>
    </rdf:RDF>
  </metadata>
  <g
     id="layer1"
     inkscape:label="Layer 1"
     inkscape:groupmode="layer"
     transform="translate(0,80)">
    <rect
       style="color:#000000;fill:#000000;fill-opacity:1;fill-rule:nonzero;stroke:none;stroke-width:0.85643840000000004;marker:none;visibility:visible;display:inline;overflow:visible;enable-background:accumulate;filter:url(#filter8877)"
       id="rect3482-4"
       width="112"
       height="87.999985"
       x="8"
       y="-46"
       rx="3.4691236"
       ry="3.4691236" />
    <path
       style="color:#000000;fill:url(#linearGradient8031);fill-opacity:1;fill-rule:nonzero;stroke:none;stroke-width:1;marker:none;visibility:visible;display:inline;overflow:visible;enable-background:accumulate"
       d="m 36.6475,-71.571881 c -1.921894,0 -3.47928,1.557386 -3.47928,3.479281 l 0,20.554521 c 0,-1.921895 1.557386,-3.479281 3.47928,-3.479281 l 54.705003,0 c 1.921895,0 3.479281,1.557386 3.479281,3.479281 l 0,-20.554521 c 0,-1.921895 -1.557386,-3.479281 -3.479281,-3.479281 l -54.705003,0 z"
       id="rect3482-2"
       inkscape:connector-curvature="0" />
    <rect
       style="color:#000000;fill:url(#radialGradient8026);fill-opacity:1;fill-rule:nonzero;stroke:url(#radialGradient8028);stroke-width:0.8564384;stroke-miterlimit:4;stroke-dasharray:none;marker:none;visibility:visible;display:inline;overflow:visible;enable-background:accumulate"
       id="rect3482"
       width="112"
       height="87.999985"
       x="8"
       y="-48"
       rx="3.4691236"
       ry="3.4691236" />
    <rect
       style="color:#000000;fill:url(#radialGradient8800);fill-opacity:1;fill-rule:nonzero;stroke:url(#radialGradient7996);stroke-width:0.85643840000000004;stroke-miterlimit:4;stroke-dasharray:none;marker:none;visibility:visible;display:inline;overflow:visible;enable-background:accumulate"
       id="rect3482-2-1"
       width="112"
       height="88"
       x="8"
       y="-72"
       rx="3.4691236"
       ry="3.4691236" />
    <g
       id="g8789"
       transform="matrix(1.5107909,0,0,1.5107909,-50.018065,30.386841)">
      <path
         inkscape:connector-curvature="0"
         id="rect5970-7-6"
         d="M 75.469124,-60.762203 72,-56.425799 l 2.601843,0 0,21.682024 0,1.951382 c -2.710201,-2.754431 -7.736788,-3.98447 -8.564399,-9.10645 0.946282,-0.389345 1.626152,-1.298323 1.626152,-2.385022 0,-1.436958 -1.16489,-2.601842 -2.601842,-2.601842 -1.436955,0 -2.601844,1.164884 -2.601844,2.601842 0,1.137591 0.744501,2.085654 1.761664,2.439227 0.551027,7.969278 10.380269,8.162561 10.380269,14.906391 l 0,3.604636 C 73.106382,-22.947955 72,-21.615907 72,-20 c 0,1.915945 1.553179,3.469123 3.469124,3.469123 1.915945,0 3.469123,-1.553178 3.469123,-3.469123 0,-1.615907 -1.106381,-2.947955 -2.601842,-3.333611 l 0,-5.339198 0,-4.336405 c 0,-6.938247 10.40737,-6.938247 10.40737,-15.611057 l 1.734562,0 0,-5.203685 -5.203685,0 0,5.203685 1.70746,0 c -0.492235,5.67381 -5.824399,6.889555 -8.645707,9.756912 l 0,-17.56244 2.601842,0 -3.469123,-4.336404 z"
         style="opacity:0.25;color:#000000;fill:none;stroke:#000000;stroke-width:3.42575359;stroke-linejoin:round;stroke-miterlimit:4;stroke-opacity:1;stroke-dasharray:none;marker:none;visibility:visible;display:inline;overflow:visible;enable-background:accumulate" />
      <path
         inkscape:connector-curvature="0"
         id="rect5970-7"
         d="M 75.469124,-60.7622 72,-56.425796 l 2.601843,0 0,21.682024 0,1.951381 c -2.710201,-2.75443 -7.736788,-3.984469 -8.564399,-9.106449 0.946282,-0.389345 1.626152,-1.298324 1.626152,-2.385022 0,-1.436959 -1.16489,-2.601843 -2.601842,-2.601843 -1.436955,0 -2.601844,1.164884 -2.601844,2.601843 0,1.137591 0.744501,2.085653 1.761664,2.439227 0.551027,7.969277 10.380269,8.16256 10.380269,14.906391 l 0,3.604635 C 73.106382,-22.947952 72,-21.615905 72,-19.999997 c 0,1.915944 1.553179,3.469123 3.469124,3.469123 1.915945,0 3.469123,-1.553179 3.469123,-3.469123 0,-1.615908 -1.106381,-2.947955 -2.601842,-3.333612 l 0,-5.339197 0,-4.336405 c 0,-6.938247 10.40737,-6.938247 10.40737,-15.611057 l 1.734562,0 0,-5.203685 -5.203685,0 0,5.203685 1.70746,0 c -0.492235,5.673809 -5.824399,6.889555 -8.645707,9.756911 l 0,-17.562439 2.601842,0 -3.469123,-4.336404 z"
         style="opacity:0.5;color:#000000;fill:none;stroke:#000000;stroke-width:0.8672809;stroke-linejoin:round;stroke-miterlimit:4;stroke-opacity:1;stroke-dasharray:none;marker:none;visibility:visible;display:inline;overflow:visible;enable-background:accumulate" />
      <path
         inkscape:connector-curvature="0"
         id="rect5970"
         d="M 75.469124,-61.846301 72,-57.509897 l 2.601843,0 0,21.682024 0,1.951381 c -2.710201,-2.75443 -7.736788,-3.98447 -8.564399,-9.106449 0.946282,-0.389345 1.626152,-1.298324 1.626152,-2.385022 0,-1.436959 -1.16489,-2.601843 -2.601842,-2.601843 -1.436955,0 -2.601844,1.164884 -2.601844,2.601843 0,1.137591 0.744501,2.085653 1.761664,2.439227 0.551027,7.969277 10.380269,8.16256 10.380269,14.906391 l 0,3.604635 C 73.106382,-24.032053 72,-22.700006 72,-21.084098 c 0,1.915944 1.553179,3.469123 3.469124,3.469123 1.915945,0 3.469123,-1.553179 3.469123,-3.469123 0,-1.615908 -1.106381,-2.947955 -2.601842,-3.333612 l 0,-5.339197 0,-4.336405 c 0,-6.938247 10.40737,-6.938247 10.40737,-15.611057 l 1.734562,0 0,-5.203686 -5.203685,0 0,5.203686 1.70746,0 c -0.492235,5.673809 -5.824399,6.889555 -8.645707,9.756911 l 0,-17.562439 2.601842,0 -3.469123,-4.336404 z"
         style="opacity:0.75;color:#000000;fill:none;stroke:#ffffff;stroke-width:0.8672809;stroke-linejoin:round;stroke-miterlimit:4;stroke-opacity:1;stroke-dasharray:none;marker:none;visibility:visible;display:inline;overflow:visible;enable-background:accumulate" />
    </g>
    <rect
       style="fill:#000000;fill-opacity:1;stroke:url(#radialGradient9119);stroke-width:2;stroke-linecap:round;stroke-linejoin:round;stroke-miterlimit:4;stroke-opacity:1;stroke-dasharray:none"
       id="rect9089"
       width="104"
       height="16"
       x="12"
       y="100"
       transform="translate(0,-80)"
       rx="0.85737503"
       ry="0.85737503" />
    <rect
       style="opacity:0.75;fill:#00ff00;fill-opacity:1;stroke:none"
       id="rect9121"
       width="96"
       height="4"
       x="16"
       y="106"
       transform="translate(0,-80)"
       rx="0"
       ry="0" />
    <path
       style="fill:none;stroke:url(#radialGradient9131);stroke-width:1px;stroke-linecap:butt;stroke-linejoin:miter;stroke-opacity:1"
       d="m 16,104 0,8 4,0 0,-8 4,0 0,8 4,0 0,-8 4,0 0,8 4,0 0,-8 4,0 0,8 4,0 0,-8 4,0 0,8 4,0 0,-8 4,0 0,8 4,0 0,-8 4,0 0,8 4,0 0,-8 4,0 0,8 4,0 0,-8 4,0 0,8 4,0 0,-8 4,0 0,8 4,0 0,-8 4,0 0,8 4,0 0,-8 4,0 0,8 4,0 0,-8 4,0 0,8"
       id="path9123"
       inkscape:connector-curvature="0"
       transform="translate(0,-80)" />
    <rect
       style="opacity:0.75;fill:#00ff00;fill-opacity:1;stroke:none;filter:url(#filter9199)"
       id="rect9121-6"
       width="97"
       height="6"
       x="16"
       y="25"
       rx="0"
       ry="0" />
    <rect
       style="opacity:1;fill:url(#radialGradient9219);fill-opacity:1;stroke:none;stroke-opacity:1"
       id="rect9203"
       width="104"
       height="16"
       x="12"
       y="100"
       transform="translate(0,-80)" />
  </g>
</svg>
