<?xml version="1.0" encoding="UTF-8" standalone="no"?>
<!-- Created with Inkscape (http://www.inkscape.org/) -->

<svg
   xmlns:dc="http://purl.org/dc/elements/1.1/"
   xmlns:cc="http://creativecommons.org/ns#"
   xmlns:rdf="http://www.w3.org/1999/02/22-rdf-syntax-ns#"
   xmlns:svg="http://www.w3.org/2000/svg"
   xmlns="http://www.w3.org/2000/svg"
   xmlns:xlink="http://www.w3.org/1999/xlink"
   xmlns:sodipodi="http://sodipodi.sourceforge.net/DTD/sodipodi-0.dtd"
   xmlns:inkscape="http://www.inkscape.org/namespaces/inkscape"
   width="128"
   height="128"
   id="svg3829"
   version="1.1"
   inkscape:version="0.91 r"
   sodipodi:docname="drive-harddisk-ieee1394.svg">
  <defs
     id="defs3831">
    <linearGradient
       id="linearGradient9125">
      <stop
         style="stop-color:#000000;stop-opacity:0;"
         offset="0"
         id="stop9127" />
      <stop
         style="stop-color:#000000;stop-opacity:1;"
         offset="1"
         id="stop9129" />
    </linearGradient>
    <linearGradient
       id="linearGradient8794">
      <stop
         style="stop-color:#ffffff;stop-opacity:1;"
         offset="0"
         id="stop8796" />
      <stop
         style="stop-color:#cacaca;stop-opacity:1;"
         offset="1"
         id="stop8798" />
    </linearGradient>
    <linearGradient
       id="linearGradient4270-9">
      <stop
         style="stop-color:#f9f9f9;stop-opacity:0.50196081;"
         offset="0"
         id="stop4272-5" />
      <stop
         id="stop5033"
         offset="0.25"
         style="stop-color:#7d7d7d;stop-opacity:0.50196081;" />
      <stop
         id="stop4278-7"
         offset="0.5"
         style="stop-color:#808080;stop-opacity:0.50196081;" />
      <stop
         style="stop-color:#ffffff;stop-opacity:0.50196081;"
         offset="0.75"
         id="stop5035" />
      <stop
         style="stop-color:#000000;stop-opacity:0.50196081;"
         offset="1"
         id="stop4274-4" />
    </linearGradient>
    <linearGradient
       id="linearGradient4317-9">
      <stop
         style="stop-color:#ffffff;stop-opacity:0.80349344;"
         offset="0"
         id="stop4319-9" />
      <stop
         style="stop-color:#ffffff;stop-opacity:0.74496645;"
         offset="1"
         id="stop4321-9" />
    </linearGradient>
    <linearGradient
       id="linearGradient4270-9-2">
      <stop
         style="stop-color:#f9f9f9;stop-opacity:0.50196081;"
         offset="0"
         id="stop4272-5-3" />
      <stop
         id="stop5033-1"
         offset="0.25"
         style="stop-color:#7d7d7d;stop-opacity:0.50196081;" />
      <stop
         id="stop4278-7-5"
         offset="0.5"
         style="stop-color:#808080;stop-opacity:0.50196081;" />
      <stop
         style="stop-color:#ffffff;stop-opacity:0.50196081;"
         offset="0.75"
         id="stop5035-7" />
      <stop
         style="stop-color:#000000;stop-opacity:0.50196081;"
         offset="1"
         id="stop4274-4-7" />
    </linearGradient>
    <radialGradient
       inkscape:collect="always"
       xlink:href="#linearGradient4270-9-2"
       id="radialGradient7996"
       gradientUnits="userSpaceOnUse"
       gradientTransform="matrix(1.5734565,1.758569,-0.70723,0.63278475,-62.509085,-86.974406)"
       cx="36"
       cy="-64.879013"
       fx="36"
       fy="-64.879013"
       r="37.012661" />
    <radialGradient
       inkscape:collect="always"
       xlink:href="#linearGradient4317-9"
       id="radialGradient8026"
       gradientUnits="userSpaceOnUse"
       gradientTransform="matrix(0.65025714,0.55736331,-1.1106752,1.2957877,35.293259,-59.234562)"
       cx="92"
       cy="6.4254985"
       fx="92"
       fy="6.4254985"
       r="37.012661" />
    <radialGradient
       inkscape:collect="always"
       xlink:href="#linearGradient4270-9"
       id="radialGradient8028"
       gradientUnits="userSpaceOnUse"
       gradientTransform="matrix(0.65025714,0.55736331,-1.1106752,1.2957877,35.293259,-59.234562)"
       cx="92"
       cy="6.4254985"
       fx="92"
       fy="6.4254985"
       r="37.012661" />
    <radialGradient
       inkscape:collect="always"
       xlink:href="#linearGradient8794"
       id="radialGradient8800"
       cx="95.877007"
       cy="-50.081726"
       fx="95.877007"
       fy="-50.081726"
       r="56.428219"
       gradientTransform="matrix(2.2683686,1.5379689e-7,-1.2814371e-7,2.2683687,-121.48441,65.6038)"
       gradientUnits="userSpaceOnUse" />
    <linearGradient
       id="linearGradient4270-9-28">
      <stop
         style="stop-color:#f9f9f9;stop-opacity:0.50196081;"
         offset="0"
         id="stop4272-5-33" />
      <stop
         id="stop5033-81"
         offset="0.25"
         style="stop-color:#7d7d7d;stop-opacity:0.50196081;" />
      <stop
         id="stop4278-7-4"
         offset="0.5"
         style="stop-color:#808080;stop-opacity:0.50196081;" />
      <stop
         style="stop-color:#ffffff;stop-opacity:0.50196081;"
         offset="0.75"
         id="stop5035-3" />
      <stop
         style="stop-color:#000000;stop-opacity:0.50196081;"
         offset="1"
         id="stop4274-4-83" />
    </linearGradient>
    <filter
       inkscape:collect="always"
       id="filter8877">
      <feGaussianBlur
         inkscape:collect="always"
         stdDeviation="1.9999998"
         id="feGaussianBlur8879" />
    </filter>
    <radialGradient
       inkscape:collect="always"
       xlink:href="#linearGradient4270-9-28"
       id="radialGradient9119"
       cx="64"
       cy="108"
       fx="64"
       fy="108"
       r="53"
       gradientTransform="matrix(1,0,0,0.16981132,0,89.660377)"
       gradientUnits="userSpaceOnUse" />
    <radialGradient
       inkscape:collect="always"
       xlink:href="#linearGradient9125"
       id="radialGradient9131"
       cx="64"
       cy="108"
       fx="64"
       fy="108"
       r="48.5"
       gradientTransform="matrix(1,0,0,0.09278351,0,97.979381)"
       gradientUnits="userSpaceOnUse" />
    <filter
       inkscape:collect="always"
       id="filter9199"
       x="-0.03125"
       width="1.0625"
       y="-0.75"
       height="2.5">
      <feGaussianBlur
         inkscape:collect="always"
         stdDeviation="1.5625"
         id="feGaussianBlur9201" />
    </filter>
    <radialGradient
       inkscape:collect="always"
       xlink:href="#linearGradient9125"
       id="radialGradient9219"
       cx="64"
       cy="108"
       fx="64"
       fy="108"
       r="52"
       gradientTransform="matrix(1.2307694,0,0,0.3076923,-14.769245,74.769232)"
       gradientUnits="userSpaceOnUse" />
    <radialGradient
       inkscape:collect="always"
       xlink:href="#linearGradient8794"
       id="radialGradient11256"
       cx="72"
       cy="-45.688404"
       fx="72"
       fy="-45.688404"
       r="29.28125"
       gradientTransform="matrix(4.2347919,-1.9912611e-7,1.7343239e-7,3.6883667,-232.90501,120.51561)"
       gradientUnits="userSpaceOnUse" />
  </defs>
  <sodipodi:namedview
     id="base"
     pagecolor="#ffffff"
     bordercolor="#666666"
     borderopacity="1.0"
     inkscape:pageopacity="0.0"
     inkscape:pageshadow="2"
     inkscape:zoom="1"
     inkscape:cx="-128.2334"
     inkscape:cy="117.27411"
     inkscape:current-layer="layer1"
     showgrid="true"
     inkscape:grid-bbox="true"
     inkscape:document-units="px"
     inkscape:window-width="1280"
     inkscape:window-height="969"
     inkscape:window-x="0"
     inkscape:window-y="28"
     inkscape:window-maximized="1"
     showguides="true"
     inkscape:guide-bbox="true">
    <inkscape:grid
       type="xygrid"
       id="grid3837"
       empspacing="4"
       visible="true"
       enabled="true"
       snapvisiblegridlinesonly="true" />
  </sodipodi:namedview>
  <metadata
     id="metadata3834">
    <rdf:RDF>
      <cc:Work
         rdf:about="">
        <dc:format>image/svg+xml</dc:format>
        <dc:type
           rdf:resource="http://purl.org/dc/dcmitype/StillImage" />
        <dc:title />
      </cc:Work>
    </rdf:RDF>
  </metadata>
  <g
     id="layer1"
     inkscape:label="Layer 1"
     inkscape:groupmode="layer"
     transform="translate(0,80)">
    <rect
       style="color:#000000;fill:#000000;fill-opacity:1;fill-rule:nonzero;stroke:none;stroke-width:0.85643840000000004;marker:none;visibility:visible;display:inline;overflow:visible;enable-background:accumulate;filter:url(#filter8877)"
       id="rect3482-4"
       width="112"
       height="87.999985"
       x="8"
       y="-46"
       rx="3.4691236"
       ry="3.4691236" />
    <rect
       style="color:#000000;fill:url(#radialGradient8026);fill-opacity:1;fill-rule:nonzero;stroke:url(#radialGradient8028);stroke-width:0.8564384;stroke-miterlimit:4;stroke-dasharray:none;marker:none;visibility:visible;display:inline;overflow:visible;enable-background:accumulate"
       id="rect3482"
       width="112"
       height="87.999985"
       x="8"
       y="-48"
       rx="3.4691236"
       ry="3.4691236" />
    <rect
       style="color:#000000;fill:url(#radialGradient8800);fill-opacity:1;fill-rule:nonzero;stroke:url(#radialGradient7996);stroke-width:0.85643840000000004;stroke-miterlimit:4;stroke-dasharray:none;marker:none;visibility:visible;display:inline;overflow:visible;enable-background:accumulate"
       id="rect3482-2-1"
       width="112"
       height="88"
       x="8"
       y="-72"
       rx="3.4691236"
       ry="3.4691236" />
    <rect
       style="fill:#000000;fill-opacity:1;stroke:url(#radialGradient9119);stroke-width:2;stroke-linecap:round;stroke-linejoin:round;stroke-miterlimit:4;stroke-opacity:1;stroke-dasharray:none"
       id="rect9089"
       width="104"
       height="16"
       x="12"
       y="100"
       transform="translate(0,-80)"
       rx="0.85737503"
       ry="0.85737503" />
    <rect
       style="opacity:0.75;fill:#00ff00;fill-opacity:1;stroke:none"
       id="rect9121"
       width="96"
       height="4"
       x="16"
       y="106"
       transform="translate(0,-80)"
       rx="0"
       ry="0" />
    <path
       style="fill:none;stroke:url(#radialGradient9131);stroke-width:1px;stroke-linecap:butt;stroke-linejoin:miter;stroke-opacity:1"
       d="m 16,104 0,8 4,0 0,-8 4,0 0,8 4,0 0,-8 4,0 0,8 4,0 0,-8 4,0 0,8 4,0 0,-8 4,0 0,8 4,0 0,-8 4,0 0,8 4,0 0,-8 4,0 0,8 4,0 0,-8 4,0 0,8 4,0 0,-8 4,0 0,8 4,0 0,-8 4,0 0,8 4,0 0,-8 4,0 0,8 4,0 0,-8 4,0 0,8 4,0 0,-8 4,0 0,8"
       id="path9123"
       inkscape:connector-curvature="0"
       transform="translate(0,-80)" />
    <rect
       style="opacity:0.75;fill:#00ff00;fill-opacity:1;stroke:none;filter:url(#filter9199)"
       id="rect9121-6"
       width="97"
       height="6"
       x="16"
       y="25"
       rx="0"
       ry="0" />
    <rect
       style="opacity:1;fill:url(#radialGradient9219);fill-opacity:1;stroke:none;stroke-opacity:1"
       id="rect9203"
       width="104"
       height="16"
       x="12"
       y="100"
       transform="translate(0,-80)" />
    <path
       style="fill:#000000;fill-opacity:1;stroke:#000000;stroke-width:6;stroke-linecap:round;stroke-linejoin:round;stroke-miterlimit:4;stroke-opacity:1;stroke-dasharray:none;opacity:0.25000000000000000"
       d="M 47 15.28125 L 34.71875 25.5625 L 39.875 31.6875 L 52.125 21.40625 L 47 15.28125 z M 81 15.28125 L 68.15625 30.59375 L 80.40625 40.875 L 93.28125 25.5625 L 81 15.28125 z M 54.6875 24.46875 L 42.4375 34.75 L 47.59375 40.875 L 59.84375 30.59375 L 54.6875 24.46875 z M 64 36 C 57.372583 36 52 41.372583 52 48 C 52 54.627417 57.372583 60 64 60 C 70.627417 60 76 54.627417 76 48 C 76 41.372583 70.627417 36 64 36 z M 64 44 C 66.209139 44 68 45.790861 68 48 C 68 50.209139 66.209139 52 64 52 C 61.790861 52 60 50.209139 60 48 C 60 45.790861 61.790861 44 64 44 z M 56 64 L 56 72 L 72 72 L 72 64 L 56 64 z M 56 76 L 56 84 L 72 84 L 72 76 L 56 76 z "
       transform="translate(0,-80)"
       id="path11231" />
    <path
       id="path11246"
       transform="translate(0,-80)"
       d="M 47 15.28125 L 34.71875 25.5625 L 39.875 31.6875 L 52.125 21.40625 L 47 15.28125 z M 81 15.28125 L 68.15625 30.59375 L 80.40625 40.875 L 93.28125 25.5625 L 81 15.28125 z M 54.6875 24.46875 L 42.4375 34.75 L 47.59375 40.875 L 59.84375 30.59375 L 54.6875 24.46875 z M 64 36 C 57.372583 36 52 41.372583 52 48 C 52 54.627417 57.372583 60 64 60 C 70.627417 60 76 54.627417 76 48 C 76 41.372583 70.627417 36 64 36 z M 64 44 C 66.209139 44 68 45.790861 68 48 C 68 50.209139 66.209139 52 64 52 C 61.790861 52 60 50.209139 60 48 C 60 45.790861 61.790861 44 64 44 z M 56 64 L 56 72 L 72 72 L 72 64 L 56 64 z M 56 76 L 56 84 L 72 84 L 72 76 L 56 76 z "
       style="fill:#000000;fill-opacity:1;stroke:none;stroke-width:6;stroke-linecap:round;stroke-linejoin:round;stroke-miterlimit:4;stroke-opacity:1;stroke-dasharray:none;opacity:0.5" />
    <path
       style="fill:url(#radialGradient11256);fill-opacity:1;stroke:none"
       d="m 47,-66.71875 -12.28125,10.28125 5.15625,6.125 12.25,-10.28125 -5.125,-6.125 z m 34,0 -12.84375,15.3125 12.25,10.28125 12.875,-15.3125 L 81,-66.71875 z m -26.3125,9.1875 -12.25,10.28125 5.15625,6.125 12.25,-10.28125 -5.15625,-6.125 z M 64,-46 c -6.627417,0 -12,5.372583 -12,12 0,6.627417 5.372583,12 12,12 6.627417,0 12,-5.372583 12,-12 0,-6.627417 -5.372583,-12 -12,-12 z m 0,8 c 2.209139,0 4,1.790861 4,4 0,2.209139 -1.790861,4 -4,4 -2.209139,0 -4,-1.790861 -4,-4 0,-2.209139 1.790861,-4 4,-4 z m -8,20 0,8 16,0 0,-8 -16,0 z m 0,12 0,8 16,0 0,-8 -16,0 z"
       id="path11248"
       inkscape:connector-curvature="0" />
  </g>
</svg>
