<?xml version="1.0" encoding="UTF-8" standalone="no"?>
<!-- Created with Inkscape (http://www.inkscape.org/) -->

<svg
   xmlns:dc="http://purl.org/dc/elements/1.1/"
   xmlns:cc="http://creativecommons.org/ns#"
   xmlns:rdf="http://www.w3.org/1999/02/22-rdf-syntax-ns#"
   xmlns:svg="http://www.w3.org/2000/svg"
   xmlns="http://www.w3.org/2000/svg"
   xmlns:xlink="http://www.w3.org/1999/xlink"
   xmlns:sodipodi="http://sodipodi.sourceforge.net/DTD/sodipodi-0.dtd"
   xmlns:inkscape="http://www.inkscape.org/namespaces/inkscape"
   width="128"
   height="128"
   id="svg3829"
   version="1.1"
   inkscape:version="0.91 r"
   sodipodi:docname="drive-removable-media-usb.svg">
  <defs
     id="defs3831">
    <linearGradient
       id="linearGradient8225">
      <stop
         id="stop8227"
         offset="0"
         style="stop-color:#ffffff;stop-opacity:1;" />
      <stop
         style="stop-color:#7f7f7f;stop-opacity:1;"
         offset="0.2"
         id="stop8229" />
      <stop
         style="stop-color:#000000;stop-opacity:1;"
         offset="0.22222222"
         id="stop8231" />
      <stop
         style="stop-color:#cacaca;stop-opacity:1;"
         offset="0.34200028"
         id="stop8233" />
      <stop
         style="stop-color:#686868;stop-opacity:1;"
         offset="0.45454547"
         id="stop8235" />
      <stop
         style="stop-color:#a6a6a6;stop-opacity:1;"
         offset="0.5"
         id="stop8237" />
      <stop
         id="stop8239"
         offset="0.66666669"
         style="stop-color:#ffffff;stop-opacity:1;" />
      <stop
         id="stop8241"
         offset="1"
         style="stop-color:#d2d2d2;stop-opacity:1;" />
    </linearGradient>
    <linearGradient
       id="linearGradient5113">
      <stop
         style="stop-color:#ffffff;stop-opacity:1;"
         offset="0"
         id="stop5115" />
      <stop
         id="stop5121"
         offset="0.5"
         style="stop-color:#ffffff;stop-opacity:0;" />
      <stop
         style="stop-color:#ffffff;stop-opacity:1;"
         offset="1"
         id="stop5117" />
    </linearGradient>
    <linearGradient
       id="linearGradient7258-8-91-6-8-7">
      <stop
         style="stop-color:#818181;stop-opacity:1;"
         offset="0"
         id="stop7260-6-4-1-2-7" />
      <stop
         style="stop-color:#000000;stop-opacity:1;"
         offset="1"
         id="stop7262-4-5-8-5-7" />
    </linearGradient>
    <linearGradient
       id="linearGradient4270-9">
      <stop
         style="stop-color:#f9f9f9;stop-opacity:0.50196081;"
         offset="0"
         id="stop4272-5" />
      <stop
         id="stop5033"
         offset="0.25"
         style="stop-color:#7d7d7d;stop-opacity:0.50196081;" />
      <stop
         id="stop4278-7"
         offset="0.5"
         style="stop-color:#808080;stop-opacity:0.50196081;" />
      <stop
         style="stop-color:#ffffff;stop-opacity:0.50196081;"
         offset="0.75"
         id="stop5035" />
      <stop
         style="stop-color:#000000;stop-opacity:0.50196081;"
         offset="1"
         id="stop4274-4" />
    </linearGradient>
    <linearGradient
       id="linearGradient4421-6">
      <stop
         style="stop-color:#ffffff;stop-opacity:1;"
         offset="0"
         id="stop4423-4" />
      <stop
         style="stop-color:#ffffff;stop-opacity:0;"
         offset="1"
         id="stop4425-3" />
    </linearGradient>
    <linearGradient
       id="linearGradient4317-9">
      <stop
         style="stop-color:#ffffff;stop-opacity:0.80349344;"
         offset="0"
         id="stop4319-9" />
      <stop
         style="stop-color:#ffffff;stop-opacity:0.74496645;"
         offset="1"
         id="stop4321-9" />
    </linearGradient>
    <linearGradient
       id="linearGradient4640-8">
      <stop
         style="stop-color:#ffffff;stop-opacity:0;"
         offset="0"
         id="stop4642-5" />
      <stop
         style="stop-color:#ffffff;stop-opacity:0.58951968;"
         offset="1"
         id="stop4644-7" />
    </linearGradient>
    <linearGradient
       id="linearGradient4270-9-2">
      <stop
         style="stop-color:#f9f9f9;stop-opacity:0.50196081;"
         offset="0"
         id="stop4272-5-3" />
      <stop
         id="stop5033-1"
         offset="0.25"
         style="stop-color:#7d7d7d;stop-opacity:0.50196081;" />
      <stop
         id="stop4278-7-5"
         offset="0.5"
         style="stop-color:#808080;stop-opacity:0.50196081;" />
      <stop
         style="stop-color:#ffffff;stop-opacity:0.50196081;"
         offset="0.75"
         id="stop5035-7" />
      <stop
         style="stop-color:#000000;stop-opacity:0.50196081;"
         offset="1"
         id="stop4274-4-7" />
    </linearGradient>
    <linearGradient
       inkscape:collect="always"
       xlink:href="#linearGradient4421-6"
       id="linearGradient7991"
       gradientUnits="userSpaceOnUse"
       gradientTransform="matrix(0.85643839,0,0,0.85643839,9.1879449,-74.997635)"
       x1="64"
       y1="8"
       x2="64"
       y2="32" />
    <radialGradient
       inkscape:collect="always"
       xlink:href="#linearGradient4640-8"
       id="radialGradient7994"
       gradientUnits="userSpaceOnUse"
       gradientTransform="matrix(0.85643839,0,0,0.99527281,9.187945,-1.2068571)"
       cx="76"
       cy="-50.047085"
       fx="76"
       fy="-50.047085"
       r="37.012661" />
    <radialGradient
       inkscape:collect="always"
       xlink:href="#linearGradient4270-9-2"
       id="radialGradient7996"
       gradientUnits="userSpaceOnUse"
       gradientTransform="matrix(1.5734565,1.758569,-0.70723,0.63278475,-62.509085,-86.974406)"
       cx="36"
       cy="-64.879013"
       fx="36"
       fy="-64.879013"
       r="37.012661" />
    <radialGradient
       inkscape:collect="always"
       xlink:href="#linearGradient4317-9"
       id="radialGradient8026"
       gradientUnits="userSpaceOnUse"
       gradientTransform="matrix(0.65025714,0.55736331,-1.1106752,1.2957877,35.293259,-59.234562)"
       cx="92"
       cy="6.4254985"
       fx="92"
       fy="6.4254985"
       r="37.012661" />
    <radialGradient
       inkscape:collect="always"
       xlink:href="#linearGradient4270-9"
       id="radialGradient8028"
       gradientUnits="userSpaceOnUse"
       gradientTransform="matrix(0.65025714,0.55736331,-1.1106752,1.2957877,35.293259,-59.234562)"
       cx="92"
       cy="6.4254985"
       fx="92"
       fy="6.4254985"
       r="37.012661" />
    <linearGradient
       inkscape:collect="always"
       xlink:href="#linearGradient5113"
       id="linearGradient8031"
       gradientUnits="userSpaceOnUse"
       gradientTransform="matrix(0.85643839,0,0,0.85643839,9.1879449,-74.997635)"
       x1="28"
       y1="18.03125"
       x2="100"
       y2="18.03125" />
    <filter
       inkscape:collect="always"
       id="filter8766">
      <feGaussianBlur
         inkscape:collect="always"
         stdDeviation="2.5242188"
         id="feGaussianBlur8768" />
    </filter>
    <radialGradient
       inkscape:collect="always"
       xlink:href="#linearGradient4421-6"
       id="radialGradient8771"
       gradientUnits="userSpaceOnUse"
       gradientTransform="matrix(1.8529099,2.0665721e-7,-1.9374109e-7,1.737103,-49.876742,-162.26689)"
       cx="57.333336"
       cy="92.972519"
       fx="57.333336"
       fy="92.972519"
       r="11" />
    <linearGradient
       inkscape:collect="always"
       xlink:href="#linearGradient8225"
       id="linearGradient8777"
       gradientUnits="userSpaceOnUse"
       gradientTransform="matrix(1.2738757,0,0,1.2738757,-17.528043,-16.050567)"
       x1="48"
       y1="20"
       x2="84"
       y2="36" />
    <radialGradient
       inkscape:collect="always"
       xlink:href="#linearGradient7258-8-91-6-8-7"
       id="radialGradient8787"
       cx="64"
       cy="27.774979"
       fx="64"
       fy="27.774979"
       r="15.980038"
       gradientTransform="matrix(1,0,0,0.94868431,0,1.6503128)"
       gradientUnits="userSpaceOnUse" />
  </defs>
  <sodipodi:namedview
     id="base"
     pagecolor="#ffffff"
     bordercolor="#666666"
     borderopacity="1.0"
     inkscape:pageopacity="0.0"
     inkscape:pageshadow="2"
     inkscape:zoom="2.8284272"
     inkscape:cx="4.858795"
     inkscape:cy="48.203701"
     inkscape:current-layer="layer1"
     showgrid="true"
     inkscape:grid-bbox="true"
     inkscape:document-units="px"
     inkscape:window-width="1280"
     inkscape:window-height="969"
     inkscape:window-x="0"
     inkscape:window-y="28"
     inkscape:window-maximized="1"
     showguides="true"
     inkscape:guide-bbox="true">
    <inkscape:grid
       type="xygrid"
       id="grid3837"
       empspacing="4"
       visible="true"
       enabled="true"
       snapvisiblegridlinesonly="true" />
  </sodipodi:namedview>
  <metadata
     id="metadata3834">
    <rdf:RDF>
      <cc:Work
         rdf:about="">
        <dc:format>image/svg+xml</dc:format>
        <dc:type
           rdf:resource="http://purl.org/dc/dcmitype/StillImage" />
        <dc:title />
      </cc:Work>
    </rdf:RDF>
  </metadata>
  <g
     id="layer1"
     inkscape:label="Layer 1"
     inkscape:groupmode="layer"
     transform="translate(0,80)">
    <path
       style="color:#000000;fill:#000000;fill-opacity:1;fill-rule:nonzero;stroke:none;stroke-width:0.85643840000000004;marker:none;visibility:visible;display:inline;overflow:visible;enable-background:accumulate;filter:url(#filter8766)"
       d="m 50.125,-65.25 0,16.21875 -13.5,0 c -1.921894,0 -3.46875,1.546856 -3.46875,3.46875 l 0,59.875 c 0,1.921894 1.546856,3.46875 3.46875,3.46875 l 11.90625,0 0,13.25 0,10.3125 30.9375,0 0,-10.3125 0,-13.25 11.90625,0 c 1.921894,0 3.46875,-1.546856 3.46875,-3.46875 l 0,-59.875 c 0,-1.921894 -1.546856,-3.46875 -3.46875,-3.46875 l -13.5,0 0,-16.21875 -27.75,0 z"
       id="rect3482-6"
       inkscape:connector-curvature="0" />
    <path
       style="color:#000000;fill:url(#linearGradient8031);fill-opacity:1;fill-rule:nonzero;stroke:none;stroke-width:1;marker:none;visibility:visible;display:inline;overflow:visible;enable-background:accumulate"
       d="m 36.6475,-71.571881 c -1.921894,0 -3.47928,1.557386 -3.47928,3.479281 l 0,20.554521 c 0,-1.921895 1.557386,-3.479281 3.47928,-3.479281 l 54.705003,0 c 1.921895,0 3.479281,1.557386 3.479281,3.479281 l 0,-20.554521 c 0,-1.921895 -1.557386,-3.479281 -3.479281,-3.479281 l -54.705003,0 z"
       id="rect3482-2"
       inkscape:connector-curvature="0" />
    <rect
       style="color:#000000;fill:url(#radialGradient8026);fill-opacity:1;fill-rule:nonzero;stroke:url(#radialGradient8028);stroke-width:0.8564384;stroke-miterlimit:4;stroke-dasharray:none;marker:none;visibility:visible;display:inline;overflow:visible;enable-background:accumulate"
       id="rect3482"
       width="61.663563"
       height="66.802193"
       x="33.168221"
       y="-51.017357"
       rx="3.4691236"
       ry="3.4691236" />
    <rect
       style="color:#000000;fill:#4e9a06;fill-opacity:0.80710659;fill-rule:nonzero;stroke:#2e5f00;stroke-width:1.7345618;stroke-linecap:round;stroke-linejoin:round;stroke-miterlimit:4;stroke-opacity:1;stroke-dasharray:none;stroke-dashoffset:0;marker:none;visibility:visible;display:inline;overflow:visible;enable-background:accumulate"
       id="rect4325"
       width="27.752989"
       height="69.382469"
       x="50.123505"
       y="-67.235565"
       rx="0"
       ry="0" />
    <rect
       style="color:#000000;fill:#2e3436;fill-opacity:0.80710659;fill-rule:nonzero;stroke:#babdb6;stroke-width:1.7345618;stroke-linecap:round;stroke-linejoin:round;stroke-miterlimit:4;stroke-opacity:1;stroke-dasharray:none;stroke-dashoffset:0;marker:none;visibility:visible;display:inline;overflow:visible;enable-background:accumulate"
       id="rect4327-2"
       width="20.814743"
       height="31.222113"
       x="53.592628"
       y="-39.482582" />
    <path
       style="fill:none;stroke:#edd400;stroke-width:1.7345618;stroke-linecap:butt;stroke-linejoin:miter;stroke-miterlimit:4;stroke-opacity:1;stroke-dasharray:none"
       d="m 53.592632,-1.3222192 3.469123,0 0,-45.0986078 3.469123,0 0,-6.938247 -6.938246,0 0,-10.407371"
       id="path4347"
       inkscape:connector-curvature="0" />
    <path
       style="fill:none;stroke:#edd400;stroke-width:1.7345618;stroke-linecap:butt;stroke-linejoin:miter;stroke-miterlimit:4;stroke-opacity:1;stroke-dasharray:none"
       d="m 60.530878,-63.766445 0,3.469124 3.469124,0 0,55.5059782 6.938247,0"
       id="path4371"
       inkscape:connector-curvature="0" />
    <path
       style="fill:none;stroke:#edd400;stroke-width:1.7345618;stroke-linecap:butt;stroke-linejoin:miter;stroke-miterlimit:4;stroke-opacity:1;stroke-dasharray:none"
       d="m 67.469125,-63.766445 6.938247,0 0,3.469124 -3.469123,0 0,3.469123 3.469123,0 0,3.469124 -6.938247,0 0,3.469123 3.469124,0 0,20.814743"
       id="path4373"
       inkscape:connector-curvature="0" />
    <rect
       style="color:#000000;fill:#2e3436;fill-opacity:0.80710659;fill-rule:nonzero;stroke:#babdb6;stroke-width:1.7345618;stroke-linecap:round;stroke-linejoin:round;stroke-miterlimit:4;stroke-opacity:1;stroke-dasharray:none;stroke-dashoffset:0;marker:none;visibility:visible;display:inline;overflow:visible;enable-background:accumulate"
       id="rect4327"
       width="20.814743"
       height="31.222113"
       x="53.592628"
       y="-42.951698" />
    <rect
       style="color:#000000;fill:#2e3436;fill-opacity:0.80710659;fill-rule:nonzero;stroke:#babdb6;stroke-width:1.7345618;stroke-linecap:round;stroke-linejoin:round;stroke-miterlimit:4;stroke-opacity:1;stroke-dasharray:none;stroke-dashoffset:0;marker:none;visibility:visible;display:inline;overflow:visible;enable-background:accumulate"
       id="rect4349-2"
       width="6.9382472"
       height="6.9382472"
       x="67.469131"
       y="-6.5259047" />
    <rect
       style="color:#000000;fill:#2e3436;fill-opacity:0.80710659;fill-rule:nonzero;stroke:#babdb6;stroke-width:1.7345618;stroke-linecap:round;stroke-linejoin:round;stroke-miterlimit:4;stroke-opacity:1;stroke-dasharray:none;stroke-dashoffset:0;marker:none;visibility:visible;display:inline;overflow:visible;enable-background:accumulate"
       id="rect4349"
       width="6.9382472"
       height="6.9382472"
       x="67.469131"
       y="-8.2604666" />
    <path
       style="fill:none;stroke:#edd400;stroke-width:1.7345618;stroke-linecap:butt;stroke-linejoin:miter;stroke-miterlimit:4;stroke-opacity:1;stroke-dasharray:none"
       d="m 60.530878,-8.2604665 0,6.9382473 6.938247,0"
       id="path4369"
       inkscape:connector-curvature="0" />
    <rect
       style="color:#000000;fill:#2e3436;fill-opacity:0.80710659;fill-rule:nonzero;stroke:#babdb6;stroke-width:1.7345618;stroke-linecap:round;stroke-linejoin:round;stroke-miterlimit:4;stroke-opacity:1;stroke-dasharray:none;stroke-dashoffset:0;marker:none;visibility:visible;display:inline;overflow:visible;enable-background:accumulate"
       id="rect4375"
       width="13.876494"
       height="3.4691236"
       x="53.592628"
       y="-63.766438" />
    <rect
       style="color:#000000;fill:url(#radialGradient7994);fill-opacity:1;fill-rule:nonzero;stroke:url(#radialGradient7996);stroke-width:0.8564384;stroke-miterlimit:4;stroke-dasharray:none;marker:none;visibility:visible;display:inline;overflow:visible;enable-background:accumulate"
       id="rect3482-2-1"
       width="61.663563"
       height="68.515076"
       x="33.168221"
       y="-71.571884"
       rx="3.4691236"
       ry="3.4691236" />
    <rect
       style="opacity:0.85;fill:url(#linearGradient7991);fill-opacity:1;stroke:none"
       id="rect5013"
       width="54.812057"
       height="27.406029"
       x="36.593971"
       y="-68.146126"
       rx="3.4691236"
       ry="3.4691236" />
    <path
       style="opacity:0.25;color:#000000;fill:none;stroke:#000000;stroke-width:3.42575359;stroke-linejoin:round;stroke-miterlimit:4;stroke-opacity:1;stroke-dasharray:none;marker:none;visibility:visible;display:inline;overflow:visible;enable-background:accumulate"
       d="m 64.000002,-61.164605 -3.469124,4.336404 2.601843,0 0,21.682024 0,1.951382 c -2.710201,-2.754431 -7.736788,-3.98447 -8.564399,-9.10645 0.946282,-0.389345 1.626152,-1.298323 1.626152,-2.385022 0,-1.436958 -1.16489,-2.601842 -2.601842,-2.601842 -1.436955,0 -2.601844,1.164884 -2.601844,2.601842 0,1.137591 0.744501,2.085654 1.761664,2.439227 0.551027,7.969278 10.380269,8.162561 10.380269,14.906391 l 0,3.604636 c -1.495461,0.385656 -2.601843,1.717704 -2.601843,3.333611 0,1.915945 1.553179,3.469123 3.469124,3.469123 1.915945,0 3.469123,-1.553178 3.469123,-3.469123 0,-1.615907 -1.106381,-2.947955 -2.601842,-3.333611 l 0,-5.339198 0,-4.336405 c 0,-6.938247 10.40737,-6.938247 10.40737,-15.611057 l 1.734562,0 0,-5.203685 -5.203685,0 0,5.203685 1.70746,0 c -0.492235,5.67381 -5.824399,6.889555 -8.645707,9.756912 l 0,-17.56244 2.601842,0 -3.469123,-4.336404 z"
       id="rect5970-7-6"
       inkscape:connector-curvature="0" />
    <path
       style="opacity:0.5;color:#000000;fill:none;stroke:#000000;stroke-width:0.8672809;stroke-linejoin:round;stroke-miterlimit:4;stroke-opacity:1;stroke-dasharray:none;marker:none;visibility:visible;display:inline;overflow:visible;enable-background:accumulate"
       d="m 64.000002,-61.164602 -3.469124,4.336404 2.601843,0 0,21.682024 0,1.951381 c -2.710201,-2.75443 -7.736788,-3.984469 -8.564399,-9.106449 0.946282,-0.389345 1.626152,-1.298324 1.626152,-2.385022 0,-1.436959 -1.16489,-2.601843 -2.601842,-2.601843 -1.436955,0 -2.601844,1.164884 -2.601844,2.601843 0,1.137591 0.744501,2.085653 1.761664,2.439227 0.551027,7.969277 10.380269,8.16256 10.380269,14.906391 l 0,3.604635 c -1.495461,0.385657 -2.601843,1.717704 -2.601843,3.333612 0,1.915944 1.553179,3.469123 3.469124,3.469123 1.915945,0 3.469123,-1.553179 3.469123,-3.469123 0,-1.615908 -1.106381,-2.947955 -2.601842,-3.333612 l 0,-5.339197 0,-4.336405 c 0,-6.938247 10.40737,-6.938247 10.40737,-15.611057 l 1.734562,0 0,-5.203685 -5.203685,0 0,5.203685 1.70746,0 c -0.492235,5.673809 -5.824399,6.889555 -8.645707,9.756911 l 0,-17.562439 2.601842,0 -3.469123,-4.336404 z"
       id="rect5970-7"
       inkscape:connector-curvature="0" />
    <path
       style="opacity:0.75;color:#000000;fill:none;stroke:#ffffff;stroke-width:0.8672809;stroke-linejoin:round;stroke-miterlimit:4;stroke-opacity:1;stroke-dasharray:none;marker:none;visibility:visible;display:inline;overflow:visible;enable-background:accumulate"
       d="m 64.000002,-62.248703 -3.469124,4.336404 2.601843,0 0,21.682024 0,1.951381 c -2.710201,-2.75443 -7.736788,-3.98447 -8.564399,-9.106449 0.946282,-0.389345 1.626152,-1.298324 1.626152,-2.385022 0,-1.436959 -1.16489,-2.601843 -2.601842,-2.601843 -1.436955,0 -2.601844,1.164884 -2.601844,2.601843 0,1.137591 0.744501,2.085653 1.761664,2.439227 0.551027,7.969277 10.380269,8.16256 10.380269,14.906391 l 0,3.604635 c -1.495461,0.385657 -2.601843,1.717704 -2.601843,3.333612 0,1.915944 1.553179,3.469123 3.469124,3.469123 1.915945,0 3.469123,-1.553179 3.469123,-3.469123 0,-1.615908 -1.106381,-2.947955 -2.601842,-3.333612 l 0,-5.339197 0,-4.336405 c 0,-6.938247 10.40737,-6.938247 10.40737,-15.611057 l 1.734562,0 0,-5.203686 -5.203685,0 0,5.203686 1.70746,0 c -0.492235,5.673809 -5.824399,6.889555 -8.645707,9.756911 l 0,-17.562439 2.601842,0 -3.469123,-4.336404 z"
       id="rect5970"
       inkscape:connector-curvature="0" />
    <rect
       style="color:#000000;fill:url(#radialGradient8787);fill-opacity:1;fill-rule:nonzero;stroke:#2e3436;stroke-width:0.99999994000000003;stroke-linecap:round;stroke-linejoin:miter;stroke-miterlimit:4;stroke-opacity:1;stroke-dasharray:none;stroke-dashoffset:0;marker:none;visibility:visible;display:inline;overflow:visible;enable-background:accumulate"
       id="rect5910"
       width="30.960075"
       height="12.320023"
       x="48.519962"
       y="26"
       ry="0.96492386"
       rx="1.4800415" />
    <rect
       style="color:#000000;fill:#4d4d4d;fill-opacity:1;fill-rule:nonzero;stroke:#333333;stroke-width:0.99999994000000003;stroke-linecap:round;stroke-linejoin:miter;stroke-miterlimit:4;stroke-opacity:1;stroke-dasharray:none;stroke-dashoffset:0;marker:none;visibility:visible;display:inline;overflow:visible;enable-background:accumulate"
       id="rect5930"
       width="20.640049"
       height="15.480037"
       x="53.679977"
       y="20.005053"
       rx="0"
       ry="0" />
    <rect
       style="color:#000000;fill:url(#linearGradient8777);fill-opacity:1;stroke:#4b4b4b;stroke-width:1;stroke-linejoin:round;stroke-miterlimit:4;stroke-opacity:1;stroke-dasharray:none;marker:none;visibility:visible;display:inline;overflow:visible;enable-background:accumulate"
       id="rect4439"
       width="30.960073"
       height="27.090061"
       x="48.519966"
       y="1.9450107"
       rx="2.4800415"
       ry="2.0549893" />
    <rect
       style="color:#000000;fill:#555753;fill-opacity:1;fill-rule:nonzero;stroke:#2e3436;stroke-width:0.99999994;stroke-linecap:round;stroke-linejoin:miter;stroke-miterlimit:4;stroke-opacity:1;stroke-dasharray:none;stroke-dashoffset:0;marker:none;visibility:visible;display:inline;overflow:visible;enable-background:accumulate"
       id="rect5912"
       width="5.1600122"
       height="10.320024"
       x="53.679977"
       y="14.845037" />
    <rect
       style="color:#000000;fill:#555753;fill-opacity:1;fill-rule:nonzero;stroke:#2e3436;stroke-width:0.99999994;stroke-linecap:round;stroke-linejoin:miter;stroke-miterlimit:4;stroke-opacity:1;stroke-dasharray:none;stroke-dashoffset:0;marker:none;visibility:visible;display:inline;overflow:visible;enable-background:accumulate"
       id="rect5914"
       width="5.1600122"
       height="10.320024"
       x="69.160027"
       y="14.845037" />
    <rect
       style="color:#000000;fill:#000000;fill-opacity:1;fill-rule:nonzero;stroke:#333333;stroke-width:0.99999994000000003;stroke-linecap:round;stroke-linejoin:miter;stroke-miterlimit:4;stroke-opacity:1;stroke-dasharray:none;stroke-dashoffset:0;marker:none;visibility:visible;display:inline;overflow:visible;enable-background:accumulate"
       id="rect5932"
       width="20.640049"
       height="2.5800061"
       x="53.679977"
       y="32.905087" />
    <rect
       style="fill:url(#radialGradient8771);fill-opacity:1;stroke:none"
       id="rect8245"
       width="28.025263"
       height="14.012631"
       x="49.987366"
       y="3.0575702"
       rx="0"
       ry="0" />
  </g>
</svg>
