<?xml version="1.0" encoding="UTF-8" standalone="no"?>
<!-- Created with Inkscape (http://www.inkscape.org/) -->

<svg
   xmlns:dc="http://purl.org/dc/elements/1.1/"
   xmlns:cc="http://creativecommons.org/ns#"
   xmlns:rdf="http://www.w3.org/1999/02/22-rdf-syntax-ns#"
   xmlns:svg="http://www.w3.org/2000/svg"
   xmlns="http://www.w3.org/2000/svg"
   xmlns:xlink="http://www.w3.org/1999/xlink"
   xmlns:sodipodi="http://sodipodi.sourceforge.net/DTD/sodipodi-0.dtd"
   xmlns:inkscape="http://www.inkscape.org/namespaces/inkscape"
   width="128"
   height="128"
   id="svg3829"
   version="1.1"
   inkscape:version="0.91 r"
   sodipodi:docname="input-keyboard.svg">
  <defs
     id="defs3831">
    <linearGradient
       id="linearGradient4480">
      <stop
         style="stop-color:#474747;stop-opacity:1;"
         offset="0"
         id="stop4482" />
      <stop
         id="stop4488"
         offset="0.5"
         style="stop-color:#c0c0c0;stop-opacity:1;" />
      <stop
         style="stop-color:#333333;stop-opacity:1;"
         offset="1"
         id="stop4484" />
    </linearGradient>
    <linearGradient
       id="linearGradient5454">
      <stop
         style="stop-color:#dfdfdf;stop-opacity:1;"
         offset="0"
         id="stop5456" />
      <stop
         style="stop-color:#000000;stop-opacity:1;"
         offset="1"
         id="stop5458" />
    </linearGradient>
    <linearGradient
       id="linearGradient8794">
      <stop
         style="stop-color:#ffffff;stop-opacity:1;"
         offset="0"
         id="stop8796" />
      <stop
         id="stop4469"
         offset="0.5"
         style="stop-color:#e4e4e4;stop-opacity:1;" />
      <stop
         style="stop-color:#cacaca;stop-opacity:1;"
         offset="1"
         id="stop8798" />
    </linearGradient>
    <linearGradient
       id="linearGradient4270-9-9">
      <stop
         style="stop-color:#f9f9f9;stop-opacity:0.50196081;"
         offset="0"
         id="stop4272-5-10" />
      <stop
         id="stop5033-8"
         offset="0.25"
         style="stop-color:#7d7d7d;stop-opacity:0.50196081;" />
      <stop
         id="stop4278-7-50"
         offset="0.5"
         style="stop-color:#808080;stop-opacity:0.50196081;" />
      <stop
         style="stop-color:#ffffff;stop-opacity:0.50196081;"
         offset="0.75"
         id="stop5035-4" />
      <stop
         style="stop-color:#000000;stop-opacity:0.50196081;"
         offset="1"
         id="stop4274-4-85" />
    </linearGradient>
    <radialGradient
       inkscape:collect="always"
       xlink:href="#linearGradient8794"
       id="radialGradient7575"
       gradientUnits="userSpaceOnUse"
       gradientTransform="matrix(4.4251629,2.6125871e-8,1.5305785e-8,5.3502507,-348.09685,-147.16444)"
       cx="90.532051"
       cy="24.095093"
       fx="90.532051"
       fy="24.095093"
       r="62.25" />
    <linearGradient
       inkscape:collect="always"
       xlink:href="#linearGradient4270-9-9"
       id="linearGradient7577"
       gradientUnits="userSpaceOnUse"
       x1="0"
       y1="16"
       x2="128"
       y2="84"
       gradientTransform="matrix(1.434721,0,0,1.434721,-62.255449,-87.116254)" />
    <radialGradient
       inkscape:collect="always"
       xlink:href="#linearGradient5454"
       id="radialGradient7588"
       gradientUnits="userSpaceOnUse"
       gradientTransform="matrix(3.7514884,0,0,3.2155615,-266.13098,95.256361)"
       cx="66.583336"
       cy="-31.729527"
       fx="66.583336"
       fy="-31.729527"
       r="64.25" />
    <linearGradient
       inkscape:collect="always"
       xlink:href="#linearGradient4480"
       id="linearGradient4486"
       x1="0"
       y1="-12"
       x2="128"
       y2="-12"
       gradientUnits="userSpaceOnUse"
       gradientTransform="matrix(0.89670063,0,0,0.89670063,6.6111597,-1.0329937)" />
    <filter
       inkscape:collect="always"
       id="filter4556">
      <feGaussianBlur
         inkscape:collect="always"
         stdDeviation="3.072"
         id="feGaussianBlur4558" />
    </filter>
  </defs>
  <sodipodi:namedview
     id="base"
     pagecolor="#ffffff"
     bordercolor="#666666"
     borderopacity="1.0"
     inkscape:pageopacity="0.0"
     inkscape:pageshadow="2"
     inkscape:zoom="2"
     inkscape:cx="76.159193"
     inkscape:cy="67.908327"
     inkscape:current-layer="layer1"
     showgrid="true"
     inkscape:grid-bbox="true"
     inkscape:document-units="px"
     inkscape:window-width="1280"
     inkscape:window-height="969"
     inkscape:window-x="0"
     inkscape:window-y="28"
     inkscape:window-maximized="1"
     showguides="true"
     inkscape:guide-bbox="true">
    <inkscape:grid
       type="xygrid"
       id="grid3837"
       empspacing="4"
       visible="true"
       enabled="true"
       snapvisiblegridlinesonly="true" />
  </sodipodi:namedview>
  <metadata
     id="metadata3834">
    <rdf:RDF>
      <cc:Work
         rdf:about="">
        <dc:format>image/svg+xml</dc:format>
        <dc:type
           rdf:resource="http://purl.org/dc/dcmitype/StillImage" />
        <dc:title />
      </cc:Work>
    </rdf:RDF>
  </metadata>
  <g
     id="layer1"
     inkscape:label="Layer 1"
     inkscape:groupmode="layer"
     transform="translate(0,80)">
    <rect
       style="fill:#000000;fill-opacity:1;stroke:none;filter:url(#filter4556)"
       id="rect4490"
       width="128"
       height="76.800003"
       x="0"
       y="-48.400002"
       ry="6.4000001"
       rx="6.4000001"
       transform="matrix(0.89670063,0,0,0.89670063,6.6111597,-1.0329937)" />
    <rect
       rx="5.738884"
       ry="5.738884"
       y="-46.226707"
       x="6.6111598"
       height="68.866608"
       width="114.77768"
       id="rect3708"
       style="fill:url(#linearGradient4486);fill-opacity:1;stroke:none" />
    <rect
       style="fill:url(#radialGradient7588);fill-opacity:1;stroke:none"
       id="rect4728"
       width="114.77768"
       height="68.866608"
       x="6.6111598"
       y="-49.813511"
       ry="5.738884"
       rx="5.738884" />
    <path
       inkscape:connector-curvature="0"
       style="fill:url(#radialGradient7575);fill-opacity:1;stroke:url(#linearGradient7577);stroke-width:1.43472099;stroke-linecap:round;stroke-linejoin:round;stroke-miterlimit:4;stroke-opacity:1;stroke-dasharray:none;stroke-dashoffset:0"
       d="m 10.915323,-46.944066 c -0.794836,0 -1.4347213,0.639886 -1.4347213,1.434721 l 0,2.869442 c 0,0.794836 0.6398853,1.434721 1.4347213,1.434721 l 5.738884,0 c 0.794835,0 1.434721,-0.639885 1.434721,-1.434721 l 0,-2.869442 c 0,-0.794835 -0.639886,-1.434721 -1.434721,-1.434721 z m 11.477768,0 c -0.794836,0 -1.434721,0.639886 -1.434721,1.434721 l 0,2.869442 c 0,0.794836 0.639885,1.434721 1.434721,1.434721 l 5.738884,0 c 0.794835,0 1.434721,-0.639885 1.434721,-1.434721 l 0,-2.869442 c 0,-0.794835 -0.639886,-1.434721 -1.434721,-1.434721 z m 11.477768,0 c -0.794836,0 -1.434721,0.639886 -1.434721,1.434721 l 0,2.869442 c 0,0.794836 0.639885,1.434721 1.434721,1.434721 l 5.738884,0 c 0.794835,0 1.434721,-0.639885 1.434721,-1.434721 l 0,-2.869442 c 0,-0.794835 -0.639886,-1.434721 -1.434721,-1.434721 z m 11.477768,0 c -0.794836,0 -1.434721,0.639886 -1.434721,1.434721 l 0,2.869442 c 0,0.794836 0.639885,1.434721 1.434721,1.434721 l 5.738884,0 c 0.794835,0 1.434721,-0.639885 1.434721,-1.434721 l 0,-2.869442 c 0,-0.794835 -0.639886,-1.434721 -1.434721,-1.434721 z m 11.477768,0 c -0.794835,0 -1.434721,0.639886 -1.434721,1.434721 l 0,2.869442 c 0,0.794836 0.639886,1.434721 1.434721,1.434721 l 5.738884,0 c 0.794835,0 1.434721,-0.639885 1.434721,-1.434721 l 0,-2.869442 c 0,-0.794835 -0.639886,-1.434721 -1.434721,-1.434721 z m 11.477768,0 c -0.794835,0 -1.434721,0.639886 -1.434721,1.434721 l 0,2.869442 c 0,0.794836 0.639886,1.434721 1.434721,1.434721 l 5.738884,0 c 0.794835,0 1.434721,-0.639885 1.434721,-1.434721 l 0,-2.869442 c 0,-0.794835 -0.639886,-1.434721 -1.434721,-1.434721 z m 11.477768,0 c -0.794835,0 -1.434721,0.639886 -1.434721,1.434721 l 0,2.869442 c 0,0.794836 0.639886,1.434721 1.434721,1.434721 l 5.738884,0 c 0.794836,0 1.434721,-0.639885 1.434721,-1.434721 l 0,-2.869442 c 0,-0.794835 -0.639885,-1.434721 -1.434721,-1.434721 z m 11.477768,0 c -0.794835,0 -1.434721,0.639886 -1.434721,1.434721 l 0,2.869442 c 0,0.794836 0.639886,1.434721 1.434721,1.434721 l 5.738884,0 c 0.794836,0 1.434721,-0.639885 1.434721,-1.434721 l 0,-2.869442 c 0,-0.794835 -0.639885,-1.434721 -1.434721,-1.434721 z m 11.477771,0 c -0.79484,0 -1.43472,0.639886 -1.43472,1.434721 l 0,2.869442 c 0,0.794836 0.63988,1.434721 1.43472,1.434721 l 4.30416,0 c 0.79484,0 1.43472,-0.639885 1.43472,-1.434721 l 0,-2.869442 c 0,-0.794835 -0.63988,-1.434721 -1.43472,-1.434721 z m 10.04304,0 c -0.79483,0 -1.43472,0.639886 -1.43472,1.434721 l 0,2.869442 c 0,0.794836 0.63989,1.434721 1.43472,1.434721 l 4.30417,0 c 0.79483,0 1.43472,-0.639885 1.43472,-1.434721 l 0,-2.869442 c 0,-0.794835 -0.63989,-1.434721 -1.43472,-1.434721 z M 10.915323,-38.33574 c -0.794836,0 -1.4347213,0.639886 -1.4347213,1.434721 l 0,5.738884 c 0,0.794836 0.6398853,1.434721 1.4347213,1.434721 l 5.738884,0 c 0.794835,0 1.434721,-0.639885 1.434721,-1.434721 l 0,-5.738884 c 0,-0.794835 -0.639886,-1.434721 -1.434721,-1.434721 z m 11.477768,0 c -0.794836,0 -1.434721,0.639886 -1.434721,1.434721 l 0,5.738884 c 0,0.794836 0.639885,1.434721 1.434721,1.434721 l 8.608326,0 c 0.794835,0 1.434721,-0.639885 1.434721,-1.434721 l 0,-5.738884 c 0,-0.794835 -0.639886,-1.434721 -1.434721,-1.434721 z m 14.34721,0 c -0.794836,0 -1.434721,0.639886 -1.434721,1.434721 l 0,5.738884 c 0,0.794836 0.639885,1.434721 1.434721,1.434721 l 8.608326,0 c 0.794835,0 1.434721,-0.639885 1.434721,-1.434721 l 0,-5.738884 c 0,-0.794835 -0.639886,-1.434721 -1.434721,-1.434721 z m 14.34721,0 c -0.794836,0 -1.434721,0.639886 -1.434721,1.434721 l 0,5.738884 c 0,0.794836 0.639885,1.434721 1.434721,1.434721 l 8.608326,0 c 0.794835,0 1.434721,-0.639885 1.434721,-1.434721 l 0,-5.738884 c 0,-0.794835 -0.639886,-1.434721 -1.434721,-1.434721 z m 14.34721,0 C 64.639886,-38.33574 64,-37.695854 64,-36.901019 l 0,5.738884 c 0,0.794836 0.639886,1.434721 1.434721,1.434721 l 8.608326,0 c 0.794835,0 1.434721,-0.639885 1.434721,-1.434721 l 0,-5.738884 c 0,-0.794835 -0.639886,-1.434721 -1.434721,-1.434721 z m 14.34721,0 c -0.794835,0 -1.434721,0.639886 -1.434721,1.434721 l 0,5.738884 c 0,0.794836 0.639886,1.434721 1.434721,1.434721 l 8.608326,0 c 0.794836,0 1.434721,-0.639885 1.434721,-1.434721 l 0,-5.738884 c 0,-0.794835 -0.639885,-1.434721 -1.434721,-1.434721 z m 14.34721,0 c -0.794835,0 -1.434721,0.639886 -1.434721,1.434721 l 0,5.738884 c 0,0.794836 0.639886,1.434721 1.434721,1.434721 l 8.608329,0 c 0.79483,0 1.43472,-0.639885 1.43472,-1.434721 l 0,-5.738884 c 0,-0.794835 -0.63989,-1.434721 -1.43472,-1.434721 z m 14.347209,0 c -0.79483,0 -1.43472,0.639886 -1.43472,1.434721 l 0,5.738884 c 0,0.794836 0.63989,1.434721 1.43472,1.434721 l 8.60833,0 c 0.79483,0 1.43472,-0.639885 1.43472,-1.434721 l 0,-5.738884 c 0,-0.794835 -0.63989,-1.434721 -1.43472,-1.434721 z m -97.561027,11.477768 c -0.794836,0 -1.4347213,0.639886 -1.4347213,1.434721 l 0,5.738884 c 0,0.794836 0.6398853,1.434721 1.4347213,1.434721 l 8.608326,0 c 0.794835,0 1.434721,-0.639885 1.434721,-1.434721 l 0,-5.738884 c 0,-0.794835 -0.639886,-1.434721 -1.434721,-1.434721 z m 14.34721,0 c -0.794836,0 -1.434721,0.639886 -1.434721,1.434721 l 0,5.738884 c 0,0.794836 0.639885,1.434721 1.434721,1.434721 l 8.608326,0 c 0.794835,0 1.434721,-0.639885 1.434721,-1.434721 l 0,-5.738884 c 0,-0.794835 -0.639886,-1.434721 -1.434721,-1.434721 z m 14.34721,0 c -0.794836,0 -1.434721,0.639886 -1.434721,1.434721 l 0,5.738884 c 0,0.794836 0.639885,1.434721 1.434721,1.434721 l 8.608326,0 c 0.794835,0 1.434721,-0.639885 1.434721,-1.434721 l 0,-5.738884 c 0,-0.794835 -0.639886,-1.434721 -1.434721,-1.434721 z m 14.34721,0 c -0.794835,0 -1.434721,0.639886 -1.434721,1.434721 l 0,5.738884 c 0,0.794836 0.639886,1.434721 1.434721,1.434721 l 8.608326,0 c 0.794835,0 1.434721,-0.639885 1.434721,-1.434721 l 0,-5.738884 c 0,-0.794835 -0.639886,-1.434721 -1.434721,-1.434721 z m 14.34721,0 c -0.794835,0 -1.434721,0.639886 -1.434721,1.434721 l 0,5.738884 c 0,0.794836 0.639886,1.434721 1.434721,1.434721 l 8.608326,0 c 0.794836,0 1.434721,-0.639885 1.434721,-1.434721 l 0,-5.738884 c 0,-0.794835 -0.639885,-1.434721 -1.434721,-1.434721 z m 14.34721,0 c -0.794835,0 -1.434721,0.639886 -1.434721,1.434721 l 0,5.738884 c 0,0.794836 0.639886,1.434721 1.434721,1.434721 l 8.608326,0 c 0.794836,0 1.434721,-0.639885 1.434721,-1.434721 l 0,-5.738884 c 0,-0.794835 -0.639885,-1.434721 -1.434721,-1.434721 z m 14.34721,0 c -0.794835,0 -1.434721,0.639886 -1.434721,1.434721 l 0,5.738884 c 0,0.794836 0.639886,1.434721 1.434721,1.434721 l 7.173607,0 0,4.304163 0,5.7388843 c 0,0.7948354 0.63988,1.434721 1.43472,1.434721 l 11.47777,0 c 0.79483,0 1.43472,-0.6398856 1.43472,-1.434721 l 0,-5.7388843 0,-5.738884 0,-5.738884 c 0,-0.794835 -0.63989,-1.434721 -1.43472,-1.434721 z m -78.909655,11.477768 c -0.794836,0 -1.434721,0.639886 -1.434721,1.434721 l 0,5.7388843 c 0,0.7948354 0.639885,1.434721 1.434721,1.434721 l 8.608326,0 c 0.794835,0 1.434721,-0.6398856 1.434721,-1.434721 l 0,-5.7388843 c 0,-0.794835 -0.639886,-1.434721 -1.434721,-1.434721 z m 14.34721,0 c -0.794836,0 -1.434721,0.639886 -1.434721,1.434721 l 0,5.7388843 c 0,0.7948354 0.639885,1.434721 1.434721,1.434721 l 8.608326,0 c 0.794835,0 1.434721,-0.6398856 1.434721,-1.434721 l 0,-5.7388843 c 0,-0.794835 -0.639886,-1.434721 -1.434721,-1.434721 z m 14.34721,0 c -0.794836,0 -1.434721,0.639886 -1.434721,1.434721 l 0,5.7388843 c 0,0.7948354 0.639885,1.434721 1.434721,1.434721 l 8.608326,0 c 0.794835,0 1.434721,-0.6398856 1.434721,-1.434721 l 0,-5.7388843 c 0,-0.794835 -0.639886,-1.434721 -1.434721,-1.434721 z m 14.34721,0 c -0.794835,0 -1.434721,0.639886 -1.434721,1.434721 l 0,5.7388843 c 0,0.7948354 0.639886,1.434721 1.434721,1.434721 l 8.608326,0 c 0.794835,0 1.434721,-0.6398856 1.434721,-1.434721 l 0,-5.7388843 c 0,-0.794835 -0.639886,-1.434721 -1.434721,-1.434721 z m 14.34721,0 c -0.198709,0 -0.366257,0.0621 -0.53802,0.134505 -0.515289,0.217226 -0.896701,0.70409 -0.896701,1.300216 l 0,5.7388843 c 0,0.7948354 0.639886,1.434721 1.434721,1.434721 l 8.608326,0 c 0.794836,0 1.434721,-0.6398856 1.434721,-1.434721 l 0,-5.7388843 c 0,-0.794835 -0.639885,-1.434721 -1.434721,-1.434721 z m 14.34721,0 c -0.794835,0 -1.434721,0.639886 -1.434721,1.434721 l 0,5.7388843 c 0,0.7948354 0.639886,1.434721 1.434721,1.434721 l 8.608326,0 c 0.794836,0 1.434721,-0.6398856 1.434721,-1.434721 l 0,-5.7388843 c 0,-0.794835 -0.639885,-1.434721 -1.434721,-1.434721 z M 10.915323,-3.9024357 c -0.794836,0 -1.4347213,0.6398855 -1.4347213,1.434721 l 0,5.738884 c 0,0.7948355 0.6398853,1.434721 1.4347213,1.434721 l 8.608326,0 c 0.794835,0 1.434721,-0.6398855 1.434721,-1.434721 l 0,-5.738884 c 0,-0.7948355 -0.639886,-1.434721 -1.434721,-1.434721 z m 14.34721,0 c -0.794836,0 -1.434721,0.6398855 -1.434721,1.434721 l 0,5.738884 c 0,0.7948355 0.639885,1.434721 1.434721,1.434721 l 8.608326,0 c 0.794835,0 1.434721,-0.6398855 1.434721,-1.434721 l 0,-5.738884 c 0,-0.7948355 -0.639886,-1.434721 -1.434721,-1.434721 z m 14.34721,0 c -0.794836,0 -1.434721,0.6398855 -1.434721,1.434721 l 0,5.738884 c 0,0.7948355 0.639885,1.434721 1.434721,1.434721 l 8.608326,0 c 0.794835,0 1.434721,-0.6398855 1.434721,-1.434721 l 0,-5.738884 c 0,-0.7948355 -0.639886,-1.434721 -1.434721,-1.434721 z m 14.34721,0 c -0.794835,0 -1.434721,0.6398855 -1.434721,1.434721 l 0,5.738884 c 0,0.7948355 0.639886,1.434721 1.434721,1.434721 l 8.608326,0 C 63.360114,4.7058903 64,4.0660048 64,3.2711693 l 0,-5.738884 c 0,-0.7948355 -0.639886,-1.434721 -1.434721,-1.434721 z m 14.34721,0 c -0.794835,0 -1.434721,0.6398855 -1.434721,1.434721 l 0,5.738884 c 0,0.7948355 0.639886,1.434721 1.434721,1.434721 l 8.608326,0 c 0.794836,0 1.434721,-0.6398855 1.434721,-1.434721 l 0,-5.738884 c 0,-0.7948355 -0.639885,-1.434721 -1.434721,-1.434721 z m 14.34721,0 c -0.794835,0 -1.434721,0.6398855 -1.434721,1.434721 l 0,5.738884 c 0,0.7948355 0.639886,1.434721 1.434721,1.434721 l 5.738884,0 c 0.794836,0 1.434721,-0.6398855 1.434721,-1.434721 l 0,-5.738884 c 0,-0.7948355 -0.639885,-1.434721 -1.434721,-1.434721 z m 11.477768,0 c -0.794835,0 -1.434721,0.6398855 -1.434721,1.434721 l 0,5.738884 c 0,0.7948355 0.639886,1.434721 1.434721,1.434721 l 5.738884,0 c 0.794835,0 1.434725,-0.6398855 1.434725,-1.434721 l 0,-5.738884 c 0,-0.7948355 -0.63989,-1.434721 -1.434725,-1.434721 z m 11.477769,0 c -0.79484,0 -1.43472,0.6398855 -1.43472,1.434721 l 0,5.738884 c 0,0.7948355 0.63988,1.434721 1.43472,1.434721 l 11.47777,0 c 0.79483,0 1.43472,-0.6398855 1.43472,-1.434721 l 0,-5.738884 c 0,-0.7948355 -0.63989,-1.434721 -1.43472,-1.434721 z M 10.915323,7.5753323 c -0.794836,0 -1.4347213,0.6398856 -1.4347213,1.434721 l 0,5.7388837 c 0,0.794836 0.6398853,1.434721 1.4347213,1.434721 l 45.911072,0 c 0.794835,0 1.434721,-0.639885 1.434721,-1.434721 l 0,-5.7388837 c 0,-0.7948354 -0.639886,-1.434721 -1.434721,-1.434721 z m 51.649956,0 c -0.794835,0 -1.434721,0.6398856 -1.434721,1.434721 l 0,5.7388837 c 0,0.794836 0.639886,1.434721 1.434721,1.434721 l 8.608326,0 c 0.794835,0 1.434721,-0.639885 1.434721,-1.434721 l 0,-5.7388837 c 0,-0.7948354 -0.639886,-1.434721 -1.434721,-1.434721 z m 14.34721,0 c -0.794835,0 -1.434721,0.6398856 -1.434721,1.434721 l 0,5.7388837 c 0,0.794836 0.639886,1.434721 1.434721,1.434721 l 8.608326,0 c 0.794836,0 1.434721,-0.639885 1.434721,-1.434721 l 0,-5.7388837 c 0,-0.7948354 -0.639885,-1.434721 -1.434721,-1.434721 z m 14.34721,0 c -0.794835,0 -1.434721,0.6398856 -1.434721,1.434721 l 0,5.7388837 c 0,0.794836 0.639886,1.434721 1.434721,1.434721 l 8.608326,0 c 0.794835,0 1.434725,-0.639885 1.434725,-1.434721 l 0,-5.7388837 c 0,-0.7948354 -0.63989,-1.434721 -1.434725,-1.434721 z m 14.347211,0 c -0.79484,0 -1.43472,0.6398856 -1.43472,1.434721 l 0,5.7388837 c 0,0.794836 0.63988,1.434721 1.43472,1.434721 l 11.47777,0 c 0.79483,0 1.43472,-0.639885 1.43472,-1.434721 l 0,-5.7388837 c 0,-0.7948354 -0.63989,-1.434721 -1.43472,-1.434721 z"
       id="rect4737"
       sodipodi:nodetypes="ssssssssssssssssssssssssssssssssssssssssssssssssssssssssssssssssssssssssssssssssssssssssssssssssssssssssssssssssssssssssssssssssssssssssssssssssssssssssssssssssssssssssssssssssssssssssssssssssssssssssssssssssssssssssssssccssssccsssssssssssssssssssssssssssssssssssssssssssssssssssssssssssssssssssssssssssssssssssssssssssssssssssssssssssssssssssssssssssssssssssssssssssssssssssssssssssssssssssssssssssssss" />
  </g>
</svg>
