<?xml version="1.0" encoding="UTF-8" standalone="no"?>
<!-- Created with Inkscape (http://www.inkscape.org/) -->

<svg
   xmlns:dc="http://purl.org/dc/elements/1.1/"
   xmlns:cc="http://creativecommons.org/ns#"
   xmlns:rdf="http://www.w3.org/1999/02/22-rdf-syntax-ns#"
   xmlns:svg="http://www.w3.org/2000/svg"
   xmlns="http://www.w3.org/2000/svg"
   xmlns:xlink="http://www.w3.org/1999/xlink"
   xmlns:sodipodi="http://sodipodi.sourceforge.net/DTD/sodipodi-0.dtd"
   xmlns:inkscape="http://www.inkscape.org/namespaces/inkscape"
   width="128"
   height="128"
   id="svg2"
   version="1.1"
   inkscape:version="0.92+devel (unknown)"
   sodipodi:docname="media-floppy.svg">
  <defs
     id="defs4">
    <linearGradient
       id="linearGradient4202">
      <stop
         id="stop4204"
         offset="0"
         style="stop-color:#838383;stop-opacity:1;" />
      <stop
         style="stop-color:#f7f7f7;stop-opacity:1;"
         offset="0.09090909"
         id="stop4219" />
      <stop
         style="stop-color:#969696;stop-opacity:1;"
         offset="0.18181819"
         id="stop4216" />
      <stop
         style="stop-color:#cfcfcf;stop-opacity:1;"
         offset="0.29411766"
         id="stop4214" />
      <stop
         style="stop-color:#5c5c5c;stop-opacity:1;"
         offset="0.41176471"
         id="stop4212" />
      <stop
         style="stop-color:#e4e4e4;stop-opacity:1;"
         offset="0.52941179"
         id="stop4210" />
      <stop
         style="stop-color:#ffffff;stop-opacity:1;"
         offset="0.70588237"
         id="stop4206" />
      <stop
         id="stop4208"
         offset="1"
         style="stop-color:#7c7c7c;stop-opacity:1;" />
    </linearGradient>
    <linearGradient
       inkscape:collect="always"
       id="linearGradient4173">
      <stop
         style="stop-color:#000000;stop-opacity:1;"
         offset="0"
         id="stop4175" />
      <stop
         style="stop-color:#000000;stop-opacity:0;"
         offset="1"
         id="stop4177" />
    </linearGradient>
    <linearGradient
       id="linearGradient4045">
      <stop
         style="stop-color:#c9c9c9;stop-opacity:1;"
         offset="0"
         id="stop4047" />
      <stop
         id="stop4053"
         offset="0.5"
         style="stop-color:#ffffff;stop-opacity:1;" />
      <stop
         style="stop-color:#c3c3c3;stop-opacity:1;"
         offset="1"
         id="stop4049" />
    </linearGradient>
    <linearGradient
       id="linearGradient4657">
      <stop
         style="stop-color:#000000;stop-opacity:1;"
         offset="0"
         id="stop4659" />
      <stop
         style="stop-color:#000000;stop-opacity:0;"
         offset="1"
         id="stop4661" />
    </linearGradient>
    <linearGradient
       id="linearGradient4216-1">
      <stop
         style="stop-color:#ffffff;stop-opacity:1;"
         offset="0"
         id="stop4218-0" />
      <stop
         style="stop-color:#c6c6c6;stop-opacity:1;"
         offset="1"
         id="stop4220-9" />
    </linearGradient>
    <radialGradient
       inkscape:collect="always"
       xlink:href="#linearGradient4216-1"
       id="radialGradient4041"
       cx="80"
       cy="47.279999"
       fx="80"
       fy="47.279999"
       r="52"
       gradientTransform="matrix(3.3846154,2.3898168e-7,-1.9797306e-7,2.7692307,-190.76924,-82.929247)"
       gradientUnits="userSpaceOnUse" />
    <linearGradient
       inkscape:collect="always"
       xlink:href="#linearGradient4045"
       id="linearGradient4051"
       x1="12"
       y1="4"
       x2="124"
       y2="28"
       gradientUnits="userSpaceOnUse" />
    <linearGradient
       inkscape:collect="always"
       xlink:href="#linearGradient4657"
       id="linearGradient4066"
       x1="68"
       y1="20"
       x2="68"
       y2="14"
       gradientUnits="userSpaceOnUse" />
    <linearGradient
       inkscape:collect="always"
       xlink:href="#linearGradient4657"
       id="linearGradient4072"
       gradientUnits="userSpaceOnUse"
       x1="68"
       y1="20"
       x2="68"
       y2="15"
       gradientTransform="translate(-128,-952.36218)" />
    <filter
       inkscape:collect="always"
       id="filter4096">
      <feGaussianBlur
         inkscape:collect="always"
         stdDeviation="0.29"
         id="feGaussianBlur4098" />
    </filter>
    <linearGradient
       inkscape:collect="always"
       xlink:href="#linearGradient4202"
       id="linearGradient4153"
       x1="4"
       y1="112"
       x2="120"
       y2="12"
       gradientUnits="userSpaceOnUse" />
    <linearGradient
       inkscape:collect="always"
       xlink:href="#linearGradient4173"
       id="linearGradient4179"
       x1="16"
       y1="288"
       x2="60"
       y2="40"
       gradientUnits="userSpaceOnUse" />
    <linearGradient
       inkscape:collect="always"
       xlink:href="#linearGradient4202"
       id="linearGradient4187"
       x1="12"
       y1="4"
       x2="124"
       y2="28"
       gradientUnits="userSpaceOnUse" />
    <linearGradient
       inkscape:collect="always"
       xlink:href="#linearGradient4202"
       id="linearGradient4226"
       gradientUnits="userSpaceOnUse"
       x1="24"
       y1="88"
       x2="124"
       y2="124" />
    <radialGradient
       inkscape:collect="always"
       xlink:href="#linearGradient4202"
       id="radialGradient4235"
       cx="70"
       cy="93.090912"
       fx="70"
       fy="93.090912"
       r="28.5"
       gradientTransform="matrix(2.2312508,-0.03396565,0.02670339,1.7541829,-88.673396,-64.920885)"
       gradientUnits="userSpaceOnUse" />
    <linearGradient
       id="linearGradient4202-3">
      <stop
         id="stop4204-2"
         offset="0"
         style="stop-color:#838383;stop-opacity:1;" />
      <stop
         style="stop-color:#f7f7f7;stop-opacity:1;"
         offset="0.09090909"
         id="stop4219-4" />
      <stop
         style="stop-color:#969696;stop-opacity:1;"
         offset="0.18181819"
         id="stop4216-9" />
      <stop
         style="stop-color:#cfcfcf;stop-opacity:1;"
         offset="0.29411766"
         id="stop4214-5" />
      <stop
         style="stop-color:#5c5c5c;stop-opacity:1;"
         offset="0.41176471"
         id="stop4212-7" />
      <stop
         style="stop-color:#e4e4e4;stop-opacity:1;"
         offset="0.52941179"
         id="stop4210-8" />
      <stop
         style="stop-color:#ffffff;stop-opacity:1;"
         offset="0.70588237"
         id="stop4206-2" />
      <stop
         id="stop4208-0"
         offset="1"
         style="stop-color:#7c7c7c;stop-opacity:1;" />
    </linearGradient>
    <radialGradient
       r="28.5"
       fy="93.090912"
       fx="70"
       cy="93.090912"
       cx="70"
       gradientTransform="matrix(2.2312508,-0.03396565,0.02670339,1.7541829,-88.6734,859.4413)"
       gradientUnits="userSpaceOnUse"
       id="radialGradient4279"
       xlink:href="#linearGradient4202-3"
       inkscape:collect="always" />
    <filter
       inkscape:collect="always"
       id="filter4344">
      <feGaussianBlur
         inkscape:collect="always"
         stdDeviation="0.88"
         id="feGaussianBlur4346" />
    </filter>
    <filter
       inkscape:collect="always"
       id="filter4370">
      <feGaussianBlur
         inkscape:collect="always"
         stdDeviation="1.4858428"
         id="feGaussianBlur4372" />
    </filter>
    <filter
       inkscape:collect="always"
       id="filter4080"
       x="-0.061714286"
       width="1.1234286"
       y="-0.432"
       height="1.864">
      <feGaussianBlur
         inkscape:collect="always"
         stdDeviation="2.88"
         id="feGaussianBlur4082" />
    </filter>
  </defs>
  <sodipodi:namedview
     id="base"
     pagecolor="#ffffff"
     bordercolor="#666666"
     borderopacity="1.0"
     inkscape:pageopacity="0.0"
     inkscape:pageshadow="2"
     inkscape:zoom="1.46094"
     inkscape:cx="-20.6564"
     inkscape:cy="56.0099"
     inkscape:document-units="px"
     inkscape:current-layer="layer1"
     showgrid="true"
     inkscape:window-width="1280"
     inkscape:window-height="967"
     inkscape:window-x="0"
     inkscape:window-y="29"
     inkscape:window-maximized="1"
     showguides="true"
     inkscape:guide-bbox="true"
     inkscape:document-rotation="0">
    <inkscape:grid
       type="xygrid"
       id="grid2985"
       empspacing="2"
       visible="true"
       enabled="true"
       snapvisiblegridlinesonly="true" />
  </sodipodi:namedview>
  <metadata
     id="metadata7">
    <rdf:RDF>
      <cc:Work
         rdf:about="">
        <dc:format>image/svg+xml</dc:format>
        <dc:type
           rdf:resource="http://purl.org/dc/dcmitype/StillImage" />
        <dc:title />
      </cc:Work>
    </rdf:RDF>
  </metadata>
  <g
     inkscape:label="Layer 1"
     inkscape:groupmode="layer"
     id="layer1"
     transform="translate(0,-924.36218)">
    <path
       sodipodi:type="arc"
       style="fill:#000000;fill-opacity:1;stroke:none;stroke-width:0.50000000000000000;stroke-linecap:round;stroke-linejoin:round;stroke-miterlimit:4;stroke-opacity:1;stroke-dasharray:none;filter:url(#filter4080);opacity:0.75"
       id="path3246"
       sodipodi:cx="64"
       sodipodi:cy="112"
       sodipodi:rx="56"
       sodipodi:ry="8"
       d="m 120,112 a 56,8 0 0 1 -56,8 56,8 0 0 1 -56,-8 56,8 0 0 1 56,-8 56,8 0 0 1 56,8 z"
       transform="translate(0,924.36218)" />
    <rect
       style="fill:url(#linearGradient4051);fill-opacity:1;stroke:url(#linearGradient4187);stroke-width:0.50000000000000000;stroke-miterlimit:4;stroke-dasharray:none"
       id="rect4043"
       width="104"
       height="20"
       x="12"
       y="12"
       transform="translate(0,924.36218)"
       rx="4"
       ry="4" />
    <path
       style="fill:url(#radialGradient4041);fill-opacity:1;stroke:url(#linearGradient4153);stroke-width:0.5;stroke-miterlimit:4;stroke-dasharray:none"
       d="m 16,16 c -2.216,0 -4,1.784 -4,4 l 0,86 10,10 90,0 c 2.216,0 4,-1.784 4,-4 l 0,-92 c 0,-2.216 -1.784,-4 -4,-4 z"
       transform="translate(0,924.36218)"
       id="rect3195"
       inkscape:connector-curvature="0"
       sodipodi:nodetypes="ssccsssss" />
    <rect
       style="fill:#999999;fill-opacity:1;stroke:none"
       id="rect4100"
       width="92"
       height="62"
       x="18"
       y="16"
       transform="translate(0,924.36218)"
       rx="0"
       ry="0" />
    <rect
       style="fill:#666666;fill-opacity:1;stroke:none"
       id="rect4104"
       width="92"
       height="4"
       x="18"
       y="12"
       transform="translate(0,924.36218)" />
    <path
       sodipodi:nodetypes="csssscc"
       inkscape:connector-curvature="0"
       id="path4348"
       d="m 107.01124,937.08128 0,58.65169 c 0,2.1662 -1.74391,3.91011 -3.91012,3.91011 l -78.202244,0 c -2.166202,0 -3.910112,-1.74391 -3.910112,-3.91011 l 0,-58.65169 z"
       style="fill:#000000;fill-opacity:1;stroke:none;stroke-width:1;stroke-miterlimit:4;stroke-dasharray:none;filter:url(#filter4370)" />
    <path
       style="fill:#ffffff;fill-opacity:1;stroke:#666666;stroke-width:1;stroke-miterlimit:4;stroke-dasharray:none"
       d="m 107.01124,937.08128 0,58.65169 c 0,2.1662 -1.74391,3.91011 -3.91012,3.91011 l -78.202244,0 c -2.166202,0 -3.910112,-1.74391 -3.910112,-3.91011 l 0,-58.65169 z"
       id="rect4055"
       inkscape:connector-curvature="0"
       sodipodi:nodetypes="csssscc" />
    <rect
       style="fill:url(#linearGradient4066);fill-opacity:1;stroke:none"
       id="rect4058"
       width="88"
       height="4"
       x="20"
       y="12"
       transform="translate(0,924.36218)"
       rx="0"
       ry="4" />
    <rect
       ry="4"
       rx="0"
       transform="scale(-1,-1)"
       y="-940.36218"
       x="-108"
       height="4"
       width="88"
       id="rect4070"
       style="fill:url(#linearGradient4072);fill-opacity:1;stroke:none" />
    <rect
       style="fill:url(#linearGradient4179);fill-opacity:1;stroke:none;filter:url(#filter4096)"
       id="rect4074"
       width="84"
       height="50"
       x="22"
       y="24"
       transform="translate(0,924.36218)"
       ry="4"
       rx="4" />
    <path
       transform="translate(0,924.36218)"
       style="fill:#999999;fill-opacity:1;stroke:#666666;stroke-width:0.5;stroke-miterlimit:4;stroke-dasharray:none"
       d="m 36,84 68,0 c 2.216,0 4,1.784 4,4 l 0,28 -76,0 0,-28 c 0,-2.216 1.784,-4 4,-4 z"
       id="rect4102"
       inkscape:connector-curvature="0"
       sodipodi:nodetypes="ssccccs" />
    <rect
       style="fill:#aa0000;fill-opacity:1;stroke:none"
       id="rect4106"
       width="72"
       height="8"
       x="28"
       y="16"
       transform="translate(0,924.36218)"
       ry="1"
       rx="1" />
    <path
       style="fill:none;stroke:#800000;stroke-width:1px;stroke-linecap:round;stroke-linejoin:miter;stroke-opacity:1"
       d="m 28,32 72,0"
       id="path4108"
       inkscape:connector-curvature="0"
       transform="translate(0,924.36218)" />
    <path
       style="fill:none;stroke:#800000;stroke-width:1px;stroke-linecap:round;stroke-linejoin:miter;stroke-opacity:1"
       d="m 28,40 72,0"
       id="path4110"
       inkscape:connector-curvature="0"
       transform="translate(0,924.36218)" />
    <path
       style="fill:none;stroke:#800000;stroke-width:1px;stroke-linecap:round;stroke-linejoin:miter;stroke-opacity:1"
       d="m 28,48 72,0"
       id="path4112"
       inkscape:connector-curvature="0"
       transform="translate(0,924.36218)" />
    <path
       style="fill:none;stroke:#800000;stroke-width:1px;stroke-linecap:round;stroke-linejoin:miter;stroke-opacity:1"
       d="m 28,56 72,0"
       id="path4114"
       inkscape:connector-curvature="0"
       transform="translate(0,924.36218)" />
    <path
       inkscape:connector-curvature="0"
       style="fill:#000000;fill-opacity:1;stroke:url(#radialGradient4279);stroke-width:0.50000000000000000;stroke-linecap:round;stroke-linejoin:round;stroke-miterlimit:4;stroke-opacity:1;stroke-dasharray:none;filter:url(#filter4344)"
       d="m 36,1008.3622 c -2.216,0 -4,1.784 -4,4 l 0,28 56,0 0,-28 c 0,-2.216 -1.784,-4 -4,-4 l -48,0 z m 4,4 4,0 c 2.216,0 4,1.784 4,4 l 0,16 c 0,2.216 -1.784,4 -4,4 l -4,0 c -2.216,0 -4,-1.784 -4,-4 l 0,-16 c 0,-2.216 1.784,-4 4,-4 z m 36,0 8,0 0,4 -8,0 0,-4 z"
       id="rect4189-4" />
    <path
       style="fill:url(#linearGradient4226);fill-opacity:1;stroke:url(#radialGradient4235);stroke-width:0.50000000000000000;stroke-linecap:round;stroke-linejoin:round;stroke-miterlimit:4;stroke-opacity:1;stroke-dasharray:none"
       d="M 36 84 C 33.784 84 32 85.784 32 88 L 32 116 L 88 116 L 88 88 C 88 85.784 86.216 84 84 84 L 36 84 z M 40 88 L 44 88 C 46.216 88 48 89.784 48 92 L 48 108 C 48 110.216 46.216 112 44 112 L 40 112 C 37.784 112 36 110.216 36 108 L 36 92 C 36 89.784 37.784 88 40 88 z M 76 88 L 84 88 L 84 92 L 76 92 L 76 88 z "
       transform="translate(0,924.36218)"
       id="rect4189" />
  </g>
</svg>
