<?xml version="1.0" encoding="UTF-8" standalone="no"?>
<!-- Created with Inkscape (http://www.inkscape.org/) -->

<svg
   xmlns:dc="http://purl.org/dc/elements/1.1/"
   xmlns:cc="http://creativecommons.org/ns#"
   xmlns:rdf="http://www.w3.org/1999/02/22-rdf-syntax-ns#"
   xmlns:svg="http://www.w3.org/2000/svg"
   xmlns="http://www.w3.org/2000/svg"
   xmlns:xlink="http://www.w3.org/1999/xlink"
   xmlns:sodipodi="http://sodipodi.sourceforge.net/DTD/sodipodi-0.dtd"
   xmlns:inkscape="http://www.inkscape.org/namespaces/inkscape"
   width="128"
   height="128"
   id="svg2"
   version="1.1"
   inkscape:version="0.92+devel (unknown)"
   sodipodi:docname="media-cdrw.svg">
  <defs
     id="defs4">
    <linearGradient
       id="linearGradient4599">
      <stop
         style="stop-color:#000000;stop-opacity:0.74666667;"
         offset="0"
         id="stop4601" />
      <stop
         id="stop4638"
         offset="0.03125"
         style="stop-color:#ffffff;stop-opacity:0.75999999;" />
      <stop
         id="stop4636"
         offset="0.0625"
         style="stop-color:#000000;stop-opacity:0.50222224;" />
      <stop
         id="stop4634"
         offset="0.125"
         style="stop-color:#ffffff;stop-opacity:0.60444444;" />
      <stop
         id="stop4628"
         offset="0.25"
         style="stop-color:#000000;stop-opacity:0.29777777;" />
      <stop
         style="stop-color:#000000;stop-opacity:0.41777778;"
         offset="0.375"
         id="stop4630" />
      <stop
         id="stop4626"
         offset="0.5"
         style="stop-color:#ffffff;stop-opacity:0.49777779;" />
      <stop
         style="stop-color:#000000;stop-opacity:0.61333334;"
         offset="1"
         id="stop4603" />
    </linearGradient>
    <linearGradient
       id="linearGradient4216-1">
      <stop
         style="stop-color:#ffffff;stop-opacity:1;"
         offset="0"
         id="stop4218-0" />
      <stop
         style="stop-color:#c6c6c6;stop-opacity:1;"
         offset="1"
         id="stop4220-9" />
    </linearGradient>
    <linearGradient
       inkscape:collect="always"
       id="linearGradient4965-8">
      <stop
         style="stop-color:#ffffff;stop-opacity:1;"
         offset="0"
         id="stop4967-0" />
      <stop
         style="stop-color:#ffffff;stop-opacity:0;"
         offset="1"
         id="stop4969-7" />
    </linearGradient>
    <radialGradient
       inkscape:collect="always"
       xlink:href="#linearGradient4216-1"
       id="radialGradient4615"
       gradientUnits="userSpaceOnUse"
       gradientTransform="matrix(2.6153846,-2.7181952e-8,2.5583014e-8,2.4615385,-129.23077,-58.461536)"
       cx="80"
       cy="40"
       fx="80"
       fy="40"
       r="52" />
    <radialGradient
       inkscape:collect="always"
       xlink:href="#linearGradient4599"
       id="radialGradient4624"
       cx="48"
       cy="88"
       fx="48"
       fy="88"
       r="52.5"
       gradientUnits="userSpaceOnUse"
       gradientTransform="matrix(2.7428571,8.376871e-8,-7.4461076e-8,2.4380952,-83.657136,-126.55239)" />
    <linearGradient
       inkscape:collect="always"
       xlink:href="#linearGradient4599"
       id="linearGradient4652"
       x1="44"
       y1="48"
       x2="100"
       y2="80"
       gradientUnits="userSpaceOnUse" />
    <radialGradient
       inkscape:collect="always"
       xlink:href="#linearGradient4599"
       id="radialGradient4665"
       cx="56"
       cy="72"
       fx="56"
       fy="72"
       r="17"
       gradientUnits="userSpaceOnUse"
       gradientTransform="matrix(32.955103,3.3923465,-1.4792298,14.37014,-1682.9812,-1152.6215)" />
    <filter
       inkscape:collect="always"
       id="filter4699"
       x="-0.054857143"
       width="1.1097143"
       y="-0.384"
       height="1.768">
      <feGaussianBlur
         inkscape:collect="always"
         stdDeviation="2.56"
         id="feGaussianBlur4701" />
    </filter>
    <linearGradient
       inkscape:collect="always"
       xlink:href="#linearGradient4599"
       id="linearGradient4717"
       x1="0"
       y1="128"
       x2="128"
       y2="0"
       gradientUnits="userSpaceOnUse" />
    <linearGradient
       inkscape:collect="always"
       xlink:href="#linearGradient4599"
       id="linearGradient4725"
       x1="44"
       y1="84"
       x2="84"
       y2="44"
       gradientUnits="userSpaceOnUse" />
    <linearGradient
       inkscape:collect="always"
       xlink:href="#linearGradient4599"
       id="linearGradient4733"
       x1="48"
       y1="80"
       x2="80"
       y2="48"
       gradientUnits="userSpaceOnUse" />
    <linearGradient
       inkscape:collect="always"
       xlink:href="#linearGradient4599"
       id="linearGradient4741"
       x1="48"
       y1="48"
       x2="80"
       y2="76"
       gradientUnits="userSpaceOnUse" />
    <linearGradient
       inkscape:collect="always"
       xlink:href="#linearGradient4965-8"
       id="linearGradient4780"
       x1="64"
       y1="72"
       x2="64"
       y2="40"
       gradientUnits="userSpaceOnUse" />
    <linearGradient
       inkscape:collect="always"
       xlink:href="#linearGradient4599"
       id="linearGradient4798"
       x1="0"
       y1="0"
       x2="128"
       y2="128"
       gradientUnits="userSpaceOnUse"
       gradientTransform="matrix(0.95,0,0,0.95,3.2,927.56218)" />
  </defs>
  <sodipodi:namedview
     id="base"
     pagecolor="#ffffff"
     bordercolor="#666666"
     borderopacity="1.0"
     inkscape:pageopacity="0.0"
     inkscape:pageshadow="2"
     inkscape:zoom="2.8"
     inkscape:cx="73.3334"
     inkscape:cy="63.1721"
     inkscape:document-units="px"
     inkscape:current-layer="layer1"
     showgrid="true"
     inkscape:window-width="1280"
     inkscape:window-height="967"
     inkscape:window-x="0"
     inkscape:window-y="29"
     inkscape:window-maximized="1"
     showguides="true"
     inkscape:guide-bbox="true"
     inkscape:document-rotation="0">
    <inkscape:grid
       type="xygrid"
       id="grid2985"
       empspacing="2"
       visible="true"
       enabled="true"
       snapvisiblegridlinesonly="true" />
  </sodipodi:namedview>
  <metadata
     id="metadata7">
    <rdf:RDF>
      <cc:Work
         rdf:about="">
        <dc:format>image/svg+xml</dc:format>
        <dc:type
           rdf:resource="http://purl.org/dc/dcmitype/StillImage" />
        <dc:title />
      </cc:Work>
    </rdf:RDF>
  </metadata>
  <g
     inkscape:label="Layer 1"
     inkscape:groupmode="layer"
     id="layer1"
     transform="translate(0,-924.36218)">
    <path
       sodipodi:type="arc"
       style="fill:#000000;fill-opacity:1;stroke:none;filter:url(#filter4699);opacity:0.5"
       id="path4669"
       sodipodi:cx="64"
       sodipodi:cy="112"
       sodipodi:rx="56"
       sodipodi:ry="8"
       d="m 120,112 a 56,8 0 0 1 -56,8 56,8 0 0 1 -56,-8 56,8 0 0 1 56,-8 56,8 0 0 1 56,8 z"
       transform="translate(0,924.36218)" />
    <path
       style="fill:url(#linearGradient4798);fill-opacity:1;stroke:none"
       d="m 64,935.16218 c -29.381549,0 -53.2,23.81845 -53.2,53.2 0,29.38152 23.818451,53.20002 53.2,53.20002 29.381549,0 53.2,-23.8185 53.2,-53.20002 0,-29.38155 -23.818451,-53.2 -53.2,-53.2 z m 0,11.4 c 23.085503,0 41.8,18.7145 41.8,41.8 0,23.08552 -18.714497,41.80002 -41.8,41.80002 -23.085503,0 -41.8,-18.7145 -41.8,-41.80002 0,-23.0855 18.714497,-41.8 41.8,-41.8 z"
       id="path4784"
       inkscape:connector-curvature="0" />
    <path
       style="fill:url(#radialGradient4615);fill-opacity:1;stroke:url(#radialGradient4624);stroke-width:1;stroke-miterlimit:4;stroke-dasharray:none"
       d="M 64 12 C 35.281193 12 12 35.281193 12 64 C 12 92.718807 35.281193 116 64 116 C 92.718807 116 116 92.718807 116 64 C 116 35.281193 92.718807 12 64 12 z M 64 48 C 72.836556 48 80 55.163444 80 64 C 80 72.836556 72.836556 80 64 80 C 55.163444 80 48 72.836556 48 64 C 48 55.163444 55.163444 48 64 48 z "
       transform="translate(0,924.36218)"
       id="path3784" />
    <path
       style="fill:url(#linearGradient4652);fill-opacity:1;stroke:url(#radialGradient4665);stroke-width:1;stroke-linecap:round;stroke-linejoin:round;stroke-miterlimit:4;stroke-opacity:1;stroke-dasharray:none"
       d="M 64 48 C 55.163444 48 48 55.163444 48 64 C 48 72.836556 55.163444 80 64 80 C 72.836556 80 80 72.836556 80 64 C 80 55.163444 72.836556 48 64 48 z M 64 58 C 67.313708 58 70 60.686292 70 64 C 70 67.313708 67.313708 70 64 70 C 60.686292 70 58 67.313708 58 64 C 58 60.686292 60.686292 58 64 58 z "
       transform="translate(0,924.36218)"
       id="path4640" />
    <path
       sodipodi:type="arc"
       style="opacity:0.50000000000000000;fill:none;fill-opacity:1;stroke:url(#linearGradient4741);stroke-width:0.50000000000000000;stroke-miterlimit:4;stroke-dasharray:none"
       id="path4703"
       sodipodi:cx="64"
       sodipodi:cy="64"
       sodipodi:rx="8"
       sodipodi:ry="8"
       d="m 72,64 a 8,8 0 0 1 -8,8 8,8 0 0 1 -8,-8 8,8 0 0 1 8,-8 8,8 0 0 1 8,8 z"
       transform="translate(0,924.36218)" />
    <path
       sodipodi:type="arc"
       style="opacity:0.50000000000000000;fill:none;stroke:url(#linearGradient4733);stroke-width:0.50000000000000000;stroke-linecap:round;stroke-linejoin:round;stroke-miterlimit:4;stroke-opacity:1;stroke-dasharray:none"
       id="path4705"
       sodipodi:cx="64"
       sodipodi:cy="64"
       sodipodi:rx="14"
       sodipodi:ry="14"
       d="M 78,64 A 14,14 0 0 1 64,78 14,14 0 0 1 50,64 14,14 0 0 1 64,50 14,14 0 0 1 78,64 Z"
       transform="translate(0,924.36218)" />
    <path
       sodipodi:type="arc"
       style="opacity:0.50000000000000000;fill:none;stroke:url(#linearGradient4725);stroke-width:0.50000000000000000;stroke-linecap:round;stroke-linejoin:round;stroke-miterlimit:4;stroke-opacity:1;stroke-dasharray:none"
       id="path4707"
       sodipodi:cx="64"
       sodipodi:cy="64"
       sodipodi:rx="18"
       sodipodi:ry="18"
       d="M 82,64 A 18,18 0 0 1 64,82 18,18 0 0 1 46,64 18,18 0 0 1 64,46 18,18 0 0 1 82,64 Z"
       transform="translate(0,924.36218)" />
    <path
       sodipodi:type="arc"
       style="opacity:0.50000000000000000;fill:none;stroke:url(#linearGradient4717);stroke-width:0.50000000000000000;stroke-linecap:round;stroke-linejoin:round;stroke-miterlimit:4;stroke-opacity:1;stroke-dasharray:none"
       id="path4709"
       sodipodi:cx="64"
       sodipodi:cy="64"
       sodipodi:rx="50"
       sodipodi:ry="50"
       d="M 114,64 A 50,50 0 0 1 64,114 50,50 0 0 1 14,64 50,50 0 0 1 64,14 50,50 0 0 1 114,64 Z"
       transform="translate(0,924.36218)" />
    <path
       style="fill:url(#linearGradient4780);fill-opacity:1;stroke:none;stroke-width:0.94999999000000002;stroke-miterlimit:4;stroke-dasharray:none"
       d="M 64 14.59375 C 36.811807 14.59375 14.746512 36.566485 14.59375 63.71875 C 23.737153 67.110473 34.088823 69.589677 45.25 70.90625 C 44.454043 68.749031 44 66.433672 44 64 C 44 52.954305 52.954305 44 64 44 C 75.045695 44 84 52.954305 84 64 C 84 66.433672 83.545957 68.749031 82.75 70.90625 C 93.911177 69.589677 104.26285 67.110473 113.40625 63.71875 C 113.25349 36.566485 91.188193 14.59375 64 14.59375 z "
       transform="translate(0,924.36218)"
       id="path4762" />
    <text
       xml:space="preserve"
       style="font-style:italic;font-weight:bold;line-height:0%;font-family:sans-serif;-inkscape-font-specification:'Sans Bold Italic';letter-spacing:0px;word-spacing:0px;opacity:0.5;fill:#000000;fill-opacity:1;stroke:none"
       x="48.4336"
       y="964.362"
       id="text4810"><tspan
         sodipodi:role="line"
         id="tspan4812"
         x="48.4336"
         y="964.362"
         style="font-size:20px;line-height:1.25;font-family:sans-serif;fill:#000000;fill-opacity:1;stroke:none">CD</tspan></text>
    <text
       xml:space="preserve"
       style="font-style:italic;font-weight:bold;line-height:0%;font-family:sans-serif;-inkscape-font-specification:'Sans Bold Italic';letter-spacing:0px;word-spacing:0px;opacity:0.5;fill:#000000;fill-opacity:1;stroke:none"
       x="44.6641"
       y="1028.36"
       id="text4810-2"><tspan
         sodipodi:role="line"
         id="tspan4812-5"
         x="44.6641"
         y="1028.36"
         style="font-size:20px;line-height:1.25;font-family:sans-serif;fill:#000000;fill-opacity:1;stroke:none">RW</tspan></text>
  </g>
</svg>
