<?xml version="1.0" encoding="UTF-8" standalone="no"?>
<!-- Created with Inkscape (http://www.inkscape.org/) -->

<svg
   xmlns:dc="http://purl.org/dc/elements/1.1/"
   xmlns:cc="http://creativecommons.org/ns#"
   xmlns:rdf="http://www.w3.org/1999/02/22-rdf-syntax-ns#"
   xmlns:svg="http://www.w3.org/2000/svg"
   xmlns="http://www.w3.org/2000/svg"
   xmlns:xlink="http://www.w3.org/1999/xlink"
   xmlns:sodipodi="http://sodipodi.sourceforge.net/DTD/sodipodi-0.dtd"
   xmlns:inkscape="http://www.inkscape.org/namespaces/inkscape"
   width="128"
   height="128"
   id="svg3829"
   version="1.1"
   inkscape:version="0.91 r"
   sodipodi:docname="multimedia-player-ipod-blue.svg">
  <defs
     id="defs3831">
    <linearGradient
       inkscape:collect="always"
       id="linearGradient5452">
      <stop
         style="stop-color:#ffffff;stop-opacity:1;"
         offset="0"
         id="stop5454" />
      <stop
         style="stop-color:#ffffff;stop-opacity:0;"
         offset="1"
         id="stop5456" />
    </linearGradient>
    <linearGradient
       inkscape:collect="always"
       id="linearGradient5419">
      <stop
         style="stop-color:#1a1a1a;stop-opacity:1;"
         offset="0"
         id="stop5421" />
      <stop
         style="stop-color:#1a1a1a;stop-opacity:0;"
         offset="1"
         id="stop5423" />
    </linearGradient>
    <linearGradient
       id="linearGradient5409">
      <stop
         style="stop-color:#ffffff;stop-opacity:1;"
         offset="0"
         id="stop5411" />
      <stop
         style="stop-color:#666666;stop-opacity:1;"
         offset="1"
         id="stop5413" />
    </linearGradient>
    <linearGradient
       id="linearGradient8794">
      <stop
         style="stop-color:#60bcff;stop-opacity:1;"
         offset="0"
         id="stop8796" />
      <stop
         style="stop-color:#0065a8;stop-opacity:1;"
         offset="1"
         id="stop8798" />
    </linearGradient>
    <linearGradient
       id="linearGradient4270-9-28">
      <stop
         style="stop-color:#f9f9f9;stop-opacity:0.50196081;"
         offset="0"
         id="stop4272-5-33" />
      <stop
         id="stop5033-81"
         offset="0.25"
         style="stop-color:#7d7d7d;stop-opacity:0.50196081;" />
      <stop
         id="stop4278-7-4"
         offset="0.5"
         style="stop-color:#808080;stop-opacity:0.50196081;" />
      <stop
         style="stop-color:#ffffff;stop-opacity:0.50196081;"
         offset="0.75"
         id="stop5035-3" />
      <stop
         style="stop-color:#000000;stop-opacity:0.50196081;"
         offset="1"
         id="stop4274-4-83" />
    </linearGradient>
    <linearGradient
       inkscape:collect="always"
       xlink:href="#linearGradient4270-9-28"
       id="linearGradient5396"
       x1="0"
       y1="-24"
       x2="120"
       y2="152"
       gradientUnits="userSpaceOnUse"
       gradientTransform="matrix(0.72358155,0,0,0.72358155,17.858759,-54.282409)" />
    <radialGradient
       inkscape:collect="always"
       xlink:href="#linearGradient8794"
       id="radialGradient5405"
       gradientUnits="userSpaceOnUse"
       gradientTransform="matrix(1.392511,-5.2860603e-8,5.1610491e-8,1.3595792,-35.655597,-103.61413)"
       cx="80"
       cy="39.876923"
       fx="80"
       fy="39.876923"
       r="49" />
    <linearGradient
       inkscape:collect="always"
       xlink:href="#linearGradient4270-9-28"
       id="linearGradient5407"
       gradientUnits="userSpaceOnUse"
       x1="0"
       y1="-24"
       x2="120"
       y2="152"
       gradientTransform="matrix(0.72358155,0,0,0.72358155,17.858759,-72.552908)" />
    <radialGradient
       inkscape:collect="always"
       xlink:href="#linearGradient8794"
       id="radialGradient5415"
       cx="63.767853"
       cy="80.91346"
       fx="63.767853"
       fy="80.91346"
       r="49"
       gradientTransform="matrix(0.40816325,4.5592281e-8,-1.8474252e-7,1.6539007,37.972322,-113.82283)"
       gradientUnits="userSpaceOnUse" />
    <linearGradient
       inkscape:collect="always"
       xlink:href="#linearGradient5419"
       id="linearGradient5425"
       x1="64"
       y1="-16"
       x2="64"
       y2="64"
       gradientUnits="userSpaceOnUse"
       gradientTransform="matrix(0.72358155,0,0,0.72358155,17.858759,-66.764256)" />
    <radialGradient
       inkscape:collect="always"
       xlink:href="#linearGradient5409"
       id="radialGradient5441"
       cx="80"
       cy="22.030769"
       fx="80"
       fy="22.030769"
       r="40.5"
       gradientTransform="matrix(1.0719727,-4.1061706e-8,4.6536599e-8,1.2149024,-10.012531,-76.163529)"
       gradientUnits="userSpaceOnUse" />
    <linearGradient
       inkscape:collect="always"
       xlink:href="#linearGradient5452"
       id="linearGradient5473"
       gradientUnits="userSpaceOnUse"
       x1="32"
       y1="64"
       x2="40"
       y2="-16"
       gradientTransform="matrix(0.72358155,0,0,0.72358155,17.858759,-66.764256)" />
    <linearGradient
       inkscape:collect="always"
       xlink:href="#linearGradient4270-9-28"
       id="linearGradient4586"
       x1="36"
       y1="68"
       x2="92"
       y2="120"
       gradientUnits="userSpaceOnUse"
       gradientTransform="matrix(0.89156046,0,0,0.89156046,6.9401305,-76.84299)" />
    <filter
       inkscape:collect="always"
       id="filter4660">
      <feGaussianBlur
         inkscape:collect="always"
         stdDeviation="2.2096625"
         id="feGaussianBlur4662" />
    </filter>
  </defs>
  <sodipodi:namedview
     id="base"
     pagecolor="#ffffff"
     bordercolor="#666666"
     borderopacity="1.0"
     inkscape:pageopacity="0.0"
     inkscape:pageshadow="2"
     inkscape:zoom="2.5600001"
     inkscape:cx="16.727156"
     inkscape:cy="81.566973"
     inkscape:current-layer="layer1"
     showgrid="true"
     inkscape:grid-bbox="true"
     inkscape:document-units="px"
     inkscape:window-width="1280"
     inkscape:window-height="969"
     inkscape:window-x="0"
     inkscape:window-y="28"
     inkscape:window-maximized="1"
     showguides="true"
     inkscape:guide-bbox="true">
    <inkscape:grid
       type="xygrid"
       id="grid3837"
       empspacing="4"
       visible="true"
       enabled="true"
       snapvisiblegridlinesonly="true" />
  </sodipodi:namedview>
  <metadata
     id="metadata3834">
    <rdf:RDF>
      <cc:Work
         rdf:about="">
        <dc:format>image/svg+xml</dc:format>
        <dc:type
           rdf:resource="http://purl.org/dc/dcmitype/StillImage" />
        <dc:title />
      </cc:Work>
    </rdf:RDF>
  </metadata>
  <g
     id="layer1"
     inkscape:label="Layer 1"
     inkscape:groupmode="layer"
     transform="translate(0,80)">
    <rect
       ry="7.4219742"
       rx="4.3865051"
       y="-63.421974"
       x="27.613503"
       height="104"
       width="72.773003"
       id="rect4634"
       style="fill:#000000;fill-opacity:1;stroke:none;filter:url(#filter4660)" />
    <rect
       style="fill:url(#radialGradient5415);fill-opacity:1;stroke:url(#linearGradient5396);stroke-width:1.44716310999999997;stroke-linecap:round;stroke-linejoin:round;stroke-miterlimit:4;stroke-opacity:1;stroke-dasharray:none;stroke-dashoffset:0"
       id="rect5380"
       width="71.324837"
       height="21.397451"
       x="28.337582"
       y="15.879297"
       rx="2.4688106"
       ry="2.4688106" />
    <rect
       ry="2.4688106"
       rx="2.4688106"
       y="-73.276749"
       x="28.337582"
       height="106.98726"
       width="71.324837"
       id="rect5403"
       style="fill:url(#radialGradient5405);fill-opacity:1;stroke:url(#linearGradient5407);stroke-width:1.44716311;stroke-linecap:round;stroke-linejoin:round;stroke-miterlimit:4;stroke-opacity:1;stroke-dasharray:none;stroke-dashoffset:0" />
    <rect
       style="fill:url(#radialGradient5441);fill-opacity:1.0;stroke:url(#linearGradient5425);stroke-width:0.72358155000000002;stroke-linecap:round;stroke-linejoin:round;stroke-miterlimit:4;stroke-opacity:1;stroke-dasharray:none;stroke-dashoffset:0"
       id="rect5417"
       width="57.305222"
       height="39.848648"
       x="35.224716"
       y="-66.764252"
       rx="2.4688106"
       ry="2.4688106" />
    <path
       style="fill:#f2f2f2;stroke:none"
       d="m 59.555179,-0.6080805 0,11.5773045 11.577305,-5.788652 z"
       id="path5565"
       inkscape:connector-curvature="0" />
    <path
       style="opacity:1;fill:#1a1a1a;stroke:none"
       d="m 38.119043,-63.86993 0,8.682979 7.235815,-4.341489 z"
       id="path3307"
       inkscape:connector-curvature="0" />
    <g
       transform="matrix(0.72358155,0,0,0.72358155,19.305923,-748.64016)"
       style="font-size:6px;font-style:normal;font-weight:bold;line-height:125%;letter-spacing:0px;word-spacing:0px;opacity:1;fill:#1a1a1a;fill-opacity:1;stroke:none;font-family:Sans;-inkscape-font-specification:Sans Bold"
       id="text4127">
      <path
         inkscape:connector-curvature="0"
         d="m 40.759766,952.17078 c -3e-6,-0.54688 -0.05176,-0.93164 -0.155274,-1.1543 -0.101565,-0.22461 -0.27344,-0.33691 -0.515625,-0.33691 -0.242189,0 -0.415041,0.1123 -0.518555,0.33691 -0.103517,0.22266 -0.155274,0.60742 -0.155273,1.1543 -10e-7,0.55273 0.05176,0.94238 0.155273,1.16894 0.103514,0.22656 0.276366,0.33985 0.518555,0.33985 0.240232,0 0.412107,-0.11329 0.515625,-0.33985 0.103513,-0.22656 0.155271,-0.61621 0.155274,-1.16894 m 1.127929,0.009 c -4e-6,0.72461 -0.156253,1.28418 -0.46875,1.67871 -0.312503,0.39257 -0.755862,0.58886 -1.330078,0.58886 -0.576173,0 -1.020509,-0.19629 -1.333008,-0.58886 -0.3125,-0.39453 -0.46875,-0.9541 -0.46875,-1.67871 0,-0.72656 0.15625,-1.28613 0.46875,-1.67872 0.312499,-0.39452 0.756835,-0.59179 1.333008,-0.59179 0.574216,0 1.017575,0.19727 1.330078,0.59179 0.312497,0.39259 0.468746,0.95216 0.46875,1.67872"
         id="path3453"
         style="fill:#1a1a1a" />
      <path
         inkscape:connector-curvature="0"
         d="m 42.875,953.58289 0.996094,0 0,-2.82715 -1.022461,0.21093 0,-0.76757 1.016601,-0.21094 1.072266,0 0,3.59473 0.996094,0 0,0.77929 -3.058594,0 0,-0.77929"
         id="path3455"
         style="fill:#1a1a1a" />
      <path
         inkscape:connector-curvature="0"
         d="m 48.754883,952.20886 1.839844,0 0,0.85254 -1.839844,0 0,-0.85254"
         id="path3457"
         style="fill:#1a1a1a" />
      <path
         inkscape:connector-curvature="0"
         d="m 53.5625,949.98816 1.87207,0 c 0.556638,0 0.983395,0.12403 1.280274,0.37207 0.298824,0.2461 0.448238,0.59766 0.448242,1.05469 -4e-6,0.45898 -0.149418,0.8125 -0.448242,1.06054 -0.296879,0.2461 -0.723636,0.36915 -1.280274,0.36914 l -0.74414,0 0,1.51758 -1.12793,0 0,-4.37402 m 1.12793,0.81738 0,1.22168 0.624023,0 c 0.218748,0 0.387693,-0.0527 0.506836,-0.1582 0.119138,-0.10742 0.178708,-0.25879 0.178711,-0.4541 -3e-6,-0.19531 -0.05957,-0.3457 -0.178711,-0.45117 -0.119143,-0.10547 -0.288088,-0.1582 -0.506836,-0.15821 l -0.624023,0"
         id="path3459"
         style="fill:#1a1a1a" />
      <path
         inkscape:connector-curvature="0"
         d="m 61.185547,952.71277 0,0.29883 -2.452149,0 c 0.02539,0.24609 0.114257,0.43066 0.266602,0.55371 0.152342,0.12305 0.365232,0.18457 0.638672,0.18457 0.220701,0 0.446286,-0.0322 0.676758,-0.0967 0.232418,-0.0664 0.470699,-0.16602 0.714843,-0.29883 l 0,0.80859 c -0.24805,0.0937 -0.496096,0.16407 -0.74414,0.21094 -0.24805,0.0488 -0.496096,0.0732 -0.744141,0.0732 -0.593751,0 -1.055665,-0.15039 -1.385742,-0.45117 -0.328125,-0.30273 -0.492188,-0.72656 -0.492188,-1.27148 0,-0.53516 0.161133,-0.95605 0.483399,-1.2627 0.324218,-0.30664 0.76953,-0.45996 1.335937,-0.45996 0.515623,0 0.927732,0.15528 1.236329,0.46582 0.310543,0.31055 0.465816,0.72559 0.46582,1.24512 m -1.078125,-0.34863 c -3e-6,-0.19922 -0.0586,-0.35938 -0.175781,-0.48047 -0.115237,-0.12305 -0.266604,-0.18457 -0.454102,-0.18457 -0.203127,0 -0.368166,0.0576 -0.495117,0.17285 -0.126955,0.11328 -0.206056,0.27734 -0.237305,0.49219 l 1.362305,0"
         id="path3461"
         style="fill:#1a1a1a" />
      <path
         inkscape:connector-curvature="0"
         d="m 65.275391,952.36414 0,1.99804 -1.054688,0 0,-0.32519 0,-1.2041 c -3e-6,-0.28321 -0.0068,-0.47852 -0.02051,-0.58594 -0.01172,-0.10742 -0.03321,-0.18652 -0.06445,-0.23731 -0.04102,-0.0684 -0.09668,-0.12109 -0.166992,-0.1582 -0.07032,-0.0391 -0.150393,-0.0586 -0.240234,-0.0586 -0.218752,0 -0.390627,0.085 -0.515625,0.25488 -0.125002,0.16797 -0.187502,0.40137 -0.1875,0.70019 l 0,1.61426 -1.048829,0 0,-3.28125 1.048829,0 0,0.48047 c 0.158201,-0.1914 0.32617,-0.33203 0.503906,-0.42187 0.177732,-0.0918 0.374021,-0.1377 0.588867,-0.1377 0.378903,0 0.666012,0.11622 0.861328,0.34863 0.197262,0.23243 0.295895,0.57032 0.295899,1.01368"
         id="path3463"
         style="fill:#1a1a1a" />
      <path
         inkscape:connector-curvature="0"
         d="m 69.552734,952.36414 0,1.99804 -1.054687,0 0,-0.32519 0,-1.2041 c -3e-6,-0.28321 -0.0068,-0.47852 -0.02051,-0.58594 -0.01172,-0.10742 -0.03321,-0.18652 -0.06445,-0.23731 -0.04102,-0.0684 -0.09668,-0.12109 -0.166992,-0.1582 -0.07031,-0.0391 -0.150393,-0.0586 -0.240235,-0.0586 -0.218752,0 -0.390626,0.085 -0.515625,0.25488 -0.125001,0.16797 -0.187501,0.40137 -0.1875,0.70019 l 0,1.61426 -1.048828,0 0,-3.28125 1.048828,0 0,0.48047 c 0.158202,-0.1914 0.32617,-0.33203 0.503907,-0.42187 0.177732,-0.0918 0.374021,-0.1377 0.588867,-0.1377 0.378903,0 0.666012,0.11622 0.861328,0.34863 0.197262,0.23243 0.295895,0.57032 0.295898,1.01368"
         id="path3465"
         style="fill:#1a1a1a" />
      <path
         inkscape:connector-curvature="0"
         d="m 70.100586,951.08093 1.048828,0 0.881836,2.22657 0.75,-2.22657 1.048828,0 -1.379883,3.5918 c -0.138674,0.36523 -0.300783,0.62012 -0.486328,0.76465 -0.183595,0.14648 -0.426759,0.21972 -0.729492,0.21972 l -0.606445,0 0,-0.68847 0.328125,0 c 0.177733,0 0.306639,-0.0283 0.386718,-0.085 0.08203,-0.0566 0.145507,-0.15821 0.19043,-0.30469 l 0.0293,-0.0908 -1.461914,-3.40723"
         id="path3467"
         style="fill:#1a1a1a" />
      <path
         inkscape:connector-curvature="0"
         d="m 76.578125,949.98816 1.12793,0 0,3.52148 1.980468,0 0,0.85254 -3.108398,0 0,-4.37402"
         id="path3469"
         style="fill:#1a1a1a" />
      <path
         inkscape:connector-curvature="0"
         d="m 81.822266,952.88562 c -0.218752,0 -0.383791,0.0371 -0.495118,0.11133 -0.109376,0.0742 -0.164063,0.18359 -0.164062,0.32812 -1e-6,0.13282 0.04394,0.23731 0.131836,0.31348 0.08984,0.0742 0.213865,0.11133 0.37207,0.11133 0.197264,0 0.363279,-0.0703 0.498047,-0.21094 0.134763,-0.14258 0.202146,-0.32031 0.202148,-0.5332 l 0,-0.12012 -0.544921,0 m 1.602539,-0.39551 0,1.87207 -1.057618,0 0,-0.48633 c -0.140627,0.19922 -0.29883,0.34473 -0.474609,0.43653 -0.175783,0.0898 -0.38965,0.13476 -0.641601,0.13476 -0.339845,0 -0.616212,-0.0986 -0.829102,-0.29589 -0.210938,-0.19922 -0.316407,-0.45704 -0.316406,-0.77344 -10e-7,-0.38477 0.131835,-0.66699 0.395508,-0.84668 0.265624,-0.17969 0.681639,-0.26953 1.248046,-0.26953 l 0.618164,0 0,-0.082 c -2e-6,-0.16602 -0.06543,-0.28711 -0.196289,-0.36329 -0.130861,-0.0781 -0.334962,-0.11718 -0.612304,-0.11718 -0.224611,0 -0.433595,0.0225 -0.626953,0.0674 -0.193361,0.0449 -0.373048,0.11231 -0.539063,0.20215 l 0,-0.79981 c 0.224609,-0.0547 0.450194,-0.0957 0.676758,-0.12304 0.226561,-0.0293 0.453123,-0.0439 0.679687,-0.0439 0.591795,0 1.018552,0.11719 1.280274,0.35156 0.263668,0.23243 0.395504,0.61133 0.395508,1.13672"
         id="path3471"
         style="fill:#1a1a1a" />
      <path
         inkscape:connector-curvature="0"
         d="m 87.705078,952.36414 0,1.99804 -1.054687,0 0,-0.32519 0,-1.2041 c -3e-6,-0.28321 -0.0068,-0.47852 -0.02051,-0.58594 -0.01172,-0.10742 -0.03321,-0.18652 -0.06445,-0.23731 -0.04102,-0.0684 -0.09668,-0.12109 -0.166993,-0.1582 -0.07031,-0.0391 -0.150392,-0.0586 -0.240234,-0.0586 -0.218752,0 -0.390627,0.085 -0.515625,0.25488 -0.125001,0.16797 -0.187501,0.40137 -0.1875,0.70019 l 0,1.61426 -1.048828,0 0,-3.28125 1.048828,0 0,0.48047 c 0.158202,-0.1914 0.32617,-0.33203 0.503906,-0.42187 0.177733,-0.0918 0.374021,-0.1377 0.588868,-0.1377 0.378903,0 0.666012,0.11622 0.861328,0.34863 0.197262,0.23243 0.295894,0.57032 0.295898,1.01368"
         id="path3473"
         style="fill:#1a1a1a" />
      <path
         inkscape:connector-curvature="0"
         d="m 91.958984,952.71277 0,0.29883 -2.452148,0 c 0.02539,0.24609 0.114256,0.43066 0.266601,0.55371 0.152343,0.12305 0.365233,0.18457 0.638672,0.18457 0.220701,0 0.446287,-0.0322 0.676758,-0.0967 0.232419,-0.0664 0.4707,-0.16602 0.714844,-0.29883 l 0,0.80859 c -0.24805,0.0937 -0.496097,0.16407 -0.744141,0.21094 -0.248049,0.0488 -0.496096,0.0732 -0.74414,0.0732 -0.593752,0 -1.055665,-0.15039 -1.385743,-0.45117 -0.328125,-0.30273 -0.492187,-0.72656 -0.492187,-1.27148 0,-0.53516 0.161132,-0.95605 0.483398,-1.2627 0.324218,-0.30664 0.76953,-0.45996 1.335938,-0.45996 0.515622,0 0.927731,0.15528 1.236328,0.46582 0.310543,0.31055 0.465817,0.72559 0.46582,1.24512 m -1.078125,-0.34863 c -2e-6,-0.19922 -0.0586,-0.35938 -0.175781,-0.48047 -0.115237,-0.12305 -0.266604,-0.18457 -0.454101,-0.18457 -0.203127,0 -0.368166,0.0576 -0.495118,0.17285 -0.126954,0.11328 -0.206056,0.27734 -0.237304,0.49219 l 1.362304,0"
         id="path3475"
         style="fill:#1a1a1a" />
    </g>
    <g
       transform="matrix(0.72358155,0,0,0.72358155,19.305923,-748.64016)"
       style="font-size:6px;font-style:normal;font-weight:bold;line-height:125%;letter-spacing:0px;word-spacing:0px;opacity:1;fill:#1a1a1a;fill-opacity:1;stroke:none;font-family:Sans;-inkscape-font-specification:Sans Bold"
       id="text4131">
      <path
         inkscape:connector-curvature="0"
         d="m 40.759766,962.17078 c -3e-6,-0.54688 -0.05176,-0.93164 -0.155274,-1.1543 -0.101565,-0.22461 -0.27344,-0.33691 -0.515625,-0.33691 -0.242189,0 -0.415041,0.1123 -0.518555,0.33691 -0.103517,0.22266 -0.155274,0.60742 -0.155273,1.1543 -10e-7,0.55273 0.05176,0.94238 0.155273,1.16894 0.103514,0.22656 0.276366,0.33985 0.518555,0.33985 0.240232,0 0.412107,-0.11329 0.515625,-0.33985 0.103513,-0.22656 0.155271,-0.61621 0.155274,-1.16894 m 1.127929,0.009 c -4e-6,0.72461 -0.156253,1.28418 -0.46875,1.67871 -0.312503,0.39257 -0.755862,0.58886 -1.330078,0.58886 -0.576173,0 -1.020509,-0.19629 -1.333008,-0.58886 -0.3125,-0.39453 -0.46875,-0.9541 -0.46875,-1.67871 0,-0.72656 0.15625,-1.28613 0.46875,-1.67872 0.312499,-0.39452 0.756835,-0.59179 1.333008,-0.59179 0.574216,0 1.017575,0.19727 1.330078,0.59179 0.312497,0.39259 0.468746,0.95216 0.46875,1.67872"
         id="path3426"
         style="fill:#1a1a1a" />
      <path
         inkscape:connector-curvature="0"
         d="m 43.900391,963.53308 1.924804,0 0,0.8291 -3.178711,0 0,-0.8291 1.59668,-1.40918 c 0.142576,-0.1289 0.248045,-0.25488 0.316406,-0.37793 0.06836,-0.12304 0.102537,-0.25097 0.102539,-0.38379 -2e-6,-0.20507 -0.06934,-0.37011 -0.208007,-0.49511 -0.136721,-0.125 -0.319338,-0.1875 -0.547852,-0.1875 -0.175783,0 -0.368165,0.0381 -0.577148,0.11425 -0.208986,0.0742 -0.432618,0.18555 -0.670899,0.33399 l 0,-0.96094 c 0.253906,-0.084 0.504882,-0.14746 0.75293,-0.19043 0.248045,-0.0449 0.491209,-0.0674 0.729492,-0.0674 0.523435,0 0.929685,0.11524 1.21875,0.3457 0.291012,0.23047 0.43652,0.55176 0.436523,0.96387 -3e-6,0.23828 -0.06153,0.46094 -0.18457,0.66797 -0.12305,0.20508 -0.381839,0.48047 -0.776367,0.82617 l -0.93457,0.82031"
         id="path3428"
         style="fill:#1a1a1a" />
      <path
         inkscape:connector-curvature="0"
         d="m 48.754883,962.20886 1.839844,0 0,0.85254 -1.839844,0 0,-0.85254"
         id="path3430"
         style="fill:#1a1a1a" />
      <path
         inkscape:connector-curvature="0"
         d="m 53.5625,959.98816 1.87207,0 c 0.556638,0 0.983395,0.12403 1.280274,0.37207 0.298824,0.2461 0.448238,0.59766 0.448242,1.05469 -4e-6,0.45898 -0.149418,0.8125 -0.448242,1.06054 -0.296879,0.2461 -0.723636,0.36915 -1.280274,0.36914 l -0.74414,0 0,1.51758 -1.12793,0 0,-4.37402 m 1.12793,0.81738 0,1.22168 0.624023,0 c 0.218748,0 0.387693,-0.0527 0.506836,-0.1582 0.119138,-0.10742 0.178708,-0.25879 0.178711,-0.4541 -3e-6,-0.19531 -0.05957,-0.3457 -0.178711,-0.45117 -0.119143,-0.10547 -0.288088,-0.1582 -0.506836,-0.15821 l -0.624023,0"
         id="path3432"
         style="fill:#1a1a1a" />
      <path
         inkscape:connector-curvature="0"
         d="m 59.47168,961.75183 c -0.232424,0 -0.410158,0.084 -0.533203,0.25195 -0.121096,0.16602 -0.181642,0.40626 -0.181641,0.72071 -10e-7,0.31445 0.06054,0.55566 0.181641,0.72363 0.123045,0.16602 0.300779,0.24902 0.533203,0.24902 0.228513,0 0.403318,-0.083 0.524414,-0.24902 0.121091,-0.16797 0.181638,-0.40918 0.18164,-0.72363 -2e-6,-0.31445 -0.06055,-0.55469 -0.18164,-0.72071 -0.121096,-0.16796 -0.295901,-0.25195 -0.524414,-0.25195 m 0,-0.75 c 0.56445,0 1.004879,0.15235 1.321289,0.45703 0.318355,0.30469 0.477535,0.72657 0.477539,1.26563 -4e-6,0.53906 -0.159184,0.96094 -0.477539,1.26562 -0.31641,0.30469 -0.756839,0.45703 -1.321289,0.45703 -0.566408,0 -1.009767,-0.15234 -1.330078,-0.45703 -0.31836,-0.30468 -0.47754,-0.72656 -0.47754,-1.26562 0,-0.53906 0.15918,-0.96094 0.47754,-1.26563 0.320311,-0.30468 0.76367,-0.45703 1.330078,-0.45703"
         id="path3434"
         style="fill:#1a1a1a" />
      <path
         inkscape:connector-curvature="0"
         d="m 62.035156,961.08093 1.048828,0 0,3.28125 -1.048828,0 0,-3.28125 m 0,-1.27734 1.048828,0 0,0.85547 -1.048828,0 0,-0.85547"
         id="path3436"
         style="fill:#1a1a1a" />
      <path
         inkscape:connector-curvature="0"
         d="m 66.661133,961.18347 0,0.79688 c -0.224612,-0.0937 -0.441409,-0.16406 -0.650391,-0.21094 -0.208986,-0.0469 -0.406252,-0.0703 -0.591797,-0.0703 -0.19922,0 -0.347657,0.0254 -0.445312,0.0762 -0.09571,0.0488 -0.143556,0.125 -0.143555,0.22851 -10e-7,0.084 0.03613,0.14844 0.108399,0.19336 0.07422,0.0449 0.206053,0.0781 0.395507,0.0996 l 0.184571,0.0264 c 0.537107,0.0684 0.898434,0.18067 1.083984,0.33691 0.185544,0.15626 0.278317,0.40137 0.27832,0.73536 -3e-6,0.34961 -0.128909,0.6123 -0.386718,0.78808 -0.257816,0.17578 -0.642581,0.26367 -1.154297,0.26367 -0.216799,0 -0.441408,-0.0176 -0.673828,-0.0527 -0.23047,-0.0332 -0.467774,-0.084 -0.711914,-0.15234 l 0,-0.79688 c 0.208983,0.10156 0.42285,0.17774 0.641601,0.22852 0.220702,0.0508 0.444335,0.0762 0.670899,0.0762 0.205076,0 0.359373,-0.0283 0.46289,-0.085 0.103514,-0.0566 0.155271,-0.14063 0.155274,-0.25196 -3e-6,-0.0937 -0.03614,-0.16308 -0.108399,-0.208 -0.07031,-0.0469 -0.211916,-0.083 -0.424805,-0.1084 l -0.18457,-0.0234 c -0.466798,-0.0586 -0.793946,-0.16699 -0.981445,-0.3252 -0.187501,-0.1582 -0.28125,-0.39843 -0.28125,-0.7207 0,-0.34765 0.11914,-0.60546 0.357422,-0.77344 0.23828,-0.16796 0.603514,-0.25195 1.095703,-0.25195 0.193357,0 0.396482,0.0146 0.609375,0.0439 0.212888,0.0293 0.444333,0.0752 0.694336,0.13769"
         id="path3438"
         style="fill:#1a1a1a" />
      <path
         inkscape:connector-curvature="0"
         d="m 69.233398,961.75183 c -0.232423,0 -0.410157,0.084 -0.533203,0.25195 -0.121095,0.16602 -0.181642,0.40626 -0.18164,0.72071 -2e-6,0.31445 0.06054,0.55566 0.18164,0.72363 0.123046,0.16602 0.30078,0.24902 0.533203,0.24902 0.228514,0 0.403318,-0.083 0.524414,-0.24902 0.121092,-0.16797 0.181638,-0.40918 0.181641,-0.72363 -3e-6,-0.31445 -0.06055,-0.55469 -0.181641,-0.72071 -0.121096,-0.16796 -0.2959,-0.25195 -0.524414,-0.25195 m 0,-0.75 c 0.564451,0 1.00488,0.15235 1.321289,0.45703 0.318356,0.30469 0.477536,0.72657 0.47754,1.26563 -4e-6,0.53906 -0.159184,0.96094 -0.47754,1.26562 -0.316409,0.30469 -0.756838,0.45703 -1.321289,0.45703 -0.566407,0 -1.009766,-0.15234 -1.330078,-0.45703 -0.318359,-0.30468 -0.477539,-0.72656 -0.477539,-1.26562 0,-0.53906 0.15918,-0.96094 0.477539,-1.26563 0.320312,-0.30468 0.763671,-0.45703 1.330078,-0.45703"
         id="path3440"
         style="fill:#1a1a1a" />
      <path
         inkscape:connector-curvature="0"
         d="m 75.095703,962.36414 0,1.99804 -1.054687,0 0,-0.32519 0,-1.2041 c -3e-6,-0.28321 -0.0068,-0.47852 -0.02051,-0.58594 -0.01172,-0.10742 -0.03321,-0.18652 -0.06445,-0.23731 -0.04102,-0.0684 -0.09668,-0.12109 -0.166993,-0.1582 -0.07031,-0.0391 -0.150392,-0.0586 -0.240234,-0.0586 -0.218752,0 -0.390627,0.085 -0.515625,0.25488 -0.125001,0.16797 -0.187501,0.40137 -0.1875,0.70019 l 0,1.61426 -1.048828,0 0,-3.28125 1.048828,0 0,0.48047 c 0.158202,-0.1914 0.32617,-0.33203 0.503906,-0.42187 0.177733,-0.0918 0.374021,-0.1377 0.588868,-0.1377 0.378903,0 0.666012,0.11622 0.861328,0.34863 0.197262,0.23243 0.295894,0.57032 0.295898,1.01368"
         id="path3442"
         style="fill:#1a1a1a" />
      <path
         inkscape:connector-curvature="0"
         d="m 82.138672,964.03699 c -0.281254,0.13672 -0.573246,0.23926 -0.875977,0.30761 -0.302737,0.0684 -0.615237,0.10254 -0.9375,0.10254 -0.728517,0 -1.305665,-0.20312 -1.731445,-0.60937 -0.425782,-0.4082 -0.638672,-0.96094 -0.638672,-1.6582 0,-0.70508 0.216796,-1.25977 0.650391,-1.66407 0.433592,-0.40429 1.027342,-0.60644 1.78125,-0.60644 0.291012,0 0.569332,0.0274 0.834961,0.082 0.267574,0.0547 0.519527,0.13575 0.755859,0.24316 l 0,0.90528 c -0.244145,-0.13867 -0.487308,-0.24219 -0.729492,-0.31055 -0.240238,-0.0684 -0.481449,-0.10254 -0.723633,-0.10254 -0.449221,0 -0.7959,0.12598 -1.040039,0.37793 -0.242189,0.25 -0.363283,0.6084 -0.363281,1.0752 -2e-6,0.46289 0.117186,0.82031 0.351562,1.07226 0.234373,0.25196 0.567381,0.37793 0.999024,0.37793 0.117184,0 0.225583,-0.007 0.325195,-0.0205 0.101559,-0.0156 0.192379,-0.0391 0.272461,-0.0703 l 0,-0.84961 -0.688477,0 0,-0.75586 1.757813,0 0,2.10352"
         id="path3444"
         style="fill:#1a1a1a" />
      <path
         inkscape:connector-curvature="0"
         d="m 83.082031,961.08093 1.048828,0 0,3.28125 -1.048828,0 0,-3.28125 m 0,-1.27734 1.048828,0 0,0.85547 -1.048828,0 0,-0.85547"
         id="path3446"
         style="fill:#1a1a1a" />
      <path
         inkscape:connector-curvature="0"
         d="m 87.582031,961.97449 c -0.0918,-0.043 -0.183596,-0.0742 -0.27539,-0.0937 -0.08985,-0.0215 -0.180667,-0.0322 -0.272461,-0.0322 -0.269534,0 -0.477541,0.0869 -0.624024,0.26074 -0.144533,0.17188 -0.216798,0.41895 -0.216797,0.74121 l 0,1.51172 -1.048828,0 0,-3.28125 1.048828,0 0,0.53907 c 0.134764,-0.21485 0.289061,-0.3711 0.462891,-0.46875 0.175779,-0.0996 0.38574,-0.14942 0.629883,-0.14942 0.03515,0 0.07324,0.002 0.114258,0.006 0.04101,0.002 0.100583,0.008 0.178711,0.0176 l 0.0029,0.94922"
         id="path3448"
         style="fill:#1a1a1a" />
      <path
         inkscape:connector-curvature="0"
         d="m 88.109375,959.80359 1.048828,0 0,4.55859 -1.048828,0 0,-4.55859"
         id="path3450"
         style="fill:#1a1a1a" />
    </g>
    <g
       transform="matrix(0.72358155,0,0,0.72358155,19.305923,-748.64016)"
       style="font-size:6px;font-style:normal;font-weight:bold;line-height:125%;letter-spacing:0px;word-spacing:0px;opacity:1;fill:#1a1a1a;fill-opacity:1;stroke:none;font-family:Sans;-inkscape-font-specification:Sans Bold"
       id="text4135">
      <path
         inkscape:connector-curvature="0"
         d="m 40.759766,972.17078 c -3e-6,-0.54688 -0.05176,-0.93164 -0.155274,-1.1543 -0.101565,-0.22461 -0.27344,-0.33691 -0.515625,-0.33691 -0.242189,0 -0.415041,0.1123 -0.518555,0.33691 -0.103517,0.22266 -0.155274,0.60742 -0.155273,1.1543 -10e-7,0.55273 0.05176,0.94238 0.155273,1.16894 0.103514,0.22656 0.276366,0.33985 0.518555,0.33985 0.240232,0 0.412107,-0.11329 0.515625,-0.33985 0.103513,-0.22656 0.155271,-0.61621 0.155274,-1.16894 m 1.127929,0.009 c -4e-6,0.72461 -0.156253,1.28418 -0.46875,1.67871 -0.312503,0.39257 -0.755862,0.58886 -1.330078,0.58886 -0.576173,0 -1.020509,-0.19629 -1.333008,-0.58886 -0.3125,-0.39453 -0.46875,-0.9541 -0.46875,-1.67871 0,-0.72656 0.15625,-1.28613 0.46875,-1.67872 0.312499,-0.39452 0.756835,-0.59179 1.333008,-0.59179 0.574216,0 1.017575,0.19727 1.330078,0.59179 0.312497,0.39259 0.468746,0.95216 0.46875,1.67872"
         id="path3397"
         style="fill:#1a1a1a" />
      <path
         inkscape:connector-curvature="0"
         d="m 44.966797,972.00378 c 0.294919,0.0762 0.518551,0.20899 0.670898,0.39844 0.154294,0.1875 0.231442,0.42676 0.231446,0.71778 -4e-6,0.43359 -0.16602,0.76367 -0.498047,0.99023 -0.332034,0.22461 -0.816409,0.33691 -1.453125,0.33691 -0.224611,0 -0.450197,-0.0186 -0.676758,-0.0557 -0.22461,-0.0352 -0.447266,-0.0889 -0.667969,-0.16113 l 0,-0.87012 c 0.210937,0.10547 0.419921,0.18555 0.626953,0.24023 0.208983,0.0527 0.414061,0.0791 0.615235,0.0791 0.298826,0 0.527341,-0.0518 0.685547,-0.15528 0.160153,-0.10351 0.240231,-0.25195 0.240234,-0.44531 -3e-6,-0.19922 -0.08203,-0.34961 -0.246094,-0.45117 -0.162111,-0.10352 -0.402345,-0.15527 -0.720703,-0.15528 l -0.451172,0 0,-0.72656 0.47461,0 c 0.283201,0 0.494138,-0.0439 0.632812,-0.13183 0.13867,-0.0899 0.208005,-0.22559 0.208008,-0.40723 -3e-6,-0.16797 -0.06739,-0.29785 -0.202149,-0.38965 -0.134767,-0.0918 -0.325197,-0.13769 -0.571289,-0.13769 -0.181642,0 -0.365235,0.0205 -0.550781,0.0615 -0.185548,0.041 -0.370118,0.10156 -0.553711,0.18164 l 0,-0.82617 c 0.222656,-0.0625 0.443359,-0.10937 0.66211,-0.14063 0.218748,-0.0312 0.433592,-0.0469 0.644531,-0.0469 0.568357,0 0.993161,0.0937 1.274414,0.28125 0.2832,0.18555 0.424801,0.46582 0.424805,0.84082 -4e-6,0.25586 -0.06739,0.46582 -0.202149,0.62988 -0.134769,0.16211 -0.333987,0.27637 -0.597656,0.34277"
         id="path3399"
         style="fill:#1a1a1a" />
      <path
         inkscape:connector-curvature="0"
         d="m 48.754883,972.20886 1.839844,0 0,0.85254 -1.839844,0 0,-0.85254"
         id="path3401"
         style="fill:#1a1a1a" />
      <path
         inkscape:connector-curvature="0"
         d="m 55.165039,971.92761 c 0.236326,0 0.405271,-0.0439 0.506836,-0.13183 0.103513,-0.0879 0.155271,-0.23242 0.155273,-0.4336 -2e-6,-0.19921 -0.05176,-0.34179 -0.155273,-0.42773 -0.101565,-0.0859 -0.27051,-0.1289 -0.506836,-0.12891 l -0.474609,0 0,1.12207 0.474609,0 m -0.474609,0.7793 0,1.65527 -1.12793,0 0,-4.37402 1.722656,0 c 0.576169,0 0.998044,0.0967 1.265625,0.29004 0.269528,0.19336 0.404293,0.49903 0.404297,0.91699 -4e-6,0.28907 -0.07032,0.52637 -0.210937,0.71191 -0.138676,0.18555 -0.348637,0.32227 -0.629883,0.41016 0.154293,0.0352 0.291989,0.11524 0.413086,0.24024 0.123043,0.12304 0.247066,0.31054 0.37207,0.5625 l 0.612305,1.24218 -1.201172,0 -0.533203,-1.08691 c -0.107425,-0.21875 -0.2168,-0.36816 -0.328125,-0.44824 -0.109378,-0.0801 -0.255862,-0.12012 -0.439453,-0.12012 l -0.319336,0"
         id="path3403"
         style="fill:#1a1a1a" />
      <path
         inkscape:connector-curvature="0"
         d="m 58.097656,973.08484 0,-2.00391 1.054688,0 0,0.32813 c -2e-6,0.17773 -9.78e-4,0.40137 -0.0029,0.6709 -0.002,0.26758 -0.0029,0.44629 -0.0029,0.53613 -10e-7,0.26367 0.0068,0.4541 0.02051,0.57129 0.01367,0.11523 0.03711,0.19922 0.07031,0.25195 0.04297,0.0684 0.09863,0.1211 0.166992,0.1582 0.07031,0.0371 0.150389,0.0557 0.240234,0.0557 0.218748,0 0.390623,-0.084 0.515625,-0.25195 0.124998,-0.16797 0.187498,-0.40137 0.1875,-0.7002 l 0,-1.62012 1.048828,0 0,3.28125 -1.048828,0 0,-0.47461 c -0.158205,0.19141 -0.326174,0.33301 -0.503906,0.42481 -0.175783,0.0898 -0.370119,0.13476 -0.583008,0.13476 -0.378907,0 -0.66797,-0.11621 -0.867187,-0.34863 -0.197267,-0.23242 -0.295899,-0.57031 -0.295899,-1.01367"
         id="path3405"
         style="fill:#1a1a1a" />
      <path
         inkscape:connector-curvature="0"
         d="m 64.15625,973.68542 c 0.224607,10e-6 0.395505,-0.082 0.512695,-0.24609 0.119138,-0.16406 0.178708,-0.40234 0.178711,-0.71484 -3e-6,-0.3125 -0.05957,-0.55078 -0.178711,-0.71485 -0.11719,-0.16406 -0.288088,-0.24609 -0.512695,-0.24609 -0.224611,0 -0.397463,0.083 -0.518555,0.24902 -0.119142,0.16407 -0.178712,0.40137 -0.178711,0.71192 -10e-7,0.31055 0.05957,0.54883 0.178711,0.71484 0.121092,0.16406 0.293944,0.2461 0.518555,0.24609 m -0.697266,-2.12402 c 0.14453,-0.1914 0.304686,-0.33203 0.480469,-0.42187 0.175779,-0.0918 0.377927,-0.1377 0.606445,-0.1377 0.404294,0 0.736325,0.16114 0.996094,0.4834 0.259762,0.32031 0.389645,0.7334 0.389649,1.23926 -4e-6,0.50586 -0.129887,0.91992 -0.389649,1.24218 -0.259769,0.32032 -0.5918,0.48047 -0.996094,0.48047 -0.228518,0 -0.430666,-0.0449 -0.606445,-0.13476 -0.175783,-0.0918 -0.335939,-0.2334 -0.480469,-0.42481 l 0,0.47461 -1.048828,0 0,-4.55859 1.048828,0 0,1.75781"
         id="path3407"
         style="fill:#1a1a1a" />
      <path
         inkscape:connector-curvature="0"
         d="m 66.280273,971.08093 1.048829,0 0.881835,2.22657 0.75,-2.22657 1.048829,0 -1.379883,3.5918 c -0.138674,0.36523 -0.300784,0.62012 -0.486328,0.76465 -0.183596,0.14648 -0.42676,0.21972 -0.729493,0.21972 l -0.606445,0 0,-0.68847 0.328125,0 c 0.177733,0 0.30664,-0.0283 0.386719,-0.085 0.08203,-0.0566 0.145506,-0.15821 0.19043,-0.30469 l 0.0293,-0.0908 -1.461914,-3.40723"
         id="path3409"
         style="fill:#1a1a1a" />
      <path
         inkscape:connector-curvature="0"
         d="m 72.236328,969.98816 4.03125,0 0,0.85254 -1.450195,0 0,3.52148 -1.12793,0 0,-3.52148 -1.453125,0 0,-0.85254"
         id="path3411"
         style="fill:#1a1a1a" />
      <path
         inkscape:connector-curvature="0"
         d="m 76.109375,973.08484 0,-2.00391 1.054687,0 0,0.32813 c -10e-7,0.17773 -9.78e-4,0.40137 -0.0029,0.6709 -0.002,0.26758 -0.0029,0.44629 -0.0029,0.53613 -10e-7,0.26367 0.0068,0.4541 0.02051,0.57129 0.01367,0.11523 0.03711,0.19922 0.07031,0.25195 0.04297,0.0684 0.09863,0.1211 0.166993,0.1582 0.07031,0.0371 0.150388,0.0557 0.240234,0.0557 0.218748,0 0.390623,-0.084 0.515625,-0.25195 0.124997,-0.16797 0.187497,-0.40137 0.1875,-0.7002 l 0,-1.62012 1.048828,0 0,3.28125 -1.048828,0 0,-0.47461 c -0.158206,0.19141 -0.326174,0.33301 -0.503906,0.42481 -0.175784,0.0898 -0.370119,0.13476 -0.583008,0.13476 -0.378908,0 -0.66797,-0.11621 -0.867188,-0.34863 -0.197266,-0.23242 -0.295898,-0.57031 -0.295898,-1.01367"
         id="path3413"
         style="fill:#1a1a1a" />
      <path
         inkscape:connector-curvature="0"
         d="m 83.697266,972.71277 0,0.29883 -2.452149,0 c 0.02539,0.24609 0.114257,0.43066 0.266602,0.55371 0.152342,0.12305 0.365232,0.18457 0.638672,0.18457 0.2207,0 0.446286,-0.0322 0.676757,-0.0967 0.232419,-0.0664 0.4707,-0.16602 0.714844,-0.29883 l 0,0.80859 c -0.24805,0.0937 -0.496097,0.16407 -0.74414,0.21094 -0.24805,0.0488 -0.496097,0.0732 -0.744141,0.0732 -0.593752,0 -1.055665,-0.15039 -1.385742,-0.45117 -0.328126,-0.30273 -0.492188,-0.72656 -0.492188,-1.27148 0,-0.53516 0.161133,-0.95605 0.483399,-1.2627 0.324217,-0.30664 0.769529,-0.45996 1.335937,-0.45996 0.515623,0 0.927732,0.15528 1.236328,0.46582 0.310544,0.31055 0.465817,0.72559 0.465821,1.24512 m -1.078125,-0.34863 c -3e-6,-0.19922 -0.0586,-0.35938 -0.175782,-0.48047 -0.115236,-0.12305 -0.266603,-0.18457 -0.454101,-0.18457 -0.203127,0 -0.368166,0.0576 -0.495117,0.17285 -0.126955,0.11328 -0.206056,0.27734 -0.237305,0.49219 l 1.362305,0"
         id="path3415"
         style="fill:#1a1a1a" />
      <path
         inkscape:connector-curvature="0"
         d="m 87.051758,971.18347 0,0.79688 c -0.224612,-0.0937 -0.441409,-0.16406 -0.650391,-0.21094 -0.208986,-0.0469 -0.406252,-0.0703 -0.591797,-0.0703 -0.19922,0 -0.347657,0.0254 -0.445312,0.0762 -0.09571,0.0488 -0.143556,0.125 -0.143555,0.22851 -10e-7,0.084 0.03613,0.14844 0.108399,0.19336 0.07422,0.0449 0.206053,0.0781 0.395507,0.0996 l 0.184571,0.0264 c 0.537107,0.0684 0.898434,0.18067 1.083984,0.33691 0.185544,0.15626 0.278317,0.40137 0.27832,0.73536 -3e-6,0.34961 -0.128909,0.6123 -0.386718,0.78808 -0.257816,0.17578 -0.642581,0.26367 -1.154297,0.26367 -0.216799,0 -0.441408,-0.0176 -0.673828,-0.0527 -0.23047,-0.0332 -0.467774,-0.084 -0.711914,-0.15234 l 0,-0.79688 c 0.208983,0.10156 0.42285,0.17774 0.641601,0.22852 0.220702,0.0508 0.444335,0.0762 0.670899,0.0762 0.205076,0 0.359373,-0.0283 0.46289,-0.085 0.103514,-0.0566 0.155271,-0.14063 0.155274,-0.25196 -3e-6,-0.0937 -0.03614,-0.16308 -0.108399,-0.208 -0.07031,-0.0469 -0.211916,-0.083 -0.424805,-0.1084 l -0.18457,-0.0234 c -0.466798,-0.0586 -0.793946,-0.16699 -0.981445,-0.3252 -0.187501,-0.1582 -0.28125,-0.39843 -0.28125,-0.7207 0,-0.34765 0.11914,-0.60546 0.357422,-0.77344 0.23828,-0.16796 0.603514,-0.25195 1.095703,-0.25195 0.193357,0 0.396482,0.0146 0.609375,0.0439 0.212888,0.0293 0.444333,0.0752 0.694336,0.13769"
         id="path3417"
         style="fill:#1a1a1a" />
      <path
         inkscape:connector-curvature="0"
         d="m 90.294922,971.5614 0,-1.75781 1.054687,0 0,4.55859 -1.054687,0 0,-0.47461 c -0.144534,0.19336 -0.303713,0.33496 -0.477539,0.42481 -0.17383,0.0898 -0.375002,0.13476 -0.603516,0.13476 -0.404298,0 -0.736329,-0.16015 -0.996094,-0.48047 -0.259766,-0.32226 -0.389648,-0.73632 -0.389648,-1.24218 0,-0.50586 0.129882,-0.91895 0.389648,-1.23926 0.259765,-0.32226 0.591796,-0.4834 0.996094,-0.4834 0.226561,0 0.426756,0.0459 0.600586,0.1377 0.175779,0.0898 0.335935,0.23047 0.480469,0.42187 m -0.691406,2.12402 c 0.224607,10e-6 0.395505,-0.082 0.512695,-0.24609 0.119138,-0.16406 0.178708,-0.40234 0.178711,-0.71484 -3e-6,-0.3125 -0.05957,-0.55078 -0.178711,-0.71485 -0.11719,-0.16406 -0.288088,-0.24609 -0.512695,-0.24609 -0.222658,0 -0.393557,0.082 -0.512696,0.24609 -0.117189,0.16407 -0.175782,0.40235 -0.175781,0.71485 -10e-7,0.3125 0.05859,0.55078 0.175781,0.71484 0.119139,0.16406 0.290038,0.2461 0.512696,0.24609"
         id="path3419"
         style="fill:#1a1a1a" />
      <path
         inkscape:connector-curvature="0"
         d="m 93.833984,972.88562 c -0.218751,0 -0.38379,0.0371 -0.495117,0.11133 -0.109376,0.0742 -0.164064,0.18359 -0.164062,0.32812 -2e-6,0.13282 0.04394,0.23731 0.131836,0.31348 0.08984,0.0742 0.213865,0.11133 0.37207,0.11133 0.197264,0 0.363279,-0.0703 0.498047,-0.21094 0.134763,-0.14258 0.202146,-0.32031 0.202148,-0.5332 l 0,-0.12012 -0.544922,0 m 1.602539,-0.39551 0,1.87207 -1.057617,0 0,-0.48633 c -0.140627,0.19922 -0.29883,0.34473 -0.474609,0.43653 -0.175783,0.0898 -0.38965,0.13476 -0.641602,0.13476 -0.339845,0 -0.616211,-0.0986 -0.829101,-0.29589 -0.210938,-0.19922 -0.316407,-0.45704 -0.316407,-0.77344 0,-0.38477 0.131836,-0.66699 0.395508,-0.84668 0.265624,-0.17969 0.68164,-0.26953 1.248047,-0.26953 l 0.618164,0 0,-0.082 c -2e-6,-0.16602 -0.06543,-0.28711 -0.196289,-0.36329 -0.130861,-0.0781 -0.334963,-0.11718 -0.612305,-0.11718 -0.22461,0 -0.433595,0.0225 -0.626953,0.0674 -0.19336,0.0449 -0.373047,0.11231 -0.539062,0.20215 l 0,-0.79981 c 0.224608,-0.0547 0.450194,-0.0957 0.676758,-0.12304 0.226561,-0.0293 0.453123,-0.0439 0.679687,-0.0439 0.591795,0 1.018552,0.11719 1.280274,0.35156 0.263668,0.23243 0.395504,0.61133 0.395507,1.13672"
         id="path3421"
         style="fill:#1a1a1a" />
      <path
         inkscape:connector-curvature="0"
         d="m 95.799805,971.08093 1.048828,0 0.881836,2.22657 0.75,-2.22657 1.048828,0 -1.379883,3.5918 c -0.138674,0.36523 -0.300783,0.62012 -0.486328,0.76465 -0.183596,0.14648 -0.426759,0.21972 -0.729492,0.21972 l -0.606446,0 0,-0.68847 0.328125,0 c 0.177734,0 0.30664,-0.0283 0.386719,-0.085 0.08203,-0.0566 0.145507,-0.15821 0.19043,-0.30469 l 0.0293,-0.0908 -1.461914,-3.40723"
         id="path3423"
         style="fill:#1a1a1a" />
    </g>
    <g
       transform="matrix(0.72358155,0,0,0.72358155,19.305923,-748.64016)"
       style="font-size:6px;font-style:normal;font-weight:bold;line-height:125%;letter-spacing:0px;word-spacing:0px;opacity:1;fill:#1a1a1a;fill-opacity:1;stroke:none;font-family:Sans;-inkscape-font-specification:Sans Bold"
       id="text4139">
      <path
         inkscape:connector-curvature="0"
         d="m 40.759766,982.17078 c -3e-6,-0.54688 -0.05176,-0.93164 -0.155274,-1.1543 -0.101565,-0.22461 -0.27344,-0.33691 -0.515625,-0.33691 -0.242189,0 -0.415041,0.1123 -0.518555,0.33691 -0.103517,0.22266 -0.155274,0.60742 -0.155273,1.1543 -10e-7,0.55273 0.05176,0.94238 0.155273,1.16894 0.103514,0.22656 0.276366,0.33985 0.518555,0.33985 0.240232,0 0.412107,-0.11329 0.515625,-0.33985 0.103513,-0.22656 0.155271,-0.61621 0.155274,-1.16894 m 1.127929,0.009 c -4e-6,0.72461 -0.156253,1.28418 -0.46875,1.67871 -0.312503,0.39257 -0.755862,0.58886 -1.330078,0.58886 -0.576173,0 -1.020509,-0.19629 -1.333008,-0.58886 -0.3125,-0.39453 -0.46875,-0.9541 -0.46875,-1.67871 0,-0.72656 0.15625,-1.28613 0.46875,-1.67872 0.312499,-0.39452 0.756835,-0.59179 1.333008,-0.59179 0.574216,0 1.017575,0.19727 1.330078,0.59179 0.312497,0.39259 0.468746,0.95216 0.46875,1.67872"
         id="path3372"
         style="fill:#1a1a1a" />
      <path
         inkscape:connector-curvature="0"
         d="m 44.380859,980.91687 -1.236328,1.83105 1.236328,0 0,-1.83105 m -0.1875,-0.92871 1.253907,0 0,2.75976 0.624023,0 0,0.81739 -0.624023,0 0,0.79687 -1.066407,0 0,-0.79687 -1.939453,0 0,-0.9668 1.751953,-2.61035"
         id="path3374"
         style="fill:#1a1a1a" />
      <path
         inkscape:connector-curvature="0"
         d="m 48.754883,982.20886 1.839844,0 0,0.85254 -1.839844,0 0,-0.85254"
         id="path3376"
         style="fill:#1a1a1a" />
      <path
         inkscape:connector-curvature="0"
         d="m 53.041016,979.98816 4.03125,0 0,0.85254 -1.450196,0 0,3.52148 -1.127929,0 0,-3.52148 -1.453125,0 0,-0.85254"
         id="path3378"
         style="fill:#1a1a1a" />
      <path
         inkscape:connector-curvature="0"
         d="m 60.904297,982.36414 0,1.99804 -1.054688,0 0,-0.32519 0,-1.19824 c -2e-6,-0.28711 -0.0068,-0.48438 -0.02051,-0.5918 -0.01172,-0.10742 -0.03321,-0.18652 -0.06445,-0.23731 -0.04102,-0.0684 -0.09668,-0.12109 -0.166992,-0.1582 -0.07032,-0.0391 -0.150393,-0.0586 -0.240234,-0.0586 -0.218752,0 -0.390627,0.085 -0.515625,0.25488 -0.125002,0.16797 -0.187502,0.40137 -0.1875,0.70019 l 0,1.61426 -1.048828,0 0,-4.55859 1.048828,0 0,1.75781 c 0.158201,-0.1914 0.32617,-0.33203 0.503906,-0.42187 0.177732,-0.0918 0.374021,-0.1377 0.588867,-0.1377 0.378904,0 0.666013,0.11622 0.861328,0.34863 0.197262,0.23243 0.295895,0.57032 0.295899,1.01368"
         id="path3380"
         style="fill:#1a1a1a" />
      <path
         inkscape:connector-curvature="0"
         d="m 65.158203,982.71277 0,0.29883 -2.452148,0 c 0.02539,0.24609 0.114256,0.43066 0.266601,0.55371 0.152342,0.12305 0.365233,0.18457 0.638672,0.18457 0.220701,0 0.446287,-0.0322 0.676758,-0.0967 0.232419,-0.0664 0.4707,-0.16602 0.714844,-0.29883 l 0,0.80859 c -0.248051,0.0937 -0.496097,0.16407 -0.744141,0.21094 -0.248049,0.0488 -0.496096,0.0732 -0.744141,0.0732 -0.593751,0 -1.055665,-0.15039 -1.385742,-0.45117 -0.328125,-0.30273 -0.492188,-0.72656 -0.492187,-1.27148 -10e-7,-0.53516 0.161132,-0.95605 0.483398,-1.2627 0.324218,-0.30664 0.76953,-0.45996 1.335938,-0.45996 0.515622,0 0.927731,0.15528 1.236328,0.46582 0.310543,0.31055 0.465816,0.72559 0.46582,1.24512 m -1.078125,-0.34863 c -3e-6,-0.19922 -0.0586,-0.35938 -0.175781,-0.48047 -0.115237,-0.12305 -0.266604,-0.18457 -0.454102,-0.18457 -0.203127,0 -0.368165,0.0576 -0.495117,0.17285 -0.126954,0.11328 -0.206056,0.27734 -0.237305,0.49219 l 1.362305,0"
         id="path3382"
         style="fill:#1a1a1a" />
      <path
         inkscape:connector-curvature="0"
         d="m 69.68457,981.92761 c 0.236326,0 0.405271,-0.0439 0.506836,-0.13183 0.103513,-0.0879 0.155271,-0.23242 0.155274,-0.4336 -3e-6,-0.19921 -0.05176,-0.34179 -0.155274,-0.42773 -0.101565,-0.0859 -0.27051,-0.1289 -0.506836,-0.12891 l -0.474609,0 0,1.12207 0.474609,0 m -0.474609,0.7793 0,1.65527 -1.12793,0 0,-4.37402 1.722656,0 c 0.57617,0 0.998044,0.0967 1.265625,0.29004 0.269528,0.19336 0.404293,0.49903 0.404297,0.91699 -4e-6,0.28907 -0.07032,0.52637 -0.210937,0.71191 -0.138676,0.18555 -0.348636,0.32227 -0.629883,0.41016 0.154294,0.0352 0.291989,0.11524 0.413086,0.24024 0.123043,0.12304 0.247067,0.31054 0.37207,0.5625 l 0.612305,1.24218 -1.201172,0 -0.533203,-1.08691 c -0.107425,-0.21875 -0.216799,-0.36816 -0.328125,-0.44824 -0.109377,-0.0801 -0.255862,-0.12012 -0.439453,-0.12012 l -0.319336,0"
         id="path3384"
         style="fill:#1a1a1a" />
      <path
         inkscape:connector-curvature="0"
         d="m 75.927734,982.71277 0,0.29883 -2.452148,0 c 0.02539,0.24609 0.114256,0.43066 0.266601,0.55371 0.152343,0.12305 0.365233,0.18457 0.638672,0.18457 0.220701,0 0.446287,-0.0322 0.676758,-0.0967 0.232419,-0.0664 0.4707,-0.16602 0.714844,-0.29883 l 0,0.80859 c -0.24805,0.0937 -0.496097,0.16407 -0.744141,0.21094 -0.248049,0.0488 -0.496096,0.0732 -0.74414,0.0732 -0.593752,0 -1.055665,-0.15039 -1.385743,-0.45117 -0.328125,-0.30273 -0.492187,-0.72656 -0.492187,-1.27148 0,-0.53516 0.161132,-0.95605 0.483398,-1.2627 0.324218,-0.30664 0.76953,-0.45996 1.335938,-0.45996 0.515622,0 0.927731,0.15528 1.236328,0.46582 0.310543,0.31055 0.465817,0.72559 0.46582,1.24512 m -1.078125,-0.34863 c -2e-6,-0.19922 -0.0586,-0.35938 -0.175781,-0.48047 -0.115237,-0.12305 -0.266604,-0.18457 -0.454101,-0.18457 -0.203127,0 -0.368166,0.0576 -0.495118,0.17285 -0.126954,0.11328 -0.206056,0.27734 -0.237304,0.49219 l 1.362304,0"
         id="path3386"
         style="fill:#1a1a1a" />
      <path
         inkscape:connector-curvature="0"
         d="m 78.189453,982.88562 c -0.218752,0 -0.383791,0.0371 -0.495117,0.11133 -0.109376,0.0742 -0.164064,0.18359 -0.164063,0.32812 -10e-7,0.13282 0.04394,0.23731 0.131836,0.31348 0.08984,0.0742 0.213866,0.11133 0.372071,0.11133 0.197263,0 0.363279,-0.0703 0.498047,-0.21094 0.134763,-0.14258 0.202145,-0.32031 0.202148,-0.5332 l 0,-0.12012 -0.544922,0 m 1.602539,-0.39551 0,1.87207 -1.057617,0 0,-0.48633 c -0.140627,0.19922 -0.29883,0.34473 -0.474609,0.43653 -0.175783,0.0898 -0.38965,0.13476 -0.641602,0.13476 -0.339845,0 -0.616212,-0.0986 -0.829102,-0.29589 -0.210937,-0.19922 -0.316406,-0.45704 -0.316406,-0.77344 0,-0.38477 0.131836,-0.66699 0.395508,-0.84668 0.265624,-0.17969 0.681639,-0.26953 1.248047,-0.26953 l 0.618164,0 0,-0.082 c -3e-6,-0.16602 -0.06543,-0.28711 -0.196289,-0.36329 -0.130862,-0.0781 -0.334963,-0.11718 -0.612305,-0.11718 -0.224611,0 -0.433595,0.0225 -0.626953,0.0674 -0.19336,0.0449 -0.373047,0.11231 -0.539062,0.20215 l 0,-0.79981 c 0.224608,-0.0547 0.450194,-0.0957 0.676757,-0.12304 0.226561,-0.0293 0.453124,-0.0439 0.679688,-0.0439 0.591794,0 1.018552,0.11719 1.280273,0.35156 0.263669,0.23243 0.395505,0.61133 0.395508,1.13672"
         id="path3388"
         style="fill:#1a1a1a" />
      <path
         inkscape:connector-curvature="0"
         d="m 81.822266,983.88757 0,1.72266 -1.048829,0 0,-4.5293 1.048829,0 0,0.48047 c 0.144529,-0.1914 0.304685,-0.33203 0.480468,-0.42187 0.175779,-0.0918 0.377928,-0.1377 0.606446,-0.1377 0.404294,0 0.736324,0.16114 0.996093,0.4834 0.259762,0.32031 0.389645,0.7334 0.389649,1.23926 -4e-6,0.50586 -0.129887,0.91992 -0.389649,1.24218 -0.259769,0.32032 -0.591799,0.48047 -0.996093,0.48047 -0.228518,0 -0.430667,-0.0449 -0.606446,-0.13476 -0.175783,-0.0918 -0.335939,-0.2334 -0.480468,-0.42481 m 0.697265,-2.12402 c -0.224611,0 -0.397463,0.083 -0.518554,0.24902 -0.119143,0.16407 -0.178713,0.40137 -0.178711,0.71192 -2e-6,0.31055 0.05957,0.54883 0.178711,0.71484 0.121091,0.16406 0.293943,0.2461 0.518554,0.24609 0.224607,10e-6 0.395505,-0.082 0.512696,-0.24609 0.119137,-0.16406 0.178708,-0.40234 0.17871,-0.71484 -2e-6,-0.3125 -0.05957,-0.55078 -0.17871,-0.71485 -0.117191,-0.16406 -0.288089,-0.24609 -0.512696,-0.24609"
         id="path3390"
         style="fill:#1a1a1a" />
      <path
         inkscape:connector-curvature="0"
         d="m 88.349609,982.71277 0,0.29883 -2.452148,0 c 0.02539,0.24609 0.114256,0.43066 0.266601,0.55371 0.152343,0.12305 0.365233,0.18457 0.638672,0.18457 0.220701,0 0.446287,-0.0322 0.676758,-0.0967 0.232419,-0.0664 0.4707,-0.16602 0.714844,-0.29883 l 0,0.80859 c -0.24805,0.0937 -0.496097,0.16407 -0.744141,0.21094 -0.248049,0.0488 -0.496096,0.0732 -0.74414,0.0732 -0.593752,0 -1.055665,-0.15039 -1.385743,-0.45117 -0.328125,-0.30273 -0.492187,-0.72656 -0.492187,-1.27148 0,-0.53516 0.161132,-0.95605 0.483398,-1.2627 0.324218,-0.30664 0.76953,-0.45996 1.335938,-0.45996 0.515622,0 0.927731,0.15528 1.236328,0.46582 0.310543,0.31055 0.465817,0.72559 0.46582,1.24512 m -1.078125,-0.34863 c -2e-6,-0.19922 -0.0586,-0.35938 -0.175781,-0.48047 -0.115237,-0.12305 -0.266604,-0.18457 -0.454101,-0.18457 -0.203127,0 -0.368166,0.0576 -0.495118,0.17285 -0.126954,0.11328 -0.206056,0.27734 -0.237304,0.49219 l 1.362304,0"
         id="path3392"
         style="fill:#1a1a1a" />
      <path
         inkscape:connector-curvature="0"
         d="m 91.578125,981.97449 c -0.0918,-0.043 -0.183597,-0.0742 -0.275391,-0.0937 -0.08985,-0.0215 -0.180666,-0.0322 -0.272461,-0.0322 -0.269533,0 -0.477541,0.0869 -0.624023,0.26074 -0.144533,0.17188 -0.216798,0.41895 -0.216797,0.74121 l 0,1.51172 -1.048828,0 0,-3.28125 1.048828,0 0,0.53907 c 0.134764,-0.21485 0.289061,-0.3711 0.462891,-0.46875 0.175779,-0.0996 0.38574,-0.14942 0.629883,-0.14942 0.03515,0 0.07324,0.002 0.114257,0.006 0.04101,0.002 0.100583,0.008 0.178711,0.0176 l 0.0029,0.94922"
         id="path3394"
         style="fill:#1a1a1a" />
    </g>
    <g
       transform="matrix(0.72358155,0,0,0.72358155,19.305923,-748.64016)"
       style="font-size:6px;font-style:normal;font-weight:bold;line-height:125%;letter-spacing:0px;word-spacing:0px;opacity:1;fill:#1a1a1a;fill-opacity:1;stroke:none;font-family:Sans;-inkscape-font-specification:Sans Bold"
       id="text4143">
      <path
         inkscape:connector-curvature="0"
         d="m 40.759766,992.17078 c -3e-6,-0.54688 -0.05176,-0.93164 -0.155274,-1.1543 -0.101565,-0.22461 -0.27344,-0.33691 -0.515625,-0.33691 -0.242189,0 -0.415041,0.1123 -0.518555,0.33691 -0.103517,0.22266 -0.155274,0.60742 -0.155273,1.1543 -10e-7,0.55273 0.05176,0.94238 0.155273,1.16894 0.103514,0.22656 0.276366,0.33985 0.518555,0.33985 0.240232,0 0.412107,-0.11329 0.515625,-0.33985 0.103513,-0.22656 0.155271,-0.61621 0.155274,-1.16894 m 1.127929,0.009 c -4e-6,0.72461 -0.156253,1.28418 -0.46875,1.67871 -0.312503,0.39257 -0.755862,0.58886 -1.330078,0.58886 -0.576173,0 -1.020509,-0.19629 -1.333008,-0.58886 -0.3125,-0.39453 -0.46875,-0.9541 -0.46875,-1.67871 0,-0.72656 0.15625,-1.28613 0.46875,-1.67872 0.312499,-0.39452 0.756835,-0.59179 1.333008,-0.59179 0.574216,0 1.017575,0.19727 1.330078,0.59179 0.312497,0.39259 0.468746,0.95216 0.46875,1.67872"
         id="path3359"
         style="fill:#1a1a1a" />
      <path
         inkscape:connector-curvature="0"
         d="m 42.807617,989.98816 2.803711,0 0,0.8291 -1.904297,0 0,0.67676 c 0.08594,-0.0234 0.171874,-0.041 0.257813,-0.0527 0.08789,-0.0137 0.178709,-0.0205 0.272461,-0.0205 0.5332,0 0.948239,0.13379 1.245117,0.40136 0.296871,0.26563 0.445309,0.63672 0.445312,1.11328 -3e-6,0.47266 -0.162113,0.84278 -0.486328,1.11036 -0.322268,0.26757 -0.77051,0.40136 -1.344726,0.40136 -0.248049,0 -0.494142,-0.0244 -0.738282,-0.0732 -0.242188,-0.0469 -0.483399,-0.11914 -0.723632,-0.2168 l 0,-0.88769 c 0.23828,0.13672 0.463866,0.23926 0.676757,0.30762 0.214843,0.0684 0.416991,0.10254 0.606446,0.10254 0.273435,0 0.488279,-0.0664 0.644531,-0.19922 0.158201,-0.13477 0.237302,-0.31641 0.237305,-0.54493 -3e-6,-0.23046 -0.0791,-0.4121 -0.237305,-0.54492 -0.156252,-0.13281 -0.371096,-0.19921 -0.644531,-0.19922 -0.162111,10e-6 -0.334963,0.0215 -0.518555,0.0645 -0.183595,0.041 -0.38086,0.10547 -0.591797,0.19336 l 0,-2.46094"
         id="path3361"
         style="fill:#1a1a1a" />
      <path
         inkscape:connector-curvature="0"
         d="m 48.754883,992.20886 1.839844,0 0,0.85254 -1.839844,0 0,-0.85254"
         id="path3363"
         style="fill:#1a1a1a" />
      <path
         inkscape:connector-curvature="0"
         d="m 56.216797,993.56531 -1.763672,0 -0.27832,0.79687 -1.133789,0 1.620117,-4.37402 1.344726,0 1.620118,4.37402 -1.13379,0 -0.27539,-0.79687 m -1.482422,-0.81153 1.198242,0 -0.597656,-1.74023 -0.600586,1.74023"
         id="path3365"
         style="fill:#1a1a1a" />
      <path
         inkscape:connector-curvature="0"
         d="m 59.955078,991.68152 c 0.177732,0 0.312498,-0.0391 0.404297,-0.11719 0.09179,-0.0781 0.137692,-0.19336 0.137695,-0.3457 -3e-6,-0.15039 -0.0459,-0.26465 -0.137695,-0.34278 -0.0918,-0.0801 -0.226565,-0.12011 -0.404297,-0.12011 l -0.624023,0 0,0.92578 0.624023,0 m 0.03809,1.91308 c 0.22656,10e-6 0.396482,-0.0479 0.509766,-0.14355 0.115231,-0.0957 0.172848,-0.24023 0.172851,-0.43359 -3e-6,-0.18946 -0.05664,-0.33106 -0.169922,-0.42481 -0.113284,-0.0957 -0.284182,-0.14355 -0.512695,-0.14355 l -0.662109,0 0,1.1455 0.662109,0 m 1.048828,-1.57324 c 0.242184,0.0703 0.429684,0.2002 0.5625,0.38965 0.132809,0.18946 0.199215,0.42188 0.199219,0.69727 -4e-6,0.42187 -0.142582,0.73633 -0.427734,0.94336 -0.28516,0.20703 -0.718753,0.31054 -1.300782,0.31054 l -1.87207,0 0,-4.37402 1.693359,0 c 0.607419,0 1.046872,0.0918 1.31836,0.27539 0.273433,0.1836 0.410152,0.47754 0.410156,0.88184 -4e-6,0.21289 -0.04981,0.39453 -0.149414,0.54492 -0.09961,0.14844 -0.244144,0.25879 -0.433594,0.33105"
         id="path3367"
         style="fill:#1a1a1a" />
      <path
         inkscape:connector-curvature="0"
         d="m 66.242187,994.12195 c -0.207035,0.10742 -0.422855,0.18847 -0.64746,0.24316 -0.224613,0.0547 -0.458988,0.082 -0.703125,0.082 -0.728518,0 -1.305666,-0.20312 -1.731446,-0.60937 -0.425782,-0.4082 -0.638672,-0.96094 -0.638672,-1.6582 0,-0.69922 0.21289,-1.25195 0.638672,-1.65821 0.42578,-0.4082 1.002928,-0.6123 1.731446,-0.6123 0.244137,0 0.478512,0.0274 0.703125,0.082 0.224605,0.0547 0.440425,0.13575 0.64746,0.24316 l 0,0.90528 c -0.208988,-0.14258 -0.415042,-0.24707 -0.618164,-0.31348 -0.203128,-0.0664 -0.416995,-0.0996 -0.641601,-0.0996 -0.402346,0 -0.718752,0.12891 -0.949219,0.38672 -0.23047,0.25781 -0.345704,0.61328 -0.345703,1.06641 -10e-7,0.45117 0.115233,0.80566 0.345703,1.06347 0.230467,0.25782 0.546873,0.38672 0.949219,0.38672 0.224606,0 0.438473,-0.0332 0.641601,-0.0996 0.203122,-0.0664 0.409176,-0.1709 0.618164,-0.31348 l 0,0.90528"
         id="path3369"
         style="fill:#1a1a1a" />
    </g>
    <path
       style="fill:url(#linearGradient5473);fill-opacity:1;stroke:none"
       d="m 31.900764,-72.552908 c -1.367721,0 -2.4647,1.096978 -2.4647,2.464699 l 0,39.916487 c 1.55404,0.121073 3.126606,0.231186 4.70328,0.293955 l 0,-34.42179 c 0,-1.950243 1.599829,-3.550071 3.550072,-3.550071 l 52.957126,0 c 1.95024,0 3.550071,1.599828 3.550071,3.550071 l 0,21.345656 c 1.643153,-1.191997 3.217575,-2.438671 4.703281,-3.730967 l 0,-23.403341 c 0,-1.367721 -1.096976,-2.464699 -2.464702,-2.464699 z m 5.788652,6.874024 c -0.785198,0 -1.379327,0.594129 -1.379327,1.379327 l 0,34.467014 c 0.601898,0.01136 1.20289,0.02261 1.808954,0.02261 20.905083,0 39.884689,-2.217995 53.906826,-11.62897 l 0,-22.860656 c 0,-0.785198 -0.594125,-1.379326 -1.379327,-1.379326 z"
       id="rect5445"
       inkscape:connector-curvature="0"
       sodipodi:nodetypes="ssccssssccssssscscsss" />
    <path
       style="fill:#ffffff;fill-opacity:1;stroke:url(#linearGradient4586);stroke-width:1.78312087;stroke-miterlimit:4;stroke-dasharray:none"
       d="m 64,-19.783121 c -13.787067,0 -24.963693,11.1766261 -24.963693,24.963693 0,13.787064 11.176626,24.963693 24.963693,24.963693 13.787067,0 24.963693,-11.176629 24.963693,-24.963693 0,-13.7870669 -11.176626,-24.963693 -24.963693,-24.963693 z m 0,10.6987256 c 7.878324,0 14.264967,6.3866434 14.264967,14.2649674 0,7.878327 -6.386643,14.264967 -14.264967,14.264967 -7.878324,0 -14.264967,-6.38664 -14.264967,-14.264967 0,-7.878324 6.386643,-14.2649674 14.264967,-14.2649674 z"
       id="path3806"
       inkscape:connector-curvature="0" />
    <path
       style="fill:#666666;stroke:none"
       d="m 80.048088,2.5058906 0,5.3493624 2.282394,-1.33734 0,1.33734 4.27949,-2.5075134 0,2.5075134 0.5706,0 0,-5.3493624 -0.5706,0 0,2.5075138 -4.27949,-2.5075138 0,1.3373407 -2.282394,-1.3373407 z"
       id="path5567"
       inkscape:connector-curvature="0"
       inkscape:transform-center-x="-19.61433" />
    <path
       inkscape:transform-center-x="19.61433"
       inkscape:connector-curvature="0"
       id="path4588"
       d="m 47.951912,2.5058906 0,5.3493624 -2.282394,-1.33734 0,1.33734 -4.27949,-2.5075134 0,2.5075134 -0.5706,0 0,-5.3493624 0.5706,0 0,2.5075138 4.27949,-2.5075138 0,1.3373407 2.282394,-1.3373407 z"
       style="fill:#666666;stroke:none" />
    <rect
       style="fill:#666666;fill-opacity:1;stroke:none"
       id="rect4590"
       width="1.7831209"
       height="5.3493629"
       x="63.10844"
       y="-17.10844"
       rx="0"
       ry="0" />
    <rect
       ry="0"
       rx="0"
       transform="matrix(0,1,-1,0,0,0)"
       y="-66.674683"
       x="-15.325318"
       height="5.3493629"
       width="1.7831209"
       id="rect4592"
       style="fill:#666666;fill-opacity:1;stroke:none" />
    <rect
       style="fill:#666666;fill-opacity:1;stroke:none"
       id="rect4594"
       width="1.7831209"
       height="5.3493629"
       x="23.903341"
       y="-66.674683"
       transform="matrix(0,1,-1,0,0,0)"
       rx="0"
       ry="0" />
    <g
       transform="matrix(0.89156046,0,0,0.89156046,10.506372,-915.01587)"
       style="font-size:6px;font-style:normal;font-weight:bold;line-height:125%;letter-spacing:0px;word-spacing:0px;opacity:0.75;fill:#ffffff;fill-opacity:1;stroke:none;font-family:Sans;-inkscape-font-specification:Sans Bold"
       id="text4147" />
  </g>
</svg>
