<?xml version="1.0" encoding="UTF-8" standalone="no"?>
<!-- Created with Inkscape (http://www.inkscape.org/) -->

<svg
   xmlns:dc="http://purl.org/dc/elements/1.1/"
   xmlns:cc="http://creativecommons.org/ns#"
   xmlns:rdf="http://www.w3.org/1999/02/22-rdf-syntax-ns#"
   xmlns:svg="http://www.w3.org/2000/svg"
   xmlns="http://www.w3.org/2000/svg"
   xmlns:sodipodi="http://sodipodi.sourceforge.net/DTD/sodipodi-0.dtd"
   xmlns:inkscape="http://www.inkscape.org/namespaces/inkscape"
   width="16"
   height="16"
   id="svg3829"
   version="1.1"
   inkscape:version="0.92+devel (unknown)"
   sodipodi:docname="phone-apple-iphone-symbolic.svg">
  <defs
     id="defs3831" />
  <sodipodi:namedview
     id="base"
     pagecolor="#ffffff"
     bordercolor="#666666"
     borderopacity="1.0"
     inkscape:pageopacity="0.0"
     inkscape:pageshadow="2"
     inkscape:zoom="14"
     inkscape:cx="8.38915"
     inkscape:cy="8.39072"
     inkscape:current-layer="layer1"
     showgrid="true"
     inkscape:grid-bbox="true"
     inkscape:document-units="px"
     inkscape:window-width="1280"
     inkscape:window-height="967"
     inkscape:window-x="0"
     inkscape:window-y="29"
     inkscape:window-maximized="1"
     inkscape:document-rotation="0">
    <inkscape:grid
       type="xygrid"
       id="grid3837"
       empspacing="4"
       visible="true"
       enabled="true"
       snapvisiblegridlinesonly="true"
       spacingx="0.5"
       spacingy="0.5"
       originx="0"
       originy="0" />
  </sodipodi:namedview>
  <metadata
     id="metadata3834">
    <rdf:RDF>
      <cc:Work
         rdf:about="">
        <dc:format>image/svg+xml</dc:format>
        <dc:type
           rdf:resource="http://purl.org/dc/dcmitype/StillImage" />
        <dc:title />
      </cc:Work>
    </rdf:RDF>
  </metadata>
  <g
     id="layer1"
     inkscape:label="Layer 1"
     inkscape:groupmode="layer"
     transform="translate(0,-32)">
    <path
       style="fill:#b3b3b3;fill-opacity:1;stroke:none"
       d="M 6 0 C 4.338 0 3 0.892 3 2 L 3 14 C 3 15.108 4.338 16 6 16 L 10 16 C 11.662 16 13 15.108 13 14 L 13 2 C 13 0.892 11.662 0 10 0 L 6 0 z M 5.5 0.5 C 5.7761424 0.5 6 0.72385763 6 1 C 6 1.2761424 5.7761424 1.5 5.5 1.5 C 5.2238576 1.5 5 1.2761424 5 1 C 5 0.72385763 5.2238576 0.5 5.5 0.5 z M 4 2 L 12 2 L 12 14 L 4 14 L 4 2 z M 4.5 14.5 L 6.5 14.5 L 6.5 15 L 4.5 15 L 4.5 14.5 z M 7 14.5 L 9 14.5 L 9 15 L 7 15 L 7 14.5 z M 9.5 14.5 L 11.5 14.5 L 11.5 15 L 9.5 15 L 9.5 14.5 z "
       transform="translate(0,32)"
       id="rect3136" />
  </g>
</svg>
