<?xml version="1.0" encoding="UTF-8" standalone="no"?>
<!-- Created with Inkscape (http://www.inkscape.org/) -->

<svg
   xmlns:dc="http://purl.org/dc/elements/1.1/"
   xmlns:cc="http://creativecommons.org/ns#"
   xmlns:rdf="http://www.w3.org/1999/02/22-rdf-syntax-ns#"
   xmlns:svg="http://www.w3.org/2000/svg"
   xmlns="http://www.w3.org/2000/svg"
   xmlns:sodipodi="http://sodipodi.sourceforge.net/DTD/sodipodi-0.dtd"
   xmlns:inkscape="http://www.inkscape.org/namespaces/inkscape"
   width="16"
   height="16"
   id="svg3829"
   version="1.1"
   inkscape:version="0.92+devel (unknown)"
   sodipodi:docname="printer-symbolic.svg">
  <defs
     id="defs3831" />
  <sodipodi:namedview
     id="base"
     pagecolor="#ffffff"
     bordercolor="#666666"
     borderopacity="1.0"
     inkscape:pageopacity="0.0"
     inkscape:pageshadow="2"
     inkscape:zoom="7"
     inkscape:cx="1.96723"
     inkscape:cy="16.6931"
     inkscape:current-layer="layer1"
     showgrid="true"
     inkscape:grid-bbox="true"
     inkscape:document-units="px"
     inkscape:window-width="1280"
     inkscape:window-height="967"
     inkscape:window-x="0"
     inkscape:window-y="29"
     inkscape:window-maximized="1"
     inkscape:document-rotation="0">
    <inkscape:grid
       type="xygrid"
       id="grid3837"
       empspacing="4"
       visible="true"
       enabled="true"
       snapvisiblegridlinesonly="true"
       spacingx="0.5"
       spacingy="0.5"
       originx="0"
       originy="0" />
  </sodipodi:namedview>
  <metadata
     id="metadata3834">
    <rdf:RDF>
      <cc:Work
         rdf:about="">
        <dc:format>image/svg+xml</dc:format>
        <dc:type
           rdf:resource="http://purl.org/dc/dcmitype/StillImage" />
        <dc:title />
      </cc:Work>
    </rdf:RDF>
  </metadata>
  <g
     id="layer1"
     inkscape:label="Layer 1"
     inkscape:groupmode="layer"
     transform="translate(0,-32)">
    <path
       style="color:#000000;fill:#b3b3b3;fill-opacity:1;fill-rule:nonzero;stroke:none;stroke-width:1.06666672;marker:none;visibility:visible;display:inline;overflow:visible;enable-background:accumulate"
       d="M 4.53125 0 L 4.53125 0.28125 L 4.53125 0.9375 C 4.1717771 1.048951 3.8773857 1.185114 3.71875 1.34375 L 3.71875 4.8125 L 2.65625 4.8125 L 1.0625 4.8125 C 0.47156641 4.8125 0 5.284067 0 5.875 L 0 10.125 L 0 12.8125 C 0 13.403433 0.47156641 13.875 1.0625 13.875 C 1.0625 14.022733 1.1960161 14.125 1.34375 14.125 L 2.40625 14.125 C 2.5539828 14.125 2.65625 14.022733 2.65625 13.875 L 3.1875 13.875 L 3.1875 14.40625 L 3.1875 14.9375 C 3.1875 15.232968 3.4232832 15.46875 3.71875 15.46875 L 4.53125 15.46875 L 4.53125 15.71875 L 4.53125 16 L 11.46875 16 L 11.46875 15.46875 L 12.28125 15.46875 C 12.576716 15.46875 12.8125 15.232968 12.8125 14.9375 L 12.8125 13.875 L 13.34375 13.875 C 13.34375 14.022733 13.446017 14.125 13.59375 14.125 L 14.65625 14.125 C 14.803983 14.125 14.9375 14.022733 14.9375 13.875 C 15.528435 13.875 16 13.403433 16 12.8125 L 16 8.53125 L 16 5.875 C 16 5.284067 15.528435 4.8125 14.9375 4.8125 L 12.8125 4.8125 L 12.28125 4.8125 L 12.28125 1.34375 C 12.122614 1.185114 11.828223 1.048951 11.46875 0.9375 L 11.46875 0.28125 L 11.46875 0 L 4.53125 0 z M 4.75 0.5 L 11.25 0.5 L 11.25 6.9375 L 4.75 6.9375 L 4.75 0.5 z M 12.75 7 C 13.164214 7 13.5 7.3357864 13.5 7.75 C 13.5 8.1642136 13.164214 8.5 12.75 8.5 C 12.335786 8.5 12 8.1642136 12 7.75 C 12 7.3357864 12.335786 7 12.75 7 z M 14.75 7 C 15.164214 7 15.5 7.3357864 15.5 7.75 C 15.5 8.1642136 15.164214 8.5 14.75 8.5 C 14.335786 8.5 14 8.1642136 14 7.75 C 14 7.3357864 14.335786 7 14.75 7 z M 4.75 12.25 L 11.25 12.25 L 11.25 15.21875 L 4.75 15.21875 L 4.75 12.25 z "
       transform="translate(0,32)"
       id="path3162" />
  </g>
</svg>
