<?xml version="1.0" encoding="UTF-8" standalone="no"?>
<!-- Created with Inkscape (http://www.inkscape.org/) -->

<svg
   xmlns:dc="http://purl.org/dc/elements/1.1/"
   xmlns:cc="http://creativecommons.org/ns#"
   xmlns:rdf="http://www.w3.org/1999/02/22-rdf-syntax-ns#"
   xmlns:svg="http://www.w3.org/2000/svg"
   xmlns="http://www.w3.org/2000/svg"
   xmlns:sodipodi="http://sodipodi.sourceforge.net/DTD/sodipodi-0.dtd"
   xmlns:inkscape="http://www.inkscape.org/namespaces/inkscape"
   width="16"
   height="16"
   id="svg3829"
   version="1.1"
   inkscape:version="0.91 r"
   sodipodi:docname="video-display-symbolic.svg">
  <defs
     id="defs3831" />
  <sodipodi:namedview
     id="base"
     pagecolor="#ffffff"
     bordercolor="#666666"
     borderopacity="1.0"
     inkscape:pageopacity="0.0"
     inkscape:pageshadow="2"
     inkscape:zoom="11.313709"
     inkscape:cx="-7.9474021"
     inkscape:cy="11.235411"
     inkscape:current-layer="layer1"
     showgrid="true"
     inkscape:grid-bbox="true"
     inkscape:document-units="px"
     inkscape:window-width="1280"
     inkscape:window-height="969"
     inkscape:window-x="0"
     inkscape:window-y="28"
     inkscape:window-maximized="1"
     showguides="true"
     inkscape:guide-bbox="true">
    <inkscape:grid
       type="xygrid"
       id="grid3837"
       empspacing="2"
       visible="true"
       enabled="true"
       snapvisiblegridlinesonly="true"
       spacingx="0.5px"
       spacingy="0.5px" />
  </sodipodi:namedview>
  <metadata
     id="metadata3834">
    <rdf:RDF>
      <cc:Work
         rdf:about="">
        <dc:format>image/svg+xml</dc:format>
        <dc:type
           rdf:resource="http://purl.org/dc/dcmitype/StillImage" />
        <dc:title />
      </cc:Work>
    </rdf:RDF>
  </metadata>
  <g
     id="layer1"
     inkscape:label="Layer 1"
     inkscape:groupmode="layer"
     transform="translate(0,-32)">
    <path
       style="fill:#b3b3b3;fill-opacity:1;stroke:none"
       d="M 2 0 C 0.892 0 0 0.892 0 2 L 0 12 C 0 13.108 0.892 14 2 14 L 5 14 L 5 15 L 2 15 L 2 16 L 14 16 L 14 15 L 11 15 L 11 14 L 14 14 C 15.108 14 16 13.108 16 12 L 16 2 C 16 0.892 15.108 0 14 0 L 2 0 z M 2 1 L 14 1 C 14.554 1 15 1.446 15 2 L 15 12 C 15 12.554 14.554 13 14 13 L 2 13 C 1.446 13 1 12.554 1 12 L 1 2 C 1 1.446 1.446 1 2 1 z M 3 2 C 2.446 2 2 2.446 2 3 L 2 11 C 2 11.554 2.446 12 3 12 L 13 12 C 13.554 12 14 11.554 14 11 L 14 3 C 14 2.446 13.554 2 13 2 L 3 2 z "
       transform="translate(0,32)"
       id="rect4794" />
  </g>
</svg>
