<?xml version="1.0" encoding="UTF-8" standalone="no"?>
<!-- Created with Inkscape (http://www.inkscape.org/) -->

<svg
   xmlns:dc="http://purl.org/dc/elements/1.1/"
   xmlns:cc="http://creativecommons.org/ns#"
   xmlns:rdf="http://www.w3.org/1999/02/22-rdf-syntax-ns#"
   xmlns:svg="http://www.w3.org/2000/svg"
   xmlns="http://www.w3.org/2000/svg"
   xmlns:xlink="http://www.w3.org/1999/xlink"
   xmlns:sodipodi="http://sodipodi.sourceforge.net/DTD/sodipodi-0.dtd"
   xmlns:inkscape="http://www.inkscape.org/namespaces/inkscape"
   sodipodi:docname="video-display.svg"
   inkscape:version="0.92+devel (unknown)"
   version="1.1"
   id="svg2"
   height="128"
   width="128">
  <sodipodi:namedview
     id="base"
     pagecolor="#ffffff"
     bordercolor="#666666"
     borderopacity="1.0"
     inkscape:pageopacity="0.0"
     inkscape:pageshadow="2"
     inkscape:zoom="1.9799"
     inkscape:cx="32.9174"
     inkscape:cy="14.7617"
     inkscape:document-units="px"
     inkscape:current-layer="layer1"
     showgrid="true"
     showguides="true"
     inkscape:guide-bbox="true"
     inkscape:window-width="1280"
     inkscape:window-height="967"
     inkscape:window-x="0"
     inkscape:window-y="29"
     inkscape:window-maximized="1"
     inkscape:document-rotation="0">
    <inkscape:grid
       snapvisiblegridlinesonly="true"
       enabled="true"
       visible="true"
       empspacing="4"
       id="grid2985"
       type="xygrid" />
  </sodipodi:namedview>
  <defs
     id="defs4">
    <linearGradient
       id="linearGradient4040">
      <stop
         style="stop-color:#000000;stop-opacity:1;"
         offset="0"
         id="stop4042" />
      <stop
         id="stop4048"
         offset="0.5"
         style="stop-color:#4c4c4c;stop-opacity:1;" />
      <stop
         style="stop-color:#000000;stop-opacity:1;"
         offset="1"
         id="stop4044" />
    </linearGradient>
    <linearGradient
       id="linearGradient3891">
      <stop
         style="stop-color:#ffffff;stop-opacity:1;"
         offset="0"
         id="stop3893" />
      <stop
         style="stop-color:#ffffff;stop-opacity:0;"
         offset="1"
         id="stop3895" />
    </linearGradient>
    <linearGradient
       id="linearGradient3813">
      <stop
         id="stop3815"
         offset="0"
         style="stop-color:#ff00bf;stop-opacity:1;" />
      <stop
         id="stop3817"
         offset="1"
         style="stop-color:#1d0031;stop-opacity:1;" />
    </linearGradient>
    <linearGradient
       id="linearGradient4270-9-28">
      <stop
         id="stop4272-5-33"
         offset="0"
         style="stop-color:#f9f9f9;stop-opacity:0.50196081;" />
      <stop
         style="stop-color:#7d7d7d;stop-opacity:0.50196081;"
         offset="0.25"
         id="stop5033-81" />
      <stop
         style="stop-color:#808080;stop-opacity:0.50196081;"
         offset="0.5"
         id="stop4278-7-4" />
      <stop
         id="stop5035-3"
         offset="0.75"
         style="stop-color:#ffffff;stop-opacity:0.50196081;" />
      <stop
         id="stop4274-4-83"
         offset="1"
         style="stop-color:#000000;stop-opacity:0.50196081;" />
    </linearGradient>
    <linearGradient
       id="linearGradient4270-9-9">
      <stop
         id="stop4272-5-10"
         offset="0"
         style="stop-color:#f9f9f9;stop-opacity:0.50196081;" />
      <stop
         style="stop-color:#7d7d7d;stop-opacity:0.50196081;"
         offset="0.25"
         id="stop5033-8" />
      <stop
         style="stop-color:#808080;stop-opacity:0.50196081;"
         offset="0.5"
         id="stop4278-7-50" />
      <stop
         id="stop5035-4"
         offset="0.75"
         style="stop-color:#ffffff;stop-opacity:0.50196081;" />
      <stop
         id="stop4274-4-85"
         offset="1"
         style="stop-color:#000000;stop-opacity:0.50196081;" />
    </linearGradient>
    <radialGradient
       inkscape:collect="always"
       xlink:href="#linearGradient3813"
       id="radialGradient3872"
       cx="88"
       cy="42"
       fx="88"
       fy="42"
       r="60"
       gradientTransform="matrix(1.2000001,-8.8182638e-8,6.858649e-8,0.93333333,-17.600011,929.16219)"
       gradientUnits="userSpaceOnUse" />
    <linearGradient
       inkscape:collect="always"
       xlink:href="#linearGradient4270-9-28"
       id="linearGradient3880"
       x1="-8"
       y1="0"
       x2="136"
       y2="120"
       gradientUnits="userSpaceOnUse"
       gradientTransform="translate(0,920.36218)" />
    <radialGradient
       inkscape:collect="always"
       xlink:href="#linearGradient3891"
       id="radialGradient3897"
       cx="32.783646"
       cy="77.210121"
       fx="32.783646"
       fy="77.210121"
       r="64"
       gradientTransform="matrix(2.125,0,0,1.375,-45.665246,902.19826)"
       gradientUnits="userSpaceOnUse" />
    <linearGradient
       inkscape:collect="always"
       xlink:href="#linearGradient4270-9-9"
       id="linearGradient4030"
       x1="44"
       y1="92"
       x2="84"
       y2="120"
       gradientUnits="userSpaceOnUse"
       gradientTransform="translate(0,920.36218)" />
    <linearGradient
       inkscape:collect="always"
       xlink:href="#linearGradient4040"
       id="linearGradient4046"
       x1="47.5"
       y1="106"
       x2="80.5"
       y2="106"
       gradientUnits="userSpaceOnUse"
       gradientTransform="translate(0,920.36218)" />
    <radialGradient
       inkscape:collect="always"
       xlink:href="#linearGradient4040"
       id="radialGradient4060"
       cx="64"
       cy="103"
       fx="64"
       fy="103"
       r="32.5"
       gradientTransform="matrix(1,0,0,0.61538464,0,44.615383)"
       gradientUnits="userSpaceOnUse" />
    <linearGradient
       inkscape:collect="always"
       xlink:href="#linearGradient4270-9-9"
       id="linearGradient4068"
       x1="31.5"
       y1="116"
       x2="96.5"
       y2="116"
       gradientUnits="userSpaceOnUse" />
    <filter
       inkscape:collect="always"
       id="filter4366"
       x="-0.058285714"
       width="1.1165714"
       y="-0.272"
       height="1.544">
      <feGaussianBlur
         inkscape:collect="always"
         stdDeviation="2.72"
         id="feGaussianBlur4368" />
    </filter>
  </defs>
  <metadata
     id="metadata7">
    <rdf:RDF>
      <cc:Work
         rdf:about="">
        <dc:format>image/svg+xml</dc:format>
        <dc:type
           rdf:resource="http://purl.org/dc/dcmitype/StillImage" />
        <dc:title />
      </cc:Work>
    </rdf:RDF>
  </metadata>
  <g
     transform="translate(0,-924.36218)"
     id="layer1"
     inkscape:groupmode="layer"
     inkscape:label="Layer 1">
    <path
       style="fill:#000000;stroke:none;stroke-width:1px;stroke-linecap:butt;stroke-linejoin:miter;stroke-opacity:1;filter:url(#filter4366);opacity:0.5"
       d="m 24,120 80,0 16,-24 -112,0 z"
       id="path4332"
       inkscape:connector-curvature="0"
       transform="translate(0,924.36218)" />
    <path
       sodipodi:type="arc"
       style="fill:url(#radialGradient4060);fill-opacity:1;stroke:url(#linearGradient4068);stroke-width:1;stroke-linecap:round;stroke-linejoin:round;stroke-miterlimit:4;stroke-opacity:1;stroke-dasharray:none;stroke-dashoffset:0"
       id="path4050"
       sodipodi:cx="64"
       sodipodi:cy="116"
       sodipodi:rx="36"
       sodipodi:ry="8"
       d="m 100,116 a 36,8 0 0 1 -36,8 36,8 0 0 1 -36,-8 36,8 0 0 1 36,-8 36,8 0 0 1 36,8 z"
       transform="translate(0,920.36218)" />
    <rect
       style="fill:url(#linearGradient4046);fill-opacity:1;stroke:url(#linearGradient4030);stroke-width:1;stroke-linecap:round;stroke-linejoin:round;stroke-miterlimit:4;stroke-opacity:1;stroke-dasharray:none;stroke-dashoffset:0"
       id="rect4022"
       width="32"
       height="20"
       x="48"
       y="1016.3622" />
    <rect
       style="fill:#000000;fill-opacity:1;stroke:none"
       id="rect3094"
       width="128"
       height="88"
       x="0"
       y="936.36218"
       rx="4"
       ry="4" />
    <rect
       style="fill:url(#radialGradient3872);fill-opacity:1;stroke:url(#linearGradient3880);stroke-width:1;stroke-miterlimit:4;stroke-dasharray:none"
       id="rect3096"
       width="120"
       height="80"
       x="4"
       y="940.36218"
       rx="4"
       ry="4" />
    <path
       inkscape:connector-curvature="0"
       style="opacity:0.25;fill:#ffffff;fill-opacity:1;stroke:none"
       d="m 7.28125,939.86218 c -2.09481,0 -3.78125,1.50525 -3.78125,3.375 l 0,74.25002 c 0,1.8697 1.68644,3.375 3.78125,3.375 l 67.20581,0 c 16.52692,-13.4365 27.32544,-35.63167 27.32544,-60.75001 0,-7.02415 -0.87396,-13.80958 -2.4519,-20.25001 l -92.07935,0 z"
       id="path4119" />
    <path
       inkscape:connector-curvature="0"
       style="font-size:medium;font-style:normal;font-variant:normal;font-weight:normal;font-stretch:normal;text-indent:0;text-align:start;text-decoration:none;line-height:normal;letter-spacing:normal;word-spacing:normal;text-transform:none;direction:ltr;block-progression:tb;writing-mode:lr-tb;text-anchor:start;baseline-shift:baseline;opacity:0.5;color:#000000;fill:#ffffff;fill-opacity:1;stroke:none;stroke-width:2;marker:none;visibility:visible;display:inline;overflow:visible;enable-background:accumulate;font-family:Sans;-inkscape-font-specification:Sans"
       d="m 124.5,970.50086 c -4.89948,7.29295 -12.34508,13.86938 -21.74219,19.3535 -17.60673,10.27524 -42.02659,16.66404 -69.00781,16.66404 -10.5668,0 -20.72431,-0.9854 -30.25,-2.7949 l 0,1.7138 c 9.54187,1.7879 19.70059,2.7686 30.25,2.7686 27.31527,0 52.06636,-6.4637 70.04175,-16.95412 8.61058,-5.02503 15.68365,-10.98317 20.70825,-17.61327 l 0,-3.13765 z"
       id="path4103" />
    <path
       inkscape:connector-curvature="0"
       style="font-size:medium;font-style:normal;font-variant:normal;font-weight:normal;font-stretch:normal;text-indent:0;text-align:start;text-decoration:none;line-height:normal;letter-spacing:normal;word-spacing:normal;text-transform:none;direction:ltr;block-progression:tb;writing-mode:lr-tb;text-anchor:start;baseline-shift:baseline;opacity:0.5;color:#000000;fill:#ffffff;fill-opacity:1;stroke:none;stroke-width:2;marker:none;visibility:visible;display:inline;overflow:visible;enable-background:accumulate;font-family:Sans;-inkscape-font-specification:Sans"
       d="m 124.5,970.50086 c -4.89948,7.29295 -12.34508,13.86938 -21.74219,19.3535 -17.60673,10.27524 -42.02659,16.66404 -69.00781,16.66404 -10.5668,0 -20.72431,-0.9854 -30.25,-2.7949 l 0,1.7138 c 9.54187,1.7879 19.70059,2.7686 30.25,2.7686 27.31527,0 52.06636,-6.4637 70.04175,-16.95412 8.61058,-5.02503 15.68365,-10.98317 20.70825,-17.61327 l 0,-3.13765 z"
       id="path4105" />
    <path
       inkscape:connector-curvature="0"
       style="font-size:medium;font-style:normal;font-variant:normal;font-weight:normal;font-stretch:normal;text-indent:0;text-align:start;text-decoration:none;line-height:normal;letter-spacing:normal;word-spacing:normal;text-transform:none;direction:ltr;block-progression:tb;writing-mode:lr-tb;text-anchor:start;baseline-shift:baseline;opacity:0.5;color:#000000;fill:#ffffff;fill-opacity:1;stroke:none;stroke-width:2;marker:none;visibility:visible;display:inline;overflow:visible;enable-background:accumulate;font-family:Sans;-inkscape-font-specification:Sans"
       d="m 124.5,969.76258 c -4.83957,6.24636 -11.59841,11.90024 -19.85156,16.71678 -17.60673,10.27524 -42.02659,16.66404 -69.00782,16.66404 -11.26731,0 -22.07628,-1.118 -32.14062,-3.164 l 0,1.7138 c 10.0858,2.0225 20.89071,3.1377 32.14062,3.1377 27.31527,0 52.06636,-6.4637 70.04175,-16.95412 7.59354,-4.43154 13.96749,-9.58811 18.81763,-15.29296 l 0,-2.82124 z"
       id="path4107" />
    <path
       inkscape:connector-curvature="0"
       style="font-size:medium;font-style:normal;font-variant:normal;font-weight:normal;font-stretch:normal;text-indent:0;text-align:start;text-decoration:none;line-height:normal;letter-spacing:normal;word-spacing:normal;text-transform:none;direction:ltr;block-progression:tb;writing-mode:lr-tb;text-anchor:start;baseline-shift:baseline;opacity:0.5;color:#000000;fill:#ffffff;fill-opacity:1;stroke:none;stroke-width:2;marker:none;visibility:visible;display:inline;overflow:visible;enable-background:accumulate;font-family:Sans;-inkscape-font-specification:Sans"
       d="m 124.5,968.65515 c -4.64966,5.3444 -10.72636,10.22709 -17.96094,14.44922 -17.60673,10.27526 -42.02659,16.66403 -69.00781,16.66403 -11.9732,0 -23.43839,-1.2621 -34.03125,-3.5596 l 0,1.7402 c 10.61615,2.2704 22.08082,3.5069 34.03125,3.5069 27.31527,0 52.06636,-6.46369 70.04175,-16.95412 6.64402,-3.87745 12.35067,-8.31346 16.927,-13.18358 l 0,-2.66305 z"
       id="path4109" />
    <path
       inkscape:connector-curvature="0"
       style="font-size:medium;font-style:normal;font-variant:normal;font-weight:normal;font-stretch:normal;text-indent:0;text-align:start;text-decoration:none;line-height:normal;letter-spacing:normal;word-spacing:normal;text-transform:none;direction:ltr;block-progression:tb;writing-mode:lr-tb;text-anchor:start;baseline-shift:baseline;opacity:0.5;color:#000000;fill:#ffffff;fill-opacity:1;stroke:none;stroke-width:2;marker:none;visibility:visible;display:inline;overflow:visible;enable-background:accumulate;font-family:Sans;-inkscape-font-specification:Sans"
       d="m 124.5,965.86023 c -4.00384,3.81071 -8.7671,7.33539 -14.17969,10.49414 -17.60673,10.27527 -42.02659,16.66405 -69.00781,16.66405 -13.41142,0 -26.18894,-1.58 -37.8125,-4.42968 l 0,1.74023 c 11.66051,2.81872 24.424,4.37695 37.8125,4.37695 27.31527,0 52.06636,-6.46371 70.04175,-16.95413 4.91674,-2.86934 9.32896,-6.03492 13.14575,-9.46578 l 0,-2.42578 z"
       id="path4111" />
    <path
       inkscape:connector-curvature="0"
       style="font-size:medium;font-style:normal;font-variant:normal;font-weight:normal;font-stretch:normal;text-indent:0;text-align:start;text-decoration:none;line-height:normal;letter-spacing:normal;word-spacing:normal;text-transform:none;direction:ltr;block-progression:tb;writing-mode:lr-tb;text-anchor:start;baseline-shift:baseline;opacity:0.5;color:#000000;fill:#ffffff;fill-opacity:1;stroke:none;stroke-width:2;marker:none;visibility:visible;display:inline;overflow:visible;enable-background:accumulate;font-family:Sans;-inkscape-font-specification:Sans"
       d="m 124.5,963.90906 c -2.6221,2.00053 -5.45257,3.9123 -8.50781,5.69531 -17.60673,10.27527 -42.02659,16.66406 -69.00782,16.66406 -15.63652,0 -30.39593,-2.1546 -43.48437,-5.95898 l 0,1.79296 c 13.13544,3.75722 27.89596,5.85352 43.48437,5.85352 27.31527,0 52.06636,-6.46372 70.04175,-16.95414 2.65004,-1.54651 5.13103,-3.18777 7.47388,-4.90429 l 0,-2.18844 z"
       id="path4113" />
    <path
       inkscape:connector-curvature="0"
       style="opacity:0.25;fill:#ffffff;fill-opacity:1;stroke:none"
       d="m 7.28125,939.86218 c -2.09481,0 -3.78125,1.50525 -3.78125,3.375 l 0,54.47462 c 7.0993,1.8674 14.72833,2.9004 22.6875,2.9004 37.58988,0 68.0625,-22.66559 68.0625,-50.62502 0,-3.46663 -0.46648,-6.8542 -1.35889,-10.125 l -85.60986,0 z"
       id="rect4129" />
    <path
       style="opacity:0.5;fill:#ffffff;fill-opacity:1;stroke:none"
       d="m 116.9375,980.36216 c 0,5.59188 -5.07877,10.125 -11.34375,10.125 -6.26498,0 -11.34375,-4.53312 -11.34375,-10.125 0,-5.59188 5.07877,-10.12499 11.34375,-10.12499 6.26498,0 11.34375,4.53311 11.34375,10.12499 z"
       id="path4217"
       inkscape:connector-curvature="0" />
    <path
       style="opacity:0.25;fill:#ffffff;fill-opacity:1;stroke:none"
       d="m 116.9375,958.42467 c 0,2.79594 -2.53938,5.0625 -5.67188,5.0625 -3.13249,0 -5.67187,-2.26656 -5.67187,-5.0625 0,-2.79594 2.53938,-5.0625 5.67187,-5.0625 3.1325,0 5.67188,2.26656 5.67188,5.0625 z"
       id="path4219"
       inkscape:connector-curvature="0" />
    <path
       style="opacity:0.25;fill:#ffffff;fill-opacity:1;stroke:none"
       d="m 113.15625,953.36217 c 0,3.72792 -3.38584,6.75 -7.5625,6.75 -4.17666,0 -7.5625,-3.02208 -7.5625,-6.75 0,-3.72792 3.38584,-6.74999 7.5625,-6.74999 4.17666,0 7.5625,3.02207 7.5625,6.74999 z"
       id="path4221"
       inkscape:connector-curvature="0" />
    <path
       style="opacity:0.25;fill:#ffffff;fill-opacity:1;stroke:none"
       d="m 48.875,975.29967 c 0,4.6599 -4.23231,8.43749 -9.45313,8.43749 -5.22081,0 -9.45312,-3.77759 -9.45312,-8.43749 0,-4.6599 4.23231,-8.4375 9.45312,-8.4375 5.22082,0 9.45313,3.7776 9.45313,8.4375 z"
       id="path4223"
       inkscape:connector-curvature="0" />
    <path
       style="opacity:0.25;fill:#ffffff;fill-opacity:1;stroke:none"
       d="m 45.09375,958.42467 c 0,2.79594 -2.53939,5.0625 -5.67188,5.0625 -3.13248,0 -5.67187,-2.26656 -5.67187,-5.0625 0,-2.79594 2.53939,-5.0625 5.67187,-5.0625 3.13249,0 5.67188,2.26656 5.67188,5.0625 z"
       id="path4225"
       inkscape:connector-curvature="0" />
    <path
       style="opacity:0.25;fill:#ffffff;fill-opacity:1;stroke:none"
       d="m 41.3125,966.86217 c 0,5.59188 -5.07877,10.12499 -11.34375,10.12499 -6.26498,0 -11.34375,-4.53311 -11.34375,-10.12499 0,-5.59188 5.07877,-10.125 11.34375,-10.125 6.26498,0 11.34375,4.53312 11.34375,10.125 z"
       id="path4229"
       inkscape:connector-curvature="0" />
    <path
       style="fill:url(#radialGradient3897);fill-opacity:1;stroke:none"
       d="m 4,936.36218 c -2.216,0 -4,1.784 -4,4 l 0,55.46875 c 0.98076837,0.53107 1.9802765,1.06045 3,1.5625 l 0,-53.03125 c 0,-2.7527 2.2472972,-5 5,-5 l 112,0 c 2.7527,0 5,2.2473 5,5 l 0,37.9375 c 1.07012,-1.17028 2.07375,-2.3684 3,-3.59375 l 0,-38.34375 c 0,-2.216 -1.784,-4 -4,-4 l -120,0 z m 4,5 c -1.6792972,0 -3,1.3207 -3,3 l 0,53.96872 c 13.623772,6.3002 30.407571,10.0313 48.59375,10.0313 29.157527,0 54.76152,-9.5741 69.40625,-24.00002 l 0,-40 c 0,-1.6793 -1.3207,-3 -3,-3 l -112,0 z"
       id="path3886"
       inkscape:connector-curvature="0" />
    <rect
       style="opacity:0.5;fill:none;stroke:#ffffff;stroke-width:1;stroke-linecap:round;stroke-linejoin:round;stroke-miterlimit:4;stroke-opacity:1;stroke-dasharray:none;stroke-dashoffset:0"
       id="rect4018"
       width="16"
       height="4"
       x="100"
       y="1020.3622"
       rx="0"
       ry="4" />
    <rect
       style="opacity:0.5;fill:none;stroke:#ffffff;stroke-width:1;stroke-linecap:round;stroke-linejoin:round;stroke-miterlimit:4;stroke-opacity:1;stroke-dasharray:none;stroke-dashoffset:0"
       id="rect4020"
       width="16"
       height="4"
       x="80"
       y="1020.3622"
       ry="0" />
  </g>
</svg>
