<?xml version="1.0" encoding="UTF-8" standalone="no"?>
<!-- Created with Inkscape (http://www.inkscape.org/) -->

<svg
   xmlns:dc="http://purl.org/dc/elements/1.1/"
   xmlns:cc="http://creativecommons.org/ns#"
   xmlns:rdf="http://www.w3.org/1999/02/22-rdf-syntax-ns#"
   xmlns:svg="http://www.w3.org/2000/svg"
   xmlns="http://www.w3.org/2000/svg"
   xmlns:xlink="http://www.w3.org/1999/xlink"
   xmlns:sodipodi="http://sodipodi.sourceforge.net/DTD/sodipodi-0.dtd"
   xmlns:inkscape="http://www.inkscape.org/namespaces/inkscape"
   width="128"
   height="128"
   id="svg2"
   version="1.1"
   inkscape:version="0.92+devel (unknown)"
   sodipodi:docname="folder-open.svg">
  <defs
     id="defs4">
    <radialGradient
       inkscape:collect="always"
       xlink:href="#linearGradient4965-5"
       id="radialGradient4971-5"
       cx="84"
       cy="40.786888"
       fx="84"
       fy="40.786888"
       r="59"
       gradientTransform="matrix(1.0563955,1.5784786,-1.5816073,1.0584892,58.43829,790.19749)"
       gradientUnits="userSpaceOnUse" />
    <linearGradient
       id="linearGradient4965-5">
      <stop
         style="stop-color:#ffffff;stop-opacity:1;"
         offset="0"
         id="stop4967-05" />
      <stop
         style="stop-color:#ffffff;stop-opacity:0.45851529;"
         offset="1"
         id="stop4969-1" />
    </linearGradient>
    <radialGradient
       inkscape:collect="always"
       xlink:href="#linearGradient4216-42-6-6"
       id="radialGradient4963-9"
       cx="88"
       cy="968.36237"
       fx="88"
       fy="968.36237"
       r="61"
       gradientTransform="matrix(0.93333333,0,0,0.93333333,4.2666667,65.89065)"
       gradientUnits="userSpaceOnUse" />
    <linearGradient
       id="linearGradient4216-42-6-6">
      <stop
         style="stop-color:#b3b3b3;stop-opacity:1;"
         offset="0"
         id="stop4218-69-8-52" />
      <stop
         style="stop-color:#474747;stop-opacity:1;"
         offset="1"
         id="stop4220-10-1-29" />
    </linearGradient>
    <filter
       color-interpolation-filters="sRGB"
       inkscape:collect="always"
       id="filter4223-6">
      <feGaussianBlur
         inkscape:collect="always"
         stdDeviation="2.24"
         id="feGaussianBlur4225-1" />
    </filter>
    <filter
       inkscape:collect="always"
       id="filter4149"
       x="-2.679"
       width="6.358"
       y="-0.11906667"
       height="1.2381333">
      <feGaussianBlur
         inkscape:collect="always"
         stdDeviation="4.465"
         id="feGaussianBlur4151" />
    </filter>
  </defs>
  <sodipodi:namedview
     id="base"
     pagecolor="#ffffff"
     bordercolor="#666666"
     borderopacity="1.0"
     inkscape:pageopacity="0.0"
     inkscape:pageshadow="2"
     inkscape:zoom="3.18474"
     inkscape:cx="119.725"
     inkscape:cy="75.8019"
     inkscape:document-units="px"
     inkscape:current-layer="layer1"
     showgrid="true"
     inkscape:window-width="1280"
     inkscape:window-height="967"
     inkscape:window-x="0"
     inkscape:window-y="29"
     inkscape:window-maximized="1"
     showguides="true"
     inkscape:guide-bbox="true"
     inkscape:document-rotation="0">
    <inkscape:grid
       type="xygrid"
       id="grid2985"
       empspacing="2"
       visible="true"
       enabled="true"
       snapvisiblegridlinesonly="true" />
  </sodipodi:namedview>
  <metadata
     id="metadata7">
    <rdf:RDF>
      <cc:Work
         rdf:about="">
        <dc:format>image/svg+xml</dc:format>
        <dc:type
           rdf:resource="http://purl.org/dc/dcmitype/StillImage" />
        <dc:title />
      </cc:Work>
    </rdf:RDF>
  </metadata>
  <g
     inkscape:label="Layer 1"
     inkscape:groupmode="layer"
     id="layer1"
     transform="translate(0,-924.36218)">
    <path
       id="path3215"
       d="m 146.5,1036.3622 c -1.108,0 -2,0.892 -2,2 l 0,12 c 0,1.108 0.892,2 2,2 l 10,0 c 1.108,0 2,-0.892 2,-2 l 0,-4 c 0.554,0 1,-1 1,-1 l 0,-2 c 0,0 -0.446,-1 -1,-1 0,-0.052 -0.002,-4.1038 -0.006,-4.1549 -0.0786,-1.0351 -0.93828,-1.8451 -1.99414,-1.8451 z"
       style="fill:#888a85;fill-opacity:1;stroke:#4d4d4d;stroke-opacity:1"
       inkscape:connector-curvature="0"
       sodipodi:nodetypes="sssssscsscsss" />
    <path
       sodipodi:nodetypes="sssssscsscsss"
       inkscape:connector-curvature="0"
       inkscape:export-ydpi="32.142857"
       inkscape:export-xdpi="32.142857"
       inkscape:export-filename="/home/georg/.icons/Kawaiki-Only/places/scalable/rect3146.png"
       id="path3213"
       d="m 148.86971,989.05805 c -1.54154,0 -2.78257,1.24102 -2.78257,2.78257 l 0,25.04308 c 0,1.5416 1.24103,2.7826 2.78257,2.7826 l 19.478,0 c 1.54155,0 2.78258,-1.241 2.78258,-2.7826 l 0,-8.6954 c 1.54154,0 2.78257,-1.241 2.78257,-2.7826 l 0,-2.7825 c 0,-1.5416 -1.24103,-2.78258 -2.78257,-2.78258 0,-0.184 -0.0177,-8.36371 -0.0514,-8.53755 -0.2491,-1.28257 -1.37359,-2.24502 -2.73114,-2.24502 z"
       style="fill:#888a85;fill-rule:evenodd;stroke:#4d4d4d;stroke-width:1.39128578;stroke-linecap:butt;stroke-linejoin:miter;stroke-miterlimit:4;stroke-opacity:1;stroke-dasharray:none" />
    <path
       style="fill:#e6e6e6;fill-rule:evenodd;stroke:#4d4d4d;stroke-width:1.39128578;stroke-linecap:butt;stroke-linejoin:miter;stroke-miterlimit:4;stroke-opacity:1;stroke-dasharray:none"
       d="m 148.86971,989.05805 c -1.54154,0 -2.78257,1.24102 -2.78257,2.78257 l 0,25.04308 c 0,1.5416 1.24103,2.7826 2.78257,2.7826 l 13.478,0 c 1.54155,0 2.78258,-1.241 2.78258,-2.7826 l 0,-16.6954 c 1.54154,0 2.78257,-1.24102 2.78257,-2.78256 l 0,-2.78255 c 0,-1.54155 -1.24103,-2.78257 -2.78257,-2.78257 0,-1.54155 -1.24103,-2.78257 -2.78258,-2.78257 z"
       id="rect3144"
       inkscape:export-filename="/home/georg/.icons/Kawaiki-Only/places/scalable/rect3146.png"
       inkscape:export-xdpi="32.142857"
       inkscape:export-ydpi="32.142857"
       inkscape:connector-curvature="0"
       sodipodi:nodetypes="sssssscsscss" />
    <path
       style="fill:#e6e6e6;stroke:#b3b3b3;stroke-width:1.39100003;stroke-miterlimit:4"
       d="m 150.26101,991.84064 10.69543,0 c 0.77077,0 1.39128,0.62051 1.39128,1.39128 l 0,22.26058 c 0,0.7708 -0.62051,1.3913 -1.39128,1.3913 l -10.69543,0 c -0.77078,0 -1.39129,-0.6205 -1.39129,-1.3913 l 0,-22.26058 c 0,-0.77077 0.62051,-1.39128 1.39129,-1.39128 z"
       id="rect3146"
       inkscape:connector-curvature="0"
       sodipodi:nodetypes="sssssssss" />
    <text
       style="font-style:normal;font-weight:normal;font-size:24px;line-height:0%;font-family:sans-serif;letter-spacing:0px;word-spacing:0px;fill:#000000;fill-opacity:1;stroke:none"
       xml:space="preserve"
       id="text5893"
       y="948.362"
       x="-56"><tspan
         id="tspan5895"
         y="948.362"
         x="-56"
         style="font-family:sans-serif">128</tspan></text>
    <text
       style="font-style:normal;font-weight:normal;font-size:16px;line-height:0%;font-family:sans-serif;letter-spacing:0px;word-spacing:0px;fill:#000000;fill-opacity:1;stroke:none"
       xml:space="preserve"
       id="text5901"
       y="1000.36"
       x="184"><tspan
         id="tspan5903"
         y="1000.36"
         x="184"
         style="font-family:sans-serif">31 - 17</tspan></text>
    <text
       style="font-style:normal;font-weight:normal;font-size:16px;line-height:0%;font-family:sans-serif;letter-spacing:0px;word-spacing:0px;fill:#000000;fill-opacity:1;stroke:none"
       xml:space="preserve"
       id="text5905"
       y="1048.36"
       x="172"><tspan
         id="tspan5907"
         y="1048.36"
         x="172"
         style="font-family:sans-serif">16</tspan></text>
    <rect
       style="fill:none;stroke:#000000;stroke-width:1;stroke-linecap:round;stroke-linejoin:round;stroke-miterlimit:4;stroke-opacity:1;stroke-dasharray:none;stroke-dashoffset:0"
       id="rect5919"
       y="984.36218"
       x="140"
       rx="4.5902016e-07"
       height="40"
       width="40" />
    <rect
       style="fill:none;stroke:#000000;stroke-width:1;stroke-linecap:round;stroke-linejoin:round;stroke-miterlimit:4;stroke-opacity:1;stroke-dasharray:none;stroke-dashoffset:0"
       id="rect5921"
       y="1032.3622"
       x="140"
       rx="4.5902016e-07"
       height="24"
       width="24" />
    <rect
       style="fill:#b3b3b3;fill-opacity:1;stroke:none"
       id="rect6935"
       y="980.36218"
       x="144"
       rx="4.5902016e-07"
       height="4"
       width="32" />
    <rect
       style="fill:#b3b3b3;fill-opacity:1;stroke:none"
       id="rect6937"
       y="988.36218"
       x="136"
       rx="4.5902016e-07"
       height="32"
       width="4" />
    <rect
       style="fill:#b3b3b3;fill-opacity:1;stroke:none"
       id="rect6939"
       y="1028.3622"
       x="144"
       rx="4.5902016e-07"
       height="4"
       width="16" />
    <rect
       style="fill:#b3b3b3;fill-opacity:1;stroke:none"
       id="rect6941"
       y="1036.3622"
       x="136"
       rx="4.5902016e-07"
       height="16"
       width="4" />
    <path
       inkscape:connector-curvature="0"
       style="fill:#e6e6e6;fill-opacity:1;stroke:#4d4d4d;stroke-opacity:1"
       d="m 146.5,1036.3622 c -1.108,0 -2,0.892 -2,2 l 0,12 c 0,1.108 0.892,2 2,2 l 6,0 c 1.108,0 2,-0.892 2,-2 l 0,-8 c 0.554,0 1,-0.446 1,-1 l 0,-2 c 0,-0.554 -0.446,-1 -1,-1 0,-1.108 -0.892,-2 -2,-2 z"
       id="rect3118"
       sodipodi:nodetypes="sssssscsscss" />
    <path
       inkscape:connector-curvature="0"
       style="fill:#b3b3b3;fill-opacity:1;stroke:none"
       d="m 146.5,1037.3622 c -0.554,0 -1,0.446 -1,1 l 0,12 c 0,0.554 0.446,1 1,1 l 6,0 c 0.554,0 1,-0.446 1,-1 l 0,-12 c 0,-0.554 -0.446,-1 -1,-1 z m 1,1 4,0 c 0.554,0 1,0.446 1,1 l 0,10 c 0,0.554 -0.446,1 -1,1 l -4,0 c -0.554,0 -1,-0.446 -1,-1 l 0,-10 c 0,-0.554 0.446,-1 1,-1 z"
       id="rect3899"
       sodipodi:nodetypes="ssssssssssssssssss" />
    <path
       style="fill:#000000;fill-opacity:1;stroke:none;filter:url(#filter4223-6)"
       d="M 15.46875,934.36218 C 11.332216,934.36218 8,937.69439 8,941.83093 l 0,1.875 0,93.31247 0,1.875 c 0,4.1365 3.332216,7.4688 7.46875,7.4688 l 85.875,0 c 1.97434,0 3.76123,-0.7571 5.09375,-2 3.47306,-0.6436 6.09375,-3.6788 6.09375,-7.3438 l 0,-35.4687 3.75,0 c 2.06826,0 3.71875,-1.65049 3.71875,-3.71877 l 0,-18.65625 c 0,-2.06827 -1.86884,-2.82504 -3.71875,-3.75 l -3.75,0 0,-31.71875 c 0,-3.665 -2.62069,-6.70014 -6.09375,-7.34375 -1.33252,-1.24286 -3.11941,-2 -5.09375,-2 z"
       id="rect4915-3-3"
       inkscape:connector-curvature="0"
       sodipodi:nodetypes="ssccssscscsssccccss" />
    <path
       inkscape:connector-curvature="0"
       style="opacity:0.8;fill:url(#radialGradient4963-9);fill-opacity:1;stroke:none"
       d="M 15.466667,934.22884 C 11.330133,934.22884 8,937.55897 8,941.6955 l 0,93.3334 c 0,4.1365 3.330133,7.4666 7.466667,7.4666 l 89.600003,0 c 4.13653,0 7.46666,-3.3301 7.46666,-7.4666 l 0,-35.46671 3.73334,0 c 2.06826,0 3.73333,-1.66507 3.73333,-3.73335 l 0,-18.66667 c 0,-2.06827 -1.88342,-2.80837 -3.73333,-3.73333 l -3.73334,0 0,-31.73334 c 0,-4.13653 -3.33013,-7.46666 -7.46666,-7.46666 z"
       id="rect4915-3"
       sodipodi:nodetypes="sssssscsssscsss" />
    <path
       style="fill:url(#radialGradient4971-5);fill-opacity:1;stroke:none"
       d="M 15.466667,932.36217 C 11.330133,932.36217 8,935.6923 8,939.82884 l 0,97.06666 c 0,4.1365 3.330133,7.4667 7.466667,7.4667 l 65.866663,0 c 4.13654,0 7.343614,-3.332 7.46667,-7.4667 l 0,-67.2 3.73333,0 c 2.06827,0 3.73334,-1.66506 3.73334,-3.73333 l 0,-18.66667 c 0,-2.06826 -1.66507,-3.73333 -3.73334,-3.73333 l -3.73333,0 0,-3.73333 c 0,-4.13654 -3.33013,-7.46667 -7.46667,-7.46667 z"
       id="rect4915"
       inkscape:connector-curvature="0"
       sodipodi:nodetypes="sssssscsssscsss" />
    <path
       style="opacity:0.25;fill:none;stroke:#000000;stroke-width:3.73333335;stroke-miterlimit:4;stroke-opacity:1"
       d="m 17.333334,937.96216 62.133332,0 c 2.068264,0 3.733334,1.66506 3.733334,3.73333 l 0,93.33331 c 0,2.0683 -1.66507,3.7334 -3.733334,3.7334 l -62.133332,0 c -2.068267,0 -3.733334,-1.6651 -3.733334,-3.7334 l 0,-93.33331 c 0,-2.06827 1.665067,-3.73333 3.733334,-3.73333 z"
       id="rect5043"
       inkscape:connector-curvature="0"
       sodipodi:nodetypes="sssssssss" />
    <path
       sodipodi:type="arc"
       style="fill:#000000;fill-opacity:0.21967213;stroke:none;filter:url(#filter4149)"
       id="path3251"
       sodipodi:cx="56"
       sodipodi:cy="65"
       sodipodi:rx="12"
       sodipodi:ry="45"
       d="M 68,65 A 12,45 0 0 1 56,110 12,45 0 0 1 44,65 12,45 0 0 1 56,20 12,45 0 0 1 68,65 Z"
       transform="translate(0,924.36218)" />
  </g>
</svg>
