<?xml version="1.0" encoding="UTF-8" standalone="no"?>
<!-- Created with Inkscape (http://www.inkscape.org/) -->

<svg
   xmlns:dc="http://purl.org/dc/elements/1.1/"
   xmlns:cc="http://creativecommons.org/ns#"
   xmlns:rdf="http://www.w3.org/1999/02/22-rdf-syntax-ns#"
   xmlns:svg="http://www.w3.org/2000/svg"
   xmlns="http://www.w3.org/2000/svg"
   xmlns:sodipodi="http://sodipodi.sourceforge.net/DTD/sodipodi-0.dtd"
   xmlns:inkscape="http://www.inkscape.org/namespaces/inkscape"
   width="16"
   height="16"
   id="svg2"
   version="1.1"
   inkscape:version="0.92+devel (unknown)"
   sodipodi:docname="user-trash-symbolic.svg">
  <defs
     id="defs4" />
  <sodipodi:namedview
     id="base"
     pagecolor="#4f4f4f"
     bordercolor="#666666"
     borderopacity="1.0"
     inkscape:pageopacity="1"
     inkscape:pageshadow="2"
     inkscape:zoom="44.8"
     inkscape:cx="8.02809"
     inkscape:cy="8.4069"
     inkscape:document-units="px"
     inkscape:current-layer="layer1"
     showgrid="true"
     inkscape:window-width="1280"
     inkscape:window-height="967"
     inkscape:window-x="0"
     inkscape:window-y="29"
     inkscape:window-maximized="1"
     showguides="true"
     inkscape:guide-bbox="true"
     inkscape:document-rotation="0">
    <inkscape:grid
       type="xygrid"
       id="grid2985"
       empspacing="2"
       visible="true"
       enabled="true"
       snapvisiblegridlinesonly="true" />
  </sodipodi:namedview>
  <metadata
     id="metadata7">
    <rdf:RDF>
      <cc:Work
         rdf:about="">
        <dc:format>image/svg+xml</dc:format>
        <dc:type
           rdf:resource="http://purl.org/dc/dcmitype/StillImage" />
        <dc:title />
      </cc:Work>
    </rdf:RDF>
  </metadata>
  <g
     inkscape:label="Layer 1"
     inkscape:groupmode="layer"
     id="layer1"
     transform="translate(0,-1036.3622)">
    <path
       style="fill:#d3d7cf;fill-opacity:1;stroke:none"
       d="M 8 0 C 5.2385763 0 3 1.3431458 3 3 L 3 13 C 3 14.6569 5.2385763 16 8 16 C 8.345178 16 8.674512 15.977462 9 15.9375 C 10.301952 15.777649 11.437421 15.325904 12.15625 14.6875 C 12.695372 14.208698 13 13.621337 13 13 L 13 3 C 13 1.3431458 10.761424 -2.9605947e-16 8 0 z M 8 1 C 10.209139 1 12 1.8954305 12 3 C 12 4.1045695 10.209139 5 8 5 C 5.790861 5 4 4.1045695 4 3 C 4 1.8954305 5.790861 1 8 1 z M 4 4.8125 C 4.9122347 5.5409578 6.3644588 6 8 6 C 9.6355412 6 11.087765 5.5409578 12 4.8125 L 12 11.1875 C 11.087765 10.459042 9.6355412 10 8 10 C 6.3644588 10 4.9122347 10.459042 4 11.1875 L 4 4.8125 z "
       transform="translate(0,1036.3622)"
       id="path3142" />
    <path
       id="path3199"
       transform="translate(0,1036.3622)"
       d="M 8,0 C 5.2385763,0 3,1.3431458 3,3 l 0,10 c 0,1.6569 2.2385763,3 5,3 0.345178,0 0.674512,-0.02254 1,-0.0625 1.301952,-0.159851 2.437421,-0.611596 3.15625,-1.25 C 12.695372,14.208698 13,13.621337 13,13 L 13,3 C 13,1.3431458 10.761424,0 8,0 z"
       style="fill:#d3d7cf;fill-opacity:1;stroke:none;opacity:0.15"
       inkscape:connector-curvature="0"
       sodipodi:nodetypes="sssssssss" />
  </g>
</svg>
