<?xml version="1.0" encoding="UTF-8" standalone="no"?>
<!-- Created with Inkscape (http://www.inkscape.org/) -->

<svg
   xmlns:dc="http://purl.org/dc/elements/1.1/"
   xmlns:cc="http://creativecommons.org/ns#"
   xmlns:rdf="http://www.w3.org/1999/02/22-rdf-syntax-ns#"
   xmlns:svg="http://www.w3.org/2000/svg"
   xmlns="http://www.w3.org/2000/svg"
   xmlns:xlink="http://www.w3.org/1999/xlink"
   xmlns:sodipodi="http://sodipodi.sourceforge.net/DTD/sodipodi-0.dtd"
   xmlns:inkscape="http://www.inkscape.org/namespaces/inkscape"
   width="128"
   height="128"
   id="svg3829"
   version="1.1"
   inkscape:version="0.91 r13725"
   sodipodi:docname="application-x-7zip.svg">
  <defs
     id="defs3831">
    <linearGradient
       inkscape:collect="always"
       id="linearGradient5655">
      <stop
         style="stop-color:#000000;stop-opacity:0.75"
         offset="0"
         id="stop5657" />
      <stop
         style="stop-color:#000000;stop-opacity:0;"
         offset="1"
         id="stop5659" />
    </linearGradient>
    <linearGradient
       id="linearGradient5547">
      <stop
         style="stop-color:#a4a4a4;stop-opacity:1;"
         offset="0"
         id="stop5549" />
      <stop
         id="stop5557"
         offset="0.25"
         style="stop-color:#ffffff;stop-opacity:1;" />
      <stop
         id="stop5555"
         offset="0.5"
         style="stop-color:#d2d2d2;stop-opacity:1;" />
      <stop
         style="stop-color:#ffffff;stop-opacity:1;"
         offset="1"
         id="stop5551" />
    </linearGradient>
    <linearGradient
       id="linearGradient5533">
      <stop
         style="stop-color:#000000;stop-opacity:1;"
         offset="0"
         id="stop5535" />
      <stop
         id="stop5543"
         offset="0.25"
         style="stop-color:#3c3c3c;stop-opacity:1;" />
      <stop
         id="stop5541"
         offset="0.5"
         style="stop-color:#000000;stop-opacity:1;" />
      <stop
         style="stop-color:#2e3436;stop-opacity:1;"
         offset="1"
         id="stop5537" />
    </linearGradient>
    <linearGradient
       id="linearGradient8794">
      <stop
         style="stop-color:#ffffff;stop-opacity:1;"
         offset="0"
         id="stop8796" />
      <stop
         style="stop-color:#cacaca;stop-opacity:1;"
         offset="1"
         id="stop8798" />
    </linearGradient>
    <linearGradient
       id="linearGradient4270-9">
      <stop
         style="stop-color:#f9f9f9;stop-opacity:0.50196081;"
         offset="0"
         id="stop4272-5" />
      <stop
         id="stop5033"
         offset="0.25"
         style="stop-color:#7d7d7d;stop-opacity:0.50196081;" />
      <stop
         id="stop4278-7"
         offset="0.5"
         style="stop-color:#808080;stop-opacity:0.50196081;" />
      <stop
         style="stop-color:#ffffff;stop-opacity:0.50196081;"
         offset="0.75"
         id="stop5035" />
      <stop
         style="stop-color:#000000;stop-opacity:0.50196081;"
         offset="1"
         id="stop4274-4" />
    </linearGradient>
    <linearGradient
       id="linearGradient4317-9">
      <stop
         id="stop4609"
         offset="0"
         style="stop-color:#e4e4e4;stop-opacity:1;" />
      <stop
         style="stop-color:#7a7a7a;stop-opacity:1;"
         offset="1"
         id="stop4321-9" />
    </linearGradient>
    <linearGradient
       id="linearGradient4270-9-2">
      <stop
         style="stop-color:#f9f9f9;stop-opacity:0.50196081;"
         offset="0"
         id="stop4272-5-3" />
      <stop
         id="stop5033-1"
         offset="0.25"
         style="stop-color:#7d7d7d;stop-opacity:0.50196081;" />
      <stop
         id="stop4278-7-5"
         offset="0.5"
         style="stop-color:#808080;stop-opacity:0.50196081;" />
      <stop
         style="stop-color:#ffffff;stop-opacity:0.50196081;"
         offset="0.75"
         id="stop5035-7" />
      <stop
         style="stop-color:#000000;stop-opacity:0.50196081;"
         offset="1"
         id="stop4274-4-7" />
    </linearGradient>
    <linearGradient
       id="linearGradient4270-9-28">
      <stop
         style="stop-color:#f9f9f9;stop-opacity:0.50196081;"
         offset="0"
         id="stop4272-5-33" />
      <stop
         id="stop5033-81"
         offset="0.25"
         style="stop-color:#7d7d7d;stop-opacity:0.50196081;" />
      <stop
         id="stop4278-7-4"
         offset="0.5"
         style="stop-color:#808080;stop-opacity:0.50196081;" />
      <stop
         style="stop-color:#ffffff;stop-opacity:0.50196081;"
         offset="0.75"
         id="stop5035-3" />
      <stop
         style="stop-color:#000000;stop-opacity:0.50196081;"
         offset="1"
         id="stop4274-4-83" />
    </linearGradient>
    <filter
       inkscape:collect="always"
       id="filter8877">
      <feGaussianBlur
         inkscape:collect="always"
         stdDeviation="1.9999998"
         id="feGaussianBlur8879" />
    </filter>
    <radialGradient
       inkscape:collect="always"
       xlink:href="#linearGradient8794"
       id="radialGradient4638"
       gradientUnits="userSpaceOnUse"
       gradientTransform="matrix(2.2683686,1.5379689e-7,-1.2814371e-7,2.2683687,-121.48441,61.6038)"
       cx="95.877007"
       cy="-50.081726"
       fx="95.877007"
       fy="-50.081726"
       r="56.428219" />
    <radialGradient
       inkscape:collect="always"
       xlink:href="#linearGradient4270-9-2"
       id="radialGradient4640"
       gradientUnits="userSpaceOnUse"
       gradientTransform="matrix(1.5734565,1.758569,-0.70723,0.63278475,-62.509085,-90.974406)"
       cx="36"
       cy="-64.879013"
       fx="36"
       fy="-64.879013"
       r="37.012661" />
    <radialGradient
       inkscape:collect="always"
       xlink:href="#linearGradient4270-9"
       id="radialGradient4645"
       gradientUnits="userSpaceOnUse"
       gradientTransform="matrix(0.65025714,0.55736331,-1.1106752,1.2957877,35.293259,-59.234562)"
       cx="92"
       cy="6.4254985"
       fx="92"
       fy="6.4254985"
       r="37.012661" />
    <radialGradient
       inkscape:collect="always"
       xlink:href="#linearGradient4317-9"
       id="radialGradient4680"
       cx="48"
       cy="21.401978"
       fx="48"
       fy="21.401978"
       r="56.428219"
       gradientTransform="matrix(1.7012764,2.3338747e-8,-6.2039055e-8,1.5595034,-33.661266,-17.376459)"
       gradientUnits="userSpaceOnUse" />
    <radialGradient
       inkscape:collect="always"
       xlink:href="#linearGradient4317-9"
       id="radialGradient4684"
       gradientUnits="userSpaceOnUse"
       gradientTransform="matrix(1.7012764,2.3338747e-8,-6.2039055e-8,1.5595034,-33.661266,-25.376459)"
       cx="48"
       cy="21.401978"
       fx="48"
       fy="21.401978"
       r="56.428219" />
    <radialGradient
       inkscape:collect="always"
       xlink:href="#linearGradient4270-9"
       id="radialGradient4686"
       gradientUnits="userSpaceOnUse"
       gradientTransform="matrix(0.65025714,0.55736331,-1.1106752,1.2957877,35.293259,-67.234562)"
       cx="92"
       cy="6.4254985"
       fx="92"
       fy="6.4254985"
       r="37.012661" />
    <radialGradient
       inkscape:collect="always"
       xlink:href="#linearGradient4317-9"
       id="radialGradient4690"
       gradientUnits="userSpaceOnUse"
       gradientTransform="matrix(1.7012764,2.3338747e-8,-6.2039055e-8,1.5595034,-33.661266,-33.376459)"
       cx="48"
       cy="21.401978"
       fx="48"
       fy="21.401978"
       r="56.428219" />
    <radialGradient
       inkscape:collect="always"
       xlink:href="#linearGradient4270-9"
       id="radialGradient4692"
       gradientUnits="userSpaceOnUse"
       gradientTransform="matrix(0.65025714,0.55736331,-1.1106752,1.2957877,35.293259,-75.234562)"
       cx="92"
       cy="6.4254985"
       fx="92"
       fy="6.4254985"
       r="37.012661" />
    <radialGradient
       inkscape:collect="always"
       xlink:href="#linearGradient4270-9-28"
       id="radialGradient4713"
       gradientUnits="userSpaceOnUse"
       gradientTransform="matrix(14.222228,-5.2461957e-7,4.3595836e-7,13,-1313.1655,-824.79147)"
       cx="98.238159"
       cy="62.522427"
       fx="98.238159"
       fy="62.522427"
       r="4.5" />
    <linearGradient
       inkscape:collect="always"
       xlink:href="#linearGradient5533"
       id="linearGradient5539"
       x1="84"
       y1="28"
       x2="120"
       y2="72"
       gradientUnits="userSpaceOnUse" />
    <linearGradient
       inkscape:collect="always"
       xlink:href="#linearGradient5547"
       id="linearGradient5553"
       x1="76"
       y1="20"
       x2="116"
       y2="64"
       gradientUnits="userSpaceOnUse" />
    <linearGradient
       inkscape:collect="always"
       xlink:href="#linearGradient5533"
       id="linearGradient5570"
       x1="104"
       y1="96"
       x2="104"
       y2="120"
       gradientUnits="userSpaceOnUse" />
    <linearGradient
       inkscape:collect="always"
       xlink:href="#linearGradient5547"
       id="linearGradient5581"
       x1="100"
       y1="96"
       x2="100"
       y2="120"
       gradientUnits="userSpaceOnUse" />
    <linearGradient
       inkscape:collect="always"
       xlink:href="#linearGradient5533"
       id="linearGradient5613"
       x1="12"
       y1="40"
       x2="40"
       y2="88"
       gradientUnits="userSpaceOnUse"
       gradientTransform="translate(4,-80)" />
    <linearGradient
       inkscape:collect="always"
       xlink:href="#linearGradient5533"
       id="linearGradient5629"
       x1="12"
       y1="66"
       x2="40"
       y2="66"
       gradientUnits="userSpaceOnUse"
       gradientTransform="translate(4,-80)" />
    <linearGradient
       inkscape:collect="always"
       xlink:href="#linearGradient5533"
       id="linearGradient5637"
       x1="39.5"
       y1="-14"
       x2="68.5"
       y2="-14"
       gradientUnits="userSpaceOnUse"
       gradientTransform="translate(4,0)" />
    <linearGradient
       inkscape:collect="always"
       xlink:href="#linearGradient5533"
       id="linearGradient5643"
       gradientUnits="userSpaceOnUse"
       gradientTransform="translate(10,0)"
       x1="16"
       y1="-32"
       x2="72"
       y2="8" />
    <linearGradient
       inkscape:collect="always"
       xlink:href="#linearGradient5655"
       id="linearGradient5661"
       x1="100"
       y1="96"
       x2="100"
       y2="116"
       gradientUnits="userSpaceOnUse" />
  </defs>
  <sodipodi:namedview
     id="base"
     pagecolor="#ffffff"
     bordercolor="#666666"
     borderopacity="1.0"
     inkscape:pageopacity="0.0"
     inkscape:pageshadow="2"
     inkscape:zoom="2.8284271"
     inkscape:cx="68.270148"
     inkscape:cy="50.198064"
     inkscape:current-layer="layer1"
     showgrid="true"
     inkscape:grid-bbox="true"
     inkscape:document-units="px"
     inkscape:window-width="1920"
     inkscape:window-height="1028"
     inkscape:window-x="-8"
     inkscape:window-y="-8"
     inkscape:window-maximized="1"
     showguides="true"
     inkscape:guide-bbox="true">
    <inkscape:grid
       type="xygrid"
       id="grid3837"
       empspacing="4"
       visible="true"
       enabled="true"
       snapvisiblegridlinesonly="true" />
  </sodipodi:namedview>
  <metadata
     id="metadata3834">
    <rdf:RDF>
      <cc:Work
         rdf:about="">
        <dc:format>image/svg+xml</dc:format>
        <dc:type
           rdf:resource="http://purl.org/dc/dcmitype/StillImage" />
        <dc:title />
      </cc:Work>
    </rdf:RDF>
  </metadata>
  <g
     id="layer1"
     inkscape:label="Layer 1"
     inkscape:groupmode="layer"
     transform="translate(0,80)">
    <rect
       style="color:#000000;fill:#000000;fill-opacity:1;fill-rule:nonzero;stroke:none;stroke-width:0.85643840000000004;marker:none;visibility:visible;display:inline;overflow:visible;enable-background:accumulate;filter:url(#filter8877)"
       id="rect3482-4"
       width="112"
       height="87.999985"
       x="8"
       y="-46"
       rx="3.4691236"
       ry="3.4691236" />
    <rect
       style="color:#000000;fill:url(#radialGradient4680);fill-opacity:1;fill-rule:nonzero;stroke:url(#radialGradient4645);stroke-width:0.8564384;stroke-miterlimit:4;stroke-dasharray:none;marker:none;visibility:visible;display:inline;overflow:visible;enable-background:accumulate"
       id="rect3482"
       width="112"
       height="39.999985"
       x="8"
       y="0"
       rx="3.4691236"
       ry="3.4691236" />
    <rect
       ry="3.4691236"
       rx="3.4691236"
       y="-8"
       x="8"
       height="39.999985"
       width="112"
       id="rect4682"
       style="color:#000000;fill:url(#radialGradient4684);fill-opacity:1;fill-rule:nonzero;stroke:url(#radialGradient4686);stroke-width:0.8564384;stroke-miterlimit:4;stroke-dasharray:none;marker:none;visibility:visible;display:inline;overflow:visible;enable-background:accumulate" />
    <rect
       style="color:#000000;fill:url(#radialGradient4690);fill-opacity:1;fill-rule:nonzero;stroke:url(#radialGradient4692);stroke-width:0.8564384;stroke-miterlimit:4;stroke-dasharray:none;marker:none;visibility:visible;display:inline;overflow:visible;enable-background:accumulate"
       id="rect4688"
       width="112"
       height="39.999985"
       x="8"
       y="-16"
       rx="3.4691236"
       ry="3.4691236" />
    <rect
       style="color:#000000;fill:url(#radialGradient4638);fill-opacity:1;fill-rule:nonzero;stroke:url(#radialGradient4640);stroke-width:0.8564384;stroke-miterlimit:4;stroke-dasharray:none;marker:none;visibility:visible;display:inline;overflow:visible;enable-background:accumulate"
       id="rect3482-2-1"
       width="112"
       height="92"
       x="8"
       y="-76"
       rx="3.4691236"
       ry="3.4691236" />
    <rect
       style="opacity:1;fill:url(#linearGradient5553);fill-opacity:1;stroke:none"
       id="rect5545"
       width="24"
       height="92"
       x="88"
       y="4"
       transform="translate(0,-80)" />
    <path
       style="fill:url(#linearGradient5539);fill-opacity:1;stroke:none;stroke-width:2;stroke-miterlimit:4;stroke-dasharray:none"
       d="M 96 4 L 96 12 L 104 12 L 104 20 L 96 20 L 96 28 L 104 28 L 104 36 L 96 36 L 96 44 L 104 44 L 104 52 L 96 52 L 96 60 L 104 60 L 104 68 L 96 68 L 96 76 L 104 76 L 104 84 L 96 84 L 96 92 L 104 92 L 104 96 L 112 96 L 112 4 L 96 4 z "
       transform="translate(0,-80)"
       id="rect4722" />
    <rect
       style="fill:url(#linearGradient5581);fill-opacity:1;stroke:none"
       id="rect5572"
       width="24"
       height="24"
       x="88"
       y="96"
       transform="translate(0,-80)" />
    <path
       style="fill:url(#linearGradient5570);stroke:none;stroke-width:1;stroke-linecap:butt;stroke-linejoin:miter;stroke-miterlimit:4;stroke-opacity:1;stroke-dasharray:none;fill-opacity:1"
       d="M 104 96 L 104 100 L 96 100 L 96 108 L 104 108 L 104 116 L 96 116 L 96 120 L 112 120 L 112 96 L 104 96 z "
       transform="translate(0,-80)"
       id="path5559" />
    <path
       style="fill:none;stroke:url(#radialGradient4713);stroke-width:2;stroke-linecap:butt;stroke-linejoin:miter;stroke-miterlimit:4;stroke-opacity:1;stroke-dasharray:none"
       d="m 96,-76 0,8 8,0 0,8 -8,0 0,8 8,0 0,8 -8,0 0,8 8,0 0,8 -8,0 0,8 8,0 0,8 -8,0 0,8 8,0 0,8 -8,0 0,8 8,0 0,8 -8,0 0,8 8,0 0,8 -8,0 0,4"
       id="path8272"
       inkscape:connector-curvature="0" />
    <path
       style="fill:none;stroke:#000000;stroke-width:1;stroke-linecap:butt;stroke-linejoin:miter;stroke-miterlimit:4;stroke-opacity:1;stroke-dasharray:none"
       d="m 112,40 0,-116 -16,0 0,8 8,0 0,8 -8,0 0,8 8,0 0,8 -8,0 0,8 8,0 0,8 -8,0 0,8 8,0 0,8 -8,0 0,8 8,0 0,8 -8,0 0,8 8,0 0,8 -8,0 0,8 8,0 0,8 -8,0 0,4 z"
       id="path4728"
       inkscape:connector-curvature="0"
       sodipodi:nodetypes="ccccccccccccccccccccccccccccccccc" />
    <path
       sodipodi:nodetypes="ccccccccccccccccccccccccccccccccc"
       inkscape:connector-curvature="0"
       id="path4741"
       d="m 88,-76 0,116 8,0 0,-4 8,0 0,-8 -8,0 0,-8 8,0 0,-8 -8,0 0,-8 8,0 0,-8 -8,0 0,-8 8,0 0,-8 -8,0 0,-8 8,0 0,-8 -8,0 0,-8 8,0 0,-8 -8,0 0,-8 8,0 0,-8 -8,0 0,-8 z"
       style="fill:none;stroke:#000000;stroke-width:1;stroke-linecap:butt;stroke-linejoin:miter;stroke-miterlimit:4;stroke-opacity:1;stroke-dasharray:none" />
    <path
       style="fill:url(#linearGradient5613);fill-opacity:1;stroke:url(#linearGradient5629)"
       d="m 16,-32 0,36 28,0 0,-36 -28,0 z m 5.5625,3.875 16.875,0 1,0 0,1 0,1.5 0,0.1875 -0.0625,0.1875 -9.53125,24.71875 -0.25,0.65625 -0.6875,0 -3.71875,0 -1.4375,0 0.53125,-1.375 8.40625,-21.875 -11.125,0 -1,0 0,-1 0,-3 L 21,-28 l 0.5625,-0.125 z"
       id="rect5600"
       inkscape:connector-curvature="0" />
    <path
       style="font-size:36px;font-style:normal;font-variant:normal;font-weight:normal;font-stretch:normal;text-indent:0;text-align:start;text-decoration:none;line-height:125%;letter-spacing:0px;word-spacing:0px;text-transform:none;direction:ltr;block-progression:tb;writing-mode:lr-tb;text-anchor:start;baseline-shift:baseline;color:#000000;fill:url(#linearGradient5643);fill-opacity:1;fill-rule:nonzero;stroke:none;stroke-width:2;marker:none;visibility:visible;display:inline;overflow:visible;enable-background:accumulate;font-family:Sans;-inkscape-font-specification:Sans"
       d="M 50.90625,-20.6875 50,-20 l -0.09375,0.3125 0,2.59375 0,1 1,0 9.53125,0 -10.71875,12.5 -0.25,0.28125 0,0.375 0,2.9375 0,1 1,0 15.8125,0 1,0 0,-1 0,-2.59375 0,-1 -1,0 -9.96875,0 10.71875,-12.5 0.25,-0.28125 0,-0.375 0,-2.9375 0,-1 -1,0 z"
       id="path5586"
       inkscape:connector-curvature="0"
       sodipodi:nodetypes="ccccccccccccccccccccccccccc" />
    <rect
       ry="0"
       rx="0"
       y="-32"
       x="44"
       height="36"
       width="28"
       id="rect5602"
       style="fill:none;stroke:url(#linearGradient5637)" />
    <rect
       style="fill:url(#linearGradient5661);fill-opacity:1;stroke:none"
       id="rect5653"
       width="24"
       height="24"
       x="88"
       y="96"
       transform="translate(0,-80)" />
  </g>
</svg>
