<?xml version="1.0" encoding="UTF-8" standalone="no"?>
<!-- Created with Inkscape (http://www.inkscape.org/) -->

<svg
   xmlns:dc="http://purl.org/dc/elements/1.1/"
   xmlns:cc="http://creativecommons.org/ns#"
   xmlns:rdf="http://www.w3.org/1999/02/22-rdf-syntax-ns#"
   xmlns:svg="http://www.w3.org/2000/svg"
   xmlns="http://www.w3.org/2000/svg"
   xmlns:xlink="http://www.w3.org/1999/xlink"
   xmlns:sodipodi="http://sodipodi.sourceforge.net/DTD/sodipodi-0.dtd"
   xmlns:inkscape="http://www.inkscape.org/namespaces/inkscape"
   width="128"
   height="128"
   id="svg2"
   version="1.1"
   inkscape:version="0.91 r13725"
   sodipodi:docname="application-x-php.svg">
  <defs
     id="defs4">
    <linearGradient
       id="linearGradient4633">
      <stop
         style="stop-color:#ffffff;stop-opacity:1;"
         offset="0"
         id="stop4635" />
      <stop
         style="stop-color:#7d7d7d;stop-opacity:1;"
         offset="1"
         id="stop4637" />
    </linearGradient>
    <linearGradient
       id="linearGradient4216-1">
      <stop
         style="stop-color:#ffffff;stop-opacity:1;"
         offset="0"
         id="stop4218-0" />
      <stop
         style="stop-color:#c6c6c6;stop-opacity:1;"
         offset="1"
         id="stop4220-9" />
    </linearGradient>
    <filter
       inkscape:collect="always"
       id="filter4495">
      <feGaussianBlur
         inkscape:collect="always"
         stdDeviation="2.0800002"
         id="feGaussianBlur4497" />
    </filter>
    <filter
       inkscape:collect="always"
       id="filter4577"
       x="-0.18"
       width="1.36"
       y="-0.18"
       height="1.36">
      <feGaussianBlur
         inkscape:collect="always"
         stdDeviation="1.5"
         id="feGaussianBlur4579" />
    </filter>
    <radialGradient
       inkscape:collect="always"
       xlink:href="#linearGradient4216-1"
       id="radialGradient4631"
       cx="77.611282"
       cy="39.420414"
       fx="77.611282"
       fy="39.420414"
       r="48"
       gradientTransform="matrix(7.3333334,1.1091983e-7,-1.2861914e-7,6.6666669,-489.14941,-230.80277)"
       gradientUnits="userSpaceOnUse" />
    <linearGradient
       inkscape:collect="always"
       xlink:href="#linearGradient4633"
       id="linearGradient4639"
       x1="99"
       y1="945.36218"
       x2="105"
       y2="939.36218"
       gradientUnits="userSpaceOnUse" />
  </defs>
  <sodipodi:namedview
     id="base"
     pagecolor="#ffffff"
     bordercolor="#666666"
     borderopacity="1.0"
     inkscape:pageopacity="0.0"
     inkscape:pageshadow="2"
     inkscape:zoom="2.0660776"
     inkscape:cx="19.239958"
     inkscape:cy="98.091955"
     inkscape:document-units="px"
     inkscape:current-layer="layer1"
     showgrid="true"
     inkscape:window-width="1920"
     inkscape:window-height="1028"
     inkscape:window-x="-8"
     inkscape:window-y="-8"
     inkscape:window-maximized="1"
     showguides="true"
     inkscape:guide-bbox="true">
    <inkscape:grid
       type="xygrid"
       id="grid2985"
       empspacing="2"
       visible="true"
       enabled="true"
       snapvisiblegridlinesonly="true" />
  </sodipodi:namedview>
  <metadata
     id="metadata7">
    <rdf:RDF>
      <cc:Work
         rdf:about="">
        <dc:format>image/svg+xml</dc:format>
        <dc:type
           rdf:resource="http://purl.org/dc/dcmitype/StillImage" />
        <dc:title />
      </cc:Work>
    </rdf:RDF>
  </metadata>
  <g
     inkscape:label="Layer 1"
     inkscape:groupmode="layer"
     id="layer1"
     transform="translate(0,-924.36218)">
    <path
       id="path4473"
       d="m 20,934.36218 c -2.216,0 -4,1.784 -4,4 l 0,104.00002 c 0,2.216 1.784,4 4,4 l 88,0 c 2.216,0 4,-1.784 4,-4 l 0,-88.00002 -20,-20 -72,0 z"
       style="fill:#000000;fill-opacity:1;stroke:none;filter:url(#filter4495)"
       inkscape:connector-curvature="0" />
    <path
       style="fill:url(#radialGradient4631);fill-opacity:1;stroke:none"
       d="M 20 8 C 17.784 8 16 9.7840015 16 12 L 16 116 C 16 118.216 17.784 120 20 120 L 108 120 C 110.216 120 112 118.216 112 116 L 112 28 L 92 8 L 20 8 z "
       id="rect4276"
       transform="translate(0,924.36218)" />
    <path
       inkscape:connector-curvature="0"
       id="path4499"
       d="m 112,952.36218 -20,-20 0,16 c 0,2.216 1.784,4 4,4 l 16,0 z"
       style="fill:#000000;fill-opacity:1;stroke:none;filter:url(#filter4577)" />
    <path
       style="fill:url(#linearGradient4639);fill-opacity:1.0;stroke:none"
       d="m 112,952.36218 -20,-20 0,16 c 0,2.216 1.784,4 4,4 l 16,0 z"
       id="rect4326"
       inkscape:connector-curvature="0" />
    <text
       xml:space="preserve"
       style="font-size:4px;font-style:normal;font-weight:normal;line-height:125%;letter-spacing:0px;word-spacing:0px;fill:#808080;fill-opacity:1;stroke:none;font-family:Sans"
       x="28"
       y="948.36218"
       id="text3280"
       sodipodi:linespacing="125%"><tspan
         sodipodi:role="line"
         id="tspan3282"
         x="28"
         y="948.36218"
         style="font-size:4px;fill:#808080">jdadna sdjsf 4 65j35 &lt; &lt;d</tspan><tspan
         sodipodi:role="line"
         x="28"
         y="953.36218"
         id="tspan3284"
         style="font-size:4px;fill:#808080">sfgd sdfg sdgwerghr drzed</tspan><tspan
         sodipodi:role="line"
         x="28"
         y="958.36218"
         style="font-size:4px;fill:#808080"
         id="tspan3300">rtgz rdhg </tspan><tspan
         sodipodi:role="line"
         x="28"
         y="963.36218"
         id="tspan3286"
         style="font-size:4px;fill:#808080">sdtfgs ert s</tspan><tspan
         sodipodi:role="line"
         x="28"
         y="968.36218"
         id="tspan3288"
         style="font-size:4px;fill:#808080"> trdst</tspan><tspan
         sodipodi:role="line"
         x="28"
         y="973.36218"
         id="tspan3290"
         style="font-size:4px;fill:#808080"> srt rstdrtg rtd trst ts st&lt; s</tspan><tspan
         sodipodi:role="line"
         x="28"
         y="978.36218"
         style="font-size:4px;fill:#808080"
         id="tspan3302">&lt;rt&lt; &lt;st srt</tspan><tspan
         sodipodi:role="line"
         x="28"
         y="983.36218"
         id="tspan3292"
         style="font-size:4px;fill:#808080">st s rtsrt </tspan><tspan
         sodipodi:role="line"
         x="28"
         y="988.36218"
         id="tspan3294"
         style="font-size:4px;fill:#808080" /><tspan
         sodipodi:role="line"
         x="28"
         y="993.36218"
         id="tspan3296"
         style="font-size:4px;fill:#808080">st stsre tgsrtr eridztetze</tspan><tspan
         sodipodi:role="line"
         x="28"
         y="998.36218"
         id="tspan3298"
         style="font-size:4px;fill:#808080"> ezetrz tzhrthjrthr hrthr rhrhrth</tspan></text>
    <path
       style="font-size:6.59194613px;font-style:normal;font-weight:normal;line-height:125%;letter-spacing:0px;word-spacing:0px;fill:#666666;stroke:none;font-family:Sans"
       d="M 59.1875 71.9375 L 51.4375 112 L 60.65625 112 L 63.4375 97.8125 C 63.969648 95.186038 64.925079 93.13259 66.28125 91.65625 C 67.654554 90.162784 69.281996 89.406273 71.1875 89.40625 C 72.303302 89.406273 73.180398 89.711694 73.78125 90.3125 C 74.39922 90.91335 74.687475 91.776363 74.6875 92.875 C 74.687475 93.269849 74.651391 93.813357 74.53125 94.5 C 74.428226 95.169511 74.268474 95.990274 74.0625 96.96875 L 71.15625 112 L 80.40625 112 L 83.8125 94.4375 C 83.966965 93.647858 84.08755 92.919514 84.15625 92.25 C 84.242048 91.580526 84.281216 90.9556 84.28125 90.40625 C 84.281216 87.882795 83.566954 85.953015 82.125 84.5625 C 80.682981 83.17204 78.629533 82.46878 75.96875 82.46875 C 74.097574 82.46878 72.31038 82.880702 70.59375 83.6875 C 68.877078 84.494354 67.168219 85.709873 65.46875 87.375 L 68.46875 71.9375 L 59.1875 71.9375 z M 37.15625 82.46875 C 35.319408 82.46878 33.638716 82.880702 32.09375 83.6875 C 30.548744 84.477188 29.063888 85.692707 27.65625 87.375 L 28.5 83.15625 L 19.25 83.15625 L 16 99.84375 L 16 116 C 16 118.216 17.784 120 20 120 L 21.34375 120 L 23.71875 107.84375 C 24.662896 109.52607 25.814164 110.75567 27.1875 111.5625 C 28.577972 112.35216 30.275831 112.75 32.25 112.75 C 34.498792 112.75 36.605491 112.17832 38.5625 111.0625 C 40.536622 109.94668 42.281566 108.31924 43.84375 106.15625 C 45.079707 104.4396 46.035138 102.53183 46.6875 100.4375 C 47.356959 98.343197 47.687464 96.183248 47.6875 93.96875 C 47.687464 90.415301 46.732033 87.622508 44.84375 85.5625 C 42.955401 83.502545 40.400695 82.46878 37.15625 82.46875 z M 112 82.5 C 110.37791 82.574128 108.85564 82.963254 107.46875 83.6875 C 105.92374 84.477188 104.47014 85.692707 103.0625 87.375 L 103.90625 83.15625 L 94.625 83.15625 L 87.4375 120 L 96.75 120 L 99.125 107.84375 C 100.06915 109.52607 101.22041 110.75567 102.59375 111.5625 C 103.98422 112.35216 105.65083 112.75 107.625 112.75 C 109.14858 112.75 110.61035 112.48094 112 111.96875 L 112 101.625 C 111.78057 102.04384 111.54766 102.46229 111.28125 102.84375 C 109.77057 104.98957 107.87996 106.06251 105.5625 106.0625 C 104.05183 106.06251 102.85831 105.61142 102 104.71875 C 101.15883 103.80893 100.71874 102.54808 100.71875 100.96875 C 100.71874 97.466793 101.47525 94.648916 102.96875 92.46875 C 104.47939 90.271456 106.41225 89.156273 108.78125 89.15625 C 110.13309 89.15627 111.21327 89.509036 112 90.21875 L 112 82.5 z M 33.40625 89.15625 C 34.951214 89.156273 36.130649 89.63553 36.9375 90.5625 C 37.761468 91.472346 38.156224 92.780284 38.15625 94.53125 C 38.156224 97.895903 37.416879 100.68078 35.90625 102.84375 C 34.395573 104.98957 32.473711 106.06251 30.15625 106.0625 C 28.645579 106.06251 27.452061 105.61142 26.59375 104.71875 C 25.752576 103.80893 25.343737 102.54808 25.34375 100.96875 C 25.343737 97.466793 26.100248 94.648916 27.59375 92.46875 C 29.104387 90.271456 31.03725 89.156273 33.40625 89.15625 z "
       transform="translate(0,924.36218)"
       id="text4130" />
  </g>
</svg>
