<?xml version="1.0" encoding="UTF-8" standalone="no"?>
<!-- Created with Inkscape (http://www.inkscape.org/) -->

<svg
   xmlns:dc="http://purl.org/dc/elements/1.1/"
   xmlns:cc="http://creativecommons.org/ns#"
   xmlns:rdf="http://www.w3.org/1999/02/22-rdf-syntax-ns#"
   xmlns:svg="http://www.w3.org/2000/svg"
   xmlns="http://www.w3.org/2000/svg"
   xmlns:xlink="http://www.w3.org/1999/xlink"
   xmlns:sodipodi="http://sodipodi.sourceforge.net/DTD/sodipodi-0.dtd"
   xmlns:inkscape="http://www.inkscape.org/namespaces/inkscape"
   width="128"
   height="128"
   id="svg2"
   version="1.1"
   inkscape:version="0.91 r13725"
   sodipodi:docname="application-vnd.ms-powerpoint.svg">
  <defs
     id="defs4">
    <linearGradient
       inkscape:collect="always"
       id="linearGradient4875">
      <stop
         style="stop-color:#ff8418;stop-opacity:1;"
         offset="0"
         id="stop4877" />
      <stop
         style="stop-color:#c54300;stop-opacity:1;"
         offset="1"
         id="stop4879" />
    </linearGradient>
    <linearGradient
       id="linearGradient4633">
      <stop
         style="stop-color:#ffffff;stop-opacity:1;"
         offset="0"
         id="stop4635" />
      <stop
         style="stop-color:#7d7d7d;stop-opacity:1;"
         offset="1"
         id="stop4637" />
    </linearGradient>
    <linearGradient
       id="linearGradient4216-1">
      <stop
         style="stop-color:#ffffff;stop-opacity:1;"
         offset="0"
         id="stop4218-0" />
      <stop
         style="stop-color:#c6c6c6;stop-opacity:1;"
         offset="1"
         id="stop4220-9" />
    </linearGradient>
    <filter
       inkscape:collect="always"
       id="filter4495">
      <feGaussianBlur
         inkscape:collect="always"
         stdDeviation="2.0800002"
         id="feGaussianBlur4497" />
    </filter>
    <filter
       inkscape:collect="always"
       id="filter4577"
       x="-0.18"
       width="1.36"
       y="-0.18"
       height="1.36">
      <feGaussianBlur
         inkscape:collect="always"
         stdDeviation="1.5"
         id="feGaussianBlur4579" />
    </filter>
    <radialGradient
       inkscape:collect="always"
       xlink:href="#linearGradient4216-1"
       id="radialGradient4631"
       cx="77.611282"
       cy="39.420414"
       fx="77.611282"
       fy="39.420414"
       r="48"
       gradientTransform="matrix(7.3333334,1.1091983e-7,-1.2861914e-7,6.6666669,-489.14941,-230.80277)"
       gradientUnits="userSpaceOnUse" />
    <linearGradient
       inkscape:collect="always"
       xlink:href="#linearGradient4633"
       id="linearGradient4639"
       x1="99"
       y1="945.36218"
       x2="105"
       y2="939.36218"
       gradientUnits="userSpaceOnUse" />
    <radialGradient
       inkscape:collect="always"
       xlink:href="#linearGradient4875"
       id="radialGradient4894"
       gradientUnits="userSpaceOnUse"
       gradientTransform="matrix(4.6666665,6.4296275e-7,-6.8888863e-7,4.9999996,-249.33328,-256.00003)"
       cx="68"
       cy="64"
       fx="68"
       fy="64"
       r="12" />
  </defs>
  <sodipodi:namedview
     id="base"
     pagecolor="#ffffff"
     bordercolor="#666666"
     borderopacity="1.0"
     inkscape:pageopacity="0.0"
     inkscape:pageshadow="2"
     inkscape:zoom="1.4609375"
     inkscape:cx="78.456977"
     inkscape:cy="51.565366"
     inkscape:document-units="px"
     inkscape:current-layer="layer1"
     showgrid="true"
     inkscape:window-width="1920"
     inkscape:window-height="1028"
     inkscape:window-x="-8"
     inkscape:window-y="-8"
     inkscape:window-maximized="1"
     showguides="true"
     inkscape:guide-bbox="true">
    <inkscape:grid
       type="xygrid"
       id="grid2985"
       empspacing="2"
       visible="true"
       enabled="true"
       snapvisiblegridlinesonly="true" />
  </sodipodi:namedview>
  <metadata
     id="metadata7">
    <rdf:RDF>
      <cc:Work
         rdf:about="">
        <dc:format>image/svg+xml</dc:format>
        <dc:type
           rdf:resource="http://purl.org/dc/dcmitype/StillImage" />
        <dc:title />
      </cc:Work>
    </rdf:RDF>
  </metadata>
  <g
     inkscape:label="Layer 1"
     inkscape:groupmode="layer"
     id="layer1"
     transform="translate(0,-924.36218)">
    <path
       id="path4473"
       d="m 20,934.36218 c -2.216,0 -4,1.784 -4,4 l 0,104.00002 c 0,2.216 1.784,4 4,4 l 88,0 c 2.216,0 4,-1.784 4,-4 l 0,-88.00002 -20,-20 -72,0 z"
       style="fill:#000000;fill-opacity:1;stroke:none;filter:url(#filter4495)"
       inkscape:connector-curvature="0" />
    <path
       style="fill:url(#radialGradient4631);fill-opacity:1;stroke:none"
       d="M 20 8 C 17.784 8 16 9.7840015 16 12 L 16 116 C 16 118.216 17.784 120 20 120 L 108 120 C 110.216 120 112 118.216 112 116 L 112 28 L 92 8 L 20 8 z "
       id="rect4276"
       transform="translate(0,924.36218)" />
    <path
       inkscape:connector-curvature="0"
       id="path4499"
       d="m 112,952.36218 -20,-20 0,16 c 0,2.216 1.784,4 4,4 l 16,0 z"
       style="fill:#000000;fill-opacity:1;stroke:none;filter:url(#filter4577)" />
    <path
       style="fill:url(#linearGradient4639);fill-opacity:1.0;stroke:none"
       d="m 112,952.36218 -20,-20 0,16 c 0,2.216 1.784,4 4,4 l 16,0 z"
       id="rect4326"
       inkscape:connector-curvature="0" />
    <path
       style="fill:#999999;fill-opacity:1;stroke:none"
       d="m 54.511628,960.17613 0,2.7907 39.069767,0 0,-2.7907 -39.069767,0 z m 5.581395,4.18605 c -1.546046,0 -2.790697,1.24465 -2.790697,2.79069 l 0,33.48843 c 0,1.546 1.244651,2.7907 2.790697,2.7907 l 27.906977,0 c 1.546047,0 2.790698,-1.2447 2.790698,-2.7907 l 0,-33.48843 c 0,-1.54604 -1.244651,-2.79069 -2.790698,-2.79069 l -27.906977,0 z m -5.581395,40.46512 0,2.7907 39.069767,0 0,-2.7907 -39.069767,0 z m 19.534884,4.1861 -11.162791,11.1628 4.186047,0 6.976744,-6.9768 6.976744,6.9768 4.186046,0 -11.16279,-11.1628 z"
       id="rect4844"
       inkscape:connector-curvature="0" />
    <path
       style="fill:url(#radialGradient4894);fill-opacity:1;stroke:none"
       d="M 20 8 C 17.784 8 16 9.7840015 16 12 L 16 116 C 16 118.216 17.784 120 20 120 L 40 120 L 40 8 L 20 8 z M 63 65.34375 L 63 69.125 L 68.96875 69.125 L 68.96875 108.21875 L 63 108.21875 L 63 112 L 88.53125 112 L 88.53125 108.21875 L 81 108.21875 L 81 92.6875 L 89.5625 92.6875 C 94.729132 92.687519 98.843711 91.447937 101.90625 88.96875 C 104.98954 86.468776 106.5312 83.135446 106.53125 78.96875 C 106.5312 74.822954 104.99995 71.520874 101.9375 69.0625 C 98.874961 66.583379 94.749965 65.343797 89.5625 65.34375 L 63 65.34375 z M 81 69.125 L 84.5 69.125 C 87.229139 69.125043 89.395804 70.020875 91 71.8125 C 92.604134 73.583372 93.406217 75.968786 93.40625 78.96875 C 93.406217 81.989613 92.593717 84.406278 90.96875 86.21875 C 89.364554 88.010441 87.208306 88.906273 84.5 88.90625 L 81 88.90625 L 81 69.125 z "
       transform="translate(0,924.36218)"
       id="rect4707" />
  </g>
</svg>
