<?xml version="1.0" encoding="UTF-8" standalone="no"?>
<!-- Created with Inkscape (http://www.inkscape.org/) -->

<svg
   xmlns:dc="http://purl.org/dc/elements/1.1/"
   xmlns:cc="http://creativecommons.org/ns#"
   xmlns:rdf="http://www.w3.org/1999/02/22-rdf-syntax-ns#"
   xmlns:svg="http://www.w3.org/2000/svg"
   xmlns="http://www.w3.org/2000/svg"
   xmlns:xlink="http://www.w3.org/1999/xlink"
   xmlns:sodipodi="http://sodipodi.sourceforge.net/DTD/sodipodi-0.dtd"
   xmlns:inkscape="http://www.inkscape.org/namespaces/inkscape"
   width="128"
   height="128"
   id="svg2"
   version="1.1"
   inkscape:version="0.91 r13725"
   sodipodi:docname="application-x-theme.svg">
  <defs
     id="defs4">
    <linearGradient
       id="linearGradient5685">
      <stop
         id="stop5687"
         offset="0"
         style="stop-color:#ffffff;stop-opacity:0.69868994;" />
      <stop
         style="stop-color:#ffffff;stop-opacity:0.12227074;"
         offset="0.5"
         id="stop5691" />
      <stop
         id="stop5689"
         offset="1"
         style="stop-color:#ffffff;stop-opacity:0.79912663;" />
    </linearGradient>
    <linearGradient
       id="linearGradient5661">
      <stop
         style="stop-color:#ffffff;stop-opacity:0;"
         offset="0"
         id="stop5663" />
      <stop
         style="stop-color:#ffffff;stop-opacity:1;"
         offset="1"
         id="stop5665" />
    </linearGradient>
    <linearGradient
       id="linearGradient5633">
      <stop
         style="stop-color:#000000;stop-opacity:1;"
         offset="0"
         id="stop5635" />
      <stop
         id="stop5643"
         offset="0.5"
         style="stop-color:#8a8a8a;stop-opacity:1;" />
      <stop
         style="stop-color:#000000;stop-opacity:1;"
         offset="1"
         id="stop5637" />
    </linearGradient>
    <linearGradient
       id="linearGradient4216-1">
      <stop
         style="stop-color:#ffffff;stop-opacity:1;"
         offset="0"
         id="stop4218-0" />
      <stop
         style="stop-color:#c6c6c6;stop-opacity:1;"
         offset="1"
         id="stop4220-9" />
    </linearGradient>
    <radialGradient
       inkscape:collect="always"
       xlink:href="#linearGradient5633"
       id="radialGradient5641"
       cx="64"
       cy="1011.0288"
       fx="64"
       fy="1011.0288"
       r="56"
       gradientTransform="matrix(1.2142857,4.4551995e-8,-2.6207029e-8,0.71428508,-13.71426,286.19935)"
       gradientUnits="userSpaceOnUse" />
    <linearGradient
       inkscape:collect="always"
       xlink:href="#linearGradient5685"
       id="linearGradient5683"
       x1="4"
       y1="124"
       x2="124"
       y2="4"
       gradientUnits="userSpaceOnUse" />
    <filter
       inkscape:collect="always"
       id="filter5715">
      <feGaussianBlur
         inkscape:collect="always"
         stdDeviation="3.12"
         id="feGaussianBlur5717" />
    </filter>
    <linearGradient
       inkscape:collect="always"
       xlink:href="#linearGradient5685"
       id="linearGradient5757"
       x1="64"
       y1="-24"
       x2="64"
       y2="100"
       gradientUnits="userSpaceOnUse" />
    <radialGradient
       inkscape:collect="always"
       xlink:href="#linearGradient4216-1"
       id="radialGradient4744"
       cx="64"
       cy="64"
       fx="64"
       fy="64"
       r="44"
       gradientTransform="matrix(1,0,0,0.81818182,0,11.636364)"
       gradientUnits="userSpaceOnUse" />
    <linearGradient
       inkscape:collect="always"
       xlink:href="#linearGradient5661"
       id="linearGradient4748"
       gradientUnits="userSpaceOnUse"
       x1="60"
       y1="32"
       x2="60"
       y2="96" />
    <filter
       inkscape:collect="always"
       id="filter4848"
       x="-0.12000004"
       width="1.2400001"
       y="-0.11999996"
       height="1.2399999">
      <feGaussianBlur
         inkscape:collect="always"
         stdDeviation="1.6000005"
         id="feGaussianBlur4850" />
    </filter>
  </defs>
  <sodipodi:namedview
     id="base"
     pagecolor="#ffffff"
     bordercolor="#666666"
     borderopacity="1.0"
     inkscape:pageopacity="0.0"
     inkscape:pageshadow="2"
     inkscape:zoom="2.0660776"
     inkscape:cx="54.990036"
     inkscape:cy="43.934738"
     inkscape:document-units="px"
     inkscape:current-layer="layer1"
     showgrid="true"
     inkscape:window-width="1920"
     inkscape:window-height="1028"
     inkscape:window-x="-8"
     inkscape:window-y="-8"
     inkscape:window-maximized="1"
     showguides="true"
     inkscape:guide-bbox="true">
    <inkscape:grid
       type="xygrid"
       id="grid2985"
       empspacing="2"
       visible="true"
       enabled="true"
       snapvisiblegridlinesonly="true" />
  </sodipodi:namedview>
  <metadata
     id="metadata7">
    <rdf:RDF>
      <cc:Work
         rdf:about="">
        <dc:format>image/svg+xml</dc:format>
        <dc:type
           rdf:resource="http://purl.org/dc/dcmitype/StillImage" />
        <dc:title />
      </cc:Work>
    </rdf:RDF>
  </metadata>
  <g
     inkscape:label="Layer 1"
     inkscape:groupmode="layer"
     id="layer1"
     transform="translate(0,-924.36218)">
    <rect
       style="fill:#000000;fill-opacity:1;stroke:none;filter:url(#filter5715)"
       id="rect5693"
       width="112"
       height="96"
       x="8"
       y="948.36218"
       rx="8"
       ry="8" />
    <rect
       ry="8"
       rx="8"
       y="944.36218"
       x="8"
       height="96"
       width="112"
       id="rect5631"
       style="fill:url(#radialGradient5641);fill-opacity:1;stroke:none" />
    <rect
       style="fill:#000000;fill-opacity:1;stroke:none"
       id="rect5629"
       width="112"
       height="96"
       x="8"
       y="16"
       transform="translate(0,924.36218)"
       rx="8"
       ry="8" />
    <path
       style="fill:url(#linearGradient4748);fill-opacity:1;stroke:none;opacity:0.75000000000000000"
       d="M 16 16 C 11.568 16 8 19.568 8 24 L 8 84.90625 C 9.3096251 85.485016 10.64406 86.054053 12 86.59375 L 12 28 C 12 23.568 15.568 20 20 20 L 108 20 C 112.432 20 116 23.568 116 28 L 116 86.59375 C 117.35594 86.054053 118.69037 85.485016 120 84.90625 L 120 24 C 120 19.568 116.432 16 112 16 L 16 16 z "
       transform="translate(0,924.36218)"
       id="rect5645" />
    <rect
       style="opacity:0.75;fill:none;stroke:url(#linearGradient5683);stroke-width:1;stroke-linecap:round;stroke-linejoin:round;stroke-miterlimit:4;stroke-opacity:1;stroke-dasharray:none;stroke-dashoffset:0"
       id="rect5675"
       width="104"
       height="88"
       x="12"
       y="20"
       transform="translate(0,924.36218)"
       rx="8"
       ry="8" />
    <rect
       style="fill:url(#radialGradient4744);fill-opacity:1;stroke:none"
       id="rect5763"
       width="96"
       height="80"
       x="16"
       y="24"
       transform="translate(0,924.36218)"
       rx="8"
       ry="8" />
    <path
       style="opacity:0.75;fill:url(#linearGradient5757);fill-opacity:1;stroke:none"
       d="m 22,22 c -4.432,0 -8,3.568 -8,8 l 0,50.15625 C 27.216186,85.109888 47.013726,88 64,88 c 16.986274,0 36.78381,-2.890112 50,-7.84375 L 114,30 c 0,-4.432 -3.568,-8 -8,-8 z"
       transform="translate(0,924.36218)"
       id="path5738"
       inkscape:connector-curvature="0"
       sodipodi:nodetypes="sscscsss" />
    <g
       transform="matrix(0.76190476,0,0,0.76190476,15.238095,229.22909)"
       id="g3428">
      <path
         inkscape:connector-curvature="0"
         id="rect4635"
         transform="translate(0,924.36218)"
         d="m 31.3125,30 c -0.600713,0 -1.178405,0.04911 -1.75,0.15625 -0.344832,0.0662 -0.669507,0.146582 -1,0.25 -0.290094,0.08719 -0.566012,0.199181 -0.84375,0.3125 -0.01202,0.005 -0.01926,0.02615 -0.03125,0.03125 -0.264283,0.109188 -0.52975,0.212165 -0.78125,0.34375 C 26.89399,31.10035 26.88723,31.11833 26.875,31.125 23.994336,32.648648 22,35.578659 22,39 l 0,0.3125 0,6.6875 0,58.6875 c 0,5.12 4.192486,9.3125 9.3125,9.3125 l 65.375,0 C 101.80751,114 106,109.8075 106,104.6875 L 106,46 106,39.3125 106,39 c 0,-3.421341 -1.99434,-6.351352 -4.875,-7.875 -0.52768,-0.287683 -1.10532,-0.536575 -1.6875,-0.71875 -0.280642,-0.08435 -0.584322,-0.160205 -0.875,-0.21875 -0.0099,-0.002 -0.02134,0.002 -0.03125,0 C 98.4993,30.1812 98.46957,30.16226 98.4375,30.15625 97.865905,30.049107 97.288213,30 96.6875,30 l -65.375,0 z M 84,36 c 2.209139,0 4,1.790861 4,4 0,2.209139 -1.790861,4 -4,4 -2.209139,0 -4,-1.790861 -4,-4 0,-2.209139 1.790861,-4 4,-4 z m 12,0 c 2.209139,0 4,1.790861 4,4 0,2.209139 -1.790861,4 -4,4 -2.209139,0 -4,-1.790861 -4,-4 0,-2.209139 1.790861,-4 4,-4 z m -70,12 76,0 0,56.6875 C 102,107.6607 99.660703,110 96.6875,110 l -65.375,0 C 28.339297,110 26,107.6607 26,104.6875 L 26,48 z"
         style="font-size:medium;font-style:normal;font-variant:normal;font-weight:normal;font-stretch:normal;text-indent:0;text-align:start;text-decoration:none;line-height:normal;letter-spacing:normal;word-spacing:normal;text-transform:none;direction:ltr;block-progression:tb;writing-mode:lr-tb;text-anchor:start;baseline-shift:baseline;color:#000000;fill:#808080;fill-opacity:1;stroke:none;stroke-width:4;marker:none;visibility:visible;display:inline;overflow:visible;enable-background:accumulate;font-family:Sans;-inkscape-font-specification:Sans" />
      <rect
         ry="4"
         rx="4"
         y="1020.3622"
         x="32"
         height="12"
         width="28"
         id="rect4659"
         style="fill:#808080;fill-opacity:1;stroke:none" />
      <rect
         style="fill:#808080;fill-opacity:1;stroke:none"
         id="rect4661"
         width="28"
         height="12"
         x="68"
         y="1020.3622"
         rx="4"
         ry="4" />
      <path
         transform="translate(0,924.36218)"
         inkscape:connector-curvature="0"
         id="path4663"
         d="m 32,60 44,0"
         style="fill:none;stroke:#999999;stroke-width:2;stroke-linecap:butt;stroke-linejoin:miter;stroke-miterlimit:4;stroke-opacity:1;stroke-dasharray:none" />
      <path
         style="fill:none;stroke:#999999;stroke-width:2;stroke-linecap:butt;stroke-linejoin:miter;stroke-miterlimit:4;stroke-opacity:1;stroke-dasharray:none"
         d="m 32,992.36218 44,0"
         id="path4665"
         inkscape:connector-curvature="0" />
      <path
         sodipodi:nodetypes="cc"
         inkscape:connector-curvature="0"
         id="path4667"
         d="m 32,1000.3622 28,0"
         style="fill:none;stroke:#999999;stroke-width:2;stroke-linecap:butt;stroke-linejoin:miter;stroke-miterlimit:4;stroke-opacity:1;stroke-dasharray:none" />
    </g>
    <path
       style="font-size:medium;font-style:normal;font-variant:normal;font-weight:normal;font-stretch:normal;text-indent:0;text-align:start;text-decoration:none;line-height:normal;letter-spacing:normal;word-spacing:normal;text-transform:none;direction:ltr;block-progression:tb;writing-mode:lr-tb;text-anchor:start;baseline-shift:baseline;color:#000000;fill:#000080;fill-opacity:1;stroke:none;stroke-width:4;marker:none;visibility:visible;display:inline;overflow:visible;enable-background:accumulate;font-family:Sans;-inkscape-font-specification:Sans"
       d="M 32 68 L 32 88.90625 C 32 92.80725 35.192787 96 39.09375 96 L 64 96 L 64 92.9375 L 39.09375 92.9375 C 36.828452 92.9375 35.0625 91.17155 35.0625 88.90625 L 35.0625 68 L 32 68 z M 42.65625 82.28125 C 40.967869 82.28125 39.625 83.655369 39.625 85.34375 L 39.625 88.375 C 39.625 90.063381 40.967869 91.4375 42.65625 91.4375 L 57.90625 91.4375 C 59.594631 91.4375 60.9375 90.063381 60.9375 88.375 L 60.9375 85.34375 C 60.9375 83.655369 59.594631 82.28125 57.90625 82.28125 L 42.65625 82.28125 z "
       transform="translate(0,924.36218)"
       id="path4772" />
    <path
       style="font-size:medium;font-style:normal;font-variant:normal;font-weight:normal;font-stretch:normal;text-indent:0;text-align:start;text-decoration:none;line-height:normal;letter-spacing:normal;word-spacing:normal;text-transform:none;direction:ltr;block-progression:tb;writing-mode:lr-tb;text-anchor:start;baseline-shift:baseline;color:#000000;fill:#008000;fill-opacity:1;stroke:none;stroke-width:4;marker:none;visibility:visible;display:inline;overflow:visible;enable-background:accumulate;font-family:Sans;-inkscape-font-specification:Sans"
       d="M 92.9375 68 L 92.9375 88.90625 C 92.9375 91.17155 91.171548 92.9375 88.90625 92.9375 L 64 92.9375 L 64 96 L 88.90625 96 C 92.80721 96 96 92.80725 96 88.90625 L 96 68 L 92.9375 68 z M 70.09375 82.28125 C 68.405369 82.28125 67.0625 83.655369 67.0625 85.34375 L 67.0625 88.375 C 67.0625 90.063381 68.405369 91.4375 70.09375 91.4375 L 85.34375 91.4375 C 87.032131 91.4375 88.375 90.063381 88.375 88.375 L 88.375 85.34375 C 88.375 83.655369 87.032131 82.28125 85.34375 82.28125 L 70.09375 82.28125 z "
       transform="translate(0,924.36218)"
       id="path4805" />
    <path
       style="font-size:medium;font-style:normal;font-variant:normal;font-weight:normal;font-stretch:normal;text-indent:0;text-align:start;text-decoration:none;line-height:normal;letter-spacing:normal;word-spacing:normal;text-transform:none;direction:ltr;block-progression:tb;writing-mode:lr-tb;text-anchor:start;baseline-shift:baseline;color:#000000;fill:#d40000;fill-opacity:1;stroke:none;stroke-width:4;marker:none;visibility:visible;display:inline;overflow:visible;enable-background:accumulate;font-family:Sans;-inkscape-font-specification:Sans"
       d="M 64 32 L 64 45.71875 L 92.9375 45.71875 L 92.9375 68 L 96 68 L 96 44.1875 L 96 39.09375 L 96 38.84375 C 96 36.23701 94.476038 34.00462 92.28125 32.84375 C 91.879208 32.62458 91.443565 32.4513 91 32.3125 C 90.786177 32.2482 90.565219 32.20086 90.34375 32.15625 C 90.33625 32.15425 90.32005 32.15825 90.3125 32.15625 C 90.28816 32.15125 90.27444 32.1296 90.25 32.125 C 89.814499 32.0434 89.363937 32 88.90625 32 L 64 32 z M 79.25 36.5625 C 80.933153 36.5625 82.28125 37.94185 82.28125 39.625 C 82.28125 41.30815 80.933153 42.65625 79.25 42.65625 C 77.566846 42.65625 76.1875 41.30815 76.1875 39.625 C 76.1875 37.94185 77.566846 36.5625 79.25 36.5625 z M 88.375 36.5625 C 90.058153 36.5625 91.4375 37.94185 91.4375 39.625 C 91.4375 41.30815 90.058153 42.65625 88.375 42.65625 C 86.691846 42.65625 85.34375 41.30815 85.34375 39.625 C 85.34375 37.94185 86.691846 36.5625 88.375 36.5625 z M 64 54.09375 L 64 55.59375 L 73.15625 55.59375 L 73.15625 54.09375 L 64 54.09375 z M 64 60.1875 L 64 61.6875 L 73.15625 61.6875 L 73.15625 60.1875 L 64 60.1875 z "
       transform="translate(0,924.36218)"
       id="path4807" />
    <path
       inkscape:connector-curvature="0"
       id="path4818"
       d="m 76,990.36218 32,16.00002 -16,16 z"
       style="fill:#000000;stroke:none;filter:url(#filter4848)" />
    <path
       style="fill:#000000;stroke:#ececec;stroke-width:2;stroke-linecap:butt;stroke-linejoin:miter;stroke-miterlimit:4;stroke-opacity:1;stroke-dasharray:none"
       d="m 76,988.36218 32,16.00002 -16,16 z"
       id="path4816"
       inkscape:connector-curvature="0" />
  </g>
</svg>
