<?xml version="1.0" encoding="UTF-8" standalone="no"?>
<!-- Created with Inkscape (http://www.inkscape.org/) -->

<svg
   xmlns:dc="http://purl.org/dc/elements/1.1/"
   xmlns:cc="http://creativecommons.org/ns#"
   xmlns:rdf="http://www.w3.org/1999/02/22-rdf-syntax-ns#"
   xmlns:svg="http://www.w3.org/2000/svg"
   xmlns="http://www.w3.org/2000/svg"
   xmlns:xlink="http://www.w3.org/1999/xlink"
   xmlns:sodipodi="http://sodipodi.sourceforge.net/DTD/sodipodi-0.dtd"
   xmlns:inkscape="http://www.inkscape.org/namespaces/inkscape"
   width="128"
   height="128"
   id="svg2"
   version="1.1"
   inkscape:version="0.91 r13725"
   sodipodi:docname="deb.svg">
  <defs
     id="defs4">
    <linearGradient
       id="linearGradient5129">
      <stop
         style="stop-color:#c60050;stop-opacity:1;"
         offset="0"
         id="stop5131" />
      <stop
         style="stop-color:#53001f;stop-opacity:1;"
         offset="1"
         id="stop5133" />
    </linearGradient>
    <linearGradient
       id="linearGradient4303">
      <stop
         style="stop-color:#ffffff;stop-opacity:1;"
         offset="0"
         id="stop4305" />
      <stop
         style="stop-color:#ffffff;stop-opacity:0;"
         offset="1"
         id="stop4307" />
    </linearGradient>
    <linearGradient
       inkscape:collect="always"
       xlink:href="#linearGradient4303"
       id="linearGradient4230"
       gradientUnits="userSpaceOnUse"
       gradientTransform="matrix(1.1546364,0,0,1.1546364,-10.474048,-152.79554)"
       x1="56"
       y1="1000.3622"
       x2="36"
       y2="940.36218" />
    <filter
       inkscape:collect="always"
       id="filter4269">
      <feGaussianBlur
         inkscape:collect="always"
         stdDeviation="2.2169021"
         id="feGaussianBlur4271" />
    </filter>
    <linearGradient
       id="linearGradient4216-5">
      <stop
         style="stop-color:#ffffff;stop-opacity:1;"
         offset="0"
         id="stop4218-9" />
      <stop
         style="stop-color:#8d8d8d;stop-opacity:1;"
         offset="1"
         id="stop4220-3" />
    </linearGradient>
    <linearGradient
       id="linearGradient4216-4-2">
      <stop
         style="stop-color:#ffffff;stop-opacity:1;"
         offset="0"
         id="stop4218-8-1" />
      <stop
         style="stop-color:#c6c6c6;stop-opacity:1;"
         offset="1"
         id="stop4220-1-7" />
    </linearGradient>
    <radialGradient
       inkscape:collect="always"
       xlink:href="#linearGradient4216-4-2"
       id="radialGradient5088"
       cx="80"
       cy="972.36206"
       fx="80"
       fy="972.36206"
       r="55.422546"
       gradientTransform="matrix(2.0208382,-6.3272306e-7,6.4373315e-7,2.048266,-81.667675,-1019.2939)"
       gradientUnits="userSpaceOnUse" />
    <radialGradient
       inkscape:collect="always"
       xlink:href="#linearGradient4216-5"
       id="radialGradient5117"
       cx="63.422684"
       cy="988.09418"
       fx="63.422684"
       fy="988.09418"
       r="55.422546"
       gradientTransform="matrix(0.99998451,0.00556538,-0.01041663,1.8716547,10.293596,-861.63002)"
       gradientUnits="userSpaceOnUse" />
    <radialGradient
       inkscape:collect="always"
       xlink:href="#linearGradient5129"
       id="radialGradient5135"
       cx="72"
       cy="44.733849"
       fx="72"
       fy="44.733849"
       r="44.487125"
       gradientTransform="matrix(1.6184457,-1.1624638e-8,1.2916265e-8,1.798273,-44.528087,-40.443672)"
       gradientUnits="userSpaceOnUse" />
  </defs>
  <sodipodi:namedview
     id="base"
     pagecolor="#ffffff"
     bordercolor="#666666"
     borderopacity="1.0"
     inkscape:pageopacity="0.0"
     inkscape:pageshadow="2"
     inkscape:zoom="1.4609375"
     inkscape:cx="-12.767711"
     inkscape:cy="75.822049"
     inkscape:document-units="px"
     inkscape:current-layer="layer1"
     showgrid="true"
     inkscape:window-width="1920"
     inkscape:window-height="1028"
     inkscape:window-x="-8"
     inkscape:window-y="-8"
     inkscape:window-maximized="1"
     showguides="true"
     inkscape:guide-bbox="true">
    <inkscape:grid
       type="xygrid"
       id="grid2985"
       empspacing="2"
       visible="true"
       enabled="true"
       snapvisiblegridlinesonly="true" />
  </sodipodi:namedview>
  <metadata
     id="metadata7">
    <rdf:RDF>
      <cc:Work
         rdf:about="">
        <dc:format>image/svg+xml</dc:format>
        <dc:type
           rdf:resource="http://purl.org/dc/dcmitype/StillImage" />
        <dc:title />
      </cc:Work>
    </rdf:RDF>
  </metadata>
  <g
     inkscape:label="Layer 1"
     inkscape:groupmode="layer"
     id="layer1"
     transform="translate(0,-924.36218)">
    <path
       inkscape:connector-curvature="0"
       id="path4243"
       d="m 8.0001344,953.14577 18.4741826,-18.47418 73.896733,0 18.47418,18.47418 0,73.89673 -18.47418,18.4742 -73.896733,0 -18.4741826,-18.4742 z"
       style="fill:#000000;fill-opacity:1;stroke:none;filter:url(#filter4269)" />
    <path
       style="fill:url(#radialGradient5117);fill-opacity:1;stroke:none"
       d="m 8.0001344,951.14577 18.4741826,-18.47418 73.896733,0 18.47418,18.47418 0,73.89673 -18.47418,18.4742 -73.896733,0 -18.4741826,-18.4742 z"
       id="path3256"
       inkscape:connector-curvature="0" />
    <path
       style="fill:url(#radialGradient5088);fill-opacity:1.0;stroke:none"
       d="m 8.0001344,946.8365 18.4741826,-18.47418 73.896733,0 18.47418,18.47418 0,73.8968 -18.47418,18.4741 -73.896733,0 -18.4741826,-18.4741 z"
       id="path4114"
       inkscape:connector-curvature="0" />
    <path
       style="opacity:0.5;fill:url(#linearGradient4230);fill-opacity:1;stroke:none"
       d="m 10.309407,947.77464 c 0,18.41405 0,36.82809 0,55.24206 36.65335,-3.3662 73.120389,-11.76629 106.226553,-28.03594 -0.5633,-9.22025 1.11509,-19.36906 -0.81646,-28.02257 -5.92428,-5.16201 -10.95395,-12.48378 -17.441232,-16.2866 -23.621936,0 -47.243873,0 -70.865809,0 -5.701017,5.70102 -11.402035,11.40204 -17.103052,17.10305 z"
       id="path4190"
       inkscape:connector-curvature="0" />
    <path
       style="font-size:medium;font-style:normal;font-variant:normal;font-weight:normal;font-stretch:normal;text-indent:0;text-align:start;text-decoration:none;line-height:normal;letter-spacing:normal;word-spacing:normal;text-transform:none;direction:ltr;block-progression:tb;writing-mode:lr-tb;text-anchor:start;baseline-shift:baseline;color:#000000;fill:url(#radialGradient5135);fill-opacity:1;stroke:none;stroke-width:4;marker:none;visibility:visible;display:inline;overflow:visible;enable-background:accumulate;font-family:Sans;-inkscape-font-specification:Sans"
       d="M 26.46875 4 L 8 22.46875 L 8 38.28125 C 9.3428996 31.035082 12.428251 24.06607 17.4375 18.03125 C 23.347102 10.911741 31.439972 6.1008788 40.09375 4 L 26.46875 4 z M 59.65625 4 C 64.973792 5.361357 70.051771 7.9110027 74.46875 11.71875 C 87.832711 23.23943 90.892782 44.45106 78.8125 57.71875 C 69.778963 67.64021 53.400198 69.88866 43.71875 60.28125 C 40.454909 57.04237 38.345677 52.29335 38.125 47.78125 C 37.904323 43.26914 39.384876 39.15962 42.90625 36.125 C 44.768996 34.51973 47.821109 33.41505 50.375 33.46875 C 52.92889 33.52241 54.650638 34.25953 55.875 36.34375 A 5.2600604 5.2600604 0 1 0 64.9375 31.09375 C 61.747702 25.6638 55.880465 23.08114 50.53125 22.96875 C 45.182035 22.85636 40.013985 24.75961 36 28.21875 C 29.864196 33.50642 27.272091 41.06547 27.625 48.28125 C 27.97791 55.49703 31.076886 62.55443 36.3125 67.75 C 50.587781 81.9161 73.652525 78.92369 86.46875 65.03125 L 86.625 64.875 C 102.89843 47.002019 99.022537 19.238761 81.6875 4 L 59.65625 4 z M 8 55.78125 L 8 82.125 C 11.025802 86.386765 14.613492 90.311049 18.75 93.71875 L 19.15625 94.125 C 29.814326 102.7295 43.105471 107.6069 56.71875 108.1875 A 5.2653251 5.2653251 0 0 0 57.1875 97.65625 C 45.799517 97.17055 34.6482 93.03955 25.8125 85.90625 C 16.284931 78.214419 10.110028 67.306967 8 55.78125 z "
       transform="translate(0,924.36218)"
       id="path5119" />
    <text
       sodipodi:linespacing="125%"
       id="text5141"
       y="1020.3622"
       x="16"
       style="font-size:32px;font-style:normal;font-variant:normal;font-weight:bold;font-stretch:normal;line-height:125%;letter-spacing:0px;word-spacing:0px;fill:none;fill-opacity:1;stroke:#ffffff;font-family:Sawasdee;-inkscape-font-specification:Sawasdee Bold;stroke-width:4;stroke-miterlimit:4;stroke-dasharray:none;stroke-linejoin:round;opacity:0.50000000000000000"
       xml:space="preserve"><tspan
         y="1020.3622"
         x="16"
         id="tspan5143"
         sodipodi:role="line">debian</tspan></text>
    <text
       xml:space="preserve"
       style="font-size:32px;font-style:normal;font-variant:normal;font-weight:bold;font-stretch:normal;line-height:125%;letter-spacing:0px;word-spacing:0px;fill:#000000;fill-opacity:1;stroke:none;font-family:Sawasdee;-inkscape-font-specification:Sawasdee Bold"
       x="16"
       y="1020.3622"
       id="text5137"
       sodipodi:linespacing="125%"><tspan
         sodipodi:role="line"
         id="tspan5139"
         x="16"
         y="1020.3622">debian</tspan></text>
  </g>
</svg>
