<?xml version="1.0" encoding="UTF-8" standalone="no"?>
<!-- Created with Inkscape (http://www.inkscape.org/) -->

<svg
   xmlns:dc="http://purl.org/dc/elements/1.1/"
   xmlns:cc="http://creativecommons.org/ns#"
   xmlns:rdf="http://www.w3.org/1999/02/22-rdf-syntax-ns#"
   xmlns:svg="http://www.w3.org/2000/svg"
   xmlns="http://www.w3.org/2000/svg"
   xmlns:xlink="http://www.w3.org/1999/xlink"
   xmlns:sodipodi="http://sodipodi.sourceforge.net/DTD/sodipodi-0.dtd"
   xmlns:inkscape="http://www.inkscape.org/namespaces/inkscape"
   width="128"
   height="128"
   id="svg2"
   version="1.1"
   inkscape:version="0.91 r13725"
   sodipodi:docname="image-x-generic.svg">
  <defs
     id="defs4">
    <linearGradient
       id="linearGradient4202">
      <stop
         id="stop4204"
         offset="0"
         style="stop-color:#838383;stop-opacity:1;" />
      <stop
         style="stop-color:#f7f7f7;stop-opacity:1;"
         offset="0.09090909"
         id="stop4219" />
      <stop
         style="stop-color:#969696;stop-opacity:1;"
         offset="0.18181819"
         id="stop4216" />
      <stop
         style="stop-color:#cfcfcf;stop-opacity:1;"
         offset="0.29411766"
         id="stop4214" />
      <stop
         style="stop-color:#5c5c5c;stop-opacity:1;"
         offset="0.41176471"
         id="stop4212" />
      <stop
         style="stop-color:#e4e4e4;stop-opacity:1;"
         offset="0.52941179"
         id="stop4210" />
      <stop
         style="stop-color:#ffffff;stop-opacity:1;"
         offset="0.70588237"
         id="stop4206" />
      <stop
         id="stop4208"
         offset="1"
         style="stop-color:#7c7c7c;stop-opacity:1;" />
    </linearGradient>
    <linearGradient
       id="linearGradient4216">
      <stop
         style="stop-color:#ffffff;stop-opacity:1;"
         offset="0"
         id="stop4218" />
      <stop
         style="stop-color:#8d8d8d;stop-opacity:1;"
         offset="1"
         id="stop4220" />
    </linearGradient>
    <radialGradient
       inkscape:collect="always"
       xlink:href="#linearGradient4202"
       id="radialGradient4269"
       gradientUnits="userSpaceOnUse"
       gradientTransform="matrix(8.434109,1.2330991e-7,-1.233099e-7,8.4341084,-475.78296,-475.78296)"
       cx="56.411762"
       cy="41.235294"
       fx="56.411762"
       fy="41.235294"
       r="64.5" />
    <filter
       inkscape:collect="always"
       id="filter4275">
      <feGaussianBlur
         inkscape:collect="always"
         stdDeviation="2.5"
         id="feGaussianBlur4277" />
    </filter>
    <linearGradient
       inkscape:collect="always"
       xlink:href="#linearGradient4216"
       id="linearGradient4287"
       x1="56"
       y1="40"
       x2="88"
       y2="160"
       gradientUnits="userSpaceOnUse" />
  </defs>
  <sodipodi:namedview
     id="base"
     pagecolor="#ffffff"
     bordercolor="#666666"
     borderopacity="1.0"
     inkscape:pageopacity="0.0"
     inkscape:pageshadow="2"
     inkscape:zoom="2.0660776"
     inkscape:cx="76.420856"
     inkscape:cy="62.667059"
     inkscape:document-units="px"
     inkscape:current-layer="layer1"
     showgrid="true"
     inkscape:window-width="1920"
     inkscape:window-height="1028"
     inkscape:window-x="-8"
     inkscape:window-y="-8"
     inkscape:window-maximized="1"
     showguides="true"
     inkscape:guide-bbox="true">
    <inkscape:grid
       type="xygrid"
       id="grid2985"
       empspacing="2"
       visible="true"
       enabled="true"
       snapvisiblegridlinesonly="true" />
  </sodipodi:namedview>
  <metadata
     id="metadata7">
    <rdf:RDF>
      <cc:Work
         rdf:about="">
        <dc:format>image/svg+xml</dc:format>
        <dc:type
           rdf:resource="http://purl.org/dc/dcmitype/StillImage" />
        <dc:title />
      </cc:Work>
    </rdf:RDF>
  </metadata>
  <g
     inkscape:label="Layer 1"
     inkscape:groupmode="layer"
     id="layer1"
     transform="translate(0,-924.36218)">
    <rect
       ry="0"
       rx="0"
       y="946.36218"
       x="8"
       height="88"
       width="112"
       id="rect4273"
       style="fill:#000000;fill-opacity:1;stroke:none;filter:url(#filter4275)" />
    <rect
       style="fill:url(#linearGradient4287);fill-opacity:1;stroke:none"
       id="rect4271"
       width="112"
       height="88"
       x="8"
       y="20"
       transform="translate(0,924.36218)"
       rx="0"
       ry="0" />
    <g
       id="g4250"
       transform="matrix(0.8125,0,0,0.8125,12,185.31792)">
      <rect
         ry="4"
         rx="4"
         transform="translate(0,924.36218)"
         y="16"
         x="0"
         height="96"
         width="128"
         id="rect4126"
         style="opacity:0.25;fill:#00ff00;fill-opacity:1;stroke:none" />
      <rect
         ry="4"
         rx="4"
         transform="translate(0,924.36218)"
         y="16"
         x="0"
         height="96"
         width="128"
         id="rect3277"
         style="fill:url(#radialGradient4269);fill-opacity:1;stroke:none" />
      <path
         id="path4119"
         transform="translate(0,924.36218)"
         d="m 4,16 c -2.216,0 -4,1.784 -4,4 l 0,88 c 0,2.216 1.784,4 4,4 l 71.09375,0 C 92.576771,96.075329 104,69.769928 104,40 104,31.675134 103.07548,23.633122 101.40625,16 L 4,16 z"
         style="opacity:0.25;fill:#ffffff;fill-opacity:1;stroke:none"
         inkscape:connector-curvature="0" />
      <rect
         style="opacity:0.25;fill:#00ff00;fill-opacity:1;stroke:none"
         id="rect4115"
         width="128"
         height="96"
         x="0"
         y="16"
         transform="translate(0,924.36218)"
         rx="4"
         ry="4" />
      <path
         id="path4103"
         transform="translate(0,924.36218)"
         d="M 128,52.3125 C 122.81708,60.955993 114.94074,68.750284 105,75.25 86.374697,87.42812 60.542125,95 32,95 20.8219,95 10.076758,93.832084 0,91.6875 l 0,2.03125 C 10.093879,95.837671 20.84029,97 32,97 60.895489,97 87.078457,89.33935 106.09375,76.90625 115.20246,70.950565 122.68472,63.889118 128,56.03125 l 0,-3.71875 z"
         style="font-size:medium;font-style:normal;font-variant:normal;font-weight:normal;font-stretch:normal;text-indent:0;text-align:start;text-decoration:none;line-height:normal;letter-spacing:normal;word-spacing:normal;text-transform:none;direction:ltr;block-progression:tb;writing-mode:lr-tb;text-anchor:start;baseline-shift:baseline;color:#000000;fill:#ffffff;fill-opacity:1;stroke:none;stroke-width:2;marker:none;visibility:visible;display:inline;overflow:visible;enable-background:accumulate;font-family:Sans;-inkscape-font-specification:Sans"
         inkscape:connector-curvature="0" />
      <path
         id="path4105"
         transform="translate(0,924.36218)"
         d="M 128,52.3125 C 122.81708,60.955993 114.94074,68.750284 105,75.25 86.374697,87.42812 60.542125,95 32,95 20.8219,95 10.076758,93.832084 0,91.6875 l 0,2.03125 C 10.093879,95.837671 20.84029,97 32,97 60.895489,97 87.078457,89.33935 106.09375,76.90625 115.20246,70.950565 122.68472,63.889118 128,56.03125 l 0,-3.71875 z"
         style="font-size:medium;font-style:normal;font-variant:normal;font-weight:normal;font-stretch:normal;text-indent:0;text-align:start;text-decoration:none;line-height:normal;letter-spacing:normal;word-spacing:normal;text-transform:none;direction:ltr;block-progression:tb;writing-mode:lr-tb;text-anchor:start;baseline-shift:baseline;color:#000000;fill:#ffffff;fill-opacity:1;stroke:none;stroke-width:2;marker:none;visibility:visible;display:inline;overflow:visible;enable-background:accumulate;font-family:Sans;-inkscape-font-specification:Sans"
         inkscape:connector-curvature="0" />
      <path
         id="path4107"
         transform="translate(0,924.36218)"
         d="M 128,51.4375 C 122.88046,58.840587 115.73061,65.541525 107,71.25 88.374697,83.42812 62.542125,91 34,91 22.080863,91 10.646567,89.674926 0,87.25 l 0,2.03125 C 10.669284,91.678351 22.099257,93 34,93 62.895489,93 89.078457,85.33932 108.09375,72.90625 116.12658,67.65401 122.86927,61.542538 128,54.78125 l 0,-3.34375 z"
         style="font-size:medium;font-style:normal;font-variant:normal;font-weight:normal;font-stretch:normal;text-indent:0;text-align:start;text-decoration:none;line-height:normal;letter-spacing:normal;word-spacing:normal;text-transform:none;direction:ltr;block-progression:tb;writing-mode:lr-tb;text-anchor:start;baseline-shift:baseline;color:#000000;fill:#ffffff;fill-opacity:1;stroke:none;stroke-width:2;marker:none;visibility:visible;display:inline;overflow:visible;enable-background:accumulate;font-family:Sans;-inkscape-font-specification:Sans"
         inkscape:connector-curvature="0" />
      <path
         id="path4109"
         transform="translate(0,924.36218)"
         d="M 128,50.125 C 123.08135,56.459153 116.65311,62.246043 109,67.25 90.374697,79.42812 64.542125,87 36,87 23.334143,87 11.20567,85.504253 0,82.78125 l 0,2.0625 C 11.230314,87.534492 23.358223,89 36,89 64.895489,89 91.078457,81.33932 110.09375,68.90625 117.12214,64.31076 123.15892,59.053214 128,53.28125 l 0,-3.15625 z"
         style="font-size:medium;font-style:normal;font-variant:normal;font-weight:normal;font-stretch:normal;text-indent:0;text-align:start;text-decoration:none;line-height:normal;letter-spacing:normal;word-spacing:normal;text-transform:none;direction:ltr;block-progression:tb;writing-mode:lr-tb;text-anchor:start;baseline-shift:baseline;color:#000000;fill:#ffffff;fill-opacity:1;stroke:none;stroke-width:2;marker:none;visibility:visible;display:inline;overflow:visible;enable-background:accumulate;font-family:Sans;-inkscape-font-specification:Sans"
         inkscape:connector-curvature="0" />
      <path
         id="path4111"
         transform="translate(0,924.36218)"
         d="M 128,46.8125 C 123.76453,51.32888 118.72571,55.506269 113,59.25 94.374697,71.42808 68.542125,79 40,79 25.812707,79 12.296003,77.127419 0,73.75 l 0,2.0625 C 12.335091,79.153262 25.836957,81 40,81 68.895489,81 95.078457,73.33933 114.09375,60.90625 119.29493,57.505476 123.9624,53.753692 128,49.6875 l 0,-2.875 z"
         style="font-size:medium;font-style:normal;font-variant:normal;font-weight:normal;font-stretch:normal;text-indent:0;text-align:start;text-decoration:none;line-height:normal;letter-spacing:normal;word-spacing:normal;text-transform:none;direction:ltr;block-progression:tb;writing-mode:lr-tb;text-anchor:start;baseline-shift:baseline;color:#000000;fill:#ffffff;fill-opacity:1;stroke:none;stroke-width:2;marker:none;visibility:visible;display:inline;overflow:visible;enable-background:accumulate;font-family:Sans;-inkscape-font-specification:Sans"
         inkscape:connector-curvature="0" />
      <path
         id="path4113"
         transform="translate(0,924.36218)"
         d="m 128,44.5 c -2.77379,2.370992 -5.76801,4.636775 -9,6.75 C 100.3747,63.42808 74.542125,71 46,71 29.458883,71 13.845619,68.446435 0,63.9375 l 0,2.125 C 13.895344,70.515558 29.50978,73 46,73 74.895489,73 101.07846,65.33933 120.09375,52.90625 122.8971,51.073289 125.52161,49.128076 128,47.09375 L 128,44.5 z"
         style="font-size:medium;font-style:normal;font-variant:normal;font-weight:normal;font-stretch:normal;text-indent:0;text-align:start;text-decoration:none;line-height:normal;letter-spacing:normal;word-spacing:normal;text-transform:none;direction:ltr;block-progression:tb;writing-mode:lr-tb;text-anchor:start;baseline-shift:baseline;color:#000000;fill:#ffffff;fill-opacity:1;stroke:none;stroke-width:2;marker:none;visibility:visible;display:inline;overflow:visible;enable-background:accumulate;font-family:Sans;-inkscape-font-specification:Sans"
         inkscape:connector-curvature="0" />
      <path
         id="rect4129"
         transform="translate(0,924.36218)"
         d="M 4,16 C 1.784,16 0,17.784 0,20 L 0,84.5625 C 7.5099959,86.775723 15.580383,88 24,88 63.764502,88 96,61.137085 96,28 96,23.891375 95.506533,19.876472 94.5625,16 L 4,16 z"
         style="opacity:0.25;fill:#ffffff;fill-opacity:1;stroke:none"
         inkscape:connector-curvature="0" />
      <path
         transform="translate(0,924.36218)"
         d="M 120,64 A 12,12 0 0 1 108,76 12,12 0 0 1 96,64 12,12 0 0 1 108,52 12,12 0 0 1 120,64 Z"
         sodipodi:ry="12"
         sodipodi:rx="12"
         sodipodi:cy="64"
         sodipodi:cx="108"
         id="path4217"
         style="opacity:0.25;fill:#ffffff;fill-opacity:1;stroke:none"
         sodipodi:type="arc" />
      <path
         transform="translate(0,924.36218)"
         d="m 120,38 a 6,6 0 0 1 -6,6 6,6 0 0 1 -6,-6 6,6 0 0 1 6,-6 6,6 0 0 1 6,6 z"
         sodipodi:ry="6"
         sodipodi:rx="6"
         sodipodi:cy="38"
         sodipodi:cx="114"
         id="path4219"
         style="opacity:0.25;fill:#ffffff;fill-opacity:1;stroke:none"
         sodipodi:type="arc" />
      <path
         transform="translate(0,924.36218)"
         d="m 116,32 a 8,8 0 0 1 -8,8 8,8 0 0 1 -8,-8 8,8 0 0 1 8,-8 8,8 0 0 1 8,8 z"
         sodipodi:ry="8"
         sodipodi:rx="8"
         sodipodi:cy="32"
         sodipodi:cx="108"
         id="path4221"
         style="opacity:0.25;fill:#ffffff;fill-opacity:1;stroke:none"
         sodipodi:type="arc" />
      <path
         transform="translate(0,924.36218)"
         d="M 48,58 A 10,10 0 0 1 38,68 10,10 0 0 1 28,58 10,10 0 0 1 38,48 10,10 0 0 1 48,58 Z"
         sodipodi:ry="10"
         sodipodi:rx="10"
         sodipodi:cy="58"
         sodipodi:cx="38"
         id="path4223"
         style="opacity:0.25;fill:#ffffff;fill-opacity:1;stroke:none"
         sodipodi:type="arc" />
      <path
         transform="translate(0,924.36218)"
         d="m 44,38 a 6,6 0 0 1 -6,6 6,6 0 0 1 -6,-6 6,6 0 0 1 6,-6 6,6 0 0 1 6,6 z"
         sodipodi:ry="6"
         sodipodi:rx="6"
         sodipodi:cy="38"
         sodipodi:cx="38"
         id="path4225"
         style="opacity:0.25;fill:#ffffff;fill-opacity:1;stroke:none"
         sodipodi:type="arc" />
      <path
         transform="translate(0,924.36218)"
         d="M 40,48 A 12,12 0 0 1 28,60 12,12 0 0 1 16,48 12,12 0 0 1 28,36 12,12 0 0 1 40,48 Z"
         sodipodi:ry="12"
         sodipodi:rx="12"
         sodipodi:cy="48"
         sodipodi:cx="28"
         id="path4229"
         style="opacity:0.25;fill:#ffffff;fill-opacity:1;stroke:none"
         sodipodi:type="arc" />
    </g>
  </g>
</svg>
