<?xml version="1.0" encoding="UTF-8" standalone="no"?>
<!-- Created with Inkscape (http://www.inkscape.org/) -->

<svg
   xmlns:dc="http://purl.org/dc/elements/1.1/"
   xmlns:cc="http://creativecommons.org/ns#"
   xmlns:rdf="http://www.w3.org/1999/02/22-rdf-syntax-ns#"
   xmlns:svg="http://www.w3.org/2000/svg"
   xmlns="http://www.w3.org/2000/svg"
   xmlns:xlink="http://www.w3.org/1999/xlink"
   xmlns:sodipodi="http://sodipodi.sourceforge.net/DTD/sodipodi-0.dtd"
   xmlns:inkscape="http://www.inkscape.org/namespaces/inkscape"
   width="128"
   height="128"
   id="svg2"
   version="1.1"
   inkscape:version="0.91 r13725"
   sodipodi:docname="image-gif.svg">
  <defs
     id="defs4">
    <linearGradient
       id="linearGradient4329">
      <stop
         style="stop-color:#00fff7;stop-opacity:1;"
         offset="0"
         id="stop4331" />
      <stop
         style="stop-color:#b500d3;stop-opacity:1;"
         offset="1"
         id="stop4333" />
    </linearGradient>
    <linearGradient
       id="linearGradient4202">
      <stop
         id="stop4204"
         offset="0"
         style="stop-color:#838383;stop-opacity:1;" />
      <stop
         style="stop-color:#f7f7f7;stop-opacity:1;"
         offset="0.09090909"
         id="stop4219" />
      <stop
         style="stop-color:#969696;stop-opacity:1;"
         offset="0.18181819"
         id="stop4216" />
      <stop
         style="stop-color:#cfcfcf;stop-opacity:1;"
         offset="0.29411766"
         id="stop4214" />
      <stop
         style="stop-color:#5c5c5c;stop-opacity:1;"
         offset="0.41176471"
         id="stop4212" />
      <stop
         style="stop-color:#e4e4e4;stop-opacity:1;"
         offset="0.52941179"
         id="stop4210" />
      <stop
         style="stop-color:#ffffff;stop-opacity:1;"
         offset="0.70588237"
         id="stop4206" />
      <stop
         id="stop4208"
         offset="1"
         style="stop-color:#7c7c7c;stop-opacity:1;" />
    </linearGradient>
    <linearGradient
       id="linearGradient5177">
      <stop
         id="stop5179"
         offset="0"
         style="stop-color:#000000;stop-opacity:0.74666667;" />
      <stop
         style="stop-color:#ffffff;stop-opacity:0.75999999;"
         offset="0.03125"
         id="stop5181" />
      <stop
         style="stop-color:#000000;stop-opacity:0.50222224;"
         offset="0.0625"
         id="stop5183" />
      <stop
         style="stop-color:#ffffff;stop-opacity:0.60444444;"
         offset="0.125"
         id="stop5185" />
      <stop
         style="stop-color:#000000;stop-opacity:0.29777777;"
         offset="0.25"
         id="stop5187" />
      <stop
         id="stop5189"
         offset="0.375"
         style="stop-color:#000000;stop-opacity:0.41777778;" />
      <stop
         style="stop-color:#ffffff;stop-opacity:0.49777779;"
         offset="0.5"
         id="stop5191" />
      <stop
         id="stop5193"
         offset="1"
         style="stop-color:#000000;stop-opacity:0.61333334;" />
    </linearGradient>
    <linearGradient
       id="linearGradient4216">
      <stop
         style="stop-color:#ffffff;stop-opacity:1;"
         offset="0"
         id="stop4218" />
      <stop
         style="stop-color:#8d8d8d;stop-opacity:1;"
         offset="1"
         id="stop4220" />
    </linearGradient>
    <filter
       inkscape:collect="always"
       id="filter4275">
      <feGaussianBlur
         inkscape:collect="always"
         stdDeviation="2.5"
         id="feGaussianBlur4277" />
    </filter>
    <linearGradient
       inkscape:collect="always"
       xlink:href="#linearGradient4216"
       id="linearGradient4287"
       x1="56"
       y1="40"
       x2="88"
       y2="160"
       gradientUnits="userSpaceOnUse" />
    <radialGradient
       inkscape:collect="always"
       xlink:href="#linearGradient4202"
       id="radialGradient4326"
       gradientUnits="userSpaceOnUse"
       gradientTransform="matrix(6.8527136,1.001893e-7,-1.0018929e-7,6.8527131,-374.57366,549.78854)"
       cx="56.411762"
       cy="41.235294"
       fx="56.411762"
       fy="41.235294"
       r="64.5" />
    <radialGradient
       inkscape:collect="always"
       xlink:href="#linearGradient4329"
       id="radialGradient4335"
       cx="79.999992"
       cy="977.6955"
       fx="79.999992"
       fy="977.6955"
       r="52"
       gradientTransform="matrix(1.6450021,0.02632661,-0.01200146,0.74990397,-39.866387,245.07831)"
       gradientUnits="userSpaceOnUse" />
    <linearGradient
       inkscape:collect="always"
       xlink:href="#linearGradient5177"
       id="linearGradient4347"
       x1="20"
       y1="936.36218"
       x2="88"
       y2="996.36218"
       gradientUnits="userSpaceOnUse" />
  </defs>
  <sodipodi:namedview
     id="base"
     pagecolor="#ffffff"
     bordercolor="#666666"
     borderopacity="1.0"
     inkscape:pageopacity="0.0"
     inkscape:pageshadow="2"
     inkscape:zoom="1.4609375"
     inkscape:cx="-4.494543"
     inkscape:cy="57.422875"
     inkscape:document-units="px"
     inkscape:current-layer="layer1"
     showgrid="true"
     inkscape:window-width="1920"
     inkscape:window-height="1028"
     inkscape:window-x="-8"
     inkscape:window-y="-8"
     inkscape:window-maximized="1"
     showguides="true"
     inkscape:guide-bbox="true">
    <inkscape:grid
       type="xygrid"
       id="grid2985"
       empspacing="2"
       visible="true"
       enabled="true"
       snapvisiblegridlinesonly="true" />
  </sodipodi:namedview>
  <metadata
     id="metadata7">
    <rdf:RDF>
      <cc:Work
         rdf:about="">
        <dc:format>image/svg+xml</dc:format>
        <dc:type
           rdf:resource="http://purl.org/dc/dcmitype/StillImage" />
        <dc:title />
      </cc:Work>
    </rdf:RDF>
  </metadata>
  <g
     inkscape:label="Layer 1"
     inkscape:groupmode="layer"
     id="layer1"
     transform="translate(0,-924.36218)">
    <rect
       ry="0"
       rx="0"
       y="946.36218"
       x="8"
       height="88"
       width="112"
       id="rect4273"
       style="fill:#000000;fill-opacity:1;stroke:none;filter:url(#filter4275)" />
    <rect
       style="fill:url(#linearGradient4287);fill-opacity:1;stroke:none"
       id="rect4271"
       width="112"
       height="88"
       x="8"
       y="20"
       transform="translate(0,924.36218)"
       rx="0"
       ry="0" />
    <rect
       style="opacity:0.25;fill:#00ff00;fill-opacity:1;stroke:none"
       id="rect4126"
       width="104"
       height="78"
       x="12"
       y="949.36218"
       rx="3.25"
       ry="3.25" />
    <rect
       style="fill:url(#radialGradient4326);fill-opacity:1;stroke:none"
       id="rect3277"
       width="104"
       height="78"
       x="12"
       y="949.36218"
       rx="3.25"
       ry="3.25" />
    <path
       inkscape:connector-curvature="0"
       style="opacity:0.25;fill:#ffffff;fill-opacity:1;stroke:none"
       d="m 15.25,949.36219 c -1.8005,0 -3.25,1.4495 -3.25,3.25 l 0,71.50001 c 0,1.8005 1.4495,3.25 3.25,3.25 l 57.763672,0 C 87.218626,1014.4234 96.5,993.05026 96.5,968.86219 c 0,-6.76395 -0.751172,-13.29809 -2.107422,-19.5 l -79.142578,0 z"
       id="path4119" />
    <rect
       ry="3.25"
       rx="3.25"
       y="949.36218"
       x="12"
       height="78"
       width="104"
       id="rect4115"
       style="opacity:0.50000000000000000;fill:url(#radialGradient4335);fill-opacity:1;stroke:none" />
    <path
       inkscape:connector-curvature="0"
       style="font-size:medium;font-style:normal;font-variant:normal;font-weight:normal;font-stretch:normal;text-indent:0;text-align:start;text-decoration:none;line-height:normal;letter-spacing:normal;word-spacing:normal;text-transform:none;direction:ltr;block-progression:tb;writing-mode:lr-tb;text-anchor:start;baseline-shift:baseline;color:#000000;fill:#ffffff;fill-opacity:1;stroke:none;stroke-width:2;marker:none;visibility:visible;display:inline;overflow:visible;enable-background:accumulate;font-family:Sans;-inkscape-font-specification:Sans"
       d="m 116,978.8661 c -4.21112,7.02283 -10.61065,13.3557 -18.6875,18.63672 -15.133059,9.89468 -36.122023,16.04688 -59.3125,16.04688 -9.082206,0 -17.812634,-0.9489 -26,-2.6914 l 0,1.6504 c 8.201277,1.7216 16.932736,2.666 26,2.666 23.477585,0 44.751246,-6.2243 60.201172,-16.32618 C 105.602,994.00952 111.68134,988.2721 116,981.88758 l 0,-3.02148 z"
       id="path4103" />
    <path
       inkscape:connector-curvature="0"
       style="font-size:medium;font-style:normal;font-variant:normal;font-weight:normal;font-stretch:normal;text-indent:0;text-align:start;text-decoration:none;line-height:normal;letter-spacing:normal;word-spacing:normal;text-transform:none;direction:ltr;block-progression:tb;writing-mode:lr-tb;text-anchor:start;baseline-shift:baseline;color:#000000;fill:#ffffff;fill-opacity:1;stroke:none;stroke-width:2;marker:none;visibility:visible;display:inline;overflow:visible;enable-background:accumulate;font-family:Sans;-inkscape-font-specification:Sans"
       d="m 116,978.8661 c -4.21112,7.02283 -10.61065,13.3557 -18.6875,18.63672 -15.133059,9.89468 -36.122023,16.04688 -59.3125,16.04688 -9.082206,0 -17.812634,-0.9489 -26,-2.6914 l 0,1.6504 c 8.201277,1.7216 16.932736,2.666 26,2.666 23.477585,0 44.751246,-6.2243 60.201172,-16.32618 C 105.602,994.00952 111.68134,988.2721 116,981.88758 l 0,-3.02148 z"
       id="path4105" />
    <path
       inkscape:connector-curvature="0"
       style="font-size:medium;font-style:normal;font-variant:normal;font-weight:normal;font-stretch:normal;text-indent:0;text-align:start;text-decoration:none;line-height:normal;letter-spacing:normal;word-spacing:normal;text-transform:none;direction:ltr;block-progression:tb;writing-mode:lr-tb;text-anchor:start;baseline-shift:baseline;color:#000000;fill:#ffffff;fill-opacity:1;stroke:none;stroke-width:2;marker:none;visibility:visible;display:inline;overflow:visible;enable-background:accumulate;font-family:Sans;-inkscape-font-specification:Sans"
       d="m 116,978.15516 c -4.15963,6.01501 -9.96888,11.45952 -17.0625,16.09766 -15.133059,9.89468 -36.122023,16.04688 -59.3125,16.04688 -9.684299,0 -18.974664,-1.0766 -27.625,-3.0469 l 0,1.6504 c 8.668793,1.9477 17.955646,3.0215 27.625,3.0215 23.477585,0 44.751246,-6.2243 60.201172,-16.32618 C 106.35285,991.33107 111.83128,986.3655 116,980.87196 l 0,-2.7168 z"
       id="path4107" />
    <path
       inkscape:connector-curvature="0"
       style="font-size:medium;font-style:normal;font-variant:normal;font-weight:normal;font-stretch:normal;text-indent:0;text-align:start;text-decoration:none;line-height:normal;letter-spacing:normal;word-spacing:normal;text-transform:none;direction:ltr;block-progression:tb;writing-mode:lr-tb;text-anchor:start;baseline-shift:baseline;color:#000000;fill:#ffffff;fill-opacity:1;stroke:none;stroke-width:2;marker:none;visibility:visible;display:inline;overflow:visible;enable-background:accumulate;font-family:Sans;-inkscape-font-specification:Sans"
       d="m 116,977.08875 c -3.9964,5.1465 -9.21935,9.84835 -15.4375,13.91407 -15.133059,9.89468 -36.122023,16.04688 -59.3125,16.04688 -10.291009,0 -20.145393,-1.2153 -29.25,-3.4277 l 0,1.6757 c 9.12463,2.1863 18.978556,3.377 29.25,3.377 23.477585,0 44.751246,-6.2243 60.20117,-16.32618 5.71057,-3.73384 10.61545,-8.00559 14.54883,-12.69531 l 0,-2.56446 z"
       id="path4109" />
    <path
       inkscape:connector-curvature="0"
       style="font-size:medium;font-style:normal;font-variant:normal;font-weight:normal;font-stretch:normal;text-indent:0;text-align:start;text-decoration:none;line-height:normal;letter-spacing:normal;word-spacing:normal;text-transform:none;direction:ltr;block-progression:tb;writing-mode:lr-tb;text-anchor:start;baseline-shift:baseline;color:#000000;fill:#ffffff;fill-opacity:1;stroke:none;stroke-width:2;marker:none;visibility:visible;display:inline;overflow:visible;enable-background:accumulate;font-family:Sans;-inkscape-font-specification:Sans"
       d="m 116,974.39735 c -3.44132,3.66956 -7.53536,7.06368 -12.1875,10.10547 -15.133059,9.89469 -36.122023,16.04688 -59.3125,16.04688 -11.527176,0 -22.509498,-1.52148 -32.5,-4.26563 l 0,1.67578 c 10.022261,2.71435 20.992528,4.21485 32.5,4.21485 23.477585,0 44.751246,-6.2243 60.20117,-16.32618 4.22596,-2.76313 8.01828,-5.81146 11.29883,-9.11524 l 0,-2.33593 z"
       id="path4111" />
    <path
       inkscape:connector-curvature="0"
       style="font-size:medium;font-style:normal;font-variant:normal;font-weight:normal;font-stretch:normal;text-indent:0;text-align:start;text-decoration:none;line-height:normal;letter-spacing:normal;word-spacing:normal;text-transform:none;direction:ltr;block-progression:tb;writing-mode:lr-tb;text-anchor:start;baseline-shift:baseline;color:#000000;fill:#ffffff;fill-opacity:1;stroke:none;stroke-width:2;marker:none;visibility:visible;display:inline;overflow:visible;enable-background:accumulate;font-family:Sans;-inkscape-font-specification:Sans"
       d="m 116,972.51844 c -2.2537,1.92643 -4.68651,3.76738 -7.3125,5.48438 -15.133056,9.89469 -36.122023,16.04687 -59.3125,16.04687 -13.439658,0 -26.125435,-2.07477 -37.375,-5.73828 l 0,1.72656 c 11.289967,3.61811 23.976696,5.63672 37.375,5.63672 23.477585,0 44.751249,-6.22429 60.20117,-16.32617 2.27772,-1.48928 4.41014,-3.06977 6.42383,-4.72266 l 0,-2.10742 z"
       id="path4113" />
    <path
       inkscape:connector-curvature="0"
       style="opacity:0.25;fill:#ffffff;fill-opacity:1;stroke:none"
       d="m 15.25,949.36219 c -1.8005,0 -3.25,1.4495 -3.25,3.25 l 0,52.45701 c 6.101872,1.7983 12.659061,2.793 19.5,2.793 32.308658,0 58.5,-21.82613 58.5,-48.75001 0,-3.33826 -0.400942,-6.60037 -1.167969,-9.75 l -73.582031,0 z"
       id="rect4129" />
    <path
       sodipodi:type="arc"
       style="opacity:0.25;fill:#ffffff;fill-opacity:1;stroke:none"
       id="path4217"
       sodipodi:cx="108"
       sodipodi:cy="64"
       sodipodi:rx="12"
       sodipodi:ry="12"
       d="M 120,64 A 12,12 0 0 1 108,76 12,12 0 0 1 96,64 12,12 0 0 1 108,52 12,12 0 0 1 120,64 Z"
       transform="matrix(0.8125,0,0,0.8125,12,936.36219)" />
    <path
       sodipodi:type="arc"
       style="opacity:0.25;fill:#ffffff;fill-opacity:1;stroke:none"
       id="path4219"
       sodipodi:cx="114"
       sodipodi:cy="38"
       sodipodi:rx="6"
       sodipodi:ry="6"
       d="m 120,38 a 6,6 0 0 1 -6,6 6,6 0 0 1 -6,-6 6,6 0 0 1 6,-6 6,6 0 0 1 6,6 z"
       transform="matrix(0.8125,0,0,0.8125,12,936.36219)" />
    <path
       sodipodi:type="arc"
       style="opacity:0.25;fill:#ffffff;fill-opacity:1;stroke:none"
       id="path4221"
       sodipodi:cx="108"
       sodipodi:cy="32"
       sodipodi:rx="8"
       sodipodi:ry="8"
       d="m 116,32 a 8,8 0 0 1 -8,8 8,8 0 0 1 -8,-8 8,8 0 0 1 8,-8 8,8 0 0 1 8,8 z"
       transform="matrix(0.8125,0,0,0.8125,12,936.36219)" />
    <path
       sodipodi:type="arc"
       style="opacity:0.25;fill:#ffffff;fill-opacity:1;stroke:none"
       id="path4223"
       sodipodi:cx="38"
       sodipodi:cy="58"
       sodipodi:rx="10"
       sodipodi:ry="10"
       d="M 48,58 A 10,10 0 0 1 38,68 10,10 0 0 1 28,58 10,10 0 0 1 38,48 10,10 0 0 1 48,58 Z"
       transform="matrix(0.8125,0,0,0.8125,12,936.36219)" />
    <path
       sodipodi:type="arc"
       style="opacity:0.25;fill:#ffffff;fill-opacity:1;stroke:none"
       id="path4225"
       sodipodi:cx="38"
       sodipodi:cy="38"
       sodipodi:rx="6"
       sodipodi:ry="6"
       d="m 44,38 a 6,6 0 0 1 -6,6 6,6 0 0 1 -6,-6 6,6 0 0 1 6,-6 6,6 0 0 1 6,6 z"
       transform="matrix(0.8125,0,0,0.8125,12,936.36219)" />
    <path
       sodipodi:type="arc"
       style="opacity:0.25;fill:#ffffff;fill-opacity:1;stroke:none"
       id="path4229"
       sodipodi:cx="28"
       sodipodi:cy="48"
       sodipodi:rx="12"
       sodipodi:ry="12"
       d="M 40,48 A 12,12 0 0 1 28,60 12,12 0 0 1 16,48 12,12 0 0 1 28,36 12,12 0 0 1 40,48 Z"
       transform="matrix(0.8125,0,0,0.8125,12,936.36219)" />
    <text
       xml:space="preserve"
       style="font-size:32px;font-style:normal;font-weight:normal;line-height:125%;letter-spacing:0px;word-spacing:0px;fill:#ffffff;fill-opacity:1;stroke:url(#linearGradient4347);font-family:Sans"
       x="16"
       y="980.36218"
       id="text4337"
       sodipodi:linespacing="125%"><tspan
         sodipodi:role="line"
         id="tspan4339"
         x="16"
         y="980.36218"
         style="stroke:url(#linearGradient4347)">gif</tspan></text>
  </g>
</svg>
