<?xml version="1.0" encoding="UTF-8" standalone="no"?>
<!-- Created with Inkscape (http://www.inkscape.org/) -->

<svg
   xmlns:dc="http://purl.org/dc/elements/1.1/"
   xmlns:cc="http://creativecommons.org/ns#"
   xmlns:rdf="http://www.w3.org/1999/02/22-rdf-syntax-ns#"
   xmlns:svg="http://www.w3.org/2000/svg"
   xmlns="http://www.w3.org/2000/svg"
   xmlns:xlink="http://www.w3.org/1999/xlink"
   xmlns:sodipodi="http://sodipodi.sourceforge.net/DTD/sodipodi-0.dtd"
   xmlns:inkscape="http://www.inkscape.org/namespaces/inkscape"
   width="128"
   height="128"
   id="svg2"
   version="1.1"
   inkscape:version="0.91 r13725"
   sodipodi:docname="text-x-changelog.svg">
  <defs
     id="defs4">
    <linearGradient
       id="linearGradient4633">
      <stop
         style="stop-color:#ffffff;stop-opacity:1;"
         offset="0"
         id="stop4635" />
      <stop
         style="stop-color:#7d7d7d;stop-opacity:1;"
         offset="1"
         id="stop4637" />
    </linearGradient>
    <linearGradient
       id="linearGradient4216-1">
      <stop
         style="stop-color:#ffffff;stop-opacity:1;"
         offset="0"
         id="stop4218-0" />
      <stop
         style="stop-color:#c6c6c6;stop-opacity:1;"
         offset="1"
         id="stop4220-9" />
    </linearGradient>
    <filter
       inkscape:collect="always"
       id="filter4495">
      <feGaussianBlur
         inkscape:collect="always"
         stdDeviation="2.0800002"
         id="feGaussianBlur4497" />
    </filter>
    <filter
       inkscape:collect="always"
       id="filter4577"
       x="-0.18"
       width="1.36"
       y="-0.18"
       height="1.36">
      <feGaussianBlur
         inkscape:collect="always"
         stdDeviation="1.5"
         id="feGaussianBlur4579" />
    </filter>
    <radialGradient
       inkscape:collect="always"
       xlink:href="#linearGradient4216-1"
       id="radialGradient4631"
       cx="77.611282"
       cy="39.420414"
       fx="77.611282"
       fy="39.420414"
       r="48"
       gradientTransform="matrix(7.3333334,1.1091983e-7,-1.2861914e-7,6.6666669,-489.14941,-230.80277)"
       gradientUnits="userSpaceOnUse" />
    <linearGradient
       inkscape:collect="always"
       xlink:href="#linearGradient4633"
       id="linearGradient4639"
       x1="99"
       y1="945.36218"
       x2="105"
       y2="939.36218"
       gradientUnits="userSpaceOnUse" />
  </defs>
  <sodipodi:namedview
     id="base"
     pagecolor="#ffffff"
     bordercolor="#666666"
     borderopacity="1.0"
     inkscape:pageopacity="0.0"
     inkscape:pageshadow="2"
     inkscape:zoom="0.5165194"
     inkscape:cx="-44.060585"
     inkscape:cy="29.395886"
     inkscape:document-units="px"
     inkscape:current-layer="layer1"
     showgrid="true"
     inkscape:window-width="1920"
     inkscape:window-height="1028"
     inkscape:window-x="-8"
     inkscape:window-y="-8"
     inkscape:window-maximized="1"
     showguides="true"
     inkscape:guide-bbox="true">
    <inkscape:grid
       type="xygrid"
       id="grid2985"
       empspacing="2"
       visible="true"
       enabled="true"
       snapvisiblegridlinesonly="true" />
  </sodipodi:namedview>
  <metadata
     id="metadata7">
    <rdf:RDF>
      <cc:Work
         rdf:about="">
        <dc:format>image/svg+xml</dc:format>
        <dc:type
           rdf:resource="http://purl.org/dc/dcmitype/StillImage" />
        <dc:title />
      </cc:Work>
    </rdf:RDF>
  </metadata>
  <g
     inkscape:label="Layer 1"
     inkscape:groupmode="layer"
     id="layer1"
     transform="translate(0,-924.36218)">
    <path
       id="path4473"
       d="m 20,934.36218 c -2.216,0 -4,1.784 -4,4 l 0,104.00002 c 0,2.216 1.784,4 4,4 l 88,0 c 2.216,0 4,-1.784 4,-4 l 0,-88.00002 -20,-20 -72,0 z"
       style="fill:#000000;fill-opacity:1;stroke:none;filter:url(#filter4495)"
       inkscape:connector-curvature="0" />
    <path
       style="fill:url(#radialGradient4631);fill-opacity:1.0;stroke:none"
       d="M 20 8 C 17.784 8 16 9.7840015 16 12 L 16 116 C 16 118.216 17.784 120 20 120 L 108 120 C 110.216 120 112 118.216 112 116 L 112 28 L 92 8 L 20 8 z "
       id="rect4276"
       transform="translate(0,924.36218)" />
    <path
       inkscape:connector-curvature="0"
       id="path4499"
       d="m 112,952.36218 -20,-20 0,16 c 0,2.216 1.784,4 4,4 l 16,0 z"
       style="fill:#000000;fill-opacity:1;stroke:none;filter:url(#filter4577)" />
    <path
       style="fill:url(#linearGradient4639);fill-opacity:1.0;stroke:none"
       d="m 112,952.36218 -20,-20 0,16 c 0,2.216 1.784,4 4,4 l 16,0 z"
       id="rect4326"
       inkscape:connector-curvature="0" />
    <path
       style="font-size:medium;font-style:normal;font-variant:normal;font-weight:normal;font-stretch:normal;text-indent:0;text-align:start;text-decoration:none;line-height:normal;letter-spacing:normal;word-spacing:normal;text-transform:none;direction:ltr;block-progression:tb;writing-mode:lr-tb;text-anchor:start;baseline-shift:baseline;color:#000000;fill:#999999;fill-opacity:1;stroke:none;stroke-width:12;marker:none;visibility:visible;display:inline;overflow:visible;enable-background:accumulate;font-family:Sans;-inkscape-font-specification:Sans"
       d="M 48.125 42.46875 C 35.939243 42.46875 24.748192 46.806274 16 54.03125 L 16 73.90625 C 22.503423 62.964281 34.4102 55.65625 48.125 55.65625 C 52.984104 55.65625 57.625245 56.61189 61.875 58.28125 C 65.27258 54.85586 68.735342 51.94179 72.90625 49 C 65.578532 44.85979 57.11225 42.46875 48.125 42.46875 z M 81.09375 48.59375 L 75.6875 52.375 C 65.44341 59.54943 59.963197 66.17619 48.0625 82.125 C 44.718684 82.162 41.421582 83.6559 39.3125 86.5 C 37.259159 89.2689 36.756859 92.76115 37.59375 95.90625 C 29.867549 106.50164 25.173678 113.24742 21.78125 120 L 35.5625 120 C 39.137699 115.83956 42.996692 110.7782 48 104 C 49.290035 104.01 50.593495 103.7999 51.8125 103.375 C 52.481334 103.1418 53.133452 102.8592 53.75 102.5 C 54.058274 102.3203 54.333903 102.11685 54.625 101.90625 C 55.498293 101.27455 56.299316 100.49655 56.96875 99.59375 C 57.415039 98.99195 57.789846 98.37775 58.09375 97.71875 C 58.245702 97.38925 58.383035 97.0272 58.5 96.6875 C 59.257864 94.4864 59.303466 92.10555 58.65625 89.90625 C 70.436151 73.92779 75.176414 66.74717 79.0625 54.875 L 81.09375 48.59375 z M 83.125 56.59375 C 81.525895 61.42185 79.722076 65.55541 77.4375 69.78125 C 82.498894 76.15665 85.53125 84.21385 85.53125 93.03125 C 85.53125 103.64855 81.145421 113.21046 74.09375 120 L 90.875 120 C 95.830457 112.18417 98.71875 102.93603 98.71875 93.03125 C 98.71875 78.73035 92.723667 65.80806 83.125 56.59375 z M 71.9375 60.90625 C 68.792166 67.9853 64.23085 74.8512 56.3125 85.6875 C 56.071414 85.4163 55.8337 85.186 55.5625 84.9375 C 55.291299 84.689 54.988407 84.44195 54.6875 84.21875 C 54.098509 83.78195 53.487749 83.4253 52.84375 83.125 C 60.898374 72.39718 66.080992 65.96919 71.9375 60.90625 z M 16 112.1875 L 16 116 C 16 117.22239 16.547492 118.29869 17.40625 119.03125 C 17.857397 118.10629 18.286558 117.17722 18.78125 116.25 C 17.761378 114.96104 16.844922 113.60732 16 112.1875 z "
       transform="translate(0,924.36218)"
       id="path4336" />
  </g>
</svg>
