<?xml version="1.0" encoding="UTF-8" standalone="no"?>
<!-- Created with Inkscape (http://www.inkscape.org/) -->

<svg
   xmlns:dc="http://purl.org/dc/elements/1.1/"
   xmlns:cc="http://creativecommons.org/ns#"
   xmlns:rdf="http://www.w3.org/1999/02/22-rdf-syntax-ns#"
   xmlns:svg="http://www.w3.org/2000/svg"
   xmlns="http://www.w3.org/2000/svg"
   xmlns:xlink="http://www.w3.org/1999/xlink"
   xmlns:sodipodi="http://sodipodi.sourceforge.net/DTD/sodipodi-0.dtd"
   xmlns:inkscape="http://www.inkscape.org/namespaces/inkscape"
   width="128"
   height="128"
   id="svg2"
   version="1.1"
   inkscape:version="0.91 r13725"
   sodipodi:docname="text-x-script.svg">
  <defs
     id="defs4">
    <linearGradient
       id="linearGradient4633">
      <stop
         style="stop-color:#ffffff;stop-opacity:1;"
         offset="0"
         id="stop4635" />
      <stop
         style="stop-color:#7d7d7d;stop-opacity:1;"
         offset="1"
         id="stop4637" />
    </linearGradient>
    <linearGradient
       id="linearGradient4216-1">
      <stop
         style="stop-color:#ffffff;stop-opacity:1;"
         offset="0"
         id="stop4218-0" />
      <stop
         style="stop-color:#c6c6c6;stop-opacity:1;"
         offset="1"
         id="stop4220-9" />
    </linearGradient>
    <filter
       inkscape:collect="always"
       id="filter4495">
      <feGaussianBlur
         inkscape:collect="always"
         stdDeviation="2.0800002"
         id="feGaussianBlur4497" />
    </filter>
    <filter
       inkscape:collect="always"
       id="filter4577"
       x="-0.18"
       width="1.36"
       y="-0.18"
       height="1.36">
      <feGaussianBlur
         inkscape:collect="always"
         stdDeviation="1.5"
         id="feGaussianBlur4579" />
    </filter>
    <radialGradient
       inkscape:collect="always"
       xlink:href="#linearGradient4216-1"
       id="radialGradient4631"
       cx="77.611282"
       cy="39.420414"
       fx="77.611282"
       fy="39.420414"
       r="48"
       gradientTransform="matrix(7.3333334,1.1091983e-7,-1.2861914e-7,6.6666669,-489.14941,-230.80277)"
       gradientUnits="userSpaceOnUse" />
    <linearGradient
       inkscape:collect="always"
       xlink:href="#linearGradient4633"
       id="linearGradient4639"
       x1="99"
       y1="945.36218"
       x2="105"
       y2="939.36218"
       gradientUnits="userSpaceOnUse" />
  </defs>
  <sodipodi:namedview
     id="base"
     pagecolor="#ffffff"
     bordercolor="#666666"
     borderopacity="1.0"
     inkscape:pageopacity="0.0"
     inkscape:pageshadow="2"
     inkscape:zoom="2.0660776"
     inkscape:cx="117.9476"
     inkscape:cy="59.580767"
     inkscape:document-units="px"
     inkscape:current-layer="layer1"
     showgrid="true"
     inkscape:window-width="1920"
     inkscape:window-height="1028"
     inkscape:window-x="-8"
     inkscape:window-y="-8"
     inkscape:window-maximized="1"
     showguides="true"
     inkscape:guide-bbox="true">
    <inkscape:grid
       type="xygrid"
       id="grid2985"
       empspacing="2"
       visible="true"
       enabled="true"
       snapvisiblegridlinesonly="true" />
  </sodipodi:namedview>
  <metadata
     id="metadata7">
    <rdf:RDF>
      <cc:Work
         rdf:about="">
        <dc:format>image/svg+xml</dc:format>
        <dc:type
           rdf:resource="http://purl.org/dc/dcmitype/StillImage" />
        <dc:title />
      </cc:Work>
    </rdf:RDF>
  </metadata>
  <g
     inkscape:label="Layer 1"
     inkscape:groupmode="layer"
     id="layer1"
     transform="translate(0,-924.36218)">
    <path
       id="path4473"
       d="m 20,934.36218 c -2.216,0 -4,1.784 -4,4 l 0,104.00002 c 0,2.216 1.784,4 4,4 l 88,0 c 2.216,0 4,-1.784 4,-4 l 0,-88.00002 -20,-20 -72,0 z"
       style="fill:#000000;fill-opacity:1;stroke:none;filter:url(#filter4495)"
       inkscape:connector-curvature="0" />
    <path
       style="fill:url(#radialGradient4631);fill-opacity:1;stroke:none"
       d="M 20 8 C 17.784 8 16 9.7840015 16 12 L 16 116 C 16 118.216 17.784 120 20 120 L 108 120 C 110.216 120 112 118.216 112 116 L 112 28 L 92 8 L 20 8 z "
       id="rect4276"
       transform="translate(0,924.36218)" />
    <path
       inkscape:connector-curvature="0"
       id="path4499"
       d="m 112,952.36218 -20,-20 0,16 c 0,2.216 1.784,4 4,4 l 16,0 z"
       style="fill:#000000;fill-opacity:1;stroke:none;filter:url(#filter4577)" />
    <path
       style="fill:url(#linearGradient4639);fill-opacity:1.0;stroke:none"
       d="m 112,952.36218 -20,-20 0,16 c 0,2.216 1.784,4 4,4 l 16,0 z"
       id="rect4326"
       inkscape:connector-curvature="0" />
    <path
       style="font-size:medium;font-style:normal;font-variant:normal;font-weight:normal;font-stretch:normal;text-indent:0;text-align:start;text-decoration:none;line-height:normal;letter-spacing:normal;word-spacing:normal;text-transform:none;direction:ltr;block-progression:tb;writing-mode:lr-tb;text-anchor:start;baseline-shift:baseline;color:#000000;fill:#808080;fill-opacity:1;stroke:none;stroke-width:4;marker:none;visibility:visible;display:inline;overflow:visible;enable-background:accumulate;font-family:Sans;-inkscape-font-specification:Sans"
       d="M 31.3125 30 C 30.711787 30 30.134095 30.049107 29.5625 30.15625 C 29.217668 30.222445 28.892993 30.302832 28.5625 30.40625 C 28.272406 30.493441 27.996488 30.605431 27.71875 30.71875 C 27.706733 30.723797 27.699491 30.744904 27.6875 30.75 C 27.423217 30.859188 27.15775 30.962165 26.90625 31.09375 C 26.893991 31.100363 26.887227 31.118334 26.875 31.125 C 23.994336 32.648648 22 35.578659 22 39 L 22 39.3125 L 22 46 L 22 104.6875 C 22 109.8075 26.192486 114 31.3125 114 L 96.6875 114 C 101.80751 114 106 109.8075 106 104.6875 L 106 46 L 106 39.3125 L 106 39 C 106 35.578659 104.00566 32.648648 101.125 31.125 C 100.59732 30.837317 100.01968 30.588425 99.4375 30.40625 C 99.156858 30.3219 98.853178 30.246045 98.5625 30.1875 C 98.552599 30.185459 98.541162 30.189509 98.53125 30.1875 C 98.499295 30.181169 98.469565 30.16226 98.4375 30.15625 C 97.865905 30.049107 97.288213 30 96.6875 30 L 31.3125 30 z M 84 36 C 86.209139 36 88 37.790861 88 40 C 88 42.209139 86.209139 44 84 44 C 81.790861 44 80 42.209139 80 40 C 80 37.790861 81.790861 36 84 36 z M 96 36 C 98.209139 36 100 37.790861 100 40 C 100 42.209139 98.209139 44 96 44 C 93.790861 44 92 42.209139 92 40 C 92 37.790861 93.790861 36 96 36 z M 26 48 L 102 48 L 102 104.6875 C 102 107.6607 99.660703 110 96.6875 110 L 31.3125 110 C 28.339297 110 26 107.6607 26 104.6875 L 26 48 z "
       transform="translate(0,924.36218)"
       id="rect4635" />
    <path
       style="fill:#808080;fill-opacity:1;stroke:none"
       d="M 28 50 L 28 106 C 28 107.108 28.892 108 30 108 L 98 108 C 99.108 108 100 107.108 100 106 L 100 50 L 28 50 z M 58.5 53.9375 L 59.90625 53.9375 L 59.90625 60 L 58.5 60 L 58.5 53.9375 z M 61.25 53.9375 L 62.65625 53.9375 L 62.65625 55.0625 L 61.25 55.0625 L 61.25 53.9375 z M 82.375 53.9375 L 83 53.9375 L 83 54.8125 C 83.260413 54.833339 83.52083 54.861984 83.78125 54.90625 C 84.041663 54.950526 84.299475 55.023442 84.5625 55.09375 L 84.5625 56.0625 C 84.302079 55.953129 84.072913 55.8724 83.8125 55.8125 C 83.55208 55.750004 83.263017 55.731775 83 55.71875 L 83 56.8125 L 83.125 56.84375 C 83.786454 56.94792 84.265621 57.130211 84.53125 57.375 C 84.799474 57.61719 84.937495 57.96094 84.9375 58.4375 C 84.937495 58.916668 84.755203 59.304688 84.4375 59.5625 C 84.119787 59.817709 83.643225 59.963542 83 60 L 83 61.1875 L 82.375 61.1875 L 82.375 60 C 82.049477 59.986979 81.742186 59.966146 81.4375 59.90625 C 81.132811 59.846354 80.820312 59.763021 80.53125 59.65625 L 80.53125 58.625 C 80.830728 58.778647 81.132811 58.885418 81.4375 58.96875 C 81.74479 59.04948 82.059894 59.114584 82.375 59.125 L 82.375 57.90625 L 82.25 57.875 C 81.627602 57.765627 81.20052 57.578127 80.9375 57.34375 C 80.677083 57.109378 80.531249 56.783857 80.53125 56.34375 C 80.531249 55.877608 80.682291 55.510421 81 55.25 C 81.320311 54.986984 81.783852 54.835943 82.375 54.8125 L 82.375 53.9375 z M 53.90625 54.375 C 54.489579 54.375006 55.023432 54.494797 55.5 54.71875 C 55.976556 54.940109 56.367181 55.268234 56.6875 55.6875 C 56.882805 55.942712 57.026034 56.200525 57.125 56.5 C 57.226555 56.796878 57.281243 57.109378 57.28125 57.4375 C 57.281243 58.143231 57.049472 58.703126 56.625 59.09375 C 56.200514 59.484376 55.617182 59.6875 54.84375 59.6875 L 54.6875 59.6875 L 54.6875 59.0625 C 54.60937 59.247397 54.486975 59.395834 54.3125 59.5 C 54.140621 59.601563 53.950517 59.65625 53.71875 59.65625 C 53.27083 59.65625 52.906247 59.510417 52.625 59.1875 C 52.346352 58.86198 52.187498 58.427085 52.1875 57.90625 C 52.187498 57.385419 52.343748 56.950524 52.625 56.625 C 52.906247 56.299483 53.273434 56.156254 53.71875 56.15625 C 53.950517 56.156254 54.140621 56.208337 54.3125 56.3125 C 54.486975 56.41667 54.60937 56.565108 54.6875 56.75 L 54.6875 56.21875 L 55.5 56.21875 L 55.5 58.9375 C 55.822911 58.888022 56.096348 58.729168 56.28125 58.46875 C 56.466139 58.205731 56.562493 57.877606 56.5625 57.46875 C 56.562493 57.208336 56.513014 56.945316 56.4375 56.71875 C 56.361973 56.489587 56.247389 56.283858 56.09375 56.09375 C 55.846348 55.776046 55.52864 55.546879 55.15625 55.375 C 54.786453 55.20313 54.401037 55.093755 53.96875 55.09375 C 53.666663 55.093755 53.369788 55.138026 53.09375 55.21875 C 52.817705 55.29688 52.546872 55.408859 52.3125 55.5625 C 51.927081 55.817713 51.653644 56.156254 51.4375 56.5625 C 51.223957 56.966149 51.093749 57.403648 51.09375 57.875 C 51.093749 58.263023 51.174478 58.627606 51.3125 58.96875 C 51.453123 59.307292 51.643227 59.614584 51.90625 59.875 C 52.166664 60.130208 52.47656 60.335937 52.8125 60.46875 C 53.151038 60.604166 53.492184 60.656249 53.875 60.65625 C 54.203121 60.656249 54.54687 60.591145 54.875 60.46875 C 55.20312 60.346354 55.486974 60.177083 55.71875 59.96875 L 56.125 60.625 C 55.799473 60.877603 55.447911 61.054686 55.0625 61.1875 C 54.679683 61.322915 54.302079 61.406249 53.90625 61.40625 C 53.424476 61.406249 52.95833 61.296874 52.53125 61.125 C 52.104164 60.955728 51.739581 60.73177 51.40625 60.40625 C 51.072915 60.080729 50.799478 59.677084 50.625 59.25 C 50.45052 58.820314 50.374999 58.367189 50.375 57.875 C 50.374999 57.401044 50.447916 56.960941 50.625 56.53125 C 50.802082 56.101566 51.078124 55.731775 51.40625 55.40625 C 51.734373 55.083338 52.096352 54.833339 52.53125 54.65625 C 52.968747 54.479172 53.437496 54.375006 53.90625 54.375 z M 89.09375 55.21875 L 94.09375 57.03125 L 94.09375 57.96875 L 89.09375 59.75 L 89.09375 58.78125 L 92.875 57.5 L 89.09375 56.1875 L 89.09375 55.21875 z M 38.0625 55.53125 C 38.32031 55.531254 38.591143 55.554692 38.875 55.59375 C 39.158851 55.632817 39.447913 55.666671 39.78125 55.75 L 39.78125 56.8125 C 39.481767 56.687503 39.216142 56.593753 38.9375 56.53125 C 38.658851 56.468754 38.372393 56.437504 38.125 56.4375 C 37.859373 56.437504 37.661456 56.494795 37.53125 56.5625 C 37.403644 56.627608 37.343748 56.705732 37.34375 56.84375 C 37.343748 56.955732 37.403644 57.065107 37.5 57.125 C 37.598956 57.184899 37.778644 57.221357 38.03125 57.25 L 38.28125 57.28125 C 38.997393 57.372398 39.47135 57.510419 39.71875 57.71875 C 39.966142 57.927085 40.093746 58.273439 40.09375 58.71875 C 40.093746 59.184897 39.906246 59.515625 39.5625 59.75 C 39.218746 59.984375 38.713539 60.125 38.03125 60.125 C 37.742185 60.125 37.434894 60.078125 37.125 60.03125 C 36.817707 59.986979 36.51302 59.934896 36.1875 59.84375 L 36.1875 58.78125 C 36.466145 58.916668 36.739582 59.026043 37.03125 59.09375 C 37.325519 59.161459 37.635415 59.187501 37.9375 59.1875 C 38.210935 59.187501 38.424476 59.138022 38.5625 59.0625 C 38.700518 58.98698 38.749997 58.898439 38.75 58.75 C 38.749997 58.625001 38.721351 58.528647 38.625 58.46875 C 38.531247 58.406252 38.346352 58.346356 38.0625 58.3125 L 37.8125 58.28125 C 37.190103 58.203127 36.749999 58.054689 36.5 57.84375 C 36.249999 57.632815 36.125 57.30469 36.125 56.875 C 36.125 56.411462 36.276041 56.067712 36.59375 55.84375 C 36.911457 55.619796 37.406248 55.531254 38.0625 55.53125 z M 43.25 55.53125 C 43.937497 55.531254 44.463538 55.742192 44.875 56.15625 C 45.289058 56.570316 45.499995 57.119795 45.5 57.8125 L 45.5 58.1875 L 42.25 58.1875 C 42.283852 58.515626 42.390623 58.773439 42.59375 58.9375 C 42.796873 59.101563 43.072914 59.187501 43.4375 59.1875 C 43.731768 59.187501 44.036455 59.148438 44.34375 59.0625 C 44.653642 58.973959 44.986975 58.833334 45.3125 58.65625 L 45.3125 59.75 C 44.981766 59.875 44.643225 59.96875 44.3125 60.03125 C 43.981767 60.096354 43.643226 60.125 43.3125 60.125 C 42.520831 60.125 41.908853 59.901042 41.46875 59.5 C 41.031249 59.096355 40.8125 58.539064 40.8125 57.8125 C 40.8125 57.098961 41.039062 56.533858 41.46875 56.125 C 41.90104 55.71615 42.49479 55.531254 43.25 55.53125 z M 49.40625 55.53125 C 49.453121 55.531254 49.507809 55.526046 49.5625 55.53125 C 49.617184 55.533859 49.70833 55.549484 49.8125 55.5625 L 49.8125 56.8125 C 49.6901 56.755212 49.559892 56.713545 49.4375 56.6875 C 49.317705 56.658858 49.216143 56.656253 49.09375 56.65625 C 48.734372 56.656253 48.44531 56.768232 48.25 57 C 48.05729 57.229169 47.968748 57.570315 47.96875 58 L 47.96875 60 L 46.5625 60 L 46.5625 55.625 L 47.96875 55.625 L 47.96875 56.34375 C 48.148435 56.057296 48.330727 55.848962 48.5625 55.71875 C 48.796872 55.585942 49.080726 55.531254 49.40625 55.53125 z M 66.875 55.53125 C 67.380204 55.531254 67.770829 55.690108 68.03125 56 C 68.294266 56.3099 68.406245 56.752607 68.40625 57.34375 L 68.40625 60 L 67 60 L 67 59.5625 L 67 57.96875 C 66.999996 57.591148 66.986976 57.330732 66.96875 57.1875 C 66.953121 57.044274 66.947913 56.942711 66.90625 56.875 C 66.851559 56.783857 66.781247 56.705732 66.6875 56.65625 C 66.593747 56.60417 66.463539 56.562503 66.34375 56.5625 C 66.052081 56.562503 65.822914 56.679691 65.65625 56.90625 C 65.489581 57.130211 65.406248 57.445315 65.40625 57.84375 L 65.40625 60 L 64 60 L 64 55.625 L 65.40625 55.625 L 65.40625 56.28125 C 65.617185 56.026046 65.856768 55.838546 66.09375 55.71875 C 66.330726 55.596359 66.588538 55.531254 66.875 55.53125 z M 30.625 55.625 L 32.03125 55.625 L 32.03125 56.0625 C 32.031248 56.299483 32.033852 56.609378 32.03125 56.96875 C 32.028644 57.325524 32.031248 57.567711 32.03125 57.6875 C 32.031248 58.039064 32.044269 58.281252 32.0625 58.4375 C 32.080727 58.591147 32.111977 58.710939 32.15625 58.78125 C 32.213539 58.872397 32.283852 58.919272 32.375 58.96875 C 32.468748 59.01823 32.567706 59.062501 32.6875 59.0625 C 32.979164 59.062501 33.20833 58.942709 33.375 58.71875 C 33.541663 58.494793 33.624996 58.179689 33.625 57.78125 L 33.625 55.625 L 35.03125 55.625 L 35.03125 60 L 33.625 60 L 33.625 59.375 C 33.414059 59.630209 33.174476 59.815104 32.9375 59.9375 C 32.703122 60.057292 32.471352 60.125 32.1875 60.125 C 31.68229 60.125 31.296874 59.966146 31.03125 59.65625 C 30.768228 59.346355 30.624999 58.903647 30.625 58.3125 L 30.625 55.625 z M 61.25 55.625 L 62.65625 55.625 L 62.65625 60 L 61.25 60 L 61.25 55.625 z M 69.6875 55.625 L 71.0625 55.625 L 71.0625 56.0625 C 71.062498 56.299483 71.065102 56.609378 71.0625 56.96875 C 71.059894 57.325524 71.062498 57.567711 71.0625 57.6875 C 71.062498 58.039064 71.075519 58.281252 71.09375 58.4375 C 71.111977 58.591147 71.143227 58.710939 71.1875 58.78125 C 71.244789 58.872397 71.315102 58.919272 71.40625 58.96875 C 71.499998 59.01823 71.630206 59.062501 71.75 59.0625 C 72.041664 59.062501 72.27083 58.942709 72.4375 58.71875 C 72.604163 58.494793 72.687496 58.179689 72.6875 57.78125 L 72.6875 55.625 L 74.0625 55.625 L 74.0625 60 L 72.6875 60 L 72.6875 59.375 C 72.476559 59.630209 72.236976 59.815104 72 59.9375 C 71.765622 60.057292 71.502602 60.125 71.21875 60.125 C 70.71354 60.125 70.328124 59.966146 70.0625 59.65625 C 69.799478 59.346355 69.687499 58.903647 69.6875 58.3125 L 69.6875 55.625 z M 74.9375 55.625 L 76.4375 55.625 L 77.3125 56.9375 L 78.21875 55.625 L 79.71875 55.625 L 78.125 57.75 L 79.78125 60 L 78.3125 60 L 77.3125 58.625 L 76.34375 60 L 74.875 60 L 76.53125 57.75 L 74.9375 55.625 z M 82.375 55.71875 C 82.190102 55.729171 82.049477 55.783858 81.9375 55.875 C 81.828123 55.963546 81.781248 56.080733 81.78125 56.21875 C 81.781248 56.372399 81.835936 56.473962 81.9375 56.5625 C 82.03906 56.648441 82.171873 56.726566 82.375 56.75 L 82.375 55.71875 z M 43.21875 56.4375 C 42.947914 56.437504 42.731769 56.533858 42.5625 56.6875 C 42.393227 56.838545 42.291665 57.057295 42.25 57.34375 L 44.0625 57.34375 C 44.062496 57.078128 43.999996 56.848961 43.84375 56.6875 C 43.690101 56.523441 43.468747 56.437504 43.21875 56.4375 z M 53.84375 56.875 C 53.61458 56.875003 53.419267 56.971357 53.28125 57.15625 C 53.14583 57.338544 53.093747 57.591148 53.09375 57.90625 C 53.093747 58.226564 53.14583 58.471356 53.28125 58.65625 C 53.419267 58.841147 53.609371 58.937501 53.84375 58.9375 C 54.075517 58.937501 54.268225 58.841147 54.40625 58.65625 C 54.544266 58.468752 54.624995 58.22396 54.625 57.90625 C 54.624995 57.591148 54.54687 57.338544 54.40625 57.15625 C 54.268225 56.971357 54.078121 56.875003 53.84375 56.875 z M 83 58 L 83 59.09375 C 83.226559 59.091147 83.419267 59.054688 83.53125 58.96875 C 83.64583 58.882814 83.687496 58.734376 83.6875 58.5625 C 83.687496 58.385418 83.635413 58.273439 83.53125 58.1875 C 83.42708 58.09896 83.244788 58.026044 83 58 z "
       transform="translate(0,924.36218)"
       id="rect3428" />
  </g>
</svg>
