<?xml version="1.0" encoding="UTF-8" standalone="no"?>
<!-- Created with Inkscape (http://www.inkscape.org/) -->

<svg
   xmlns:dc="http://purl.org/dc/elements/1.1/"
   xmlns:cc="http://creativecommons.org/ns#"
   xmlns:rdf="http://www.w3.org/1999/02/22-rdf-syntax-ns#"
   xmlns:svg="http://www.w3.org/2000/svg"
   xmlns="http://www.w3.org/2000/svg"
   xmlns:xlink="http://www.w3.org/1999/xlink"
   xmlns:sodipodi="http://sodipodi.sourceforge.net/DTD/sodipodi-0.dtd"
   xmlns:inkscape="http://www.inkscape.org/namespaces/inkscape"
   width="128"
   height="128"
   id="svg2"
   version="1.1"
   inkscape:version="0.91 r13725"
   sodipodi:docname="text-x-copying.svg">
  <defs
     id="defs4">
    <linearGradient
       id="linearGradient4633">
      <stop
         style="stop-color:#ffffff;stop-opacity:1;"
         offset="0"
         id="stop4635" />
      <stop
         style="stop-color:#7d7d7d;stop-opacity:1;"
         offset="1"
         id="stop4637" />
    </linearGradient>
    <linearGradient
       id="linearGradient4216-1">
      <stop
         style="stop-color:#ffffff;stop-opacity:1;"
         offset="0"
         id="stop4218-0" />
      <stop
         style="stop-color:#c6c6c6;stop-opacity:1;"
         offset="1"
         id="stop4220-9" />
    </linearGradient>
    <filter
       inkscape:collect="always"
       id="filter4495">
      <feGaussianBlur
         inkscape:collect="always"
         stdDeviation="2.0800002"
         id="feGaussianBlur4497" />
    </filter>
    <filter
       inkscape:collect="always"
       id="filter4577"
       x="-0.18"
       width="1.36"
       y="-0.18"
       height="1.36">
      <feGaussianBlur
         inkscape:collect="always"
         stdDeviation="1.5"
         id="feGaussianBlur4579" />
    </filter>
    <radialGradient
       inkscape:collect="always"
       xlink:href="#linearGradient4216-1"
       id="radialGradient4631"
       cx="77.611282"
       cy="39.420414"
       fx="77.611282"
       fy="39.420414"
       r="48"
       gradientTransform="matrix(7.3333334,1.1091983e-7,-1.2861914e-7,6.6666669,-489.14941,-230.80277)"
       gradientUnits="userSpaceOnUse" />
    <linearGradient
       inkscape:collect="always"
       xlink:href="#linearGradient4633"
       id="linearGradient4639"
       x1="99"
       y1="945.36218"
       x2="105"
       y2="939.36218"
       gradientUnits="userSpaceOnUse" />
  </defs>
  <sodipodi:namedview
     id="base"
     pagecolor="#ffffff"
     bordercolor="#666666"
     borderopacity="1.0"
     inkscape:pageopacity="0.0"
     inkscape:pageshadow="2"
     inkscape:zoom="1.4609375"
     inkscape:cx="79.677679"
     inkscape:cy="22.903227"
     inkscape:document-units="px"
     inkscape:current-layer="layer1"
     showgrid="true"
     inkscape:window-width="1920"
     inkscape:window-height="1028"
     inkscape:window-x="-8"
     inkscape:window-y="-8"
     inkscape:window-maximized="1"
     showguides="true"
     inkscape:guide-bbox="true">
    <inkscape:grid
       type="xygrid"
       id="grid2985"
       empspacing="2"
       visible="true"
       enabled="true"
       snapvisiblegridlinesonly="true" />
  </sodipodi:namedview>
  <metadata
     id="metadata7">
    <rdf:RDF>
      <cc:Work
         rdf:about="">
        <dc:format>image/svg+xml</dc:format>
        <dc:type
           rdf:resource="http://purl.org/dc/dcmitype/StillImage" />
        <dc:title />
      </cc:Work>
    </rdf:RDF>
  </metadata>
  <g
     inkscape:label="Layer 1"
     inkscape:groupmode="layer"
     id="layer1"
     transform="translate(0,-924.36218)">
    <path
       id="path4473"
       d="m 20,934.36218 c -2.216,0 -4,1.784 -4,4 l 0,104.00002 c 0,2.216 1.784,4 4,4 l 88,0 c 2.216,0 4,-1.784 4,-4 l 0,-88.00002 -20,-20 -72,0 z"
       style="fill:#000000;fill-opacity:1;stroke:none;filter:url(#filter4495)"
       inkscape:connector-curvature="0" />
    <path
       style="fill:url(#radialGradient4631);fill-opacity:1.0;stroke:none"
       d="M 20 8 C 17.784 8 16 9.7840015 16 12 L 16 116 C 16 118.216 17.784 120 20 120 L 108 120 C 110.216 120 112 118.216 112 116 L 112 28 L 92 8 L 20 8 z "
       id="rect4276"
       transform="translate(0,924.36218)" />
    <path
       inkscape:connector-curvature="0"
       id="path4499"
       d="m 112,952.36218 -20,-20 0,16 c 0,2.216 1.784,4 4,4 l 16,0 z"
       style="fill:#000000;fill-opacity:1;stroke:none;filter:url(#filter4577)" />
    <path
       style="fill:url(#linearGradient4639);fill-opacity:1.0;stroke:none"
       d="m 112,952.36218 -20,-20 0,16 c 0,2.216 1.784,4 4,4 l 16,0 z"
       id="rect4326"
       inkscape:connector-curvature="0" />
    <path
       style="font-size:medium;font-style:normal;font-variant:normal;font-weight:normal;font-stretch:normal;text-indent:0;text-align:start;text-decoration:none;line-height:normal;letter-spacing:normal;word-spacing:normal;text-transform:none;direction:ltr;block-progression:tb;writing-mode:lr-tb;text-anchor:start;baseline-shift:baseline;color:#000000;fill:#999999;fill-opacity:1;stroke:none;stroke-width:12;marker:none;visibility:visible;display:inline;overflow:visible;enable-background:accumulate;font-family:Sans;-inkscape-font-specification:Sans"
       d="M 50 42 C 36.557123 42 24.424008 47.815105 16 57.0625 L 16 88 C 16 69.15116 31.151251 54 50 54 C 68.848749 54 84 69.15116 84 88 C 84 102.79484 74.661868 115.30028 61.53125 120 L 82.96875 120 C 91.0194 111.70862 96 100.42152 96 88 C 96 62.66591 75.334031 42 50 42 z M 16 88 L 16 116 C 16 118.216 17.784 120 20 120 L 38.46875 120 C 25.338132 115.30028 16 102.79484 16 88 z M 49.46875 58.03125 C 43.312005 58.13251 37.152346 60.09974 31.9375 64.03125 C 18.764261 73.96262 16.099863 92.8892 26.03125 106.0625 C 35.962637 119.2357 54.889261 121.90015 68.0625 111.96875 A 6.0031323 6.0031323 0 1 0 60.84375 102.375 C 52.84901 108.4023 41.652284 106.83855 35.625 98.84375 C 29.597716 90.84905 31.16151 79.65234 39.15625 73.625 C 46.365822 68.1896 56.373918 68.88855 62.75 75.28125 A 6.0006 6.0006 0 1 0 71.25 66.8125 C 65.979184 61.52796 59.11124 58.58825 52.09375 58.09375 C 51.216564 58.03195 50.348285 58.01675 49.46875 58.03125 z "
       transform="translate(0,924.36218)"
       id="path4495" />
  </g>
</svg>
