<?xml version="1.0" encoding="UTF-8" standalone="no"?>
<!-- Created with Inkscape (http://www.inkscape.org/) -->

<svg
   xmlns:dc="http://purl.org/dc/elements/1.1/"
   xmlns:cc="http://creativecommons.org/ns#"
   xmlns:rdf="http://www.w3.org/1999/02/22-rdf-syntax-ns#"
   xmlns:svg="http://www.w3.org/2000/svg"
   xmlns="http://www.w3.org/2000/svg"
   xmlns:xlink="http://www.w3.org/1999/xlink"
   xmlns:sodipodi="http://sodipodi.sourceforge.net/DTD/sodipodi-0.dtd"
   xmlns:inkscape="http://www.inkscape.org/namespaces/inkscape"
   width="128"
   height="128"
   id="svg2"
   version="1.1"
   inkscape:version="0.91 r13725"
   sodipodi:docname="text-html.svg">
  <defs
     id="defs4">
    <linearGradient
       id="linearGradient4633">
      <stop
         style="stop-color:#ffffff;stop-opacity:1;"
         offset="0"
         id="stop4635" />
      <stop
         style="stop-color:#7d7d7d;stop-opacity:1;"
         offset="1"
         id="stop4637" />
    </linearGradient>
    <linearGradient
       id="linearGradient4216-1">
      <stop
         style="stop-color:#ffffff;stop-opacity:1;"
         offset="0"
         id="stop4218-0" />
      <stop
         style="stop-color:#c6c6c6;stop-opacity:1;"
         offset="1"
         id="stop4220-9" />
    </linearGradient>
    <filter
       inkscape:collect="always"
       id="filter4495">
      <feGaussianBlur
         inkscape:collect="always"
         stdDeviation="2.0800002"
         id="feGaussianBlur4497" />
    </filter>
    <filter
       inkscape:collect="always"
       id="filter4577"
       x="-0.18"
       width="1.36"
       y="-0.18"
       height="1.36">
      <feGaussianBlur
         inkscape:collect="always"
         stdDeviation="1.5"
         id="feGaussianBlur4579" />
    </filter>
    <radialGradient
       inkscape:collect="always"
       xlink:href="#linearGradient4216-1"
       id="radialGradient4631"
       cx="77.611282"
       cy="39.420414"
       fx="77.611282"
       fy="39.420414"
       r="48"
       gradientTransform="matrix(7.3333334,1.1091983e-7,-1.2861914e-7,6.6666669,-489.14941,-230.80277)"
       gradientUnits="userSpaceOnUse" />
    <linearGradient
       inkscape:collect="always"
       xlink:href="#linearGradient4633"
       id="linearGradient4639"
       x1="99"
       y1="945.36218"
       x2="105"
       y2="939.36218"
       gradientUnits="userSpaceOnUse" />
  </defs>
  <sodipodi:namedview
     id="base"
     pagecolor="#ffffff"
     bordercolor="#666666"
     borderopacity="1.0"
     inkscape:pageopacity="0.0"
     inkscape:pageshadow="2"
     inkscape:zoom="2.0660776"
     inkscape:cx="10.15125"
     inkscape:cy="77.884564"
     inkscape:document-units="px"
     inkscape:current-layer="layer1"
     showgrid="true"
     inkscape:window-width="1920"
     inkscape:window-height="1028"
     inkscape:window-x="-8"
     inkscape:window-y="-8"
     inkscape:window-maximized="1"
     showguides="true"
     inkscape:guide-bbox="true">
    <inkscape:grid
       type="xygrid"
       id="grid2985"
       empspacing="2"
       visible="true"
       enabled="true"
       snapvisiblegridlinesonly="true" />
  </sodipodi:namedview>
  <metadata
     id="metadata7">
    <rdf:RDF>
      <cc:Work
         rdf:about="">
        <dc:format>image/svg+xml</dc:format>
        <dc:type
           rdf:resource="http://purl.org/dc/dcmitype/StillImage" />
        <dc:title />
      </cc:Work>
    </rdf:RDF>
  </metadata>
  <g
     inkscape:label="Layer 1"
     inkscape:groupmode="layer"
     id="layer1"
     transform="translate(0,-924.36218)">
    <path
       id="path4473"
       d="m 20,934.36218 c -2.216,0 -4,1.784 -4,4 l 0,104.00002 c 0,2.216 1.784,4 4,4 l 88,0 c 2.216,0 4,-1.784 4,-4 l 0,-88.00002 -20,-20 -72,0 z"
       style="fill:#000000;fill-opacity:1;stroke:none;filter:url(#filter4495)"
       inkscape:connector-curvature="0" />
    <path
       style="fill:url(#radialGradient4631);fill-opacity:1;stroke:none"
       d="M 20 8 C 17.784 8 16 9.7840015 16 12 L 16 116 C 16 118.216 17.784 120 20 120 L 108 120 C 110.216 120 112 118.216 112 116 L 112 28 L 92 8 L 20 8 z "
       id="rect4276"
       transform="translate(0,924.36218)" />
    <path
       inkscape:connector-curvature="0"
       id="path4499"
       d="m 112,952.36218 -20,-20 0,16 c 0,2.216 1.784,4 4,4 l 16,0 z"
       style="fill:#000000;fill-opacity:1;stroke:none;filter:url(#filter4577)" />
    <path
       style="fill:url(#linearGradient4639);fill-opacity:1.0;stroke:none"
       d="m 112,952.36218 -20,-20 0,16 c 0,2.216 1.784,4 4,4 l 16,0 z"
       id="rect4326"
       inkscape:connector-curvature="0" />
    <path
       style="color:#000000;fill:#999999;fill-opacity:1;fill-rule:nonzero;stroke:none;stroke-width:1;marker:none;visibility:visible;display:inline;overflow:visible;enable-background:accumulate"
       d="M 48 48 C 35.716815 48 24.493158 52.618603 16 60.21875 L 16 64.21875 C 24.167212 55.988351 35.477006 50.90625 48 50.90625 C 51.984568 50.90625 55.852572 51.40668 59.53125 52.375 C 56.533146 52.3077 53.071632 52.52186 52.03125 52.9375 C 51.48826 53.15442 51.353489 53.26713 51.71875 53.28125 C 52.044322 53.29385 52.30884 53.58985 52.28125 53.9375 C 52.24784 54.35821 52.425435 54.52547 52.90625 54.46875 C 53.292666 54.42315 54.153326 54.34652 54.78125 54.3125 C 55.409174 54.2785 55.90625 54.11242 55.90625 53.9375 C 55.90625 53.45073 57.391058 54.04618 58.03125 54.78125 C 58.343722 55.14002 58.812402 55.4375 59.03125 55.4375 C 59.250094 55.4375 59.40625 55.68491 59.40625 56 C 59.40625 56.46653 59.646005 56.55231 60.71875 56.375 C 61.443278 56.25524 62.251392 56.12712 62.46875 56.125 C 62.686109 56.123 62.913513 55.65118 63.03125 55.0625 C 63.215985 54.13881 63.377584 54.02604 64.5625 54.0625 C 65.637315 54.48709 66.686339 54.96583 67.71875 55.46875 C 67.839406 55.57879 68.095876 55.71235 68.53125 55.9375 C 68.964462 56.16152 69.25699 56.27308 69.46875 56.3125 C 69.48362 56.3205 69.48515 56.33575 69.5 56.34375 C 69.831455 56.52371 70.142391 56.71829 70.46875 56.90625 C 70.183057 56.91025 70.008775 56.99947 70.125 57.1875 C 70.407898 57.64524 69.744897 57.62173 68.875 57.15625 C 68.08142 56.73154 67.146998 57.08129 67.875 57.53125 C 68.571633 57.9618 65.937573 58.38691 65.15625 57.96875 C 64.793568 57.77465 63.684366 57.64271 62.6875 57.6875 C 61.690637 57.7323 59.695251 57.59098 58.28125 57.375 C 55.970664 57.02207 55.724932 56.9136 55.75 56.21875 C 55.77105 55.63538 55.586189 55.4375 54.96875 55.4375 C 54.518693 55.4375 54.125 55.58805 54.125 55.78125 C 54.125 55.97446 54.306793 56.125 54.5 56.125 C 54.693207 56.125 54.84375 56.35129 54.84375 56.625 C 54.84375 56.89871 55.039741 57.19982 55.28125 57.28125 C 55.522759 57.36265 54.738797 57.51878 53.53125 57.65625 C 52.323703 57.79372 51.34375 58.07511 51.34375 58.28125 C 51.34375 58.49161 50.961661 58.59422 50.46875 58.5 C 49.87985 58.38742 49.59375 58.49232 49.59375 58.8125 C 49.59375 59.14085 49.118838 59.28095 48.09375 59.28125 C 46.994378 59.28156 46.307277 59.5499 45.53125 60.21875 C 44.711492 60.9253 44.231819 61.0807 43.34375 60.9375 C 42.715825 60.83626 42.21875 60.88143 42.21875 61.0625 C 42.21875 61.24356 41.55408 61.40625 40.78125 61.40625 C 40.00842 61.40625 39.375 61.55679 39.375 61.75 C 39.375 61.9432 39.780784 62.09375 40.25 62.09375 C 40.719221 62.09375 41.335189 62.33519 41.625 62.625 C 41.914811 62.91481 42.324244 63.15625 42.53125 63.15625 C 42.73826 63.15625 42.90625 63.38254 42.90625 63.65625 C 42.90625 63.92996 43.10224 64.21504 43.34375 64.3125 C 43.695036 64.45424 43.695036 64.50906 43.34375 64.53125 C 43.10224 64.54655 42.90625 64.80394 42.90625 65.09375 C 42.90625 65.38356 42.724457 65.625 42.53125 65.625 C 42.338042 65.625 42.21875 65.83898 42.21875 66.125 C 42.21875 66.56649 41.585866 66.61974 38.15625 66.4375 L 34.125 66.21875 L 34.125 68.03125 C 34.125 69.02254 33.974457 69.8125 33.78125 69.8125 C 33.588042 69.8125 33.4375 70.0852 33.4375 70.375 C 33.4375 70.6648 33.588042 70.875 33.78125 70.875 C 33.974457 70.875 34.125 71.267 34.125 71.75 C 34.125 72.6363 34.340332 72.77305 35.78125 72.65625 C 36.223372 72.62025 36.662909 72.8166 36.78125 73.125 C 37.011216 73.7243 38.6875 73.91865 38.6875 73.34375 C 38.6875 73.15055 39.411816 73 40.28125 73 C 41.150684 73 41.875 72.8182 41.875 72.625 C 41.875 72.4318 42.08519 72.28125 42.375 72.28125 C 42.664812 72.28125 42.90625 72.0398 42.90625 71.75 C 42.90625 71.4602 43.049693 71.21875 43.21875 71.21875 C 43.387807 71.21875 43.605934 70.78285 43.71875 70.21875 C 43.840513 69.60995 44.230628 69.10383 44.65625 68.96875 C 45.050604 68.84359 45.375 68.58644 45.375 68.40625 C 45.375 68.22607 45.660639 68.0625 46.03125 68.0625 C 47.247474 68.0625 47.8125 67.66356 47.8125 66.78125 C 47.8125 65.92132 47.864436 65.91416 50.125 66.15625 C 51.61386 66.31569 52.375 66.26686 52.375 66.03125 C 52.375 65.56921 54.931849 65.13816 55.875 65.4375 C 56.269562 65.56273 56.625 65.83727 56.625 66.03125 C 56.625 66.54558 57.391979 67.249 58.28125 67.53125 C 58.706956 67.66636 59.0625 67.87634 59.0625 68.03125 C 59.0625 68.18616 59.594001 68.4248 60.25 68.53125 C 61.546549 68.74165 62.9375 69.7216 62.9375 70.4375 C 62.9375 70.6844 63.165776 70.875 63.4375 70.875 C 63.758592 70.875 63.838159 70.6441 63.71875 70.1875 C 63.590977 69.6989 63.730037 69.46875 64.125 69.46875 C 65.19583 69.46875 64.704617 68.85681 63.46875 68.65625 C 62.789281 68.54599 61.757726 68.01168 61.1875 67.46875 C 59.597979 65.95528 59.116596 65.625 58.71875 65.625 C 58.517386 65.625 58.375 65.30856 58.375 64.9375 C 58.375 64.05558 60.104874 63.64418 61.125 64.28125 C 61.527661 64.53272 61.875 64.83582 61.875 64.96875 C 61.875 65.51599 63.047869 66.3125 63.84375 66.3125 C 64.312967 66.3125 64.6875 66.45274 64.6875 66.625 C 64.6875 66.79726 65.073623 67.03355 65.5625 67.15625 C 66.189287 67.31356 66.540198 67.70098 66.6875 68.4375 C 66.802395 69.01197 67.018444 69.46875 67.1875 69.46875 C 67.356557 69.46875 67.5 69.61925 67.5 69.8125 C 67.5 70.4224 68.893112 71.59375 69.625 71.59375 C 70.165131 71.59375 70.28125 71.3412 70.28125 70.5625 C 70.28125 69.809 70.505806 69.50132 71.09375 69.34375 C 72.292848 69.02241 74.1875 69.10956 74.1875 69.46875 C 74.1875 69.64387 74.488586 69.69477 74.875 69.59375 C 75.615778 69.40004 75.849906 68.58539 75.21875 68.375 C 75.014488 68.3069 74.934587 67.95831 75.0625 67.625 C 75.190398 67.29168 75.454251 67.11322 75.625 67.21875 C 75.795749 67.32428 75.831905 67.16991 75.71875 66.875 C 75.542321 66.41523 76.554985 64.93861 76.875 65.1875 C 76.93711 65.2358 77.014202 65.23885 77.0625 65.21875 C 77.566056 65.00859 79.856306 65.08 80 65.3125 C 80.103309 65.47965 79.974607 65.58434 79.71875 65.53125 C 79.414677 65.46815 79.312651 65.72143 79.375 66.28125 C 79.49132 67.32566 79.611684 67.53599 80.125 67.21875 C 80.393473 67.05282 80.337632 66.78731 79.90625 66.46875 C 79.329327 66.04271 79.355402 66.02346 80.3125 66.09375 C 81.667809 66.19335 82.25 66.54904 82.25 67.3125 C 82.25 67.6483 82.860171 68.53441 83.625 69.28125 C 84.389829 70.02812 84.963793 70.76255 84.875 70.90625 C 84.635822 71.29325 82.181334 70.45705 81.375 69.71875 C 80.884447 69.26963 80.399868 69.17388 79.78125 69.34375 C 79.296341 69.47691 78.605165 69.60395 78.21875 69.625 C 77.832336 69.646 77.302487 69.8676 77.03125 70.125 C 76.709563 70.4303 76.11052 70.5189 75.34375 70.375 C 74.619699 70.2392 74.1875 70.30515 74.1875 70.53125 C 74.1875 70.73325 74.297041 70.875 74.46875 70.875 C 74.640451 70.875 74.904392 71.4488 75.03125 72.125 C 75.220465 73.1336 75.41764 73.34375 76.125 73.34375 C 76.599262 73.34375 76.96875 73.52555 76.96875 73.71875 C 76.96875 73.91195 77.320932 74.03125 77.71875 74.03125 C 78.116569 74.03125 78.349636 73.9112 78.25 73.75 C 78.15037 73.5888 78.809383 73.6427 79.71875 73.875 C 80.680641 74.1213 81.443976 74.15355 81.5625 73.96875 C 81.674551 73.79405 82.016886 73.7617 82.3125 73.875 C 82.725671 74.0336 82.823405 74.50288 82.71875 75.90625 C 82.487812 79.00295 82.418258 79.3125 82.125 79.3125 C 81.968688 79.3125 81.943088 79.46305 82.0625 79.65625 C 82.19362 79.86835 81.736135 80.03125 80.875 80.03125 C 79.971357 80.03125 79.440911 79.8409 79.4375 79.5625 C 79.4339 79.2519 79.346802 79.2749 79.125 79.625 C 78.750302 80.2169 75.475468 80.30155 75.28125 79.71875 C 75.21129 79.50875 74.734918 79.3125 74.1875 79.3125 C 73.64008 79.3125 73.126905 79.15265 73.0625 78.96875 C 72.888027 78.47075 68.470691 78.15505 67.84375 78.59375 C 67.37537 78.92145 67.37537 79.0051 67.84375 79.3125 C 68.156606 79.5179 68.215406 79.65305 67.96875 79.65625 C 67.74026 79.65625 67.435144 79.9886 67.3125 80.375 C 67.027765 81.2721 66.396609 81.2721 65.75 80.375 C 65.397326 79.8857 64.830861 79.65625 63.90625 79.65625 C 63.176074 79.65625 62.5625 79.48825 62.5625 79.28125 C 62.5625 78.47585 61.585371 78.00895 59.59375 77.84375 C 58.451404 77.74875 57.449139 77.4725 57.375 77.25 C 57.30086 77.0276 56.932813 76.875 56.5625 76.875 C 55.671948 76.875 55.719221 76.21892 56.65625 75.40625 C 57.07223 75.04545 57.254021 74.75 57.03125 74.75 C 56.808478 74.75 56.625 74.582 56.625 74.375 C 56.625 73.755 55.652723 73 54.875 73 C 54.474782 73 54.125 73.15055 54.125 73.34375 C 54.125 73.53705 53.91481 73.71875 53.625 73.71875 C 53.335188 73.71875 53.09375 73.53705 53.09375 73.34375 C 53.09375 73.15055 52.701769 73 52.21875 73 C 51.735731 73 51.34375 73.11055 51.34375 73.28125 C 51.34375 73.45195 49.724878 73.672 47.78125 73.75 C 45.176521 73.8547 44.202745 74.02765 43.96875 74.40625 C 43.726281 74.79855 42.827616 74.9375 40.28125 74.9375 C 37.123477 74.9375 36.967871 74.97508 36.78125 75.71875 C 36.667592 76.17155 36.222265 76.59235 35.71875 76.71875 C 35.238674 76.83925 34.8125 77.0778 34.8125 77.25 C 34.8125 77.4223 34.520131 77.5625 34.15625 77.5625 C 33.453939 77.5625 33.070659 78.4546 33.0625 80.125 C 33.0562 81.4122 31.620605 82.8097 30.0625 83.0625 C 29.214794 83.2001 28.875 83.4538 28.875 83.875 C 28.875 84.2091 28.451769 84.7623 27.96875 85.125 C 27.483111 85.4897 27.09375 86.15225 27.09375 86.59375 C 27.09375 87.03275 26.761415 87.6691 26.375 88 C 25.988585 88.3308 25.71875 88.88835 25.71875 89.21875 C 25.71875 89.54915 25.386415 89.90855 25 90.03125 C 24.09125 90.31965 24.09125 91.49275 25 91.78125 C 25.613567 91.97595 25.71875 92.3108 25.71875 94.4375 C 25.71875 95.8269 25.54416 96.875 25.34375 96.875 C 25.150543 96.875 25 97.25185 25 97.71875 C 25 98.18565 24.772759 98.66855 24.53125 98.78125 C 24.179964 98.94515 24.179964 99.0235 24.53125 99.1875 C 24.772759 99.3002 25 99.6013 25 99.875 C 25 100.1487 25.241439 100.375 25.53125 100.375 C 25.851722 100.375 26.048116 100.7067 26.03125 101.1875 C 26.016 101.6222 25.909951 101.77285 25.8125 101.53125 C 25.602847 101.01175 25 100.9422 25 101.4375 C 25 101.6271 25.391981 101.8787 25.875 102 C 26.358019 102.1212 26.75 102.48495 26.75 102.78125 C 26.75 103.07745 27.201627 103.7586 27.78125 104.3125 C 28.400689 104.9045 28.875 105.6731 28.875 106.1875 C 28.875 106.7312 29.047624 107.0625 29.375 107.0625 C 29.664811 107.0625 29.90625 107.30385 29.90625 107.59375 C 29.90625 107.88355 30.196756 108.125 30.5625 108.125 C 30.928244 108.125 31.326289 108.3352 31.4375 108.625 C 31.548711 108.9148 31.96429 109.1875 32.34375 109.1875 C 32.723209 109.1875 33.102876 109.47865 33.21875 109.84375 C 33.334624 110.20885 33.856794 110.5884 34.375 110.6875 C 35.555266 110.9131 37.625 110.5945 37.625 110.1875 C 37.625 110.0195 38.25842 109.875 39.03125 109.875 C 39.80408 109.875 40.46875 110.02555 40.46875 110.21875 C 40.46875 110.41195 40.829482 110.5625 41.3125 110.5625 C 41.795519 110.5625 42.21875 110.41195 42.21875 110.21875 C 42.21875 110.02555 42.590452 109.875 43.0625 109.875 C 43.821279 109.875 43.912079 109.72435 43.84375 108.65625 C 43.79643 107.91655 43.446949 107.19595 42.96875 106.78125 C 42.539208 106.40865 42.21875 105.9972 42.21875 105.875 C 42.21875 105.4592 43.540733 105.65255 43.71875 106.09375 C 43.860498 106.44495 43.915313 106.44495 43.9375 106.09375 C 43.95275 105.85215 44.119292 105.65625 44.3125 105.65625 C 44.505707 105.65625 44.65625 106.4327 44.65625 107.375 L 44.65625 109.09375 L 46.34375 108.90625 C 47.261485 108.80545 48.136345 108.55735 48.28125 108.34375 C 48.473323 108.06075 48.589178 108.05815 48.78125 108.34375 C 48.926156 108.55925 49.409033 108.83315 49.84375 108.96875 C 50.377406 109.13525 50.625 109.4892 50.625 110.0625 C 50.625 110.8906 50.694434 110.93365 52.75 110.71875 C 54.560002 110.52955 54.84375 110.53575 54.84375 111.03125 C 54.84375 111.34855 55.08519 111.625 55.375 111.625 C 56.14313 111.625 56.115689 115.94675 55.34375 116.71875 C 55.04014 117.02235 54.938938 117.25 55.125 117.25 C 55.311063 117.25 55.597521 117.642 55.71875 118.125 C 55.839983 118.608 56.091724 119 56.28125 119 C 56.470776 119 56.625 119.18335 56.625 119.40625 C 56.625 119.50994 56.759913 119.72369 56.96875 120 L 76.71875 120 C 76.778959 119.82307 76.87584 119.71875 77 119.71875 C 77.179035 119.71875 77.250552 119.838 77.1875 120 L 84.03125 120 C 84.512222 118.92679 85.445451 117.48385 87.65625 114.15625 C 89.973682 110.66825 91.262993 107.64205 91.875 104.21875 C 92.084251 103.04835 92.023197 102.92425 91.375 103.09375 C 90.982935 103.19615 90.6875 103.42305 90.6875 103.59375 C 90.6875 103.76445 90.264268 103.90625 89.78125 103.90625 C 89.197992 103.90625 88.908026 103.68955 88.875 103.28125 C 88.7832 102.14655 88.685538 101.27945 88.625 100.90625 C 88.59191 100.70245 88.019975 99.9258 87.34375 99.1875 C 86.593656 98.3686 86.1258 97.4999 86.125 96.9375 C 86.124294 96.4305 85.791944 95.47635 85.40625 94.84375 C 84.948904 94.09365 84.71875 93.06765 84.71875 91.90625 C 84.71875 90.45675 84.570551 90.10985 84.03125 89.96875 C 83.590472 89.85355 83.325289 89.3561 83.1875 88.5 C 83.073594 87.7922 82.641112 86.5779 82.25 85.8125 C 81.85888 85.0471 81.53125 84.2135 81.53125 83.9375 C 81.53125 83.6616 81.301548 83.24565 81.03125 83.03125 C 80.386501 82.51945 79.976161 81.0625 80.46875 81.0625 C 80.674983 81.0625 80.84375 81.21525 80.84375 81.40625 C 80.84375 81.59725 81.130634 82.07335 81.46875 82.46875 L 82.0625 83.21875 L 82.28125 82.40625 C 82.494094 81.65825 82.529875 81.6625 82.5625 82.5625 C 82.58177 83.0939 82.765681 83.53125 82.96875 83.53125 C 83.171812 83.53125 83.573334 84.11925 83.875 84.84375 C 84.176665 85.56835 84.533064 86.24715 84.65625 86.34375 C 85.131871 86.71675 86.074393 89.02145 86.25 90.28125 C 86.351266 91.00785 86.667114 91.85465 86.96875 92.15625 C 87.270386 92.45785 87.53125 92.9807 87.53125 93.3125 C 87.53125 93.6443 87.832335 94.52335 88.21875 95.28125 C 88.605164 96.03925 88.93486 97.31345 88.9375 98.09375 C 88.9433 99.88185 89.256074 101.09375 89.71875 101.09375 C 90.028743 101.09375 90.885379 100.22165 92.09375 98.71875 C 92.471401 98.24895 92.793846 97.562 93.0625 96.75 C 92.922594 105.2976 90.412485 113.24826 86.15625 120 L 89.5625 120 C 93.653018 112.93701 96 104.74243 96 96 C 96 69.50754 74.492428 48 48 48 z M 59.875 54.375 C 60.213113 54.369 60.46875 54.53161 60.46875 54.71875 C 60.46875 54.9059 60.710189 54.95495 61 54.84375 C 61.289812 54.73253 61.53125 54.81771 61.53125 55.03125 C 61.53125 55.57772 60.744534 55.51666 59.9375 54.90625 C 59.3205 54.43957 59.318751 54.38511 59.875 54.375 z M 38.375 54.9375 C 38.254363 54.9465 38.181691 54.94805 38.125 54.96875 C 37.457331 55.21158 38.70743 56.46875 39.625 56.46875 C 40.190954 56.46875 40.46875 56.69056 40.46875 57.1875 C 40.46875 57.57782 40.198988 57.875 39.90625 57.875 C 39.616439 57.875 39.375 58.158 39.375 58.46875 C 39.375 58.90533 39.62854 58.95464 40.375 58.78125 C 41.091733 58.61476 41.172197 58.67294 40.78125 58.9375 C 40.397592 59.19713 40.870173 59.27733 42.46875 59.28125 C 43.676297 59.28425 44.65625 59.14852 44.65625 58.96875 C 44.65625 58.78898 45.034033 58.55248 45.46875 58.46875 C 46.053038 58.35621 45.951471 58.31662 45.125 58.28125 C 44.341055 58.24775 43.937607 58.02389 43.78125 57.53125 C 43.658605 57.14484 43.248396 56.84375 42.875 56.84375 C 42.501608 56.84375 42.21875 56.67786 42.21875 56.5 C 42.21875 56.32214 41.690425 56.0768 41.0625 55.9375 C 40.083191 55.72024 40.022347 55.65289 40.625 55.4375 C 41.171014 55.24234 40.99828 55.13454 39.90625 55 C 39.326627 54.9286 38.736912 54.91 38.375 54.9375 z M 36.125 56.84375 C 34.919745 56.85555 33.78125 57.5157 33.78125 58.1875 C 33.78125 58.40771 33.630707 58.59375 33.4375 58.59375 C 33.244292 58.59375 33.0625 58.76252 33.0625 58.96875 C 33.0625 59.17498 33.349386 59.25145 33.6875 59.15625 C 34.025613 59.06105 34.809576 58.90763 35.4375 58.78125 C 36.081919 58.65156 36.59375 58.31292 36.59375 58.03125 C 36.59375 57.7568 36.744292 57.53125 36.9375 57.53125 C 37.130707 57.53125 37.28125 57.3807 37.28125 57.1875 C 37.28125 56.99429 36.752924 56.8376 36.125 56.84375 z M 39.8125 59.3125 C 39.634168 59.3125 39.37178 59.40492 39.03125 59.625 C 38.605154 59.90036 38.642106 59.9644 39.28125 59.96875 C 39.715967 59.97175 40.09375 59.81821 40.09375 59.625 C 40.09375 59.40493 39.990837 59.3125 39.8125 59.3125 z M 51.6875 63.15625 C 51.880708 63.15625 52.03125 63.30679 52.03125 63.5 C 52.03125 63.6932 51.880708 63.875 51.6875 63.875 C 51.494293 63.875 51.34375 63.6932 51.34375 63.5 C 51.34375 63.30679 51.494293 63.15625 51.6875 63.15625 z M 55.21875 67.03125 C 55.025542 67.03125 54.84375 67.18179 54.84375 67.375 C 54.84375 67.56821 55.025542 67.71875 55.21875 67.71875 C 55.411957 67.71875 55.53125 67.56821 55.53125 67.375 C 55.53125 67.18179 55.411957 67.03125 55.21875 67.03125 z M 54.84375 68.78125 C 54.297303 68.78125 54.125 68.99279 54.125 69.8125 C 54.125 70.9911 54.299697 71.1066 55.03125 70.375 C 55.762313 69.644 55.666196 68.78125 54.84375 68.78125 z M 71.09375 71.625 C 70.968213 71.615 70.809903 71.70775 70.6875 71.90625 C 70.5243 72.17025 70.121811 72.3062 69.8125 72.1875 C 69.186933 71.9474 69.162193 71.98235 69.46875 72.78125 C 69.741984 73.49335 69.809348 73.5032 70.6875 72.625 C 71.090018 72.2225 71.341961 71.77945 71.21875 71.65625 C 71.18795 71.62525 71.135596 71.627 71.09375 71.625 z M 60.625 71.9375 C 59.259381 71.9375 58.982826 72.5119 60.21875 72.75 C 61.686989 73.0328 61.875 72.99705 61.875 72.46875 C 61.875 72.10075 61.483698 71.9375 60.625 71.9375 z M 90.4375 81.78125 C 90.556577 81.77125 90.832787 82.21565 91.1875 82.96875 C 91.490882 83.97705 91.73534 84.99445 91.96875 86.03125 C 91.94817 86.03125 91.936 86.0295 91.90625 86.0625 C 91.578483 86.3669 90.332229 83.03275 90.375 81.96875 C 90.3794 81.85855 90.39495 81.78335 90.4375 81.78125 z M 92.03125 86.3125 C 92.157643 86.8908 92.271007 87.4761 92.375 88.0625 C 92.255131 88.0725 92.117259 88.0235 91.96875 87.875 C 91.843463 87.7497 91.848518 87.22135 91.96875 86.71875 C 92.0078 86.55535 92.02346 86.4248 92.03125 86.3125 z M 81.03125 88.3125 C 81.08027 88.312 81.140584 88.5036 81.15625 88.875 C 81.18279 89.5036 81.018977 89.875 80.6875 89.875 C 80.407289 89.875 79.998646 90.13065 79.78125 90.46875 C 79.412108 91.04295 79.404942 91.0381 79.59375 90.4375 C 79.704942 90.0837 79.78125 89.64625 79.78125 89.46875 C 79.78125 89.29135 80.005606 89.15625 80.28125 89.15625 C 80.556893 89.15625 80.880394 88.86935 80.96875 88.53125 C 81.00584 88.38945 81.00179 88.3128 81.03125 88.3125 z M 39.03125 97.59375 C 39.224457 97.59375 39.375 97.8352 39.375 98.125 C 39.375 98.4148 39.224457 98.625 39.03125 98.625 C 38.838042 98.625 38.6875 98.4148 38.6875 98.125 C 38.6875 97.8352 38.838042 97.59375 39.03125 97.59375 z M 60.15625 100.09375 C 60.349106 100.10875 60.558712 100.16825 60.78125 100.21875 C 62.171206 100.52405 62.351318 101.78125 61 101.78125 C 60.355976 101.78125 60.125 101.60895 60.125 101.09375 C 60.125 100.70735 59.94416 100.375 59.71875 100.375 C 59.493344 100.375 59.38501 100.303 59.5 100.1875 C 59.52875 100.1585 59.607717 100.138 59.6875 100.125 C 59.807174 100.1055 59.963394 100.07875 60.15625 100.09375 z M 84.8125 101.9375 C 84.84944 101.9005 84.912677 101.95365 84.96875 102.09375 C 85.070227 102.34735 85.05417 102.6332 84.9375 102.75 C 84.820765 102.8667 84.703491 102.65185 84.71875 102.28125 C 84.72715 102.07665 84.77555 101.9744 84.8125 101.9375 z M 82.46875 102.125 C 82.55395 102.125 82.59375 102.3068 82.59375 102.5 C 82.59375 102.6932 82.423361 102.84375 82.21875 102.84375 C 82.01414 102.84375 81.94309 102.6932 82.0625 102.5 C 82.181911 102.3068 82.38355 102.125 82.46875 102.125 z M 49.21875 102.84375 C 49.614306 102.84375 50.074296 104.23825 49.78125 104.53125 C 49.667004 104.64545 49.59375 104.4473 49.59375 104.125 C 49.59375 103.8029 49.411958 103.53125 49.21875 103.53125 C 49.025543 103.53125 48.875 103.41195 48.875 103.21875 C 48.875 103.02555 49.038565 102.84375 49.21875 102.84375 z M 37.0625 107.09375 C 37.176728 107.05175 37.388675 107.13045 37.78125 107.28125 C 38.566164 107.58245 38.462554 108.125 37.625 108.125 C 37.234682 108.125 36.9375 107.88645 36.9375 107.59375 C 36.9375 107.29815 36.948277 107.13595 37.0625 107.09375 z M 83.21875 110.875 C 83.27635 110.849 83.357646 110.87775 83.4375 110.96875 C 83.76902 111.35325 84.000357 113.03125 83.71875 113.03125 C 83.542808 113.03125 83.283203 112.6308 83.15625 112.125 C 83.000105 111.5029 83.046076 110.9544 83.21875 110.875 z M 79.34375 113.1875 C 79.41899 113.1875 79.4375 113.2818 79.4375 113.5 C 79.4375 113.7799 79.19606 114.197 78.90625 114.4375 C 78.50793 114.7681 78.375 114.78655 78.375 114.46875 C 78.375 114.23805 78.616439 113.82105 78.90625 113.53125 C 79.132199 113.30535 79.268506 113.19 79.34375 113.1875 z M 80.53125 113.75 C 81.144362 113.75 81.208761 113.84155 80.84375 114.28125 C 80.603234 114.57105 80.364776 114.78125 80.3125 114.78125 C 80.26021 114.78125 80.142464 114.57105 80.03125 114.28125 C 79.89125 113.91635 80.022633 113.75 80.53125 113.75 z M 80.46875 115.15625 C 80.807186 115.09625 81.341347 115.2394 81.6875 115.5625 C 82.065543 115.9157 82.077762 116.07855 81.6875 116.46875 C 81.426686 116.72955 81.21875 117.2523 81.21875 117.625 C 81.21875 117.9975 80.946068 118.28125 80.65625 118.28125 C 80.366439 118.28125 80.12796 118.5085 80.125 118.75 C 80.1214 119.0716 80.034672 119.06895 79.8125 118.71875 C 79.556362 118.31445 79.504528 118.31445 79.34375 118.71875 C 79.239015 118.98215 79.140258 118.44905 79.125 117.53125 C 79.10405 116.26995 79.22668 115.84375 79.625 115.84375 C 79.914811 115.84375 80.125 115.6931 80.125 115.5 C 80.125 115.3164 80.265688 115.19185 80.46875 115.15625 z "
       transform="translate(0,924.36218)"
       id="path6538" />
    <path
       style="fill:#000000"
       d=""
       id="path6474"
       inkscape:connector-curvature="0" />
    <path
       style="fill:#000000"
       d=""
       id="path6472"
       inkscape:connector-curvature="0" />
  </g>
</svg>
