<?xml version="1.0" encoding="UTF-8" standalone="no"?>
<!-- Created with Inkscape (http://www.inkscape.org/) -->

<svg
   xmlns:dc="http://purl.org/dc/elements/1.1/"
   xmlns:cc="http://creativecommons.org/ns#"
   xmlns:rdf="http://www.w3.org/1999/02/22-rdf-syntax-ns#"
   xmlns:svg="http://www.w3.org/2000/svg"
   xmlns="http://www.w3.org/2000/svg"
   xmlns:xlink="http://www.w3.org/1999/xlink"
   xmlns:sodipodi="http://sodipodi.sourceforge.net/DTD/sodipodi-0.dtd"
   xmlns:inkscape="http://www.inkscape.org/namespaces/inkscape"
   width="128"
   height="128"
   id="svg2"
   version="1.1"
   inkscape:version="0.92+devel (unknown)"
   sodipodi:docname="text-x-source.svg">
  <defs
     id="defs4">
    <linearGradient
       id="linearGradient4633">
      <stop
         style="stop-color:#ffffff;stop-opacity:1;"
         offset="0"
         id="stop4635" />
      <stop
         style="stop-color:#7d7d7d;stop-opacity:1;"
         offset="1"
         id="stop4637" />
    </linearGradient>
    <linearGradient
       id="linearGradient4216-1">
      <stop
         style="stop-color:#ffffff;stop-opacity:1;"
         offset="0"
         id="stop4218-0" />
      <stop
         style="stop-color:#c6c6c6;stop-opacity:1;"
         offset="1"
         id="stop4220-9" />
    </linearGradient>
    <filter
       inkscape:collect="always"
       id="filter4495">
      <feGaussianBlur
         inkscape:collect="always"
         stdDeviation="2.0800002"
         id="feGaussianBlur4497" />
    </filter>
    <filter
       inkscape:collect="always"
       id="filter4577"
       x="-0.18"
       width="1.36"
       y="-0.18"
       height="1.36">
      <feGaussianBlur
         inkscape:collect="always"
         stdDeviation="1.5"
         id="feGaussianBlur4579" />
    </filter>
    <radialGradient
       inkscape:collect="always"
       xlink:href="#linearGradient4216-1"
       id="radialGradient4631"
       cx="77.611282"
       cy="39.420414"
       fx="77.611282"
       fy="39.420414"
       r="48"
       gradientTransform="matrix(7.3333334,1.1091983e-7,-1.2861914e-7,6.6666669,-489.14941,-230.80277)"
       gradientUnits="userSpaceOnUse" />
    <linearGradient
       inkscape:collect="always"
       xlink:href="#linearGradient4633"
       id="linearGradient4639"
       x1="99"
       y1="945.36218"
       x2="105"
       y2="939.36218"
       gradientUnits="userSpaceOnUse" />
  </defs>
  <sodipodi:namedview
     id="base"
     pagecolor="#ffffff"
     bordercolor="#666666"
     borderopacity="1.0"
     inkscape:pageopacity="0.0"
     inkscape:pageshadow="2"
     inkscape:zoom="181.019"
     inkscape:cx="73.8149"
     inkscape:cy="93.9013"
     inkscape:document-units="px"
     inkscape:current-layer="layer1"
     showgrid="false"
     inkscape:window-width="1280"
     inkscape:window-height="967"
     inkscape:window-x="0"
     inkscape:window-y="29"
     inkscape:window-maximized="1"
     showguides="true"
     inkscape:guide-bbox="true"
     inkscape:document-rotation="0">
    <inkscape:grid
       type="xygrid"
       id="grid2985"
       empspacing="2"
       visible="true"
       enabled="true"
       snapvisiblegridlinesonly="true" />
  </sodipodi:namedview>
  <metadata
     id="metadata7">
    <rdf:RDF>
      <cc:Work
         rdf:about="">
        <dc:format>image/svg+xml</dc:format>
        <dc:type
           rdf:resource="http://purl.org/dc/dcmitype/StillImage" />
        <dc:title />
      </cc:Work>
    </rdf:RDF>
  </metadata>
  <g
     inkscape:label="Layer 1"
     inkscape:groupmode="layer"
     id="layer1"
     transform="translate(0,-924.36218)">
    <path
       id="path4473"
       d="m 20,934.36218 c -2.216,0 -4,1.784 -4,4 l 0,104.00002 c 0,2.216 1.784,4 4,4 l 88,0 c 2.216,0 4,-1.784 4,-4 l 0,-88.00002 -20,-20 -72,0 z"
       style="fill:#000000;fill-opacity:1;stroke:none;filter:url(#filter4495)"
       inkscape:connector-curvature="0" />
    <path
       style="fill:url(#radialGradient4631);fill-opacity:1.0;stroke:none"
       d="M 20 8 C 17.784 8 16 9.7840015 16 12 L 16 116 C 16 118.216 17.784 120 20 120 L 108 120 C 110.216 120 112 118.216 112 116 L 112 28 L 92 8 L 20 8 z "
       id="rect4276"
       transform="translate(0,924.36218)" />
    <path
       inkscape:connector-curvature="0"
       id="path4499"
       d="m 112,952.36218 -20,-20 0,16 c 0,2.216 1.784,4 4,4 l 16,0 z"
       style="fill:#000000;fill-opacity:1;stroke:none;filter:url(#filter4577)" />
    <path
       style="fill:url(#linearGradient4639);fill-opacity:1.0;stroke:none"
       d="m 112,952.36218 -20,-20 0,16 c 0,2.216 1.784,4 4,4 l 16,0 z"
       id="rect4326"
       inkscape:connector-curvature="0" />
    <g
       transform="translate(0,924.36218)"
       style="font-size:6px;font-style:normal;font-weight:normal;line-height:125%;letter-spacing:0px;word-spacing:0px;fill:#000000;fill-opacity:1;stroke:none;font-family:Sans"
       id="flowRoot4544">
      <path
         d="m 25.90918,18.111354 -0.304688,1.215821 0.855469,0 0.307617,-1.215821 0.46875,0 -0.301758,1.215821 0.984375,0 -0.114258,0.451172 -0.984375,0 -0.240234,0.978515 0.996094,0 -0.105469,0.448242 -1.004883,0 -0.304687,1.212891 -0.46875,0 0.301758,-1.212891 -0.858399,0 -0.301758,1.212891 -0.471679,0 0.304687,-1.212891 -0.966797,0 0.108399,-0.448242 0.966797,0 0.246093,-0.978515 -0.984375,0 0.114258,-0.451172 0.984375,0 0.298828,-1.215821 0.47461,0 m 0.439453,1.666993 -0.852539,0 -0.246094,0.978515 0.858398,0 0.240235,-0.978515"
         style="font-style:italic;fill:#008080;-inkscape-font-specification:Sans Italic"
         id="path4614" />
      <path
         d="m 29.635742,18.043972 0.591797,0 -0.37207,1.918945 -0.263672,1.045898 -0.47461,0 0.146485,-1.045898 0.37207,-1.918945 m -0.703125,3.629882 0.594727,0 -0.143555,0.744141 -0.600586,0 0.149414,-0.744141"
         style="font-style:italic;fill:#008080;-inkscape-font-specification:Sans Italic"
         id="path4616" />
      <path
         style="font-style:italic;-inkscape-font-specification:'Sans Italic';fill:#008080"
         d="m 35.5977,20.3965 c 0.011,-0.3298 -0.1093,-0.7316 -0.455,-0.8452 -0.4565,-0.1566 -0.9578,0.1255 -1.1771,0.5306 -0.2649,0.4418 -0.3764,0.9891 -0.2596,1.4942 0.08,0.2723 0.3393,0.4824 0.6275,0.4762 0.4474,0.028 0.8495,-0.2904 1.021,-0.6882 0.1511,-0.2992 0.2394,-0.6318 0.2432,-0.9676 z m -1.67,-0.7617 c 0.3737,-0.5268 1.1554,-0.7493 1.7315,-0.4349 0.3983,0.2484 0.5183,0.7543 0.4943,1.1954 -0.024,0.7558 -0.3925,1.5315 -1.05,1.9322 -0.4206,0.2327 -0.9875,0.2559 -1.3811,-0.044 -0.1026,-0.058 -0.1966,-0.3287 -0.254,-0.3001 -0.1086,0.5611 -0.2172,1.1221 -0.3258,1.6831 -0.1797,0 -0.3594,0 -0.5391,0 0.294,-1.5097 0.5879,-3.0195 0.8819,-4.5293 0.1796,0 0.3593,0 0.539,0 -0.032,0.1661 -0.064,0.3321 -0.097,0.4981 z"
         id="path4618"
         inkscape:connector-curvature="0" />
      <path
         style="font-style:italic;-inkscape-font-specification:'Sans Italic';fill:#008080"
         d="m 37.917969,22.722682 c -0.190421,0.296157 -0.364729,0.631772 -0.672959,0.822235 -0.295714,0.164321 -0.640906,0.11197 -0.964737,0.121125 0.03027,-0.150391 0.06055,-0.300781 0.09082,-0.451172 0.242559,-0.0059 0.518272,0.03977 0.71426,-0.139343 0.228687,-0.214029 0.35226,-0.508073 0.50156,-0.777649 -0.242187,-1.053711 -0.484375,-2.107422 -0.726562,-3.161133 0.19043,0 0.380859,0 0.571289,0 0.18164,0.837891 0.363281,1.675781 0.544921,2.513672 0.501953,-0.837891 1.003907,-1.675781 1.50586,-2.513672 0.188477,0 0.376953,0 0.56543,0 -0.709961,1.195312 -1.419922,2.390625 -2.129883,3.585937 z"
         id="path4620"
         inkscape:connector-curvature="0" />
      <path
         style="font-style:italic;-inkscape-font-specification:'Sans Italic';fill:#008080"
         d="m 42.517578,19.136745 c -0.02734,0.139648 -0.05469,0.279297 -0.08203,0.418945 -0.358398,0 -0.716797,0 -1.075195,0 -0.121469,0.631224 -0.251064,1.260987 -0.367174,1.893175 -0.03649,0.166848 -0.02746,0.398454 0.160251,0.470167 0.210336,0.0766 0.438187,0.03847 0.657309,0.04779 0.06178,0 0.123562,0 0.185343,0 -0.03027,0.150391 -0.06055,0.300781 -0.09082,0.451172 -0.319332,-0.009 -0.64495,0.0294 -0.957496,-0.05292 -0.250911,-0.05777 -0.462322,-0.264988 -0.495629,-0.524597 -0.05062,-0.330492 0.06024,-0.653938 0.113218,-0.977148 0.08531,-0.435881 0.170625,-0.871762 0.255937,-1.307643 -0.152344,0 -0.304687,0 -0.457031,0 0.02832,-0.139648 0.05664,-0.279297 0.08496,-0.418945 0.149414,0 0.298828,0 0.448242,0 0.06055,-0.310547 0.121094,-0.621094 0.181641,-0.931641 0.179687,0 0.359375,0 0.539062,0 -0.05957,0.310547 -0.119141,0.621094 -0.178711,0.931641 0.359375,0 0.71875,0 1.078125,0 z"
         id="path4622"
         inkscape:connector-curvature="0" />
      <path
         style="font-style:italic;-inkscape-font-specification:'Sans Italic';fill:#008080"
         d="m 45.678711,20.437526 c -0.12793,0.660156 -0.255859,1.320313 -0.383789,1.980469 -0.180664,0 -0.361328,0 -0.541992,0 0.1392,-0.72562 0.28989,-1.449167 0.420962,-2.176254 0.0476,-0.222204 0.01578,-0.499461 -0.199331,-0.624444 -0.289206,-0.157582 -0.659021,-0.09947 -0.935306,0.06045 -0.365141,0.213773 -0.563289,0.622809 -0.620089,1.030079 -0.111074,0.570057 -0.222149,1.140115 -0.333223,1.710173 -0.179687,0 -0.359375,0 -0.539062,0 0.295898,-1.519531 0.591797,-3.039063 0.887695,-4.558594 0.179688,0 0.359375,0 0.539063,0 -0.116213,0.597656 -0.232426,1.195313 -0.348639,1.792969 0.359683,-0.482911 1.046229,-0.72968 1.620996,-0.520566 0.340202,0.125699 0.505162,0.501984 0.485219,0.845989 -0.0043,0.154291 -0.02479,0.308035 -0.05251,0.459733 z"
         id="path4624"
         inkscape:connector-curvature="0" />
      <path
         style="font-style:italic;-inkscape-font-specification:'Sans Italic';fill:#008080"
         d="m 47.668,22.503 c -0.4431,0.017 -0.9123,-0.2099 -1.1004,-0.6258 -0.2332,-0.4876 -0.1634,-1.0611 0.01,-1.5563 0.2151,-0.5887 0.709,-1.1058 1.3394,-1.2276 0.4255,-0.085 0.9197,-0.034 1.2451,0.2795 0.2743,0.2545 0.404,0.6375 0.3775,1.0071 -0.016,0.6402 -0.2459,1.3089 -0.7508,1.727 -0.3093,0.27 -0.7109,0.4029 -1.1192,0.3961 z m -0.6885,-1.3448 c -0,0.2961 0.066,0.6516 0.352,0.8019 0.4249,0.2008 0.9641,0.042 1.2462,-0.3249 0.3595,-0.435 0.4657,-1.0393 0.3732,-1.5862 -0.056,-0.2594 -0.2667,-0.4904 -0.5385,-0.5197 -0.4041,-0.076 -0.8327,0.1109 -1.0664,0.4459 -0.2566,0.3357 -0.3664,0.7652 -0.3665,1.183 z"
         id="path4626"
         inkscape:connector-curvature="0" />
      <path
         style="font-style:italic;-inkscape-font-specification:'Sans Italic';fill:#008080"
         d="m 53.1553,20.4375 c -0.128,0.6602 -0.2559,1.3203 -0.3838,1.9805 -0.1807,0 -0.3613,0 -0.542,0 0.143,-0.758 0.3077,-1.5123 0.4351,-2.273 0.028,-0.2134 -0.047,-0.4657 -0.2626,-0.5524 -0.3004,-0.1323 -0.6625,-0.061 -0.9312,0.1136 -0.3335,0.2234 -0.5165,0.6126 -0.5695,1.0015 -0.113,0.5701 -0.2259,1.1402 -0.3388,1.7103 -0.1797,0 -0.3594,0 -0.5391,0 0.212,-1.0938 0.4239,-2.1875 0.6358,-3.2813 0.1797,0 0.3594,0 0.539,0 -0.036,0.1719 -0.072,0.3438 -0.1083,0.5157 0.3772,-0.4917 1.0868,-0.7428 1.6739,-0.5041 0.3048,0.1398 0.4616,0.4858 0.4439,0.8098 -6e-4,0.1612 -0.025,0.321 -0.052,0.4794 z"
         id="path4628"
         inkscape:connector-curvature="0" />
      <path
         d="m 23.84668,34.136745 0.539062,0 0,3.28125 -0.539062,0 0,-3.28125 m 0,-1.277344 0.539062,0 0,0.682617 -0.539062,0 0,-0.682617"
         style="fill:#0000ff"
         id="path4630" />
      <path
         style="fill:#0000ff"
         d="m 28.0654,34.7666 c 0.2059,-0.4102 0.6313,-0.7163 1.0997,-0.7106 0.3851,-0.023 0.7865,0.1751 0.9475,0.5369 0.2327,0.4782 0.155,1.0206 0.1677,1.5352 v 1.2899 h -0.542 c -0.01,-0.7289 0.012,-1.4583 -0.01,-2.1868 -0.02,-0.2869 -0.1611,-0.6241 -0.4753,-0.6827 -0.4132,-0.1051 -0.8976,0.1272 -1.0226,0.5468 -0.1236,0.3699 -0.074,2.3227 -0.074,2.3227 h -0.542 c -0.01,-0.7292 0.012,-1.4589 -0.01,-2.1877 -0.019,-0.2877 -0.1627,-0.6241 -0.4774,-0.682 -0.4138,-0.1059 -0.8953,0.1312 -1.0207,0.5494 -0.1236,0.3691 -0.074,2.3203 -0.074,2.3203 h -0.542 v -3.2813 h 0.542 v 0.5098 c 0.2279,-0.4204 0.7331,-0.6612 1.2032,-0.5693 0.3311,0.034 0.634,0.2443 0.7678,0.5516 0.023,0.045 0.043,0.091 0.062,0.1378 z"
         id="path4632"
         inkscape:connector-curvature="0"
         sodipodi:nodetypes="ccccccccccccccccccccccc" />
      <path
         style="fill:#0000ff"
         d="m 31.8799,36.9258 0,1.7402 -0.542,0 0,-4.5293 0.542,0 0,0.4981 c 0.2048,-0.3974 0.6654,-0.6076 1.1013,-0.5787 0.4722,0.01 0.8962,0.3267 1.0885,0.7494 0.2486,0.5163 0.2535,1.1246 0.1119,1.6716 -0.1407,0.4863 -0.5254,0.9606 -1.0525,1.0112 -0.6735,0.065 -0.937,-0.093 -1.249,-0.5626 l 0,0 z m 1.834,-1.1455 c 0.01,-0.4324 -0.1094,-0.935 -0.5079,-1.1714 -0.3929,-0.2222 -0.9582,-0.071 -1.15,0.3491 -0.2183,0.4194 -0.2102,0.9213 -0.1116,1.3728 0.086,0.3466 0.354,0.6796 0.7293,0.7146 0.3412,0.052 0.7079,-0.1189 0.8602,-0.4345 0.1401,-0.2519 0.1791,-0.5463 0.18,-0.8306 z"
         id="path4634"
         inkscape:connector-curvature="0"
         sodipodi:nodetypes="cccccccccscccccccccc" />
      <path
         style="fill:#0000ff"
         d="m 35.5866,35.1858 c -0.1291,0.4061 -0.11,0.8529 0.017,1.2567 0.119,0.3341 0.4339,0.6102 0.8006,0.6056 0.3473,0.018 0.6895,-0.1951 0.8202,-0.5185 0.1884,-0.4031 0.1796,-0.8727 0.079,-1.298 -0.092,-0.3528 -0.3739,-0.7305 -0.8194,-0.7347 -0.4456,-0 -0.7989,0.3139 -0.8974,0.6889 z m 0.8519,-1.1282 c 0.6044,0 1.0358,0.2362 1.2729,0.6969 0.2664,0.487 0.277,1.0732 0.1727,1.6067 -0.1065,0.4683 -0.4296,0.9133 -0.9028,1.0574 -0.438,0.1435 -0.9421,0.1107 -1.3454,-0.1181 -0.403,-0.244 -0.6332,-0.7017 -0.6797,-1.161 -0.059,-0.4646 -0.019,-0.9598 0.201,-1.3799 0.204,-0.3725 0.6529,-0.7026 1.2813,-0.7015 z"
         id="path4636"
         inkscape:connector-curvature="0"
         sodipodi:nodetypes="cccccccccccccccc" />
      <path
         style="fill:#0000ff"
         d="m 40.736328,34.640651 c -0.261813,-0.138867 -0.590064,-0.132425 -0.859659,-0.0182 -0.317817,0.140444 -0.476597,0.490865 -0.506867,0.820427 -0.02454,0.280124 -0.0089,0.561866 -0.01336,0.842753 0,0.377455 0,0.754909 0,1.132364 -0.180664,0 -0.361328,0 -0.541992,0 0,-1.09375 0,-2.1875 0,-3.28125 0.180664,0 0.361328,0 0.541992,0 0,0.169922 0,0.339844 0,0.509766 0.161257,-0.302496 0.468944,-0.514541 0.807242,-0.564689 0.188337,-0.03363 0.381946,-0.03056 0.569711,0.0051 9.67e-4,0.18457 0.0019,0.369141 0.0029,0.553711"
         id="path4638"
         inkscape:connector-curvature="0" />
      <path
         d="m 41.84082,33.205104 0,0.931641 1.110352,0 0,0.418945 -1.110352,0 0,1.78125 c -10e-7,0.267579 0.03613,0.439454 0.108399,0.515625 0.07422,0.07617 0.223631,0.114259 0.448242,0.114258 l 0.553711,0 0,0.451172 -0.553711,0 c -0.416017,0 -0.703126,-0.07715 -0.861328,-0.231445 -0.158204,-0.15625 -0.237305,-0.439453 -0.237305,-0.84961 l 0,-1.78125 -0.395508,0 0,-0.418945 0.395508,0 0,-0.931641 0.541992,0"
         style="fill:#0000ff"
         id="path4640" />
      <path
         style="fill:#000000"
         d="m 47.7324,35.7393 c 0,-0.4024 -0.093,-0.8677 -0.4509,-1.1046 -0.3656,-0.2249 -0.915,-0.1536 -1.1605,0.2168 -0.2449,0.3658 -0.2535,0.8358 -0.1971,1.2578 0.049,0.3576 0.2641,0.7341 0.6362,0.8261 0.3383,0.091 0.7453,-0.01 0.9441,-0.3112 0.1807,-0.2554 0.2274,-0.5793 0.2282,-0.8849 z m 0.5391,1.2715 c 6e-4,0.4896 -0.094,1.04 -0.498,1.3632 -0.4185,0.3239 -0.9857,0.3233 -1.4864,0.2584 -0.185,-0.033 -0.3952,-0.065 -0.5527,-0.1501 l 0,-0.5135 c 0.4417,0.244 0.9967,0.3446 1.4761,0.1538 0.3352,-0.1363 0.4996,-0.5041 0.5155,-0.8472 0.011,-0.1446 0.01,-0.2897 0.01,-0.4346 -0.1887,0.3587 -0.5833,0.5761 -0.9846,0.5759 -0.4206,0.031 -0.8473,-0.1662 -1.0845,-0.5173 -0.3353,-0.4731 -0.3748,-1.092 -0.2809,-1.6481 0.089,-0.5184 0.4414,-1.0353 0.9773,-1.1573 0.456,-0.1053 1.0003,0 1.2833,0.4049 0.034,0.051 0.093,0.1321 0.093,0.1321 -0,-0.1516 -0,-0.3258 -0,-0.4943 l 0.539,0 0,2.8741 z"
         id="path4642"
         inkscape:connector-curvature="0"
         sodipodi:nodetypes="ccccccccccccccccccccccccc" />
      <path
         d="m 49.381836,34.136745 0.539062,0 0,3.28125 -0.539062,0 0,-3.28125 m 0,-1.277344 0.539062,0 0,0.682617 -0.539062,0 0,-0.682617"
         style="fill:#000000"
         id="path4644" />
      <path
         d="m 51.12207,36.673854 0.618164,0 0,0.744141 -0.618164,0 0,-0.744141"
         style="fill:#000000"
         id="path4646" />
      <path
         d="m 54.857422,34.640651 c -0.06055,-0.03515 -0.126956,-0.06054 -0.199219,-0.07617 -0.07032,-0.01758 -0.148439,-0.02636 -0.234375,-0.02637 -0.304689,3e-6 -0.539064,0.09961 -0.703125,0.298828 -0.16211,0.197268 -0.243165,0.481448 -0.243164,0.852539 l 0,1.728516 -0.541992,0 0,-3.28125 0.541992,0 0,0.509766 c 0.11328,-0.199216 0.260741,-0.346677 0.442383,-0.442383 0.181639,-0.09765 0.402342,-0.146481 0.662109,-0.146485 0.03711,4e-6 0.07812,0.0029 0.123047,0.0088 0.04492,0.0039 0.09472,0.01075 0.149414,0.02051 l 0.0029,0.553711"
         style="fill:#000000"
         id="path4648" />
      <path
         style="fill:#000000"
         d="m 58.106445,35.642604 c 0,0.08789 0,0.175781 0,0.263672 -0.826172,0 -1.652343,0 -2.478515,0 0.01666,0.382272 0.168996,0.797961 0.522262,0.989814 0.369966,0.20088 0.81569,0.172104 1.213864,0.08289 0.214584,-0.05236 0.421491,-0.134171 0.616413,-0.23774 0,0.169922 0,0.339844 0,0.509766 -0.555237,0.232368 -1.186535,0.3302 -1.776674,0.182213 -0.500298,-0.124895 -0.918273,-0.525909 -1.057024,-1.023446 -0.121592,-0.436501 -0.108589,-0.912282 0.03394,-1.34222 0.160765,-0.481241 0.579764,-0.870604 1.08136,-0.968078 0.473801,-0.09785 1.020875,-0.04035 1.383251,0.309463 0.340523,0.313328 0.465034,0.784835 0.461126,1.233666 z M 57.567383,35.4844 c 0.0066,-0.35225 -0.158262,-0.730378 -0.489512,-0.886297 -0.293843,-0.131036 -0.648991,-0.104902 -0.934077,0.03704 -0.313979,0.160153 -0.476574,0.512778 -0.498286,0.852184 0.640625,-9.67e-4 1.28125,-0.0019 1.921875,-0.0029"
         id="path4650"
         inkscape:connector-curvature="0" />
      <path
         style="fill:#000000"
         d="m 59.5127,36.9258 0,1.7402 -0.542,0 0,-4.5293 0.542,0 0,0.4981 c 0.1885,-0.3578 0.5815,-0.5756 0.9821,-0.5759 0.4245,-0.032 0.8477,0.1796 1.0819,0.5338 0.3388,0.4852 0.3814,1.1157 0.2852,1.684 -0.093,0.5356 -0.4565,1.079 -1.0156,1.1966 -0.7361,0.07 -1.0424,-0.1113 -1.3336,-0.5475 z m 1.834,-1.1455 c 0,-0.4204 -0.1009,-0.9045 -0.4741,-1.1517 -0.3549,-0.2203 -0.8809,-0.1367 -1.1167,0.2201 -0.2612,0.3785 -0.2731,0.8699 -0.2145,1.3104 0.052,0.3647 0.2593,0.7572 0.6387,0.8598 0.3306,0.096 0.7252,-0.01 0.9205,-0.304 0.1935,-0.2685 0.2454,-0.6112 0.2461,-0.9346 z"
         id="path4652"
         inkscape:connector-curvature="0"
         sodipodi:nodetypes="cccccccccccccccccc" />
      <path
         style="fill:#000000"
         d="m 64.0713,34.5147 c -0.3146,-0.013 -0.614,0.1745 -0.7581,0.4513 -0.204,0.3798 -0.211,0.8358 -0.1383,1.2517 0.064,0.3465 0.2823,0.7016 0.6416,0.7953 0.3277,0.093 0.7163,-0 0.9215,-0.286 0.2757,-0.363 0.2993,-0.8515 0.2433,-1.2873 -0.051,-0.3775 -0.3642,-0.8899 -0.91,-0.925 z m 0,-0.4571 c 0.4809,0 0.8609,0.1491 1.1292,0.486 0.3483,0.4209 0.4102,1.0008 0.3625,1.5267 -0.041,0.4785 -0.2597,0.9708 -0.6831,1.2263 -0.3848,0.2312 -0.8684,0.2545 -1.2953,0.1421 -0.4409,-0.1177 -0.7818,-0.4892 -0.9132,-0.9195 -0.1349,-0.4378 -0.1384,-0.9138 -0.035,-1.3586 0.1053,-0.4525 0.4526,-1.103 1.435,-1.103 z"
         id="path4654"
         inkscape:connector-curvature="0"
         sodipodi:nodetypes="ccccccccccccccccc" />
      <path
         style="fill:#000000"
         d="m 68.55957,34.233425 c 0,0.169922 0,0.339843 0,0.509765 -0.428838,-0.218318 -0.937584,-0.295487 -1.408265,-0.186303 -0.195917,0.04222 -0.379409,0.201106 -0.378066,0.413839 -0.02093,0.173934 0.09843,0.336611 0.260821,0.391243 0.453234,0.188869 0.98492,0.172865 1.392849,0.471944 0.300571,0.213889 0.366269,0.635395 0.265514,0.970525 -0.122609,0.390345 -0.527918,0.608923 -0.910655,0.667024 -0.522371,0.08554 -1.055907,-0.01347 -1.554229,-0.173571 0,-0.185547 0,-0.371094 0,-0.556641 0.465511,0.245073 1.01299,0.385395 1.535933,0.269758 0.206245,-0.04325 0.414359,-0.200655 0.417367,-0.428009 0.02087,-0.188646 -0.09378,-0.377038 -0.274785,-0.438546 -0.432127,-0.189101 -0.941307,-0.169274 -1.339141,-0.442035 -0.271822,-0.180883 -0.352098,-0.537816 -0.304401,-0.844139 0.03562,-0.330275 0.292594,-0.600551 0.60141,-0.702208 0.39877,-0.135799 0.831811,-0.112802 1.242118,-0.04881 0.154674,0.02766 0.307276,0.06845 0.45353,0.126171"
         id="path4656"
         inkscape:connector-curvature="0" />
      <path
         d="m 69.59668,34.136745 0.539062,0 0,3.28125 -0.539062,0 0,-3.28125 m 0,-1.277344 0.539062,0 0,0.682617 -0.539062,0 0,-0.682617"
         style="fill:#000000"
         id="path4658" />
      <path
         d="m 71.793945,33.205104 0,0.931641 1.110352,0 0,0.418945 -1.110352,0 0,1.78125 c -10e-7,0.267579 0.03613,0.439454 0.108399,0.515625 0.07422,0.07617 0.223631,0.114259 0.448242,0.114258 l 0.553711,0 0,0.451172 -0.553711,0 c -0.416017,0 -0.703126,-0.07715 -0.861328,-0.231445 -0.158204,-0.15625 -0.237305,-0.439453 -0.237305,-0.84961 l 0,-1.78125 -0.395508,0 0,-0.418945 0.395508,0 0,-0.931641 0.541992,0"
         style="fill:#000000"
         id="path4660" />
      <path
         style="fill:#000000"
         d="m 74.8877,34.5147 c -0.3146,-0.013 -0.614,0.1745 -0.7581,0.4513 -0.204,0.3798 -0.211,0.8358 -0.1383,1.2517 0.064,0.3465 0.2823,0.7016 0.6416,0.7953 0.3277,0.093 0.7163,-0 0.9215,-0.286 0.2757,-0.363 0.2993,-0.8515 0.2433,-1.2873 -0.051,-0.3775 -0.3059,-0.9361 -0.91,-0.925 z m 0,-0.4571 c 0.4222,-0.01 0.8609,0.1491 1.1292,0.486 0.3483,0.4209 0.4102,1.0008 0.3625,1.5267 -0.041,0.4785 -0.2597,0.9708 -0.6831,1.2263 -0.3848,0.2312 -0.8684,0.2545 -1.2953,0.1421 -0.4409,-0.1177 -0.7818,-0.4892 -0.9132,-0.9195 -0.1349,-0.4378 -0.1384,-0.9138 -0.035,-1.3586 0.1053,-0.4525 0.4256,-0.8673 0.8755,-1.0155 0.1793,-0.063 0.3701,-0.087 0.5595,-0.087 z"
         id="path4662"
         inkscape:connector-curvature="0"
         sodipodi:nodetypes="cccccccccccccccccc" />
      <path
         style="fill:#000000"
         d="m 79.185547,34.640651 c -0.261813,-0.138867 -0.590064,-0.132425 -0.859659,-0.0182 -0.317817,0.140444 -0.476597,0.490865 -0.506867,0.820427 -0.02454,0.280124 -0.0089,0.561866 -0.01336,0.842753 0,0.377455 0,0.754909 0,1.132364 -0.180664,0 -0.361328,0 -0.541992,0 0,-1.09375 0,-2.1875 0,-3.28125 0.180664,0 0.361328,0 0.541992,0 0,0.169922 0,0.339844 0,0.509766 0.161257,-0.302496 0.468944,-0.514541 0.807242,-0.564689 0.188337,-0.03363 0.381946,-0.03056 0.569711,0.0051 9.67e-4,0.18457 0.0019,0.369141 0.0029,0.553711"
         id="path4664"
         inkscape:connector-curvature="0" />
      <path
         d="m 81.1221,37.7227 c -0.1524,0.3906 -0.3008,0.6455 -0.4453,0.7646 -0.1446,0.1192 -0.3379,0.1787 -0.5801,0.1787 H 79.666 v -0.4511 h 0.3164 c 0.1485,0 0.2637,-0.035 0.3457,-0.1055 0.082,-0.07 0.3692,-0.7441 0.3692,-0.7441 l -1.3272,-3.2286 h 0.5713 l 1.0254,2.5665 1.0254,-2.5665 h 0.5713 l -1.4414,3.586"
         style="fill:#000000"
         id="path4666"
         inkscape:connector-curvature="0"
         sodipodi:nodetypes="cccccccccccccc" />
      <path
         d="m 23.84668,41.636745 0.539062,0 0,3.28125 -0.539062,0 0,-3.28125 m 0,-1.277344 0.539062,0 0,0.682617 -0.539062,0 0,-0.682617"
         style="fill:#0000ff"
         id="path4668" />
      <path
         style="fill:#0000ff"
         d="m 28.0654,42.2666 c 0.1905,-0.3642 0.5401,-0.6621 0.9613,-0.6982 0.3643,-0.053 0.7767,0.055 0.9924,0.3722 0.2866,0.393 0.2626,0.8967 0.2612,1.3597 v 1.6177 h -0.542 c 0,-0.7014 0.01,-1.4031 0,-2.1044 -0.013,-0.2885 -0.1052,-0.6352 -0.4064,-0.7435 -0.3931,-0.1343 -0.8841,0.036 -1.0566,0.4283 -0.1657,0.3406 -0.115,2.4196 -0.115,2.4196 h -0.542 c 0,-0.7017 0.01,-1.4036 0,-2.1051 -0.013,-0.2889 -0.1057,-0.6361 -0.4082,-0.7428 -0.3941,-0.1359 -0.8823,0.039 -1.0548,0.4309 -0.1657,0.3396 -0.1149,2.417 -0.1149,2.417 h -0.542 v -3.2813 h 0.542 v 0.5098 c 0.194,-0.3469 0.5677,-0.5818 0.9676,-0.5866 0.3888,-0.039 0.7988,0.1506 0.9776,0.5067 0.035,0.064 0.064,0.1312 0.088,0.2 z"
         id="path4670"
         inkscape:connector-curvature="0"
         sodipodi:nodetypes="ccccccccccccccccccccccc" />
      <path
         style="fill:#0000ff"
         d="m 31.8799,44.4258 0,1.7402 -0.542,0 0,-4.5293 0.542,0 0,0.4981 c 0.1885,-0.3578 0.5815,-0.5756 0.9821,-0.5759 0.4244,-0.032 0.8476,0.1796 1.0818,0.5338 0.3389,0.4852 0.3815,1.1157 0.2853,1.684 -0.093,0.5356 -0.4565,1.079 -1.0157,1.1966 -0.736,0.07 -1.0538,-0.056 -1.3335,-0.5475 z m 1.834,-1.1455 c 0,-0.4204 -0.101,-0.9045 -0.4742,-1.1517 -0.3548,-0.2203 -0.8808,-0.1367 -1.1167,0.2201 -0.2612,0.3785 -0.273,0.8699 -0.2144,1.3104 0.052,0.3647 0.2593,0.7572 0.6387,0.8598 0.3306,0.096 0.7252,-0.01 0.9205,-0.304 0.1934,-0.2685 0.2454,-0.6112 0.2461,-0.9346 z"
         id="path4672"
         inkscape:connector-curvature="0"
         sodipodi:nodetypes="cccccccccccccccccc" />
      <path
         style="fill:#0000ff"
         d="m 36.438477,42.014675 c -0.314607,-0.01266 -0.613999,0.174478 -0.758132,0.451281 -0.20394,0.379801 -0.210934,0.835856 -0.138269,1.251701 0.06409,0.346515 0.282296,0.701643 0.641597,0.795366 0.327751,0.09261 0.716266,-0.0023 0.921499,-0.286034 0.275693,-0.363036 0.299315,-0.851524 0.243268,-1.287321 -0.0513,-0.377456 -0.268419,-0.782406 -0.658252,-0.891517 -0.08169,-0.02338 -0.166845,-0.03351 -0.251711,-0.03348 z m 0,-0.457032 c 0.422167,-0.0088 0.860936,0.149076 1.129185,0.48594 0.348298,0.420904 0.410181,1.000791 0.362562,1.526688 -0.04057,0.478503 -0.259748,0.970784 -0.683143,1.226374 -0.38479,0.231128 -0.868432,0.254485 -1.295299,0.142041 -0.440864,-0.117727 -0.781794,-0.489161 -0.913233,-0.919456 -0.134825,-0.437796 -0.138337,-0.913814 -0.03502,-1.358609 0.105221,-0.452489 0.425532,-0.867319 0.875467,-1.015497 0.179288,-0.06265 0.370097,-0.08753 0.55948,-0.08748 z"
         id="path4674"
         inkscape:connector-curvature="0" />
      <path
         style="fill:#0000ff"
         d="m 40.736328,42.140651 c -0.261813,-0.138867 -0.590064,-0.132425 -0.859659,-0.0182 -0.317817,0.140444 -0.476597,0.490865 -0.506867,0.820427 -0.02454,0.280124 -0.0089,0.561866 -0.01336,0.842753 0,0.377455 0,0.754909 0,1.132364 -0.180664,0 -0.361328,0 -0.541992,0 0,-1.09375 0,-2.1875 0,-3.28125 0.180664,0 0.361328,0 0.541992,0 0,0.169922 0,0.339844 0,0.509766 0.161257,-0.302496 0.468944,-0.514541 0.807242,-0.564689 0.188337,-0.03363 0.381946,-0.03056 0.569711,0.0051 9.67e-4,0.18457 0.0019,0.369141 0.0029,0.553711"
         id="path4676"
         inkscape:connector-curvature="0" />
      <path
         d="m 41.84082,40.705104 0,0.931641 1.110352,0 0,0.418945 -1.110352,0 0,1.78125 c -10e-7,0.267579 0.03613,0.439454 0.108399,0.515625 0.07422,0.07617 0.223631,0.114259 0.448242,0.114258 l 0.553711,0 0,0.451172 -0.553711,0 c -0.416017,0 -0.703126,-0.07715 -0.861328,-0.231445 -0.158204,-0.15625 -0.237305,-0.439453 -0.237305,-0.84961 l 0,-1.78125 -0.395508,0 0,-0.418945 0.395508,0 0,-0.931641 0.541992,0"
         style="fill:#0000ff"
         id="path4678" />
      <path
         style="fill:#000000"
         d="m 47.665039,41.733425 c 0,0.169922 0,0.339843 0,0.509765 -0.428838,-0.218318 -0.937584,-0.295487 -1.408265,-0.186303 -0.195917,0.04222 -0.379409,0.201106 -0.378066,0.413839 -0.02093,0.173934 0.09843,0.336611 0.26082,0.391243 0.453234,0.188868 0.98492,0.172865 1.39285,0.471944 0.300571,0.213889 0.366267,0.635395 0.265513,0.970525 -0.122608,0.390346 -0.527918,0.608922 -0.910654,0.667024 -0.522371,0.08554 -1.055908,-0.01347 -1.554229,-0.173571 0,-0.185547 0,-0.371094 0,-0.556641 0.465511,0.245073 1.01299,0.385395 1.535933,0.269758 0.206245,-0.04325 0.414359,-0.200655 0.417367,-0.428009 0.02087,-0.188646 -0.09378,-0.377038 -0.274786,-0.438546 -0.432126,-0.189101 -0.941307,-0.169274 -1.33914,-0.442035 -0.271821,-0.180883 -0.352099,-0.537816 -0.304401,-0.844139 0.03562,-0.330274 0.292593,-0.600551 0.601409,-0.702208 0.39877,-0.135799 0.831812,-0.112802 1.242119,-0.04881 0.154674,0.02766 0.307276,0.06845 0.45353,0.126171"
         id="path4680"
         inkscape:connector-curvature="0" />
      <path
         d="m 50.0674,45.2227 c -0.1524,0.3906 -0.3008,0.6455 -0.4453,0.7646 -0.1446,0.1192 -0.3379,0.1787 -0.5801,0.1787 h -0.4307 v -0.4511 h 0.3164 c 0.1485,0 0.2637,-0.035 0.3457,-0.1055 0.082,-0.07 0.3692,-0.7441 0.3692,-0.7441 l -1.3272,-3.2286 h 0.5713 l 1.0254,2.5665 1.0254,-2.5665 h 0.5713 l -1.4414,3.586"
         style="fill:#000000"
         id="path4682"
         inkscape:connector-curvature="0"
         sodipodi:nodetypes="cccccccccccccc" />
      <path
         style="fill:#000000"
         d="m 54.344727,41.733425 c 0,0.169922 0,0.339843 0,0.509765 -0.428839,-0.218318 -0.937585,-0.295487 -1.408266,-0.186303 -0.195917,0.04222 -0.379408,0.201106 -0.378066,0.413839 -0.02093,0.173934 0.09843,0.336611 0.260821,0.391243 0.453234,0.188869 0.98492,0.172865 1.39285,0.471944 0.30057,0.213889 0.366267,0.635395 0.265513,0.970525 -0.122609,0.390346 -0.527918,0.608923 -0.910654,0.667024 -0.522372,0.08554 -1.055908,-0.01347 -1.55423,-0.173571 0,-0.185547 0,-0.371094 0,-0.556641 0.465511,0.245073 1.01299,0.385395 1.535933,0.269758 0.206245,-0.04325 0.41436,-0.200655 0.417368,-0.428009 0.02087,-0.188646 -0.09378,-0.377038 -0.274786,-0.438546 -0.432127,-0.189101 -0.941307,-0.169274 -1.33914,-0.442035 -0.271823,-0.180882 -0.352099,-0.537816 -0.304402,-0.844139 0.03562,-0.330275 0.292594,-0.600551 0.60141,-0.702208 0.39877,-0.135799 0.831811,-0.112802 1.242118,-0.04881 0.154675,0.02766 0.307277,0.06845 0.453531,0.126171"
         id="path4684"
         inkscape:connector-curvature="0" />
      <path
         d="m 55.519531,44.173854 0.618164,0 0,0.503907 -0.480468,0.9375 -0.37793,0 0.240234,-0.9375 0,-0.503907"
         style="fill:#000000"
         id="path4686" />
      <path
         style="fill:#000000"
         d="m 60.473633,42.014675 c -0.314607,-0.01266 -0.613999,0.174478 -0.758132,0.451281 -0.20394,0.379801 -0.210934,0.835856 -0.138269,1.251701 0.06409,0.346515 0.282296,0.701642 0.641597,0.795366 0.327751,0.09261 0.716266,-0.0023 0.921499,-0.286034 0.275693,-0.363036 0.299315,-0.851524 0.243268,-1.287321 -0.0513,-0.377456 -0.268419,-0.782406 -0.658252,-0.891517 -0.08169,-0.02338 -0.166845,-0.03351 -0.251711,-0.03348 z m 0,-0.457032 c 0.422167,-0.0088 0.860936,0.149076 1.129185,0.48594 0.348298,0.420904 0.410181,1.000791 0.362562,1.526688 -0.04057,0.478503 -0.259748,0.970784 -0.683143,1.226374 -0.38479,0.231128 -0.868432,0.254485 -1.295299,0.142041 -0.440864,-0.117727 -0.781794,-0.489161 -0.913233,-0.919456 -0.134825,-0.437796 -0.138337,-0.913814 -0.03502,-1.358609 0.105221,-0.452489 0.425532,-0.867319 0.875467,-1.015497 0.179288,-0.06265 0.370097,-0.08753 0.55948,-0.08748 z"
         id="path4688"
         inkscape:connector-curvature="0" />
      <path
         style="fill:#000000"
         d="m 64.961914,41.733425 c 0,0.169922 0,0.339843 0,0.509765 -0.428838,-0.218318 -0.937584,-0.295487 -1.408265,-0.186303 -0.195917,0.04222 -0.379409,0.201106 -0.378066,0.413839 -0.02093,0.173934 0.09843,0.336611 0.26082,0.391243 0.453234,0.188868 0.98492,0.172865 1.39285,0.471944 0.300571,0.213889 0.366267,0.635395 0.265513,0.970525 -0.122608,0.390346 -0.527918,0.608922 -0.910654,0.667024 -0.522371,0.08554 -1.055908,-0.01347 -1.554229,-0.173571 0,-0.185547 0,-0.371094 0,-0.556641 0.465511,0.245073 1.01299,0.385395 1.535933,0.269758 0.206245,-0.04325 0.414359,-0.200655 0.417367,-0.428009 0.02087,-0.188646 -0.09378,-0.377038 -0.274786,-0.438546 -0.432126,-0.189101 -0.941307,-0.169274 -1.33914,-0.442035 -0.271821,-0.180883 -0.352099,-0.537816 -0.304401,-0.844139 0.03562,-0.330274 0.292593,-0.600551 0.601409,-0.702208 0.39877,-0.135799 0.831812,-0.112802 1.242119,-0.04881 0.154674,0.02766 0.307276,0.06845 0.45353,0.126171"
         id="path4690"
         inkscape:connector-curvature="0" />
      <path
         d="m 25.90918,55.611354 -0.304688,1.215821 0.855469,0 0.307617,-1.215821 0.46875,0 -0.301758,1.215821 0.984375,0 -0.114258,0.451172 -0.984375,0 -0.240234,0.978515 0.996094,0 -0.105469,0.448242 -1.004883,0 -0.304687,1.212891 -0.46875,0 0.301758,-1.212891 -0.858399,0 -0.301758,1.212891 -0.471679,0 0.304687,-1.212891 -0.966797,0 0.108399,-0.448242 0.966797,0 0.246093,-0.978515 -0.984375,0 0.114258,-0.451172 0.984375,0 0.298828,-1.215821 0.47461,0 m 0.439453,1.666993 -0.852539,0 -0.246094,0.978515 0.858398,0 0.240235,-0.978515"
         style="font-style:italic;fill:#008000;-inkscape-font-specification:Sans Italic"
         id="path4692" />
      <path
         style="font-style:italic;-inkscape-font-specification:'Sans Italic';fill:#008000"
         d="m 33.21875,56.733425 c -0.03418,0.169922 -0.06836,0.339843 -0.102539,0.509765 -0.482771,-0.25724 -1.088788,-0.325977 -1.596288,-0.100797 -0.185918,0.0976 -0.328327,0.33853 -0.222682,0.542087 0.197215,0.277742 0.564304,0.297853 0.859199,0.406264 0.278384,0.087 0.607796,0.172015 0.752879,0.452783 0.174224,0.444175 -0.06195,0.970679 -0.46177,1.204857 -0.49659,0.315697 -1.121824,0.292773 -1.676525,0.17599 -0.145424,-0.0778 -0.470016,-0.0078 -0.474076,-0.222811 0.04471,-0.149598 0.06143,-0.307366 0.09465,-0.46032 0.475675,0.240403 1.039585,0.411927 1.56648,0.242619 0.248972,-0.07026 0.500784,-0.306722 0.449013,-0.585618 -0.05726,-0.174856 -0.244167,-0.267353 -0.405777,-0.328939 -0.373512,-0.135413 -0.816559,-0.153066 -1.108612,-0.452603 -0.214179,-0.232983 -0.188797,-0.593489 -0.06898,-0.865435 0.123394,-0.289194 0.389255,-0.494248 0.684545,-0.587351 0.552491,-0.186825 1.167503,-0.113162 1.710482,0.06952"
         id="path4694"
         inkscape:connector-curvature="0" />
      <path
         style="font-style:italic;-inkscape-font-specification:'Sans Italic';fill:#008000"
         d="m 35.8848,56.6367 c -0.027,0.1397 -0.055,0.2793 -0.082,0.419 h -1.0752 c -0.1257,0.6644 -0.2687,1.3258 -0.382,1.9924 -0.037,0.1928 0.091,0.3953 0.2951,0.403 0.2375,0.033 0.4781,0.01 0.7172,0.016 0,0.048 -0.022,0.1194 -0.03,0.1763 -0.019,0.092 -0.037,0.1833 -0.055,0.2749 -0.3784,-0.014 -0.7848,0.053 -1.1362,-0.1228 -0.2191,-0.1168 -0.3412,-0.3647 -0.3297,-0.6092 0,-0.3361 0.3075,-1.7502 0.3819,-2.1303 h -0.4571 l 0.085,-0.419 h 0.4482 c 0.061,-0.3105 0.1211,-0.6211 0.1817,-0.9316 h 0.5391 l -0.1788,0.9316 c 0.3594,0 0.7188,0 1.0782,0 z"
         id="path4696"
         inkscape:connector-curvature="0"
         sodipodi:nodetypes="ccccccccccccccccccc" />
      <path
         style="font-style:italic;-inkscape-font-specification:'Sans Italic';fill:#008000"
         d="m 38.925781,58.045925 c -0.12207,0.624023 -0.244141,1.248047 -0.366211,1.87207 -0.179687,0 -0.359375,0 -0.539062,0 0.0332,-0.166016 0.06641,-0.332031 0.09961,-0.498047 -0.337381,0.443929 -0.935889,0.673725 -1.482127,0.553438 -0.335903,-0.07142 -0.614228,-0.350525 -0.671071,-0.690651 -0.08331,-0.415578 0.09481,-0.872097 0.449415,-1.109127 0.404567,-0.287539 0.919924,-0.335112 1.401688,-0.32749 0.201285,-7.8e-4 0.40257,0.0026 0.603852,5.55e-4 0.05548,-0.208118 0.07796,-0.473491 -0.103006,-0.628845 -0.27628,-0.241581 -0.673597,-0.220707 -1.014008,-0.174693 -0.263805,0.04232 -0.518668,0.129699 -0.760931,0.241041 0.03125,-0.166016 0.0625,-0.332031 0.09375,-0.498047 0.556457,-0.203289 1.180917,-0.320622 1.759343,-0.138644 0.322041,0.110043 0.565968,0.4173 0.58075,0.760167 0.02089,0.213946 -0.01231,0.428457 -0.05202,0.638247 m -0.583008,0.222656 c -0.506338,0.01042 -1.043453,-0.0529 -1.515025,0.173273 -0.216131,0.111991 -0.345568,0.355145 -0.323207,0.596777 0.0076,0.237706 0.18898,0.458364 0.429358,0.488167 0.448706,0.09543 0.918917,-0.152777 1.151633,-0.53655 0.140175,-0.216772 0.214587,-0.469034 0.257241,-0.721667 z"
         id="path4698"
         inkscape:connector-curvature="0" />
      <path
         style="font-style:italic;-inkscape-font-specification:'Sans Italic';fill:#008000"
         d="m 42.725586,57.937526 c -0.12793,0.660156 -0.255859,1.320313 -0.383789,1.980469 -0.180664,0 -0.361328,0 -0.541992,0 0.143019,-0.757997 0.30769,-1.512334 0.435119,-2.273021 0.02842,-0.21336 -0.04688,-0.465707 -0.262603,-0.552356 -0.30041,-0.132349 -0.662555,-0.06061 -0.931233,0.113598 -0.333489,0.223387 -0.516446,0.612628 -0.569507,1.001443 -0.112921,0.570112 -0.225842,1.140225 -0.338763,1.710338 -0.179687,0 -0.359375,0 -0.539062,0 0.211914,-1.09375 0.423828,-2.1875 0.635742,-3.28125 0.179688,0 0.359375,0 0.539063,0 -0.03613,0.171875 -0.07227,0.34375 -0.108399,0.515625 0.377279,-0.49172 1.086834,-0.742764 1.673974,-0.504054 0.304779,0.139766 0.461547,0.485774 0.443909,0.809806 -6.13e-4,0.16115 -0.02494,0.321004 -0.05246,0.479402 z"
         id="path4700"
         inkscape:connector-curvature="0" />
      <path
         style="font-style:italic;-inkscape-font-specification:'Sans Italic';fill:#008000"
         d="m 45.699219,59.425807 c -0.372905,0.521563 -1.145859,0.74879 -1.720836,0.437863 -0.411946,-0.25097 -0.540379,-0.772816 -0.509668,-1.22634 0.03182,-0.741358 0.395844,-1.495936 1.036418,-1.894729 0.413621,-0.23742 0.989066,-0.274116 1.367302,0.0518 0.122044,0.03695 0.191419,0.341211 0.273931,0.283212 0.11267,-0.572737 0.225339,-1.145474 0.338009,-1.718211 0.180664,0 0.361328,0 0.541992,0 -0.295898,1.519531 -0.591797,3.039063 -0.887695,4.558594 -0.180664,0 -0.361328,0 -0.541992,0 0.03418,-0.164064 0.06836,-0.328128 0.102539,-0.492192 z M 44.026367,58.65237 c -0.01333,0.344295 0.128562,0.761363 0.492384,0.866485 0.440037,0.132623 0.915703,-0.131726 1.125392,-0.521947 0.274713,-0.448636 0.405444,-1.009831 0.268356,-1.525543 -0.09384,-0.290719 -0.391334,-0.500956 -0.699215,-0.46922 -0.446011,0.0075 -0.812336,0.350927 -0.97544,0.746507 -0.133209,0.281693 -0.209053,0.591675 -0.211477,0.903718 z"
         id="path4702"
         inkscape:connector-curvature="0" />
      <path
         style="font-style:italic;-inkscape-font-specification:'Sans Italic';fill:#008000"
         d="m 50.222656,58.045925 c -0.12207,0.624023 -0.244141,1.248047 -0.366211,1.87207 -0.179687,0 -0.359375,0 -0.539062,0 0.0332,-0.166016 0.06641,-0.332031 0.09961,-0.498047 -0.337381,0.443929 -0.935889,0.673725 -1.482127,0.553438 -0.335903,-0.07142 -0.614228,-0.350525 -0.671071,-0.690651 -0.08331,-0.415578 0.09481,-0.872097 0.449415,-1.109127 0.404567,-0.287539 0.919924,-0.335112 1.401688,-0.32749 0.201285,-7.8e-4 0.40257,0.0026 0.603852,5.55e-4 0.05548,-0.208118 0.07796,-0.473491 -0.103006,-0.628845 -0.27628,-0.241581 -0.673597,-0.220707 -1.014008,-0.174693 -0.263805,0.04232 -0.518668,0.129699 -0.760931,0.241041 0.03125,-0.166016 0.0625,-0.332031 0.09375,-0.498047 0.556457,-0.203289 1.180917,-0.320622 1.759343,-0.138644 0.322041,0.110043 0.565968,0.4173 0.58075,0.760167 0.02089,0.213946 -0.01231,0.428457 -0.05202,0.638247 m -0.583008,0.222656 c -0.506338,0.01042 -1.043453,-0.0529 -1.515025,0.173273 -0.216131,0.111991 -0.345568,0.355145 -0.323207,0.596777 0.0076,0.237706 0.18898,0.458364 0.429358,0.488167 0.448706,0.09543 0.918917,-0.152777 1.151633,-0.53655 0.140175,-0.216772 0.214587,-0.469034 0.257241,-0.721667 z"
         id="path4704"
         inkscape:connector-curvature="0" />
      <path
         style="font-style:italic;-inkscape-font-specification:'Sans Italic';fill:#008000"
         d="m 53.354492,57.134792 c -0.400148,-0.196849 -0.911998,-0.0649 -1.197559,0.269058 -0.274588,0.290217 -0.378719,0.689991 -0.442156,1.073559 -0.09503,0.480195 -0.19006,0.960391 -0.28509,1.440586 -0.179687,0 -0.359375,0 -0.539062,0 0.213867,-1.09375 0.427735,-2.1875 0.641602,-3.28125 0.179687,0 0.359375,0 0.539062,0 -0.03418,0.169922 -0.06836,0.339844 -0.102539,0.509766 0.303332,-0.425513 0.852971,-0.661128 1.370057,-0.572302 0.150502,-0.01261 0.103274,0.120873 0.08309,0.210068 -0.02247,0.116836 -0.04494,0.233693 -0.06741,0.350515 z"
         id="path4706"
         inkscape:connector-curvature="0" />
      <path
         style="font-style:italic;-inkscape-font-specification:'Sans Italic';fill:#008000"
         d="m 55.660156,59.425807 c -0.372905,0.521564 -1.145859,0.748789 -1.720836,0.437863 -0.411946,-0.25097 -0.540379,-0.772816 -0.509668,-1.22634 0.03182,-0.741358 0.395845,-1.495936 1.036418,-1.894729 0.413622,-0.23742 0.989067,-0.274116 1.367303,0.0518 0.122044,0.03695 0.191419,0.341211 0.273931,0.283212 0.112669,-0.572737 0.225339,-1.145474 0.338008,-1.718211 0.180664,0 0.361329,0 0.541993,0 -0.295899,1.519531 -0.591797,3.039063 -0.887696,4.558594 -0.180664,0 -0.361328,0 -0.541992,0 0.03418,-0.164064 0.06836,-0.328128 0.102539,-0.492192 z M 53.987305,58.65237 c -0.01333,0.344295 0.12856,0.761363 0.492383,0.866485 0.440037,0.132623 0.915704,-0.131725 1.125392,-0.521948 0.274713,-0.448635 0.405444,-1.00983 0.268356,-1.525542 -0.09384,-0.290719 -0.391334,-0.500956 -0.699215,-0.46922 -0.446011,0.0075 -0.812334,0.350927 -0.975439,0.746507 -0.133209,0.281693 -0.209055,0.591673 -0.211477,0.903718 z"
         id="path4708"
         inkscape:connector-curvature="0" />
      <path
         d="m 62.213867,57.937526 -0.383789,1.980469 -0.541992,0 0.383789,-1.959961 c 0.01758,-0.09179 0.03125,-0.172849 0.04102,-0.243164 0.0098,-0.07031 0.01465,-0.125974 0.01465,-0.166992 -3e-6,-0.16406 -0.05176,-0.29199 -0.155273,-0.383789 -0.103519,-0.09179 -0.24805,-0.137693 -0.433594,-0.137696 -0.289065,3e-6 -0.540041,0.09766 -0.75293,0.292969 -0.210939,0.195315 -0.347657,0.45508 -0.410156,0.779297 l -0.354492,1.819336 -0.539063,0 0.887696,-4.558594 0.539062,0 -0.348633,1.792969 c 0.136718,-0.183591 0.311522,-0.328122 0.524414,-0.433594 0.212889,-0.107418 0.436521,-0.161129 0.670899,-0.161133 0.289059,4e-6 0.512692,0.07813 0.670898,0.234375 0.160153,0.156253 0.240231,0.37598 0.240235,0.65918 -4e-6,0.07032 -0.0049,0.14551 -0.01465,0.225586 -0.0078,0.08008 -0.02051,0.166994 -0.03809,0.260742"
         style="font-style:italic;fill:#008000;-inkscape-font-specification:Sans Italic"
         id="path4710" />
      <path
         d="m 65.56543,57.984401 c 0.0059,-0.03125 0.0098,-0.06347 0.01172,-0.09668 0.0039,-0.0332 0.0059,-0.0664 0.0059,-0.09961 -3e-6,-0.238279 -0.07032,-0.426755 -0.210938,-0.56543 -0.138674,-0.138669 -0.328127,-0.208004 -0.568359,-0.208007 -0.26758,3e-6 -0.503908,0.08496 -0.708984,0.254882 -0.20508,0.167972 -0.360353,0.407229 -0.465821,0.717774 l 1.936524,-0.0029 m 0.46875,0.421875 -2.507813,0 c -0.01172,0.07422 -0.01953,0.132814 -0.02344,0.175781 -0.0039,0.04297 -0.0059,0.08008 -0.0059,0.111329 -10e-7,0.271485 0.08301,0.481446 0.249024,0.629882 0.167967,0.148438 0.404295,0.222657 0.708984,0.222657 0.234373,0 0.456053,-0.02637 0.665039,-0.0791 0.208982,-0.05273 0.403318,-0.129882 0.583008,-0.231445 l -0.102539,0.533203 C 65.407224,59.846706 65.207029,59.9053 65,59.944362 c -0.20508,0.03906 -0.414064,0.05859 -0.626953,0.05859 -0.455079,0 -0.805665,-0.108399 -1.051758,-0.325195 -0.244141,-0.21875 -0.366211,-0.52832 -0.366211,-0.928711 0,-0.341796 0.06055,-0.659178 0.181641,-0.952149 0.123046,-0.294919 0.302733,-0.557614 0.539062,-0.788086 0.152343,-0.144528 0.333007,-0.255856 0.541992,-0.333984 0.210936,-0.07812 0.434569,-0.117184 0.670899,-0.117188 0.371091,4e-6 0.666013,0.111332 0.884765,0.333985 0.2207,0.222659 0.331052,0.521487 0.331055,0.896484 -3e-6,0.08985 -0.0059,0.186526 -0.01758,0.290039 -0.01172,0.101564 -0.0293,0.210939 -0.05273,0.328125"
         style="font-style:italic;fill:#008000;-inkscape-font-specification:Sans Italic"
         id="path4712" />
      <path
         d="m 67.469727,55.359401 0.539062,0 -0.887695,4.558594 -0.539063,0 0.887696,-4.558594"
         style="font-style:italic;fill:#008000;-inkscape-font-specification:Sans Italic"
         id="path4714" />
      <path
         d="m 69.133789,55.359401 0.539063,0 -0.887696,4.558594 -0.539062,0 0.887695,-4.558594"
         style="font-style:italic;fill:#008000;-inkscape-font-specification:Sans Italic"
         id="path4716" />
      <path
         style="font-style:italic;-inkscape-font-specification:'Sans Italic';fill:#008000"
         d="m 71.222656,60.002956 c -0.405425,0.01172 -0.830219,-0.166438 -1.044199,-0.523201 -0.2614,-0.429229 -0.239981,-0.968013 -0.116368,-1.438408 0.134263,-0.530066 0.472666,-1.015311 0.953724,-1.284285 0.395351,-0.210257 0.880892,-0.261891 1.307826,-0.122812 0.450646,0.153469 0.756333,0.609224 0.768049,1.079571 0.01797,0.505062 -0.09917,1.023326 -0.365005,1.455777 -0.270625,0.415461 -0.700551,0.746299 -1.201589,0.811202 -0.100036,0.01525 -0.201271,0.02216 -0.302438,0.02216 z M 70.53418,58.658229 c -0.0018,0.296251 0.06318,0.651247 0.351973,0.801865 0.379566,0.179616 0.864982,0.07274 1.154984,-0.225551 0.410958,-0.408321 0.543312,-1.023354 0.481884,-1.583968 -0.02832,-0.271912 -0.203497,-0.543329 -0.483213,-0.605411 -0.385416,-0.09904 -0.817744,0.03833 -1.070891,0.347213 -0.304673,0.344004 -0.434932,0.813114 -0.434735,1.265852 z"
         id="path4718"
         inkscape:connector-curvature="0" />
      <path
         d="m 75.787109,56.636745 0.533203,0 0.137696,2.639648 1.224609,-2.639648 0.624024,0 0.18164,2.639648 1.163086,-2.639648 0.539063,0 -1.5,3.28125 -0.629883,0 -0.161133,-2.71875 -1.253906,2.71875 -0.635742,0 -0.222657,-3.28125"
         style="font-style:italic;fill:#008000;-inkscape-font-specification:Sans Italic"
         id="path4720" />
      <path
         style="font-style:italic;-inkscape-font-specification:'Sans Italic';fill:#008000"
         d="m 81.710937,60.002956 c -0.405424,0.01172 -0.830219,-0.166438 -1.044199,-0.523201 -0.261397,-0.429229 -0.239983,-0.968014 -0.116371,-1.438408 0.134269,-0.530065 0.472667,-1.015311 0.953727,-1.284285 0.395351,-0.210257 0.880892,-0.261891 1.307826,-0.122812 0.450646,0.153468 0.756333,0.609224 0.768049,1.079571 0.01797,0.505062 -0.09917,1.023326 -0.365004,1.455777 -0.270626,0.415461 -0.700551,0.746299 -1.20159,0.811202 -0.100036,0.01525 -0.201271,0.02216 -0.302438,0.02216 z m -0.688476,-1.344727 c -0.0018,0.296251 0.06318,0.651247 0.351973,0.801865 0.379566,0.179616 0.864982,0.07274 1.154984,-0.225551 0.410958,-0.408321 0.543312,-1.023354 0.481884,-1.583968 -0.02832,-0.271911 -0.203497,-0.543328 -0.483212,-0.605411 -0.385417,-0.09904 -0.817745,0.03833 -1.070892,0.347213 -0.304673,0.344004 -0.434932,0.813114 -0.434735,1.265852 z"
         id="path4722"
         inkscape:connector-curvature="0" />
      <path
         style="font-style:italic;-inkscape-font-specification:'Sans Italic';fill:#008000"
         d="m 86.530273,57.134792 c -0.376068,-0.184144 -0.857938,-0.08202 -1.145768,0.217118 -0.286015,0.26993 -0.41337,0.655716 -0.475891,1.03426 -0.101048,0.510608 -0.202097,1.021217 -0.303145,1.531825 -0.179688,0 -0.359375,0 -0.539063,0 0.213867,-1.09375 0.427735,-2.1875 0.641602,-3.28125 0.179687,0 0.359375,0 0.539062,0 -0.03418,0.169922 -0.06836,0.339844 -0.102539,0.509766 0.294797,-0.409529 0.815193,-0.649478 1.31836,-0.577148 0.08791,0.0084 0.210622,0.01064 0.152354,0.123579 -0.02832,0.147284 -0.05665,0.294569 -0.08497,0.441854 z"
         id="path4724"
         inkscape:connector-curvature="0" />
      <path
         d="m 87.426758,55.359401 0.539062,0 -0.887695,4.558594 -0.539063,0 0.887696,-4.558594"
         style="font-style:italic;fill:#008000;-inkscape-font-specification:Sans Italic"
         id="path4726" />
      <path
         style="font-style:italic;-inkscape-font-specification:'Sans Italic';fill:#008000"
         d="m 90.5,59.425807 c -0.351777,0.490339 -1.044358,0.714512 -1.609864,0.493653 -0.414947,-0.171748 -0.611567,-0.637887 -0.62006,-1.063259 -0.03687,-0.776362 0.299968,-1.584109 0.932838,-2.049097 0.423852,-0.292698 1.058886,-0.367059 1.470302,-0.0127 0.115554,0.05606 0.222876,0.331811 0.267154,0.317666 0.114929,-0.584222 0.229857,-1.168443 0.344786,-1.752665 0.180664,0 0.361328,0 0.541992,0 -0.295898,1.519531 -0.591797,3.039063 -0.887695,4.558594 -0.180664,0 -0.361328,0 -0.541992,0 C 90.431641,59.753932 90.46582,59.58987 90.5,59.425807 Z M 88.827148,58.65237 c -0.0083,0.334027 0.112192,0.728391 0.454307,0.853993 0.404535,0.144028 0.863941,-0.05901 1.095292,-0.405831 0.302806,-0.432827 0.455478,-0.988764 0.365591,-1.513605 -0.05054,-0.31455 -0.323626,-0.587893 -0.651967,-0.583078 -0.409126,-0.02705 -0.787052,0.23749 -0.971901,0.591454 -0.182502,0.320046 -0.288525,0.687949 -0.291321,1.057067 z"
         id="path4728"
         inkscape:connector-curvature="0" />
      <path
         style="fill:#000000"
         d="m 25.337891,65.768581 c -0.305003,0.0065 -0.628417,0.0052 -0.905274,0.149414 -0.26069,0.150279 -0.301909,0.50781 -0.205078,0.767579 0.10915,0.279936 0.43342,0.385283 0.711582,0.364974 0.344801,-0.0028 0.663884,-0.224202 0.80612,-0.535068 0.115041,-0.23094 0.134221,-0.492977 0.128782,-0.746899 -0.178711,0 -0.357421,0 -0.536132,0 z m 1.075195,-0.222656 c 0,0.624023 0,1.248047 0,1.87207 -0.179688,0 -0.359375,0 -0.539063,0 0,-0.166016 0,-0.332031 0,-0.498047 -0.171343,0.292747 -0.471123,0.506905 -0.808709,0.556091 -0.402053,0.06872 -0.870801,0.02372 -1.163646,-0.290599 -0.285762,-0.30352 -0.318089,-0.774396 -0.189411,-1.154868 0.121997,-0.355381 0.479074,-0.56362 0.832008,-0.630032 0.395425,-0.08207 0.801031,-0.0456 1.201778,-0.05383 0.04118,-0.01327 0.14142,0.03252 0.12798,-0.03537 0.01409,-0.261705 -0.10953,-0.53274 -0.344284,-0.661269 -0.323229,-0.181637 -0.71748,-0.151722 -1.068329,-0.0838 -0.200091,0.03609 -0.413908,0.137916 -0.579574,0.209098 0,-0.163068 0,-0.326136 0,-0.489204 0.542363,-0.207333 1.155417,-0.317105 1.72133,-0.141901 0.356364,0.105768 0.631847,0.408427 0.727434,0.764467 0.06175,0.206187 0.08222,0.422679 0.08249,0.637204 z"
         id="path4730"
         inkscape:connector-curvature="0" />
      <path
         d="m 29.506836,64.693386 3.755859,0 0,0.492187 -3.755859,0 0,-0.492187 m 0,1.195312 3.755859,0 0,0.498047 -3.755859,0 0,-0.498047"
         style="fill:#000000"
         id="path4732" />
      <path
         d="m 36.883789,63.043972 0,1.625976 -0.498047,0 0,-1.625976 0.498047,0"
         style="fill:#ff00ff"
         id="path4734" />
      <path
         d="m 38.049805,63.043972 0.591797,0 0,1.792968 2.15039,0 0,-1.792968 0.591797,0 0,4.374023 -0.591797,0 0,-2.083008 -2.15039,0 0,2.083008 -0.591797,0 0,-4.374023"
         style="fill:#ff00ff"
         id="path4736" />
      <path
         style="fill:#ff00ff"
         d="m 45.344727,65.642604 c -0.01449,0.115838 0.04034,0.265832 -0.127301,0.263672 l -2.351215,0 c 0.003,0.488571 0.299072,1.010662 0.812014,1.100058 0.522751,0.110998 1.074392,-0.0192 1.540525,-0.265094 l 0,0.509766 c -0.692058,0.28341 -1.548519,0.395807 -2.215576,-0.01029 -0.602014,-0.369813 -0.781249,-1.142461 -0.673591,-1.801419 0.06712,-0.679411 0.610265,-1.299335 1.305744,-1.363135 0.574797,-0.09934 1.23409,0.121756 1.506904,0.667342 0.148161,0.274159 0.204805,0.589848 0.202496,0.8991 z M 44.805664,65.4844 c 0.02912,-0.478216 -0.334684,-0.97421 -0.83902,-0.969588 -0.461856,-0.04226 -0.939858,0.2512 -1.039991,0.718696 0,0 -0.05396,0.147555 -0.05435,0.254441 0.631818,6.6e-4 1.360797,-0.0026 1.933359,-0.0035"
         id="path4738"
         inkscape:connector-curvature="0"
         sodipodi:nodetypes="cccccccccccccccc" />
      <path
         d="m 46.229492,62.859401 0.539063,0 0,4.558594 -0.539063,0 0,-4.558594"
         style="fill:#ff00ff"
         id="path4740" />
      <path
         d="m 47.893555,62.859401 0.539062,0 0,4.558594 -0.539062,0 0,-4.558594"
         style="fill:#ff00ff"
         id="path4742" />
      <path
         style="fill:#ff00ff"
         d="m 50.829102,64.514675 c -0.499537,-0.02724 -0.860839,0.444384 -0.910663,0.904585 -0.07719,0.545099 -0.01854,1.259425 0.52776,1.546891 0.433197,0.212042 1.009168,0.0035 1.179226,-0.455427 0.209422,-0.53035 0.208945,-1.199402 -0.131554,-1.676564 -0.154975,-0.20773 -0.406579,-0.32565 -0.664769,-0.319485 z m 0,-0.457032 c 0.636229,-0.03863 1.247539,0.399032 1.409518,1.015297 0.179176,0.673108 0.144958,1.489706 -0.352109,2.024618 -0.511353,0.513338 -1.421581,0.541096 -1.992139,0.111928 -0.593094,-0.488082 -0.655143,-1.346943 -0.500218,-2.048865 0.125435,-0.601246 0.668303,-1.090529 1.292845,-1.098139 l 0.07104,-0.0037 0.07106,-0.0012 10e-7,-10e-7 z"
         id="path4744"
         inkscape:connector-curvature="0" />
      <path
         d="m 53.363281,66.673854 0.618164,0 0,0.503907 -0.480468,0.9375 -0.37793,0 0.240234,-0.9375 0,-0.503907"
         style="fill:#ff00ff"
         id="path4746" />
      <path
         d="m 56.732422,64.136745 0.539062,0 0.673828,2.560547 0.670899,-2.560547 0.635742,0 0.673828,2.560547 0.670899,-2.560547 0.539062,0 -0.858398,3.28125 -0.635742,0 -0.706055,-2.689453 -0.708985,2.689453 -0.635742,0 -0.858398,-3.28125"
         style="fill:#ff00ff"
         id="path4748" />
      <path
         style="fill:#ff00ff"
         d="m 63.227539,64.514675 c -0.533103,-0.02834 -0.891497,0.498562 -0.922535,0.983804 -0.06092,0.541337 0.02847,1.259806 0.602019,1.493973 0.45698,0.182755 1.011732,-0.08267 1.149411,-0.558479 0.183394,-0.573915 0.172758,-1.33065 -0.317085,-1.753571 -0.143819,-0.114995 -0.329431,-0.167114 -0.51181,-0.165727 z m 0,-0.457032 c 0.655484,-0.04161 1.276265,0.426066 1.423726,1.063353 0.178885,0.728388 0.105735,1.642247 -0.538122,2.125013 -0.689172,0.471779 -1.814654,0.304808 -2.190224,-0.49223 -0.286426,-0.647235 -0.287736,-1.456206 0.07428,-2.074245 0.256826,-0.423183 0.747062,-0.634493 1.23034,-0.621891 z"
         id="path4750"
         inkscape:connector-curvature="0" />
      <path
         style="fill:#ff00ff"
         d="m 67.525391,64.640651 c -0.261813,-0.138867 -0.590064,-0.132425 -0.859659,-0.0182 -0.317817,0.140445 -0.476598,0.490865 -0.506867,0.820427 -0.02454,0.280124 -0.0089,0.561866 -0.01336,0.842753 0,0.377455 0,0.754909 0,1.132364 -0.180664,0 -0.361328,0 -0.541992,0 0,-1.09375 0,-2.1875 0,-3.28125 0.180664,0 0.361328,0 0.541992,0 0,0.169922 0,0.339844 0,0.509766 0.161257,-0.302495 0.468944,-0.514541 0.807242,-0.564689 0.188337,-0.03363 0.381946,-0.03057 0.569711,0.0051 9.67e-4,0.18457 0.0019,0.369141 0.0029,0.553711"
         id="path4752"
         inkscape:connector-curvature="0" />
      <path
         d="m 68.09668,62.859401 0.539062,0 0,4.558594 -0.539062,0 0,-4.558594"
         style="fill:#ff00ff"
         id="path4754" />
      <path
         style="fill:#ff00ff"
         d="m 71.919922,64.634792 c 0,-0.591797 0,-1.183594 0,-1.775391 0.179687,0 0.359375,0 0.539062,0 0,1.519531 0,3.039063 0,4.558594 -0.179687,0 -0.359375,0 -0.539062,0 0,-0.164063 0,-0.328125 0,-0.492188 -0.399534,0.774543 -1.64172,0.760275 -2.076952,0.02635 -0.390329,-0.603751 -0.403137,-1.405407 -0.154245,-2.065008 0.206336,-0.52862 0.760779,-0.914825 1.339192,-0.823214 0.369312,0.03309 0.717534,0.238023 0.892005,0.570857 z M 70.083008,65.7803 c -0.01907,0.507061 0.181003,1.160118 0.753317,1.25864 0.556799,0.128823 1.019745,-0.37665 1.059117,-0.901164 0.07343,-0.553633 0.01464,-1.287219 -0.553798,-1.563699 -0.460991,-0.210482 -1.036246,0.07339 -1.162919,0.561377 -0.07273,0.206457 -0.09495,0.427094 -0.09572,0.644846 z"
         id="path4756"
         inkscape:connector-curvature="0" />
      <path
         d="m 73.90918,66.673854 0.594726,0 0,0.744141 -0.594726,0 0,-0.744141 m 0,-3.629882 0.594726,0 0,1.918945 -0.05859,1.045898 -0.474609,0 -0.06152,-1.045898 0,-1.918945"
         style="fill:#ff00ff"
         id="path4758" />
      <path
         d="m 76.481445,63.043972 0,1.625976 -0.498047,0 0,-1.625976 0.498047,0"
         style="fill:#ff00ff"
         id="path4760" />
      <path
         style="fill:#0000ff"
         d="m 24.3682,74.4258 0,1.7402 -0.542,0 0,-4.5293 0.542,0 0,0.4981 c 0.1885,-0.3578 0.5815,-0.5756 0.9821,-0.5759 0.4244,-0.032 0.8476,0.1796 1.0818,0.5338 0.3389,0.4852 0.3815,1.1157 0.2853,1.684 -0.093,0.5356 -0.4565,1.079 -1.0157,1.1966 -0.736,0.07 -1.0892,-0.1152 -1.3335,-0.5475 z m 1.8339,-1.1455 c 0,-0.4204 -0.1009,-0.9045 -0.4741,-1.1517 -0.3548,-0.2203 -0.8808,-0.1367 -1.1167,0.2201 -0.2612,0.3785 -0.273,0.8699 -0.2144,1.3104 0.052,0.3647 0.2592,0.7572 0.6387,0.8598 0.3306,0.096 0.7252,-0.01 0.9205,-0.304 0.1934,-0.2685 0.2454,-0.6112 0.246,-0.9346 z"
         id="path4762"
         inkscape:connector-curvature="0"
         sodipodi:nodetypes="cccccccccccccccccc" />
      <path
         style="fill:#0000ff"
         d="m 29.556641,72.140651 c -0.261813,-0.138866 -0.590064,-0.132426 -0.859659,-0.0182 -0.317817,0.140445 -0.476598,0.490865 -0.506867,0.820427 -0.02454,0.280124 -0.0089,0.561866 -0.01336,0.842753 0,0.377455 0,0.754909 0,1.132364 -0.180664,0 -0.361328,0 -0.541992,0 0,-1.09375 0,-2.1875 0,-3.28125 0.180664,0 0.361328,0 0.541992,0 0,0.169922 0,0.339844 0,0.509766 0.161257,-0.302495 0.468944,-0.514541 0.807242,-0.564689 0.188337,-0.03363 0.381946,-0.03057 0.569711,0.0051 9.67e-4,0.18457 0.0019,0.369141 0.0029,0.553711"
         id="path4764"
         inkscape:connector-curvature="0" />
      <path
         d="m 30.12793,71.636745 0.539062,0 0,3.28125 -0.539062,0 0,-3.28125 m 0,-1.277344 0.539062,0 0,0.682617 -0.539062,0 0,-0.682617"
         style="fill:#0000ff"
         id="path4766" />
      <path
         style="fill:#0000ff"
         d="m 34.5195,72.9375 v 1.9805 h -0.539 v -2.0757 c -0.011,-0.281 -0.099,-0.6093 -0.3725,-0.7427 -0.2592,-0.1168 -0.5532,-0.1189 -0.8248,0.035 -0.5686,0.3222 -0.4667,2.1548 -0.4669,2.7829 h -0.542 v -3.2813 h 0.542 v 0.5098 c 0.1903,-0.3064 0.5096,-0.5403 0.874,-0.5773 0.3811,-0.048 0.8179,0.039 1.0599,0.3621 0.2193,0.2838 0.2708,0.6575 0.2722,1.0062 z"
         id="path4768"
         inkscape:connector-curvature="0"
         sodipodi:nodetypes="cccccsccccccccc" />
      <path
         style="fill:#0000ff"
         d="m 36.133789,70.705104 c 0,0.310547 0,0.621094 0,0.931641 0.370117,0 0.740235,0 1.110352,0 0,0.139648 0,0.279297 0,0.418945 -0.370117,0 -0.740235,0 -1.110352,0 0.0016,0.633211 -0.0034,1.266523 0.0026,1.899668 0.01267,0.164229 0.01826,0.386151 0.197362,0.45746 0.237599,0.08453 0.493617,0.04456 0.740741,0.05401 0.05653,0 0.113069,0 0.169603,0 0,0.150391 0,0.300781 0,0.451172 -0.369555,-0.0092 -0.746404,0.03256 -1.107594,-0.06532 -0.212596,-0.05142 -0.397255,-0.206924 -0.461091,-0.41941 -0.121726,-0.361257 -0.07361,-0.746694 -0.08366,-1.120959 0,-0.418872 0,-0.837743 0,-1.256615 -0.131836,0 -0.263672,0 -0.395508,0 0,-0.139648 0,-0.279297 0,-0.418945 0.131836,0 0.263672,0 0.395508,0 0,-0.310547 0,-0.621094 0,-0.931641 0.180664,0 0.361328,0 0.541992,0 z"
         id="path4770"
         inkscape:connector-curvature="0" />
      <path
         style="fill:#000000"
         d="m 39.250977,70.365261 c -0.527158,0.889245 -0.837664,1.925015 -0.764327,2.964466 0.04676,0.84276 0.340653,1.654932 0.764327,2.379284 -0.15625,0 -0.3125,0 -0.46875,0 -0.542228,-0.840733 -0.921366,-1.82422 -0.87259,-2.838272 0.03427,-0.900069 0.39048,-1.755962 0.87259,-2.505478 0.15625,0 0.3125,0 0.46875,0 z"
         id="path4772"
         inkscape:connector-curvature="0" />
      <path
         style="fill:#000000"
         d="m 41.791016,73.268581 c -0.32971,0.01021 -0.693212,-0.0022 -0.97397,0.198597 -0.250592,0.228432 -0.246045,0.674798 -0.0049,0.907515 0.254075,0.220399 0.640628,0.222606 0.93807,0.09409 0.618276,-0.332761 0.515874,-0.817894 0.488478,-1.200204 z m 1.075195,-0.222656 0,1.87207 -0.539063,0 0,-0.498047 c -0.201944,0.35963 -0.608256,0.575046 -1.01593,0.580925 -0.383949,0.02911 -0.818767,-0.08508 -1.041731,-0.422328 -0.23504,-0.354912 -0.229623,-0.841912 -0.02686,-1.209509 0.213766,-0.33804 0.626881,-0.4772 1.007921,-0.506043 0.344,-0.03637 0.691578,-0.0015 1.035202,-0.02129 0.117618,-0.126197 -0.01363,-0.334863 -0.06926,-0.470879 -0.198823,-0.304118 -0.596946,-0.378376 -0.935612,-0.353621 -0.314884,0.01687 -0.629445,0.09778 -0.906825,0.247674 -0.08204,-0.13269 -0.02542,-0.311344 -0.03908,-0.478713 0.583541,-0.223829 1.257199,-0.335054 1.853114,-0.09266 0.375523,0.167522 0.60546,0.562186 0.65038,0.960893 0.01994,0.129478 0.02759,0.260607 0.02774,0.391528 z"
         id="path4774"
         inkscape:connector-curvature="0"
         sodipodi:nodetypes="cccccccccccccccccccccc" />
      <path
         style="fill:#000000"
         d="m 43.894531,70.365261 c 0.15625,0 0.3125,0 0.46875,0 0.560405,0.874147 0.9498,1.903903 0.865462,2.956475 -0.06223,0.857326 -0.40624,1.669561 -0.865462,2.387275 -0.15625,0 -0.3125,0 -0.46875,0 0.561855,-0.951371 0.874865,-2.072307 0.746244,-3.1799 -0.08167,-0.766308 -0.361184,-1.500273 -0.746244,-2.16385 z"
         id="path4776"
         inkscape:connector-curvature="0" />
      <path
         style="fill:#0000ff"
         d="m 25.507812,85.359401 c 0,0.149414 0,0.298828 0,0.448242 -0.245217,0.0068 -0.493025,-0.01778 -0.735764,0.02244 -0.169426,0.02366 -0.275048,0.182507 -0.284615,0.344512 -0.01814,0.153351 -0.0084,0.308092 -0.01087,0.462155 0.295899,0 0.591797,0 0.887696,0 0,0.139648 0,0.279297 0,0.418945 -0.295899,0 -0.591797,0 -0.887696,0 0,0.954102 0,1.908203 0,2.862305 -0.180664,0 -0.361328,0 -0.541992,0 0,-0.954102 0,-1.908203 0,-2.862305 -0.171875,0 -0.34375,0 -0.515625,0 0,-0.139648 0,-0.279297 0,-0.418945 0.171875,0 0.34375,0 0.515625,0 -0.0025,-0.340635 -0.01335,-0.720391 0.224018,-0.993095 0.245803,-0.270588 0.638106,-0.29087 0.979862,-0.284249 0.123121,0 0.246241,0 0.369362,0 z"
         id="path4778"
         inkscape:connector-curvature="0" />
      <path
         style="fill:#0000ff"
         d="m 27.227539,87.014675 c -0.314607,-0.01266 -0.613999,0.174479 -0.758132,0.451281 -0.20394,0.379801 -0.210934,0.835856 -0.138269,1.251701 0.06409,0.346515 0.282296,0.701642 0.641597,0.795366 0.327751,0.09261 0.716266,-0.0023 0.921499,-0.286034 0.275693,-0.363036 0.299315,-0.851524 0.243268,-1.287321 -0.136861,-0.725191 -0.471888,-0.929203 -0.909963,-0.924993 z m 0,-0.457032 c 0.422167,-0.0088 0.860936,0.149076 1.129185,0.48594 0.348298,0.420904 0.410181,1.000791 0.362562,1.526688 -0.04057,0.478503 -0.259748,0.970784 -0.683143,1.226374 -0.38479,0.231128 -0.868431,0.254485 -1.295299,0.142041 -0.440864,-0.117727 -0.781793,-0.489161 -0.913232,-0.919456 -0.134825,-0.437796 -0.138337,-0.913814 -0.03502,-1.358609 0.105221,-0.452489 0.425531,-0.867319 0.875466,-1.015497 0.179289,-0.06265 0.370098,-0.08753 0.559481,-0.08748 z"
         id="path4780"
         inkscape:connector-curvature="0"
         sodipodi:nodetypes="cccccccccccccccc" />
      <path
         style="fill:#0000ff"
         d="m 31.5254,87.1407 c -0.2618,-0.1389 -0.5901,-0.1325 -0.8597,-0.018 -0.3178,0.1404 -0.4766,0.4908 -0.5068,0.8204 -0.025,0.2801 -0.013,1.9751 -0.013,1.9751 h -0.542 v -3.2813 h 0.542 v 0.5098 c 0.1613,-0.3025 0.4689,-0.5145 0.8072,-0.5647 0.1884,-0.034 0.382,-0.031 0.5698,0.01 9e-4,0.1846 0,0.3692 0,0.5537"
         id="path4782"
         inkscape:connector-curvature="0"
         sodipodi:nodetypes="ccccccccccc" />
      <path
         d="m 34.006836,86.636745 0.539062,0 0,3.28125 -0.539062,0 0,-3.28125 m 0,-1.277344 0.539062,0 0,0.682617 -0.539062,0 0,-0.682617"
         style="fill:#000000"
         id="path4784" />
      <path
         d="m 37.581055,86.636745 0.539062,0 0,3.28125 -0.539062,0 0,-3.28125 m 0,-1.277344 0.539062,0 0,0.682617 -0.539062,0 0,-0.682617"
         style="fill:#0000ff"
         id="path4786" />
      <path
         style="fill:#0000ff"
         d="m 41.972656,87.937526 c 0,0.660156 0,1.320313 0,1.980469 -0.179687,0 -0.359375,0 -0.539062,0 -0.0018,-0.69188 0.0036,-1.383881 -0.0028,-2.075683 -0.01081,-0.280993 -0.09858,-0.609346 -0.372506,-0.742686 -0.259138,-0.116859 -0.574008,-0.09133 -0.824775,0.03549 -0.322578,0.17021 -0.470365,0.548791 -0.466626,0.898555 -5.72e-4,0.628106 -8.3e-5,1.256216 -2.46e-4,1.884324 -0.180664,0 -0.361329,0 -0.541993,0 0,-1.09375 0,-2.1875 0,-3.28125 0.180664,0 0.361329,0 0.541993,0 0,0.169922 0,0.339844 0,0.509766 0.190274,-0.306378 0.509564,-0.540265 0.873992,-0.577278 0.381139,-0.04858 0.817894,0.03914 1.059867,0.362086 0.219327,0.283765 0.270827,0.657528 0.272195,1.006207 z"
         id="path4788"
         inkscape:connector-curvature="0" />
      <path
         style="fill:#000000"
         d="m 46.4551,88.2686 c -0.305,0.01 -0.6284,0.01 -0.9053,0.1494 -0.2607,0.1503 -0.3019,0.5078 -0.2051,0.7676 0.1092,0.2799 0.4334,0.3853 0.7116,0.3649 0.3448,-0 0.6639,-0.2242 0.8061,-0.535 0.1151,-0.231 0.1342,-0.493 0.1288,-0.7469 z m 1.0752,-0.2227 v 1.8721 h -0.5391 v -0.4981 c -0.1713,0.2928 -0.4711,0.507 -0.8087,0.5561 -0.4021,0.069 -0.8708,0.024 -1.1636,-0.2906 -0.2858,-0.3035 -0.3181,-0.7744 -0.1895,-1.1548 0.122,-0.3554 0.4791,-0.5636 0.8321,-0.6301 0.3954,-0.082 1.3432,-0.021 1.3297,-0.089 0.014,-0.2617 -0.1095,-0.5327 -0.3443,-0.6612 -0.3232,-0.1817 -0.7175,-0.1518 -1.0683,-0.084 -0.2001,0.036 -0.4139,0.1379 -0.5796,0.2091 v -0.4892 c 0.5424,-0.2074 1.1554,-0.3171 1.7214,-0.1419 0.3563,0.1057 0.6318,0.4084 0.7274,0.7644 0.062,0.2062 0.082,0.4227 0.082,0.6372 z"
         id="path4790"
         inkscape:connector-curvature="0"
         sodipodi:nodetypes="cccccccccccccccccccccccc" />
      <path
         d="m 48.78125,89.173854 0.618164,0 0,0.744141 -0.618164,0 0,-0.744141 m 0,-2.358398 0.618164,0 0,0.744141 -0.618164,0 0,-0.744141"
         style="fill:#000000"
         id="path4792" />
      <path
         style="fill:#0000ff"
         d="m 32.0088,96.9258 0,1.7402 -0.542,0 0,-4.5293 0.542,0 0,0.4981 c 0.1885,-0.3578 0.5815,-0.5756 0.9821,-0.5759 0.4245,-0.032 0.8476,0.1796 1.0819,0.5338 0.3388,0.4852 0.3814,1.1157 0.2852,1.684 -0.4031,1.5483 -1.8531,1.6045 -2.3492,0.6491 z m 1.834,-1.1455 c 0,-0.4204 -0.101,-0.9045 -0.4742,-1.1517 -0.3548,-0.2203 -0.8808,-0.1367 -1.1166,0.2201 -0.2613,0.3785 -0.2731,0.8699 -0.2145,1.3104 0.052,0.3647 0.2593,0.7572 0.6387,0.8598 0.3306,0.096 0.7252,-0.01 0.9205,-0.304 0.1935,-0.2685 0.2454,-0.6112 0.2461,-0.9346 z"
         id="path4794"
         inkscape:connector-curvature="0"
         sodipodi:nodetypes="ccccccccccccccccc" />
      <path
         style="fill:#0000ff"
         d="m 37.1973,94.6407 c -0.2618,-0.1389 -0.5901,-0.1325 -0.8597,-0.018 -0.3178,0.1404 -0.4766,0.4908 -0.5069,0.8204 -0.025,0.2801 -0.013,1.9751 -0.013,1.9751 h -0.542 v -3.2813 h 0.542 v 0.5098 c 0.1612,-0.3025 0.4689,-0.5145 0.8072,-0.5647 0.1884,-0.034 0.382,-0.031 0.5697,0.01 0,0.1846 0,0.3692 0,0.5537"
         id="path4796"
         inkscape:connector-curvature="0"
         sodipodi:nodetypes="ccccccccccc" />
      <path
         d="m 37.768555,94.136745 0.539062,0 0,3.28125 -0.539062,0 0,-3.28125 m 0,-1.277344 0.539062,0 0,0.682617 -0.539062,0 0,-0.682617"
         style="fill:#0000ff"
         id="path4798" />
      <path
         style="fill:#0000ff"
         d="m 42.160156,95.437526 c 0,0.660156 0,1.320313 0,1.980469 -0.179687,0 -0.359375,0 -0.539062,0 -0.0018,-0.69188 0.0036,-1.383881 -0.0028,-2.075683 -0.01081,-0.280993 -0.09858,-0.609346 -0.372506,-0.742686 -0.259138,-0.116859 -0.574008,-0.09133 -0.824775,0.03549 -0.322578,0.17021 -0.470365,0.548791 -0.466626,0.898555 -5.72e-4,0.628106 -8.3e-5,1.256216 -2.46e-4,1.884324 -0.180664,0 -0.361329,0 -0.541993,0 0,-1.09375 0,-2.1875 0,-3.28125 0.180664,0 0.361329,0 0.541993,0 0,0.169922 0,0.339844 0,0.509766 0.190274,-0.306378 0.509564,-0.540265 0.873992,-0.577278 0.381139,-0.04858 0.817894,0.03914 1.059867,0.362086 0.219327,0.283765 0.270827,0.657528 0.272195,1.006207 z"
         id="path4800"
         inkscape:connector-curvature="0" />
      <path
         style="fill:#0000ff"
         d="m 43.7744,93.2051 v 0.9316 h 1.1104 v 0.419 h -1.1104 c 0,0.6332 -0.1338,2.2361 0.2,2.3571 0.2376,0.084 0.4936,0.045 0.7407,0.054 h 0.1696 v 0.4512 c -0.3695,-0.01 -0.7464,0.033 -1.1076,-0.065 -0.2126,-0.051 -0.3972,-0.2069 -0.4611,-0.4194 -0.1217,-0.3613 -0.074,-0.7467 -0.084,-1.121 v -1.2566 h -0.3955 v -0.4189 h 0.3955 v -0.9317 h 0.542 z"
         id="path4802"
         inkscape:connector-curvature="0"
         sodipodi:nodetypes="ccccccccccccccccccc" />
      <path
         d="m 46.891602,92.865261 c -0.261721,0.449222 -0.456057,0.893558 -0.583008,1.333007 -0.126955,0.439456 -0.190431,0.884768 -0.19043,1.335938 -10e-7,0.451173 0.06347,0.898438 0.19043,1.341797 0.128905,0.441406 0.32324,0.885742 0.583008,1.333008 l -0.46875,0 c -0.29297,-0.458985 -0.512697,-0.910157 -0.65918,-1.353516 -0.144532,-0.443358 -0.216798,-0.883788 -0.216797,-1.321289 -10e-7,-0.435545 0.07227,-0.874021 0.216797,-1.31543 0.14453,-0.441402 0.364257,-0.892574 0.65918,-1.353515 l 0.46875,0"
         style="fill:#000000"
         id="path4804" />
      <path
         d="m 47.94043,94.136745 0.539062,0 0,3.28125 -0.539062,0 0,-3.28125 m 0,-1.277344 0.539062,0 0,0.682617 -0.539062,0 0,-0.682617"
         style="fill:#000000"
         id="path4806" />
      <path
         d="m 49.519531,92.865261 0.46875,0 c 0.292968,0.460941 0.511718,0.912113 0.65625,1.353515 0.146483,0.441409 0.219725,0.879885 0.219727,1.31543 -2e-6,0.437501 -0.07324,0.877931 -0.219727,1.321289 -0.144532,0.443359 -0.363282,0.894531 -0.65625,1.353516 l -0.46875,0 c 0.259765,-0.447266 0.453124,-0.891602 0.580078,-1.333008 0.128905,-0.443359 0.193358,-0.890624 0.19336,-1.341797 -2e-6,-0.45117 -0.06446,-0.896482 -0.19336,-1.335938 -0.126954,-0.439449 -0.320313,-0.883785 -0.580078,-1.333007"
         style="fill:#000000"
         id="path4808" />
    </g>
  </g>
</svg>
