<?xml version="1.0" encoding="UTF-8" standalone="no"?>
<!-- Created with Inkscape (http://www.inkscape.org/) -->

<svg
   xmlns:dc="http://purl.org/dc/elements/1.1/"
   xmlns:cc="http://creativecommons.org/ns#"
   xmlns:rdf="http://www.w3.org/1999/02/22-rdf-syntax-ns#"
   xmlns:svg="http://www.w3.org/2000/svg"
   xmlns="http://www.w3.org/2000/svg"
   xmlns:xlink="http://www.w3.org/1999/xlink"
   xmlns:sodipodi="http://sodipodi.sourceforge.net/DTD/sodipodi-0.dtd"
   xmlns:inkscape="http://www.inkscape.org/namespaces/inkscape"
   width="128"
   height="128"
   id="svg2"
   version="1.1"
   inkscape:version="0.91 r13725"
   sodipodi:docname="text-x-install.svg">
  <defs
     id="defs4">
    <linearGradient
       id="linearGradient4633">
      <stop
         style="stop-color:#ffffff;stop-opacity:1;"
         offset="0"
         id="stop4635" />
      <stop
         style="stop-color:#7d7d7d;stop-opacity:1;"
         offset="1"
         id="stop4637" />
    </linearGradient>
    <linearGradient
       id="linearGradient4205">
      <stop
         style="stop-color:#ff0000;stop-opacity:1;"
         offset="0"
         id="stop4207" />
      <stop
         style="stop-color:#710000;stop-opacity:1;"
         offset="1"
         id="stop4209" />
    </linearGradient>
    <linearGradient
       id="linearGradient4216-1">
      <stop
         style="stop-color:#ffffff;stop-opacity:1;"
         offset="0"
         id="stop4218-0" />
      <stop
         style="stop-color:#c6c6c6;stop-opacity:1;"
         offset="1"
         id="stop4220-9" />
    </linearGradient>
    <filter
       inkscape:collect="always"
       id="filter4495">
      <feGaussianBlur
         inkscape:collect="always"
         stdDeviation="2.0800002"
         id="feGaussianBlur4497" />
    </filter>
    <filter
       inkscape:collect="always"
       id="filter4577"
       x="-0.18"
       width="1.36"
       y="-0.18"
       height="1.36">
      <feGaussianBlur
         inkscape:collect="always"
         stdDeviation="1.5"
         id="feGaussianBlur4579" />
    </filter>
    <radialGradient
       inkscape:collect="always"
       xlink:href="#linearGradient4216-1"
       id="radialGradient4631"
       cx="77.611282"
       cy="39.420414"
       fx="77.611282"
       fy="39.420414"
       r="48"
       gradientTransform="matrix(7.3333334,1.1091983e-7,-1.2861914e-7,6.6666669,-489.14941,-230.80277)"
       gradientUnits="userSpaceOnUse" />
    <linearGradient
       inkscape:collect="always"
       xlink:href="#linearGradient4633"
       id="linearGradient4639"
       x1="99"
       y1="945.36218"
       x2="105"
       y2="939.36218"
       gradientUnits="userSpaceOnUse" />
    <radialGradient
       inkscape:collect="always"
       xlink:href="#linearGradient4205"
       id="radialGradient4103"
       cx="72"
       cy="993.06525"
       fx="72"
       fy="993.06525"
       r="28.0109"
       gradientTransform="matrix(1.5708171,7.6792269e-7,-7.6792217e-7,1.5708161,-41.098074,-567.5608)"
       gradientUnits="userSpaceOnUse" />
  </defs>
  <sodipodi:namedview
     id="base"
     pagecolor="#ffffff"
     bordercolor="#666666"
     borderopacity="1.0"
     inkscape:pageopacity="0.0"
     inkscape:pageshadow="2"
     inkscape:zoom="2.0660776"
     inkscape:cx="66.104523"
     inkscape:cy="33.083707"
     inkscape:document-units="px"
     inkscape:current-layer="layer1"
     showgrid="true"
     inkscape:window-width="1920"
     inkscape:window-height="1028"
     inkscape:window-x="-8"
     inkscape:window-y="-8"
     inkscape:window-maximized="1"
     showguides="true"
     inkscape:guide-bbox="true">
    <inkscape:grid
       type="xygrid"
       id="grid2985"
       empspacing="2"
       visible="true"
       enabled="true"
       snapvisiblegridlinesonly="true" />
  </sodipodi:namedview>
  <metadata
     id="metadata7">
    <rdf:RDF>
      <cc:Work
         rdf:about="">
        <dc:format>image/svg+xml</dc:format>
        <dc:type
           rdf:resource="http://purl.org/dc/dcmitype/StillImage" />
        <dc:title />
      </cc:Work>
    </rdf:RDF>
  </metadata>
  <g
     inkscape:label="Layer 1"
     inkscape:groupmode="layer"
     id="layer1"
     transform="translate(0,-924.36218)">
    <path
       id="path4473"
       d="m 20,934.36218 c -2.216,0 -4,1.784 -4,4 l 0,104.00002 c 0,2.216 1.784,4 4,4 l 88,0 c 2.216,0 4,-1.784 4,-4 l 0,-88.00002 -20,-20 -72,0 z"
       style="fill:#000000;fill-opacity:1;stroke:none;filter:url(#filter4495)"
       inkscape:connector-curvature="0" />
    <path
       style="fill:url(#radialGradient4631);fill-opacity:1.0;stroke:none"
       d="M 20 8 C 17.784 8 16 9.7840015 16 12 L 16 116 C 16 118.216 17.784 120 20 120 L 108 120 C 110.216 120 112 118.216 112 116 L 112 28 L 92 8 L 20 8 z "
       id="rect4276"
       transform="translate(0,924.36218)" />
    <path
       inkscape:connector-curvature="0"
       id="path4499"
       d="m 112,952.36218 -20,-20 0,16 c 0,2.216 1.784,4 4,4 l 16,0 z"
       style="fill:#000000;fill-opacity:1;stroke:none;filter:url(#filter4577)" />
    <path
       style="fill:url(#linearGradient4639);fill-opacity:1.0;stroke:none"
       d="m 112,952.36218 -20,-20 0,16 c 0,2.216 1.784,4 4,4 l 16,0 z"
       id="rect4326"
       inkscape:connector-curvature="0" />
    <path
       style="fill:url(#radialGradient4103);stroke:none;stroke-width:8;stroke-linecap:round;stroke-linejoin:round;stroke-miterlimit:4;stroke-opacity:1;stroke-dasharray:none;stroke-dashoffset:0;fill-opacity:1"
       d="m 50,962.37816 c -1.108,0 -2,0.892 -2,2 l 0,34.00002 -8,0 c -1.579353,-0.012 -3.112705,1.0102 -3.71875,2.46872 -0.606046,1.4585 -0.247607,3.264 0.875,4.375 l 24,24 c 1.483192,1.4991 4.204308,1.4991 5.6875,0 l 24,-24 c 1.122607,-1.111 1.481046,-2.9165 0.875,-4.375 C 91.112705,999.38838 89.579353,998.36638 88,998.37818 l -8,0 0,-34.00002 c 0,-1.108 -0.892,-2 -2,-2 l -28,0 z"
       id="rect3268"
       inkscape:connector-curvature="0" />
  </g>
</svg>
