<?xml version="1.0" encoding="UTF-8" standalone="no"?>
<!-- Created with Inkscape (http://www.inkscape.org/) -->

<svg
   xmlns:dc="http://purl.org/dc/elements/1.1/"
   xmlns:cc="http://creativecommons.org/ns#"
   xmlns:rdf="http://www.w3.org/1999/02/22-rdf-syntax-ns#"
   xmlns:svg="http://www.w3.org/2000/svg"
   xmlns="http://www.w3.org/2000/svg"
   xmlns:xlink="http://www.w3.org/1999/xlink"
   xmlns:sodipodi="http://sodipodi.sourceforge.net/DTD/sodipodi-0.dtd"
   xmlns:inkscape="http://www.inkscape.org/namespaces/inkscape"
   width="128"
   height="128"
   id="svg2"
   version="1.1"
   inkscape:version="0.91 r13725"
   sodipodi:docname="vcalendar.svg">
  <defs
     id="defs4">
    <linearGradient
       id="linearGradient4329">
      <stop
         style="stop-color:#c8ff00;stop-opacity:1;"
         offset="0"
         id="stop4331" />
      <stop
         style="stop-color:#234900;stop-opacity:1;"
         offset="1"
         id="stop4333" />
    </linearGradient>
    <linearGradient
       id="linearGradient4202">
      <stop
         id="stop4204"
         offset="0"
         style="stop-color:#838383;stop-opacity:1;" />
      <stop
         style="stop-color:#f7f7f7;stop-opacity:1;"
         offset="0.09090909"
         id="stop4219" />
      <stop
         style="stop-color:#969696;stop-opacity:1;"
         offset="0.18181819"
         id="stop4216" />
      <stop
         style="stop-color:#cfcfcf;stop-opacity:1;"
         offset="0.29411766"
         id="stop4214" />
      <stop
         style="stop-color:#5c5c5c;stop-opacity:1;"
         offset="0.41176471"
         id="stop4212" />
      <stop
         style="stop-color:#e4e4e4;stop-opacity:1;"
         offset="0.52941179"
         id="stop4210" />
      <stop
         style="stop-color:#ffffff;stop-opacity:1;"
         offset="0.70588237"
         id="stop4206" />
      <stop
         id="stop4208"
         offset="1"
         style="stop-color:#7c7c7c;stop-opacity:1;" />
    </linearGradient>
    <linearGradient
       id="linearGradient5177">
      <stop
         id="stop5179"
         offset="0"
         style="stop-color:#000000;stop-opacity:0.74666667;" />
      <stop
         style="stop-color:#ffffff;stop-opacity:0.75999999;"
         offset="0.03125"
         id="stop5181" />
      <stop
         style="stop-color:#000000;stop-opacity:0.50222224;"
         offset="0.0625"
         id="stop5183" />
      <stop
         style="stop-color:#ffffff;stop-opacity:0.60444444;"
         offset="0.125"
         id="stop5185" />
      <stop
         style="stop-color:#000000;stop-opacity:0.29777777;"
         offset="0.25"
         id="stop5187" />
      <stop
         id="stop5189"
         offset="0.375"
         style="stop-color:#000000;stop-opacity:0.41777778;" />
      <stop
         style="stop-color:#ffffff;stop-opacity:0.49777779;"
         offset="0.5"
         id="stop5191" />
      <stop
         id="stop5193"
         offset="1"
         style="stop-color:#000000;stop-opacity:0.61333334;" />
    </linearGradient>
    <linearGradient
       id="linearGradient4216">
      <stop
         style="stop-color:#ffffff;stop-opacity:1;"
         offset="0"
         id="stop4218" />
      <stop
         style="stop-color:#8d8d8d;stop-opacity:1;"
         offset="1"
         id="stop4220" />
    </linearGradient>
    <radialGradient
       inkscape:collect="always"
       xlink:href="#linearGradient4202"
       id="radialGradient4326"
       gradientUnits="userSpaceOnUse"
       gradientTransform="matrix(6.8527136,1.001893e-7,-1.0018929e-7,6.8527131,-374.57366,535.78854)"
       cx="56.411762"
       cy="41.235294"
       fx="56.411762"
       fy="41.235294"
       r="64.5" />
    <linearGradient
       inkscape:collect="always"
       xlink:href="#linearGradient5177"
       id="linearGradient4347"
       x1="20"
       y1="936.36218"
       x2="88"
       y2="996.36218"
       gradientUnits="userSpaceOnUse"
       gradientTransform="translate(0,-18.000005)" />
    <filter
       inkscape:collect="always"
       id="filter4134">
      <feGaussianBlur
         inkscape:collect="always"
         stdDeviation="2.24"
         id="feGaussianBlur4136" />
    </filter>
    <radialGradient
       inkscape:collect="always"
       xlink:href="#linearGradient4329"
       id="radialGradient4153"
       gradientUnits="userSpaceOnUse"
       gradientTransform="matrix(1.6450021,0.02632661,-0.01200146,0.74990397,-39.866387,231.07831)"
       cx="79.999992"
       cy="977.6955"
       fx="79.999992"
       fy="977.6955"
       r="52" />
    <radialGradient
       inkscape:collect="always"
       xlink:href="#linearGradient4216"
       id="radialGradient4189"
       cx="80"
       cy="972.36218"
       fx="80"
       fy="972.36218"
       r="56"
       gradientUnits="userSpaceOnUse"
       gradientTransform="matrix(5.4285714,5.872521e-7,-7.8404784e-7,5.1428572,-354.28495,-4028.3578)" />
  </defs>
  <sodipodi:namedview
     id="base"
     pagecolor="#ffffff"
     bordercolor="#666666"
     borderopacity="1.0"
     inkscape:pageopacity="0.0"
     inkscape:pageshadow="2"
     inkscape:zoom="1.0330388"
     inkscape:cx="-29.259262"
     inkscape:cy="21.562345"
     inkscape:document-units="px"
     inkscape:current-layer="layer1"
     showgrid="true"
     inkscape:window-width="1920"
     inkscape:window-height="1028"
     inkscape:window-x="-8"
     inkscape:window-y="-8"
     inkscape:window-maximized="1"
     showguides="true"
     inkscape:guide-bbox="true">
    <inkscape:grid
       type="xygrid"
       id="grid2985"
       empspacing="2"
       visible="true"
       enabled="true"
       snapvisiblegridlinesonly="true" />
  </sodipodi:namedview>
  <metadata
     id="metadata7">
    <rdf:RDF>
      <cc:Work
         rdf:about="">
        <dc:format>image/svg+xml</dc:format>
        <dc:type
           rdf:resource="http://purl.org/dc/dcmitype/StillImage" />
        <dc:title />
      </cc:Work>
    </rdf:RDF>
  </metadata>
  <g
     inkscape:label="Layer 1"
     inkscape:groupmode="layer"
     id="layer1"
     transform="translate(0,-924.36218)">
    <rect
       ry="0"
       rx="0"
       y="932.36218"
       x="8"
       height="112"
       width="112"
       id="rect4120"
       style="fill:#000000;fill-opacity:1;stroke:none;filter:url(#filter4134)" />
    <rect
       style="fill:url(#radialGradient4189);fill-opacity:1;stroke:none"
       id="rect4271"
       width="112"
       height="112"
       x="8"
       y="930.36218"
       rx="0"
       ry="0" />
    <rect
       style="fill:url(#radialGradient4326);fill-opacity:1;stroke:none"
       id="rect3277"
       width="104"
       height="40.999996"
       x="12"
       y="935.36218"
       rx="3.25"
       ry="3.25" />
    <rect
       ry="3.25"
       rx="3.25"
       y="935.36218"
       x="12"
       height="40.999996"
       width="104"
       id="rect4115"
       style="fill:url(#radialGradient4153);fill-opacity:1;stroke:none" />
    <path
       style="font-size:medium;font-style:normal;font-variant:normal;font-weight:normal;font-stretch:normal;text-indent:0;text-align:start;text-decoration:none;line-height:normal;letter-spacing:normal;word-spacing:normal;text-transform:none;direction:ltr;block-progression:tb;writing-mode:lr-tb;text-anchor:start;baseline-shift:baseline;opacity:0.5;color:#000000;fill:#ffffff;fill-opacity:1;stroke:none;stroke-width:2;marker:none;visibility:visible;display:inline;overflow:visible;enable-background:accumulate;font-family:Sans;-inkscape-font-specification:Sans"
       d="m 116,948.86218 c -4.21112,7.02283 -10.61065,13.37523 -18.6875,18.65625 -5.272699,3.44753 -11.27258,6.40681 -17.8125,8.84375 l 4.4375,0 c 5.156501,-2.16822 9.926346,-4.67299 14.25,-7.5 7.40083,-4.839 13.49384,-10.58423 17.8125,-16.96875 l 0,-3.03125 z"
       id="path4103"
       inkscape:connector-curvature="0" />
    <path
       style="font-size:medium;font-style:normal;font-variant:normal;font-weight:normal;font-stretch:normal;text-indent:0;text-align:start;text-decoration:none;line-height:normal;letter-spacing:normal;word-spacing:normal;text-transform:none;direction:ltr;block-progression:tb;writing-mode:lr-tb;text-anchor:start;baseline-shift:baseline;opacity:0.5;color:#000000;fill:#ffffff;fill-opacity:1;stroke:none;stroke-width:2;marker:none;visibility:visible;display:inline;overflow:visible;enable-background:accumulate;font-family:Sans;-inkscape-font-specification:Sans"
       d="m 116,948.86218 c -4.21112,7.02283 -10.61065,13.37523 -18.6875,18.65625 -5.272699,3.44753 -11.27258,6.40681 -17.8125,8.84375 l 4.4375,0 c 5.156501,-2.16822 9.926346,-4.67299 14.25,-7.5 7.40083,-4.839 13.49384,-10.58423 17.8125,-16.96875 l 0,-3.03125 z"
       id="path4105"
       inkscape:connector-curvature="0" />
    <path
       style="font-size:medium;font-style:normal;font-variant:normal;font-weight:normal;font-stretch:normal;text-indent:0;text-align:start;text-decoration:none;line-height:normal;letter-spacing:normal;word-spacing:normal;text-transform:none;direction:ltr;block-progression:tb;writing-mode:lr-tb;text-anchor:start;baseline-shift:baseline;opacity:0.5;color:#000000;fill:#ffffff;fill-opacity:1;stroke:none;stroke-width:2;marker:none;visibility:visible;display:inline;overflow:visible;enable-background:accumulate;font-family:Sans;-inkscape-font-specification:Sans"
       d="m 116,948.14343 c -4.15963,6.01501 -9.96888,11.48686 -17.0625,16.125 -7.931007,5.18565 -17.47196,9.31083 -28.09375,12.09375 l 5.84375,0 c 8.610742,-2.7323 16.414798,-6.36256 23.125,-10.75 6.52668,-4.26745 12.01878,-9.25646 16.1875,-14.75 l 0,-2.71875 z"
       id="path4107"
       inkscape:connector-curvature="0" />
    <path
       style="font-size:medium;font-style:normal;font-variant:normal;font-weight:normal;font-stretch:normal;text-indent:0;text-align:start;text-decoration:none;line-height:normal;letter-spacing:normal;word-spacing:normal;text-transform:none;direction:ltr;block-progression:tb;writing-mode:lr-tb;text-anchor:start;baseline-shift:baseline;opacity:0.5;color:#000000;fill:#ffffff;fill-opacity:1;stroke:none;stroke-width:2;marker:none;visibility:visible;display:inline;overflow:visible;enable-background:accumulate;font-family:Sans;-inkscape-font-specification:Sans"
       d="m 116,947.08093 c -3.9964,5.1465 -9.21935,9.87178 -15.4375,13.9375 -12.174755,7.96041 -28.147763,13.48271 -46,15.34375 l 10.96875,0 c 13.723006,-2.67213 26.010451,-7.52967 35.90625,-14 5.71057,-3.73384 10.62912,-8.02903 14.5625,-12.71875 l 0,-2.5625 z M 12.0625,973.61218 c 0.118614,0.76606 0.477793,1.44807 1.03125,1.9375 1.277435,0.29321 2.570647,0.55866 3.875,0.8125 l 11.0625,0 c -5.518791,-0.57245 -10.865269,-1.51272 -15.96875,-2.75 z"
       id="path4109"
       inkscape:connector-curvature="0" />
    <path
       inkscape:connector-curvature="0"
       style="font-size:medium;font-style:normal;font-variant:normal;font-weight:normal;font-stretch:normal;text-indent:0;text-align:start;text-decoration:none;line-height:normal;letter-spacing:normal;word-spacing:normal;text-transform:none;direction:ltr;block-progression:tb;writing-mode:lr-tb;text-anchor:start;baseline-shift:baseline;opacity:0.5;color:#000000;fill:#ffffff;fill-opacity:1;stroke:none;stroke-width:2;marker:none;visibility:visible;display:inline;overflow:visible;enable-background:accumulate;font-family:Sans;-inkscape-font-specification:Sans"
       d="m 116,944.39735 c -3.44132,3.66956 -7.53536,7.06368 -12.1875,10.10547 -15.133059,9.89469 -36.122023,16.04688 -59.3125,16.04688 -11.527176,0 -22.509498,-1.52148 -32.5,-4.26563 l 0,1.67578 c 10.022261,2.71435 20.992528,4.21485 32.5,4.21485 23.477585,0 44.751246,-6.2243 60.20117,-16.32618 4.22596,-2.76313 8.01828,-5.81146 11.29883,-9.11524 l 0,-2.33593 z"
       id="path4111" />
    <path
       inkscape:connector-curvature="0"
       style="font-size:medium;font-style:normal;font-variant:normal;font-weight:normal;font-stretch:normal;text-indent:0;text-align:start;text-decoration:none;line-height:normal;letter-spacing:normal;word-spacing:normal;text-transform:none;direction:ltr;block-progression:tb;writing-mode:lr-tb;text-anchor:start;baseline-shift:baseline;opacity:0.5;color:#000000;fill:#ffffff;fill-opacity:1;stroke:none;stroke-width:2;marker:none;visibility:visible;display:inline;overflow:visible;enable-background:accumulate;font-family:Sans;-inkscape-font-specification:Sans"
       d="m 116,942.51844 c -2.2537,1.92643 -4.68651,3.76738 -7.3125,5.48438 -15.133056,9.89469 -36.122023,16.04687 -59.3125,16.04687 -13.439658,0 -26.125435,-2.07477 -37.375,-5.73828 l 0,1.72656 c 11.289967,3.61811 23.976696,5.63672 37.375,5.63672 23.477585,0 44.751249,-6.22429 60.20117,-16.32617 2.27772,-1.48928 4.41014,-3.06977 6.42383,-4.72266 l 0,-2.10742 z"
       id="path4113" />
    <path
       style="opacity:0.25;fill:#ffffff;fill-opacity:1;stroke:none"
       d="m 15.25,935.36218 c -1.8005,0 -3.25,1.4495 -3.25,3.25 l 0,34.5 c 0,1.8005 1.4495,3.25 3.25,3.25 l 61.15625,0 C 84.899937,967.89972 90,957.00739 90,945.11218 c 0,-3.33826 -0.389223,-6.60037 -1.15625,-9.75 l -73.59375,0 z"
       id="rect4129"
       inkscape:connector-curvature="0" />
    <path
       sodipodi:type="arc"
       style="opacity:0.25;fill:#ffffff;fill-opacity:1;stroke:none"
       id="path4217"
       sodipodi:cx="108"
       sodipodi:cy="64"
       sodipodi:rx="12"
       sodipodi:ry="12"
       d="M 120,64 A 12,12 0 0 1 108,76 12,12 0 0 1 96,64 12,12 0 0 1 108,52 12,12 0 0 1 120,64 Z"
       transform="matrix(0.8125,0,0,0.8125,12,906.36219)" />
    <path
       sodipodi:type="arc"
       style="opacity:0.25;fill:#ffffff;fill-opacity:1;stroke:none"
       id="path4225"
       sodipodi:cx="38"
       sodipodi:cy="38"
       sodipodi:rx="6"
       sodipodi:ry="6"
       d="m 44,38 a 6,6 0 0 1 -6,6 6,6 0 0 1 -6,-6 6,6 0 0 1 6,-6 6,6 0 0 1 6,6 z"
       transform="matrix(0.8125,0,0,0.8125,12,922.36219)" />
    <text
       xml:space="preserve"
       style="font-size:32px;font-style:normal;font-weight:normal;line-height:125%;letter-spacing:0px;word-spacing:0px;fill:#ffffff;fill-opacity:1;stroke:url(#linearGradient4347);font-family:Sans"
       x="16"
       y="962.36218"
       id="text4337"
       sodipodi:linespacing="125%"><tspan
         sodipodi:role="line"
         id="tspan4339"
         x="16"
         y="962.36218"
         style="stroke:url(#linearGradient4347)">Dec</tspan></text>
    <rect
       style="fill:#808080;fill-opacity:1;stroke:none"
       id="rect4155"
       width="16"
       height="16"
       x="12"
       y="56"
       transform="translate(0,924.36218)"
       rx="2"
       ry="2" />
    <rect
       ry="2"
       rx="2"
       y="980.36218"
       x="32"
       height="16"
       width="16"
       id="rect4159"
       style="fill:#808080;fill-opacity:1;stroke:#d40000;stroke-width:2;stroke-miterlimit:4;stroke-dasharray:none" />
    <rect
       style="fill:#808080;fill-opacity:1;stroke:none"
       id="rect4161"
       width="16"
       height="16"
       x="52"
       y="980.36218"
       rx="2"
       ry="2" />
    <rect
       ry="2"
       rx="2"
       y="980.36218"
       x="72"
       height="16"
       width="16"
       id="rect4163"
       style="fill:none;fill-opacity:1;stroke:#808080;stroke-width:2;stroke-miterlimit:4;stroke-dasharray:none" />
    <rect
       style="fill:#808080;fill-opacity:1;stroke:none"
       id="rect4165"
       width="16"
       height="16"
       x="92"
       y="980.36218"
       rx="2"
       ry="2" />
    <rect
       ry="2"
       rx="2"
       y="1000.3622"
       x="12"
       height="16"
       width="16"
       id="rect4167"
       style="fill:#808080;fill-opacity:1;stroke:none" />
    <rect
       style="fill:#808080;fill-opacity:1;stroke:none"
       id="rect4169"
       width="16"
       height="16"
       x="32"
       y="1000.3622"
       rx="2"
       ry="2" />
    <rect
       ry="2"
       rx="2"
       y="1000.3622"
       x="52"
       height="16"
       width="16"
       id="rect4171"
       style="fill:#808080;fill-opacity:1;stroke:none" />
    <rect
       style="fill:#808080;fill-opacity:1;stroke:none"
       id="rect4173"
       width="16"
       height="16"
       x="72"
       y="1000.3622"
       rx="2"
       ry="2" />
    <rect
       ry="2"
       rx="2"
       y="1000.3622"
       x="92"
       height="16"
       width="16"
       id="rect4175"
       style="fill:#808080;fill-opacity:1;stroke:none" />
    <rect
       style="fill:none;fill-opacity:1;stroke:#808080;stroke-width:2;stroke-miterlimit:4;stroke-dasharray:none"
       id="rect4177"
       width="16"
       height="16"
       x="12"
       y="1020.3622"
       rx="2"
       ry="2" />
    <rect
       ry="2"
       rx="2"
       y="1020.3622"
       x="32"
       height="16"
       width="16"
       id="rect4179"
       style="fill:#808080;fill-opacity:1;stroke:none" />
    <rect
       style="fill:#808080;fill-opacity:1;stroke:none"
       id="rect4181"
       width="16"
       height="16"
       x="52"
       y="1020.3622"
       rx="2"
       ry="2" />
    <rect
       ry="2"
       rx="2"
       y="1020.3622"
       x="72"
       height="16"
       width="16"
       id="rect4183"
       style="fill:#808080;fill-opacity:1;stroke:none" />
    <rect
       style="fill:#808080;fill-opacity:1;stroke:none"
       id="rect4185"
       width="16"
       height="16"
       x="92"
       y="1020.3622"
       rx="2"
       ry="2" />
  </g>
</svg>
