<?xml version="1.0" encoding="UTF-8" standalone="no"?>
<!-- Created with Inkscape (http://www.inkscape.org/) -->

<svg
   xmlns:dc="http://purl.org/dc/elements/1.1/"
   xmlns:cc="http://creativecommons.org/ns#"
   xmlns:rdf="http://www.w3.org/1999/02/22-rdf-syntax-ns#"
   xmlns:svg="http://www.w3.org/2000/svg"
   xmlns="http://www.w3.org/2000/svg"
   xmlns:xlink="http://www.w3.org/1999/xlink"
   xmlns:sodipodi="http://sodipodi.sourceforge.net/DTD/sodipodi-0.dtd"
   xmlns:inkscape="http://www.inkscape.org/namespaces/inkscape"
   width="128"
   height="128"
   id="svg2"
   version="1.1"
   inkscape:version="0.91 r13725"
   sodipodi:docname="x-dia-diagram.svg">
  <defs
     id="defs4">
    <linearGradient
       id="linearGradient4633">
      <stop
         style="stop-color:#ffffff;stop-opacity:1;"
         offset="0"
         id="stop4635" />
      <stop
         style="stop-color:#7d7d7d;stop-opacity:1;"
         offset="1"
         id="stop4637" />
    </linearGradient>
    <linearGradient
       id="linearGradient4216-1">
      <stop
         style="stop-color:#ffffff;stop-opacity:1;"
         offset="0"
         id="stop4218-0" />
      <stop
         style="stop-color:#c6c6c6;stop-opacity:1;"
         offset="1"
         id="stop4220-9" />
    </linearGradient>
    <filter
       inkscape:collect="always"
       id="filter4495">
      <feGaussianBlur
         inkscape:collect="always"
         stdDeviation="2.0800002"
         id="feGaussianBlur4497" />
    </filter>
    <filter
       inkscape:collect="always"
       id="filter4577"
       x="-0.18"
       width="1.36"
       y="-0.18"
       height="1.36">
      <feGaussianBlur
         inkscape:collect="always"
         stdDeviation="1.5"
         id="feGaussianBlur4579" />
    </filter>
    <radialGradient
       inkscape:collect="always"
       xlink:href="#linearGradient4216-1"
       id="radialGradient4631"
       cx="77.611282"
       cy="39.420414"
       fx="77.611282"
       fy="39.420414"
       r="48"
       gradientTransform="matrix(7.3333334,1.1091983e-7,-1.2861914e-7,6.6666669,-489.14941,-230.80277)"
       gradientUnits="userSpaceOnUse" />
    <linearGradient
       inkscape:collect="always"
       xlink:href="#linearGradient4633"
       id="linearGradient4639"
       x1="99"
       y1="945.36218"
       x2="105"
       y2="939.36218"
       gradientUnits="userSpaceOnUse" />
  </defs>
  <sodipodi:namedview
     id="base"
     pagecolor="#ffffff"
     bordercolor="#666666"
     borderopacity="1.0"
     inkscape:pageopacity="0.0"
     inkscape:pageshadow="2"
     inkscape:zoom="2.921875"
     inkscape:cx="135.14978"
     inkscape:cy="57.388965"
     inkscape:document-units="px"
     inkscape:current-layer="layer1"
     showgrid="true"
     inkscape:window-width="1920"
     inkscape:window-height="1028"
     inkscape:window-x="-8"
     inkscape:window-y="-8"
     inkscape:window-maximized="1"
     showguides="true"
     inkscape:guide-bbox="true">
    <inkscape:grid
       type="xygrid"
       id="grid2985"
       empspacing="2"
       visible="true"
       enabled="true"
       snapvisiblegridlinesonly="true" />
  </sodipodi:namedview>
  <metadata
     id="metadata7">
    <rdf:RDF>
      <cc:Work
         rdf:about="">
        <dc:format>image/svg+xml</dc:format>
        <dc:type
           rdf:resource="http://purl.org/dc/dcmitype/StillImage" />
        <dc:title />
      </cc:Work>
    </rdf:RDF>
  </metadata>
  <g
     inkscape:label="Layer 1"
     inkscape:groupmode="layer"
     id="layer1"
     transform="translate(0,-924.36218)">
    <path
       id="path4473"
       d="m 20,934.36218 c -2.216,0 -4,1.784 -4,4 l 0,104.00002 c 0,2.216 1.784,4 4,4 l 88,0 c 2.216,0 4,-1.784 4,-4 l 0,-88.00002 -20,-20 -72,0 z"
       style="fill:#000000;fill-opacity:1;stroke:none;filter:url(#filter4495)"
       inkscape:connector-curvature="0" />
    <path
       style="fill:url(#radialGradient4631);fill-opacity:1;stroke:none"
       d="M 20 8 C 17.784 8 16 9.7840015 16 12 L 16 116 C 16 118.216 17.784 120 20 120 L 108 120 C 110.216 120 112 118.216 112 116 L 112 28 L 92 8 L 20 8 z "
       id="rect4276"
       transform="translate(0,924.36218)" />
    <path
       style="fill:#fcaf3e;fill-opacity:1;stroke:none"
       d="M 57.375,52 C 42.883086,52.140477 29.607546,57.213419 25.34375,64.96875 L 24,70 23.981265,84.021672 c -0.01041,7.793312 9.671074,14.971656 24.518735,17.259578 18.029489,2.77822 36.908502,-2.704977 42.15625,-12.25 l 0,-14 -12.59375,-1.9375 3.65625,-2 0,-14 C 77.731412,55.040066 72.841338,53.541813 67.5,52.71875 64.119471,52.197834 60.719288,51.967582 57.375,52 z"
       transform="translate(0,924.36218)"
       id="path3276"
       inkscape:connector-curvature="0"
       sodipodi:nodetypes="sccsscccccss" />
    <path
       inkscape:connector-curvature="0"
       id="path4499"
       d="m 112,952.36218 -20,-20 0,16 c 0,2.216 1.784,4 4,4 l 16,0 z"
       style="fill:#000000;fill-opacity:1;stroke:none;filter:url(#filter4577)" />
    <path
       style="fill:url(#linearGradient4639);fill-opacity:1.0;stroke:none"
       d="m 112,952.36218 -20,-20 0,16 c 0,2.216 1.784,4 4,4 l 16,0 z"
       id="rect4326"
       inkscape:connector-curvature="0" />
    <g
       id="g3288"
       transform="translate(12,-2)">
      <path
         sodipodi:nodetypes="ccccccc"
         inkscape:connector-curvature="0"
         id="path3283"
         transform="translate(0,924.36218)"
         d="M 81.59375,57.03125 58,70 l 0,12 32.375,5.53125 c 1.149557,-1.888866 1.67825,-3.832211 1.625634,-5.755167 L 91.955886,68.964871 C 91.466068,64.515033 87.866386,60.229274 81.59375,57.03125 z"
         style="fill:#729fcf;fill-opacity:1;stroke:none" />
      <path
         sodipodi:type="arc"
         style="fill:#3465a4;fill-opacity:1;stroke:none"
         id="path3281"
         sodipodi:cx="58"
         sodipodi:cy="70"
         sodipodi:rx="34"
         sodipodi:ry="18"
         d="m 81.584619,57.034645 a 34,18 0 0 1 8.777089,18.485468 L 58,70 Z"
         transform="translate(0,924.36218)"
         sodipodi:start="5.4789542"
         sodipodi:end="6.5948809" />
    </g>
    <path
       style="fill:#fcaf3e;fill-opacity:1;stroke:none"
       d="M 24 74 L 23.96875 84.03125 C 23.95834 91.824562 33.652339 98.993328 48.5 101.28125 C 66.529489 104.05947 85.408502 98.576273 90.65625 89.03125 L 90.65625 75.03125 L 83.9375 74 L 24 74 z "
       transform="translate(0,924.36218)"
       id="rect3292" />
    <path
       sodipodi:type="arc"
       style="fill:#f57900;fill-opacity:1;stroke:none"
       id="path3274"
       sodipodi:cx="58"
       sodipodi:cy="70"
       sodipodi:rx="34"
       sodipodi:ry="18"
       d="M 90.645277,75.030412 A 34,18 0 0 1 57.570154,87.998561 34,18 0 0 1 25.124922,74.591842 34,18 0 0 1 40.854421,54.456295 34,18 0 0 1 81.708839,57.0983 L 58,70 Z"
       transform="translate(0,924.36218)"
       sodipodi:start="0.28323928"
       sodipodi:end="5.4840389" />
    <g
       id="g3303"
       transform="translate(-6,10)">
      <path
         transform="translate(0,924.36218)"
         inkscape:connector-curvature="0"
         id="path3299"
         d="M 66,50 56,40 24,40"
         style="fill:none;stroke:#888a85;stroke-width:1px;stroke-linecap:butt;stroke-linejoin:miter;stroke-opacity:1"
         sodipodi:nodetypes="ccc" />
      <path
         transform="translate(0,924.36218)"
         inkscape:connector-curvature="0"
         d="m 28.894315,33.943359 c 0.633174,-0.261113 1.312925,-0.387271 1.98966,-0.471994 0.632211,0.04548 1.027455,0.423467 1.303332,0.959538 0.110307,0.265327 0.07829,0.618157 0.38549,0.708324 0.422084,0.07191 0.651834,-0.165363 1.009205,-0.334951 1.633186,-1.017808 -0.430767,0.272876 -3.796609,2.163364 -0.08012,0.045 0.146847,-0.110611 0.21767,-0.169161 0.08603,-0.07113 0.311675,-0.285881 0.411445,-0.341391 1.55369,-0.864432 3.120648,-1.704799 4.680972,-2.557199 1.090993,-0.0757 2.180638,-0.219344 3.202818,0.240722 0.325508,0.137947 0.459463,0.482469 0.698906,0.703528 0.18243,0.168424 0.61694,0.169048 0.834398,0.204584 0.397189,-0.02595 0.762416,0.196048 1.159417,0.154145 0.08099,-0.0085 0.302994,-0.116658 0.231911,-0.07691 -4.420243,2.471877 -5.321922,3.298628 -3.891038,2.040057 1.440018,-1.940962 1.071664,-1.367755 5.14683,-3.329705 0.04497,-0.02165 0.592763,0.334316 0.642473,0.365609 0.320503,0.273898 0.546436,0.616153 0.74086,0.985519 0.967478,1.838016 1.264975,-0.09694 -4.187847,2.614622 0.03661,-0.08378 0.0891,-0.162283 0.109832,-0.251329 0.03493,-0.15005 0.03313,-0.30641 0.05548,-0.458841 0.113595,-0.77476 0.297526,-1.436432 0.713967,-2.100644 1.320435,-1.300962 3.949662,-3.867658 5.754256,-2.67922 0.299967,0.197547 0.436333,0.399134 0.663237,0.66877 0.576749,0.942893 1.048585,1.960454 1.456036,2.988732 0.04344,0.117441 0.08451,0.23579 0.130333,0.352322 0.02879,0.07321 0.05056,0.150771 0.09345,0.216725 0.0081,0.01246 0.03574,-0.04513 0.0224,-0.03856 -0.868482,0.427732 -5.942119,3.615023 -3.983658,1.651495 3.924699,-2.291319 4.332446,-3.027929 7.974664,-2.858845 0.914648,0.09816 1.41186,0.765968 1.781542,1.53653 0.475234,0.357908 1.15942,0.342818 1.716798,0.226208 0,0 -4.06172,3.013508 -4.06172,3.013508 l 0,0 c -0.75094,-6.27e-4 -1.581044,-0.132163 -2.067625,-0.757677 -0.257264,-0.665689 -0.657922,-1.076195 -1.412423,-1.105914 -0.630604,-0.02183 -1.235746,-0.0064 -1.861252,0.09347 -1.915805,0.305819 -4.188598,1.818132 2.618987,-1.982705 -1.878345,0.703493 -4.90392,4.852558 -5.333237,2.085678 -0.34074,-0.989665 -0.768573,-1.964791 -1.371517,-2.824125 -0.223992,-0.238567 -0.455804,-0.510247 -0.823071,-0.484798 -0.102744,0.0071 -0.384536,0.140053 -0.296667,0.08633 3.36478,-2.057226 5.435121,-3.034377 3.600171,-2.15662 -0.774746,0.768964 -0.898331,1.649751 -0.827392,2.704068 -5.11452,2.746242 -3.826511,3.965499 -4.8249,1.972382 -0.146602,-0.292665 -0.323348,-0.55213 -0.608377,-0.725017 -0.07567,-0.02878 -0.146509,-0.07769 -0.227001,-0.08633 -0.06745,-0.0072 -0.257348,0.07587 -0.199435,0.04055 1.356598,-0.827587 2.742573,-1.60614 4.105429,-2.423379 0.07591,-0.04552 -0.178417,0.04663 -0.242937,0.107231 -0.167208,0.157048 -0.177501,0.440156 -0.360568,0.58617 -1.852605,2.94084 -3.790044,3.222854 -6.258582,2.719068 -0.316635,-0.07679 -0.54565,-0.106276 -0.829705,-0.276817 -0.307369,-0.184538 -0.408517,-0.569603 -0.757895,-0.70256 -0.969553,-0.328428 -2.036736,-0.182539 -3.014352,0.04836 1.269779,-0.741288 5.071254,-2.978318 3.794874,-2.248453 -0.199568,0.114118 -0.263396,0.200641 -0.427485,0.364009 -4.054177,2.476684 -3.00396,1.967809 -4.858034,2.846729 -0.443336,0.188864 -0.898059,0.212819 -1.326381,-0.03944 -0.320521,-0.255729 -0.458005,-0.569361 -0.519118,-0.969579 -0.177806,-0.39236 -0.501873,-0.51794 -0.928323,-0.4387 -0.667386,0.120632 -1.32158,0.290118 -1.938562,0.579217 0,0 3.988871,-3.136694 3.988871,-3.136694 z"
         id="path3301"
         style="fill:#888a85;fill-opacity:1;stroke:none" />
    </g>
    <g
       id="g3307"
       transform="translate(26,2)">
      <path
         style="fill:none;stroke:#888a85;stroke-width:1px;stroke-linecap:butt;stroke-linejoin:miter;stroke-opacity:1"
         d="M 68,56 56,40 24,40"
         id="path3309"
         inkscape:connector-curvature="0"
         transform="translate(0,924.36218)" />
      <path
         style="fill:#888a85;fill-opacity:1;stroke:none"
         id="path3311"
         d="m 28.894315,33.943359 c 0.633174,-0.261113 1.312925,-0.387271 1.98966,-0.471994 0.632211,0.04548 1.027455,0.423467 1.303332,0.959538 0.110307,0.265327 0.07829,0.618157 0.38549,0.708324 0.422084,0.07191 0.651834,-0.165363 1.009205,-0.334951 1.633186,-1.017808 -0.430767,0.272876 -3.796609,2.163364 -0.08012,0.045 0.146847,-0.110611 0.21767,-0.169161 0.08603,-0.07113 0.311675,-0.285881 0.411445,-0.341391 1.55369,-0.864432 3.120648,-1.704799 4.680972,-2.557199 1.090993,-0.0757 2.180638,-0.219344 3.202818,0.240722 0.325508,0.137947 0.459463,0.482469 0.698906,0.703528 0.18243,0.168424 0.61694,0.169048 0.834398,0.204584 0.397189,-0.02595 0.762416,0.196048 1.159417,0.154145 0.08099,-0.0085 0.302994,-0.116658 0.231911,-0.07691 -4.420243,2.471877 -5.321922,3.298628 -3.891038,2.040057 1.440018,-1.940962 1.071664,-1.367755 5.14683,-3.329705 0.04497,-0.02165 0.592763,0.334316 0.642473,0.365609 0.320503,0.273898 0.546436,0.616153 0.74086,0.985519 0.967478,1.838016 1.264975,-0.09694 -4.187847,2.614622 0.03661,-0.08378 0.0891,-0.162283 0.109832,-0.251329 0.03493,-0.15005 0.03313,-0.30641 0.05548,-0.458841 0.113595,-0.77476 0.297526,-1.436432 0.713967,-2.100644 1.320435,-1.300962 3.949662,-3.867658 5.754256,-2.67922 0.299967,0.197547 0.436333,0.399134 0.663237,0.66877 0.576749,0.942893 1.048585,1.960454 1.456036,2.988732 0.04344,0.117441 0.08451,0.23579 0.130333,0.352322 0.02879,0.07321 0.05056,0.150771 0.09345,0.216725 0.0081,0.01246 0.03574,-0.04513 0.0224,-0.03856 -0.868482,0.427732 -5.942119,3.615023 -3.983658,1.651495 3.924699,-2.291319 4.332446,-3.027929 7.974664,-2.858845 0.914648,0.09816 1.41186,0.765968 1.781542,1.53653 0.475234,0.357908 1.15942,0.342818 1.716798,0.226208 0,0 -4.06172,3.013508 -4.06172,3.013508 l 0,0 c -0.75094,-6.27e-4 -1.581044,-0.132163 -2.067625,-0.757677 -0.257264,-0.665689 -0.657922,-1.076195 -1.412423,-1.105914 -0.630604,-0.02183 -1.235746,-0.0064 -1.861252,0.09347 -1.915805,0.305819 -4.188598,1.818132 2.618987,-1.982705 -1.878345,0.703493 -4.90392,4.852558 -5.333237,2.085678 -0.34074,-0.989665 -0.768573,-1.964791 -1.371517,-2.824125 -0.223992,-0.238567 -0.455804,-0.510247 -0.823071,-0.484798 -0.102744,0.0071 -0.384536,0.140053 -0.296667,0.08633 3.36478,-2.057226 5.435121,-3.034377 3.600171,-2.15662 -0.774746,0.768964 -0.898331,1.649751 -0.827392,2.704068 -5.11452,2.746242 -3.826511,3.965499 -4.8249,1.972382 -0.146602,-0.292665 -0.323348,-0.55213 -0.608377,-0.725017 -0.07567,-0.02878 -0.146509,-0.07769 -0.227001,-0.08633 -0.06745,-0.0072 -0.257348,0.07587 -0.199435,0.04055 1.356598,-0.827587 2.742573,-1.60614 4.105429,-2.423379 0.07591,-0.04552 -0.178417,0.04663 -0.242937,0.107231 -0.167208,0.157048 -0.177501,0.440156 -0.360568,0.58617 -1.852605,2.94084 -3.790044,3.222854 -6.258582,2.719068 -0.316635,-0.07679 -0.54565,-0.106276 -0.829705,-0.276817 -0.307369,-0.184538 -0.408517,-0.569603 -0.757895,-0.70256 -0.969553,-0.328428 -2.036736,-0.182539 -3.014352,0.04836 1.269779,-0.741288 5.071254,-2.978318 3.794874,-2.248453 -0.199568,0.114118 -0.263396,0.200641 -0.427485,0.364009 -4.054177,2.476684 -3.00396,1.967809 -4.858034,2.846729 -0.443336,0.188864 -0.898059,0.212819 -1.326381,-0.03944 -0.320521,-0.255729 -0.458005,-0.569361 -0.519118,-0.969579 -0.177806,-0.39236 -0.501873,-0.51794 -0.928323,-0.4387 -0.667386,0.120632 -1.32158,0.290118 -1.938562,0.579217 0,0 3.988871,-3.136694 3.988871,-3.136694 z"
         inkscape:connector-curvature="0"
         transform="translate(0,924.36218)" />
    </g>
  </g>
</svg>
