<?xml version="1.0" encoding="UTF-8" standalone="no"?>
<svg xmlns="http://www.w3.org/2000/svg" xmlns:xlink="http://www.w3.org/1999/xlink" xmlns:sodipodi="http://sodipodi.sourceforge.net/DTD/sodipodi-0.dtd" xmlns:inkscape="http://www.inkscape.org/namespaces/inkscape" version="1.1" height="128" width="128">
 <defs id="defs4">
  <linearGradient id="linearGradient7226">
   <stop id="stop7228" stop-color="#ffffff"/>
   <stop offset="1" id="stop7230" stop-color="#e7e7e7"/>
  </linearGradient>
  <linearGradient id="linearGradient6977">
   <stop id="stop6979" stop-color="#ff0000"/>
   <stop offset="1" id="stop6981" stop-color="#680000"/>
  </linearGradient>
  <linearGradient id="linearGradient4205-2">
   <stop id="stop4207-3" stop-color="#ff0000"/>
   <stop id="stop4209-8" offset="1" stop-color="#710000"/>
  </linearGradient>
  <radialGradient inkscape:collect="always" xlink:href="#linearGradient7226" id="radialGradient7232" cx="160" cy="68.974" r="13" gradientTransform="matrix(2,-1.206139e-7,4.4070465e-8,0.73076923,-160,20.596173)" gradientUnits="userSpaceOnUse"/>
  <radialGradient inkscape:collect="always" xlink:href="#linearGradient6977" id="radialGradient7288" cx="168" cy="13.183" r="21.5" gradientTransform="matrix(2.6046505,4.0674696e-8,-1.5979373e-8,1.0232557,-269.58131,924.87225)" gradientUnits="userSpaceOnUse"/>
  <radialGradient inkscape:collect="always" xlink:href="#linearGradient6977" id="radialGradient7296" cx="168" cy="17.918" r="21.5" gradientTransform="matrix(1,0,0,1.4186047,0,912.94358)" gradientUnits="userSpaceOnUse"/>
  <filter inkscape:collect="always" id="filter7310" x="-0.071" width="1.141" y="-0.396" height="1.792">
   <feGaussianBlur inkscape:collect="always" stdDeviation="0.825" id="feGaussianBlur7312"/>
  </filter>
  <filter color-interpolation-filters="sRGB" inkscape:collect="always" id="filter7310-6" x="-0.071" width="1.141" y="-0.396" height="1.792">
   <feGaussianBlur inkscape:collect="always" stdDeviation="0.825" id="feGaussianBlur7312-3"/>
  </filter>
  <radialGradient inkscape:collect="always" xlink:href="#linearGradient4205-2" id="radialGradient7341" gradientUnits="userSpaceOnUse" gradientTransform="matrix(7.7533783,1.2107817e-7,-4.7566506e-8,3.0459705,-1238.5676,-14.07979)" cx="168" cy="13.183" r="21.5"/>
 </defs>
 <metadata id="metadata7"/>
 <g transform="translate(0,-924.36218)" id="layer1" inkscape:groupmode="layer" inkscape:label="Layer 1">
  <rect id="rect7222" width="24" height="7" x="148" y="89" transform="translate(0,924.36218)" rx="1" opacity="0.1"/>
  <rect id="rect7224" width="26" height="19" x="147" y="67" transform="translate(0,924.36218)" rx="2" fill="url(#radialGradient7232)"/>
  <rect id="rect7218" width="8" height="2" x="162" y="91" transform="translate(0,924.36218)" rx="1" ry="0.5" opacity="0.25"/>
  <rect id="rect7220" width="13" height="4" x="158" y="90" transform="translate(0,924.36218)" rx="1" opacity="0.1"/>
  <text x="-56" y="948.36" id="text5893" sodipodi:linespacing="125%" font-family="Sans" word-spacing="0" line-height="125%" letter-spacing="0" font-size="24"><tspan sodipodi:role="line" id="tspan5895" x="-56" y="948.36">128</tspan>
  </text>
  <text x="200" y="940.36" id="text5897" sodipodi:linespacing="125%" font-family="Sans" word-spacing="0" line-height="125%" letter-spacing="0" font-size="16"><tspan sodipodi:role="line" id="tspan5899" x="200" y="940.36">48 - 32</tspan>
  </text>
  <text sodipodi:linespacing="125%" id="text5901" y="1000.36" x="184" font-family="Sans" word-spacing="0" line-height="125%" letter-spacing="0" font-size="16"><tspan y="1000.36" x="184" id="tspan5903" sodipodi:role="line">31 - 17</tspan>
  </text>
  <text x="172" y="1048.36" id="text5905" sodipodi:linespacing="125%" font-family="Sans" word-spacing="0" line-height="125%" letter-spacing="0" font-size="16"><tspan sodipodi:role="line" id="tspan5907" x="172" y="1048.36">16</tspan>
  </text>
  <rect id="rect5917" width="56" height="56" x="140" y="-4" rx="0" transform="translate(0,924.36218)" fill="none" stroke="#000000"/>
  <rect id="rect5919" width="40" height="40" x="140" y="60" transform="translate(0,924.36218)" rx="0" fill="none" stroke="#000000" stroke-linejoin="round" stroke-linecap="round"/>
  <rect id="rect5921" width="24" height="24" x="140" y="1032.36" rx="0" fill="none" stroke="#000000" stroke-linejoin="round" stroke-linecap="round"/>
  <rect id="rect6931" width="48" height="4" x="144" y="916.36" rx="0" fill="#b3b3b3"/>
  <rect id="rect6933" width="4" height="48" x="136" y="924.36" rx="0" fill="#b3b3b3"/>
  <rect id="rect6935" width="32" height="4" x="144" y="56" transform="translate(0,924.36218)" rx="0" fill="#b3b3b3"/>
  <rect id="rect6937" width="4" height="32" x="136" y="64" transform="translate(0,924.36218)" rx="0" fill="#b3b3b3"/>
  <rect id="rect6939" width="16" height="4" x="144" y="104" rx="0" transform="translate(0,924.36218)" fill="#b3b3b3"/>
  <rect id="rect6941" width="4" height="16" x="136" y="112" transform="translate(0,924.36218)" rx="0" fill="#b3b3b3"/>
  <path sodipodi:nodetypes="sssscccsssss" inkscape:connector-curvature="0" id="path7411" d="m 145.11403,1036.4925 c -0.54498,0 -0.98371,0.4388 -0.98371,0.9837 l 0,10.8208 c 0,0.545 0.43873,0.9838 0.98371,0.9838 l 8.85339,0 2.95113,2.9511 0,-2.9511 1.96742,0 c 0.54497,0 0.98371,-0.4388 0.98371,-0.9838 l 0,-10.8208 c 0,-0.5449 -0.43874,-0.9837 -0.98371,-0.9837 z" fill="#ffffff"/>
  <path d="m 145,112 c -0.554,0 -1,0.446 -1,1 l 0,11 c 0,0.554 0.446,1 1,1 l 9,0 3,3 0,-3 2,0 c 0.554,0 1,-0.446 1,-1 l 0,-11 c 0,-0.554 -0.446,-1 -1,-1 z m 1,1 12,0 c 0.554,0 1,0.446 1,1 l 0,9 c 0,0.554 -0.446,1 -1,1 l -1,0 -1,0 0,1 0,1 -1,-1 -1,-1 -1,0 -7,0 c -0.554,0 -1,-0.446 -1,-1 l 0,-9 c 0,-0.554 0.446,-1 1,-1 z" transform="translate(0,924.36218)" id="rect7151" inkscape:connector-curvature="0" sodipodi:nodetypes="sssscccsssssssssscccccccssss" fill="#7b0000"/>
  <flowRoot id="flowRoot7173" font-family="Sans" word-spacing="0" line-height="125%" letter-spacing="0" font-size="8">
   <flowRegion id="flowRegion7175">
    <rect id="rect7177" width="6.635" height="8.662" x="154.08" y="136.11"/>
   </flowRegion>
   <flowPara id="flowPara7179"/>
  </flowRoot>
  <path d="M 149 67 C 147.892 67 147 67.892 147 69 L 147 84 C 147 85.108 147.892 86 149 86 L 163.71875 86 L 168 92 L 168 86 L 171 86 C 172.108 86 173 85.108 173 84 L 173 69 C 173 67.892 172.108 67 171 67 L 149 67 z M 150 68 L 170 68 C 171.108 68 172 68.892 172 70 L 172 83 C 172 84.108 171.108 85 170 85 L 150 85 C 148.892 85 148 84.108 148 83 L 148 70 C 148 68.892 148.892 68 150 68 z " transform="translate(0,924.36218)" id="rect7197" fill="#830000"/>
  <rect id="rect7280" width="42" height="29" x="147" y="930.36" rx="4" fill="url(#radialGradient7296)" stroke="url(#radialGradient7288)"/>
  <rect id="rect7298" width="40" height="27" x="148" y="931.36" rx="4" fill="#ffffff"/>
  <path d="m 174,959.36218 6,9 0,-9 z" id="path7302" inkscape:connector-curvature="0" fill="#830000"/>
  <path sodipodi:type="arc" id="path7304" sodipodi:cx="170" sodipodi:cy="45.5" sodipodi:rx="14" sodipodi:ry="2.5" d="M 184,45.5 A 14,2.5 0 0 1 170,48 14,2.5 0 0 1 156,45.5 14,2.5 0 0 1 170,43 14,2.5 0 0 1 184,45.5 Z" transform="translate(0,922.36218)" opacity="0.25" filter="url(#filter7310)"/>
  <rect rx="11.907" y="926.62" x="1.488" height="86.33" width="125.02" id="rect6107" fill="#e6e6e6" stroke-width="2.977"/>
  <path sodipodi:type="arc" id="path7304-1" sodipodi:cx="170" sodipodi:cy="45.5" sodipodi:rx="14" sodipodi:ry="2.5" d="M 184,45.5 A 14,2.5 0 0 1 170,48 14,2.5 0 0 1 156,45.5 14,2.5 0 0 1 170,43 14,2.5 0 0 1 184,45.5 Z" transform="matrix(2.9767442,0,0,2.9767442,-436.09302,902.81054)" opacity="0.25" filter="url(#filter7310-6)"/>
  <path d="M 13.40625 0.75 C 6.0109715 0.75 0 6.76097 0 14.15625 L 0 76.65625 C 0 84.05155 6.0109715 90.0625 13.40625 90.0625 L 82.84375 90.0625 L 99.71875 115.375 L 99.71875 90.0625 L 114.59375 90.0625 C 121.98903 90.0625 128 84.05155 128 76.65625 L 128 14.15625 C 128 6.76097 121.98903 0.75 114.59375 0.75 L 13.40625 0.75 z M 13.40625 3.75 L 114.59375 3.75 C 120.3914 3.75 125.03125 8.3586 125.03125 14.15625 L 125.03125 76.65625 C 125.03125 82.45395 120.3914 87.09375 114.59375 87.09375 L 13.40625 87.09375 C 7.6085983 87.09375 2.96875 82.45395 2.96875 76.65625 L 2.96875 14.15625 C 2.96875 8.3586 7.6085983 3.75 13.40625 3.75 z " transform="translate(0,924.36218)" id="rect7280-0" color="#000000" stroke-width="2.977" fill="url(#radialGradient7341)"/>
  <g id="g7280" transform="matrix(1.1225655,0,0,1.1225655,-6.0872872,-123.06095)">
   <path sodipodi:nodetypes="cccsccc" inkscape:connector-curvature="0" id="path7177" d="m 27.859029,949.6396 c -8.762227,1.64433 -8.060633,11.11804 -8.582027,14.79893 l 0,5.40601 c 1.960032,15.44861 20.488817,27.57063 43.067813,27.57063 23.885218,0 43.248015,-13.55399 43.248015,-30.27363 -1.02728,-7.87474 0,-15.85761 -8.401829,-17.50194 z" fill="#aa0000" stroke="#000000" stroke-linejoin="round" stroke-width="3"/>
   <rect ry="4" rx="7.218" y="949.5" x="20" height="12.601" width="14.436" id="rect7184" fill="#ffffff"/>
   <rect id="rect7186" width="14.436" height="12.601" x="34" y="949.5" rx="7.218" ry="4" fill="#ffffff"/>
   <rect ry="4" rx="7.218" y="949.5" x="48" height="12.601" width="14.436" id="rect7188" fill="#ffffff"/>
   <rect id="rect7190" width="14.436" height="12.601" x="62" y="949.5" rx="7.218" ry="4" fill="#ffffff"/>
   <rect ry="4" rx="7.218" y="949.5" x="76" height="12.601" width="14.436" id="rect7192" fill="#ffffff"/>
   <rect id="rect7194" width="14.436" height="12.601" x="90" y="949.5" rx="7.218" ry="4" fill="#ffffff"/>
   <rect transform="scale(-1,1)" ry="4" rx="7.218" y="965.5" x="-38.436" height="12.601" width="14.436" id="rect7240" fill="#ffffff"/>
   <rect id="rect7221" width="14.436" height="12.601" x="86" y="965.5" rx="7.218" ry="4" fill="#ffffff"/>
   <path transform="translate(0,924.36218)" d="M 88,54 A 26,14 0 0 1 62,68 26,14 0 0 1 36,54 26,14 0 0 1 62,40 26,14 0 0 1 88,54 Z" sodipodi:ry="14" sodipodi:rx="26" sodipodi:cy="54" sodipodi:cx="62" id="path7256" sodipodi:type="arc" fill="#ff8080"/>
   <rect id="rect7212" width="14.436" height="12.601" x="62" y="983.5" rx="7.218" ry="4" fill="#ffffff"/>
   <rect ry="4" rx="7.218" y="981.5" x="74" height="12.601" width="14.436" id="rect7214" fill="#ffffff"/>
   <rect id="rect7216" width="14.436" height="12.601" x="82" y="977.5" rx="7.218" ry="4" fill="#ffffff"/>
   <rect ry="4" rx="7.218" y="971.5" x="88" height="12.601" width="14.436" id="rect7219" fill="#ffffff"/>
   <rect transform="scale(-1,1)" ry="4" rx="7.218" y="983.5" x="-62.44" height="12.601" width="14.436" id="rect7232" fill="#ffffff"/>
   <rect transform="scale(-1,1)" id="rect7234" width="14.436" height="12.601" x="-50.44" y="981.5" rx="7.218" ry="4" fill="#ffffff"/>
   <rect transform="scale(-1,1)" ry="4" rx="7.218" y="977.5" x="-42.44" height="12.601" width="14.436" id="rect7236" fill="#ffffff"/>
   <rect transform="scale(-1,1)" id="rect7238" width="14.436" height="12.601" x="-36.436" y="971.5" rx="7.218" ry="4" fill="#ffffff"/>
   <path d="m 27.859029,949.6396 c -8.762227,1.64433 -8.060633,11.11804 -8.582027,14.79893 l 0,5.40601 c 1.960032,15.44861 20.488817,27.57063 43.067813,27.57063 23.885218,0 43.248015,-13.55399 43.248015,-30.27363 -1.02728,-7.87474 0,-15.85761 -8.401829,-17.50194 z" id="path7182" inkscape:connector-curvature="0" sodipodi:nodetypes="cccsccc" fill="none" stroke="#000000" stroke-linejoin="round" stroke-width="3"/>
  </g>
  <g transform="matrix(0.36031624,0,0,0.36031624,145.50368,595.23449)" id="g7301">
   <path d="m 27.859029,949.6396 c -8.762227,1.64433 -8.060633,11.11804 -8.582027,14.79893 l 0,5.40601 c 1.960032,15.44861 20.488817,27.57063 43.067813,27.57063 23.885218,0 43.248015,-13.55399 43.248015,-30.27363 -1.02728,-7.87474 0,-15.85761 -8.401829,-17.50194 z" id="path7303" inkscape:connector-curvature="0" sodipodi:nodetypes="cccsccc" fill="#aa0000" stroke="#000000" stroke-linejoin="round" stroke-width="3"/>
   <rect id="rect7305" width="14.436" height="12.601" x="20" y="949.5" rx="7.218" ry="4" fill="#ffffff"/>
   <rect ry="4" rx="7.218" y="949.5" x="34" height="12.601" width="14.436" id="rect7307" fill="#ffffff"/>
   <rect id="rect7309" width="14.436" height="12.601" x="48" y="949.5" rx="7.218" ry="4" fill="#ffffff"/>
   <rect ry="4" rx="7.218" y="949.5" x="62" height="12.601" width="14.436" id="rect7311" fill="#ffffff"/>
   <rect id="rect7313" width="14.436" height="12.601" x="76" y="949.5" rx="7.218" ry="4" fill="#ffffff"/>
   <rect ry="4" rx="7.218" y="949.5" x="90" height="12.601" width="14.436" id="rect7315" fill="#ffffff"/>
   <rect id="rect7317" width="14.436" height="12.601" x="-38.436" y="965.5" rx="7.218" ry="4" transform="scale(-1,1)" fill="#ffffff"/>
   <rect ry="4" rx="7.218" y="965.5" x="86" height="12.601" width="14.436" id="rect7319" fill="#ffffff"/>
   <path sodipodi:type="arc" id="path7321" sodipodi:cx="62" sodipodi:cy="54" sodipodi:rx="26" sodipodi:ry="14" d="M 88,54 A 26,14 0 0 1 62,68 26,14 0 0 1 36,54 26,14 0 0 1 62,40 26,14 0 0 1 88,54 Z" transform="translate(0,924.36218)" fill="#ff8080"/>
   <rect ry="4" rx="7.218" y="983.5" x="62" height="12.601" width="14.436" id="rect7323" fill="#ffffff"/>
   <rect id="rect7325" width="14.436" height="12.601" x="74" y="981.5" rx="7.218" ry="4" fill="#ffffff"/>
   <rect ry="4" rx="7.218" y="977.5" x="82" height="12.601" width="14.436" id="rect7327" fill="#ffffff"/>
   <rect id="rect7329" width="14.436" height="12.601" x="88" y="971.5" rx="7.218" ry="4" fill="#ffffff"/>
   <rect id="rect7331" width="14.436" height="12.601" x="-62.44" y="983.5" rx="7.218" ry="4" transform="scale(-1,1)" fill="#ffffff"/>
   <rect ry="4" rx="7.218" y="981.5" x="-50.44" height="12.601" width="14.436" id="rect7333" transform="scale(-1,1)" fill="#ffffff"/>
   <rect id="rect7335" width="14.436" height="12.601" x="-42.44" y="977.5" rx="7.218" ry="4" transform="scale(-1,1)" fill="#ffffff"/>
   <rect ry="4" rx="7.218" y="971.5" x="-36.436" height="12.601" width="14.436" id="rect7337" transform="scale(-1,1)" fill="#ffffff"/>
   <path sodipodi:nodetypes="cccsccc" inkscape:connector-curvature="0" id="path7339" d="m 27.859029,949.6396 c -8.762227,1.64433 -8.060633,11.11804 -8.582027,14.79893 l 0,5.40601 c 1.960032,15.44861 20.488817,27.57063 43.067813,27.57063 23.885218,0 43.248015,-13.55399 43.248015,-30.27363 -1.02728,-7.87474 0,-15.85761 -8.401829,-17.50194 z" fill="none" stroke="#000000" stroke-linejoin="round" stroke-width="3"/>
  </g>
  <g id="g7343" transform="matrix(0.24848348,0,0,0.24848348,144.48595,758.95671)">
   <path sodipodi:nodetypes="cccsccc" inkscape:connector-curvature="0" id="path7345" d="m 27.859029,949.6396 c -8.762227,1.64433 -8.060633,11.11804 -8.582027,14.79893 l 0,5.40601 c 1.960032,15.44861 20.488817,27.57063 43.067813,27.57063 23.885218,0 43.248015,-13.55399 43.248015,-30.27363 -1.02728,-7.87474 0,-15.85761 -8.401829,-17.50194 z" fill="#aa0000" stroke="#000000" stroke-linejoin="round" stroke-width="3"/>
   <rect ry="4" rx="7.218" y="949.5" x="20" height="12.601" width="14.436" id="rect7347" fill="#ffffff"/>
   <rect id="rect7349" width="14.436" height="12.601" x="34" y="949.5" rx="7.218" ry="4" fill="#ffffff"/>
   <rect ry="4" rx="7.218" y="949.5" x="48" height="12.601" width="14.436" id="rect7351" fill="#ffffff"/>
   <rect id="rect7353" width="14.436" height="12.601" x="62" y="949.5" rx="7.218" ry="4" fill="#ffffff"/>
   <rect ry="4" rx="7.218" y="949.5" x="76" height="12.601" width="14.436" id="rect7355" fill="#ffffff"/>
   <rect id="rect7357" width="14.436" height="12.601" x="90" y="949.5" rx="7.218" ry="4" fill="#ffffff"/>
   <rect transform="scale(-1,1)" ry="4" rx="7.218" y="965.5" x="-38.436" height="12.601" width="14.436" id="rect7359" fill="#ffffff"/>
   <rect id="rect7361" width="14.436" height="12.601" x="86" y="965.5" rx="7.218" ry="4" fill="#ffffff"/>
   <path transform="translate(0,924.36218)" d="M 88,54 A 26,14 0 0 1 62,68 26,14 0 0 1 36,54 26,14 0 0 1 62,40 26,14 0 0 1 88,54 Z" sodipodi:ry="14" sodipodi:rx="26" sodipodi:cy="54" sodipodi:cx="62" id="path7363" sodipodi:type="arc" fill="#ff8080"/>
   <rect id="rect7365" width="14.436" height="12.601" x="62" y="983.5" rx="7.218" ry="4" fill="#ffffff"/>
   <rect ry="4" rx="7.218" y="981.5" x="74" height="12.601" width="14.436" id="rect7367" fill="#ffffff"/>
   <rect id="rect7369" width="14.436" height="12.601" x="82" y="977.5" rx="7.218" ry="4" fill="#ffffff"/>
   <rect ry="4" rx="7.218" y="971.5" x="88" height="12.601" width="14.436" id="rect7371" fill="#ffffff"/>
   <rect transform="scale(-1,1)" ry="4" rx="7.218" y="983.5" x="-62.44" height="12.601" width="14.436" id="rect7373" fill="#ffffff"/>
   <rect transform="scale(-1,1)" id="rect7375" width="14.436" height="12.601" x="-50.44" y="981.5" rx="7.218" ry="4" fill="#ffffff"/>
   <rect transform="scale(-1,1)" ry="4" rx="7.218" y="977.5" x="-42.44" height="12.601" width="14.436" id="rect7377" fill="#ffffff"/>
   <rect transform="scale(-1,1)" id="rect7379" width="14.436" height="12.601" x="-36.436" y="971.5" rx="7.218" ry="4" fill="#ffffff"/>
   <path d="m 27.859029,949.6396 c -8.762227,1.64433 -8.060633,11.11804 -8.582027,14.79893 l 0,5.40601 c 1.960032,15.44861 20.488817,27.57063 43.067813,27.57063 23.885218,0 43.248015,-13.55399 43.248015,-30.27363 -1.02728,-7.87474 0,-15.85761 -8.401829,-17.50194 z" id="path7381" inkscape:connector-curvature="0" sodipodi:nodetypes="cccsccc" fill="none" stroke="#000000" stroke-linejoin="round" stroke-width="3"/>
  </g>
  <g id="g7406" transform="translate(0,-0.97741453)">
   <path id="path7383" transform="translate(0,924.36218)" d="m 146.34375,117 c -0.2198,0.46794 -0.34375,0.97567 -0.34375,1.5 0,2.48528 2.68629,4.5 6,4.5 3.31371,0 6,-2.01472 6,-4.5 0,-0.52433 -0.12395,-1.03206 -0.34375,-1.5 l -11.3125,0 z" inkscape:connector-curvature="0" fill="#ff5555" stroke="#000000"/>
   <path id="rect7394" transform="translate(0,924.36218)" d="m 146.71875,117.5 c -0.11905,0.3266 -0.21875,0.6523 -0.21875,1 0,0.16691 0.0348,0.33787 0.0625,0.5 l 10.875,0 c 0.0277,-0.16213 0.0625,-0.33309 0.0625,-0.5 0,-0.3477 -0.0997,-0.6734 -0.21875,-1 l -10.5625,0 z" inkscape:connector-curvature="0" fill="#ffffff"/>
   <path id="rect7403" transform="translate(0,924.36218)" d="m 148,121 0,0.21875 c 0.0241,0.0188 0.0379,0.044 0.0625,0.0625 0.98813,0.7411 2.38198,1.21875 3.9375,1.21875 1.55552,0 2.94937,-0.47765 3.9375,-1.21875 0.0246,-0.0185 0.0384,-0.0437 0.0625,-0.0625 L 156,121 l -8,0 z m 0,1.40625 0,0.59375 1.21875,0 c -0.43594,-0.15935 -0.84103,-0.36382 -1.21875,-0.59375 z m 8,0 c -0.37772,0.22993 -0.78281,0.4344 -1.21875,0.59375 l 1.21875,0 0,-0.59375 z" inkscape:connector-curvature="0" fill="#ffffff"/>
  </g>
 </g>
</svg>
