<?xml version="1.0" encoding="UTF-8" standalone="no"?>
<svg xmlns="http://www.w3.org/2000/svg" xmlns:xlink="http://www.w3.org/1999/xlink" xmlns:sodipodi="http://sodipodi.sourceforge.net/DTD/sodipodi-0.dtd" xmlns:inkscape="http://www.inkscape.org/namespaces/inkscape" version="1.1" width="128" height="128">
 <defs id="defs4">
  <linearGradient id="linearGradient7006">
   <stop id="stop7008" stop-color="#ffffff"/>
   <stop id="stop7010" offset="1" stop-color="#ffffff" stop-opacity="0"/>
  </linearGradient>
  <linearGradient id="linearGradient6978">
   <stop id="stop6980" stop-opacity="0.25"/>
   <stop id="stop6982" offset="1" stop-opacity="0"/>
  </linearGradient>
  <linearGradient id="linearGradient4216-4-8-2">
   <stop id="stop4218-8-0-7" stop-color="#ffffff"/>
   <stop id="stop4220-1-6-4" offset="1" stop-color="#c6c6c6"/>
  </linearGradient>
  <filter color-interpolation-filters="sRGB" id="filter6960">
   <feGaussianBlur id="feGaussianBlur6962" stdDeviation="4.16"/>
  </filter>
  <radialGradient inkscape:collect="always" xlink:href="#linearGradient7006" id="radialGradient5910" gradientUnits="userSpaceOnUse" gradientTransform="matrix(0.3871967,0,0,0.3871967,143.21941,-0.78059)" cx="88" cy="36" r="51"/>
  <linearGradient inkscape:collect="always" xlink:href="#linearGradient6978" id="linearGradient5913" gradientUnits="userSpaceOnUse" gradientTransform="matrix(0.3871967,0,0,0.3871967,143.21941,-0.78059)" y1="188" x2="0" y2="8"/>
  <radialGradient inkscape:collect="always" xlink:href="#linearGradient4216-4-8-2" id="radialGradient5917" gradientUnits="userSpaceOnUse" gradientTransform="matrix(0.3871967,0,0,0.3871967,143.21941,-358.69058)" cx="64" cy="1020.36" r="52"/>
  <radialGradient inkscape:collect="always" xlink:href="#linearGradient7006" id="radialGradient5921" gradientUnits="userSpaceOnUse" gradientTransform="matrix(0.07039912,0,0,0.07039912,155.49446,74.74414)" cx="88" cy="36" r="51"/>
  <linearGradient inkscape:collect="always" xlink:href="#linearGradient6978" id="linearGradient5924" gradientUnits="userSpaceOnUse" gradientTransform="matrix(0.25813113,0,0,0.25813113,143.47961,63.48022)" y1="188" x2="0" y2="8"/>
  <radialGradient inkscape:collect="always" xlink:href="#linearGradient4216-4-8-2" id="radialGradient5928" gradientUnits="userSpaceOnUse" gradientTransform="matrix(0.25813113,0,0,0.25813113,143.47961,-175.12642)" cx="64" cy="1020.36" r="52"/>
  <linearGradient inkscape:collect="always" xlink:href="#linearGradient6978" id="linearGradient5931" gradientUnits="userSpaceOnUse" gradientTransform="matrix(0.13725491,0,0,0.13725491,143.21568,111.76482)" y1="188" x2="0" y2="8"/>
  <radialGradient inkscape:collect="always" xlink:href="#linearGradient4216-4-8-2" id="radialGradient7073" cx="53.26" cy="62.767" r="52" gradientUnits="userSpaceOnUse" gradientTransform="matrix(2.1429305,-0.04362171,0.05998915,2.9469842,-64.639607,-119.88306)"/>
 </defs>
 <metadata id="metadata7"/>
 <rect id="rect6981" y="16" x="12" rx="8" height="104" width="104" opacity="0.1" stroke="#000000" stroke-width="10"/>
 <rect id="rect6979" y="16" x="12" rx="8" height="104" width="104" opacity="0.1" stroke="#000000" stroke-width="6"/>
 <rect id="rect5969" y="14" x="12" rx="8" height="104" width="104" opacity="0.2" stroke="#000000" stroke-width="3"/>
 <rect id="rect6936" y="14" x="12" rx="8" height="104" width="104" fill="#ce5c00"/>
 <rect id="rect6964" y="10" x="12" rx="8" height="104" width="104" fill="#f57900" stroke="#fcaf3e"/>
 <path inkscape:connector-curvature="0" id="path7219" d="m 148.65625,65.53125 c -1.14404,0 -2.09375,0.949713 -2.09375,2.09375 l 0,1.03125 0,21.65625 0,1.03125 c 0,1.144037 0.94971,2.09375 2.09375,2.09375 l 22.6875,0 c 1.14404,0 2.09375,-0.949713 2.09375,-2.09375 l 0,-1.03125 0,-21.65625 0,-1.03125 c 0,-1.144037 -0.94971,-2.09375 -2.09375,-2.09375 l -22.6875,0 z" opacity="0.25" stroke="#000000" stroke-width="3"/>
 <path inkscape:connector-curvature="0" id="path7217" d="m 148.65625,65.53125 c -1.14404,0 -2.09375,0.949713 -2.09375,2.09375 l 0,1.03125 0,21.65625 0,1.03125 c 0,1.144037 0.94971,2.09375 2.09375,2.09375 l 22.6875,0 c 1.14404,0 2.09375,-0.949713 2.09375,-2.09375 l 0,-1.03125 0,-21.65625 0,-1.03125 c 0,-1.144037 -0.94971,-2.09375 -2.09375,-2.09375 l -22.6875,0 z" opacity="0.25" stroke="#000000" stroke-width="2"/>
 <path inkscape:connector-curvature="0" id="rect7185" d="m 148.65625,65.53125 c -1.14404,0 -2.09375,0.949713 -2.09375,2.09375 l 0,1.03125 0,21.65625 0,1.03125 c 0,1.144037 0.94971,2.09375 2.09375,2.09375 l 22.6875,0 c 1.14404,0 2.09375,-0.949713 2.09375,-2.09375 l 0,-1.03125 0,-21.65625 0,-1.03125 c 0,-1.144037 -0.94971,-2.09375 -2.09375,-2.09375 l -22.6875,0 z" opacity="0.5" stroke="#000000"/>
 <rect id="rect7150" y="112" x="144" rx="1" height="16" width="16" fill="#333333"/>
 <text sodipodi:linespacing="125%" id="text5893" y="24" x="-56" font-family="Sans" word-spacing="0" line-height="125%" letter-spacing="0" font-size="24"><tspan id="tspan5895" y="24" x="-56">128</tspan>
 </text>
 <text sodipodi:linespacing="125%" id="text5897" y="16" x="200" font-family="Sans" word-spacing="0" line-height="125%" letter-spacing="0" font-size="16"><tspan id="tspan5899" y="16" x="200">48 - 32</tspan>
 </text>
 <text sodipodi:linespacing="125%" id="text5901" y="76" x="184" font-family="Sans" word-spacing="0" line-height="125%" letter-spacing="0" font-size="16"><tspan id="tspan5903" y="76" x="184">31 - 17</tspan>
 </text>
 <text sodipodi:linespacing="125%" id="text5905" y="124" x="172" font-family="Sans" word-spacing="0" line-height="125%" letter-spacing="0" font-size="16"><tspan id="tspan5907" y="124" x="172">16</tspan>
 </text>
 <rect id="rect5917" y="-4" x="140" rx="0" height="56" width="56" fill="none" stroke="#000000"/>
 <rect id="rect5919" y="60" x="140" rx="0" height="40" width="40" fill="none" stroke="#000000" stroke-linejoin="round" stroke-linecap="round"/>
 <rect id="rect5921" y="108" x="140" rx="0" height="24" width="24" fill="none" stroke="#000000" stroke-linejoin="round" stroke-linecap="round"/>
 <rect id="rect6931" y="-8" x="144" rx="0" height="4" width="48" fill="#b3b3b3"/>
 <rect id="rect6933" x="136" rx="0" height="48" width="4" fill="#b3b3b3"/>
 <rect id="rect6935" y="56" x="144" rx="0" height="4" width="32" fill="#b3b3b3"/>
 <rect id="rect6937" y="64" x="136" rx="0" height="32" width="4" fill="#b3b3b3"/>
 <rect id="rect6939" y="104" x="144" rx="0" height="4" width="16" fill="#b3b3b3"/>
 <rect id="rect6941" y="112" x="136" rx="0" height="16" width="4" fill="#b3b3b3"/>
 <rect id="rect7118" y="113" x="145" rx="1.077" height="14" width="14" fill="#ffffff"/>
 <rect id="rect7120" y="113" x="145" rx="1.098" height="14" width="14" opacity="0.5" fill="url(#linearGradient5931)"/>
 <rect id="rect5952" y="66.58" x="146.58" rx="2.065" height="26.846" width="26.846" fill="url(#radialGradient5928)"/>
 <rect id="rect5954" y="65.55" x="146.58" rx="2.065" height="26.846" width="26.846" fill="#ffffff"/>
 <rect id="rect5956" y="65.803" x="146.84" rx="2.065" height="26.329" width="26.329" opacity="0.5" fill="url(#linearGradient5924)"/>
 <rect id="rect5958" y="75.38" x="156.41" rx="0.563" height="7.181" width="7.181" opacity="0.5" fill="url(#radialGradient5921)"/>
 <rect id="rect7048" transform="matrix(0.3871967,0,0,0.3871967,143.21941,-359.46497)" y="938.36" x="12" rx="8" height="104" width="104" filter="url(#filter6960)"/>
 <rect id="rect7050" y="3.866" x="147.87" rx="3.098" height="40.27" width="40.27" fill="url(#radialGradient5917)"/>
 <rect id="rect7052" y="2.317" x="147.87" rx="3.098" height="40.27" width="40.27" fill="#ffffff"/>
 <rect id="rect7054" y="2.704" x="148.25" rx="3.098" height="39.494" width="39.494" opacity="0.5" fill="url(#linearGradient5913)"/>
 <rect id="rect7056" y="2.704" x="148.25" rx="3.098" height="39.494" width="39.494" opacity="0.5" fill="url(#radialGradient5910)"/>
 <path d="m 108.9375,23.6875 c -72.625,69.541667 -36.3125,34.770833 0,0 z m 0,0 c 1.11466,0.86205 2.14884,1.845068 3.09375,2.9375 -3.01497,-2.641306 -13.73216,-4.58509 -7.34375,0 2.96104,1.638222 5.19543,8.061523 0.28125,3.59375 -0.0953,-0.06174 -0.18185,-0.146391 -0.28125,-0.21875 1.44886,1.59813 2.50807,3.239376 2.53125,5.03125 -6.61734,-2.546072 2.26932,5.249444 2.125,8.875 1.70191,4.613598 2.55125,9.627943 1.90625,14.53125 -2.68435,-4.017567 -1.42629,2.524461 -4.03125,-0.90625 -0.81882,5.736411 0.51947,12.957517 -0.8125,19.15625 -4.36045,2.022195 -3.75828,9.644833 -6.96875,14 -1.719515,7.446169 -8.802084,4.241507 -13.125,8.9375 -6.282459,2.61566 -13.856056,2.53823 -20.21875,0.0625 C 59.73525,96.486848 53.112779,93.243089 49.25,86.875 c -3.632102,-2.962265 -0.951015,-5.089572 2.21875,-2.53125 5.952456,3.206154 13.242926,2.44835 19.625,1.53125 2.930599,-2.62828 14.797786,-2.145503 10.53125,-7.21875 -1.41436,-1.320056 1.319473,0.202909 -2.3125,-1.84375 -7.902077,-4.906245 -16.049636,4.886168 -24.15625,1.03125 -4.195747,-0.751989 -7.743353,-7.411367 -10.0625,-7.53125 -1.333348,5.123959 -6.776686,8.606843 -11.5625,9.03125 -4.294036,-5.259383 -0.908113,-15.077444 6.09375,-16.1875 5.422005,-2.807328 16.819205,5.197687 15.4375,-5.125 -1.205768,-3.875108 9.030949,-5.93355 1.125,-5.75 -4.106172,-2.404381 5.882341,-2.79112 7.53125,-2.90625 7.630915,-2.339761 0.104169,-10.124866 -5.21875,-7.6875 -8.202584,0.492166 -7.423209,-10.041006 -2.375,-13.75 5.725381,-7.080319 -7.492756,-1.835887 -10.5,-0.34375 -4.016802,4.640581 -11.173018,2.368515 -16.6875,3.0625 -4.156013,1.118927 -4.369839,-3.342341 -3.71875,-4.6875 C 22.151719,28.379067 20.625888,16.636713 18,23.90625 13.103624,30.108796 15.651142,38.618907 12.15625,45.21875 12.098078,45.331031 12.057003,45.449805 12,45.5625 l 0,36.625 c 1.525716,2.521388 3.095123,5.016122 2.1875,-0.25 -0.704424,-2.580735 0.164504,-11.543803 2.28125,-4.78125 1.734602,3.626181 1.853523,11.293095 6.6875,9.6875 3.416306,4.377891 5.223531,9.965613 9.1875,14.03125 4.45107,5.22143 10.070571,9.16689 15.625,13.125 L 108,114 c 4.432,0 8,-3.568 8,-8 l 0,-75.75 c -2.18464,-2.374865 -4.5391,-4.568135 -7.0625,-6.5625 z m -83.71875,2.28125 c 0.131477,-0.103325 0.26894,-0.216983 0.40625,-0.375 -0.152257,-0.0074 -0.290574,0.136012 -0.40625,0.375 z M 104.6875,30 c -69.791667,65.333333 -34.895833,32.666667 0,0 z m 5.28125,-8.6875 c -2.53156,0.170417 5.45012,2.769347 5.8125,5.1875 0.0693,0.06287 0.14739,0.153645 0.21875,0.21875 l 0,-2.1875 c -1.71649,-1.208055 -3.51701,-2.273387 -5.375,-3.21875 -0.26767,-0.01117 -0.48748,-0.01136 -0.65625,0 z m -68.8125,9.5625 c 1.993782,0.780735 -2.79036,0.302923 0,0 z m 9.875,4.5625 c 2.40016,3.246463 2.836092,11.556392 0.15625,12.46875 -1.918809,-3.935618 -0.383024,-8.349885 -0.15625,-12.46875 z m -34.25,0.4375 c 2.613517,1.848927 -4.331038,4.10748 -0.53125,0.1875 z m 51.375,7.375 c -0.663239,2.836398 0.880857,5.557026 0,0 z m -4.09375,6.625 c -2.228968,0.728674 -0.697943,1.516688 0,0 z m -3.03125,2 c -0.310712,0.0886 -0.08014,0.557795 0.15625,0 -0.06862,-0.0065 -0.111863,-0.01266 -0.15625,0 z m 46.4375,2.4375 c -0.13356,1.298485 2.61219,1.279023 0,0 z M 12,87.59375 12,90.875 c 2.828282,7.160679 6.589538,13.93334 11.8125,19.6875 0.886686,0.96635 2.078065,2.17549 3.34375,3.4375 l 1.625,0 C 27.198545,112.64718 25.67957,111.24246 24.625,109.71875 19.014098,103.34612 14.40394,95.775702 12,87.59375 z" id="path5990" inkscape:connector-curvature="0" sodipodi:nodetypes="cccccccccccccccccccccccccccccccccccccccccsscccccccsccccsccccccccccccscsccccccccc" fill="url(#radialGradient7073)"/>
 <path d="M 110.75 22.4375 C 110.6944 22.45465 110.63316 22.52314 110.59375 22.5625 C 110.85829 22.701629 111.40199 23.134527 112.25 23.9375 C 113.04284 24.688247 114.53145 26.48011 116 28.40625 L 116 26.75 C 113.76005 24.069916 111.51871 22.199992 110.75 22.4375 z M 29.09375 23 C 28.565089 23.4573 28.034945 23.903442 27.53125 24.375 C 27.513426 24.391687 27.517394 24.420937 27.5 24.4375 C 28.020939 23.949798 28.548438 23.471363 29.09375 23 z M 24.59375 27.71875 C 24.310293 28.475652 24.67664 29.029513 25.46875 29.90625 C 26.28283 30.807296 27.020252 30.985614 29.0625 30.78125 C 27.963044 30.893763 27.279064 30.491263 26.0625 29.21875 L 24.59375 27.71875 z M 29.0625 30.78125 C 29.260447 30.76141 29.399553 30.77715 29.625 30.75 C 31.313552 30.547535 33.374463 30.356907 34.21875 30.34375 C 34.377679 30.34155 34.470571 30.31746 34.59375 30.3125 C 34.333868 30.33407 33.979028 30.34008 33.53125 30.34375 C 32.307052 30.35454 30.502168 30.525613 29.53125 30.71875 C 29.354592 30.75391 29.219564 30.76518 29.0625 30.78125 z M 34.59375 30.3125 C 35.498688 30.2754 35.525378 30.157559 34.71875 29.6875 C 35.358792 30.060489 35.373384 30.24788 34.59375 30.3125 z M 16.78125 35.875 C 15.95233 35.875 15.1875 37.12162 15.1875 38.46875 C 15.1875 38.831181 15.730835 38.642498 16.40625 38.03125 C 17.840162 36.733577 17.990113 35.875 16.78125 35.875 z M 51.21875 37.78125 C 50.988094 37.8438 50.774456 38.135146 50.5625 38.6875 C 50.076599 39.953737 50.100675 44.409358 50.59375 46.875 C 51.171404 49.763257 52.295123 48.813835 52.78125 45.03125 C 53.253875 41.353768 52.218235 37.510422 51.21875 37.78125 z M 67.0625 42.625 C 66.099186 42.625 65.901097 43.701602 66.53125 45.34375 C 66.765562 45.95435 67.062213 46.086119 67.34375 45.9375 C 67.130111 45.85144 66.96875 45.294251 66.96875 44.46875 C 66.96875 43.595259 67.142392 42.826234 67.375 42.65625 C 67.28625 42.61894 67.166473 42.625 67.0625 42.625 z M 105.96875 55.46875 C 106.16612 56.065996 106.33318 56.978792 106.5 58.09375 C 106.38934 57.035983 106.26916 56.155452 106.125 55.8125 C 106.0646 55.668866 106.02641 55.587261 105.96875 55.46875 z M 44.1875 62.75 C 41.352514 62.79519 38.63737 63.112237 37.53125 63.6875 C 35.234178 64.882149 33.264823 67.035219 32.4375 69.21875 C 31.459217 71.800736 31.608381 77.133475 32.71875 78.71875 C 33.842342 80.322901 34.42932 80.408683 35.46875 79.15625 C 35.889168 78.649682 36.669103 78.229966 37.21875 78.21875 C 38.425888 78.19411 42.804199 75.223562 43.53125 73.9375 C 43.817629 73.430932 44.337008 72.203586 44.6875 71.21875 L 45.34375 69.4375 L 47.1875 71.5625 C 47.26019 71.64431 47.277588 71.677031 47.34375 71.75 C 44.559613 67.212455 46.636831 62.55423 50.84375 63.28125 C 49.158088 62.883866 46.660292 62.710588 44.1875 62.75 z M 53.9375 65.34375 C 53.91075 65.39957 53.831395 65.483398 53.78125 65.53125 C 53.83819 65.47802 53.911272 65.407421 53.9375 65.34375 z M 14.875 73.84375 C 14.727211 73.88297 14.603223 74.162795 14.4375 74.59375 C 14.116956 75.427303 14.009608 78.419982 14.21875 81.28125 C 14.562006 85.9773 14.513993 86.374546 13.6875 85.28125 C 13.183924 84.61511 12.760785 83.755792 12.75 83.375 C 12.7402 83.028832 12.422418 82.494661 12 82.09375 L 12 87.5625 C 12.894673 90.346378 14.054321 93.360945 15.25 95.84375 C 18.28454 102.14489 23.764415 109.48997 28.8125 114 L 47.6875 114 C 45.928756 112.84606 44.695599 111.81653 44.40625 111.0625 C 44.200592 110.52657 43.804957 110.23709 43.53125 110.40625 C 43.257542 110.5754 42.017174 109.75464 40.75 108.59375 C 39.482814 107.43287 38.277274 106.5 38.03125 106.5 C 37.316278 106.5 31.599877 100.30272 29.53125 97.28125 C 28.490785 95.761545 26.757235 92.78241 25.6875 90.65625 C 23.688843 86.683817 22.223694 85.400654 21.3125 86.875 C 20.415359 88.326609 19.881118 87.285163 16.59375 77.65625 C 15.614367 74.787556 15.200138 73.757457 14.875 73.84375 z M 106.8125 75.0625 C 106.48289 76.594144 105.96643 77.310217 105.1875 77.3125 C 105.06749 77.312857 104.95106 77.33841 104.84375 77.375 C 104.93185 77.44992 105.04214 77.530301 105.15625 77.625 C 105.89312 78.236541 106.15101 78.179672 106.53125 77.25 C 106.66138 76.931854 106.73939 76.080212 106.8125 75.0625 z M 103.21875 80.59375 C 101.56382 87.060389 98.077042 93.904355 95.53125 95.6875 C 94.326387 96.531417 94.056807 96.536714 93.1875 95.75 C 92.316986 94.962198 92.006483 94.966107 90.6875 95.875 C 89.862258 96.443664 88.878226 97.293487 88.53125 97.75 C 87.590356 98.987892 79.314087 100.98141 75.40625 100.90625 C 73.525994 100.87005 70.738452 100.55024 69.21875 100.21875 C 67.699049 99.887268 65.750537 99.003809 64.90625 98.21875 C 64.061973 97.433687 62.232425 96.469618 60.8125 96.09375 C 58.269717 95.420634 54.5 92.811377 54.5 91.71875 C 54.5 91.411058 56.24116 91.125 58.375 91.125 C 63.709577 91.125 67.86999 89.760813 73.34375 86.1875 C 76.338894 84.232252 78.640764 83.15625 79.84375 83.15625 C 80.871393 83.15625 82.244664 82.664195 82.875 82.09375 C 83.116764 81.874952 83.263045 81.740952 83.40625 81.625 C 83.34025 81.66611 83.308746 81.678855 83.21875 81.75 C 82.790244 82.088737 81.271263 82.541653 79.875 82.71875 C 78.478747 82.895845 75.843252 83.791942 74.03125 84.75 C 70.948364 86.380001 70.301121 86.517618 63.40625 86.53125 C 56.344523 86.54523 55.87259 86.454009 51.8125 84.53125 C 49.482514 83.427828 47.430506 82.631988 47.28125 82.78125 C 46.646935 83.415554 47.969866 85.662297 51.15625 89.34375 C 54.920945 93.693371 58.864897 96.65625 60.90625 96.65625 C 61.63881 96.65625 62.843872 97.361003 63.5625 98.1875 C 64.281138 99.013998 66.047032 99.970065 67.5 100.34375 C 68.952968 100.71743 70.412287 101.14125 70.75 101.28125 C 71.759363 101.69968 81.602124 101.1143 84.46875 100.46875 C 86.19755 100.07943 87.950026 99.044765 89.5 97.53125 C 91.768881 95.315749 91.970549 95.261805 93.0625 96.25 C 94.144916 97.229572 94.29907 97.235057 95.75 96.09375 C 97.832301 94.45581 101.45164 87.408996 102.71875 82.53125 C 102.94129 81.674567 103.05762 81.212885 103.21875 80.59375 z " id="path5984" fill="#888a85"/>
</svg>
