<?xml version="1.0" encoding="UTF-8" standalone="no"?>
<svg xmlns="http://www.w3.org/2000/svg" xmlns:xlink="http://www.w3.org/1999/xlink" xmlns:sodipodi="http://sodipodi.sourceforge.net/DTD/sodipodi-0.dtd" xmlns:inkscape="http://www.inkscape.org/namespaces/inkscape" width="128" height="128" version="1.1">
 <defs id="defs4">
  <linearGradient id="linearGradient5685">
   <stop id="stop5687" stop-color="#ffffff" stop-opacity="0.699"/>
   <stop offset="0.5" id="stop5691" stop-color="#ffffff" stop-opacity="0.122"/>
   <stop id="stop5689" offset="1" stop-color="#ffffff" stop-opacity="0.799"/>
  </linearGradient>
  <linearGradient id="linearGradient5661">
   <stop id="stop5663" stop-color="#ffffff" stop-opacity="0"/>
   <stop offset="1" id="stop5665" stop-color="#ffffff"/>
  </linearGradient>
  <linearGradient id="linearGradient5633">
   <stop id="stop5635"/>
   <stop id="stop5643" offset="0.5" stop-color="#8a8a8a"/>
   <stop offset="1" id="stop5637"/>
  </linearGradient>
  <radialGradient inkscape:collect="always" xlink:href="#linearGradient5633" id="radialGradient5641" cx="64" cy="1011.03" r="56" gradientTransform="matrix(1.2142857,4.4551995e-8,-2.6207029e-8,0.71428508,-13.71426,286.19935)" gradientUnits="userSpaceOnUse"/>
  <linearGradient inkscape:collect="always" xlink:href="#linearGradient5661" id="linearGradient5669" y1="32" x2="0" y2="96" gradientUnits="userSpaceOnUse"/>
  <linearGradient inkscape:collect="always" xlink:href="#linearGradient5685" id="linearGradient5683" x1="4" y1="124" x2="124" y2="4" gradientUnits="userSpaceOnUse" gradientTransform="matrix(1.1155636,0,0,1.1155636,-7.3960692,916.96611)"/>
  <filter inkscape:collect="always" id="filter5715">
   <feGaussianBlur inkscape:collect="always" stdDeviation="3.12" id="feGaussianBlur5717"/>
  </filter>
  <linearGradient inkscape:collect="always" xlink:href="#linearGradient5685" id="linearGradient5757" y1="-24" x2="0" y2="100" gradientUnits="userSpaceOnUse" gradientTransform="matrix(1.1155636,0,0,1.1155636,-7.3960692,916.96611)"/>
  <filter inkscape:collect="always" id="filter4844" x="-0.157" width="1.315" y="-0.082" height="1.164">
   <feGaussianBlur inkscape:collect="always" stdDeviation="1.575" id="feGaussianBlur4846"/>
  </filter>
 </defs>
 <metadata id="metadata7"/>
 <g inkscape:label="Layer 1" inkscape:groupmode="layer" id="layer1" transform="translate(0,-924.36218)">
  <rect id="rect5693" width="112" height="96" x="8" y="948.36" rx="8" filter="url(#filter5715)"/>
  <rect rx="8" y="944.36" x="8" height="96" width="112" id="rect5631" fill="url(#radialGradient5641)"/>
  <rect id="rect5629" width="112" height="96" x="8" y="16" rx="8" transform="translate(0,924.36218)"/>
  <path d="m 16,16 c -4.432,0 -8,3.568 -8,8 l 0,60.90625 c 2.577978,1.139292 1.249033,2.206404 4,3.1875 L 12,32 c 0,-4.432 3.568,-8 8,-8 l 88,0 c 4.432,0 8,3.568 8,8 l 0,56.09375 c 2.75097,-0.981096 1.42202,-2.048208 4,-3.1875 L 120,24 c 0,-4.432 -3.568,-8 -8,-8 z" id="rect5645" transform="translate(0,924.36218)" inkscape:connector-curvature="0" sodipodi:nodetypes="ssccssssccsss" opacity="0.75" fill="url(#linearGradient5669)"/>
  <rect id="rect5675" width="102.63" height="84.78" x="12.684" y="945.97" rx="8.925" opacity="0.75" fill="none" stroke="url(#linearGradient5683)" stroke-linejoin="round" stroke-linecap="round" stroke-width="1.116"/>
  <g id="g4793" transform="translate(-14.28125,-113.98438)">
   <path id="path4695" transform="translate(0,924.36218)" d="m 35.875,135.59375 c -4.944178,0 -8.90625,3.99332 -8.90625,8.9375 l 0,66.90625 c 0,4.94418 3.962072,8.9375 8.90625,8.9375 l 84.78125,0 c 4.94418,0 8.9375,-3.99332 8.9375,-8.9375 l 0,-66.90625 c 0,-4.94418 -3.99332,-8.9375 -8.9375,-8.9375 l -84.78125,0 z" inkscape:connector-curvature="0" fill="#e7ddc4"/>
   <path id="path4691" transform="translate(0,924.36218)" d="m 35.875,135.59375 c -4.944178,0 -8.90625,3.99332 -8.90625,8.9375 l 0,66.90625 c 0,4.94418 3.962072,8.9375 8.90625,8.9375 l 3.28125,0 c -0.09227,-0.57986 0.12637,-1.52595 0.65625,-2.46875 0.477072,-0.8489 0.729952,-1.6899 0.5625,-1.875 -0.167452,-0.1851 -0.06759,-0.19605 0.21875,-0.0312 0.286343,0.1644 0.5,0.11755 0.5,-0.0937 0,-0.6407 1.765387,-0.3442 2.21875,0.375 0.243531,0.3863 0.290699,1.01735 0.09375,1.46875 -0.188479,0.432 -0.35522,0.90335 -0.375,1.03125 -0.01979,0.128 -0.541086,0.80015 -1.15625,1.53125 l 0,0.0312 c -0.01158,0.0138 -0.01981,0.0177 -0.03125,0.0312 l 78.8125,0 c 4.94418,0 8.9375,-3.99332 8.9375,-8.9375 l 0,-8.25 c -1.52431,-2.86546 -3.52946,-6.64133 -6.65625,-12.5625 -3.14515,-5.9559 -6.18058,-11.70045 -6.78125,-12.78125 -1.05901,-1.9054 -1.07488,-2.005 -0.3125,-2.5625 1.01992,-0.7458 0.50852,-1.68365 -0.59375,-1.09375 -1.07242,0.574 -1.54921,-0.26655 -0.6875,-1.21875 0.98468,-1.088 0.007,-2.35465 -1.53125,-1.96875 -0.97256,0.2441 -1.125,0.151 -1.125,-0.75 0,-0.5635 0.20469,-1.13735 0.4375,-1.28125 0.61578,-0.3806 0.0542,-1.03125 -0.875,-1.03125 -0.66362,0 -0.738,-0.2163 -0.53125,-1.25 0.19618,-0.981 0.084,-1.3069 -0.53125,-1.5 -1.65338,-0.519 -2.03887,-0.9126 -1.90625,-2 0.0948,-0.7776 -0.0366,-1.09375 -0.5,-1.09375 -0.39541,0 -0.65625,-0.35635 -0.65625,-0.90625 0,-1.1435 -1.5701,-2.8594 -2.34375,-2.5625 -0.31923,0.1225 -0.59375,0.0349 -0.59375,-0.21875 0,-0.2535 0.20842,-0.46875 0.4375,-0.46875 0.6609,0 0.47257,-1.5472 -0.21875,-1.8125 -0.34361,-0.1319 -0.622,-0.6649 -0.625,-1.1875 -0.0102,-1.7139 -0.48109,-2.74315 -1.34375,-2.96875 -0.57874,-0.1513 -0.77159,-0.44275 -0.59375,-0.90625 0.44216,-1.1522 -0.46934,-2.28125 -1.84375,-2.28125 -1.115675,0 -1.231957,-0.13435 -1.125,-1.15625 0.09583,-0.9155 -0.06292,-1.17485 -0.8125,-1.28125 -0.752534,-0.1069 -0.913463,-0.31795 -0.71875,-1.09375 0.287209,-1.1444 -0.327163,-1.63425 -2.09375,-1.65625 -1.051088,-0.0128 -1.25,-0.1866 -1.25,-1.0625 0,-0.8315 -0.189111,-1.0165 -0.9375,-0.9375 -0.735712,0.0779 -0.9375,-0.13275 -0.9375,-0.90625 0,-1.326 -0.923414,-2.0204 -2.25,-1.6875 -0.757382,0.1901 -1.09135,0.11505 -1.125,-0.28125 -0.02643,-0.3112 -0.09414,-0.8439 -0.125,-1.1875 C 88.808989,137.14395 88.455858,136.938 87.875,137 c -0.672432,0.0712 -0.9375,-0.1299 -0.9375,-0.6875 0,-0.25751 -0.100573,-0.49574 -0.21875,-0.71875 l -50.84375,0 z m 81.6875,41.09375 c -0.76099,0 -1.06051,0.8425 -0.59375,1.75 0.40853,0.7943 1.41097,0.99345 1.8125,0.34375 0.35509,-0.5745 -0.52733,-2.09375 -1.21875,-2.09375 z m 2.15625,3.34375 c -0.14782,0.002 -0.33189,0.0485 -0.53125,0.125 -0.36798,0.1413 -0.54882,0.4568 -0.40625,0.6875 0.33761,0.546 0.9354,0.52835 1.28125,-0.0312 0.28749,-0.46537 0.0997,-0.78648 -0.34375,-0.78125 z m 1.71875,2.90625 c -0.77105,0 -1.10097,1.18025 -0.5,1.78125 0.41541,0.4154 1.8125,0.34585 1.8125,-0.0937 0,-0.9493 -0.5899,-1.6875 -1.3125,-1.6875 z m 1.9375,2.90625 c -0.34362,0 -0.625,0.2814 -0.625,0.625 0,0.3436 0.28138,0.625 0.625,0.625 0.34361,0 0.625,-0.2814 0.625,-0.625 0,-0.3436 -0.28139,-0.625 -0.625,-0.625 z m 1.25,3.03125 c -0.42583,0.0833 -0.69555,0.687 -0.4375,1.5 0.30165,0.9505 1.875,1.24145 1.875,0.34375 0,-0.2998 -0.26556,-0.9303 -0.59375,-1.375 -0.28427,-0.38516 -0.58825,-0.51875 -0.84375,-0.46875 z m 1.65625,3.625 c -0.64408,0 -0.8128,0.49965 -0.34375,0.96875 0.33275,0.3327 0.96875,-0.0373 0.96875,-0.5625 0,-0.2156 -0.28139,-0.40625 -0.625,-0.40625 z m 1.53125,2.96875 c -0.19929,0.0174 -0.39058,0.0781 -0.5625,0.25 -0.29178,0.2918 -0.26768,0.72685 0.0625,1.34375 0.58329,1.0899 1.41034,0.9341 1.59375,-0.3125 0.11182,-0.76027 -0.49588,-1.33353 -1.09375,-1.28125 z m 1.5,3.5 c -0.26405,0.0322 -0.54816,0.23825 -0.65625,0.5625 -0.11678,0.3505 0.0657,0.49625 0.5,0.40625 0.16459,-0.0341 0.32118,-0.10487 0.4375,-0.1875 l 0,-0.75 c -0.0819,-0.0338 -0.18223,-0.0433 -0.28125,-0.0312 z m -78.1875,8.9375 c 0.242598,0 0.329076,0.2084 0.1875,0.4375 -0.141576,0.2291 -0.336482,0.40625 -0.4375,0.40625 -0.101017,0 -0.1875,-0.17715 -0.1875,-0.40625 0,-0.2291 0.194906,-0.4375 0.4375,-0.4375 z m -3.34375,6.25 c 0.242598,0 0.329076,0.17715 0.1875,0.40625 -0.141577,0.2291 -0.336482,0.4375 -0.4375,0.4375 -0.101017,0 -0.1875,-0.2084 -0.1875,-0.4375 0,-0.2291 0.194906,-0.40625 0.4375,-0.40625 z" inkscape:connector-curvature="0" fill="#cdeaa7"/>
   <path id="path4689" transform="translate(0,924.36218)" d="m 35.875,135.59375 c -4.944178,0 -8.90625,3.99332 -8.90625,8.9375 l 0,36.15625 c 2.557158,1.71541 4.238539,2.53455 7.21875,3.71875 4.362363,1.7333 5.023533,1.90985 5.4375,1.34375 0.25918,-0.3545 1.014792,-2.9504 1.6875,-5.75 0.70048,-2.9152 1.460559,-5.1894 1.78125,-5.3125 0.30798,-0.1182 3.151272,0.20305 6.3125,0.71875 7.096942,1.1578 7.323879,1.0921 9.78125,-3.25 1.609405,-2.8437 2.918788,-4.20625 3.46875,-3.65625 0.126665,0.1266 -0.04253,3.22755 -0.375,6.90625 -0.599287,6.6309 -0.638949,6.72175 -1.96875,8.09375 -1.011304,1.0434 -1.705538,2.528 -2.8125,6.0625 -0.807524,2.5784 -1.366836,4.9455 -1.25,5.25 0.11684,0.3045 0.731518,0.62175 1.375,0.71875 2.627302,0.3949 2.742185,0.3534 2.53125,-0.75 -0.153543,-0.8032 -0.02421,-1.03125 0.5625,-1.03125 0.992154,0 1.728874,-1.37075 1.40625,-2.65625 -0.210586,-0.839 -0.08542,-1.04235 0.71875,-1.15625 0.650167,-0.0921 0.96875,-0.41255 0.96875,-0.96875 0,-0.459 0.515134,-1.1581 1.15625,-1.5625 1.025233,-0.6465 1.146462,-0.907 0.90625,-2.1875 -0.239732,-1.2779 -0.192703,-1.46875 0.5625,-1.46875 0.47226,0 1.089998,-0.31785 1.34375,-0.71875 0.330396,-0.5219 0.499575,-0.59165 0.65625,-0.21875 0.390654,0.9296 2.123887,0.5722 3.03125,-0.625 0.791251,-1.044 0.914319,-1.07055 1.3125,-0.40625 0.240265,0.4009 0.690184,0.71875 1,0.71875 0.54264,0 1.46875,-2.0155 1.46875,-3.1875 0,-0.6107 -2.452204,-3.01125 -3.09375,-3.03125 -0.855092,-0.0269 -4.36496,-2.76155 -4.375,-3.40625 -0.01636,-1.0508 2.396781,-6.1875 2.90625,-6.1875 0.246272,0 1.325765,0.42375 2.40625,0.96875 2.634612,1.3288 11.308695,4.10895 12,3.84375 0.303148,-0.1164 2.153487,-2.63415 4.125,-5.59375 3.0061,-4.5126 3.581446,-5.60695 3.46875,-6.78125 -0.112892,-1.1763 -0.456793,-1.55615 -2.03125,-2.40625 -1.030834,-0.5567 -4.080032,-2.62765 -6.8125,-4.59375 -2.732469,-1.966 -6.39052,-4.42495 -8.125,-5.46875 l -3.15625,-1.875 -0.4375,-2.59375 c -0.395825,-2.44873 -0.547362,-2.703 -4.40625,-6.59375 l -31.84375,0 z m 48.65625,0 c 0.07639,0.19206 0.211234,0.39874 0.40625,0.59375 0.666198,0.6658 2,0.64885 2,-0.0312 0,-0.19315 -0.06077,-0.38181 -0.15625,-0.5625 l -2.25,0 z m 3.625,1.1875 c -0.493774,0.0142 -0.946907,0.6042 -0.625,1.125 0.153913,0.2491 0.454215,0.4375 0.65625,0.4375 0.64332,0 0.918106,-0.86305 0.4375,-1.34375 -0.143641,-0.14362 -0.304159,-0.22347 -0.46875,-0.21875 z m 2.625,2.0625 c -0.212347,0.004 -0.429352,0.0856 -0.59375,0.25 -0.390893,0.3909 -0.320528,0.67885 0.28125,1.34375 0.890862,0.9844 1.65625,0.9027 1.65625,-0.1875 0,-0.7878 -0.706709,-1.41962 -1.34375,-1.40625 z m 2.78125,2.53125 c -0.493775,0.0142 -0.946907,0.6042 -0.625,1.125 0.153913,0.2491 0.454215,0.4375 0.65625,0.4375 0.643319,0 0.949356,-0.8944 0.46875,-1.375 -0.143641,-0.14362 -0.335408,-0.19222 -0.5,-0.1875 z M 96,143.34375 c -0.632265,0 -0.8373,1.27385 -0.3125,1.90625 0.679705,0.8186 1.610245,0.75915 1.9375,-0.0937 0.248708,-0.6481 -0.793514,-1.8125 -1.625,-1.8125 z m 2.5625,3.03125 c -0.493774,0.0142 -0.946907,0.57287 -0.625,1.09375 0.153913,0.249 0.454215,0.46875 0.65625,0.46875 0.64332,0 0.949356,-0.8944 0.46875,-1.375 -0.143641,-0.14362 -0.335409,-0.19222 -0.5,-0.1875 z m 2.3125,2.40625 c -0.87354,0 -1.132662,0.70765 -0.625,1.65625 0.47665,0.8906 1.45311,1.1201 1.875,0.4375 0.35769,-0.5788 -0.5507,-2.09375 -1.25,-2.09375 z m 1.375,3.25 c -0.88696,-0.0208 -2.09767,0.51935 -3.625,1.625 -2.026457,1.4669 -2.414709,2.03615 -6.09375,9.46875 -3.102853,6.2686 -3.950845,8.42275 -4.15625,10.34375 -0.239695,2.2417 -0.205748,2.43895 0.625,2.65625 0.49428,0.1292 1.075421,0.67735 1.28125,1.21875 0.493034,1.2968 1.048388,1.24895 1.71875,-0.15625 0.364595,-0.7642 0.92532,-1.19325 1.6875,-1.28125 1.368856,-0.158 1.461923,-0.7432 0.28125,-2 -0.969609,-1.0321 -0.774561,-1.8125 0.46875,-1.8125 0.574093,0 0.8125,-0.2951 0.8125,-1 0,-0.6416 0.30675,-1.0471 0.84375,-1.1875 1.087357,-0.2844 1.498315,-1.47065 0.875,-2.46875 -0.436882,-0.6996 -0.330468,-0.8516 0.8125,-1.25 0.988251,-0.3445 1.253598,-0.6387 1.09375,-1.25 -0.15188,-0.5808 0.0771,-0.92725 0.84375,-1.21875 0.96224,-0.3658 1.02174,-0.52735 0.78125,-2.03125 -0.25236,-1.5786 -0.19913,-1.6875 0.84375,-1.6875 0.94096,0 1.04481,-0.14295 0.875,-1.03125 -0.17204,-0.9 -0.003,-1.05205 1.21875,-1.28125 1.65874,-0.3112 2.20463,-0.9657 1.25,-1.5 -0.37577,-0.2103 -0.6845,-0.77725 -0.6875,-1.28125 -0.0116,-1.87284 -0.60962,-2.84823 -1.75,-2.875 z m 3.34375,7.03125 c -0.1154,0.006 -0.21384,0.0325 -0.3125,0.0937 -0.48674,0.3021 -0.52018,0.60135 -0.125,1.46875 0.54541,1.197 1.64429,1.41465 2.03125,0.40625 0.30671,-0.79923 -0.78598,-2.01023 -1.59375,-1.96875 z m 2.375,3.03125 c -0.69584,0 -1.1387,0.6113 -0.75,1 0.49778,0.4978 1.375,0.2523 1.375,-0.375 0,-0.3436 -0.29491,-0.625 -0.625,-0.625 z m 1.625,2.96875 C 109.26219,165.0797 109,165.25115 109,165.59375 c 0,0.3432 0.3128,0.90655 0.6875,1.28125 0.79666,0.7967 1.5373,0.3037 1.3125,-0.875 -0.11334,-0.59437 -0.85365,-0.96625 -1.40625,-0.9375 z m 2.0625,2.875 c -0.31278,0.0407 -0.5625,0.221 -0.5625,0.53125 0,0.3054 0.0993,0.69295 0.25,0.84375 0.37665,0.3766 1.4397,-0.5413 1.15625,-1 -0.17745,-0.2871 -0.53097,-0.41574 -0.84375,-0.375 z m -6.34375,2.15625 c -0.52995,0.0844 -0.68818,0.81182 -0.1875,1.3125 0.43658,0.4366 1.15625,0.0639 1.15625,-0.59375 0,-0.3214 -0.31787,-0.64175 -0.71875,-0.71875 -0.0897,-0.0173 -0.17429,-0.0121 -0.25,0 z m 2.5,0 c -0.52994,0.0844 -0.68818,0.81182 -0.1875,1.3125 0.43658,0.4366 1.15625,0.0639 1.15625,-0.59375 0,-0.3214 -0.31787,-0.64175 -0.71875,-0.71875 -0.0897,-0.0173 -0.17429,-0.0121 -0.25,0 z m -4.625,0.34375 c -0.83314,0 -1.15207,0.7855 -0.5625,1.375 0.44641,0.4464 1.16384,0.079 1.3125,-0.6875 0.0908,-0.4682 -0.16775,-0.6875 -0.75,-0.6875 z m 7.1875,0 c -0.30543,0 -0.53125,0.3544 -0.53125,0.8125 0,0.9471 1.03504,1.1359 1.375,0.25 0.26138,-0.6812 -0.0604,-1.0625 -0.84375,-1.0625 z m 2.96875,0.46875 c -1.07233,0.2046 -1.31776,1.89585 -0.3125,2.15625 0.41428,0.1074 0.8875,0.19175 1.03125,0.21875 0.14376,0.0266 0.46551,-0.1948 0.71875,-0.5 0.63684,-0.7673 -0.3726,-2.0782 -1.4375,-1.875 z m -12.75,0.0625 c -0.14958,0.0196 -0.30613,0.0874 -0.4375,0.21875 -0.23497,0.235 -0.27891,0.626 -0.125,0.875 0.40826,0.6606 1.46875,0.54495 1.46875,-0.15625 0,-0.61103 -0.45751,-0.99626 -0.90625,-0.9375 z M 98.3125,171.875 c -0.06868,-0.003 -0.130172,-0.004 -0.1875,0.0312 -0.203118,0.1256 -0.375,0.51365 -0.375,0.84375 0,0.6122 0.879463,0.808 1.375,0.3125 0.329571,-0.32961 -0.331739,-1.16907 -0.8125,-1.1875 z m -2.125,1.15625 c -0.268646,-0.0396 -0.53125,0.18 -0.53125,0.6875 0,0.5116 0.269893,0.875 0.65625,0.875 0.38786,0 0.61096,-0.2766 0.53125,-0.6875 -0.101324,-0.52245 -0.387604,-0.83539 -0.65625,-0.875 z M 115.78125,174 c -0.49589,0.0211 -1.05052,0.53308 -0.78125,0.96875 0.15741,0.2547 0.45422,0.46875 0.65625,0.46875 0.57885,0 0.96314,-0.88065 0.5625,-1.28125 -0.12315,-0.12315 -0.2722,-0.16327 -0.4375,-0.15625 z m 1.78125,2.6875 c -0.76099,0 -1.06051,0.8425 -0.59375,1.75 0.40853,0.7943 1.41097,0.99345 1.8125,0.34375 0.35509,-0.5745 -0.52733,-2.09375 -1.21875,-2.09375 z m -28.46875,2.78125 c -0.295917,-0.0331 -0.676554,0.0853 -1.03125,0.40625 -0.861149,0.7793 -0.929708,1.64735 -0.1875,1.90625 0.815746,0.2845 1.488352,-0.10835 1.78125,-1.03125 0.232149,-0.73144 -0.0693,-1.22601 -0.5625,-1.28125 z m 30.625,0.5625 c -0.14782,0.002 -0.33189,0.0485 -0.53125,0.125 -0.36798,0.1413 -0.54882,0.4568 -0.40625,0.6875 0.33761,0.546 0.9354,0.52835 1.28125,-0.0312 0.28749,-0.46537 0.0997,-0.78648 -0.34375,-0.78125 z m -43.0625,1.3125 c -1.005828,-0.0449 -1.522509,0.68851 -0.875,1.46875 0.620962,0.7482 2.143547,0.48045 2.3125,-0.40625 0.09203,-0.4829 -0.215462,-0.77965 -0.96875,-0.96875 -0.160929,-0.0404 -0.32506,-0.0873 -0.46875,-0.0937 z M 86.5,182.5625 c -0.269106,0.0405 -0.40625,0.24082 -0.40625,0.5625 0,0.4002 0.27891,0.6415 0.65625,0.5625 0.904675,-0.1884 0.940412,-0.92475 0.0625,-1.09375 -0.113975,-0.022 -0.222798,-0.0448 -0.3125,-0.0312 z m -6.03125,0.375 c -0.627343,0 -0.872782,0.8772 -0.375,1.375 0.388693,0.3887 1,-0.0855 1,-0.78125 0,-0.3301 -0.281389,-0.59375 -0.625,-0.59375 z m 40.96875,0 c -0.77105,0 -1.10097,1.18025 -0.5,1.78125 0.41541,0.4154 1.8125,0.34585 1.8125,-0.0937 0,-0.9493 -0.5899,-1.6875 -1.3125,-1.6875 z m -38.375,0.75 c -0.730299,0.16541 -0.998898,1.30665 -0.25,1.78125 0.863906,0.5475 1.598782,0.43855 1.875,-0.28125 0.295801,-0.7708 -0.148278,-1.3076 -1.28125,-1.5 -0.1222,-0.0208 -0.239422,-0.0236 -0.34375,0 z m 40.3125,2.15625 c -0.34362,0 -0.625,0.2814 -0.625,0.625 0,0.3436 0.28138,0.625 0.625,0.625 0.34361,0 0.625,-0.2814 0.625,-0.625 0,-0.3436 -0.28139,-0.625 -0.625,-0.625 z m 1.25,3.03125 c -0.42583,0.0833 -0.69555,0.687 -0.4375,1.5 0.30165,0.9505 1.875,1.24145 1.875,0.34375 0,-0.2998 -0.26556,-0.9303 -0.59375,-1.375 -0.28427,-0.38516 -0.58825,-0.51875 -0.84375,-0.46875 z m 1.65625,3.625 c -0.64408,0 -0.8128,0.49965 -0.34375,0.96875 0.33275,0.3327 0.96875,-0.0373 0.96875,-0.5625 0,-0.2156 -0.28139,-0.40625 -0.625,-0.40625 z m 1.53125,2.96875 c -0.19929,0.0174 -0.39058,0.0781 -0.5625,0.25 -0.29178,0.2918 -0.26768,0.72685 0.0625,1.34375 0.58329,1.0899 1.41034,0.9341 1.59375,-0.3125 0.11182,-0.76027 -0.49588,-1.33353 -1.09375,-1.28125 z m -70.5625,1.25 c -0.644217,-0.0248 -1.360963,0.6552 -1.5,1.59375 -0.11163,0.7534 0.0277,0.89295 0.78125,0.78125 1.251424,-0.1853 2.012564,-1.39365 1.3125,-2.09375 -0.175016,-0.175 -0.379011,-0.27298 -0.59375,-0.28125 z m 72.0625,2.25 c -0.26405,0.0322 -0.54816,0.23825 -0.65625,0.5625 -0.11678,0.3505 0.0657,0.49625 0.5,0.40625 0.16459,-0.0341 0.32118,-0.10487 0.4375,-0.1875 l 0,-0.75 c -0.0819,-0.0338 -0.18223,-0.0433 -0.28125,-0.0312 z m -74.53125,0.71875 c -0.149581,0.0196 -0.306133,0.0874 -0.4375,0.21875 -0.234968,0.235 -0.278913,0.6259 -0.125,0.875 0.408256,0.6605 1.46875,0.5762 1.46875,-0.125 0,-0.61103 -0.457508,-1.02751 -0.90625,-0.96875 z m -1.625,2.84375 c -0.346258,-0.002 -0.579754,0.31469 -0.90625,1.03125 -0.388787,0.8533 -0.355006,1.1602 0.09375,1.4375 0.309817,0.192 0.795354,0.2395 1.09375,0.125 0.82478,-0.3165 1.188989,-1.8332 0.53125,-2.25 -0.333545,-0.21135 -0.604745,-0.34227 -0.8125,-0.34375 z m -1.6875,3.3125 c -0.201027,0 -0.375,0.3544 -0.375,0.8125 0,0.8004 0.836047,1.1326 1.40625,0.5625 0.315302,-0.3153 -0.485079,-1.375 -1.03125,-1.375 z m -1.15625,3.1875 c -0.839954,-0.0342 -1.833152,1.35987 -1.25,2.0625 0.69619,0.8389 1.170779,0.7027 1.71875,-0.5 0.395037,-0.867 0.361553,-1.15775 -0.125,-1.46875 -0.108594,-0.0694 -0.223757,-0.0889 -0.34375,-0.0937 z m -1.90625,3.25 c -0.400091,0.0128 -0.625,0.3187 -0.625,0.90625 0,0.3054 0.354351,0.5625 0.8125,0.5625 0.947051,0 1.135918,-1.06625 0.25,-1.40625 -0.17029,-0.0653 -0.304136,-0.0668 -0.4375,-0.0625 z m -1.46875,3.125 c -0.933531,0 -1.465717,0.9057 -1.09375,1.875 0.289533,0.7546 0.766771,0.7957 1.4375,0.125 0.811235,-0.8113 0.607996,-2 -0.34375,-2 z M 45.28125,218.75 c -0.829765,0 -1.090532,0.44075 -0.5625,0.96875 0.507267,0.5073 1.375,0.29035 1.375,-0.34375 0,-0.347 -0.349724,-0.625 -0.8125,-0.625 z" inkscape:connector-curvature="0" fill="#ccce94"/>
   <path id="path4687" transform="translate(0,924.36218)" d="m 35.875,135.59375 c -4.944178,0 -8.90625,3.99332 -8.90625,8.9375 l 0,36.15625 c 2.557158,1.71543 4.238539,2.53462 7.21875,3.71875 4.362363,1.7334 5.023533,1.90995 5.4375,1.34375 0.25918,-0.3544 1.014792,-2.9504 1.6875,-5.75 0.70048,-2.9152 1.460559,-5.1895 1.78125,-5.3125 0.30798,-0.1182 3.151272,0.2342 6.3125,0.75 7.096942,1.1577 7.323879,1.06085 9.78125,-3.28125 1.609405,-2.8437 2.918788,-4.20615 3.46875,-3.65625 0.126665,0.1267 -0.04253,3.22765 -0.375,6.90625 -0.599287,6.631 -0.638949,6.72175 -1.96875,8.09375 -1.011304,1.0434 -1.705538,2.528 -2.8125,6.0625 -0.807524,2.5784 -1.341929,4.96025 -1.21875,5.28125 0.131705,0.3432 0.786596,0.5625 1.625,0.5625 1.162939,0 1.480004,-0.1733 1.6875,-1 0.139901,-0.5574 0.636668,-1.13625 1.09375,-1.28125 0.457083,-0.1451 0.933786,-0.7603 1.0625,-1.375 0.128711,-0.6147 0.40902,-1.4064 0.625,-1.75 0.215975,-0.3436 0.563688,-1.02975 0.78125,-1.53125 0.217562,-0.5015 0.78089,-1.1239 1.25,-1.375 0.47565,-0.2546 0.84375,-0.87815 0.84375,-1.40625 0,-0.9959 0.478993,-1.66455 1.96875,-2.90625 0.727286,-0.6061 1.072535,-0.66055 1.78125,-0.28125 0.71883,0.3847 1.073786,0.29775 1.96875,-0.40625 0.671192,-0.5282 1.386184,-0.74885 1.875,-0.59375 0.965581,0.3065 2.40625,-0.86895 2.40625,-1.96875 0,-0.7647 -2.342948,-3.226 -3.09375,-3.25 -0.855092,-0.027 -4.36496,-2.76155 -4.375,-3.40625 -0.01636,-1.0508 2.396781,-6.1875 2.90625,-6.1875 0.246272,0 1.325765,0.42385 2.40625,0.96875 2.634612,1.3288 11.308695,4.10905 12,3.84375 0.303148,-0.1163 2.153487,-2.63425 4.125,-5.59375 3.0061,-4.5127 3.581446,-5.60685 3.46875,-6.78125 -0.112892,-1.1763 -0.456793,-1.55605 -2.03125,-2.40625 -1.030834,-0.5566 -4.080032,-2.62765 -6.8125,-4.59375 -2.732469,-1.9661 -6.39052,-4.42485 -8.125,-5.46875 l -3.15625,-1.875 -0.4375,-2.59375 c -0.395825,-2.44883 -0.547362,-2.70292 -4.40625,-6.59375 l -31.84375,0 z m 55.1875,4 c -0.242597,0 -0.329077,0.2084 -0.1875,0.4375 0.141576,0.229 0.336482,0.40625 0.4375,0.40625 0.101018,0 0.1875,-0.17725 0.1875,-0.40625 0,-0.2291 -0.194906,-0.4375 -0.4375,-0.4375 z m 5.15625,4.75 c -0.07549,0.0333 -0.125,0.1287 -0.125,0.25 0,0.2426 0.177176,0.4375 0.40625,0.4375 0.229074,0 0.40625,-0.0865 0.40625,-0.1875 0,-0.101 -0.177176,-0.2959 -0.40625,-0.4375 -0.114537,-0.0708 -0.20576,-0.0958 -0.28125,-0.0625 z m 4.5625,5.40625 c -0.0755,0.0333 -0.125,0.1287 -0.125,0.25 0,0.2426 0.20842,0.4375 0.4375,0.4375 0.22907,0 0.40625,-0.0865 0.40625,-0.1875 0,-0.101 -0.17718,-0.2959 -0.40625,-0.4375 -0.11454,-0.0708 -0.23701,-0.0958 -0.3125,-0.0625 z m 0.5,2.625 c -0.50112,0.0323 -1.05858,0.20741 -1.625,0.5625 -2.597215,1.6282 -3.678387,3.14705 -7.15625,10.09375 -3.462533,6.916 -4.784879,10.99915 -4.125,12.71875 0.174776,0.4559 0.662881,0.57295 1.90625,0.40625 2.106171,-0.2825 2.875,-0.9323 2.875,-2.375 0,-0.6237 0.385602,-1.49165 0.84375,-1.90625 0.458149,-0.4146 0.84375,-0.9683 0.84375,-1.25 0,-0.2818 0.455957,-0.8105 1.03125,-1.1875 0.778087,-0.5098 0.988487,-0.95505 0.8125,-1.65625 -0.160452,-0.6393 0.04406,-1.19305 0.625,-1.71875 0.471122,-0.4264 0.84375,-1.0097 0.84375,-1.3125 0,-0.3028 0.489815,-0.84345 1.0625,-1.21875 0.767657,-0.5029 1.03125,-1.06515 1.03125,-2.09375 0,-0.9689 0.26525,-1.53415 0.84375,-1.84375 0.45815,-0.2452 0.8125,-0.7742 0.8125,-1.1875 0,-0.4133 0.48299,-0.986 1.0625,-1.25 1.01661,-0.4632 1.02099,-0.4987 0.40625,-1.6875 -0.35043,-0.6777 -0.625,-1.58845 -0.625,-2.03125 0,-0.74019 -0.63355,-1.11629 -1.46875,-1.0625 z m 4.625,7.375 c -0.14935,0.007 -0.25,0.1696 -0.25,0.4375 0,0.3571 0.20843,0.65625 0.4375,0.65625 0.22908,0 0.40625,-0.1595 0.40625,-0.375 0,-0.2156 -0.17717,-0.51475 -0.40625,-0.65625 -0.0573,-0.0354 -0.13772,-0.0647 -0.1875,-0.0625 z m 7.65625,11.9375 c -0.24257,0 -0.32908,0.17715 -0.1875,0.40625 0.14157,0.229 0.33648,0.40625 0.4375,0.40625 0.10097,0 0.1875,-0.17725 0.1875,-0.40625 0,-0.2291 -0.19491,-0.40625 -0.4375,-0.40625 z M 88.59375,180 c -0.229074,0 -0.40625,0.2814 -0.40625,0.625 0,0.3436 0.177176,0.625 0.40625,0.625 C 88.822824,181.25 89,180.9686 89,180.625 89,180.2814 88.822824,180 88.59375,180 z M 76.75,181.8125 c -0.333703,-8.7e-4 -0.650877,0.37353 -0.4375,0.71875 0.131792,0.2133 0.409445,0.40625 0.625,0.40625 0.447773,0 0.521003,-0.57275 0.125,-0.96875 -0.09615,-0.0961 -0.201266,-0.15596 -0.3125,-0.15625 z m 6.625,2.375 c -0.343611,0 -0.625,0.17725 -0.625,0.40625 0,0.2291 0.281389,0.40625 0.625,0.40625 0.343611,0 0.625,-0.17715 0.625,-0.40625 0,-0.229 -0.281389,-0.40625 -0.625,-0.40625 z M 56.96875,197.5 c -0.215555,0 -0.514673,0.17715 -0.65625,0.40625 -0.141576,0.2291 0.01787,0.4375 0.375,0.4375 0.357131,0 0.65625,-0.2084 0.65625,-0.4375 0,-0.2291 -0.159445,-0.40625 -0.375,-0.40625 z m -3.78125,5.84375 c -0.229075,0 -0.40625,0.2678 -0.40625,0.625 0,0.3569 0.177175,0.54785 0.40625,0.40625 0.229074,-0.1415 0.40625,-0.44075 0.40625,-0.65625 0,-0.2156 -0.177176,-0.375 -0.40625,-0.375 z M 50.03125,209.75 c -0.04978,-0.002 -0.130232,-0.004 -0.1875,0.0312 -0.229075,0.1416 -0.40625,0.44075 -0.40625,0.65625 0,0.2156 0.177175,0.40625 0.40625,0.40625 0.229074,0 0.4375,-0.29915 0.4375,-0.65625 0,-0.26767 -0.100646,-0.43084 -0.25,-0.4375 z m -3.40625,6.46875 c -0.166079,-0.0172 -0.37712,0.19385 -0.46875,0.46875 -0.09163,0.2752 0.06886,0.4045 0.34375,0.3125 0.536926,-0.179 0.623007,-0.72925 0.125,-0.78125 z" inkscape:connector-curvature="0" fill="#abd38e"/>
   <path id="path4685" transform="translate(0,924.36218)" d="m 35.875,135.59375 c -4.944178,0 -8.90625,3.99332 -8.90625,8.9375 l 0,35.34375 c 0.110838,0.0776 0.271035,0.20923 0.375,0.28125 2.527416,1.7508 11.260264,5.46815 11.6875,4.96875 0.146594,-0.1714 0.798044,-2.38645 1.4375,-4.90625 1.59582,-6.2884 1.674293,-6.46875 2.9375,-6.46875 0.589108,0 3.244678,0.3984 5.90625,0.875 6.720106,1.2031 7.01064,1.1063 9.25,-2.9375 1.312458,-2.3701 2.157382,-3.41925 3.03125,-3.78125 C 63.660775,167.05005 63.748952,167.543 63,175.5 l -0.6875,7.21875 -1.40625,1.4375 c -1.071697,1.114 -1.722843,2.4936 -2.71875,5.75 -0.719301,2.352 -1.170369,4.4624 -1.03125,4.6875 0.139119,0.2251 0.660096,0.40625 1.1875,0.40625 0.79826,0 0.94695,-0.16445 0.78125,-1.03125 -0.177878,-0.9305 -0.06625,-1.03125 1.09375,-1.03125 1.193969,0 1.518588,-0.3679 1.3125,-1.4375 -0.170048,-0.8825 0.449206,-2.3125 1,-2.3125 0.384183,0 0.58222,-0.3923 0.53125,-1.125 -0.06549,-0.9415 0.06783,-1.14125 0.9375,-1.15625 0.850974,-0.0148 1.03636,-0.2115 0.96875,-1.0625 -0.148269,-1.8663 0.252165,-2.90625 1.125,-2.90625 0.455724,0 0.84375,-0.2799 0.84375,-0.625 0,-0.3436 0.351149,-0.625 0.78125,-0.625 0.430097,0 0.996078,0.2814 1.28125,0.625 0.736882,0.8879 1.205886,0.7567 1.75,-0.4375 0.497349,-1.0916 1.915653,-1.39685 2.71875,-0.59375 0.312374,0.3123 0.501425,0.0553 0.6875,-0.875 0.33314,-1.6657 -0.886847,-3.51425 -2.53125,-3.84375 -1.662517,-0.3331 -4.6875,-2.65715 -4.6875,-3.59375 0,-1.1842 2.328363,-6.44325 3.0625,-6.90625 0.455529,-0.2874 1.205785,-0.10255 2.625,0.59375 2.079857,1.0205 11.192209,4.1875 12.03125,4.1875 0.264985,0 2.02421,-2.31505 3.90625,-5.15625 4.091604,-6.1769 4.208474,-6.97535 1.25,-8.59375 -1.046923,-0.5727 -3.86081,-2.47175 -6.25,-4.21875 -2.389195,-1.747 -6.032082,-4.1903 -8.09375,-5.4375 l -3.75,-2.25 -0.25,-2.4375 -0.28125,-2.40625 -4.71875,-4.71875 -0.03125,-0.0312 -30.5625,0 z m 55.1875,4 c -0.242597,0 -0.329077,0.2084 -0.1875,0.4375 0.141576,0.229 0.336482,0.40625 0.4375,0.40625 0.101018,0 0.1875,-0.17725 0.1875,-0.40625 0,-0.2291 -0.194906,-0.4375 -0.4375,-0.4375 z m 5.15625,4.75 c -0.07549,0.0333 -0.125,0.1287 -0.125,0.25 0,0.2426 0.177176,0.4375 0.40625,0.4375 0.229074,0 0.40625,-0.0865 0.40625,-0.1875 0,-0.101 -0.177176,-0.2959 -0.40625,-0.4375 -0.114537,-0.0708 -0.20576,-0.0958 -0.28125,-0.0625 z m 4.5625,5.40625 c -0.0755,0.0333 -0.125,0.1287 -0.125,0.25 0,0.2426 0.20842,0.4375 0.4375,0.4375 0.22907,0 0.40625,-0.0865 0.40625,-0.1875 0,-0.101 -0.17718,-0.2959 -0.40625,-0.4375 -0.11454,-0.0708 -0.23701,-0.0958 -0.3125,-0.0625 z m 1.28125,3.1875 c -0.62084,-0.0878 -1.83325,0.45869 -3.25,1.5625 -1.770765,1.3795 -2.431542,2.40925 -5.65625,8.90625 -3.410324,6.8709 -4.720647,10.7715 -4,11.9375 0.333953,0.5403 3.083314,0.3542 3.6875,-0.25 0.412529,-0.4126 0.414225,-0.68045 0,-1.34375 -0.625535,-1.0017 0.07199,-2.68785 0.96875,-2.34375 0.397488,0.1525 0.5217,-0.11575 0.46875,-0.90625 -0.06146,-0.9177 0.07897,-1.10625 0.8125,-1.03125 1.303887,0.1338 2.000522,-0.8233 1.34375,-1.875 -0.417934,-0.6692 -0.40846,-0.9702 0.03125,-1.5 0.300608,-0.3623 0.79233,-0.65625 1.09375,-0.65625 0.339201,0 0.51728,-0.44735 0.46875,-1.15625 -0.06526,-0.9533 0.09453,-1.13445 0.84375,-1.03125 1.20144,0.1656 1.58577,-0.6011 0.9375,-1.8125 -0.426927,-0.7981 -0.428665,-1.1085 0,-1.625 0.29165,-0.3515 0.80507,-0.625 1.125,-0.625 0.41245,0 0.49782,-0.29295 0.3125,-1.03125 -0.23596,-0.9402 -0.14676,-1.0625 1,-1.0625 1.66094,0 1.98708,-0.5889 0.875,-1.625 -0.57857,-0.5391 -0.83186,-1.1355 -0.6875,-1.6875 0.13721,-0.52474 -0.002,-0.79108 -0.375,-0.84375 z m 3.84375,6.8125 c -0.14935,0.007 -0.25,0.1696 -0.25,0.4375 0,0.3571 0.20843,0.65625 0.4375,0.65625 0.22908,0 0.40625,-0.1595 0.40625,-0.375 0,-0.2156 -0.17717,-0.51475 -0.40625,-0.65625 -0.0573,-0.0354 -0.13772,-0.0647 -0.1875,-0.0625 z m 7.65625,11.9375 c -0.24257,0 -0.32908,0.17715 -0.1875,0.40625 0.14157,0.229 0.33648,0.40625 0.4375,0.40625 0.10097,0 0.1875,-0.17725 0.1875,-0.40625 0,-0.2291 -0.19491,-0.40625 -0.4375,-0.40625 z M 88.59375,180 c -0.229074,0 -0.40625,0.2814 -0.40625,0.625 0,0.3436 0.177176,0.625 0.40625,0.625 C 88.822824,181.25 89,180.9686 89,180.625 89,180.2814 88.822824,180 88.59375,180 z M 76.75,181.8125 c -0.333703,-8.7e-4 -0.650877,0.37353 -0.4375,0.71875 0.131792,0.2133 0.409445,0.40625 0.625,0.40625 0.447773,0 0.521003,-0.57275 0.125,-0.96875 -0.09615,-0.0961 -0.201266,-0.15596 -0.3125,-0.15625 z m 6.625,2.375 c -0.343611,0 -0.625,0.17725 -0.625,0.40625 0,0.2291 0.281389,0.40625 0.625,0.40625 0.343611,0 0.625,-0.17715 0.625,-0.40625 0,-0.229 -0.281389,-0.40625 -0.625,-0.40625 z M 56.96875,197.5 c -0.215555,0 -0.514673,0.17715 -0.65625,0.40625 -0.141576,0.2291 0.01787,0.4375 0.375,0.4375 0.357131,0 0.65625,-0.2084 0.65625,-0.4375 0,-0.2291 -0.159445,-0.40625 -0.375,-0.40625 z m -3.78125,5.84375 c -0.229075,0 -0.40625,0.2678 -0.40625,0.625 0,0.3569 0.177175,0.54785 0.40625,0.40625 0.229074,-0.1415 0.40625,-0.44075 0.40625,-0.65625 0,-0.2156 -0.177176,-0.375 -0.40625,-0.375 z M 50.03125,209.75 c -0.04978,-0.002 -0.130232,-0.004 -0.1875,0.0312 -0.229075,0.1416 -0.40625,0.44075 -0.40625,0.65625 0,0.2156 0.177175,0.40625 0.40625,0.40625 0.229074,0 0.4375,-0.29915 0.4375,-0.65625 0,-0.26767 -0.100646,-0.43084 -0.25,-0.4375 z m -3.40625,6.46875 c -0.166079,-0.0172 -0.37712,0.19385 -0.46875,0.46875 -0.09163,0.2752 0.06886,0.4045 0.34375,0.3125 0.536926,-0.179 0.623007,-0.72925 0.125,-0.78125 z" inkscape:connector-curvature="0" fill="#9ecd83"/>
   <path id="path4683" transform="translate(0,924.36218)" d="m 37.125,135.59375 c -0.851609,0.55145 -1.002797,2.59972 -0.03125,3.25 0.600019,0.4016 1.410413,-0.0231 1.625,-0.84375 0.224239,-0.85751 -0.189525,-2.00392 -0.75,-2.40625 l -0.84375,0 z m 11.65625,0 c -0.85161,0.55145 -1.002794,2.59972 -0.03125,3.25 0.600021,0.4016 1.410412,-0.0231 1.625,-0.84375 0.224238,-0.85751 -0.189525,-2.00392 -0.75,-2.40625 l -0.84375,0 z m 11.65625,0 c -0.851609,0.55145 -1.002795,2.59972 -0.03125,3.25 0.600021,0.4016 1.410412,-0.0231 1.625,-0.84375 0.222911,-0.85244 -0.163465,-1.99751 -0.71875,-2.40625 l -0.875,0 z m 30.625,4.03125 c -0.242597,0 -0.329077,0.17725 -0.1875,0.40625 0.141576,0.2291 0.336482,0.40625 0.4375,0.40625 0.101018,0 0.1875,-0.17715 0.1875,-0.40625 0,-0.229 -0.194906,-0.40625 -0.4375,-0.40625 z m 5.15625,4.71875 c -0.07549,0.0333 -0.125,0.1287 -0.125,0.25 0,0.2426 0.177176,0.4375 0.40625,0.4375 0.229074,0 0.40625,-0.0864 0.40625,-0.1875 0,-0.101 -0.177176,-0.296 -0.40625,-0.4375 -0.114537,-0.0708 -0.20576,-0.0958 -0.28125,-0.0625 z m -58.65625,4.4375 c -1.233094,0 -1.594369,2.6215 -0.46875,3.375 0.600019,0.4016 1.410413,0.008 1.625,-0.8125 0.275987,-1.0554 -0.407472,-2.5625 -1.15625,-2.5625 z m 11.65625,0 c -1.233095,0 -1.594366,2.6215 -0.46875,3.375 0.600021,0.4016 1.410412,0.008 1.625,-0.8125 0.275985,-1.0554 -0.407473,-2.5625 -1.15625,-2.5625 z m 11.6875,0 c -1.233094,0 -1.625617,2.6215 -0.5,3.375 0.600021,0.4016 1.410412,0.008 1.625,-0.8125 0.275985,-1.0554 -0.376222,-2.5625 -1.125,-2.5625 z m 11.65625,0 c -1.233094,0 -1.625617,2.6215 -0.5,3.375 0.600021,0.4016 1.410412,0.008 1.625,-0.8125 0.275985,-1.0554 -0.376223,-2.5625 -1.125,-2.5625 z m 28.21875,0.96875 c -0.0755,0.0333 -0.125,0.1287 -0.125,0.25 0,0.2426 0.20842,0.4375 0.4375,0.4375 0.22907,0 0.40625,-0.0865 0.40625,-0.1875 0,-0.101 -0.17718,-0.2959 -0.40625,-0.4375 -0.11454,-0.0708 -0.23701,-0.0958 -0.3125,-0.0625 z m -73.8125,0.21875 0,1.59375 c 0.03124,-0.0714 0.07301,-0.13944 0.09375,-0.21875 0.111513,-0.42644 0.04709,-0.93101 -0.09375,-1.375 z m 75.5625,5.4375 c -0.1144,0.023 -0.1875,0.10495 -0.1875,0.21875 0,0.0958 -0.11095,0.4501 -0.25,0.8125 -0.177,0.4612 -0.0345,0.65625 0.53125,0.65625 1.02547,0 1.37814,-0.3214 1.09375,-1.0625 -0.14779,-0.38512 -0.8443,-0.69411 -1.1875,-0.625 z m 3.375,4.34375 c -0.14935,0.007 -0.25,0.16968 -0.25,0.4375 0,0.3572 0.20843,0.65625 0.4375,0.65625 0.22908,0 0.40625,-0.1594 0.40625,-0.375 0,-0.2155 -0.17717,-0.51465 -0.40625,-0.65625 -0.0573,-0.0354 -0.13772,-0.0647 -0.1875,-0.0625 z M 99.75,161.40625 c -0.129592,-0.0205 -0.280774,0.0734 -0.53125,0.28125 -0.3409,0.283 -0.625,0.77815 -0.625,1.09375 0,0.6719 1.076156,0.7602 1.46875,0.125 0.1484,-0.24 0.13754,-0.73535 0,-1.09375 -0.101061,-0.2634 -0.182908,-0.38579 -0.3125,-0.40625 z m -62.1875,0.6875 c -1.233094,0 -1.594369,2.65285 -0.46875,3.40625 0.600019,0.4017 1.410413,-0.0231 1.625,-0.84375 0.275987,-1.0553 -0.407472,-2.5625 -1.15625,-2.5625 z m 11.65625,0 c -1.233095,0 -1.594366,2.65285 -0.46875,3.40625 0.600021,0.4017 1.410412,-0.0231 1.625,-0.84375 0.275985,-1.0553 -0.407473,-2.5625 -1.15625,-2.5625 z m 11.6875,0 c -1.233094,0 -1.625617,2.65285 -0.5,3.40625 0.600021,0.4017 1.410412,-0.0231 1.625,-0.84375 0.275985,-1.0553 -0.376222,-2.5625 -1.125,-2.5625 z m 11.65625,0 c -1.233094,0 -1.625617,2.65285 -0.5,3.40625 0.600021,0.4017 1.410412,-0.0231 1.625,-0.84375 0.275985,-1.0553 -0.376223,-2.5625 -1.125,-2.5625 z m 11.65625,0 c -1.233094,0 -1.625617,2.65285 -0.5,3.40625 0.60002,0.4017 1.441662,-0.0231 1.65625,-0.84375 0.275985,-1.0553 -0.407473,-2.5625 -1.15625,-2.5625 z m 11.53125,0.0625 c -0.19662,0.0183 -0.386888,0.10565 -0.5625,0.28125 -0.624502,0.6245 -0.571186,2.62025 0.09375,3.03125 0.309105,0.1906 0.795949,0.1587 1.0625,-0.0625 0.264993,-0.2198 0.783604,-0.29925 1.15625,-0.15625 0.374261,0.1436 0.65625,0.0672 0.65625,-0.1875 0,-0.2536 -0.281389,-0.46875 -0.625,-0.46875 -0.390797,0 -0.625,-0.403 -0.625,-1.0625 0,-0.86303 -0.566391,-1.42996 -1.15625,-1.375 z m -68.78125,1.125 0,1.59375 c 0.03124,-0.0714 0.07301,-0.13944 0.09375,-0.21875 0.112119,-0.42872 0.04892,-0.92922 -0.09375,-1.375 z M 96,167.6875 c -0.623067,0.11622 -1.30378,0.92665 -0.96875,1.46875 0.389735,0.6306 0.871716,0.5696 1.5,-0.1875 0.405711,-0.4888 0.400409,-0.7558 0.03125,-1.125 C 96.413515,167.69477 96.207689,167.64876 96,167.6875 z m 17.5625,4 c -0.24257,0 -0.32908,0.17715 -0.1875,0.40625 0.14157,0.2291 0.33648,0.40625 0.4375,0.40625 0.10097,0 0.1875,-0.17715 0.1875,-0.40625 0,-0.2291 -0.19491,-0.40625 -0.4375,-0.40625 z m -20.96875,2.09375 c -0.513485,0.0269 -1.09375,0.58572 -1.09375,1.25 0,0.4911 0.22634,0.80975 0.5,0.71875 0.677277,-0.2258 1.403617,-1.4714 1.0625,-1.8125 -0.130312,-0.13033 -0.297588,-0.16521 -0.46875,-0.15625 z M 37.5625,175.4375 c -1.233094,0 -1.594369,2.6216 -0.46875,3.375 0.600019,0.4017 1.410413,0.008 1.625,-0.8125 0.275987,-1.0553 -0.407472,-2.5625 -1.15625,-2.5625 z m -10.59375,1.1875 0,1.5625 c 0.02386,-0.0523 0.0469,-0.0966 0.0625,-0.15625 0.114107,-0.43634 0.07606,-0.9579 -0.0625,-1.40625 z m 45.09375,0.46875 c -0.693063,0 -0.721488,1.54055 -0.03125,1.78125 0.617401,0.2154 1.5625,-0.091 1.5625,-0.5 0,-0.4816 -0.95517,-1.28125 -1.53125,-1.28125 z M 88.59375,180 c -0.229074,0 -0.40625,0.2814 -0.40625,0.625 0,0.3436 0.177176,0.625 0.40625,0.625 C 88.822824,181.25 89,180.9686 89,180.625 89,180.2814 88.822824,180 88.59375,180 z M 70.125,181.25 c -0.773742,0 -1.241202,0.68875 -0.875,1.28125 0.37674,0.6096 1.181515,0.24275 1.34375,-0.59375 0.07791,-0.4017 -0.103835,-0.6875 -0.46875,-0.6875 z m 6.46875,0.59375 c -0.261377,0.0922 -0.459064,0.39981 -0.28125,0.6875 0.131792,0.2133 0.409445,0.40625 0.625,0.40625 0.447773,0 0.521003,-0.57275 0.125,-0.96875 -0.144225,-0.14423 -0.311924,-0.18032 -0.46875,-0.125 z m -9.84375,0.25 c -0.101017,0 -0.295924,0.17725 -0.4375,0.40625 -0.141576,0.2291 -0.05509,0.4375 0.1875,0.4375 0.242594,0 0.4375,-0.2084 0.4375,-0.4375 0,-0.229 -0.08648,-0.40625 -0.1875,-0.40625 z m 16.625,2.09375 c -0.343611,0 -0.625,0.17725 -0.625,0.40625 0,0.2291 0.281389,0.40625 0.625,0.40625 0.343611,0 0.625,-0.17715 0.625,-0.40625 0,-0.229 -0.281389,-0.40625 -0.625,-0.40625 z M 64.75,185.25 c -0.536042,-0.10993 -1.310285,0.8536 -0.96875,1.40625 0.147778,0.2391 0.464757,0.4375 0.6875,0.4375 0.603503,0 0.967107,-1.25165 0.5,-1.71875 -0.06323,-0.0632 -0.142173,-0.1093 -0.21875,-0.125 z m -3.90625,3.5 c -0.77303,0 -1.286235,1.44435 -1.0625,2.96875 0.120122,0.8185 0.396314,1.1875 0.90625,1.1875 0.931726,0 1.104749,-0.4185 0.90625,-2.5 -0.102055,-1.0701 -0.362202,-1.65625 -0.75,-1.65625 z m -3.875,8.75 c -0.215555,0 -0.514673,0.17715 -0.65625,0.40625 -0.141576,0.2291 0.01787,0.4375 0.375,0.4375 0.357131,0 0.65625,-0.2084 0.65625,-0.4375 0,-0.2291 -0.159445,-0.40625 -0.375,-0.40625 z m -3.78125,5.84375 c -0.229075,0 -0.40625,0.2678 -0.40625,0.625 0,0.3569 0.177175,0.54785 0.40625,0.40625 0.229074,-0.1415 0.40625,-0.44075 0.40625,-0.65625 0,-0.2156 -0.177176,-0.375 -0.40625,-0.375 z M 50.03125,209.75 c -0.04978,-0.002 -0.130232,-0.004 -0.1875,0.0312 -0.229075,0.1416 -0.40625,0.44075 -0.40625,0.65625 0,0.2156 0.177175,0.40625 0.40625,0.40625 0.229074,0 0.4375,-0.29915 0.4375,-0.65625 0,-0.26767 -0.100646,-0.43084 -0.25,-0.4375 z m -3.40625,6.46875 c -0.166079,-0.0172 -0.37712,0.19385 -0.46875,0.46875 -0.09163,0.2752 0.06886,0.4045 0.34375,0.3125 0.536926,-0.179 0.623007,-0.72925 0.125,-0.78125 z" inkscape:connector-curvature="0" fill="#9bc278"/>
   <path id="path4681" transform="translate(0,924.36218)" d="m 37.5625,135.84375 c -0.827683,0 -1.137841,0.73445 -0.84375,1.90625 0.140467,0.5596 0.508867,1.03125 0.84375,1.03125 0.670451,0 1.275168,-1.77065 0.84375,-2.46875 -0.149622,-0.2421 -0.527178,-0.46875 -0.84375,-0.46875 z m 11.65625,0 c -0.827683,0 -1.137839,0.73445 -0.84375,1.90625 0.140469,0.5596 0.508868,1.03125 0.84375,1.03125 0.67045,0 1.275168,-1.77065 0.84375,-2.46875 -0.149623,-0.2421 -0.527178,-0.46875 -0.84375,-0.46875 z m 11.6875,0 c -0.827682,0 -1.169089,0.73445 -0.875,1.90625 0.140469,0.5596 0.540119,1.03125 0.875,1.03125 0.670451,0 1.275168,-1.77065 0.84375,-2.46875 -0.149623,-0.2421 -0.527177,-0.46875 -0.84375,-0.46875 z M 37.5625,149.1875 c -0.336168,0 -0.668458,0.15385 -0.84375,0.4375 -0.149617,0.2421 -0.140467,0.90905 0,1.46875 0.140467,0.5597 0.508867,1 0.84375,1 0.670451,0 1.27517,-1.77075 0.84375,-2.46875 -0.175292,-0.28365 -0.507582,-0.4375 -0.84375,-0.4375 z m 11.65625,0 c -0.336169,0 -0.668458,0.15385 -0.84375,0.4375 -0.149635,0.2421 -0.140468,0.90905 0,1.46875 0.140469,0.5597 0.508868,1 0.84375,1 0.67045,0 1.275151,-1.77075 0.84375,-2.46875 -0.175292,-0.28365 -0.507581,-0.4375 -0.84375,-0.4375 z m 11.6875,0 c -0.827682,0 -1.169089,0.73455 -0.875,1.90625 0.140469,0.5597 0.540119,1 0.875,1 0.670451,0 1.275168,-1.77075 0.84375,-2.46875 -0.149623,-0.2421 -0.527177,-0.4375 -0.84375,-0.4375 z m 11.65625,0 c -0.827682,0 -1.169089,0.73455 -0.875,1.90625 0.140469,0.5597 0.540119,1 0.875,1 0.670451,0 1.275168,-1.77075 0.84375,-2.46875 -0.149623,-0.2421 -0.527177,-0.4375 -0.84375,-0.4375 z M 60.90625,162.5 c -0.827682,0 -1.169089,0.73445 -0.875,1.90625 0.140469,0.5596 0.540119,1.03125 0.875,1.03125 0.670451,0 1.275168,-1.77065 0.84375,-2.46875 C 61.600377,162.72665 61.222823,162.5 60.90625,162.5 z m 11.65625,0 c -0.827682,0 -1.169089,0.73445 -0.875,1.90625 0.140469,0.5596 0.540119,1.03125 0.875,1.03125 0.670451,0 1.275168,-1.77065 0.84375,-2.46875 C 73.256627,162.72665 72.879073,162.5 72.5625,162.5 z m 11.65625,0 c -0.827682,0 -1.16909,0.73445 -0.875,1.90625 0.140468,0.5596 0.540119,1.03125 0.875,1.03125 0.670451,0 1.275168,-1.77065 0.84375,-2.46875 C 84.912877,162.72665 84.535323,162.5 84.21875,162.5 z m -46.65625,0.0312 c -0.336168,0 -0.668458,0.1539 -0.84375,0.4375 -0.149617,0.2421 -0.140467,0.8778 0,1.4375 0.140467,0.5596 0.508867,1.03125 0.84375,1.03125 0.670451,0 1.27517,-1.77065 0.84375,-2.46875 -0.175292,-0.2836 -0.507582,-0.4375 -0.84375,-0.4375 z m 11.65625,0 c -0.336169,0 -0.668458,0.1539 -0.84375,0.4375 -0.149635,0.2421 -0.140468,0.8778 0,1.4375 0.140469,0.5596 0.508868,1.03125 0.84375,1.03125 0.67045,0 1.275151,-1.77065 0.84375,-2.46875 -0.175292,-0.2836 -0.507581,-0.4375 -0.84375,-0.4375 z m 46.71875,0.0312 c -0.753422,-0.0678 -1.208073,0.70325 -0.9375,1.78125 0.296305,1.1806 0.649876,1.35015 1.40625,0.59375 0.706003,-0.706 0.648396,-1.98445 -0.125,-2.28125 -0.119137,-0.0457 -0.236118,-0.0841 -0.34375,-0.0937 z m -58.375,13.28125 c -0.827683,0 -1.137841,0.73455 -0.84375,1.90625 0.140467,0.5597 0.508867,1 0.84375,1 0.670451,0 1.275168,-1.77075 0.84375,-2.46875 -0.149622,-0.2421 -0.527178,-0.4375 -0.84375,-0.4375 z m 34.625,1.34375 c -0.343253,0.0824 -0.589832,0.49031 -0.40625,0.96875 0.129044,0.3363 0.402702,0.59375 0.59375,0.59375 0.604626,0 0.913325,-0.8679 0.46875,-1.3125 -0.215483,-0.21548 -0.450298,-0.29945 -0.65625,-0.25 z M 60.875,189.15625 c -0.752976,0 -1.214155,0.9912 -0.875,1.875 0.351209,0.9153 0.962016,0.7621 1.25,-0.3125 0.370258,-1.3816 0.327246,-1.5625 -0.375,-1.5625 z" inkscape:connector-curvature="0" fill="#71c16c"/>
  </g>
  <path d="m 21.608584,945.97076 c -4.944178,0 -8.924509,3.98033 -8.924509,8.92451 l 0,51.49023 c 14.743496,5.5261 32.366656,8.7502 51.315925,8.7502 18.949269,0 36.57243,-3.2241 51.31592,-8.7502 l 0,-51.49023 c 0,-4.94418 -3.98033,-8.92451 -8.9245,-8.92451 l -84.782836,0 z" id="path5738" inkscape:connector-curvature="0" opacity="0.5" fill="url(#linearGradient5757)"/>
  <g id="g4848">
   <path d="m 75.916134,953.23919 c -6.59209,0 -11.9375,5.34541 -11.9375,11.9375 0,0.0211 -1.09e-4,0.0415 0,0.0625 0,10 8,22 12,34.00002 4,-12.00002 12,-24.00002 11.84375,-33.56252 l 0.15625,-0.4375 -0.125,0 c 1.09e-4,-0.021 0,-0.0414 0,-0.0625 0,-6.59209 -5.34541,-11.9375 -11.9375,-11.9375 z" id="path4810" inkscape:connector-curvature="0" sodipodi:nodetypes="sscccccss" filter="url(#filter4844)"/>
   <path sodipodi:nodetypes="sscccccss" inkscape:connector-curvature="0" id="path4802" d="m 75.916134,953.23919 c -6.59209,0 -11.9375,5.34541 -11.9375,11.9375 0,0.0211 -1.09e-4,0.0415 0,0.0625 0,10 8,22 12,34.00002 4,-12.00002 12,-24.00002 11.84375,-33.56252 l 0.15625,-0.4375 -0.125,0 c 1.09e-4,-0.021 0,-0.0414 0,-0.0625 0,-6.59209 -5.34541,-11.9375 -11.9375,-11.9375 z" fill="#ff7f2a"/>
   <path transform="translate(11.97861,913.23919)" d="m 70,52 a 6,6 0 0 1 -6,6 6,6 0 0 1 -6,-6 6,6 0 0 1 6,-6 6,6 0 0 1 6,6 z" sodipodi:ry="6" sodipodi:rx="6" sodipodi:cy="52" sodipodi:cx="64" id="path4808" sodipodi:type="arc" fill="#ff7f2a" stroke="#ffffff"/>
  </g>
 </g>
</svg>
