<?xml version="1.0" encoding="UTF-8" standalone="no"?>
<svg xmlns="http://www.w3.org/2000/svg" xmlns:xlink="http://www.w3.org/1999/xlink" xmlns:sodipodi="http://sodipodi.sourceforge.net/DTD/sodipodi-0.dtd" xmlns:inkscape="http://www.inkscape.org/namespaces/inkscape" width="128" height="128" version="1.1">
 <defs id="defs4">
  <linearGradient id="linearGradient4965">
   <stop id="stop4967" stop-color="#ffffff"/>
   <stop offset="1" id="stop4969" stop-color="#ffffff" stop-opacity="0.459"/>
  </linearGradient>
  <linearGradient id="linearGradient4216-42-6">
   <stop id="stop4218-69-8" stop-color="#b3b3b3"/>
   <stop offset="1" id="stop4220-10-1" stop-color="#474747"/>
  </linearGradient>
  <radialGradient inkscape:collect="always" xlink:href="#linearGradient4216-42-6" id="radialGradient4963" cx="88" cy="968.36" r="61" gradientTransform="matrix(0.93333333,0,0,0.93333333,4.2666667,65.890651)" gradientUnits="userSpaceOnUse"/>
  <radialGradient inkscape:collect="always" xlink:href="#linearGradient4965" id="radialGradient4971" cx="84" cy="40.787" r="59" gradientTransform="matrix(1.0563955,1.5784786,-1.5816073,1.0584892,58.43829,790.19749)" gradientUnits="userSpaceOnUse"/>
  <filter color-interpolation-filters="sRGB" inkscape:collect="always" id="filter4223">
   <feGaussianBlur inkscape:collect="always" stdDeviation="2.24" id="feGaussianBlur4225"/>
  </filter>
 </defs>
 <metadata id="metadata7"/>
 <g inkscape:label="Layer 1" inkscape:groupmode="layer" id="layer1" transform="translate(0,-924.36218)">
  <path d="M 15.46875,934.36218 C 11.332216,934.36218 8,937.69439 8,941.83093 l 0,1.875 0,93.31247 0,1.875 c 0,4.1365 3.332216,7.4688 7.46875,7.4688 l 85.875,0 c 1.97434,0 3.76123,-0.7571 5.09375,-2 3.47306,-0.6436 6.09375,-3.6788 6.09375,-7.3438 l 0,-35.4687 3.75,0 c 2.06826,0 3.71875,-1.65049 3.71875,-3.71877 l 0,-18.65625 c 0,-2.06827 -1.86884,-2.82504 -3.71875,-3.75 l -3.75,0 0,-3.71875 c 2.06827,0 3.75,-1.68173 3.75,-3.75 l 0,-18.65625 c 0,-2.06826 -1.68173,-3.75 -3.75,-3.75 l 0,-1.84375 c 0,-3.665 -2.62069,-6.70014 -6.09375,-7.34375 -1.33252,-1.24286 -3.11941,-2 -5.09375,-2 l -85.875,0 z" id="rect4915-3-3" inkscape:connector-curvature="0" filter="url(#filter4223)"/>
  <path inkscape:connector-curvature="0" d="M 15.466667,934.22884 C 11.330133,934.22884 8,937.55897 8,941.6955 l 0,93.3334 c 0,4.1365 3.330133,7.4666 7.466667,7.4666 l 89.600003,0 c 4.13653,0 7.46666,-3.3301 7.46666,-7.4666 l 0,-35.46671 3.73334,0 c 2.06826,0 3.73333,-1.66507 3.73333,-3.73335 l 0,-18.66667 c 0,-2.06827 -1.88342,-2.80837 -3.73333,-3.73333 l -3.73334,0 0,-31.73334 c 0,-4.13653 -3.33013,-7.46666 -7.46666,-7.46666 z" id="rect4915-3" sodipodi:nodetypes="sssssscsssscsss" opacity="0.8" fill="url(#radialGradient4963)"/>
  <path d="M 15.466667,932.36217 C 11.330133,932.36217 8,935.6923 8,939.82884 l 0,97.06666 c 0,4.1365 3.330133,7.4667 7.466667,7.4667 l 85.866663,0 c 4.13654,0 7.46667,-3.3302 7.46667,-7.4667 l 0,-67.2 3.73333,0 c 2.06827,0 3.73334,-1.66506 3.73334,-3.73333 l 0,-18.66667 c 0,-2.06826 -1.66507,-3.73333 -3.73334,-3.73333 l -3.73333,0 0,-3.73333 c 0,-4.13654 -3.33013,-7.46667 -7.46667,-7.46667 l -85.866663,0 z" id="rect4915" inkscape:connector-curvature="0" fill="url(#radialGradient4971)"/>
  <rect id="rect5043" width="89.6" height="100.8" x="13.6" y="937.96" rx="3.733" opacity="0.25" fill="none" stroke="#000000" stroke-width="3.733"/>
  <path id="path3151" d="m 171.13029,1009.9273 c 1.54154,0 2.78257,-1.241 2.78257,-2.7826 l 0,-2.7825 c 0,-1.5416 -1.24103,-2.7826 -2.78257,-2.7826 -8.34772,-4.17386 -5.56515,15.3041 0,8.3477 z" inkscape:connector-curvature="0" sodipodi:nodetypes="csscc" inkscape:export-filename="/home/georg/.icons/Kawaiki-Only/places/scalable/rect3146.png" inkscape:export-xdpi="32.142857" inkscape:export-ydpi="32.142857" fill="#666666" fill-rule="evenodd" stroke="#4d4d4d" stroke-width="1.391"/>
  <path d="m 148.86971,989.05805 c -1.54154,0 -2.78257,1.24102 -2.78257,2.78257 l 0,25.04308 c 0,1.5416 1.24103,2.7826 2.78257,2.7826 l 19.478,0 c 1.54155,0 2.78258,-1.241 2.78258,-2.7826 l 0,-16.6954 c 1.54154,0 2.78257,-1.24102 2.78257,-2.78256 l 0,-2.78255 c 0,-1.54155 -1.24103,-2.78257 -2.78257,-2.78257 0,-1.54155 -1.24103,-2.78257 -2.78258,-2.78257 l -19.478,0 z" id="rect3144" inkscape:export-filename="/home/georg/.icons/Kawaiki-Only/places/scalable/rect3146.png" inkscape:export-xdpi="32.142857" inkscape:export-ydpi="32.142857" inkscape:connector-curvature="0" fill="#e6e6e6" fill-rule="evenodd" stroke="#4d4d4d" stroke-width="1.391"/>
  <rect id="rect3146" width="19.478" height="25.04" x="148.87" y="991.84" rx="1.391" inkscape:export-xdpi="32.142857" inkscape:export-ydpi="32.142857" fill="#e6e6e6" stroke="#b3b3b3" stroke-width="1.391"/>
  <text sodipodi:linespacing="125%" id="text5893" y="948.36" x="-56" font-family="Sans" word-spacing="0" line-height="125%" letter-spacing="0" font-size="24"><tspan id="tspan5895" y="948.36" x="-56">128</tspan>
  </text>
  <text sodipodi:linespacing="125%" id="text5901" y="1000.36" x="184" font-family="Sans" word-spacing="0" line-height="125%" letter-spacing="0" font-size="16"><tspan id="tspan5903" y="1000.36" x="184">31 - 17</tspan>
  </text>
  <text sodipodi:linespacing="125%" id="text5905" y="1048.36" x="172" font-family="Sans" word-spacing="0" line-height="125%" letter-spacing="0" font-size="16"><tspan id="tspan5907" y="1048.36" x="172">16</tspan>
  </text>
  <rect id="rect5919" y="984.36" x="140" rx="0" height="40" width="40" fill="none" stroke="#000000" stroke-linejoin="round" stroke-linecap="round"/>
  <rect id="rect5921" y="1032.36" x="140" rx="0" height="24" width="24" fill="none" stroke="#000000" stroke-linejoin="round" stroke-linecap="round"/>
  <rect id="rect6935" y="980.36" x="144" rx="0" height="4" width="32" fill="#b3b3b3"/>
  <rect id="rect6937" y="988.36" x="136" rx="0" height="32" width="4" fill="#b3b3b3"/>
  <rect id="rect6939" y="1028.36" x="144" rx="0" height="4" width="16" fill="#b3b3b3"/>
  <rect id="rect6941" y="1036.36" x="136" rx="0" height="16" width="4" fill="#b3b3b3"/>
  <rect id="rect3128" width="4" height="4" x="155.5" y="1042.36" rx="1" fill="#cccccc"/>
  <path inkscape:connector-curvature="0" d="m 146.5,1035.8622 c -1.37635,0 -2.5,1.1236 -2.5,2.5 l 0,12 c 0,1.3763 1.12365,2.5 2.5,2.5 l 10,0 c 1.37635,0 2.5,-1.1237 2.5,-2.5 l 0,-3.5938 c 0.58498,-0.2052 1,-0.7552 1,-1.4062 l 0,-2 c 0,-0.4112 -0.16529,-0.7903 -0.4375,-1.0625 0.26514,-0.2358 0.4375,-0.5464 0.4375,-0.9375 l 0,-2 c 0,-0.6873 -0.52066,-1.1698 -1.15625,-1.3438 -0.19144,-1.1888 -1.10256,-2.1562 -2.34375,-2.1562 l -10,0 z m 0,1 10,0 c 0.83965,0 1.5,0.6603 1.5,1.5 l 0,0.5 0.5,0 c 0.28565,0 0.5,0.2143 0.5,0.5 l 0,2 c 0,0.2856 -0.21435,0.5 -0.5,0.5 l -0.5,0 -1.5,0 c -0.82235,0 -1.5,0.6776 -1.5,1.5 l 0,2 c 0,0.8223 0.67765,1.5 1.5,1.5 l 1.5,0 0,3.5 c 0,0.8396 -0.66035,1.5 -1.5,1.5 l -10,0 c -0.83965,0 -1.5,-0.6604 -1.5,-1.5 l 0,-12 c 0,-0.8397 0.66035,-1.5 1.5,-1.5 z m 10,6 1.5,0 0,3 -1.5,0 c -0.28565,0 -0.5,-0.2144 -0.5,-0.5 l 0,-2 c 0,-0.2857 0.21435,-0.5 0.5,-0.5 z" id="path3904" color="#000000" fill="#666666"/>
  <path inkscape:connector-curvature="0" d="m 146.5,1036.3622 c -1.108,0 -2,0.892 -2,2 l 0,12 c 0,1.108 0.892,2 2,2 l 10,0 c 1.108,0 2,-0.892 2,-2 l 0,-8 c 0.554,0 1,-0.446 1,-1 l 0,-2 c 0,-0.554 -0.446,-1 -1,-1 0,-1.108 -0.892,-2 -2,-2 l -10,0 z" id="rect3118" fill="#e6e6e6" stroke="#4d4d4d"/>
  <path inkscape:connector-curvature="0" d="m 146.5,1037.3622 c -0.554,0 -1,0.446 -1,1 l 0,12 c 0,0.554 0.446,1 1,1 l 10,0 c 0.554,0 1,-0.446 1,-1 l 0,-12 c 0,-0.554 -0.446,-1 -1,-1 l -10,0 z m 1,1 8,0 c 0.554,0 1,0.446 1,1 l 0,10 c 0,0.554 -0.446,1 -1,1 l -8,0 c -0.554,0 -1,-0.446 -1,-1 l 0,-10 c 0,-0.554 0.446,-1 1,-1 z" id="rect3899" fill="#b3b3b3"/>
  <path transform="matrix(1.3583159,0,0,1.3583159,-25.618924,892.64563)" d="m 60,73 c 0.501384,1.002768 -1.104347,1.170586 -1.666667,0.833333 -1.523853,-0.913935 -1.085777,-3.109988 2e-6,-4.166667 1.942203,-1.89015 5.098024,-1.135482 6.666666,0.833336 2.302045,2.889319 1.196166,7.116465 -1.66667,9.166666 -3.815711,2.732595 -9.146149,1.262099 -11.666666,-2.500004 -3.171813,-4.734224 -1.330863,-11.181302 3.333339,-14.166666 5.648972,-3.615676 13.219556,-1.401287 16.666665,4.166673 4.062298,6.561648 1.472757,15.259748 -5.000007,19.166665 -7.473063,4.51069 -17.301234,1.544925 -21.666665,-5.833341 -4.96028,-8.383656 -1.61758,-19.343626 6.666676,-24.166665 9.293683,-5.41072 21.386679,-1.690588 26.666663,7.50001 5.861784,10.203305 1.76386,23.43023 -8.333343,29.166663" sodipodi:t0="0" sodipodi:argument="-17.742407" sodipodi:radius="22.36068" sodipodi:revolution="3" sodipodi:expansion="1" sodipodi:cy="73" sodipodi:cx="60" id="path3794" sodipodi:type="spiral" opacity="0.25" stroke="#000000" stroke-linecap="round" stroke-width="5.89"/>
  <path sodipodi:type="spiral" id="path3017" sodipodi:cx="60" sodipodi:cy="73" sodipodi:expansion="1" sodipodi:revolution="3" sodipodi:radius="22.36068" sodipodi:argument="-17.742407" sodipodi:t0="0" d="m 60,73 c 0.501384,1.002768 -1.104347,1.170586 -1.666667,0.833333 -1.523853,-0.913935 -1.085777,-3.109988 2e-6,-4.166667 1.942203,-1.89015 5.098024,-1.135482 6.666666,0.833336 2.302045,2.889319 1.196166,7.116465 -1.66667,9.166666 -3.815711,2.732595 -9.146149,1.262099 -11.666666,-2.500004 -3.171813,-4.734224 -1.330863,-11.181302 3.333339,-14.166666 5.648972,-3.615676 13.219556,-1.401287 16.666665,4.166673 4.062298,6.561648 1.472757,15.259748 -5.000007,19.166665 -7.473063,4.51069 -17.301234,1.544925 -21.666665,-5.833341 -4.96028,-8.383656 -1.61758,-19.343626 6.666676,-24.166665 9.293683,-5.41072 21.386679,-1.690588 26.666663,7.50001 5.861784,10.203305 1.76386,23.43023 -8.333343,29.166663" transform="matrix(1.3583159,0,0,1.3583159,-25.618924,892.64563)" stroke="#555753" fill-opacity="0.137" stroke-linecap="round" stroke-width="3"/>
  <path transform="matrix(0.33854746,0,0,0.33854746,137.66779,979.50874)" d="m 60,73 c 0.501384,1.002768 -1.104347,1.170586 -1.666667,0.833333 -1.523853,-0.913935 -1.085777,-3.109988 2e-6,-4.166667 1.942203,-1.89015 5.098024,-1.135482 6.666666,0.833336 2.302045,2.889319 1.196166,7.116465 -1.66667,9.166666 -3.815711,2.732595 -9.146149,1.262099 -11.666666,-2.500004 -3.171813,-4.734224 -1.330863,-11.181302 3.333339,-14.166666 5.648972,-3.615676 13.219556,-1.401287 16.666665,4.166673 4.062298,6.561648 1.472757,15.259748 -5.000007,19.166665 -7.473063,4.51069 -17.301234,1.544925 -21.666665,-5.833341 -4.96028,-8.383656 -1.61758,-19.343626 6.666676,-24.166665 9.293683,-5.41072 21.386679,-1.690588 26.666663,7.50001 5.861784,10.203305 1.76386,23.43023 -8.333343,29.166663" sodipodi:t0="0" sodipodi:argument="-17.742407" sodipodi:radius="22.36068" sodipodi:revolution="3" sodipodi:expansion="1" sodipodi:cy="73" sodipodi:cx="60" id="path10576" sodipodi:type="spiral" fill="#888a85" stroke="#555753" fill-opacity="0.502" stroke-linecap="round" stroke-width="3"/>
  <path d="m 151,1041.3622 c -1.933,0 -3.5,1.567 -3.5,3.5 0,0.1969 0.0507,0.3787 0.0937,0.5625 0.25879,1.1049 1.22248,1.9375 2.40625,1.9375 1.20812,0 2.20438,-0.8608 2.4375,-2 l 2.03125,0 c 0.0228,-0.1615 0.0312,-0.3323 0.0312,-0.5 0,-1.933 -1.567,-3.5 -3.5,-3.5 z" id="path10578" inkscape:connector-curvature="0" fill="#555753"/>
 </g>
</svg>
