<?xml version="1.0" encoding="UTF-8" standalone="no"?>
<svg xmlns="http://www.w3.org/2000/svg" xmlns:xlink="http://www.w3.org/1999/xlink" xmlns:sodipodi="http://sodipodi.sourceforge.net/DTD/sodipodi-0.dtd" xmlns:inkscape="http://www.inkscape.org/namespaces/inkscape" width="128" height="128" version="1.1">
 <defs id="defs4">
  <linearGradient id="linearGradient4965">
   <stop id="stop4967" stop-color="#ffffff"/>
   <stop offset="1" id="stop4969" stop-color="#ffffff" stop-opacity="0.459"/>
  </linearGradient>
  <linearGradient id="linearGradient4216-42-6">
   <stop id="stop4218-69-8" stop-color="#b3b3b3"/>
   <stop offset="1" id="stop4220-10-1" stop-color="#474747"/>
  </linearGradient>
  <radialGradient inkscape:collect="always" xlink:href="#linearGradient4216-42-6" id="radialGradient4963" cx="88" cy="968.36" r="61" gradientTransform="matrix(0.93333333,0,0,0.93333333,4.2666667,65.890651)" gradientUnits="userSpaceOnUse"/>
  <radialGradient inkscape:collect="always" xlink:href="#linearGradient4965" id="radialGradient4971" cx="84" cy="40.787" r="59" gradientTransform="matrix(1.0563955,1.5784786,-1.5816073,1.0584892,58.43829,790.19749)" gradientUnits="userSpaceOnUse"/>
  <filter color-interpolation-filters="sRGB" inkscape:collect="always" id="filter4223">
   <feGaussianBlur inkscape:collect="always" stdDeviation="2.24" id="feGaussianBlur4225"/>
  </filter>
 </defs>
 <metadata id="metadata7"/>
 <g inkscape:label="Layer 1" inkscape:groupmode="layer" id="layer1" transform="translate(0,-924.36218)">
  <path d="M 15.46875,934.36218 C 11.332216,934.36218 8,937.69439 8,941.83093 l 0,1.875 0,93.31247 0,1.875 c 0,4.1365 3.332216,7.4688 7.46875,7.4688 l 85.875,0 c 1.97434,0 3.76123,-0.7571 5.09375,-2 3.47306,-0.6436 6.09375,-3.6788 6.09375,-7.3438 l 0,-35.4687 3.75,0 c 2.06826,0 3.71875,-1.65049 3.71875,-3.71877 l 0,-18.65625 c 0,-2.06827 -1.86884,-2.82504 -3.71875,-3.75 l -3.75,0 0,-3.71875 c 2.06827,0 3.75,-1.68173 3.75,-3.75 l 0,-18.65625 c 0,-2.06826 -1.68173,-3.75 -3.75,-3.75 l 0,-1.84375 c 0,-3.665 -2.62069,-6.70014 -6.09375,-7.34375 -1.33252,-1.24286 -3.11941,-2 -5.09375,-2 l -85.875,0 z" id="rect4915-3-3" inkscape:connector-curvature="0" filter="url(#filter4223)"/>
  <path inkscape:connector-curvature="0" d="M 15.466667,934.22884 C 11.330133,934.22884 8,937.55897 8,941.6955 l 0,93.3334 c 0,4.1365 3.330133,7.4666 7.466667,7.4666 l 89.600003,0 c 4.13653,0 7.46666,-3.3301 7.46666,-7.4666 l 0,-35.46671 3.73334,0 c 2.06826,0 3.73333,-1.66507 3.73333,-3.73335 l 0,-18.66667 c 0,-2.06827 -1.88342,-2.80837 -3.73333,-3.73333 l -3.73334,0 0,-31.73334 c 0,-4.13653 -3.33013,-7.46666 -7.46666,-7.46666 z" id="rect4915-3" sodipodi:nodetypes="sssssscsssscsss" opacity="0.8" fill="url(#radialGradient4963)"/>
  <path d="M 15.466667,932.36217 C 11.330133,932.36217 8,935.6923 8,939.82884 l 0,97.06666 c 0,4.1365 3.330133,7.4667 7.466667,7.4667 l 85.866663,0 c 4.13654,0 7.46667,-3.3302 7.46667,-7.4667 l 0,-67.2 3.73333,0 c 2.06827,0 3.73334,-1.66506 3.73334,-3.73333 l 0,-18.66667 c 0,-2.06826 -1.66507,-3.73333 -3.73334,-3.73333 l -3.73333,0 0,-3.73333 c 0,-4.13654 -3.33013,-7.46667 -7.46667,-7.46667 l -85.866663,0 z" id="rect4915" inkscape:connector-curvature="0" fill="url(#radialGradient4971)"/>
  <rect id="rect5043" width="89.6" height="100.8" x="13.6" y="937.96" rx="3.733" opacity="0.25" fill="none" stroke="#000000" stroke-width="3.733"/>
  <path id="path3151" d="m 171.13029,1009.9273 c 1.54154,0 2.78257,-1.241 2.78257,-2.7826 l 0,-2.7825 c 0,-1.5416 -1.24103,-2.7826 -2.78257,-2.7826 -8.34772,-4.17386 -5.56515,15.3041 0,8.3477 z" inkscape:connector-curvature="0" sodipodi:nodetypes="csscc" inkscape:export-filename="/home/georg/.icons/Kawaiki-Only/places/scalable/rect3146.png" inkscape:export-xdpi="32.142857" inkscape:export-ydpi="32.142857" fill="#666666" fill-rule="evenodd" stroke="#4d4d4d" stroke-width="1.391"/>
  <path d="m 148.86971,989.05805 c -1.54154,0 -2.78257,1.24102 -2.78257,2.78257 l 0,25.04308 c 0,1.5416 1.24103,2.7826 2.78257,2.7826 l 19.478,0 c 1.54155,0 2.78258,-1.241 2.78258,-2.7826 l 0,-16.6954 c 1.54154,0 2.78257,-1.24102 2.78257,-2.78256 l 0,-2.78255 c 0,-1.54155 -1.24103,-2.78257 -2.78257,-2.78257 0,-1.54155 -1.24103,-2.78257 -2.78258,-2.78257 l -19.478,0 z" id="rect3144" inkscape:export-filename="/home/georg/.icons/Kawaiki-Only/places/scalable/rect3146.png" inkscape:export-xdpi="32.142857" inkscape:export-ydpi="32.142857" inkscape:connector-curvature="0" fill="#e6e6e6" fill-rule="evenodd" stroke="#4d4d4d" stroke-width="1.391"/>
  <rect id="rect3146" width="19.478" height="25.04" x="148.87" y="991.84" rx="1.391" inkscape:export-xdpi="32.142857" inkscape:export-ydpi="32.142857" fill="#e6e6e6" stroke="#b3b3b3" stroke-width="1.391"/>
  <text sodipodi:linespacing="125%" id="text5893" y="948.36" x="-56" font-family="Sans" word-spacing="0" line-height="125%" letter-spacing="0" font-size="24"><tspan id="tspan5895" y="948.36" x="-56">128</tspan>
  </text>
  <text sodipodi:linespacing="125%" id="text5901" y="1000.36" x="184" font-family="Sans" word-spacing="0" line-height="125%" letter-spacing="0" font-size="16"><tspan id="tspan5903" y="1000.36" x="184">31 - 17</tspan>
  </text>
  <text sodipodi:linespacing="125%" id="text5905" y="1048.36" x="172" font-family="Sans" word-spacing="0" line-height="125%" letter-spacing="0" font-size="16"><tspan id="tspan5907" y="1048.36" x="172">16</tspan>
  </text>
  <rect id="rect5919" y="984.36" x="140" rx="0" height="40" width="40" fill="none" stroke="#000000" stroke-linejoin="round" stroke-linecap="round"/>
  <rect id="rect5921" y="1032.36" x="140" rx="0" height="24" width="24" fill="none" stroke="#000000" stroke-linejoin="round" stroke-linecap="round"/>
  <rect id="rect6935" y="980.36" x="144" rx="0" height="4" width="32" fill="#b3b3b3"/>
  <rect id="rect6937" y="988.36" x="136" rx="0" height="32" width="4" fill="#b3b3b3"/>
  <rect id="rect6939" y="1028.36" x="144" rx="0" height="4" width="16" fill="#b3b3b3"/>
  <rect id="rect6941" y="1036.36" x="136" rx="0" height="16" width="4" fill="#b3b3b3"/>
  <rect id="rect3128" width="4" height="4" x="155.5" y="1042.36" rx="1" fill="#cccccc"/>
  <path inkscape:connector-curvature="0" d="m 146.5,1035.8622 c -1.37635,0 -2.5,1.1236 -2.5,2.5 l 0,12 c 0,1.3763 1.12365,2.5 2.5,2.5 l 10,0 c 1.37635,0 2.5,-1.1237 2.5,-2.5 l 0,-3.5938 c 0.58498,-0.2052 1,-0.7552 1,-1.4062 l 0,-2 c 0,-0.4112 -0.16529,-0.7903 -0.4375,-1.0625 0.26514,-0.2358 0.4375,-0.5464 0.4375,-0.9375 l 0,-2 c 0,-0.6873 -0.52066,-1.1698 -1.15625,-1.3438 -0.19144,-1.1888 -1.10256,-2.1562 -2.34375,-2.1562 l -10,0 z m 0,1 10,0 c 0.83965,0 1.5,0.6603 1.5,1.5 l 0,0.5 0.5,0 c 0.28565,0 0.5,0.2143 0.5,0.5 l 0,2 c 0,0.2856 -0.21435,0.5 -0.5,0.5 l -0.5,0 -1.5,0 c -0.82235,0 -1.5,0.6776 -1.5,1.5 l 0,2 c 0,0.8223 0.67765,1.5 1.5,1.5 l 1.5,0 0,3.5 c 0,0.8396 -0.66035,1.5 -1.5,1.5 l -10,0 c -0.83965,0 -1.5,-0.6604 -1.5,-1.5 l 0,-12 c 0,-0.8397 0.66035,-1.5 1.5,-1.5 z m 10,6 1.5,0 0,3 -1.5,0 c -0.28565,0 -0.5,-0.2144 -0.5,-0.5 l 0,-2 c 0,-0.2857 0.21435,-0.5 0.5,-0.5 z" id="path3904" color="#000000" fill="#666666"/>
  <path inkscape:connector-curvature="0" d="m 146.5,1036.3622 c -1.108,0 -2,0.892 -2,2 l 0,12 c 0,1.108 0.892,2 2,2 l 10,0 c 1.108,0 2,-0.892 2,-2 l 0,-8 c 0.554,0 1,-0.446 1,-1 l 0,-2 c 0,-0.554 -0.446,-1 -1,-1 0,-1.108 -0.892,-2 -2,-2 l -10,0 z" id="rect3118" fill="#e6e6e6" stroke="#4d4d4d"/>
  <path inkscape:connector-curvature="0" d="m 146.5,1037.3622 c -0.554,0 -1,0.446 -1,1 l 0,12 c 0,0.554 0.446,1 1,1 l 10,0 c 0.554,0 1,-0.446 1,-1 l 0,-12 c 0,-0.554 -0.446,-1 -1,-1 l -10,0 z m 1,1 8,0 c 0.554,0 1,0.446 1,1 l 0,10 c 0,0.554 -0.446,1 -1,1 l -8,0 c -0.554,0 -1,-0.446 -1,-1 l 0,-10 c 0,-0.554 0.446,-1 1,-1 z" id="rect3899" fill="#b3b3b3"/>
  <path inkscape:connector-curvature="0" id="path3801-9" d="m 58.200854,953.94973 c -1.993226,0 -3.796689,0.31973 -5.337111,0.9559 -0.770211,0.31809 -1.50666,0.6832 -2.150776,1.31436 -0.644117,0.63117 -1.234705,1.64701 -1.234705,2.82788 l 0,0.9559 -7.806521,0 c -4.67678,0 -8.722592,3.61437 -8.722592,8.24464 l 0,16.96723 c 0,4.63027 4.045812,8.24467 8.722592,8.24467 l 7.806521,0 0,24.21619 c 0,1.1808 0.590588,2.1966 1.234705,2.8278 0.644116,0.6311 1.380565,0.9963 2.150776,1.3144 1.540422,0.6361 3.343885,0.9559 5.337111,0.9559 l 0.398292,0 c 1.993226,0 3.796689,-0.3198 5.337111,-0.9559 0.770211,-0.3181 1.50666,-0.6833 2.150776,-1.3144 0.644117,-0.6312 1.234705,-1.647 1.234705,-2.8278 l 0,-24.21619 7.806521,0 c 4.67678,0 8.722592,-3.6144 8.722592,-8.24467 l 0,-16.96723 c 0,-4.63027 -4.045812,-8.24464 -8.722592,-8.24464 l -7.806521,0 0,-0.9559 c 0,-1.18087 -0.590588,-2.19671 -1.234705,-2.82788 -0.644116,-0.63116 -1.380565,-0.99627 -2.150776,-1.31436 -1.540422,-0.63617 -3.343885,-0.9559 -5.337111,-0.9559 l -0.398292,0 z m 0,5.09814 0.398292,0 c 1.42862,0 2.694603,0.27229 3.385481,0.55761 0.156873,0.0647 0.152587,0.0678 0.238975,0.11942 l 0,0.2788 -7.647204,0 0,-0.2788 c 0.08639,-0.0518 0.08211,-0.0548 0.238975,-0.11942 0.690878,-0.28532 1.956861,-0.55761 3.385481,-0.55761 z m -16.529113,6.05403 9.917468,0 a 2.5493229,2.5493229 0 0 0 0.438121,0.0398 l 12.74534,0 a 2.5493229,2.5493229 0 0 0 0.517779,-0.0398 l 9.83781,0 c 2.166911,0 3.624456,1.49915 3.624456,3.14651 l 0,16.96723 c 0,1.64736 -1.457545,3.14651 -3.624456,3.14651 l -10.156443,0 -13.183461,0 -10.116614,0 c -2.166911,0 -3.624456,-1.49915 -3.624456,-3.14651 l 0,-16.96723 c 0,-1.64736 1.457545,-3.14651 3.624456,-3.14651 z m 12.904657,28.35841 7.647204,0 0,23.53899 c -0.08639,0.052 -0.0821,0.055 -0.238975,0.1198 -0.690878,0.2852 -1.956861,0.5576 -3.385481,0.5576 l -0.398292,0 c -1.42862,0 -2.694603,-0.2724 -3.385481,-0.5576 -0.156873,-0.065 -0.152587,-0.067 -0.238975,-0.1198 l 0,-23.53899 z" opacity="0.25" color="#000000" stroke-width="3" fill="none" stroke="#000000"/>
  <path inkscape:connector-curvature="0" d="m 58.200854,953.94973 c -1.993226,0 -3.796689,0.31973 -5.337111,0.9559 -0.770211,0.31809 -1.50666,0.6832 -2.150776,1.31436 -0.644117,0.63117 -1.234705,1.64701 -1.234705,2.82788 l 0,0.9559 -7.806521,0 c -4.67678,0 -8.722592,3.61437 -8.722592,8.24464 l 0,16.96723 c 0,4.63027 4.045812,8.24467 8.722592,8.24467 l 7.806521,0 0,24.21619 c 0,1.1808 0.590588,2.1966 1.234705,2.8278 0.644116,0.6311 1.380565,0.9963 2.150776,1.3144 1.540422,0.6361 3.343885,0.9559 5.337111,0.9559 l 0.398292,0 c 1.993226,0 3.796689,-0.3198 5.337111,-0.9559 0.770211,-0.3181 1.50666,-0.6833 2.150776,-1.3144 0.644117,-0.6312 1.234705,-1.647 1.234705,-2.8278 l 0,-24.21619 7.806521,0 c 4.67678,0 8.722592,-3.6144 8.722592,-8.24467 l 0,-16.96723 c 0,-4.63027 -4.045812,-8.24464 -8.722592,-8.24464 l -7.806521,0 0,-0.9559 c 0,-1.18087 -0.590588,-2.19671 -1.234705,-2.82788 -0.644116,-0.63116 -1.380565,-0.99627 -2.150776,-1.31436 -1.540422,-0.63617 -3.343885,-0.9559 -5.337111,-0.9559 l -0.398292,0 z m 0,5.09814 0.398292,0 c 1.42862,0 2.694603,0.27229 3.385481,0.55761 0.156873,0.0647 0.152587,0.0678 0.238975,0.11942 l 0,0.2788 -7.647204,0 0,-0.2788 c 0.08639,-0.0518 0.08211,-0.0548 0.238975,-0.11942 0.690878,-0.28532 1.956861,-0.55761 3.385481,-0.55761 z m -16.529113,6.05403 9.917468,0 a 2.5493229,2.5493229 0 0 0 0.438121,0.0398 l 12.74534,0 a 2.5493229,2.5493229 0 0 0 0.517779,-0.0398 l 9.83781,0 c 2.166911,0 3.624456,1.49915 3.624456,3.14651 l 0,16.96723 c 0,1.64736 -1.457545,3.14651 -3.624456,3.14651 l -10.156443,0 -13.183461,0 -10.116614,0 c -2.166911,0 -3.624456,-1.49915 -3.624456,-3.14651 l 0,-16.96723 c 0,-1.64736 1.457545,-3.14651 3.624456,-3.14651 z m 12.904657,28.35841 7.647204,0 0,23.53899 c -0.08639,0.052 -0.0821,0.055 -0.238975,0.1198 -0.690878,0.2852 -1.956861,0.5576 -3.385481,0.5576 l -0.398292,0 c -1.42862,0 -2.694603,-0.2724 -3.385481,-0.5576 -0.156873,-0.065 -0.152587,-0.067 -0.238975,-0.1198 l 0,-23.53899 z" id="rect3017" color="#000000" stroke-width="4" fill="#555753"/>
  <path id="path10652" d="m 158.56243,996.36235 c -0.46337,0 -0.88261,0.0743 -1.24071,0.22222 -0.17905,0.0739 -0.35025,0.15882 -0.49999,0.30555 -0.14973,0.14672 -0.28703,0.38287 -0.28703,0.65738 l 0,0.22222 -1.81476,0 c -1.0872,0 -2.02772,0.84023 -2.02772,1.91661 l 0,3.94437 c 0,1.0764 0.94052,1.9166 2.02772,1.9166 l 1.81476,0 0,5.6294 c 0,0.2745 0.1373,0.5107 0.28703,0.6574 0.14974,0.1467 0.32094,0.2316 0.49999,0.3056 0.3581,0.1478 0.77734,0.2222 1.24071,0.2222 l 0.0926,0 c 0.46336,0 0.8826,-0.074 1.2407,-0.2222 0.17905,-0.074 0.35025,-0.1589 0.49999,-0.3056 0.14973,-0.1467 0.28703,-0.3829 0.28703,-0.6574 l 0,-5.6294 1.81476,0 c 1.0872,0 2.02772,-0.8402 2.02772,-1.9166 l 0,-3.94437 c 0,-1.07638 -0.94052,-1.91661 -2.02772,-1.91661 l -1.81476,0 0,-0.22222 c 0,-0.27451 -0.1373,-0.51066 -0.28703,-0.65738 -0.14974,-0.14673 -0.32094,-0.23161 -0.49999,-0.30555 -0.3581,-0.14789 -0.77734,-0.22222 -1.2407,-0.22222 l -0.0926,0 z m 0,1.18515 0.0926,0 c 0.3321,0 0.6264,0.0633 0.78701,0.12963 0.0365,0.015 0.0355,0.0158 0.0556,0.0278 l 0,0.0648 -1.77773,0 0,-0.0648 c 0.0201,-0.012 0.0191,-0.0127 0.0555,-0.0278 0.16061,-0.0663 0.45491,-0.12963 0.78702,-0.12963 z m -3.84249,1.40737 2.30549,0 a 0.59263516,0.59263516 0 0 0 0.10185,0.009 l 2.96288,0 a 0.59263516,0.59263516 0 0 0 0.12037,-0.009 l 2.28697,0 c 0.50374,0 0.84257,0.3485 0.84257,0.73146 l 0,3.94437 c 0,0.3829 -0.33883,0.7314 -0.84257,0.7314 l -2.36104,0 -3.06473,0 -2.35179,0 c -0.50374,0 -0.84257,-0.3485 -0.84257,-0.7314 l 0,-3.94437 c 0,-0.38296 0.33883,-0.73146 0.84257,-0.73146 z m 2.99992,6.59243 1.77772,0 0,5.472 c -0.0201,0.012 -0.0191,0.013 -0.0556,0.028 -0.1606,0.066 -0.4549,0.1297 -0.78701,0.1297 l -0.0926,0 c -0.33211,0 -0.62641,-0.063 -0.78702,-0.1297 -0.0365,-0.015 -0.0355,-0.016 -0.0555,-0.028 l 0,-5.472 z" inkscape:connector-curvature="0" color="#000000" stroke-width="4" fill="#555753"/>
  <path inkscape:connector-curvature="0" d="m 151.5,1039.3622 c -0.554,0 -1,0.446 -1,1 l -0.59375,0 c -0.77077,0 -1.40625,0.6355 -1.40625,1.4062 l 0,1.1875 c 0,0.7708 0.63548,1.4063 1.40625,1.4063 l 0.59375,0 0,4 c 0,0.554 0.446,1 1,1 0.554,0 1,-0.446 1,-1 l 0,-4 0.59375,0 c 0.77077,0 1.40625,-0.6355 1.40625,-1.4063 l 0,-1.1875 c 0,-0.7707 -0.63548,-1.4062 -1.40625,-1.4062 l -0.59375,0 c 0,-0.554 -0.446,-1 -1,-1 z" id="rect10654" fill="#555753"/>
 </g>
</svg>
