<?xml version="1.0" encoding="UTF-8" standalone="no"?>
<svg xmlns="http://www.w3.org/2000/svg" xmlns:xlink="http://www.w3.org/1999/xlink" xmlns:sodipodi="http://sodipodi.sourceforge.net/DTD/sodipodi-0.dtd" xmlns:inkscape="http://www.inkscape.org/namespaces/inkscape" width="128" height="128" version="1.1">
 <defs id="defs4">
  <linearGradient inkscape:collect="always" id="linearGradient4651">
   <stop id="stop4653" stop-color="#ffffff"/>
   <stop offset="1" id="stop4655" stop-color="#ffffff" stop-opacity="0"/>
  </linearGradient>
  <linearGradient id="linearGradient4205">
   <stop id="stop4207" stop-color="#ff0000"/>
   <stop offset="1" id="stop4209" stop-color="#710000"/>
  </linearGradient>
  <linearGradient id="linearGradient4174">
   <stop id="stop4176" stop-color="#717171"/>
   <stop offset="0.5" id="stop4178" stop-color="#c0c0c0"/>
   <stop id="stop4180" offset="1" stop-color="#6e6e6e"/>
  </linearGradient>
  <linearGradient id="linearGradient4216-4">
   <stop id="stop4218-8" stop-color="#ffffff"/>
   <stop offset="1" id="stop4220-1" stop-color="#c6c6c6"/>
  </linearGradient>
  <linearGradient id="linearGradient4216-42-6-4">
   <stop id="stop4218-69-8-5" stop-color="#b3b3b3"/>
   <stop offset="1" id="stop4220-10-1-2" stop-color="#474747"/>
  </linearGradient>
  <filter inkscape:collect="always" id="filter4578" x="-0.07" width="1.14" y="-0.105" height="1.21">
   <feGaussianBlur inkscape:collect="always" stdDeviation="3.26667" id="feGaussianBlur4580"/>
  </filter>
  <radialGradient inkscape:collect="always" xlink:href="#linearGradient4216-4" id="radialGradient4599" cx="96" cy="972.3" r="56" gradientTransform="matrix(2,6.3203789e-7,-3.8373735e-7,1.2142859,-95.999627,-200.28734)" gradientUnits="userSpaceOnUse"/>
  <radialGradient inkscape:collect="always" xlink:href="#linearGradient4205" id="radialGradient4608" cx="88" cy="930.36" r="56" gradientTransform="matrix(1,0,0,0.71428575,0,291.81768)" gradientUnits="userSpaceOnUse"/>
  <radialGradient inkscape:collect="always" xlink:href="#linearGradient4216-42-6-4" id="radialGradient4627" cx="33.825" cy="73.64" r="9.125" gradientTransform="matrix(1.3150684,-1.5068362e-7,2.0091151e-7,1.7534248,-8.4822026,-57.128774)" gradientUnits="userSpaceOnUse"/>
  <linearGradient inkscape:collect="always" xlink:href="#linearGradient4174" id="linearGradient4635" x1="8" x2="120" gradientUnits="userSpaceOnUse"/>
  <linearGradient inkscape:collect="always" xlink:href="#linearGradient4651" id="linearGradient4658" x1="48" y1="80" x2="40" y2="32" gradientUnits="userSpaceOnUse" gradientTransform="matrix(1.0742414,0,0,1.0742414,-4.7514526,918.74871)"/>
 </defs>
 <metadata id="metadata7"/>
 <g inkscape:label="Layer 1" inkscape:groupmode="layer" id="layer1" transform="translate(0,-924.36218)">
  <rect rx="3.6" y="955.16" x="8" height="74.67" width="112" id="rect4548" filter="url(#filter4578)" color="#000000" stroke-width="4"/>
  <path d="m 11.600006,951.16217 104.799984,0 c 1.99441,0 3.60001,1.6056 3.60001,3.60001 l 0,65.46662 c 0,1.9944 -1.6056,3.6 -3.60001,3.6 l -104.799984,0 c -1.9944034,0 -3.6000065,-1.6056 -3.6000065,-3.6 l 0,-65.46662 c 0,-1.99441 1.6056031,-3.60001 3.6000065,-3.60001 z" id="rect5438-7" inkscape:connector-curvature="0" sodipodi:nodetypes="sssssssss" fill="url(#linearGradient4635)" color="#000000" stroke-width="4"/>
  <rect id="rect5438" width="112" height="63.47" x="8" y="964.1" rx="3.6" fill="url(#radialGradient4599)" color="#000000" stroke-width="4"/>
  <path d="m 11.600007,952.89551 104.799983,0 c 1.99441,0 3.60001,1.60561 3.60001,3.60001 l 0,11.33333 -112,0 0,-11.33333 c 0,-1.9944 1.605603,-3.60001 3.600007,-3.60001 z" id="rect5458" inkscape:connector-curvature="0" sodipodi:nodetypes="ssccccs" fill="url(#radialGradient4608)" color="#000000" stroke-width="4"/>
  <path d="M 30.40625 58.125 C 26.375553 58.125 23.09375 61.406803 23.09375 65.4375 C 23.09375 69.468197 26.375553 72.71875 30.40625 72.71875 C 34.436947 72.71875 37.6875 69.468197 37.6875 65.4375 C 37.6875 61.406803 34.436947 58.125 30.40625 58.125 z M 28.5625 74.5625 C 24.519285 74.5625 21.28125 76.99895 21.28125 80.03125 L 21.28125 92.8125 L 39.53125 92.8125 L 39.53125 80.03125 C 39.53125 76.99895 36.261966 74.5625 32.21875 74.5625 L 28.5625 74.5625 z " transform="translate(0,924.36218)" id="path3004" fill="url(#radialGradient4627)"/>
  <rect id="rect5488" width="29.867" height="41.07" x="15.467" y="975.3" rx="3.6" fill="none" stroke="#555753" stroke-linejoin="round" color="#000000" stroke-width="1.867"/>
  <path d="m 15.466667,1023.8289 97.066663,0" id="path5494" inkscape:connector-curvature="0" fill="#555753" stroke="#555753" stroke-linejoin="round" stroke-linecap="round" stroke-width="1.867"/>
  <path d="m 52.8,979.02885 33.6,0" id="path5496" inkscape:connector-curvature="0" fill="none" stroke="#555753" stroke-linecap="round" stroke-width="3.733"/>
  <path d="m 52.8,986.49551 33.6,0" id="path5496-3" inkscape:connector-curvature="0" fill="none" stroke="#555753" stroke-linecap="round" stroke-width="3.733"/>
  <path d="m 52.8,993.96218 18.666667,0" id="path5496-30" inkscape:connector-curvature="0" sodipodi:nodetypes="cc" fill="none" stroke="#555753" stroke-linecap="round" stroke-width="3.733"/>
  <path d="m 52.8,1008.8955 29.866667,0" id="path5496-8" inkscape:connector-curvature="0" sodipodi:nodetypes="cc" fill="none" stroke="#555753" stroke-linecap="round" stroke-width="3.733"/>
  <path d="m 52.8,1016.3622 26.133333,0" id="path5496-2" inkscape:connector-curvature="0" sodipodi:nodetypes="cc" fill="none" stroke="#555753" stroke-linecap="round" stroke-width="3.733"/>
  <path d="m 12,953.12444 c -2.1424714,0 -3.8605552,1.71808 -3.8605552,3.86055 l 0,31.95868 C 40.19279,983.88631 78.310549,980.40871 119.86056,979.00694 l 0,-22.02195 c 0,-2.14247 -1.71809,-3.86055 -3.86056,-3.86055 l -104,0 z" id="rect4637" inkscape:connector-curvature="0" fill="url(#linearGradient4658)"/>
 </g>
</svg>
