<?xml version="1.0" encoding="UTF-8" standalone="no"?>
<svg xmlns="http://www.w3.org/2000/svg" xmlns:xlink="http://www.w3.org/1999/xlink" xmlns:sodipodi="http://sodipodi.sourceforge.net/DTD/sodipodi-0.dtd" xmlns:inkscape="http://www.inkscape.org/namespaces/inkscape" width="128" height="128" version="1.1">
 <defs id="defs4">
  <linearGradient inkscape:collect="always" id="linearGradient4723">
   <stop id="stop4725" stop-color="#ffffff"/>
   <stop offset="1" id="stop4727" stop-color="#ffffff" stop-opacity="0"/>
  </linearGradient>
  <linearGradient id="linearGradient5685">
   <stop id="stop5687" stop-color="#ffffff" stop-opacity="0.699"/>
   <stop offset="0.5" id="stop5691" stop-color="#ffffff" stop-opacity="0.122"/>
   <stop id="stop5689" offset="1" stop-color="#ffffff" stop-opacity="0.799"/>
  </linearGradient>
  <linearGradient id="linearGradient5661">
   <stop id="stop5663" stop-color="#ffffff" stop-opacity="0"/>
   <stop offset="1" id="stop5665" stop-color="#ffffff"/>
  </linearGradient>
  <linearGradient id="linearGradient5633">
   <stop id="stop5635" stop-color="#7d7d7d"/>
   <stop id="stop5643" offset="0.5" stop-color="#e7e7e7"/>
   <stop offset="1" id="stop5637" stop-color="#828282"/>
  </linearGradient>
  <linearGradient id="linearGradient6403">
   <stop id="stop6405" stop-color="#efefef"/>
   <stop id="stop6407" offset="1" stop-color="#828282"/>
  </linearGradient>
  <linearGradient id="linearGradient5894">
   <stop id="stop5896" stop-color="#373737"/>
   <stop offset="0.063" id="stop5908" stop-color="#5d5d5d"/>
   <stop offset="0.125" id="stop5906" stop-color="#848484"/>
   <stop offset="0.25" id="stop5904" stop-color="#d1d1d1"/>
   <stop offset="0.5" id="stop5902" stop-color="#a6a6a6"/>
   <stop id="stop5898" offset="1" stop-color="#d2d2d2"/>
  </linearGradient>
  <radialGradient inkscape:collect="always" xlink:href="#linearGradient5633" id="radialGradient5641" cx="64" cy="1011.03" r="56" gradientTransform="matrix(1.2142857,4.4551995e-8,-2.6207029e-8,0.71428508,-13.71426,286.19935)" gradientUnits="userSpaceOnUse"/>
  <linearGradient inkscape:collect="always" xlink:href="#linearGradient5661" id="linearGradient5669" y1="32" x2="0" y2="96" gradientUnits="userSpaceOnUse"/>
  <linearGradient inkscape:collect="always" xlink:href="#linearGradient5685" id="linearGradient5683" x1="4" y1="124" x2="124" y2="4" gradientUnits="userSpaceOnUse" gradientTransform="matrix(1.1155636,0,0,1.1155636,-7.3960692,916.96611)"/>
  <filter inkscape:collect="always" id="filter5715">
   <feGaussianBlur inkscape:collect="always" stdDeviation="3.12" id="feGaussianBlur5717"/>
  </filter>
  <linearGradient inkscape:collect="always" xlink:href="#linearGradient5685" id="linearGradient5757" y1="-24" x2="0" y2="100" gradientUnits="userSpaceOnUse" gradientTransform="matrix(1.1155636,0,0,1.1155636,-7.3960692,916.96611)"/>
  <radialGradient inkscape:collect="always" xlink:href="#linearGradient6403" id="radialGradient4700" gradientUnits="userSpaceOnUse" gradientTransform="matrix(2.3571429,0,0,2.1428571,-39.905778,887.21932)" cx="28.809" cy="36" r="56"/>
  <linearGradient inkscape:collect="always" xlink:href="#linearGradient5894" id="linearGradient5924" gradientUnits="userSpaceOnUse" gradientTransform="matrix(0.25813113,0,0,0.25813113,143.47961,987.8424)" y1="188" x2="0" y2="8"/>
  <radialGradient inkscape:collect="always" xlink:href="#linearGradient5894" id="radialGradient5928" gradientUnits="userSpaceOnUse" gradientTransform="matrix(0.25813113,0,0,0.25813113,143.47961,749.23576)" cx="64" cy="1020.36" r="52"/>
  <linearGradient inkscape:collect="always" xlink:href="#linearGradient4723" id="linearGradient4729" y1="88" x2="0" y2="74" gradientUnits="userSpaceOnUse"/>
 </defs>
 <metadata id="metadata7"/>
 <g inkscape:label="Layer 1" inkscape:groupmode="layer" id="layer1" transform="translate(0,-924.36218)">
  <rect id="rect5693" width="112" height="96" x="8" y="948.36" rx="8" filter="url(#filter5715)"/>
  <rect rx="8" y="944.36" x="8" height="96" width="112" id="rect5631" fill="url(#radialGradient5641)"/>
  <path d="m 16,940.36218 c -4.432,0 -8,3.568 -8,8 l 0,80.00002 c 0,4.432 3.568,8 8,8 l 96,0 c 4.432,0 8,-3.568 8,-8 l 0,-80.00002 c 0,-4.432 -3.568,-8 -8,-8 l -96,0 z m 5.59375,5.59375 84.8125,0 c 4.94418,0 8.90625,3.99332 8.90625,8.93747 l 0,66.9375 c 0,4.9442 -3.96207,8.9375 -8.90625,8.9375 l -84.8125,0 c -4.944178,0 -8.90625,-3.9933 -8.90625,-8.9375 l 0,-66.9375 c 0,-4.94415 3.962072,-8.93747 8.90625,-8.93747 z" id="rect3824" inkscape:connector-curvature="0" fill="url(#radialGradient4700)"/>
  <path d="m 16,16 c -4.432,0 -8,3.568 -8,8 l 0,60.90625 c 2.577978,1.139292 1.249033,2.206404 4,3.1875 L 12,32 c 0,-4.432 3.568,-8 8,-8 l 88,0 c 4.432,0 8,3.568 8,8 l 0,56.09375 c 2.75097,-0.981096 1.42202,-2.048208 4,-3.1875 L 120,24 c 0,-4.432 -3.568,-8 -8,-8 z" id="rect5645" transform="translate(0,924.36218)" inkscape:connector-curvature="0" sodipodi:nodetypes="ssccssssccsss" opacity="0.75" fill="url(#linearGradient5669)"/>
  <rect id="rect5675" width="102.63" height="84.78" x="12.684" y="945.97" rx="8.925" opacity="0.75" fill="none" stroke="url(#linearGradient5683)" stroke-linejoin="round" stroke-linecap="round" stroke-width="1.116"/>
  <path d="M 21.59375 21.59375 C 16.649572 21.59375 12.6875 25.587072 12.6875 30.53125 L 12.6875 97.46875 C 12.6875 102.41293 16.649572 106.40625 21.59375 106.40625 L 106.40625 106.40625 C 111.35043 106.40625 115.3125 102.41293 115.3125 97.46875 L 115.3125 30.53125 C 115.3125 25.587072 111.35043 21.59375 106.40625 21.59375 L 21.59375 21.59375 z " id="rect4695" transform="translate(0,924.36218)"/>
  <path d="m 21.608584,945.97076 c -4.944178,0 -8.924509,3.98033 -8.924509,8.92451 l 0,51.49023 c 14.743496,5.5261 32.366656,8.7502 51.315925,8.7502 18.949269,0 36.57243,-3.2241 51.31592,-8.7502 l 0,-51.49023 c 0,-4.94418 -3.98033,-8.92451 -8.9245,-8.92451 l -84.782836,0 z" id="path5738" inkscape:connector-curvature="0" opacity="0.5" fill="url(#linearGradient5757)"/>
  <g transform="scale(1.0000055,0.99999448)" id="text4640" fill="#ffffff">
   <path d="m 20.418495,959.13279 0,-2.0285 14.288656,5.18271 0,1.85016 -14.288656,5.18271 0,-2.0285 11.479966,-4.06814 -11.479966,-4.09044" id="path4645"/>
   <path d="m 48.761749,974.15706 0,1.59382 -11.858915,0 0,-1.59382 11.858915,0" id="path4647"/>
  </g>
  <path inkscape:connector-curvature="0" id="path7219" d="m 148.65625,989.89343 c -1.14404,0 -2.09375,0.94971 -2.09375,2.09375 l 0,1.03122 0,21.6563 0,1.0312 c 0,1.1441 0.94971,2.0938 2.09375,2.0938 l 22.6875,0 c 1.14404,0 2.09375,-0.9497 2.09375,-2.0938 l 0,-1.0312 0,-21.6563 0,-1.03122 c 0,-1.14404 -0.94971,-2.09375 -2.09375,-2.09375 l -22.6875,0 z" opacity="0.25" fill="#000000" stroke="#000000" stroke-width="3"/>
  <path inkscape:connector-curvature="0" id="path7217" d="m 148.65625,989.89343 c -1.14404,0 -2.09375,0.94971 -2.09375,2.09375 l 0,1.03122 0,21.6563 0,1.0312 c 0,1.1441 0.94971,2.0938 2.09375,2.0938 l 22.6875,0 c 1.14404,0 2.09375,-0.9497 2.09375,-2.0938 l 0,-1.0312 0,-21.6563 0,-1.03122 c 0,-1.14404 -0.94971,-2.09375 -2.09375,-2.09375 l -22.6875,0 z" opacity="0.25" fill="#000000" stroke="#000000" stroke-width="2"/>
  <path inkscape:connector-curvature="0" id="rect7185" d="m 148.65625,989.89343 c -1.14404,0 -2.09375,0.94971 -2.09375,2.09375 l 0,1.03122 0,21.6563 0,1.0312 c 0,1.1441 0.94971,2.0938 2.09375,2.0938 l 22.6875,0 c 1.14404,0 2.09375,-0.9497 2.09375,-2.0938 l 0,-1.0312 0,-21.6563 0,-1.03122 c 0,-1.14404 -0.94971,-2.09375 -2.09375,-2.09375 l -22.6875,0 z" opacity="0.5" fill="#000000" stroke="#000000"/>
  <rect id="rect7150" y="1036.36" x="144" rx="2" height="16" width="16" fill="#808080"/>
  <text sodipodi:linespacing="125%" id="text5893" y="948.36" x="-56" fill="#000000" font-family="Sans" word-spacing="0" line-height="125%" letter-spacing="0" font-size="24"><tspan id="tspan5895" y="948.36" x="-56">128</tspan>
  </text>
  <text sodipodi:linespacing="125%" id="text5901" y="1000.36" x="184" fill="#000000" font-family="Sans" word-spacing="0" line-height="125%" letter-spacing="0" font-size="16"><tspan id="tspan5903" y="1000.36" x="184">31 - 17</tspan>
  </text>
  <text sodipodi:linespacing="125%" id="text5905" y="1048.36" x="172" fill="#000000" font-family="Sans" word-spacing="0" line-height="125%" letter-spacing="0" font-size="16"><tspan id="tspan5907" y="1048.36" x="172">16</tspan>
  </text>
  <rect id="rect5919" y="984.36" x="140" rx="0" height="40" width="40" fill="none" stroke="#000000" stroke-linejoin="round" stroke-linecap="round"/>
  <rect id="rect5921" y="1032.36" x="140" rx="0" height="24" width="24" fill="none" stroke="#000000" stroke-linejoin="round" stroke-linecap="round"/>
  <rect id="rect6935" y="980.36" x="144" rx="0" height="4" width="32" fill="#b3b3b3"/>
  <rect id="rect6937" y="988.36" x="136" rx="0" height="32" width="4" fill="#b3b3b3"/>
  <rect id="rect6939" y="1028.36" x="144" rx="0" height="4" width="16" fill="#b3b3b3"/>
  <rect id="rect6941" y="1036.36" x="136" rx="0" height="16" width="4" fill="#b3b3b3"/>
  <rect id="rect7118" y="1037.36" x="145" rx="1.077" height="14" width="14" fill="#ffffff"/>
  <rect id="rect5952" y="990.94" x="146.58" rx="2.065" height="26.846" width="26.846" fill="url(#radialGradient5928)"/>
  <rect id="rect5954" y="989.91" x="146.58" rx="2.065" height="26.846" width="26.846" fill="#ffffff"/>
  <rect id="rect5956" y="990.17" x="146.84" rx="2.065" height="26.329" width="26.329" opacity="0.5" fill="url(#linearGradient5924)"/>
  <path d="M 144,121.09375 144,126 c 0,1 1,2 2,2 l 12,0 c 1,0 2,-1 2,-2 l 0,-4.90625 C 158.73163,121.64665 156.96049,122 155,122 l -6,0 c -1.96049,0 -3.73163,-0.35335 -5,-0.90625 z" id="rect4774" transform="translate(0,924.36218)" inkscape:connector-curvature="0" sodipodi:nodetypes="csssscssc" fill="#b3b3b3"/>
  <rect id="rect7120" y="1037.36" x="145" rx="1.098" height="14" width="14" fill="#000000"/>
  <path d="m 146,115 0,4 3,-2 z" id="path3892" inkscape:connector-curvature="0" transform="translate(0,924.36218)" fill="#ffffff"/>
  <rect id="rect3894" width="4" height="1" x="149" y="119" transform="translate(0,924.36218)" rx="0" ry="0.5" fill="#ffffff"/>
  <rect id="rect4712" width="24" height="24" x="148" y="67" transform="translate(0,924.36218)" rx="2.065" stroke-opacity="0.623" fill="#000000" stroke="#cccccc"/>
  <text x="150" y="999.36" id="text4714" sodipodi:linespacing="125%" fill="#ffffff" font-family="Sans" word-spacing="0" line-height="125%" letter-spacing="0" font-size="7.105"><tspan sodipodi:role="line" id="tspan4716" x="150" y="999.36">&gt;_</tspan>
  </text>
  <path d="M 150.0625 67 C 148.91846 67 148 67.918463 148 69.0625 L 148 81.5625 C 150.84256 84.005513 155.16532 85.5625 160 85.5625 C 164.83468 85.5625 169.15744 84.005513 172 81.5625 L 172 69.0625 C 172 67.918463 171.08154 67 169.9375 67 L 150.0625 67 z " transform="translate(0,924.36218)" id="path4718" opacity="0.392" fill="url(#linearGradient4729)"/>
 </g>
</svg>
